G04 #@! TF.GenerationSoftware,KiCad,Pcbnew,(5.1.5)-3*
G04 #@! TF.CreationDate,2020-01-18T14:14:09+05:30*
G04 #@! TF.ProjectId,ergocape,6572676f-6361-4706-952e-6b696361645f,rev?*
G04 #@! TF.SameCoordinates,Original*
G04 #@! TF.FileFunction,Copper,L2,Bot*
G04 #@! TF.FilePolarity,Positive*
%FSLAX46Y46*%
G04 Gerber Fmt 4.6, Leading zero omitted, Abs format (unit mm)*
G04 Created by KiCad (PCBNEW (5.1.5)-3) date 2020-01-18 14:14:09*
%MOMM*%
%LPD*%
G04 APERTURE LIST*
%ADD10C,0.254000*%
G04 APERTURE END LIST*
D10*
G36*
X168707689Y-17760160D02*
G01*
X169001735Y-17848937D01*
X169272936Y-17993138D01*
X169510961Y-18187266D01*
X169706751Y-18423936D01*
X169852840Y-18694120D01*
X169943669Y-18987542D01*
X169978000Y-19314187D01*
X169978001Y-105377068D01*
X169976280Y-105388921D01*
X169978001Y-105421893D01*
X169978001Y-105432399D01*
X169979168Y-105444245D01*
X169980962Y-105478622D01*
X169983563Y-105488872D01*
X169984599Y-105499392D01*
X169994586Y-105532315D01*
X170003054Y-105565686D01*
X170007606Y-105575235D01*
X170010674Y-105585348D01*
X170026893Y-105615692D01*
X170041708Y-105646768D01*
X170048033Y-105655243D01*
X170053017Y-105664566D01*
X170074852Y-105691172D01*
X170095437Y-105718751D01*
X170103291Y-105725825D01*
X170110000Y-105734001D01*
X170136605Y-105755835D01*
X170162176Y-105778869D01*
X170171264Y-105784278D01*
X170179435Y-105790984D01*
X170209780Y-105807204D01*
X170220022Y-105813300D01*
X170229544Y-105817768D01*
X170258653Y-105833327D01*
X170270112Y-105836803D01*
X204178884Y-121747454D01*
X204179352Y-121747731D01*
X204199044Y-121756913D01*
X204218942Y-121766250D01*
X204219460Y-121766434D01*
X204639837Y-121962458D01*
X204795505Y-122054519D01*
X204913617Y-122160123D01*
X205008969Y-122286659D01*
X205077926Y-122429303D01*
X205117864Y-122582626D01*
X205127259Y-122740784D01*
X205105757Y-122897758D01*
X205047312Y-123067492D01*
X189174156Y-157091768D01*
X189082069Y-157247479D01*
X188976466Y-157365588D01*
X188849934Y-157460937D01*
X188707288Y-157529895D01*
X188553964Y-157569834D01*
X188395808Y-157579230D01*
X188238835Y-157557727D01*
X188069046Y-157499265D01*
X153793201Y-141523169D01*
X153788067Y-141520307D01*
X153772909Y-141513711D01*
X153757925Y-141506727D01*
X153752380Y-141504778D01*
X153670543Y-141469167D01*
X147741149Y-132544511D01*
X177720000Y-132544511D01*
X177720000Y-132885489D01*
X177786521Y-133219914D01*
X177917007Y-133534936D01*
X178106444Y-133818448D01*
X178347552Y-134059556D01*
X178631064Y-134248993D01*
X178946086Y-134379479D01*
X179280511Y-134446000D01*
X179621489Y-134446000D01*
X179955914Y-134379479D01*
X180270936Y-134248993D01*
X180554448Y-134059556D01*
X180795556Y-133818448D01*
X180984993Y-133534936D01*
X181115479Y-133219914D01*
X181182000Y-132885489D01*
X181182000Y-132544511D01*
X181115479Y-132210086D01*
X180984993Y-131895064D01*
X180795556Y-131611552D01*
X180554448Y-131370444D01*
X180270936Y-131181007D01*
X179955914Y-131050521D01*
X179621489Y-130984000D01*
X179280511Y-130984000D01*
X178946086Y-131050521D01*
X178631064Y-131181007D01*
X178347552Y-131370444D01*
X178106444Y-131611552D01*
X177917007Y-131895064D01*
X177786521Y-132210086D01*
X177720000Y-132544511D01*
X147741149Y-132544511D01*
X143901879Y-126765817D01*
X143890984Y-126745434D01*
X143862734Y-126711011D01*
X143834851Y-126676852D01*
X143834387Y-126676469D01*
X143834001Y-126675999D01*
X143799574Y-126647746D01*
X143765565Y-126619686D01*
X143765035Y-126619401D01*
X143764566Y-126619016D01*
X143725244Y-126597998D01*
X143686459Y-126577136D01*
X143685886Y-126576960D01*
X143685348Y-126576673D01*
X143642643Y-126563718D01*
X143600572Y-126550835D01*
X143599974Y-126550774D01*
X143599392Y-126550598D01*
X143555091Y-126546235D01*
X143511204Y-126541796D01*
X143488206Y-126544000D01*
X55244305Y-126544000D01*
X54099406Y-125857062D01*
X54097113Y-125855403D01*
X54080134Y-125845499D01*
X54063403Y-125835460D01*
X54060864Y-125834257D01*
X51043452Y-124074101D01*
X51038020Y-124070405D01*
X51024087Y-124062805D01*
X51010417Y-124054831D01*
X51004461Y-124052100D01*
X49577048Y-123273511D01*
X110855000Y-123273511D01*
X110855000Y-123614489D01*
X110921521Y-123948914D01*
X111052007Y-124263936D01*
X111241444Y-124547448D01*
X111482552Y-124788556D01*
X111766064Y-124977993D01*
X112081086Y-125108479D01*
X112415511Y-125175000D01*
X112756489Y-125175000D01*
X113090914Y-125108479D01*
X113405936Y-124977993D01*
X113689448Y-124788556D01*
X113930556Y-124547448D01*
X114119993Y-124263936D01*
X114250479Y-123948914D01*
X114317000Y-123614489D01*
X114317000Y-123273511D01*
X114250479Y-122939086D01*
X114119993Y-122624064D01*
X113930556Y-122340552D01*
X113689448Y-122099444D01*
X113405936Y-121910007D01*
X113090914Y-121779521D01*
X112756489Y-121713000D01*
X112415511Y-121713000D01*
X112081086Y-121779521D01*
X111766064Y-121910007D01*
X111482552Y-122099444D01*
X111241444Y-122340552D01*
X111052007Y-122624064D01*
X110921521Y-122939086D01*
X110855000Y-123273511D01*
X49577048Y-123273511D01*
X33744381Y-114637511D01*
X39163000Y-114637511D01*
X39163000Y-114978489D01*
X39229521Y-115312914D01*
X39360007Y-115627936D01*
X39549444Y-115911448D01*
X39790552Y-116152556D01*
X40074064Y-116341993D01*
X40389086Y-116472479D01*
X40723511Y-116539000D01*
X41064489Y-116539000D01*
X41398914Y-116472479D01*
X41713936Y-116341993D01*
X41997448Y-116152556D01*
X42238556Y-115911448D01*
X42427993Y-115627936D01*
X42558479Y-115312914D01*
X42625000Y-114978489D01*
X42625000Y-114637511D01*
X42558479Y-114303086D01*
X42427993Y-113988064D01*
X42238556Y-113704552D01*
X41997448Y-113463444D01*
X41713936Y-113274007D01*
X41398914Y-113143521D01*
X41064489Y-113077000D01*
X40723511Y-113077000D01*
X40389086Y-113143521D01*
X40074064Y-113274007D01*
X39790552Y-113463444D01*
X39549444Y-113704552D01*
X39360007Y-113988064D01*
X39229521Y-114303086D01*
X39163000Y-114637511D01*
X33744381Y-114637511D01*
X23090857Y-108826498D01*
X23083963Y-108822159D01*
X23071221Y-108815788D01*
X23058692Y-108808954D01*
X23051181Y-108805768D01*
X22808000Y-108684178D01*
X22808000Y-107652511D01*
X165655000Y-107652511D01*
X165655000Y-107993489D01*
X165721521Y-108327914D01*
X165852007Y-108642936D01*
X166041444Y-108926448D01*
X166282552Y-109167556D01*
X166566064Y-109356993D01*
X166881086Y-109487479D01*
X167215511Y-109554000D01*
X167556489Y-109554000D01*
X167890914Y-109487479D01*
X168205936Y-109356993D01*
X168489448Y-109167556D01*
X168730556Y-108926448D01*
X168919993Y-108642936D01*
X169050479Y-108327914D01*
X169117000Y-107993489D01*
X169117000Y-107652511D01*
X169050479Y-107318086D01*
X168919993Y-107003064D01*
X168730556Y-106719552D01*
X168489448Y-106478444D01*
X168205936Y-106289007D01*
X167890914Y-106158521D01*
X167556489Y-106092000D01*
X167215511Y-106092000D01*
X166881086Y-106158521D01*
X166566064Y-106289007D01*
X166282552Y-106478444D01*
X166041444Y-106719552D01*
X165852007Y-107003064D01*
X165721521Y-107318086D01*
X165655000Y-107652511D01*
X22808000Y-107652511D01*
X22808000Y-98197762D01*
X22826040Y-98138292D01*
X22833000Y-98067626D01*
X22833000Y-87857000D01*
X31726374Y-87857000D01*
X31750000Y-87859327D01*
X31773626Y-87857000D01*
X31844292Y-87850040D01*
X31934961Y-87822536D01*
X32018522Y-87777872D01*
X32091764Y-87717764D01*
X32151872Y-87644522D01*
X32196536Y-87560961D01*
X32224040Y-87470292D01*
X32233327Y-87376000D01*
X32231000Y-87352374D01*
X32231000Y-68807000D01*
X36552374Y-68807000D01*
X36576000Y-68809327D01*
X36599626Y-68807000D01*
X36670292Y-68800040D01*
X36760961Y-68772536D01*
X36844522Y-68727872D01*
X36917764Y-68667764D01*
X36977872Y-68594522D01*
X37022536Y-68510961D01*
X37050040Y-68420292D01*
X37059327Y-68326000D01*
X37057000Y-68302374D01*
X37057000Y-60281511D01*
X38401000Y-60281511D01*
X38401000Y-60622489D01*
X38467521Y-60956914D01*
X38598007Y-61271936D01*
X38787444Y-61555448D01*
X39028552Y-61796556D01*
X39312064Y-61985993D01*
X39627086Y-62116479D01*
X39961511Y-62183000D01*
X40302489Y-62183000D01*
X40636914Y-62116479D01*
X40951936Y-61985993D01*
X41235448Y-61796556D01*
X41476556Y-61555448D01*
X41665993Y-61271936D01*
X41796479Y-60956914D01*
X41863000Y-60622489D01*
X41863000Y-60472011D01*
X111489000Y-60472011D01*
X111489000Y-60812989D01*
X111555521Y-61147414D01*
X111686007Y-61462436D01*
X111875444Y-61745948D01*
X112116552Y-61987056D01*
X112400064Y-62176493D01*
X112715086Y-62306979D01*
X113049511Y-62373500D01*
X113390489Y-62373500D01*
X113724914Y-62306979D01*
X114039936Y-62176493D01*
X114323448Y-61987056D01*
X114564556Y-61745948D01*
X114753993Y-61462436D01*
X114884479Y-61147414D01*
X114951000Y-60812989D01*
X114951000Y-60472011D01*
X114884479Y-60137586D01*
X114753993Y-59822564D01*
X114564556Y-59539052D01*
X114323448Y-59297944D01*
X114039936Y-59108507D01*
X113724914Y-58978021D01*
X113390489Y-58911500D01*
X113049511Y-58911500D01*
X112715086Y-58978021D01*
X112400064Y-59108507D01*
X112116552Y-59297944D01*
X111875444Y-59539052D01*
X111686007Y-59822564D01*
X111555521Y-60137586D01*
X111489000Y-60472011D01*
X41863000Y-60472011D01*
X41863000Y-60281511D01*
X41796479Y-59947086D01*
X41665993Y-59632064D01*
X41476556Y-59348552D01*
X41235448Y-59107444D01*
X40951936Y-58918007D01*
X40636914Y-58787521D01*
X40302489Y-58721000D01*
X39961511Y-58721000D01*
X39627086Y-58787521D01*
X39312064Y-58918007D01*
X39028552Y-59107444D01*
X38787444Y-59348552D01*
X38598007Y-59632064D01*
X38467521Y-59947086D01*
X38401000Y-60281511D01*
X37057000Y-60281511D01*
X37057000Y-48871374D01*
X37050040Y-48800708D01*
X37032020Y-48741304D01*
X37035884Y-20403511D01*
X38401000Y-20403511D01*
X38401000Y-20744489D01*
X38467521Y-21078914D01*
X38598007Y-21393936D01*
X38787444Y-21677448D01*
X39028552Y-21918556D01*
X39312064Y-22107993D01*
X39627086Y-22238479D01*
X39961511Y-22305000D01*
X40302489Y-22305000D01*
X40636914Y-22238479D01*
X40951936Y-22107993D01*
X41235448Y-21918556D01*
X41476556Y-21677448D01*
X41665993Y-21393936D01*
X41796479Y-21078914D01*
X41863000Y-20744489D01*
X41863000Y-20403511D01*
X110791000Y-20403511D01*
X110791000Y-20744489D01*
X110857521Y-21078914D01*
X110988007Y-21393936D01*
X111177444Y-21677448D01*
X111418552Y-21918556D01*
X111702064Y-22107993D01*
X112017086Y-22238479D01*
X112351511Y-22305000D01*
X112692489Y-22305000D01*
X113026914Y-22238479D01*
X113341936Y-22107993D01*
X113625448Y-21918556D01*
X113866556Y-21677448D01*
X114055993Y-21393936D01*
X114186479Y-21078914D01*
X114253000Y-20744489D01*
X114253000Y-20403511D01*
X164893000Y-20403511D01*
X164893000Y-20744489D01*
X164959521Y-21078914D01*
X165090007Y-21393936D01*
X165279444Y-21677448D01*
X165520552Y-21918556D01*
X165804064Y-22107993D01*
X166119086Y-22238479D01*
X166453511Y-22305000D01*
X166794489Y-22305000D01*
X167128914Y-22238479D01*
X167443936Y-22107993D01*
X167727448Y-21918556D01*
X167968556Y-21677448D01*
X168157993Y-21393936D01*
X168288479Y-21078914D01*
X168355000Y-20744489D01*
X168355000Y-20403511D01*
X168288479Y-20069086D01*
X168157993Y-19754064D01*
X167968556Y-19470552D01*
X167727448Y-19229444D01*
X167443936Y-19040007D01*
X167128914Y-18909521D01*
X166794489Y-18843000D01*
X166453511Y-18843000D01*
X166119086Y-18909521D01*
X165804064Y-19040007D01*
X165520552Y-19229444D01*
X165279444Y-19470552D01*
X165090007Y-19754064D01*
X164959521Y-20069086D01*
X164893000Y-20403511D01*
X114253000Y-20403511D01*
X114186479Y-20069086D01*
X114055993Y-19754064D01*
X113866556Y-19470552D01*
X113625448Y-19229444D01*
X113341936Y-19040007D01*
X113026914Y-18909521D01*
X112692489Y-18843000D01*
X112351511Y-18843000D01*
X112017086Y-18909521D01*
X111702064Y-19040007D01*
X111418552Y-19229444D01*
X111177444Y-19470552D01*
X110988007Y-19754064D01*
X110857521Y-20069086D01*
X110791000Y-20403511D01*
X41863000Y-20403511D01*
X41796479Y-20069086D01*
X41665993Y-19754064D01*
X41476556Y-19470552D01*
X41235448Y-19229444D01*
X40951936Y-19040007D01*
X40636914Y-18909521D01*
X40302489Y-18843000D01*
X39961511Y-18843000D01*
X39627086Y-18909521D01*
X39312064Y-19040007D01*
X39028552Y-19229444D01*
X38787444Y-19470552D01*
X38598007Y-19754064D01*
X38467521Y-20069086D01*
X38401000Y-20403511D01*
X37035884Y-20403511D01*
X37035997Y-19580337D01*
X37072998Y-19202974D01*
X37176103Y-18861473D01*
X37343575Y-18546504D01*
X37569038Y-18270059D01*
X37843897Y-18042676D01*
X38157695Y-17873006D01*
X38498468Y-17767519D01*
X38874472Y-17728000D01*
X168379695Y-17728000D01*
X168707689Y-17760160D01*
G37*
X168707689Y-17760160D02*
X169001735Y-17848937D01*
X169272936Y-17993138D01*
X169510961Y-18187266D01*
X169706751Y-18423936D01*
X169852840Y-18694120D01*
X169943669Y-18987542D01*
X169978000Y-19314187D01*
X169978001Y-105377068D01*
X169976280Y-105388921D01*
X169978001Y-105421893D01*
X169978001Y-105432399D01*
X169979168Y-105444245D01*
X169980962Y-105478622D01*
X169983563Y-105488872D01*
X169984599Y-105499392D01*
X169994586Y-105532315D01*
X170003054Y-105565686D01*
X170007606Y-105575235D01*
X170010674Y-105585348D01*
X170026893Y-105615692D01*
X170041708Y-105646768D01*
X170048033Y-105655243D01*
X170053017Y-105664566D01*
X170074852Y-105691172D01*
X170095437Y-105718751D01*
X170103291Y-105725825D01*
X170110000Y-105734001D01*
X170136605Y-105755835D01*
X170162176Y-105778869D01*
X170171264Y-105784278D01*
X170179435Y-105790984D01*
X170209780Y-105807204D01*
X170220022Y-105813300D01*
X170229544Y-105817768D01*
X170258653Y-105833327D01*
X170270112Y-105836803D01*
X204178884Y-121747454D01*
X204179352Y-121747731D01*
X204199044Y-121756913D01*
X204218942Y-121766250D01*
X204219460Y-121766434D01*
X204639837Y-121962458D01*
X204795505Y-122054519D01*
X204913617Y-122160123D01*
X205008969Y-122286659D01*
X205077926Y-122429303D01*
X205117864Y-122582626D01*
X205127259Y-122740784D01*
X205105757Y-122897758D01*
X205047312Y-123067492D01*
X189174156Y-157091768D01*
X189082069Y-157247479D01*
X188976466Y-157365588D01*
X188849934Y-157460937D01*
X188707288Y-157529895D01*
X188553964Y-157569834D01*
X188395808Y-157579230D01*
X188238835Y-157557727D01*
X188069046Y-157499265D01*
X153793201Y-141523169D01*
X153788067Y-141520307D01*
X153772909Y-141513711D01*
X153757925Y-141506727D01*
X153752380Y-141504778D01*
X153670543Y-141469167D01*
X147741149Y-132544511D01*
X177720000Y-132544511D01*
X177720000Y-132885489D01*
X177786521Y-133219914D01*
X177917007Y-133534936D01*
X178106444Y-133818448D01*
X178347552Y-134059556D01*
X178631064Y-134248993D01*
X178946086Y-134379479D01*
X179280511Y-134446000D01*
X179621489Y-134446000D01*
X179955914Y-134379479D01*
X180270936Y-134248993D01*
X180554448Y-134059556D01*
X180795556Y-133818448D01*
X180984993Y-133534936D01*
X181115479Y-133219914D01*
X181182000Y-132885489D01*
X181182000Y-132544511D01*
X181115479Y-132210086D01*
X180984993Y-131895064D01*
X180795556Y-131611552D01*
X180554448Y-131370444D01*
X180270936Y-131181007D01*
X179955914Y-131050521D01*
X179621489Y-130984000D01*
X179280511Y-130984000D01*
X178946086Y-131050521D01*
X178631064Y-131181007D01*
X178347552Y-131370444D01*
X178106444Y-131611552D01*
X177917007Y-131895064D01*
X177786521Y-132210086D01*
X177720000Y-132544511D01*
X147741149Y-132544511D01*
X143901879Y-126765817D01*
X143890984Y-126745434D01*
X143862734Y-126711011D01*
X143834851Y-126676852D01*
X143834387Y-126676469D01*
X143834001Y-126675999D01*
X143799574Y-126647746D01*
X143765565Y-126619686D01*
X143765035Y-126619401D01*
X143764566Y-126619016D01*
X143725244Y-126597998D01*
X143686459Y-126577136D01*
X143685886Y-126576960D01*
X143685348Y-126576673D01*
X143642643Y-126563718D01*
X143600572Y-126550835D01*
X143599974Y-126550774D01*
X143599392Y-126550598D01*
X143555091Y-126546235D01*
X143511204Y-126541796D01*
X143488206Y-126544000D01*
X55244305Y-126544000D01*
X54099406Y-125857062D01*
X54097113Y-125855403D01*
X54080134Y-125845499D01*
X54063403Y-125835460D01*
X54060864Y-125834257D01*
X51043452Y-124074101D01*
X51038020Y-124070405D01*
X51024087Y-124062805D01*
X51010417Y-124054831D01*
X51004461Y-124052100D01*
X49577048Y-123273511D01*
X110855000Y-123273511D01*
X110855000Y-123614489D01*
X110921521Y-123948914D01*
X111052007Y-124263936D01*
X111241444Y-124547448D01*
X111482552Y-124788556D01*
X111766064Y-124977993D01*
X112081086Y-125108479D01*
X112415511Y-125175000D01*
X112756489Y-125175000D01*
X113090914Y-125108479D01*
X113405936Y-124977993D01*
X113689448Y-124788556D01*
X113930556Y-124547448D01*
X114119993Y-124263936D01*
X114250479Y-123948914D01*
X114317000Y-123614489D01*
X114317000Y-123273511D01*
X114250479Y-122939086D01*
X114119993Y-122624064D01*
X113930556Y-122340552D01*
X113689448Y-122099444D01*
X113405936Y-121910007D01*
X113090914Y-121779521D01*
X112756489Y-121713000D01*
X112415511Y-121713000D01*
X112081086Y-121779521D01*
X111766064Y-121910007D01*
X111482552Y-122099444D01*
X111241444Y-122340552D01*
X111052007Y-122624064D01*
X110921521Y-122939086D01*
X110855000Y-123273511D01*
X49577048Y-123273511D01*
X33744381Y-114637511D01*
X39163000Y-114637511D01*
X39163000Y-114978489D01*
X39229521Y-115312914D01*
X39360007Y-115627936D01*
X39549444Y-115911448D01*
X39790552Y-116152556D01*
X40074064Y-116341993D01*
X40389086Y-116472479D01*
X40723511Y-116539000D01*
X41064489Y-116539000D01*
X41398914Y-116472479D01*
X41713936Y-116341993D01*
X41997448Y-116152556D01*
X42238556Y-115911448D01*
X42427993Y-115627936D01*
X42558479Y-115312914D01*
X42625000Y-114978489D01*
X42625000Y-114637511D01*
X42558479Y-114303086D01*
X42427993Y-113988064D01*
X42238556Y-113704552D01*
X41997448Y-113463444D01*
X41713936Y-113274007D01*
X41398914Y-113143521D01*
X41064489Y-113077000D01*
X40723511Y-113077000D01*
X40389086Y-113143521D01*
X40074064Y-113274007D01*
X39790552Y-113463444D01*
X39549444Y-113704552D01*
X39360007Y-113988064D01*
X39229521Y-114303086D01*
X39163000Y-114637511D01*
X33744381Y-114637511D01*
X23090857Y-108826498D01*
X23083963Y-108822159D01*
X23071221Y-108815788D01*
X23058692Y-108808954D01*
X23051181Y-108805768D01*
X22808000Y-108684178D01*
X22808000Y-107652511D01*
X165655000Y-107652511D01*
X165655000Y-107993489D01*
X165721521Y-108327914D01*
X165852007Y-108642936D01*
X166041444Y-108926448D01*
X166282552Y-109167556D01*
X166566064Y-109356993D01*
X166881086Y-109487479D01*
X167215511Y-109554000D01*
X167556489Y-109554000D01*
X167890914Y-109487479D01*
X168205936Y-109356993D01*
X168489448Y-109167556D01*
X168730556Y-108926448D01*
X168919993Y-108642936D01*
X169050479Y-108327914D01*
X169117000Y-107993489D01*
X169117000Y-107652511D01*
X169050479Y-107318086D01*
X168919993Y-107003064D01*
X168730556Y-106719552D01*
X168489448Y-106478444D01*
X168205936Y-106289007D01*
X167890914Y-106158521D01*
X167556489Y-106092000D01*
X167215511Y-106092000D01*
X166881086Y-106158521D01*
X166566064Y-106289007D01*
X166282552Y-106478444D01*
X166041444Y-106719552D01*
X165852007Y-107003064D01*
X165721521Y-107318086D01*
X165655000Y-107652511D01*
X22808000Y-107652511D01*
X22808000Y-98197762D01*
X22826040Y-98138292D01*
X22833000Y-98067626D01*
X22833000Y-87857000D01*
X31726374Y-87857000D01*
X31750000Y-87859327D01*
X31773626Y-87857000D01*
X31844292Y-87850040D01*
X31934961Y-87822536D01*
X32018522Y-87777872D01*
X32091764Y-87717764D01*
X32151872Y-87644522D01*
X32196536Y-87560961D01*
X32224040Y-87470292D01*
X32233327Y-87376000D01*
X32231000Y-87352374D01*
X32231000Y-68807000D01*
X36552374Y-68807000D01*
X36576000Y-68809327D01*
X36599626Y-68807000D01*
X36670292Y-68800040D01*
X36760961Y-68772536D01*
X36844522Y-68727872D01*
X36917764Y-68667764D01*
X36977872Y-68594522D01*
X37022536Y-68510961D01*
X37050040Y-68420292D01*
X37059327Y-68326000D01*
X37057000Y-68302374D01*
X37057000Y-60281511D01*
X38401000Y-60281511D01*
X38401000Y-60622489D01*
X38467521Y-60956914D01*
X38598007Y-61271936D01*
X38787444Y-61555448D01*
X39028552Y-61796556D01*
X39312064Y-61985993D01*
X39627086Y-62116479D01*
X39961511Y-62183000D01*
X40302489Y-62183000D01*
X40636914Y-62116479D01*
X40951936Y-61985993D01*
X41235448Y-61796556D01*
X41476556Y-61555448D01*
X41665993Y-61271936D01*
X41796479Y-60956914D01*
X41863000Y-60622489D01*
X41863000Y-60472011D01*
X111489000Y-60472011D01*
X111489000Y-60812989D01*
X111555521Y-61147414D01*
X111686007Y-61462436D01*
X111875444Y-61745948D01*
X112116552Y-61987056D01*
X112400064Y-62176493D01*
X112715086Y-62306979D01*
X113049511Y-62373500D01*
X113390489Y-62373500D01*
X113724914Y-62306979D01*
X114039936Y-62176493D01*
X114323448Y-61987056D01*
X114564556Y-61745948D01*
X114753993Y-61462436D01*
X114884479Y-61147414D01*
X114951000Y-60812989D01*
X114951000Y-60472011D01*
X114884479Y-60137586D01*
X114753993Y-59822564D01*
X114564556Y-59539052D01*
X114323448Y-59297944D01*
X114039936Y-59108507D01*
X113724914Y-58978021D01*
X113390489Y-58911500D01*
X113049511Y-58911500D01*
X112715086Y-58978021D01*
X112400064Y-59108507D01*
X112116552Y-59297944D01*
X111875444Y-59539052D01*
X111686007Y-59822564D01*
X111555521Y-60137586D01*
X111489000Y-60472011D01*
X41863000Y-60472011D01*
X41863000Y-60281511D01*
X41796479Y-59947086D01*
X41665993Y-59632064D01*
X41476556Y-59348552D01*
X41235448Y-59107444D01*
X40951936Y-58918007D01*
X40636914Y-58787521D01*
X40302489Y-58721000D01*
X39961511Y-58721000D01*
X39627086Y-58787521D01*
X39312064Y-58918007D01*
X39028552Y-59107444D01*
X38787444Y-59348552D01*
X38598007Y-59632064D01*
X38467521Y-59947086D01*
X38401000Y-60281511D01*
X37057000Y-60281511D01*
X37057000Y-48871374D01*
X37050040Y-48800708D01*
X37032020Y-48741304D01*
X37035884Y-20403511D01*
X38401000Y-20403511D01*
X38401000Y-20744489D01*
X38467521Y-21078914D01*
X38598007Y-21393936D01*
X38787444Y-21677448D01*
X39028552Y-21918556D01*
X39312064Y-22107993D01*
X39627086Y-22238479D01*
X39961511Y-22305000D01*
X40302489Y-22305000D01*
X40636914Y-22238479D01*
X40951936Y-22107993D01*
X41235448Y-21918556D01*
X41476556Y-21677448D01*
X41665993Y-21393936D01*
X41796479Y-21078914D01*
X41863000Y-20744489D01*
X41863000Y-20403511D01*
X110791000Y-20403511D01*
X110791000Y-20744489D01*
X110857521Y-21078914D01*
X110988007Y-21393936D01*
X111177444Y-21677448D01*
X111418552Y-21918556D01*
X111702064Y-22107993D01*
X112017086Y-22238479D01*
X112351511Y-22305000D01*
X112692489Y-22305000D01*
X113026914Y-22238479D01*
X113341936Y-22107993D01*
X113625448Y-21918556D01*
X113866556Y-21677448D01*
X114055993Y-21393936D01*
X114186479Y-21078914D01*
X114253000Y-20744489D01*
X114253000Y-20403511D01*
X164893000Y-20403511D01*
X164893000Y-20744489D01*
X164959521Y-21078914D01*
X165090007Y-21393936D01*
X165279444Y-21677448D01*
X165520552Y-21918556D01*
X165804064Y-22107993D01*
X166119086Y-22238479D01*
X166453511Y-22305000D01*
X166794489Y-22305000D01*
X167128914Y-22238479D01*
X167443936Y-22107993D01*
X167727448Y-21918556D01*
X167968556Y-21677448D01*
X168157993Y-21393936D01*
X168288479Y-21078914D01*
X168355000Y-20744489D01*
X168355000Y-20403511D01*
X168288479Y-20069086D01*
X168157993Y-19754064D01*
X167968556Y-19470552D01*
X167727448Y-19229444D01*
X167443936Y-19040007D01*
X167128914Y-18909521D01*
X166794489Y-18843000D01*
X166453511Y-18843000D01*
X166119086Y-18909521D01*
X165804064Y-19040007D01*
X165520552Y-19229444D01*
X165279444Y-19470552D01*
X165090007Y-19754064D01*
X164959521Y-20069086D01*
X164893000Y-20403511D01*
X114253000Y-20403511D01*
X114186479Y-20069086D01*
X114055993Y-19754064D01*
X113866556Y-19470552D01*
X113625448Y-19229444D01*
X113341936Y-19040007D01*
X113026914Y-18909521D01*
X112692489Y-18843000D01*
X112351511Y-18843000D01*
X112017086Y-18909521D01*
X111702064Y-19040007D01*
X111418552Y-19229444D01*
X111177444Y-19470552D01*
X110988007Y-19754064D01*
X110857521Y-20069086D01*
X110791000Y-20403511D01*
X41863000Y-20403511D01*
X41796479Y-20069086D01*
X41665993Y-19754064D01*
X41476556Y-19470552D01*
X41235448Y-19229444D01*
X40951936Y-19040007D01*
X40636914Y-18909521D01*
X40302489Y-18843000D01*
X39961511Y-18843000D01*
X39627086Y-18909521D01*
X39312064Y-19040007D01*
X39028552Y-19229444D01*
X38787444Y-19470552D01*
X38598007Y-19754064D01*
X38467521Y-20069086D01*
X38401000Y-20403511D01*
X37035884Y-20403511D01*
X37035997Y-19580337D01*
X37072998Y-19202974D01*
X37176103Y-18861473D01*
X37343575Y-18546504D01*
X37569038Y-18270059D01*
X37843897Y-18042676D01*
X38157695Y-17873006D01*
X38498468Y-17767519D01*
X38874472Y-17728000D01*
X168379695Y-17728000D01*
X168707689Y-17760160D01*
M02*
