G04 #@! TF.GenerationSoftware,KiCad,Pcbnew,(5.0.2)-1*
G04 #@! TF.CreationDate,2020-01-03T19:41:44+05:30*
G04 #@! TF.ProjectId,ergocape,6572676f-6361-4706-952e-6b696361645f,rev?*
G04 #@! TF.SameCoordinates,Original*
G04 #@! TF.FileFunction,Other,ECO1*
%FSLAX46Y46*%
G04 Gerber Fmt 4.6, Leading zero omitted, Abs format (unit mm)*
G04 Created by KiCad (PCBNEW (5.0.2)-1) date 1/3/2020 7:41:44 PM*
%MOMM*%
%LPD*%
G01*
G04 APERTURE LIST*
%ADD10C,0.100000*%
%ADD11C,0.150000*%
G04 APERTURE END LIST*
D10*
G04 #@! TO.C,K_1*
X90837500Y-46687500D02*
X77437500Y-46687500D01*
X77437500Y-46687500D02*
G75*
G02X77137500Y-46387500I0J300000D01*
G01*
X77137500Y-46387500D02*
X77137500Y-45987500D01*
X77137500Y-32987500D02*
G75*
G02X77437500Y-32687500I300000J0D01*
G01*
X90837500Y-32687500D02*
X77437500Y-32687500D01*
X77137500Y-37087500D02*
X77137500Y-42287500D01*
X77137500Y-33387500D02*
X77137500Y-32987500D01*
X91137500Y-45987500D02*
X91137500Y-46387500D01*
X90837500Y-32687500D02*
G75*
G02X91137500Y-32987500I0J-300000D01*
G01*
X91137500Y-37087500D02*
G75*
G02X91437500Y-36787500I300000J0D01*
G01*
X91437500Y-33687500D02*
X91837500Y-33687500D01*
X92137500Y-36487500D02*
X92137500Y-33987500D01*
X91837500Y-36787500D02*
X91437500Y-36787500D01*
X91137500Y-42287500D02*
X91137500Y-37087500D01*
X91137500Y-46387500D02*
G75*
G02X90837500Y-46687500I-300000J0D01*
G01*
X91437500Y-33687500D02*
G75*
G02X91137500Y-33387500I0J300000D01*
G01*
X91837500Y-33687500D02*
G75*
G02X92137500Y-33987500I0J-300000D01*
G01*
X91137500Y-32987500D02*
X91137500Y-33387500D01*
X91437500Y-42587500D02*
G75*
G02X91137500Y-42287500I0J300000D01*
G01*
X91837500Y-42587500D02*
G75*
G02X92137500Y-42887500I0J-300000D01*
G01*
X91837500Y-45687500D02*
X91437500Y-45687500D01*
X92137500Y-45387500D02*
X92137500Y-42887500D01*
X91437500Y-42587500D02*
X91837500Y-42587500D01*
X91137500Y-45987500D02*
G75*
G02X91437500Y-45687500I300000J0D01*
G01*
X77137500Y-42287500D02*
G75*
G02X76837500Y-42587500I-300000J0D01*
G01*
X76837500Y-45687500D02*
X76437500Y-45687500D01*
X76137500Y-42887500D02*
X76137500Y-45387500D01*
X76437500Y-42587500D02*
X76837500Y-42587500D01*
X76437500Y-45687500D02*
G75*
G02X76137500Y-45387500I0J300000D01*
G01*
X76837500Y-45687500D02*
G75*
G02X77137500Y-45987500I0J-300000D01*
G01*
X76437500Y-33687500D02*
X76837500Y-33687500D01*
X76837500Y-36787500D02*
X76437500Y-36787500D01*
X76137500Y-33987500D02*
X76137500Y-36487500D01*
X77137500Y-33387500D02*
G75*
G02X76837500Y-33687500I-300000J0D01*
G01*
X76837500Y-36787500D02*
G75*
G02X77137500Y-37087500I0J-300000D01*
G01*
X76437500Y-36787500D02*
G75*
G02X76137500Y-36487500I0J300000D01*
G01*
X92137500Y-36487500D02*
G75*
G02X91837500Y-36787500I-300000J0D01*
G01*
X92137500Y-45387500D02*
G75*
G02X91837500Y-45687500I-300000J0D01*
G01*
X76137500Y-42887500D02*
G75*
G02X76437500Y-42587500I300000J0D01*
G01*
X76137500Y-33987500D02*
G75*
G02X76437500Y-33687500I300000J0D01*
G01*
G04 #@! TO.C,K_2*
X109887500Y-42877500D02*
X96487500Y-42877500D01*
X96487500Y-42877500D02*
G75*
G02X96187500Y-42577500I0J300000D01*
G01*
X96187500Y-42577500D02*
X96187500Y-42177500D01*
X96187500Y-29177500D02*
G75*
G02X96487500Y-28877500I300000J0D01*
G01*
X109887500Y-28877500D02*
X96487500Y-28877500D01*
X96187500Y-33277500D02*
X96187500Y-38477500D01*
X96187500Y-29577500D02*
X96187500Y-29177500D01*
X110187500Y-42177500D02*
X110187500Y-42577500D01*
X109887500Y-28877500D02*
G75*
G02X110187500Y-29177500I0J-300000D01*
G01*
X110187500Y-33277500D02*
G75*
G02X110487500Y-32977500I300000J0D01*
G01*
X110487500Y-29877500D02*
X110887500Y-29877500D01*
X111187500Y-32677500D02*
X111187500Y-30177500D01*
X110887500Y-32977500D02*
X110487500Y-32977500D01*
X110187500Y-38477500D02*
X110187500Y-33277500D01*
X110187500Y-42577500D02*
G75*
G02X109887500Y-42877500I-300000J0D01*
G01*
X110487500Y-29877500D02*
G75*
G02X110187500Y-29577500I0J300000D01*
G01*
X110887500Y-29877500D02*
G75*
G02X111187500Y-30177500I0J-300000D01*
G01*
X110187500Y-29177500D02*
X110187500Y-29577500D01*
X110487500Y-38777500D02*
G75*
G02X110187500Y-38477500I0J300000D01*
G01*
X110887500Y-38777500D02*
G75*
G02X111187500Y-39077500I0J-300000D01*
G01*
X110887500Y-41877500D02*
X110487500Y-41877500D01*
X111187500Y-41577500D02*
X111187500Y-39077500D01*
X110487500Y-38777500D02*
X110887500Y-38777500D01*
X110187500Y-42177500D02*
G75*
G02X110487500Y-41877500I300000J0D01*
G01*
X96187500Y-38477500D02*
G75*
G02X95887500Y-38777500I-300000J0D01*
G01*
X95887500Y-41877500D02*
X95487500Y-41877500D01*
X95187500Y-39077500D02*
X95187500Y-41577500D01*
X95487500Y-38777500D02*
X95887500Y-38777500D01*
X95487500Y-41877500D02*
G75*
G02X95187500Y-41577500I0J300000D01*
G01*
X95887500Y-41877500D02*
G75*
G02X96187500Y-42177500I0J-300000D01*
G01*
X95487500Y-29877500D02*
X95887500Y-29877500D01*
X95887500Y-32977500D02*
X95487500Y-32977500D01*
X95187500Y-30177500D02*
X95187500Y-32677500D01*
X96187500Y-29577500D02*
G75*
G02X95887500Y-29877500I-300000J0D01*
G01*
X95887500Y-32977500D02*
G75*
G02X96187500Y-33277500I0J-300000D01*
G01*
X95487500Y-32977500D02*
G75*
G02X95187500Y-32677500I0J300000D01*
G01*
X111187500Y-32677500D02*
G75*
G02X110887500Y-32977500I-300000J0D01*
G01*
X111187500Y-41577500D02*
G75*
G02X110887500Y-41877500I-300000J0D01*
G01*
X95187500Y-39077500D02*
G75*
G02X95487500Y-38777500I300000J0D01*
G01*
X95187500Y-30177500D02*
G75*
G02X95487500Y-29877500I300000J0D01*
G01*
G04 #@! TO.C,K_3*
X114237500Y-26367500D02*
G75*
G02X114537500Y-26067500I300000J0D01*
G01*
X114237500Y-35267500D02*
G75*
G02X114537500Y-34967500I300000J0D01*
G01*
X130237500Y-37767500D02*
G75*
G02X129937500Y-38067500I-300000J0D01*
G01*
X130237500Y-28867500D02*
G75*
G02X129937500Y-29167500I-300000J0D01*
G01*
X114537500Y-29167500D02*
G75*
G02X114237500Y-28867500I0J300000D01*
G01*
X114937500Y-29167500D02*
G75*
G02X115237500Y-29467500I0J-300000D01*
G01*
X115237500Y-25767500D02*
G75*
G02X114937500Y-26067500I-300000J0D01*
G01*
X114237500Y-26367500D02*
X114237500Y-28867500D01*
X114937500Y-29167500D02*
X114537500Y-29167500D01*
X114537500Y-26067500D02*
X114937500Y-26067500D01*
X114937500Y-38067500D02*
G75*
G02X115237500Y-38367500I0J-300000D01*
G01*
X114537500Y-38067500D02*
G75*
G02X114237500Y-37767500I0J300000D01*
G01*
X114537500Y-34967500D02*
X114937500Y-34967500D01*
X114237500Y-35267500D02*
X114237500Y-37767500D01*
X114937500Y-38067500D02*
X114537500Y-38067500D01*
X115237500Y-34667500D02*
G75*
G02X114937500Y-34967500I-300000J0D01*
G01*
X129237500Y-38367500D02*
G75*
G02X129537500Y-38067500I300000J0D01*
G01*
X129537500Y-34967500D02*
X129937500Y-34967500D01*
X130237500Y-37767500D02*
X130237500Y-35267500D01*
X129937500Y-38067500D02*
X129537500Y-38067500D01*
X129937500Y-34967500D02*
G75*
G02X130237500Y-35267500I0J-300000D01*
G01*
X129537500Y-34967500D02*
G75*
G02X129237500Y-34667500I0J300000D01*
G01*
X129237500Y-25367500D02*
X129237500Y-25767500D01*
X129937500Y-26067500D02*
G75*
G02X130237500Y-26367500I0J-300000D01*
G01*
X129537500Y-26067500D02*
G75*
G02X129237500Y-25767500I0J300000D01*
G01*
X129237500Y-38767500D02*
G75*
G02X128937500Y-39067500I-300000J0D01*
G01*
X129237500Y-34667500D02*
X129237500Y-29467500D01*
X129937500Y-29167500D02*
X129537500Y-29167500D01*
X130237500Y-28867500D02*
X130237500Y-26367500D01*
X129537500Y-26067500D02*
X129937500Y-26067500D01*
X129237500Y-29467500D02*
G75*
G02X129537500Y-29167500I300000J0D01*
G01*
X128937500Y-25067500D02*
G75*
G02X129237500Y-25367500I0J-300000D01*
G01*
X129237500Y-38367500D02*
X129237500Y-38767500D01*
X115237500Y-25767500D02*
X115237500Y-25367500D01*
X115237500Y-29467500D02*
X115237500Y-34667500D01*
X128937500Y-25067500D02*
X115537500Y-25067500D01*
X115237500Y-25367500D02*
G75*
G02X115537500Y-25067500I300000J0D01*
G01*
X115237500Y-38767500D02*
X115237500Y-38367500D01*
X115537500Y-39067500D02*
G75*
G02X115237500Y-38767500I0J300000D01*
G01*
X128937500Y-39067500D02*
X115537500Y-39067500D01*
G04 #@! TO.C,K_4*
X147987500Y-42877500D02*
X134587500Y-42877500D01*
X134587500Y-42877500D02*
G75*
G02X134287500Y-42577500I0J300000D01*
G01*
X134287500Y-42577500D02*
X134287500Y-42177500D01*
X134287500Y-29177500D02*
G75*
G02X134587500Y-28877500I300000J0D01*
G01*
X147987500Y-28877500D02*
X134587500Y-28877500D01*
X134287500Y-33277500D02*
X134287500Y-38477500D01*
X134287500Y-29577500D02*
X134287500Y-29177500D01*
X148287500Y-42177500D02*
X148287500Y-42577500D01*
X147987500Y-28877500D02*
G75*
G02X148287500Y-29177500I0J-300000D01*
G01*
X148287500Y-33277500D02*
G75*
G02X148587500Y-32977500I300000J0D01*
G01*
X148587500Y-29877500D02*
X148987500Y-29877500D01*
X149287500Y-32677500D02*
X149287500Y-30177500D01*
X148987500Y-32977500D02*
X148587500Y-32977500D01*
X148287500Y-38477500D02*
X148287500Y-33277500D01*
X148287500Y-42577500D02*
G75*
G02X147987500Y-42877500I-300000J0D01*
G01*
X148587500Y-29877500D02*
G75*
G02X148287500Y-29577500I0J300000D01*
G01*
X148987500Y-29877500D02*
G75*
G02X149287500Y-30177500I0J-300000D01*
G01*
X148287500Y-29177500D02*
X148287500Y-29577500D01*
X148587500Y-38777500D02*
G75*
G02X148287500Y-38477500I0J300000D01*
G01*
X148987500Y-38777500D02*
G75*
G02X149287500Y-39077500I0J-300000D01*
G01*
X148987500Y-41877500D02*
X148587500Y-41877500D01*
X149287500Y-41577500D02*
X149287500Y-39077500D01*
X148587500Y-38777500D02*
X148987500Y-38777500D01*
X148287500Y-42177500D02*
G75*
G02X148587500Y-41877500I300000J0D01*
G01*
X134287500Y-38477500D02*
G75*
G02X133987500Y-38777500I-300000J0D01*
G01*
X133987500Y-41877500D02*
X133587500Y-41877500D01*
X133287500Y-39077500D02*
X133287500Y-41577500D01*
X133587500Y-38777500D02*
X133987500Y-38777500D01*
X133587500Y-41877500D02*
G75*
G02X133287500Y-41577500I0J300000D01*
G01*
X133987500Y-41877500D02*
G75*
G02X134287500Y-42177500I0J-300000D01*
G01*
X133587500Y-29877500D02*
X133987500Y-29877500D01*
X133987500Y-32977500D02*
X133587500Y-32977500D01*
X133287500Y-30177500D02*
X133287500Y-32677500D01*
X134287500Y-29577500D02*
G75*
G02X133987500Y-29877500I-300000J0D01*
G01*
X133987500Y-32977500D02*
G75*
G02X134287500Y-33277500I0J-300000D01*
G01*
X133587500Y-32977500D02*
G75*
G02X133287500Y-32677500I0J300000D01*
G01*
X149287500Y-32677500D02*
G75*
G02X148987500Y-32977500I-300000J0D01*
G01*
X149287500Y-41577500D02*
G75*
G02X148987500Y-41877500I-300000J0D01*
G01*
X133287500Y-39077500D02*
G75*
G02X133587500Y-38777500I300000J0D01*
G01*
X133287500Y-30177500D02*
G75*
G02X133587500Y-29877500I300000J0D01*
G01*
G04 #@! TO.C,K_5*
X152337500Y-33987500D02*
G75*
G02X152637500Y-33687500I300000J0D01*
G01*
X152337500Y-42887500D02*
G75*
G02X152637500Y-42587500I300000J0D01*
G01*
X168337500Y-45387500D02*
G75*
G02X168037500Y-45687500I-300000J0D01*
G01*
X168337500Y-36487500D02*
G75*
G02X168037500Y-36787500I-300000J0D01*
G01*
X152637500Y-36787500D02*
G75*
G02X152337500Y-36487500I0J300000D01*
G01*
X153037500Y-36787500D02*
G75*
G02X153337500Y-37087500I0J-300000D01*
G01*
X153337500Y-33387500D02*
G75*
G02X153037500Y-33687500I-300000J0D01*
G01*
X152337500Y-33987500D02*
X152337500Y-36487500D01*
X153037500Y-36787500D02*
X152637500Y-36787500D01*
X152637500Y-33687500D02*
X153037500Y-33687500D01*
X153037500Y-45687500D02*
G75*
G02X153337500Y-45987500I0J-300000D01*
G01*
X152637500Y-45687500D02*
G75*
G02X152337500Y-45387500I0J300000D01*
G01*
X152637500Y-42587500D02*
X153037500Y-42587500D01*
X152337500Y-42887500D02*
X152337500Y-45387500D01*
X153037500Y-45687500D02*
X152637500Y-45687500D01*
X153337500Y-42287500D02*
G75*
G02X153037500Y-42587500I-300000J0D01*
G01*
X167337500Y-45987500D02*
G75*
G02X167637500Y-45687500I300000J0D01*
G01*
X167637500Y-42587500D02*
X168037500Y-42587500D01*
X168337500Y-45387500D02*
X168337500Y-42887500D01*
X168037500Y-45687500D02*
X167637500Y-45687500D01*
X168037500Y-42587500D02*
G75*
G02X168337500Y-42887500I0J-300000D01*
G01*
X167637500Y-42587500D02*
G75*
G02X167337500Y-42287500I0J300000D01*
G01*
X167337500Y-32987500D02*
X167337500Y-33387500D01*
X168037500Y-33687500D02*
G75*
G02X168337500Y-33987500I0J-300000D01*
G01*
X167637500Y-33687500D02*
G75*
G02X167337500Y-33387500I0J300000D01*
G01*
X167337500Y-46387500D02*
G75*
G02X167037500Y-46687500I-300000J0D01*
G01*
X167337500Y-42287500D02*
X167337500Y-37087500D01*
X168037500Y-36787500D02*
X167637500Y-36787500D01*
X168337500Y-36487500D02*
X168337500Y-33987500D01*
X167637500Y-33687500D02*
X168037500Y-33687500D01*
X167337500Y-37087500D02*
G75*
G02X167637500Y-36787500I300000J0D01*
G01*
X167037500Y-32687500D02*
G75*
G02X167337500Y-32987500I0J-300000D01*
G01*
X167337500Y-45987500D02*
X167337500Y-46387500D01*
X153337500Y-33387500D02*
X153337500Y-32987500D01*
X153337500Y-37087500D02*
X153337500Y-42287500D01*
X167037500Y-32687500D02*
X153637500Y-32687500D01*
X153337500Y-32987500D02*
G75*
G02X153637500Y-32687500I300000J0D01*
G01*
X153337500Y-46387500D02*
X153337500Y-45987500D01*
X153637500Y-46687500D02*
G75*
G02X153337500Y-46387500I0J300000D01*
G01*
X167037500Y-46687500D02*
X153637500Y-46687500D01*
G04 #@! TO.C,K_A1*
X90837500Y-84787500D02*
X77437500Y-84787500D01*
X77437500Y-84787500D02*
G75*
G02X77137500Y-84487500I0J300000D01*
G01*
X77137500Y-84487500D02*
X77137500Y-84087500D01*
X77137500Y-71087500D02*
G75*
G02X77437500Y-70787500I300000J0D01*
G01*
X90837500Y-70787500D02*
X77437500Y-70787500D01*
X77137500Y-75187500D02*
X77137500Y-80387500D01*
X77137500Y-71487500D02*
X77137500Y-71087500D01*
X91137500Y-84087500D02*
X91137500Y-84487500D01*
X90837500Y-70787500D02*
G75*
G02X91137500Y-71087500I0J-300000D01*
G01*
X91137500Y-75187500D02*
G75*
G02X91437500Y-74887500I300000J0D01*
G01*
X91437500Y-71787500D02*
X91837500Y-71787500D01*
X92137500Y-74587500D02*
X92137500Y-72087500D01*
X91837500Y-74887500D02*
X91437500Y-74887500D01*
X91137500Y-80387500D02*
X91137500Y-75187500D01*
X91137500Y-84487500D02*
G75*
G02X90837500Y-84787500I-300000J0D01*
G01*
X91437500Y-71787500D02*
G75*
G02X91137500Y-71487500I0J300000D01*
G01*
X91837500Y-71787500D02*
G75*
G02X92137500Y-72087500I0J-300000D01*
G01*
X91137500Y-71087500D02*
X91137500Y-71487500D01*
X91437500Y-80687500D02*
G75*
G02X91137500Y-80387500I0J300000D01*
G01*
X91837500Y-80687500D02*
G75*
G02X92137500Y-80987500I0J-300000D01*
G01*
X91837500Y-83787500D02*
X91437500Y-83787500D01*
X92137500Y-83487500D02*
X92137500Y-80987500D01*
X91437500Y-80687500D02*
X91837500Y-80687500D01*
X91137500Y-84087500D02*
G75*
G02X91437500Y-83787500I300000J0D01*
G01*
X77137500Y-80387500D02*
G75*
G02X76837500Y-80687500I-300000J0D01*
G01*
X76837500Y-83787500D02*
X76437500Y-83787500D01*
X76137500Y-80987500D02*
X76137500Y-83487500D01*
X76437500Y-80687500D02*
X76837500Y-80687500D01*
X76437500Y-83787500D02*
G75*
G02X76137500Y-83487500I0J300000D01*
G01*
X76837500Y-83787500D02*
G75*
G02X77137500Y-84087500I0J-300000D01*
G01*
X76437500Y-71787500D02*
X76837500Y-71787500D01*
X76837500Y-74887500D02*
X76437500Y-74887500D01*
X76137500Y-72087500D02*
X76137500Y-74587500D01*
X77137500Y-71487500D02*
G75*
G02X76837500Y-71787500I-300000J0D01*
G01*
X76837500Y-74887500D02*
G75*
G02X77137500Y-75187500I0J-300000D01*
G01*
X76437500Y-74887500D02*
G75*
G02X76137500Y-74587500I0J300000D01*
G01*
X92137500Y-74587500D02*
G75*
G02X91837500Y-74887500I-300000J0D01*
G01*
X92137500Y-83487500D02*
G75*
G02X91837500Y-83787500I-300000J0D01*
G01*
X76137500Y-80987500D02*
G75*
G02X76437500Y-80687500I300000J0D01*
G01*
X76137500Y-72087500D02*
G75*
G02X76437500Y-71787500I300000J0D01*
G01*
G04 #@! TO.C,K_ALT1*
X76137500Y-110187500D02*
G75*
G02X76437500Y-109887500I300000J0D01*
G01*
X76137500Y-119087500D02*
G75*
G02X76437500Y-118787500I300000J0D01*
G01*
X92137500Y-121587500D02*
G75*
G02X91837500Y-121887500I-300000J0D01*
G01*
X92137500Y-112687500D02*
G75*
G02X91837500Y-112987500I-300000J0D01*
G01*
X76437500Y-112987500D02*
G75*
G02X76137500Y-112687500I0J300000D01*
G01*
X76837500Y-112987500D02*
G75*
G02X77137500Y-113287500I0J-300000D01*
G01*
X77137500Y-109587500D02*
G75*
G02X76837500Y-109887500I-300000J0D01*
G01*
X76137500Y-110187500D02*
X76137500Y-112687500D01*
X76837500Y-112987500D02*
X76437500Y-112987500D01*
X76437500Y-109887500D02*
X76837500Y-109887500D01*
X76837500Y-121887500D02*
G75*
G02X77137500Y-122187500I0J-300000D01*
G01*
X76437500Y-121887500D02*
G75*
G02X76137500Y-121587500I0J300000D01*
G01*
X76437500Y-118787500D02*
X76837500Y-118787500D01*
X76137500Y-119087500D02*
X76137500Y-121587500D01*
X76837500Y-121887500D02*
X76437500Y-121887500D01*
X77137500Y-118487500D02*
G75*
G02X76837500Y-118787500I-300000J0D01*
G01*
X91137500Y-122187500D02*
G75*
G02X91437500Y-121887500I300000J0D01*
G01*
X91437500Y-118787500D02*
X91837500Y-118787500D01*
X92137500Y-121587500D02*
X92137500Y-119087500D01*
X91837500Y-121887500D02*
X91437500Y-121887500D01*
X91837500Y-118787500D02*
G75*
G02X92137500Y-119087500I0J-300000D01*
G01*
X91437500Y-118787500D02*
G75*
G02X91137500Y-118487500I0J300000D01*
G01*
X91137500Y-109187500D02*
X91137500Y-109587500D01*
X91837500Y-109887500D02*
G75*
G02X92137500Y-110187500I0J-300000D01*
G01*
X91437500Y-109887500D02*
G75*
G02X91137500Y-109587500I0J300000D01*
G01*
X91137500Y-122587500D02*
G75*
G02X90837500Y-122887500I-300000J0D01*
G01*
X91137500Y-118487500D02*
X91137500Y-113287500D01*
X91837500Y-112987500D02*
X91437500Y-112987500D01*
X92137500Y-112687500D02*
X92137500Y-110187500D01*
X91437500Y-109887500D02*
X91837500Y-109887500D01*
X91137500Y-113287500D02*
G75*
G02X91437500Y-112987500I300000J0D01*
G01*
X90837500Y-108887500D02*
G75*
G02X91137500Y-109187500I0J-300000D01*
G01*
X91137500Y-122187500D02*
X91137500Y-122587500D01*
X77137500Y-109587500D02*
X77137500Y-109187500D01*
X77137500Y-113287500D02*
X77137500Y-118487500D01*
X90837500Y-108887500D02*
X77437500Y-108887500D01*
X77137500Y-109187500D02*
G75*
G02X77437500Y-108887500I300000J0D01*
G01*
X77137500Y-122587500D02*
X77137500Y-122187500D01*
X77437500Y-122887500D02*
G75*
G02X77137500Y-122587500I0J300000D01*
G01*
X90837500Y-122887500D02*
X77437500Y-122887500D01*
G04 #@! TO.C,K_B1*
X152337500Y-91137500D02*
G75*
G02X152637500Y-90837500I300000J0D01*
G01*
X152337500Y-100037500D02*
G75*
G02X152637500Y-99737500I300000J0D01*
G01*
X168337500Y-102537500D02*
G75*
G02X168037500Y-102837500I-300000J0D01*
G01*
X168337500Y-93637500D02*
G75*
G02X168037500Y-93937500I-300000J0D01*
G01*
X152637500Y-93937500D02*
G75*
G02X152337500Y-93637500I0J300000D01*
G01*
X153037500Y-93937500D02*
G75*
G02X153337500Y-94237500I0J-300000D01*
G01*
X153337500Y-90537500D02*
G75*
G02X153037500Y-90837500I-300000J0D01*
G01*
X152337500Y-91137500D02*
X152337500Y-93637500D01*
X153037500Y-93937500D02*
X152637500Y-93937500D01*
X152637500Y-90837500D02*
X153037500Y-90837500D01*
X153037500Y-102837500D02*
G75*
G02X153337500Y-103137500I0J-300000D01*
G01*
X152637500Y-102837500D02*
G75*
G02X152337500Y-102537500I0J300000D01*
G01*
X152637500Y-99737500D02*
X153037500Y-99737500D01*
X152337500Y-100037500D02*
X152337500Y-102537500D01*
X153037500Y-102837500D02*
X152637500Y-102837500D01*
X153337500Y-99437500D02*
G75*
G02X153037500Y-99737500I-300000J0D01*
G01*
X167337500Y-103137500D02*
G75*
G02X167637500Y-102837500I300000J0D01*
G01*
X167637500Y-99737500D02*
X168037500Y-99737500D01*
X168337500Y-102537500D02*
X168337500Y-100037500D01*
X168037500Y-102837500D02*
X167637500Y-102837500D01*
X168037500Y-99737500D02*
G75*
G02X168337500Y-100037500I0J-300000D01*
G01*
X167637500Y-99737500D02*
G75*
G02X167337500Y-99437500I0J300000D01*
G01*
X167337500Y-90137500D02*
X167337500Y-90537500D01*
X168037500Y-90837500D02*
G75*
G02X168337500Y-91137500I0J-300000D01*
G01*
X167637500Y-90837500D02*
G75*
G02X167337500Y-90537500I0J300000D01*
G01*
X167337500Y-103537500D02*
G75*
G02X167037500Y-103837500I-300000J0D01*
G01*
X167337500Y-99437500D02*
X167337500Y-94237500D01*
X168037500Y-93937500D02*
X167637500Y-93937500D01*
X168337500Y-93637500D02*
X168337500Y-91137500D01*
X167637500Y-90837500D02*
X168037500Y-90837500D01*
X167337500Y-94237500D02*
G75*
G02X167637500Y-93937500I300000J0D01*
G01*
X167037500Y-89837500D02*
G75*
G02X167337500Y-90137500I0J-300000D01*
G01*
X167337500Y-103137500D02*
X167337500Y-103537500D01*
X153337500Y-90537500D02*
X153337500Y-90137500D01*
X153337500Y-94237500D02*
X153337500Y-99437500D01*
X167037500Y-89837500D02*
X153637500Y-89837500D01*
X153337500Y-90137500D02*
G75*
G02X153637500Y-89837500I300000J0D01*
G01*
X153337500Y-103537500D02*
X153337500Y-103137500D01*
X153637500Y-103837500D02*
G75*
G02X153337500Y-103537500I0J300000D01*
G01*
X167037500Y-103837500D02*
X153637500Y-103837500D01*
G04 #@! TO.C,K_BOT_1U_1*
X128874000Y-115204000D02*
X115474000Y-115204000D01*
X115474000Y-115204000D02*
G75*
G02X115174000Y-114904000I0J300000D01*
G01*
X115174000Y-114904000D02*
X115174000Y-114504000D01*
X115174000Y-101504000D02*
G75*
G02X115474000Y-101204000I300000J0D01*
G01*
X128874000Y-101204000D02*
X115474000Y-101204000D01*
X115174000Y-105604000D02*
X115174000Y-110804000D01*
X115174000Y-101904000D02*
X115174000Y-101504000D01*
X129174000Y-114504000D02*
X129174000Y-114904000D01*
X128874000Y-101204000D02*
G75*
G02X129174000Y-101504000I0J-300000D01*
G01*
X129174000Y-105604000D02*
G75*
G02X129474000Y-105304000I300000J0D01*
G01*
X129474000Y-102204000D02*
X129874000Y-102204000D01*
X130174000Y-105004000D02*
X130174000Y-102504000D01*
X129874000Y-105304000D02*
X129474000Y-105304000D01*
X129174000Y-110804000D02*
X129174000Y-105604000D01*
X129174000Y-114904000D02*
G75*
G02X128874000Y-115204000I-300000J0D01*
G01*
X129474000Y-102204000D02*
G75*
G02X129174000Y-101904000I0J300000D01*
G01*
X129874000Y-102204000D02*
G75*
G02X130174000Y-102504000I0J-300000D01*
G01*
X129174000Y-101504000D02*
X129174000Y-101904000D01*
X129474000Y-111104000D02*
G75*
G02X129174000Y-110804000I0J300000D01*
G01*
X129874000Y-111104000D02*
G75*
G02X130174000Y-111404000I0J-300000D01*
G01*
X129874000Y-114204000D02*
X129474000Y-114204000D01*
X130174000Y-113904000D02*
X130174000Y-111404000D01*
X129474000Y-111104000D02*
X129874000Y-111104000D01*
X129174000Y-114504000D02*
G75*
G02X129474000Y-114204000I300000J0D01*
G01*
X115174000Y-110804000D02*
G75*
G02X114874000Y-111104000I-300000J0D01*
G01*
X114874000Y-114204000D02*
X114474000Y-114204000D01*
X114174000Y-111404000D02*
X114174000Y-113904000D01*
X114474000Y-111104000D02*
X114874000Y-111104000D01*
X114474000Y-114204000D02*
G75*
G02X114174000Y-113904000I0J300000D01*
G01*
X114874000Y-114204000D02*
G75*
G02X115174000Y-114504000I0J-300000D01*
G01*
X114474000Y-102204000D02*
X114874000Y-102204000D01*
X114874000Y-105304000D02*
X114474000Y-105304000D01*
X114174000Y-102504000D02*
X114174000Y-105004000D01*
X115174000Y-101904000D02*
G75*
G02X114874000Y-102204000I-300000J0D01*
G01*
X114874000Y-105304000D02*
G75*
G02X115174000Y-105604000I0J-300000D01*
G01*
X114474000Y-105304000D02*
G75*
G02X114174000Y-105004000I0J300000D01*
G01*
X130174000Y-105004000D02*
G75*
G02X129874000Y-105304000I-300000J0D01*
G01*
X130174000Y-113904000D02*
G75*
G02X129874000Y-114204000I-300000J0D01*
G01*
X114174000Y-111404000D02*
G75*
G02X114474000Y-111104000I300000J0D01*
G01*
X114174000Y-102504000D02*
G75*
G02X114474000Y-102204000I300000J0D01*
G01*
G04 #@! TO.C,K_BOT_1U_2*
X133224000Y-106314000D02*
G75*
G02X133524000Y-106014000I300000J0D01*
G01*
X133224000Y-115214000D02*
G75*
G02X133524000Y-114914000I300000J0D01*
G01*
X149224000Y-117714000D02*
G75*
G02X148924000Y-118014000I-300000J0D01*
G01*
X149224000Y-108814000D02*
G75*
G02X148924000Y-109114000I-300000J0D01*
G01*
X133524000Y-109114000D02*
G75*
G02X133224000Y-108814000I0J300000D01*
G01*
X133924000Y-109114000D02*
G75*
G02X134224000Y-109414000I0J-300000D01*
G01*
X134224000Y-105714000D02*
G75*
G02X133924000Y-106014000I-300000J0D01*
G01*
X133224000Y-106314000D02*
X133224000Y-108814000D01*
X133924000Y-109114000D02*
X133524000Y-109114000D01*
X133524000Y-106014000D02*
X133924000Y-106014000D01*
X133924000Y-118014000D02*
G75*
G02X134224000Y-118314000I0J-300000D01*
G01*
X133524000Y-118014000D02*
G75*
G02X133224000Y-117714000I0J300000D01*
G01*
X133524000Y-114914000D02*
X133924000Y-114914000D01*
X133224000Y-115214000D02*
X133224000Y-117714000D01*
X133924000Y-118014000D02*
X133524000Y-118014000D01*
X134224000Y-114614000D02*
G75*
G02X133924000Y-114914000I-300000J0D01*
G01*
X148224000Y-118314000D02*
G75*
G02X148524000Y-118014000I300000J0D01*
G01*
X148524000Y-114914000D02*
X148924000Y-114914000D01*
X149224000Y-117714000D02*
X149224000Y-115214000D01*
X148924000Y-118014000D02*
X148524000Y-118014000D01*
X148924000Y-114914000D02*
G75*
G02X149224000Y-115214000I0J-300000D01*
G01*
X148524000Y-114914000D02*
G75*
G02X148224000Y-114614000I0J300000D01*
G01*
X148224000Y-105314000D02*
X148224000Y-105714000D01*
X148924000Y-106014000D02*
G75*
G02X149224000Y-106314000I0J-300000D01*
G01*
X148524000Y-106014000D02*
G75*
G02X148224000Y-105714000I0J300000D01*
G01*
X148224000Y-118714000D02*
G75*
G02X147924000Y-119014000I-300000J0D01*
G01*
X148224000Y-114614000D02*
X148224000Y-109414000D01*
X148924000Y-109114000D02*
X148524000Y-109114000D01*
X149224000Y-108814000D02*
X149224000Y-106314000D01*
X148524000Y-106014000D02*
X148924000Y-106014000D01*
X148224000Y-109414000D02*
G75*
G02X148524000Y-109114000I300000J0D01*
G01*
X147924000Y-105014000D02*
G75*
G02X148224000Y-105314000I0J-300000D01*
G01*
X148224000Y-118314000D02*
X148224000Y-118714000D01*
X134224000Y-105714000D02*
X134224000Y-105314000D01*
X134224000Y-109414000D02*
X134224000Y-114614000D01*
X147924000Y-105014000D02*
X134524000Y-105014000D01*
X134224000Y-105314000D02*
G75*
G02X134524000Y-105014000I300000J0D01*
G01*
X134224000Y-118714000D02*
X134224000Y-118314000D01*
X134524000Y-119014000D02*
G75*
G02X134224000Y-118714000I0J300000D01*
G01*
X147924000Y-119014000D02*
X134524000Y-119014000D01*
G04 #@! TO.C,K_C1*
X114237500Y-83517500D02*
G75*
G02X114537500Y-83217500I300000J0D01*
G01*
X114237500Y-92417500D02*
G75*
G02X114537500Y-92117500I300000J0D01*
G01*
X130237500Y-94917500D02*
G75*
G02X129937500Y-95217500I-300000J0D01*
G01*
X130237500Y-86017500D02*
G75*
G02X129937500Y-86317500I-300000J0D01*
G01*
X114537500Y-86317500D02*
G75*
G02X114237500Y-86017500I0J300000D01*
G01*
X114937500Y-86317500D02*
G75*
G02X115237500Y-86617500I0J-300000D01*
G01*
X115237500Y-82917500D02*
G75*
G02X114937500Y-83217500I-300000J0D01*
G01*
X114237500Y-83517500D02*
X114237500Y-86017500D01*
X114937500Y-86317500D02*
X114537500Y-86317500D01*
X114537500Y-83217500D02*
X114937500Y-83217500D01*
X114937500Y-95217500D02*
G75*
G02X115237500Y-95517500I0J-300000D01*
G01*
X114537500Y-95217500D02*
G75*
G02X114237500Y-94917500I0J300000D01*
G01*
X114537500Y-92117500D02*
X114937500Y-92117500D01*
X114237500Y-92417500D02*
X114237500Y-94917500D01*
X114937500Y-95217500D02*
X114537500Y-95217500D01*
X115237500Y-91817500D02*
G75*
G02X114937500Y-92117500I-300000J0D01*
G01*
X129237500Y-95517500D02*
G75*
G02X129537500Y-95217500I300000J0D01*
G01*
X129537500Y-92117500D02*
X129937500Y-92117500D01*
X130237500Y-94917500D02*
X130237500Y-92417500D01*
X129937500Y-95217500D02*
X129537500Y-95217500D01*
X129937500Y-92117500D02*
G75*
G02X130237500Y-92417500I0J-300000D01*
G01*
X129537500Y-92117500D02*
G75*
G02X129237500Y-91817500I0J300000D01*
G01*
X129237500Y-82517500D02*
X129237500Y-82917500D01*
X129937500Y-83217500D02*
G75*
G02X130237500Y-83517500I0J-300000D01*
G01*
X129537500Y-83217500D02*
G75*
G02X129237500Y-82917500I0J300000D01*
G01*
X129237500Y-95917500D02*
G75*
G02X128937500Y-96217500I-300000J0D01*
G01*
X129237500Y-91817500D02*
X129237500Y-86617500D01*
X129937500Y-86317500D02*
X129537500Y-86317500D01*
X130237500Y-86017500D02*
X130237500Y-83517500D01*
X129537500Y-83217500D02*
X129937500Y-83217500D01*
X129237500Y-86617500D02*
G75*
G02X129537500Y-86317500I300000J0D01*
G01*
X128937500Y-82217500D02*
G75*
G02X129237500Y-82517500I0J-300000D01*
G01*
X129237500Y-95517500D02*
X129237500Y-95917500D01*
X115237500Y-82917500D02*
X115237500Y-82517500D01*
X115237500Y-86617500D02*
X115237500Y-91817500D01*
X128937500Y-82217500D02*
X115537500Y-82217500D01*
X115237500Y-82517500D02*
G75*
G02X115537500Y-82217500I300000J0D01*
G01*
X115237500Y-95917500D02*
X115237500Y-95517500D01*
X115537500Y-96217500D02*
G75*
G02X115237500Y-95917500I0J300000D01*
G01*
X128937500Y-96217500D02*
X115537500Y-96217500D01*
G04 #@! TO.C,K_CAPS1*
X49943750Y-72087500D02*
G75*
G02X50243750Y-71787500I300000J0D01*
G01*
X49943750Y-80987500D02*
G75*
G02X50243750Y-80687500I300000J0D01*
G01*
X65943750Y-83487500D02*
G75*
G02X65643750Y-83787500I-300000J0D01*
G01*
X65943750Y-74587500D02*
G75*
G02X65643750Y-74887500I-300000J0D01*
G01*
X50243750Y-74887500D02*
G75*
G02X49943750Y-74587500I0J300000D01*
G01*
X50643750Y-74887500D02*
G75*
G02X50943750Y-75187500I0J-300000D01*
G01*
X50943750Y-71487500D02*
G75*
G02X50643750Y-71787500I-300000J0D01*
G01*
X49943750Y-72087500D02*
X49943750Y-74587500D01*
X50643750Y-74887500D02*
X50243750Y-74887500D01*
X50243750Y-71787500D02*
X50643750Y-71787500D01*
X50643750Y-83787500D02*
G75*
G02X50943750Y-84087500I0J-300000D01*
G01*
X50243750Y-83787500D02*
G75*
G02X49943750Y-83487500I0J300000D01*
G01*
X50243750Y-80687500D02*
X50643750Y-80687500D01*
X49943750Y-80987500D02*
X49943750Y-83487500D01*
X50643750Y-83787500D02*
X50243750Y-83787500D01*
X50943750Y-80387500D02*
G75*
G02X50643750Y-80687500I-300000J0D01*
G01*
X64943750Y-84087500D02*
G75*
G02X65243750Y-83787500I300000J0D01*
G01*
X65243750Y-80687500D02*
X65643750Y-80687500D01*
X65943750Y-83487500D02*
X65943750Y-80987500D01*
X65643750Y-83787500D02*
X65243750Y-83787500D01*
X65643750Y-80687500D02*
G75*
G02X65943750Y-80987500I0J-300000D01*
G01*
X65243750Y-80687500D02*
G75*
G02X64943750Y-80387500I0J300000D01*
G01*
X64943750Y-71087500D02*
X64943750Y-71487500D01*
X65643750Y-71787500D02*
G75*
G02X65943750Y-72087500I0J-300000D01*
G01*
X65243750Y-71787500D02*
G75*
G02X64943750Y-71487500I0J300000D01*
G01*
X64943750Y-84487500D02*
G75*
G02X64643750Y-84787500I-300000J0D01*
G01*
X64943750Y-80387500D02*
X64943750Y-75187500D01*
X65643750Y-74887500D02*
X65243750Y-74887500D01*
X65943750Y-74587500D02*
X65943750Y-72087500D01*
X65243750Y-71787500D02*
X65643750Y-71787500D01*
X64943750Y-75187500D02*
G75*
G02X65243750Y-74887500I300000J0D01*
G01*
X64643750Y-70787500D02*
G75*
G02X64943750Y-71087500I0J-300000D01*
G01*
X64943750Y-84087500D02*
X64943750Y-84487500D01*
X50943750Y-71487500D02*
X50943750Y-71087500D01*
X50943750Y-75187500D02*
X50943750Y-80387500D01*
X64643750Y-70787500D02*
X51243750Y-70787500D01*
X50943750Y-71087500D02*
G75*
G02X51243750Y-70787500I300000J0D01*
G01*
X50943750Y-84487500D02*
X50943750Y-84087500D01*
X51243750Y-84787500D02*
G75*
G02X50943750Y-84487500I0J300000D01*
G01*
X64643750Y-84787500D02*
X51243750Y-84787500D01*
G04 #@! TO.C,K_CTRL1*
X57087500Y-110187500D02*
G75*
G02X57387500Y-109887500I300000J0D01*
G01*
X57087500Y-119087500D02*
G75*
G02X57387500Y-118787500I300000J0D01*
G01*
X73087500Y-121587500D02*
G75*
G02X72787500Y-121887500I-300000J0D01*
G01*
X73087500Y-112687500D02*
G75*
G02X72787500Y-112987500I-300000J0D01*
G01*
X57387500Y-112987500D02*
G75*
G02X57087500Y-112687500I0J300000D01*
G01*
X57787500Y-112987500D02*
G75*
G02X58087500Y-113287500I0J-300000D01*
G01*
X58087500Y-109587500D02*
G75*
G02X57787500Y-109887500I-300000J0D01*
G01*
X57087500Y-110187500D02*
X57087500Y-112687500D01*
X57787500Y-112987500D02*
X57387500Y-112987500D01*
X57387500Y-109887500D02*
X57787500Y-109887500D01*
X57787500Y-121887500D02*
G75*
G02X58087500Y-122187500I0J-300000D01*
G01*
X57387500Y-121887500D02*
G75*
G02X57087500Y-121587500I0J300000D01*
G01*
X57387500Y-118787500D02*
X57787500Y-118787500D01*
X57087500Y-119087500D02*
X57087500Y-121587500D01*
X57787500Y-121887500D02*
X57387500Y-121887500D01*
X58087500Y-118487500D02*
G75*
G02X57787500Y-118787500I-300000J0D01*
G01*
X72087500Y-122187500D02*
G75*
G02X72387500Y-121887500I300000J0D01*
G01*
X72387500Y-118787500D02*
X72787500Y-118787500D01*
X73087500Y-121587500D02*
X73087500Y-119087500D01*
X72787500Y-121887500D02*
X72387500Y-121887500D01*
X72787500Y-118787500D02*
G75*
G02X73087500Y-119087500I0J-300000D01*
G01*
X72387500Y-118787500D02*
G75*
G02X72087500Y-118487500I0J300000D01*
G01*
X72087500Y-109187500D02*
X72087500Y-109587500D01*
X72787500Y-109887500D02*
G75*
G02X73087500Y-110187500I0J-300000D01*
G01*
X72387500Y-109887500D02*
G75*
G02X72087500Y-109587500I0J300000D01*
G01*
X72087500Y-122587500D02*
G75*
G02X71787500Y-122887500I-300000J0D01*
G01*
X72087500Y-118487500D02*
X72087500Y-113287500D01*
X72787500Y-112987500D02*
X72387500Y-112987500D01*
X73087500Y-112687500D02*
X73087500Y-110187500D01*
X72387500Y-109887500D02*
X72787500Y-109887500D01*
X72087500Y-113287500D02*
G75*
G02X72387500Y-112987500I300000J0D01*
G01*
X71787500Y-108887500D02*
G75*
G02X72087500Y-109187500I0J-300000D01*
G01*
X72087500Y-122187500D02*
X72087500Y-122587500D01*
X58087500Y-109587500D02*
X58087500Y-109187500D01*
X58087500Y-113287500D02*
X58087500Y-118487500D01*
X71787500Y-108887500D02*
X58387500Y-108887500D01*
X58087500Y-109187500D02*
G75*
G02X58387500Y-108887500I300000J0D01*
G01*
X58087500Y-122587500D02*
X58087500Y-122187500D01*
X58387500Y-122887500D02*
G75*
G02X58087500Y-122587500I0J300000D01*
G01*
X71787500Y-122887500D02*
X58387500Y-122887500D01*
G04 #@! TO.C,K_D1*
X128937500Y-77167500D02*
X115537500Y-77167500D01*
X115537500Y-77167500D02*
G75*
G02X115237500Y-76867500I0J300000D01*
G01*
X115237500Y-76867500D02*
X115237500Y-76467500D01*
X115237500Y-63467500D02*
G75*
G02X115537500Y-63167500I300000J0D01*
G01*
X128937500Y-63167500D02*
X115537500Y-63167500D01*
X115237500Y-67567500D02*
X115237500Y-72767500D01*
X115237500Y-63867500D02*
X115237500Y-63467500D01*
X129237500Y-76467500D02*
X129237500Y-76867500D01*
X128937500Y-63167500D02*
G75*
G02X129237500Y-63467500I0J-300000D01*
G01*
X129237500Y-67567500D02*
G75*
G02X129537500Y-67267500I300000J0D01*
G01*
X129537500Y-64167500D02*
X129937500Y-64167500D01*
X130237500Y-66967500D02*
X130237500Y-64467500D01*
X129937500Y-67267500D02*
X129537500Y-67267500D01*
X129237500Y-72767500D02*
X129237500Y-67567500D01*
X129237500Y-76867500D02*
G75*
G02X128937500Y-77167500I-300000J0D01*
G01*
X129537500Y-64167500D02*
G75*
G02X129237500Y-63867500I0J300000D01*
G01*
X129937500Y-64167500D02*
G75*
G02X130237500Y-64467500I0J-300000D01*
G01*
X129237500Y-63467500D02*
X129237500Y-63867500D01*
X129537500Y-73067500D02*
G75*
G02X129237500Y-72767500I0J300000D01*
G01*
X129937500Y-73067500D02*
G75*
G02X130237500Y-73367500I0J-300000D01*
G01*
X129937500Y-76167500D02*
X129537500Y-76167500D01*
X130237500Y-75867500D02*
X130237500Y-73367500D01*
X129537500Y-73067500D02*
X129937500Y-73067500D01*
X129237500Y-76467500D02*
G75*
G02X129537500Y-76167500I300000J0D01*
G01*
X115237500Y-72767500D02*
G75*
G02X114937500Y-73067500I-300000J0D01*
G01*
X114937500Y-76167500D02*
X114537500Y-76167500D01*
X114237500Y-73367500D02*
X114237500Y-75867500D01*
X114537500Y-73067500D02*
X114937500Y-73067500D01*
X114537500Y-76167500D02*
G75*
G02X114237500Y-75867500I0J300000D01*
G01*
X114937500Y-76167500D02*
G75*
G02X115237500Y-76467500I0J-300000D01*
G01*
X114537500Y-64167500D02*
X114937500Y-64167500D01*
X114937500Y-67267500D02*
X114537500Y-67267500D01*
X114237500Y-64467500D02*
X114237500Y-66967500D01*
X115237500Y-63867500D02*
G75*
G02X114937500Y-64167500I-300000J0D01*
G01*
X114937500Y-67267500D02*
G75*
G02X115237500Y-67567500I0J-300000D01*
G01*
X114537500Y-67267500D02*
G75*
G02X114237500Y-66967500I0J300000D01*
G01*
X130237500Y-66967500D02*
G75*
G02X129937500Y-67267500I-300000J0D01*
G01*
X130237500Y-75867500D02*
G75*
G02X129937500Y-76167500I-300000J0D01*
G01*
X114237500Y-73367500D02*
G75*
G02X114537500Y-73067500I300000J0D01*
G01*
X114237500Y-64467500D02*
G75*
G02X114537500Y-64167500I300000J0D01*
G01*
G04 #@! TO.C,K_E1*
X114237500Y-45417500D02*
G75*
G02X114537500Y-45117500I300000J0D01*
G01*
X114237500Y-54317500D02*
G75*
G02X114537500Y-54017500I300000J0D01*
G01*
X130237500Y-56817500D02*
G75*
G02X129937500Y-57117500I-300000J0D01*
G01*
X130237500Y-47917500D02*
G75*
G02X129937500Y-48217500I-300000J0D01*
G01*
X114537500Y-48217500D02*
G75*
G02X114237500Y-47917500I0J300000D01*
G01*
X114937500Y-48217500D02*
G75*
G02X115237500Y-48517500I0J-300000D01*
G01*
X115237500Y-44817500D02*
G75*
G02X114937500Y-45117500I-300000J0D01*
G01*
X114237500Y-45417500D02*
X114237500Y-47917500D01*
X114937500Y-48217500D02*
X114537500Y-48217500D01*
X114537500Y-45117500D02*
X114937500Y-45117500D01*
X114937500Y-57117500D02*
G75*
G02X115237500Y-57417500I0J-300000D01*
G01*
X114537500Y-57117500D02*
G75*
G02X114237500Y-56817500I0J300000D01*
G01*
X114537500Y-54017500D02*
X114937500Y-54017500D01*
X114237500Y-54317500D02*
X114237500Y-56817500D01*
X114937500Y-57117500D02*
X114537500Y-57117500D01*
X115237500Y-53717500D02*
G75*
G02X114937500Y-54017500I-300000J0D01*
G01*
X129237500Y-57417500D02*
G75*
G02X129537500Y-57117500I300000J0D01*
G01*
X129537500Y-54017500D02*
X129937500Y-54017500D01*
X130237500Y-56817500D02*
X130237500Y-54317500D01*
X129937500Y-57117500D02*
X129537500Y-57117500D01*
X129937500Y-54017500D02*
G75*
G02X130237500Y-54317500I0J-300000D01*
G01*
X129537500Y-54017500D02*
G75*
G02X129237500Y-53717500I0J300000D01*
G01*
X129237500Y-44417500D02*
X129237500Y-44817500D01*
X129937500Y-45117500D02*
G75*
G02X130237500Y-45417500I0J-300000D01*
G01*
X129537500Y-45117500D02*
G75*
G02X129237500Y-44817500I0J300000D01*
G01*
X129237500Y-57817500D02*
G75*
G02X128937500Y-58117500I-300000J0D01*
G01*
X129237500Y-53717500D02*
X129237500Y-48517500D01*
X129937500Y-48217500D02*
X129537500Y-48217500D01*
X130237500Y-47917500D02*
X130237500Y-45417500D01*
X129537500Y-45117500D02*
X129937500Y-45117500D01*
X129237500Y-48517500D02*
G75*
G02X129537500Y-48217500I300000J0D01*
G01*
X128937500Y-44117500D02*
G75*
G02X129237500Y-44417500I0J-300000D01*
G01*
X129237500Y-57417500D02*
X129237500Y-57817500D01*
X115237500Y-44817500D02*
X115237500Y-44417500D01*
X115237500Y-48517500D02*
X115237500Y-53717500D01*
X128937500Y-44117500D02*
X115537500Y-44117500D01*
X115237500Y-44417500D02*
G75*
G02X115537500Y-44117500I300000J0D01*
G01*
X115237500Y-57817500D02*
X115237500Y-57417500D01*
X115537500Y-58117500D02*
G75*
G02X115237500Y-57817500I0J300000D01*
G01*
X128937500Y-58117500D02*
X115537500Y-58117500D01*
G04 #@! TO.C,K_ESC1*
X57087500Y-33987500D02*
G75*
G02X57387500Y-33687500I300000J0D01*
G01*
X57087500Y-42887500D02*
G75*
G02X57387500Y-42587500I300000J0D01*
G01*
X73087500Y-45387500D02*
G75*
G02X72787500Y-45687500I-300000J0D01*
G01*
X73087500Y-36487500D02*
G75*
G02X72787500Y-36787500I-300000J0D01*
G01*
X57387500Y-36787500D02*
G75*
G02X57087500Y-36487500I0J300000D01*
G01*
X57787500Y-36787500D02*
G75*
G02X58087500Y-37087500I0J-300000D01*
G01*
X58087500Y-33387500D02*
G75*
G02X57787500Y-33687500I-300000J0D01*
G01*
X57087500Y-33987500D02*
X57087500Y-36487500D01*
X57787500Y-36787500D02*
X57387500Y-36787500D01*
X57387500Y-33687500D02*
X57787500Y-33687500D01*
X57787500Y-45687500D02*
G75*
G02X58087500Y-45987500I0J-300000D01*
G01*
X57387500Y-45687500D02*
G75*
G02X57087500Y-45387500I0J300000D01*
G01*
X57387500Y-42587500D02*
X57787500Y-42587500D01*
X57087500Y-42887500D02*
X57087500Y-45387500D01*
X57787500Y-45687500D02*
X57387500Y-45687500D01*
X58087500Y-42287500D02*
G75*
G02X57787500Y-42587500I-300000J0D01*
G01*
X72087500Y-45987500D02*
G75*
G02X72387500Y-45687500I300000J0D01*
G01*
X72387500Y-42587500D02*
X72787500Y-42587500D01*
X73087500Y-45387500D02*
X73087500Y-42887500D01*
X72787500Y-45687500D02*
X72387500Y-45687500D01*
X72787500Y-42587500D02*
G75*
G02X73087500Y-42887500I0J-300000D01*
G01*
X72387500Y-42587500D02*
G75*
G02X72087500Y-42287500I0J300000D01*
G01*
X72087500Y-32987500D02*
X72087500Y-33387500D01*
X72787500Y-33687500D02*
G75*
G02X73087500Y-33987500I0J-300000D01*
G01*
X72387500Y-33687500D02*
G75*
G02X72087500Y-33387500I0J300000D01*
G01*
X72087500Y-46387500D02*
G75*
G02X71787500Y-46687500I-300000J0D01*
G01*
X72087500Y-42287500D02*
X72087500Y-37087500D01*
X72787500Y-36787500D02*
X72387500Y-36787500D01*
X73087500Y-36487500D02*
X73087500Y-33987500D01*
X72387500Y-33687500D02*
X72787500Y-33687500D01*
X72087500Y-37087500D02*
G75*
G02X72387500Y-36787500I300000J0D01*
G01*
X71787500Y-32687500D02*
G75*
G02X72087500Y-32987500I0J-300000D01*
G01*
X72087500Y-45987500D02*
X72087500Y-46387500D01*
X58087500Y-33387500D02*
X58087500Y-32987500D01*
X58087500Y-37087500D02*
X58087500Y-42287500D01*
X71787500Y-32687500D02*
X58387500Y-32687500D01*
X58087500Y-32987500D02*
G75*
G02X58387500Y-32687500I300000J0D01*
G01*
X58087500Y-46387500D02*
X58087500Y-45987500D01*
X58387500Y-46687500D02*
G75*
G02X58087500Y-46387500I0J300000D01*
G01*
X71787500Y-46687500D02*
X58387500Y-46687500D01*
G04 #@! TO.C,K_F1*
X133287500Y-68277500D02*
G75*
G02X133587500Y-67977500I300000J0D01*
G01*
X133287500Y-77177500D02*
G75*
G02X133587500Y-76877500I300000J0D01*
G01*
X149287500Y-79677500D02*
G75*
G02X148987500Y-79977500I-300000J0D01*
G01*
X149287500Y-70777500D02*
G75*
G02X148987500Y-71077500I-300000J0D01*
G01*
X133587500Y-71077500D02*
G75*
G02X133287500Y-70777500I0J300000D01*
G01*
X133987500Y-71077500D02*
G75*
G02X134287500Y-71377500I0J-300000D01*
G01*
X134287500Y-67677500D02*
G75*
G02X133987500Y-67977500I-300000J0D01*
G01*
X133287500Y-68277500D02*
X133287500Y-70777500D01*
X133987500Y-71077500D02*
X133587500Y-71077500D01*
X133587500Y-67977500D02*
X133987500Y-67977500D01*
X133987500Y-79977500D02*
G75*
G02X134287500Y-80277500I0J-300000D01*
G01*
X133587500Y-79977500D02*
G75*
G02X133287500Y-79677500I0J300000D01*
G01*
X133587500Y-76877500D02*
X133987500Y-76877500D01*
X133287500Y-77177500D02*
X133287500Y-79677500D01*
X133987500Y-79977500D02*
X133587500Y-79977500D01*
X134287500Y-76577500D02*
G75*
G02X133987500Y-76877500I-300000J0D01*
G01*
X148287500Y-80277500D02*
G75*
G02X148587500Y-79977500I300000J0D01*
G01*
X148587500Y-76877500D02*
X148987500Y-76877500D01*
X149287500Y-79677500D02*
X149287500Y-77177500D01*
X148987500Y-79977500D02*
X148587500Y-79977500D01*
X148987500Y-76877500D02*
G75*
G02X149287500Y-77177500I0J-300000D01*
G01*
X148587500Y-76877500D02*
G75*
G02X148287500Y-76577500I0J300000D01*
G01*
X148287500Y-67277500D02*
X148287500Y-67677500D01*
X148987500Y-67977500D02*
G75*
G02X149287500Y-68277500I0J-300000D01*
G01*
X148587500Y-67977500D02*
G75*
G02X148287500Y-67677500I0J300000D01*
G01*
X148287500Y-80677500D02*
G75*
G02X147987500Y-80977500I-300000J0D01*
G01*
X148287500Y-76577500D02*
X148287500Y-71377500D01*
X148987500Y-71077500D02*
X148587500Y-71077500D01*
X149287500Y-70777500D02*
X149287500Y-68277500D01*
X148587500Y-67977500D02*
X148987500Y-67977500D01*
X148287500Y-71377500D02*
G75*
G02X148587500Y-71077500I300000J0D01*
G01*
X147987500Y-66977500D02*
G75*
G02X148287500Y-67277500I0J-300000D01*
G01*
X148287500Y-80277500D02*
X148287500Y-80677500D01*
X134287500Y-67677500D02*
X134287500Y-67277500D01*
X134287500Y-71377500D02*
X134287500Y-76577500D01*
X147987500Y-66977500D02*
X134587500Y-66977500D01*
X134287500Y-67277500D02*
G75*
G02X134587500Y-66977500I300000J0D01*
G01*
X134287500Y-80677500D02*
X134287500Y-80277500D01*
X134587500Y-80977500D02*
G75*
G02X134287500Y-80677500I0J300000D01*
G01*
X147987500Y-80977500D02*
X134587500Y-80977500D01*
G04 #@! TO.C,K_G1*
X167037500Y-84787500D02*
X153637500Y-84787500D01*
X153637500Y-84787500D02*
G75*
G02X153337500Y-84487500I0J300000D01*
G01*
X153337500Y-84487500D02*
X153337500Y-84087500D01*
X153337500Y-71087500D02*
G75*
G02X153637500Y-70787500I300000J0D01*
G01*
X167037500Y-70787500D02*
X153637500Y-70787500D01*
X153337500Y-75187500D02*
X153337500Y-80387500D01*
X153337500Y-71487500D02*
X153337500Y-71087500D01*
X167337500Y-84087500D02*
X167337500Y-84487500D01*
X167037500Y-70787500D02*
G75*
G02X167337500Y-71087500I0J-300000D01*
G01*
X167337500Y-75187500D02*
G75*
G02X167637500Y-74887500I300000J0D01*
G01*
X167637500Y-71787500D02*
X168037500Y-71787500D01*
X168337500Y-74587500D02*
X168337500Y-72087500D01*
X168037500Y-74887500D02*
X167637500Y-74887500D01*
X167337500Y-80387500D02*
X167337500Y-75187500D01*
X167337500Y-84487500D02*
G75*
G02X167037500Y-84787500I-300000J0D01*
G01*
X167637500Y-71787500D02*
G75*
G02X167337500Y-71487500I0J300000D01*
G01*
X168037500Y-71787500D02*
G75*
G02X168337500Y-72087500I0J-300000D01*
G01*
X167337500Y-71087500D02*
X167337500Y-71487500D01*
X167637500Y-80687500D02*
G75*
G02X167337500Y-80387500I0J300000D01*
G01*
X168037500Y-80687500D02*
G75*
G02X168337500Y-80987500I0J-300000D01*
G01*
X168037500Y-83787500D02*
X167637500Y-83787500D01*
X168337500Y-83487500D02*
X168337500Y-80987500D01*
X167637500Y-80687500D02*
X168037500Y-80687500D01*
X167337500Y-84087500D02*
G75*
G02X167637500Y-83787500I300000J0D01*
G01*
X153337500Y-80387500D02*
G75*
G02X153037500Y-80687500I-300000J0D01*
G01*
X153037500Y-83787500D02*
X152637500Y-83787500D01*
X152337500Y-80987500D02*
X152337500Y-83487500D01*
X152637500Y-80687500D02*
X153037500Y-80687500D01*
X152637500Y-83787500D02*
G75*
G02X152337500Y-83487500I0J300000D01*
G01*
X153037500Y-83787500D02*
G75*
G02X153337500Y-84087500I0J-300000D01*
G01*
X152637500Y-71787500D02*
X153037500Y-71787500D01*
X153037500Y-74887500D02*
X152637500Y-74887500D01*
X152337500Y-72087500D02*
X152337500Y-74587500D01*
X153337500Y-71487500D02*
G75*
G02X153037500Y-71787500I-300000J0D01*
G01*
X153037500Y-74887500D02*
G75*
G02X153337500Y-75187500I0J-300000D01*
G01*
X152637500Y-74887500D02*
G75*
G02X152337500Y-74587500I0J300000D01*
G01*
X168337500Y-74587500D02*
G75*
G02X168037500Y-74887500I-300000J0D01*
G01*
X168337500Y-83487500D02*
G75*
G02X168037500Y-83787500I-300000J0D01*
G01*
X152337500Y-80987500D02*
G75*
G02X152637500Y-80687500I300000J0D01*
G01*
X152337500Y-72087500D02*
G75*
G02X152637500Y-71787500I300000J0D01*
G01*
G04 #@! TO.C,K_Q1*
X90837500Y-65737500D02*
X77437500Y-65737500D01*
X77437500Y-65737500D02*
G75*
G02X77137500Y-65437500I0J300000D01*
G01*
X77137500Y-65437500D02*
X77137500Y-65037500D01*
X77137500Y-52037500D02*
G75*
G02X77437500Y-51737500I300000J0D01*
G01*
X90837500Y-51737500D02*
X77437500Y-51737500D01*
X77137500Y-56137500D02*
X77137500Y-61337500D01*
X77137500Y-52437500D02*
X77137500Y-52037500D01*
X91137500Y-65037500D02*
X91137500Y-65437500D01*
X90837500Y-51737500D02*
G75*
G02X91137500Y-52037500I0J-300000D01*
G01*
X91137500Y-56137500D02*
G75*
G02X91437500Y-55837500I300000J0D01*
G01*
X91437500Y-52737500D02*
X91837500Y-52737500D01*
X92137500Y-55537500D02*
X92137500Y-53037500D01*
X91837500Y-55837500D02*
X91437500Y-55837500D01*
X91137500Y-61337500D02*
X91137500Y-56137500D01*
X91137500Y-65437500D02*
G75*
G02X90837500Y-65737500I-300000J0D01*
G01*
X91437500Y-52737500D02*
G75*
G02X91137500Y-52437500I0J300000D01*
G01*
X91837500Y-52737500D02*
G75*
G02X92137500Y-53037500I0J-300000D01*
G01*
X91137500Y-52037500D02*
X91137500Y-52437500D01*
X91437500Y-61637500D02*
G75*
G02X91137500Y-61337500I0J300000D01*
G01*
X91837500Y-61637500D02*
G75*
G02X92137500Y-61937500I0J-300000D01*
G01*
X91837500Y-64737500D02*
X91437500Y-64737500D01*
X92137500Y-64437500D02*
X92137500Y-61937500D01*
X91437500Y-61637500D02*
X91837500Y-61637500D01*
X91137500Y-65037500D02*
G75*
G02X91437500Y-64737500I300000J0D01*
G01*
X77137500Y-61337500D02*
G75*
G02X76837500Y-61637500I-300000J0D01*
G01*
X76837500Y-64737500D02*
X76437500Y-64737500D01*
X76137500Y-61937500D02*
X76137500Y-64437500D01*
X76437500Y-61637500D02*
X76837500Y-61637500D01*
X76437500Y-64737500D02*
G75*
G02X76137500Y-64437500I0J300000D01*
G01*
X76837500Y-64737500D02*
G75*
G02X77137500Y-65037500I0J-300000D01*
G01*
X76437500Y-52737500D02*
X76837500Y-52737500D01*
X76837500Y-55837500D02*
X76437500Y-55837500D01*
X76137500Y-53037500D02*
X76137500Y-55537500D01*
X77137500Y-52437500D02*
G75*
G02X76837500Y-52737500I-300000J0D01*
G01*
X76837500Y-55837500D02*
G75*
G02X77137500Y-56137500I0J-300000D01*
G01*
X76437500Y-55837500D02*
G75*
G02X76137500Y-55537500I0J300000D01*
G01*
X92137500Y-55537500D02*
G75*
G02X91837500Y-55837500I-300000J0D01*
G01*
X92137500Y-64437500D02*
G75*
G02X91837500Y-64737500I-300000J0D01*
G01*
X76137500Y-61937500D02*
G75*
G02X76437500Y-61637500I300000J0D01*
G01*
X76137500Y-53037500D02*
G75*
G02X76437500Y-52737500I300000J0D01*
G01*
G04 #@! TO.C,K_R1*
X147987500Y-61927500D02*
X134587500Y-61927500D01*
X134587500Y-61927500D02*
G75*
G02X134287500Y-61627500I0J300000D01*
G01*
X134287500Y-61627500D02*
X134287500Y-61227500D01*
X134287500Y-48227500D02*
G75*
G02X134587500Y-47927500I300000J0D01*
G01*
X147987500Y-47927500D02*
X134587500Y-47927500D01*
X134287500Y-52327500D02*
X134287500Y-57527500D01*
X134287500Y-48627500D02*
X134287500Y-48227500D01*
X148287500Y-61227500D02*
X148287500Y-61627500D01*
X147987500Y-47927500D02*
G75*
G02X148287500Y-48227500I0J-300000D01*
G01*
X148287500Y-52327500D02*
G75*
G02X148587500Y-52027500I300000J0D01*
G01*
X148587500Y-48927500D02*
X148987500Y-48927500D01*
X149287500Y-51727500D02*
X149287500Y-49227500D01*
X148987500Y-52027500D02*
X148587500Y-52027500D01*
X148287500Y-57527500D02*
X148287500Y-52327500D01*
X148287500Y-61627500D02*
G75*
G02X147987500Y-61927500I-300000J0D01*
G01*
X148587500Y-48927500D02*
G75*
G02X148287500Y-48627500I0J300000D01*
G01*
X148987500Y-48927500D02*
G75*
G02X149287500Y-49227500I0J-300000D01*
G01*
X148287500Y-48227500D02*
X148287500Y-48627500D01*
X148587500Y-57827500D02*
G75*
G02X148287500Y-57527500I0J300000D01*
G01*
X148987500Y-57827500D02*
G75*
G02X149287500Y-58127500I0J-300000D01*
G01*
X148987500Y-60927500D02*
X148587500Y-60927500D01*
X149287500Y-60627500D02*
X149287500Y-58127500D01*
X148587500Y-57827500D02*
X148987500Y-57827500D01*
X148287500Y-61227500D02*
G75*
G02X148587500Y-60927500I300000J0D01*
G01*
X134287500Y-57527500D02*
G75*
G02X133987500Y-57827500I-300000J0D01*
G01*
X133987500Y-60927500D02*
X133587500Y-60927500D01*
X133287500Y-58127500D02*
X133287500Y-60627500D01*
X133587500Y-57827500D02*
X133987500Y-57827500D01*
X133587500Y-60927500D02*
G75*
G02X133287500Y-60627500I0J300000D01*
G01*
X133987500Y-60927500D02*
G75*
G02X134287500Y-61227500I0J-300000D01*
G01*
X133587500Y-48927500D02*
X133987500Y-48927500D01*
X133987500Y-52027500D02*
X133587500Y-52027500D01*
X133287500Y-49227500D02*
X133287500Y-51727500D01*
X134287500Y-48627500D02*
G75*
G02X133987500Y-48927500I-300000J0D01*
G01*
X133987500Y-52027500D02*
G75*
G02X134287500Y-52327500I0J-300000D01*
G01*
X133587500Y-52027500D02*
G75*
G02X133287500Y-51727500I0J300000D01*
G01*
X149287500Y-51727500D02*
G75*
G02X148987500Y-52027500I-300000J0D01*
G01*
X149287500Y-60627500D02*
G75*
G02X148987500Y-60927500I-300000J0D01*
G01*
X133287500Y-58127500D02*
G75*
G02X133587500Y-57827500I300000J0D01*
G01*
X133287500Y-49227500D02*
G75*
G02X133587500Y-48927500I300000J0D01*
G01*
G04 #@! TO.C,K_S1*
X95187500Y-68277500D02*
G75*
G02X95487500Y-67977500I300000J0D01*
G01*
X95187500Y-77177500D02*
G75*
G02X95487500Y-76877500I300000J0D01*
G01*
X111187500Y-79677500D02*
G75*
G02X110887500Y-79977500I-300000J0D01*
G01*
X111187500Y-70777500D02*
G75*
G02X110887500Y-71077500I-300000J0D01*
G01*
X95487500Y-71077500D02*
G75*
G02X95187500Y-70777500I0J300000D01*
G01*
X95887500Y-71077500D02*
G75*
G02X96187500Y-71377500I0J-300000D01*
G01*
X96187500Y-67677500D02*
G75*
G02X95887500Y-67977500I-300000J0D01*
G01*
X95187500Y-68277500D02*
X95187500Y-70777500D01*
X95887500Y-71077500D02*
X95487500Y-71077500D01*
X95487500Y-67977500D02*
X95887500Y-67977500D01*
X95887500Y-79977500D02*
G75*
G02X96187500Y-80277500I0J-300000D01*
G01*
X95487500Y-79977500D02*
G75*
G02X95187500Y-79677500I0J300000D01*
G01*
X95487500Y-76877500D02*
X95887500Y-76877500D01*
X95187500Y-77177500D02*
X95187500Y-79677500D01*
X95887500Y-79977500D02*
X95487500Y-79977500D01*
X96187500Y-76577500D02*
G75*
G02X95887500Y-76877500I-300000J0D01*
G01*
X110187500Y-80277500D02*
G75*
G02X110487500Y-79977500I300000J0D01*
G01*
X110487500Y-76877500D02*
X110887500Y-76877500D01*
X111187500Y-79677500D02*
X111187500Y-77177500D01*
X110887500Y-79977500D02*
X110487500Y-79977500D01*
X110887500Y-76877500D02*
G75*
G02X111187500Y-77177500I0J-300000D01*
G01*
X110487500Y-76877500D02*
G75*
G02X110187500Y-76577500I0J300000D01*
G01*
X110187500Y-67277500D02*
X110187500Y-67677500D01*
X110887500Y-67977500D02*
G75*
G02X111187500Y-68277500I0J-300000D01*
G01*
X110487500Y-67977500D02*
G75*
G02X110187500Y-67677500I0J300000D01*
G01*
X110187500Y-80677500D02*
G75*
G02X109887500Y-80977500I-300000J0D01*
G01*
X110187500Y-76577500D02*
X110187500Y-71377500D01*
X110887500Y-71077500D02*
X110487500Y-71077500D01*
X111187500Y-70777500D02*
X111187500Y-68277500D01*
X110487500Y-67977500D02*
X110887500Y-67977500D01*
X110187500Y-71377500D02*
G75*
G02X110487500Y-71077500I300000J0D01*
G01*
X109887500Y-66977500D02*
G75*
G02X110187500Y-67277500I0J-300000D01*
G01*
X110187500Y-80277500D02*
X110187500Y-80677500D01*
X96187500Y-67677500D02*
X96187500Y-67277500D01*
X96187500Y-71377500D02*
X96187500Y-76577500D01*
X109887500Y-66977500D02*
X96487500Y-66977500D01*
X96187500Y-67277500D02*
G75*
G02X96487500Y-66977500I300000J0D01*
G01*
X96187500Y-80677500D02*
X96187500Y-80277500D01*
X96487500Y-80977500D02*
G75*
G02X96187500Y-80677500I0J300000D01*
G01*
X109887500Y-80977500D02*
X96487500Y-80977500D01*
G04 #@! TO.C,K_SHIFT1*
X67346830Y-104642920D02*
X67346830Y-103522134D01*
X63954039Y-104896920D02*
X67092830Y-104896920D01*
X63700039Y-103634346D02*
X63700039Y-104642920D01*
X62270905Y-103380346D02*
X63446039Y-103380346D01*
X62016905Y-102848882D02*
X62016905Y-103126346D01*
X60419456Y-102594882D02*
X61762905Y-102594882D01*
X60165456Y-103586258D02*
X60165456Y-102848882D01*
X69340069Y-97654184D02*
X69673636Y-97654184D01*
X69927636Y-97400184D02*
X69927636Y-93922133D01*
X62016905Y-90554111D02*
X62016905Y-90985861D01*
X60165456Y-90985861D02*
X60165456Y-90051357D01*
X59911456Y-89797357D02*
X46449438Y-89797357D01*
X46195438Y-90051357D02*
X46195438Y-90985861D01*
X45941438Y-91239861D02*
X44597990Y-91239861D01*
X44343990Y-90985861D02*
X44343990Y-90554111D01*
X67600830Y-103268134D02*
X68832069Y-103268134D01*
X69673636Y-93668133D02*
X69340069Y-93668133D01*
X68832069Y-90300111D02*
X62270905Y-90300111D01*
X53180438Y-94750357D02*
X53180438Y-98941357D01*
X55339438Y-96836279D02*
X51021438Y-96836361D01*
X61762905Y-91239861D02*
X60419456Y-91239861D01*
X44089990Y-90300111D02*
X37528824Y-90300111D01*
X37274824Y-90554111D02*
X37274824Y-93414133D01*
X37020824Y-93668133D02*
X36687255Y-93668133D01*
X36433255Y-93922133D02*
X36433255Y-97400184D01*
X36687255Y-97654184D02*
X37020824Y-97654184D01*
X37274824Y-97908184D02*
X37274824Y-103014134D01*
X37528824Y-103268134D02*
X38760061Y-103268134D01*
X39014061Y-103522134D02*
X39014061Y-104642920D01*
X39268061Y-104896920D02*
X42406851Y-104896920D01*
X42660851Y-104642920D02*
X42660851Y-103634346D01*
X42914851Y-103380346D02*
X44089990Y-103380346D01*
X44343990Y-103126346D02*
X44343990Y-102848882D01*
X44597990Y-102594882D02*
X45941438Y-102594882D01*
X46195438Y-102848882D02*
X46195438Y-103586258D01*
X46449438Y-103840258D02*
X59911456Y-103840258D01*
X69086069Y-93414133D02*
X69086069Y-90554111D01*
X69086069Y-103014134D02*
X69086069Y-97908184D01*
X55085438Y-96837500D02*
G75*
G03X55085438Y-96837500I-1904188J0D01*
G01*
X62016905Y-90554111D02*
G75*
G02X62270905Y-90300111I254000J0D01*
G01*
X68832069Y-90300111D02*
G75*
G02X69086069Y-90554111I0J-254000D01*
G01*
X69340069Y-93668133D02*
G75*
G02X69086069Y-93414133I0J254000D01*
G01*
X69673636Y-93668133D02*
G75*
G02X69927636Y-93922133I0J-254000D01*
G01*
X69927636Y-97400184D02*
G75*
G02X69673636Y-97654184I-254000J0D01*
G01*
X69086069Y-97908184D02*
G75*
G02X69340069Y-97654184I254000J0D01*
G01*
X69086069Y-103014134D02*
G75*
G02X68832069Y-103268134I-254000J0D01*
G01*
X67346830Y-103522134D02*
G75*
G02X67600830Y-103268134I254000J0D01*
G01*
X67346830Y-104642920D02*
G75*
G02X67092830Y-104896920I-254000J0D01*
G01*
X63954039Y-104896920D02*
G75*
G02X63700039Y-104642920I0J254000D01*
G01*
X63446039Y-103380346D02*
G75*
G02X63700039Y-103634346I0J-254000D01*
G01*
X62270905Y-103380346D02*
G75*
G02X62016905Y-103126346I0J254000D01*
G01*
X61762905Y-102594882D02*
G75*
G02X62016905Y-102848882I0J-254000D01*
G01*
X60165456Y-102848882D02*
G75*
G02X60419456Y-102594882I254000J0D01*
G01*
X60165456Y-103586258D02*
G75*
G02X59911456Y-103840258I-254000J0D01*
G01*
X60419456Y-91239861D02*
G75*
G02X60165456Y-90985861I0J254000D01*
G01*
X59911456Y-89797357D02*
G75*
G02X60165456Y-90051357I0J-254000D01*
G01*
X62016905Y-90985861D02*
G75*
G02X61762905Y-91239861I-254000J0D01*
G01*
X45941438Y-102594882D02*
G75*
G02X46195438Y-102848882I0J-254000D01*
G01*
X44343990Y-102848882D02*
G75*
G02X44597990Y-102594882I254000J0D01*
G01*
X44343990Y-103126346D02*
G75*
G02X44089990Y-103380346I-254000J0D01*
G01*
X42660851Y-103634346D02*
G75*
G02X42914851Y-103380346I254000J0D01*
G01*
X42660851Y-104642920D02*
G75*
G02X42406851Y-104896920I-254000J0D01*
G01*
X39268061Y-104896920D02*
G75*
G02X39014061Y-104642920I0J254000D01*
G01*
X38760061Y-103268134D02*
G75*
G02X39014061Y-103522134I0J-254000D01*
G01*
X37528824Y-103268134D02*
G75*
G02X37274824Y-103014134I0J254000D01*
G01*
X37020824Y-97654184D02*
G75*
G02X37274824Y-97908184I0J-254000D01*
G01*
X36433255Y-93922133D02*
G75*
G02X36687255Y-93668133I254000J0D01*
G01*
X37274824Y-93414133D02*
G75*
G02X37020824Y-93668133I-254000J0D01*
G01*
X37274824Y-90554111D02*
G75*
G02X37528824Y-90300111I254000J0D01*
G01*
X44089990Y-90300111D02*
G75*
G02X44343990Y-90554111I0J-254000D01*
G01*
X44597990Y-91239861D02*
G75*
G02X44343990Y-90985861I0J254000D01*
G01*
X46195438Y-90985861D02*
G75*
G02X45941438Y-91239861I-254000J0D01*
G01*
X46195438Y-90051357D02*
G75*
G02X46449438Y-89797357I254000J0D01*
G01*
X46449438Y-103840258D02*
G75*
G02X46195438Y-103586258I0J254000D01*
G01*
X36687255Y-97654184D02*
G75*
G02X36433255Y-97400184I0J254000D01*
G01*
G04 #@! TO.C,K_T1*
X152337500Y-53037500D02*
G75*
G02X152637500Y-52737500I300000J0D01*
G01*
X152337500Y-61937500D02*
G75*
G02X152637500Y-61637500I300000J0D01*
G01*
X168337500Y-64437500D02*
G75*
G02X168037500Y-64737500I-300000J0D01*
G01*
X168337500Y-55537500D02*
G75*
G02X168037500Y-55837500I-300000J0D01*
G01*
X152637500Y-55837500D02*
G75*
G02X152337500Y-55537500I0J300000D01*
G01*
X153037500Y-55837500D02*
G75*
G02X153337500Y-56137500I0J-300000D01*
G01*
X153337500Y-52437500D02*
G75*
G02X153037500Y-52737500I-300000J0D01*
G01*
X152337500Y-53037500D02*
X152337500Y-55537500D01*
X153037500Y-55837500D02*
X152637500Y-55837500D01*
X152637500Y-52737500D02*
X153037500Y-52737500D01*
X153037500Y-64737500D02*
G75*
G02X153337500Y-65037500I0J-300000D01*
G01*
X152637500Y-64737500D02*
G75*
G02X152337500Y-64437500I0J300000D01*
G01*
X152637500Y-61637500D02*
X153037500Y-61637500D01*
X152337500Y-61937500D02*
X152337500Y-64437500D01*
X153037500Y-64737500D02*
X152637500Y-64737500D01*
X153337500Y-61337500D02*
G75*
G02X153037500Y-61637500I-300000J0D01*
G01*
X167337500Y-65037500D02*
G75*
G02X167637500Y-64737500I300000J0D01*
G01*
X167637500Y-61637500D02*
X168037500Y-61637500D01*
X168337500Y-64437500D02*
X168337500Y-61937500D01*
X168037500Y-64737500D02*
X167637500Y-64737500D01*
X168037500Y-61637500D02*
G75*
G02X168337500Y-61937500I0J-300000D01*
G01*
X167637500Y-61637500D02*
G75*
G02X167337500Y-61337500I0J300000D01*
G01*
X167337500Y-52037500D02*
X167337500Y-52437500D01*
X168037500Y-52737500D02*
G75*
G02X168337500Y-53037500I0J-300000D01*
G01*
X167637500Y-52737500D02*
G75*
G02X167337500Y-52437500I0J300000D01*
G01*
X167337500Y-65437500D02*
G75*
G02X167037500Y-65737500I-300000J0D01*
G01*
X167337500Y-61337500D02*
X167337500Y-56137500D01*
X168037500Y-55837500D02*
X167637500Y-55837500D01*
X168337500Y-55537500D02*
X168337500Y-53037500D01*
X167637500Y-52737500D02*
X168037500Y-52737500D01*
X167337500Y-56137500D02*
G75*
G02X167637500Y-55837500I300000J0D01*
G01*
X167037500Y-51737500D02*
G75*
G02X167337500Y-52037500I0J-300000D01*
G01*
X167337500Y-65037500D02*
X167337500Y-65437500D01*
X153337500Y-52437500D02*
X153337500Y-52037500D01*
X153337500Y-56137500D02*
X153337500Y-61337500D01*
X167037500Y-51737500D02*
X153637500Y-51737500D01*
X153337500Y-52037500D02*
G75*
G02X153637500Y-51737500I300000J0D01*
G01*
X153337500Y-65437500D02*
X153337500Y-65037500D01*
X153637500Y-65737500D02*
G75*
G02X153337500Y-65437500I0J300000D01*
G01*
X167037500Y-65737500D02*
X153637500Y-65737500D01*
G04 #@! TO.C,K_TAB1*
X68325000Y-53037500D02*
G75*
G03X68025000Y-52737500I-300000J0D01*
G01*
X68325000Y-61937500D02*
G75*
G03X68025000Y-61637500I-300000J0D01*
G01*
X52325000Y-64437500D02*
G75*
G03X52625000Y-64737500I300000J0D01*
G01*
X52325000Y-55537500D02*
G75*
G03X52625000Y-55837500I300000J0D01*
G01*
X68025000Y-55837500D02*
G75*
G03X68325000Y-55537500I0J300000D01*
G01*
X67625000Y-55837500D02*
G75*
G03X67325000Y-56137500I0J-300000D01*
G01*
X67325000Y-52437500D02*
G75*
G03X67625000Y-52737500I300000J0D01*
G01*
X68325000Y-53037500D02*
X68325000Y-55537500D01*
X67625000Y-55837500D02*
X68025000Y-55837500D01*
X68025000Y-52737500D02*
X67625000Y-52737500D01*
X67625000Y-64737500D02*
G75*
G03X67325000Y-65037500I0J-300000D01*
G01*
X68025000Y-64737500D02*
G75*
G03X68325000Y-64437500I0J300000D01*
G01*
X68025000Y-61637500D02*
X67625000Y-61637500D01*
X68325000Y-61937500D02*
X68325000Y-64437500D01*
X67625000Y-64737500D02*
X68025000Y-64737500D01*
X67325000Y-61337500D02*
G75*
G03X67625000Y-61637500I300000J0D01*
G01*
X53325000Y-65037500D02*
G75*
G03X53025000Y-64737500I-300000J0D01*
G01*
X53025000Y-61637500D02*
X52625000Y-61637500D01*
X52325000Y-64437500D02*
X52325000Y-61937500D01*
X52625000Y-64737500D02*
X53025000Y-64737500D01*
X52625000Y-61637500D02*
G75*
G03X52325000Y-61937500I0J-300000D01*
G01*
X53025000Y-61637500D02*
G75*
G03X53325000Y-61337500I0J300000D01*
G01*
X53325000Y-52037500D02*
X53325000Y-52437500D01*
X52625000Y-52737500D02*
G75*
G03X52325000Y-53037500I0J-300000D01*
G01*
X53025000Y-52737500D02*
G75*
G03X53325000Y-52437500I0J300000D01*
G01*
X53325000Y-65437500D02*
G75*
G03X53625000Y-65737500I300000J0D01*
G01*
X53325000Y-61337500D02*
X53325000Y-56137500D01*
X52625000Y-55837500D02*
X53025000Y-55837500D01*
X52325000Y-55537500D02*
X52325000Y-53037500D01*
X53025000Y-52737500D02*
X52625000Y-52737500D01*
X53325000Y-56137500D02*
G75*
G03X53025000Y-55837500I-300000J0D01*
G01*
X53625000Y-51737500D02*
G75*
G03X53325000Y-52037500I0J-300000D01*
G01*
X53325000Y-65037500D02*
X53325000Y-65437500D01*
X67325000Y-52437500D02*
X67325000Y-52037500D01*
X67325000Y-56137500D02*
X67325000Y-61337500D01*
X53625000Y-51737500D02*
X67025000Y-51737500D01*
X67325000Y-52037500D02*
G75*
G03X67025000Y-51737500I-300000J0D01*
G01*
X67325000Y-65437500D02*
X67325000Y-65037500D01*
X67025000Y-65737500D02*
G75*
G03X67325000Y-65437500I0J300000D01*
G01*
X53625000Y-65737500D02*
X67025000Y-65737500D01*
G04 #@! TO.C,K_TH_1U_1*
X194913350Y-136918412D02*
X182768826Y-131255327D01*
X182768825Y-131255327D02*
G75*
G02X182623719Y-130856649I126786J271892D01*
G01*
X182623719Y-130856649D02*
X182792766Y-130494126D01*
X188286804Y-118712124D02*
G75*
G02X188685482Y-118567018I271892J-126786D01*
G01*
X200830006Y-124230103D02*
X188685482Y-118567018D01*
X186554069Y-122427987D02*
X184356454Y-127140787D01*
X188117757Y-119074648D02*
X188286804Y-118712125D01*
X195481075Y-136410782D02*
X195312028Y-136773305D01*
X200830007Y-124230103D02*
G75*
G02X200975113Y-124628781I-126786J-271892D01*
G01*
X199242378Y-128344642D02*
G75*
G02X199641056Y-128199536I271892J-126786D01*
G01*
X200951172Y-125389982D02*
X201313696Y-125559029D01*
X200402257Y-128223476D02*
X201458802Y-125957707D01*
X200003579Y-128368583D02*
X199641056Y-128199536D01*
X197044763Y-133057443D02*
X199242378Y-128344643D01*
X195312028Y-136773306D02*
G75*
G02X194913350Y-136918412I-271892J126786D01*
G01*
X200951173Y-125389981D02*
G75*
G02X200806066Y-124991304I126785J271892D01*
G01*
X201313696Y-125559029D02*
G75*
G02X201458802Y-125957707I-126786J-271892D01*
G01*
X200975113Y-124628781D02*
X200806066Y-124991304D01*
X197189869Y-133456121D02*
G75*
G02X197044763Y-133057443I126786J271892D01*
G01*
X197552393Y-133625169D02*
G75*
G02X197697500Y-134023846I-126785J-271892D01*
G01*
X196242276Y-136434722D02*
X195879753Y-136265675D01*
X196640954Y-136289615D02*
X197697500Y-134023846D01*
X197189870Y-133456121D02*
X197552393Y-133625168D01*
X195481076Y-136410782D02*
G75*
G02X195879753Y-136265675I271892J-126785D01*
G01*
X184356454Y-127140788D02*
G75*
G02X183957776Y-127285894I-271892J126786D01*
G01*
X182647660Y-130095448D02*
X182285136Y-129926401D01*
X183196575Y-127261954D02*
X182140030Y-129527723D01*
X183595253Y-127116847D02*
X183957776Y-127285894D01*
X182285136Y-129926401D02*
G75*
G02X182140030Y-129527723I126786J271892D01*
G01*
X182647659Y-130095449D02*
G75*
G02X182792766Y-130494126I-126785J-271892D01*
G01*
X187356556Y-119050708D02*
X187719079Y-119219755D01*
X186408962Y-122029309D02*
X186046439Y-121860262D01*
X186957878Y-119195815D02*
X185901332Y-121461584D01*
X188117756Y-119074648D02*
G75*
G02X187719079Y-119219755I-271892J126785D01*
G01*
X186408963Y-122029309D02*
G75*
G02X186554069Y-122427987I-126786J-271892D01*
G01*
X186046439Y-121860261D02*
G75*
G02X185901332Y-121461584I126785J271892D01*
G01*
X200402256Y-128223476D02*
G75*
G02X200003579Y-128368583I-271892J126785D01*
G01*
X196640954Y-136289616D02*
G75*
G02X196242276Y-136434722I-271892J126786D01*
G01*
X183196576Y-127261954D02*
G75*
G02X183595253Y-127116847I271892J-126785D01*
G01*
X186957878Y-119195814D02*
G75*
G02X187356556Y-119050708I271892J-126786D01*
G01*
G04 #@! TO.C,K_TH_1U_2*
X186862471Y-154183575D02*
X174717947Y-148520490D01*
X174717946Y-148520490D02*
G75*
G02X174572840Y-148121812I126786J271892D01*
G01*
X174572840Y-148121812D02*
X174741887Y-147759289D01*
X180235925Y-135977287D02*
G75*
G02X180634603Y-135832181I271892J-126786D01*
G01*
X192779127Y-141495266D02*
X180634603Y-135832181D01*
X178503190Y-139693150D02*
X176305575Y-144405950D01*
X180066878Y-136339811D02*
X180235925Y-135977288D01*
X187430196Y-153675945D02*
X187261149Y-154038468D01*
X192779128Y-141495266D02*
G75*
G02X192924234Y-141893944I-126786J-271892D01*
G01*
X191191499Y-145609805D02*
G75*
G02X191590177Y-145464699I271892J-126786D01*
G01*
X192900293Y-142655145D02*
X193262817Y-142824192D01*
X192351378Y-145488639D02*
X193407923Y-143222870D01*
X191952700Y-145633746D02*
X191590177Y-145464699D01*
X188993884Y-150322606D02*
X191191499Y-145609806D01*
X187261149Y-154038469D02*
G75*
G02X186862471Y-154183575I-271892J126786D01*
G01*
X192900294Y-142655144D02*
G75*
G02X192755187Y-142256467I126785J271892D01*
G01*
X193262817Y-142824192D02*
G75*
G02X193407923Y-143222870I-126786J-271892D01*
G01*
X192924234Y-141893944D02*
X192755187Y-142256467D01*
X189138990Y-150721284D02*
G75*
G02X188993884Y-150322606I126786J271892D01*
G01*
X189501514Y-150890332D02*
G75*
G02X189646621Y-151289009I-126785J-271892D01*
G01*
X188191397Y-153699885D02*
X187828874Y-153530838D01*
X188590075Y-153554778D02*
X189646621Y-151289009D01*
X189138991Y-150721284D02*
X189501514Y-150890331D01*
X187430197Y-153675945D02*
G75*
G02X187828874Y-153530838I271892J-126785D01*
G01*
X176305575Y-144405951D02*
G75*
G02X175906897Y-144551057I-271892J126786D01*
G01*
X174596781Y-147360611D02*
X174234257Y-147191564D01*
X175145696Y-144527117D02*
X174089151Y-146792886D01*
X175544374Y-144382010D02*
X175906897Y-144551057D01*
X174234257Y-147191564D02*
G75*
G02X174089151Y-146792886I126786J271892D01*
G01*
X174596780Y-147360612D02*
G75*
G02X174741887Y-147759289I-126785J-271892D01*
G01*
X179305677Y-136315871D02*
X179668200Y-136484918D01*
X178358083Y-139294472D02*
X177995560Y-139125425D01*
X178906999Y-136460978D02*
X177850453Y-138726747D01*
X180066877Y-136339811D02*
G75*
G02X179668200Y-136484918I-271892J126785D01*
G01*
X178358084Y-139294472D02*
G75*
G02X178503190Y-139693150I-126786J-271892D01*
G01*
X177995560Y-139125424D02*
G75*
G02X177850453Y-138726747I126785J271892D01*
G01*
X192351377Y-145488639D02*
G75*
G02X191952700Y-145633746I-271892J126785D01*
G01*
X188590075Y-153554779D02*
G75*
G02X188191397Y-153699885I-271892J126786D01*
G01*
X175145697Y-144527117D02*
G75*
G02X175544374Y-144382010I271892J-126785D01*
G01*
X178906999Y-136460977D02*
G75*
G02X179305677Y-136315871I271892J-126786D01*
G01*
G04 #@! TO.C,K_THUMB_2U1*
X176739310Y-113030638D02*
G75*
G02X177076857Y-112907781I230202J-107345D01*
G01*
X167007146Y-119263833D02*
G75*
G02X167344693Y-119140976I230202J-107345D01*
G01*
X179611479Y-124861072D02*
G75*
G02X179734336Y-125198619I-107345J-230202D01*
G01*
X178764530Y-124466134D02*
G75*
G02X178641674Y-124128586I107346J230202D01*
G01*
X179209439Y-122911009D02*
G75*
G02X179546986Y-122788152I230202J-107345D01*
G01*
X180275832Y-122847760D02*
G75*
G02X179938285Y-122970617I-230202J107345D01*
G01*
X182925843Y-116563776D02*
G75*
G02X183048701Y-116901324I-107345J-230203D01*
G01*
X180333783Y-115355079D02*
G75*
G02X180210926Y-115017532I107345J230202D01*
G01*
X180229041Y-114377669D02*
G75*
G02X180351898Y-114715216I-107345J-230202D01*
G01*
X176598338Y-113332954D02*
G75*
G02X176260790Y-113455812I-230203J107345D01*
G01*
X171295681Y-111420801D02*
G75*
G02X171633228Y-111297944I230202J-107345D01*
G01*
X170775337Y-112536681D02*
G75*
G02X170437790Y-112659538I-230202J107345D01*
G01*
X169084466Y-112308730D02*
G75*
G02X169422013Y-112185873I230202J-107345D01*
G01*
X167880813Y-115490987D02*
G75*
G02X167757956Y-115153440I107345J230202D01*
G01*
X168794891Y-115917229D02*
G75*
G02X168917748Y-116254776I-107345J-230202D01*
G01*
X168543970Y-117657361D02*
G75*
G02X168421113Y-117319814I107345J230202D01*
G01*
X168795438Y-117774623D02*
G75*
G02X168918295Y-118112170I-107345J-230202D01*
G01*
X168350529Y-119329747D02*
G75*
G02X168012982Y-119452604I-230202J107345D01*
G01*
X172078090Y-138805252D02*
G75*
G02X171955233Y-138467705I107345J230202D01*
G01*
X174045041Y-137399351D02*
G75*
G02X173707494Y-137522208I-230202J107345D01*
G01*
X172522999Y-137250127D02*
G75*
G02X172860546Y-137127270I230202J-107345D01*
G01*
X161440708Y-131802112D02*
G75*
G02X161317851Y-131464565I107345J230202D01*
G01*
X162108998Y-132113741D02*
G75*
G02X162231855Y-132451288I-107345J-230202D01*
G01*
X161664089Y-133668866D02*
G75*
G02X161326542Y-133791723I-230202J107345D01*
G01*
X160737527Y-133797319D02*
G75*
G02X161075074Y-133674462I230202J-107345D01*
G01*
X160240893Y-134862352D02*
G75*
G02X159903346Y-134985209I-230202J107345D01*
G01*
X158651720Y-134681825D02*
G75*
G02X158989268Y-134558967I230203J-107345D01*
G01*
X157448067Y-137864082D02*
G75*
G02X157325210Y-137526535I107345J230202D01*
G01*
X158463844Y-138337747D02*
G75*
G02X158586701Y-138675294I-107345J-230202D01*
G01*
X158189215Y-140128724D02*
G75*
G02X158066357Y-139791176I107345J230203D01*
G01*
X162816777Y-142286591D02*
G75*
G02X162939634Y-142624138I-107345J-230202D01*
G01*
X162921520Y-143264000D02*
G75*
G02X162798662Y-142926452I107345J230203D01*
G01*
X166411251Y-144611030D02*
G75*
G02X166073704Y-144733887I-230202J107345D01*
G01*
X166552223Y-144308716D02*
G75*
G02X166889770Y-144185859I230202J-107345D01*
G01*
X169819377Y-145271699D02*
G75*
G02X169481830Y-145394556I-230202J107345D01*
G01*
X172469388Y-138987718D02*
G75*
G02X172592245Y-139325265I-107345J-230202D01*
G01*
X172413001Y-128324420D02*
G75*
G03X172413001Y-128324420I-1904188J0D01*
G01*
X158189215Y-140128723D02*
X162816777Y-142286591D01*
X166889770Y-144185859D02*
X169481830Y-145394556D01*
X167007146Y-119263833D02*
X161317851Y-131464565D01*
X168012982Y-119452604D02*
X167344693Y-119140976D01*
X168918295Y-118112170D02*
X168350530Y-119329747D01*
X168543970Y-117657361D02*
X168795438Y-117774623D01*
X168917748Y-116254776D02*
X168421113Y-117319814D01*
X167880813Y-115490987D02*
X168794891Y-115917229D01*
X169084466Y-112308730D02*
X167757956Y-115153440D01*
X170437790Y-112659538D02*
X169422013Y-112185873D01*
X171295680Y-111420801D02*
X170775337Y-112536681D01*
X176260790Y-113455812D02*
X171633228Y-111297944D01*
X176739309Y-113030638D02*
X176598337Y-113332955D01*
X180229041Y-114377669D02*
X177076857Y-112907781D01*
X180210926Y-115017532D02*
X180351898Y-114715216D01*
X182925843Y-116563777D02*
X180333783Y-115355080D01*
X180275832Y-122847760D02*
X183048701Y-116901324D01*
X171955233Y-138467705D02*
X172522999Y-137250127D01*
X169597830Y-130280919D02*
X171422621Y-126367447D01*
X172400750Y-129205749D02*
X168602414Y-127434556D01*
X169819378Y-145271699D02*
X172592245Y-139325265D01*
X166411251Y-144611030D02*
X166552223Y-144308716D01*
X158586701Y-138675294D02*
X158066357Y-139791176D01*
X179546986Y-122788152D02*
X179938285Y-122970617D01*
X178641674Y-124128586D02*
X179209439Y-122911009D01*
X179611479Y-124861072D02*
X178764531Y-124466134D01*
X174045041Y-137399351D02*
X179734336Y-125198619D01*
X172860546Y-137127270D02*
X173707494Y-137522208D01*
X172469388Y-138987718D02*
X172078090Y-138805252D01*
X162921520Y-143264000D02*
X166073704Y-144733887D01*
X162939634Y-142624138D02*
X162798662Y-142926452D01*
X161440708Y-131802112D02*
X162108998Y-132113740D01*
X162231855Y-132451288D02*
X161664089Y-133668866D01*
X161326542Y-133791723D02*
X161075074Y-133674462D01*
X160737527Y-133797319D02*
X160240893Y-134862352D01*
X159903346Y-134985209D02*
X158989268Y-134558967D01*
X158651721Y-134681824D02*
X157325210Y-137526535D01*
X157448067Y-137864082D02*
X158463844Y-138337747D01*
G04 #@! TO.C,K_V1*
X147987500Y-100027500D02*
X134587500Y-100027500D01*
X134587500Y-100027500D02*
G75*
G02X134287500Y-99727500I0J300000D01*
G01*
X134287500Y-99727500D02*
X134287500Y-99327500D01*
X134287500Y-86327500D02*
G75*
G02X134587500Y-86027500I300000J0D01*
G01*
X147987500Y-86027500D02*
X134587500Y-86027500D01*
X134287500Y-90427500D02*
X134287500Y-95627500D01*
X134287500Y-86727500D02*
X134287500Y-86327500D01*
X148287500Y-99327500D02*
X148287500Y-99727500D01*
X147987500Y-86027500D02*
G75*
G02X148287500Y-86327500I0J-300000D01*
G01*
X148287500Y-90427500D02*
G75*
G02X148587500Y-90127500I300000J0D01*
G01*
X148587500Y-87027500D02*
X148987500Y-87027500D01*
X149287500Y-89827500D02*
X149287500Y-87327500D01*
X148987500Y-90127500D02*
X148587500Y-90127500D01*
X148287500Y-95627500D02*
X148287500Y-90427500D01*
X148287500Y-99727500D02*
G75*
G02X147987500Y-100027500I-300000J0D01*
G01*
X148587500Y-87027500D02*
G75*
G02X148287500Y-86727500I0J300000D01*
G01*
X148987500Y-87027500D02*
G75*
G02X149287500Y-87327500I0J-300000D01*
G01*
X148287500Y-86327500D02*
X148287500Y-86727500D01*
X148587500Y-95927500D02*
G75*
G02X148287500Y-95627500I0J300000D01*
G01*
X148987500Y-95927500D02*
G75*
G02X149287500Y-96227500I0J-300000D01*
G01*
X148987500Y-99027500D02*
X148587500Y-99027500D01*
X149287500Y-98727500D02*
X149287500Y-96227500D01*
X148587500Y-95927500D02*
X148987500Y-95927500D01*
X148287500Y-99327500D02*
G75*
G02X148587500Y-99027500I300000J0D01*
G01*
X134287500Y-95627500D02*
G75*
G02X133987500Y-95927500I-300000J0D01*
G01*
X133987500Y-99027500D02*
X133587500Y-99027500D01*
X133287500Y-96227500D02*
X133287500Y-98727500D01*
X133587500Y-95927500D02*
X133987500Y-95927500D01*
X133587500Y-99027500D02*
G75*
G02X133287500Y-98727500I0J300000D01*
G01*
X133987500Y-99027500D02*
G75*
G02X134287500Y-99327500I0J-300000D01*
G01*
X133587500Y-87027500D02*
X133987500Y-87027500D01*
X133987500Y-90127500D02*
X133587500Y-90127500D01*
X133287500Y-87327500D02*
X133287500Y-89827500D01*
X134287500Y-86727500D02*
G75*
G02X133987500Y-87027500I-300000J0D01*
G01*
X133987500Y-90127500D02*
G75*
G02X134287500Y-90427500I0J-300000D01*
G01*
X133587500Y-90127500D02*
G75*
G02X133287500Y-89827500I0J300000D01*
G01*
X149287500Y-89827500D02*
G75*
G02X148987500Y-90127500I-300000J0D01*
G01*
X149287500Y-98727500D02*
G75*
G02X148987500Y-99027500I-300000J0D01*
G01*
X133287500Y-96227500D02*
G75*
G02X133587500Y-95927500I300000J0D01*
G01*
X133287500Y-87327500D02*
G75*
G02X133587500Y-87027500I300000J0D01*
G01*
G04 #@! TO.C,K_W1*
X109887500Y-61927500D02*
X96487500Y-61927500D01*
X96487500Y-61927500D02*
G75*
G02X96187500Y-61627500I0J300000D01*
G01*
X96187500Y-61627500D02*
X96187500Y-61227500D01*
X96187500Y-48227500D02*
G75*
G02X96487500Y-47927500I300000J0D01*
G01*
X109887500Y-47927500D02*
X96487500Y-47927500D01*
X96187500Y-52327500D02*
X96187500Y-57527500D01*
X96187500Y-48627500D02*
X96187500Y-48227500D01*
X110187500Y-61227500D02*
X110187500Y-61627500D01*
X109887500Y-47927500D02*
G75*
G02X110187500Y-48227500I0J-300000D01*
G01*
X110187500Y-52327500D02*
G75*
G02X110487500Y-52027500I300000J0D01*
G01*
X110487500Y-48927500D02*
X110887500Y-48927500D01*
X111187500Y-51727500D02*
X111187500Y-49227500D01*
X110887500Y-52027500D02*
X110487500Y-52027500D01*
X110187500Y-57527500D02*
X110187500Y-52327500D01*
X110187500Y-61627500D02*
G75*
G02X109887500Y-61927500I-300000J0D01*
G01*
X110487500Y-48927500D02*
G75*
G02X110187500Y-48627500I0J300000D01*
G01*
X110887500Y-48927500D02*
G75*
G02X111187500Y-49227500I0J-300000D01*
G01*
X110187500Y-48227500D02*
X110187500Y-48627500D01*
X110487500Y-57827500D02*
G75*
G02X110187500Y-57527500I0J300000D01*
G01*
X110887500Y-57827500D02*
G75*
G02X111187500Y-58127500I0J-300000D01*
G01*
X110887500Y-60927500D02*
X110487500Y-60927500D01*
X111187500Y-60627500D02*
X111187500Y-58127500D01*
X110487500Y-57827500D02*
X110887500Y-57827500D01*
X110187500Y-61227500D02*
G75*
G02X110487500Y-60927500I300000J0D01*
G01*
X96187500Y-57527500D02*
G75*
G02X95887500Y-57827500I-300000J0D01*
G01*
X95887500Y-60927500D02*
X95487500Y-60927500D01*
X95187500Y-58127500D02*
X95187500Y-60627500D01*
X95487500Y-57827500D02*
X95887500Y-57827500D01*
X95487500Y-60927500D02*
G75*
G02X95187500Y-60627500I0J300000D01*
G01*
X95887500Y-60927500D02*
G75*
G02X96187500Y-61227500I0J-300000D01*
G01*
X95487500Y-48927500D02*
X95887500Y-48927500D01*
X95887500Y-52027500D02*
X95487500Y-52027500D01*
X95187500Y-49227500D02*
X95187500Y-51727500D01*
X96187500Y-48627500D02*
G75*
G02X95887500Y-48927500I-300000J0D01*
G01*
X95887500Y-52027500D02*
G75*
G02X96187500Y-52327500I0J-300000D01*
G01*
X95487500Y-52027500D02*
G75*
G02X95187500Y-51727500I0J300000D01*
G01*
X111187500Y-51727500D02*
G75*
G02X110887500Y-52027500I-300000J0D01*
G01*
X111187500Y-60627500D02*
G75*
G02X110887500Y-60927500I-300000J0D01*
G01*
X95187500Y-58127500D02*
G75*
G02X95487500Y-57827500I300000J0D01*
G01*
X95187500Y-49227500D02*
G75*
G02X95487500Y-48927500I300000J0D01*
G01*
G04 #@! TO.C,K_WIN1*
X109887500Y-119077500D02*
X96487500Y-119077500D01*
X96487500Y-119077500D02*
G75*
G02X96187500Y-118777500I0J300000D01*
G01*
X96187500Y-118777500D02*
X96187500Y-118377500D01*
X96187500Y-105377500D02*
G75*
G02X96487500Y-105077500I300000J0D01*
G01*
X109887500Y-105077500D02*
X96487500Y-105077500D01*
X96187500Y-109477500D02*
X96187500Y-114677500D01*
X96187500Y-105777500D02*
X96187500Y-105377500D01*
X110187500Y-118377500D02*
X110187500Y-118777500D01*
X109887500Y-105077500D02*
G75*
G02X110187500Y-105377500I0J-300000D01*
G01*
X110187500Y-109477500D02*
G75*
G02X110487500Y-109177500I300000J0D01*
G01*
X110487500Y-106077500D02*
X110887500Y-106077500D01*
X111187500Y-108877500D02*
X111187500Y-106377500D01*
X110887500Y-109177500D02*
X110487500Y-109177500D01*
X110187500Y-114677500D02*
X110187500Y-109477500D01*
X110187500Y-118777500D02*
G75*
G02X109887500Y-119077500I-300000J0D01*
G01*
X110487500Y-106077500D02*
G75*
G02X110187500Y-105777500I0J300000D01*
G01*
X110887500Y-106077500D02*
G75*
G02X111187500Y-106377500I0J-300000D01*
G01*
X110187500Y-105377500D02*
X110187500Y-105777500D01*
X110487500Y-114977500D02*
G75*
G02X110187500Y-114677500I0J300000D01*
G01*
X110887500Y-114977500D02*
G75*
G02X111187500Y-115277500I0J-300000D01*
G01*
X110887500Y-118077500D02*
X110487500Y-118077500D01*
X111187500Y-117777500D02*
X111187500Y-115277500D01*
X110487500Y-114977500D02*
X110887500Y-114977500D01*
X110187500Y-118377500D02*
G75*
G02X110487500Y-118077500I300000J0D01*
G01*
X96187500Y-114677500D02*
G75*
G02X95887500Y-114977500I-300000J0D01*
G01*
X95887500Y-118077500D02*
X95487500Y-118077500D01*
X95187500Y-115277500D02*
X95187500Y-117777500D01*
X95487500Y-114977500D02*
X95887500Y-114977500D01*
X95487500Y-118077500D02*
G75*
G02X95187500Y-117777500I0J300000D01*
G01*
X95887500Y-118077500D02*
G75*
G02X96187500Y-118377500I0J-300000D01*
G01*
X95487500Y-106077500D02*
X95887500Y-106077500D01*
X95887500Y-109177500D02*
X95487500Y-109177500D01*
X95187500Y-106377500D02*
X95187500Y-108877500D01*
X96187500Y-105777500D02*
G75*
G02X95887500Y-106077500I-300000J0D01*
G01*
X95887500Y-109177500D02*
G75*
G02X96187500Y-109477500I0J-300000D01*
G01*
X95487500Y-109177500D02*
G75*
G02X95187500Y-108877500I0J300000D01*
G01*
X111187500Y-108877500D02*
G75*
G02X110887500Y-109177500I-300000J0D01*
G01*
X111187500Y-117777500D02*
G75*
G02X110887500Y-118077500I-300000J0D01*
G01*
X95187500Y-115277500D02*
G75*
G02X95487500Y-114977500I300000J0D01*
G01*
X95187500Y-106377500D02*
G75*
G02X95487500Y-106077500I300000J0D01*
G01*
G04 #@! TO.C,K_X1*
X109887500Y-100027500D02*
X96487500Y-100027500D01*
X96487500Y-100027500D02*
G75*
G02X96187500Y-99727500I0J300000D01*
G01*
X96187500Y-99727500D02*
X96187500Y-99327500D01*
X96187500Y-86327500D02*
G75*
G02X96487500Y-86027500I300000J0D01*
G01*
X109887500Y-86027500D02*
X96487500Y-86027500D01*
X96187500Y-90427500D02*
X96187500Y-95627500D01*
X96187500Y-86727500D02*
X96187500Y-86327500D01*
X110187500Y-99327500D02*
X110187500Y-99727500D01*
X109887500Y-86027500D02*
G75*
G02X110187500Y-86327500I0J-300000D01*
G01*
X110187500Y-90427500D02*
G75*
G02X110487500Y-90127500I300000J0D01*
G01*
X110487500Y-87027500D02*
X110887500Y-87027500D01*
X111187500Y-89827500D02*
X111187500Y-87327500D01*
X110887500Y-90127500D02*
X110487500Y-90127500D01*
X110187500Y-95627500D02*
X110187500Y-90427500D01*
X110187500Y-99727500D02*
G75*
G02X109887500Y-100027500I-300000J0D01*
G01*
X110487500Y-87027500D02*
G75*
G02X110187500Y-86727500I0J300000D01*
G01*
X110887500Y-87027500D02*
G75*
G02X111187500Y-87327500I0J-300000D01*
G01*
X110187500Y-86327500D02*
X110187500Y-86727500D01*
X110487500Y-95927500D02*
G75*
G02X110187500Y-95627500I0J300000D01*
G01*
X110887500Y-95927500D02*
G75*
G02X111187500Y-96227500I0J-300000D01*
G01*
X110887500Y-99027500D02*
X110487500Y-99027500D01*
X111187500Y-98727500D02*
X111187500Y-96227500D01*
X110487500Y-95927500D02*
X110887500Y-95927500D01*
X110187500Y-99327500D02*
G75*
G02X110487500Y-99027500I300000J0D01*
G01*
X96187500Y-95627500D02*
G75*
G02X95887500Y-95927500I-300000J0D01*
G01*
X95887500Y-99027500D02*
X95487500Y-99027500D01*
X95187500Y-96227500D02*
X95187500Y-98727500D01*
X95487500Y-95927500D02*
X95887500Y-95927500D01*
X95487500Y-99027500D02*
G75*
G02X95187500Y-98727500I0J300000D01*
G01*
X95887500Y-99027500D02*
G75*
G02X96187500Y-99327500I0J-300000D01*
G01*
X95487500Y-87027500D02*
X95887500Y-87027500D01*
X95887500Y-90127500D02*
X95487500Y-90127500D01*
X95187500Y-87327500D02*
X95187500Y-89827500D01*
X96187500Y-86727500D02*
G75*
G02X95887500Y-87027500I-300000J0D01*
G01*
X95887500Y-90127500D02*
G75*
G02X96187500Y-90427500I0J-300000D01*
G01*
X95487500Y-90127500D02*
G75*
G02X95187500Y-89827500I0J300000D01*
G01*
X111187500Y-89827500D02*
G75*
G02X110887500Y-90127500I-300000J0D01*
G01*
X111187500Y-98727500D02*
G75*
G02X110887500Y-99027500I-300000J0D01*
G01*
X95187500Y-96227500D02*
G75*
G02X95487500Y-95927500I300000J0D01*
G01*
X95187500Y-87327500D02*
G75*
G02X95487500Y-87027500I300000J0D01*
G01*
G04 #@! TO.C,K_Z1*
X76137500Y-91137500D02*
G75*
G02X76437500Y-90837500I300000J0D01*
G01*
X76137500Y-100037500D02*
G75*
G02X76437500Y-99737500I300000J0D01*
G01*
X92137500Y-102537500D02*
G75*
G02X91837500Y-102837500I-300000J0D01*
G01*
X92137500Y-93637500D02*
G75*
G02X91837500Y-93937500I-300000J0D01*
G01*
X76437500Y-93937500D02*
G75*
G02X76137500Y-93637500I0J300000D01*
G01*
X76837500Y-93937500D02*
G75*
G02X77137500Y-94237500I0J-300000D01*
G01*
X77137500Y-90537500D02*
G75*
G02X76837500Y-90837500I-300000J0D01*
G01*
X76137500Y-91137500D02*
X76137500Y-93637500D01*
X76837500Y-93937500D02*
X76437500Y-93937500D01*
X76437500Y-90837500D02*
X76837500Y-90837500D01*
X76837500Y-102837500D02*
G75*
G02X77137500Y-103137500I0J-300000D01*
G01*
X76437500Y-102837500D02*
G75*
G02X76137500Y-102537500I0J300000D01*
G01*
X76437500Y-99737500D02*
X76837500Y-99737500D01*
X76137500Y-100037500D02*
X76137500Y-102537500D01*
X76837500Y-102837500D02*
X76437500Y-102837500D01*
X77137500Y-99437500D02*
G75*
G02X76837500Y-99737500I-300000J0D01*
G01*
X91137500Y-103137500D02*
G75*
G02X91437500Y-102837500I300000J0D01*
G01*
X91437500Y-99737500D02*
X91837500Y-99737500D01*
X92137500Y-102537500D02*
X92137500Y-100037500D01*
X91837500Y-102837500D02*
X91437500Y-102837500D01*
X91837500Y-99737500D02*
G75*
G02X92137500Y-100037500I0J-300000D01*
G01*
X91437500Y-99737500D02*
G75*
G02X91137500Y-99437500I0J300000D01*
G01*
X91137500Y-90137500D02*
X91137500Y-90537500D01*
X91837500Y-90837500D02*
G75*
G02X92137500Y-91137500I0J-300000D01*
G01*
X91437500Y-90837500D02*
G75*
G02X91137500Y-90537500I0J300000D01*
G01*
X91137500Y-103537500D02*
G75*
G02X90837500Y-103837500I-300000J0D01*
G01*
X91137500Y-99437500D02*
X91137500Y-94237500D01*
X91837500Y-93937500D02*
X91437500Y-93937500D01*
X92137500Y-93637500D02*
X92137500Y-91137500D01*
X91437500Y-90837500D02*
X91837500Y-90837500D01*
X91137500Y-94237500D02*
G75*
G02X91437500Y-93937500I300000J0D01*
G01*
X90837500Y-89837500D02*
G75*
G02X91137500Y-90137500I0J-300000D01*
G01*
X91137500Y-103137500D02*
X91137500Y-103537500D01*
X77137500Y-90537500D02*
X77137500Y-90137500D01*
X77137500Y-94237500D02*
X77137500Y-99437500D01*
X90837500Y-89837500D02*
X77437500Y-89837500D01*
X77137500Y-90137500D02*
G75*
G02X77437500Y-89837500I300000J0D01*
G01*
X77137500Y-103537500D02*
X77137500Y-103137500D01*
X77437500Y-103837500D02*
G75*
G02X77137500Y-103537500I0J300000D01*
G01*
X90837500Y-103837500D02*
X77437500Y-103837500D01*
G04 #@! TD*
G04 #@! TO.C,K_1*
D11*
X83518452Y-40639880D02*
X83518452Y-39639880D01*
X84089880Y-40639880D02*
X83661309Y-40068452D01*
X84089880Y-39639880D02*
X83518452Y-40211309D01*
X84280357Y-40735119D02*
X85042261Y-40735119D01*
X85804166Y-40639880D02*
X85232738Y-40639880D01*
X85518452Y-40639880D02*
X85518452Y-39639880D01*
X85423214Y-39782738D01*
X85327976Y-39877976D01*
X85232738Y-39925595D01*
G04 #@! TO.C,K_2*
X102568452Y-36829880D02*
X102568452Y-35829880D01*
X103139880Y-36829880D02*
X102711309Y-36258452D01*
X103139880Y-35829880D02*
X102568452Y-36401309D01*
X103330357Y-36925119D02*
X104092261Y-36925119D01*
X104282738Y-35925119D02*
X104330357Y-35877500D01*
X104425595Y-35829880D01*
X104663690Y-35829880D01*
X104758928Y-35877500D01*
X104806547Y-35925119D01*
X104854166Y-36020357D01*
X104854166Y-36115595D01*
X104806547Y-36258452D01*
X104235119Y-36829880D01*
X104854166Y-36829880D01*
G04 #@! TO.C,K_3*
X121618452Y-33019880D02*
X121618452Y-32019880D01*
X122189880Y-33019880D02*
X121761309Y-32448452D01*
X122189880Y-32019880D02*
X121618452Y-32591309D01*
X122380357Y-33115119D02*
X123142261Y-33115119D01*
X123285119Y-32019880D02*
X123904166Y-32019880D01*
X123570833Y-32400833D01*
X123713690Y-32400833D01*
X123808928Y-32448452D01*
X123856547Y-32496071D01*
X123904166Y-32591309D01*
X123904166Y-32829404D01*
X123856547Y-32924642D01*
X123808928Y-32972261D01*
X123713690Y-33019880D01*
X123427976Y-33019880D01*
X123332738Y-32972261D01*
X123285119Y-32924642D01*
G04 #@! TO.C,K_4*
X140668452Y-36829880D02*
X140668452Y-35829880D01*
X141239880Y-36829880D02*
X140811309Y-36258452D01*
X141239880Y-35829880D02*
X140668452Y-36401309D01*
X141430357Y-36925119D02*
X142192261Y-36925119D01*
X142858928Y-36163214D02*
X142858928Y-36829880D01*
X142620833Y-35782261D02*
X142382738Y-36496547D01*
X143001785Y-36496547D01*
G04 #@! TO.C,K_5*
X159718452Y-40639880D02*
X159718452Y-39639880D01*
X160289880Y-40639880D02*
X159861309Y-40068452D01*
X160289880Y-39639880D02*
X159718452Y-40211309D01*
X160480357Y-40735119D02*
X161242261Y-40735119D01*
X161956547Y-39639880D02*
X161480357Y-39639880D01*
X161432738Y-40116071D01*
X161480357Y-40068452D01*
X161575595Y-40020833D01*
X161813690Y-40020833D01*
X161908928Y-40068452D01*
X161956547Y-40116071D01*
X162004166Y-40211309D01*
X162004166Y-40449404D01*
X161956547Y-40544642D01*
X161908928Y-40592261D01*
X161813690Y-40639880D01*
X161575595Y-40639880D01*
X161480357Y-40592261D01*
X161432738Y-40544642D01*
G04 #@! TO.C,K_A1*
X83089880Y-78739880D02*
X83089880Y-77739880D01*
X83661309Y-78739880D02*
X83232738Y-78168452D01*
X83661309Y-77739880D02*
X83089880Y-78311309D01*
X83851785Y-78835119D02*
X84613690Y-78835119D01*
X84804166Y-78454166D02*
X85280357Y-78454166D01*
X84708928Y-78739880D02*
X85042261Y-77739880D01*
X85375595Y-78739880D01*
X86232738Y-78739880D02*
X85661309Y-78739880D01*
X85947023Y-78739880D02*
X85947023Y-77739880D01*
X85851785Y-77882738D01*
X85756547Y-77977976D01*
X85661309Y-78025595D01*
G04 #@! TO.C,K_ALT1*
X82304166Y-116839880D02*
X82304166Y-115839880D01*
X82875595Y-116839880D02*
X82447023Y-116268452D01*
X82875595Y-115839880D02*
X82304166Y-116411309D01*
X83066071Y-116935119D02*
X83827976Y-116935119D01*
X84018452Y-116554166D02*
X84494642Y-116554166D01*
X83923214Y-116839880D02*
X84256547Y-115839880D01*
X84589880Y-116839880D01*
X85399404Y-116839880D02*
X84923214Y-116839880D01*
X84923214Y-115839880D01*
X85589880Y-115839880D02*
X86161309Y-115839880D01*
X85875595Y-116839880D02*
X85875595Y-115839880D01*
X87018452Y-116839880D02*
X86447023Y-116839880D01*
X86732738Y-116839880D02*
X86732738Y-115839880D01*
X86637500Y-115982738D01*
X86542261Y-116077976D01*
X86447023Y-116125595D01*
G04 #@! TO.C,K_B1*
X159218452Y-97789880D02*
X159218452Y-96789880D01*
X159789880Y-97789880D02*
X159361309Y-97218452D01*
X159789880Y-96789880D02*
X159218452Y-97361309D01*
X159980357Y-97885119D02*
X160742261Y-97885119D01*
X161313690Y-97266071D02*
X161456547Y-97313690D01*
X161504166Y-97361309D01*
X161551785Y-97456547D01*
X161551785Y-97599404D01*
X161504166Y-97694642D01*
X161456547Y-97742261D01*
X161361309Y-97789880D01*
X160980357Y-97789880D01*
X160980357Y-96789880D01*
X161313690Y-96789880D01*
X161408928Y-96837500D01*
X161456547Y-96885119D01*
X161504166Y-96980357D01*
X161504166Y-97075595D01*
X161456547Y-97170833D01*
X161408928Y-97218452D01*
X161313690Y-97266071D01*
X160980357Y-97266071D01*
X162504166Y-97789880D02*
X161932738Y-97789880D01*
X162218452Y-97789880D02*
X162218452Y-96789880D01*
X162123214Y-96932738D01*
X162027976Y-97027976D01*
X161932738Y-97075595D01*
G04 #@! TO.C,K_BOT_1U_1*
X118388285Y-109156380D02*
X118388285Y-108156380D01*
X118959714Y-109156380D02*
X118531142Y-108584952D01*
X118959714Y-108156380D02*
X118388285Y-108727809D01*
X119150190Y-109251619D02*
X119912095Y-109251619D01*
X120483523Y-108632571D02*
X120626380Y-108680190D01*
X120674000Y-108727809D01*
X120721619Y-108823047D01*
X120721619Y-108965904D01*
X120674000Y-109061142D01*
X120626380Y-109108761D01*
X120531142Y-109156380D01*
X120150190Y-109156380D01*
X120150190Y-108156380D01*
X120483523Y-108156380D01*
X120578761Y-108204000D01*
X120626380Y-108251619D01*
X120674000Y-108346857D01*
X120674000Y-108442095D01*
X120626380Y-108537333D01*
X120578761Y-108584952D01*
X120483523Y-108632571D01*
X120150190Y-108632571D01*
X121340666Y-108156380D02*
X121531142Y-108156380D01*
X121626380Y-108204000D01*
X121721619Y-108299238D01*
X121769238Y-108489714D01*
X121769238Y-108823047D01*
X121721619Y-109013523D01*
X121626380Y-109108761D01*
X121531142Y-109156380D01*
X121340666Y-109156380D01*
X121245428Y-109108761D01*
X121150190Y-109013523D01*
X121102571Y-108823047D01*
X121102571Y-108489714D01*
X121150190Y-108299238D01*
X121245428Y-108204000D01*
X121340666Y-108156380D01*
X122054952Y-108156380D02*
X122626380Y-108156380D01*
X122340666Y-109156380D02*
X122340666Y-108156380D01*
X122721619Y-109251619D02*
X123483523Y-109251619D01*
X124245428Y-109156380D02*
X123674000Y-109156380D01*
X123959714Y-109156380D02*
X123959714Y-108156380D01*
X123864476Y-108299238D01*
X123769238Y-108394476D01*
X123674000Y-108442095D01*
X124674000Y-108156380D02*
X124674000Y-108965904D01*
X124721619Y-109061142D01*
X124769238Y-109108761D01*
X124864476Y-109156380D01*
X125054952Y-109156380D01*
X125150190Y-109108761D01*
X125197809Y-109061142D01*
X125245428Y-108965904D01*
X125245428Y-108156380D01*
X125483523Y-109251619D02*
X126245428Y-109251619D01*
X127007333Y-109156380D02*
X126435904Y-109156380D01*
X126721619Y-109156380D02*
X126721619Y-108156380D01*
X126626380Y-108299238D01*
X126531142Y-108394476D01*
X126435904Y-108442095D01*
G04 #@! TO.C,K_BOT_1U_2*
X137438285Y-112966380D02*
X137438285Y-111966380D01*
X138009714Y-112966380D02*
X137581142Y-112394952D01*
X138009714Y-111966380D02*
X137438285Y-112537809D01*
X138200190Y-113061619D02*
X138962095Y-113061619D01*
X139533523Y-112442571D02*
X139676380Y-112490190D01*
X139724000Y-112537809D01*
X139771619Y-112633047D01*
X139771619Y-112775904D01*
X139724000Y-112871142D01*
X139676380Y-112918761D01*
X139581142Y-112966380D01*
X139200190Y-112966380D01*
X139200190Y-111966380D01*
X139533523Y-111966380D01*
X139628761Y-112014000D01*
X139676380Y-112061619D01*
X139724000Y-112156857D01*
X139724000Y-112252095D01*
X139676380Y-112347333D01*
X139628761Y-112394952D01*
X139533523Y-112442571D01*
X139200190Y-112442571D01*
X140390666Y-111966380D02*
X140581142Y-111966380D01*
X140676380Y-112014000D01*
X140771619Y-112109238D01*
X140819238Y-112299714D01*
X140819238Y-112633047D01*
X140771619Y-112823523D01*
X140676380Y-112918761D01*
X140581142Y-112966380D01*
X140390666Y-112966380D01*
X140295428Y-112918761D01*
X140200190Y-112823523D01*
X140152571Y-112633047D01*
X140152571Y-112299714D01*
X140200190Y-112109238D01*
X140295428Y-112014000D01*
X140390666Y-111966380D01*
X141104952Y-111966380D02*
X141676380Y-111966380D01*
X141390666Y-112966380D02*
X141390666Y-111966380D01*
X141771619Y-113061619D02*
X142533523Y-113061619D01*
X143295428Y-112966380D02*
X142724000Y-112966380D01*
X143009714Y-112966380D02*
X143009714Y-111966380D01*
X142914476Y-112109238D01*
X142819238Y-112204476D01*
X142724000Y-112252095D01*
X143724000Y-111966380D02*
X143724000Y-112775904D01*
X143771619Y-112871142D01*
X143819238Y-112918761D01*
X143914476Y-112966380D01*
X144104952Y-112966380D01*
X144200190Y-112918761D01*
X144247809Y-112871142D01*
X144295428Y-112775904D01*
X144295428Y-111966380D01*
X144533523Y-113061619D02*
X145295428Y-113061619D01*
X145485904Y-112061619D02*
X145533523Y-112014000D01*
X145628761Y-111966380D01*
X145866857Y-111966380D01*
X145962095Y-112014000D01*
X146009714Y-112061619D01*
X146057333Y-112156857D01*
X146057333Y-112252095D01*
X146009714Y-112394952D01*
X145438285Y-112966380D01*
X146057333Y-112966380D01*
G04 #@! TO.C,K_C1*
X121118452Y-90169880D02*
X121118452Y-89169880D01*
X121689880Y-90169880D02*
X121261309Y-89598452D01*
X121689880Y-89169880D02*
X121118452Y-89741309D01*
X121880357Y-90265119D02*
X122642261Y-90265119D01*
X123451785Y-90074642D02*
X123404166Y-90122261D01*
X123261309Y-90169880D01*
X123166071Y-90169880D01*
X123023214Y-90122261D01*
X122927976Y-90027023D01*
X122880357Y-89931785D01*
X122832738Y-89741309D01*
X122832738Y-89598452D01*
X122880357Y-89407976D01*
X122927976Y-89312738D01*
X123023214Y-89217500D01*
X123166071Y-89169880D01*
X123261309Y-89169880D01*
X123404166Y-89217500D01*
X123451785Y-89265119D01*
X124404166Y-90169880D02*
X123832738Y-90169880D01*
X124118452Y-90169880D02*
X124118452Y-89169880D01*
X124023214Y-89312738D01*
X123927976Y-89407976D01*
X123832738Y-89455595D01*
G04 #@! TO.C,K_CAPS1*
X55419940Y-78739880D02*
X55419940Y-77739880D01*
X55991369Y-78739880D02*
X55562797Y-78168452D01*
X55991369Y-77739880D02*
X55419940Y-78311309D01*
X56181845Y-78835119D02*
X56943750Y-78835119D01*
X57753273Y-78644642D02*
X57705654Y-78692261D01*
X57562797Y-78739880D01*
X57467559Y-78739880D01*
X57324702Y-78692261D01*
X57229464Y-78597023D01*
X57181845Y-78501785D01*
X57134226Y-78311309D01*
X57134226Y-78168452D01*
X57181845Y-77977976D01*
X57229464Y-77882738D01*
X57324702Y-77787500D01*
X57467559Y-77739880D01*
X57562797Y-77739880D01*
X57705654Y-77787500D01*
X57753273Y-77835119D01*
X58134226Y-78454166D02*
X58610416Y-78454166D01*
X58038988Y-78739880D02*
X58372321Y-77739880D01*
X58705654Y-78739880D01*
X59038988Y-78739880D02*
X59038988Y-77739880D01*
X59419940Y-77739880D01*
X59515178Y-77787500D01*
X59562797Y-77835119D01*
X59610416Y-77930357D01*
X59610416Y-78073214D01*
X59562797Y-78168452D01*
X59515178Y-78216071D01*
X59419940Y-78263690D01*
X59038988Y-78263690D01*
X59991369Y-78692261D02*
X60134226Y-78739880D01*
X60372321Y-78739880D01*
X60467559Y-78692261D01*
X60515178Y-78644642D01*
X60562797Y-78549404D01*
X60562797Y-78454166D01*
X60515178Y-78358928D01*
X60467559Y-78311309D01*
X60372321Y-78263690D01*
X60181845Y-78216071D01*
X60086607Y-78168452D01*
X60038988Y-78120833D01*
X59991369Y-78025595D01*
X59991369Y-77930357D01*
X60038988Y-77835119D01*
X60086607Y-77787500D01*
X60181845Y-77739880D01*
X60419940Y-77739880D01*
X60562797Y-77787500D01*
X61515178Y-78739880D02*
X60943750Y-78739880D01*
X61229464Y-78739880D02*
X61229464Y-77739880D01*
X61134226Y-77882738D01*
X61038988Y-77977976D01*
X60943750Y-78025595D01*
G04 #@! TO.C,K_CTRL1*
X62682738Y-116839880D02*
X62682738Y-115839880D01*
X63254166Y-116839880D02*
X62825595Y-116268452D01*
X63254166Y-115839880D02*
X62682738Y-116411309D01*
X63444642Y-116935119D02*
X64206547Y-116935119D01*
X65016071Y-116744642D02*
X64968452Y-116792261D01*
X64825595Y-116839880D01*
X64730357Y-116839880D01*
X64587500Y-116792261D01*
X64492261Y-116697023D01*
X64444642Y-116601785D01*
X64397023Y-116411309D01*
X64397023Y-116268452D01*
X64444642Y-116077976D01*
X64492261Y-115982738D01*
X64587500Y-115887500D01*
X64730357Y-115839880D01*
X64825595Y-115839880D01*
X64968452Y-115887500D01*
X65016071Y-115935119D01*
X65301785Y-115839880D02*
X65873214Y-115839880D01*
X65587500Y-116839880D02*
X65587500Y-115839880D01*
X66777976Y-116839880D02*
X66444642Y-116363690D01*
X66206547Y-116839880D02*
X66206547Y-115839880D01*
X66587500Y-115839880D01*
X66682738Y-115887500D01*
X66730357Y-115935119D01*
X66777976Y-116030357D01*
X66777976Y-116173214D01*
X66730357Y-116268452D01*
X66682738Y-116316071D01*
X66587500Y-116363690D01*
X66206547Y-116363690D01*
X67682738Y-116839880D02*
X67206547Y-116839880D01*
X67206547Y-115839880D01*
X68539880Y-116839880D02*
X67968452Y-116839880D01*
X68254166Y-116839880D02*
X68254166Y-115839880D01*
X68158928Y-115982738D01*
X68063690Y-116077976D01*
X67968452Y-116125595D01*
G04 #@! TO.C,K_D1*
X121118452Y-71119880D02*
X121118452Y-70119880D01*
X121689880Y-71119880D02*
X121261309Y-70548452D01*
X121689880Y-70119880D02*
X121118452Y-70691309D01*
X121880357Y-71215119D02*
X122642261Y-71215119D01*
X122880357Y-71119880D02*
X122880357Y-70119880D01*
X123118452Y-70119880D01*
X123261309Y-70167500D01*
X123356547Y-70262738D01*
X123404166Y-70357976D01*
X123451785Y-70548452D01*
X123451785Y-70691309D01*
X123404166Y-70881785D01*
X123356547Y-70977023D01*
X123261309Y-71072261D01*
X123118452Y-71119880D01*
X122880357Y-71119880D01*
X124404166Y-71119880D02*
X123832738Y-71119880D01*
X124118452Y-71119880D02*
X124118452Y-70119880D01*
X124023214Y-70262738D01*
X123927976Y-70357976D01*
X123832738Y-70405595D01*
G04 #@! TO.C,K_E1*
X121166071Y-52069880D02*
X121166071Y-51069880D01*
X121737500Y-52069880D02*
X121308928Y-51498452D01*
X121737500Y-51069880D02*
X121166071Y-51641309D01*
X121927976Y-52165119D02*
X122689880Y-52165119D01*
X122927976Y-51546071D02*
X123261309Y-51546071D01*
X123404166Y-52069880D02*
X122927976Y-52069880D01*
X122927976Y-51069880D01*
X123404166Y-51069880D01*
X124356547Y-52069880D02*
X123785119Y-52069880D01*
X124070833Y-52069880D02*
X124070833Y-51069880D01*
X123975595Y-51212738D01*
X123880357Y-51307976D01*
X123785119Y-51355595D01*
G04 #@! TO.C,K_ESC1*
X63039880Y-40639880D02*
X63039880Y-39639880D01*
X63611309Y-40639880D02*
X63182738Y-40068452D01*
X63611309Y-39639880D02*
X63039880Y-40211309D01*
X63801785Y-40735119D02*
X64563690Y-40735119D01*
X64801785Y-40116071D02*
X65135119Y-40116071D01*
X65277976Y-40639880D02*
X64801785Y-40639880D01*
X64801785Y-39639880D01*
X65277976Y-39639880D01*
X65658928Y-40592261D02*
X65801785Y-40639880D01*
X66039880Y-40639880D01*
X66135119Y-40592261D01*
X66182738Y-40544642D01*
X66230357Y-40449404D01*
X66230357Y-40354166D01*
X66182738Y-40258928D01*
X66135119Y-40211309D01*
X66039880Y-40163690D01*
X65849404Y-40116071D01*
X65754166Y-40068452D01*
X65706547Y-40020833D01*
X65658928Y-39925595D01*
X65658928Y-39830357D01*
X65706547Y-39735119D01*
X65754166Y-39687500D01*
X65849404Y-39639880D01*
X66087500Y-39639880D01*
X66230357Y-39687500D01*
X67230357Y-40544642D02*
X67182738Y-40592261D01*
X67039880Y-40639880D01*
X66944642Y-40639880D01*
X66801785Y-40592261D01*
X66706547Y-40497023D01*
X66658928Y-40401785D01*
X66611309Y-40211309D01*
X66611309Y-40068452D01*
X66658928Y-39877976D01*
X66706547Y-39782738D01*
X66801785Y-39687500D01*
X66944642Y-39639880D01*
X67039880Y-39639880D01*
X67182738Y-39687500D01*
X67230357Y-39735119D01*
X68182738Y-40639880D02*
X67611309Y-40639880D01*
X67897023Y-40639880D02*
X67897023Y-39639880D01*
X67801785Y-39782738D01*
X67706547Y-39877976D01*
X67611309Y-39925595D01*
G04 #@! TO.C,K_F1*
X140239880Y-74929880D02*
X140239880Y-73929880D01*
X140811309Y-74929880D02*
X140382738Y-74358452D01*
X140811309Y-73929880D02*
X140239880Y-74501309D01*
X141001785Y-75025119D02*
X141763690Y-75025119D01*
X142335119Y-74406071D02*
X142001785Y-74406071D01*
X142001785Y-74929880D02*
X142001785Y-73929880D01*
X142477976Y-73929880D01*
X143382738Y-74929880D02*
X142811309Y-74929880D01*
X143097023Y-74929880D02*
X143097023Y-73929880D01*
X143001785Y-74072738D01*
X142906547Y-74167976D01*
X142811309Y-74215595D01*
G04 #@! TO.C,K_G1*
X159218452Y-78739880D02*
X159218452Y-77739880D01*
X159789880Y-78739880D02*
X159361309Y-78168452D01*
X159789880Y-77739880D02*
X159218452Y-78311309D01*
X159980357Y-78835119D02*
X160742261Y-78835119D01*
X161504166Y-77787500D02*
X161408928Y-77739880D01*
X161266071Y-77739880D01*
X161123214Y-77787500D01*
X161027976Y-77882738D01*
X160980357Y-77977976D01*
X160932738Y-78168452D01*
X160932738Y-78311309D01*
X160980357Y-78501785D01*
X161027976Y-78597023D01*
X161123214Y-78692261D01*
X161266071Y-78739880D01*
X161361309Y-78739880D01*
X161504166Y-78692261D01*
X161551785Y-78644642D01*
X161551785Y-78311309D01*
X161361309Y-78311309D01*
X162504166Y-78739880D02*
X161932738Y-78739880D01*
X162218452Y-78739880D02*
X162218452Y-77739880D01*
X162123214Y-77882738D01*
X162027976Y-77977976D01*
X161932738Y-78025595D01*
G04 #@! TO.C,K_Q1*
X82994642Y-59689880D02*
X82994642Y-58689880D01*
X83566071Y-59689880D02*
X83137500Y-59118452D01*
X83566071Y-58689880D02*
X82994642Y-59261309D01*
X83756547Y-59785119D02*
X84518452Y-59785119D01*
X85423214Y-59785119D02*
X85327976Y-59737500D01*
X85232738Y-59642261D01*
X85089880Y-59499404D01*
X84994642Y-59451785D01*
X84899404Y-59451785D01*
X84947023Y-59689880D02*
X84851785Y-59642261D01*
X84756547Y-59547023D01*
X84708928Y-59356547D01*
X84708928Y-59023214D01*
X84756547Y-58832738D01*
X84851785Y-58737500D01*
X84947023Y-58689880D01*
X85137500Y-58689880D01*
X85232738Y-58737500D01*
X85327976Y-58832738D01*
X85375595Y-59023214D01*
X85375595Y-59356547D01*
X85327976Y-59547023D01*
X85232738Y-59642261D01*
X85137500Y-59689880D01*
X84947023Y-59689880D01*
X86327976Y-59689880D02*
X85756547Y-59689880D01*
X86042261Y-59689880D02*
X86042261Y-58689880D01*
X85947023Y-58832738D01*
X85851785Y-58927976D01*
X85756547Y-58975595D01*
G04 #@! TO.C,K_R1*
X140168452Y-55879880D02*
X140168452Y-54879880D01*
X140739880Y-55879880D02*
X140311309Y-55308452D01*
X140739880Y-54879880D02*
X140168452Y-55451309D01*
X140930357Y-55975119D02*
X141692261Y-55975119D01*
X142501785Y-55879880D02*
X142168452Y-55403690D01*
X141930357Y-55879880D02*
X141930357Y-54879880D01*
X142311309Y-54879880D01*
X142406547Y-54927500D01*
X142454166Y-54975119D01*
X142501785Y-55070357D01*
X142501785Y-55213214D01*
X142454166Y-55308452D01*
X142406547Y-55356071D01*
X142311309Y-55403690D01*
X141930357Y-55403690D01*
X143454166Y-55879880D02*
X142882738Y-55879880D01*
X143168452Y-55879880D02*
X143168452Y-54879880D01*
X143073214Y-55022738D01*
X142977976Y-55117976D01*
X142882738Y-55165595D01*
G04 #@! TO.C,K_S1*
X102092261Y-74929880D02*
X102092261Y-73929880D01*
X102663690Y-74929880D02*
X102235119Y-74358452D01*
X102663690Y-73929880D02*
X102092261Y-74501309D01*
X102854166Y-75025119D02*
X103616071Y-75025119D01*
X103806547Y-74882261D02*
X103949404Y-74929880D01*
X104187500Y-74929880D01*
X104282738Y-74882261D01*
X104330357Y-74834642D01*
X104377976Y-74739404D01*
X104377976Y-74644166D01*
X104330357Y-74548928D01*
X104282738Y-74501309D01*
X104187500Y-74453690D01*
X103997023Y-74406071D01*
X103901785Y-74358452D01*
X103854166Y-74310833D01*
X103806547Y-74215595D01*
X103806547Y-74120357D01*
X103854166Y-74025119D01*
X103901785Y-73977500D01*
X103997023Y-73929880D01*
X104235119Y-73929880D01*
X104377976Y-73977500D01*
X105330357Y-74929880D02*
X104758928Y-74929880D01*
X105044642Y-74929880D02*
X105044642Y-73929880D01*
X104949404Y-74072738D01*
X104854166Y-74167976D01*
X104758928Y-74215595D01*
G04 #@! TO.C,K_T1*
X159337500Y-59689880D02*
X159337500Y-58689880D01*
X159908928Y-59689880D02*
X159480357Y-59118452D01*
X159908928Y-58689880D02*
X159337500Y-59261309D01*
X160099404Y-59785119D02*
X160861309Y-59785119D01*
X160956547Y-58689880D02*
X161527976Y-58689880D01*
X161242261Y-59689880D02*
X161242261Y-58689880D01*
X162385119Y-59689880D02*
X161813690Y-59689880D01*
X162099404Y-59689880D02*
X162099404Y-58689880D01*
X162004166Y-58832738D01*
X161908928Y-58927976D01*
X161813690Y-58975595D01*
G04 #@! TO.C,K_TAB1*
X57396428Y-59689880D02*
X57396428Y-58689880D01*
X57967857Y-59689880D02*
X57539285Y-59118452D01*
X57967857Y-58689880D02*
X57396428Y-59261309D01*
X58158333Y-59785119D02*
X58920238Y-59785119D01*
X59015476Y-58689880D02*
X59586904Y-58689880D01*
X59301190Y-59689880D02*
X59301190Y-58689880D01*
X59872619Y-59404166D02*
X60348809Y-59404166D01*
X59777380Y-59689880D02*
X60110714Y-58689880D01*
X60444047Y-59689880D01*
X61110714Y-59166071D02*
X61253571Y-59213690D01*
X61301190Y-59261309D01*
X61348809Y-59356547D01*
X61348809Y-59499404D01*
X61301190Y-59594642D01*
X61253571Y-59642261D01*
X61158333Y-59689880D01*
X60777380Y-59689880D01*
X60777380Y-58689880D01*
X61110714Y-58689880D01*
X61205952Y-58737500D01*
X61253571Y-58785119D01*
X61301190Y-58880357D01*
X61301190Y-58975595D01*
X61253571Y-59070833D01*
X61205952Y-59118452D01*
X61110714Y-59166071D01*
X60777380Y-59166071D01*
X62301190Y-59689880D02*
X61729761Y-59689880D01*
X62015476Y-59689880D02*
X62015476Y-58689880D01*
X61920238Y-58832738D01*
X61825000Y-58927976D01*
X61729761Y-58975595D01*
G04 #@! TO.C,K_TH_1U_1*
X188419054Y-127217262D02*
X188841672Y-126310954D01*
X188936944Y-127458758D02*
X188790022Y-126759746D01*
X189359562Y-126552450D02*
X188600176Y-126828844D01*
X189069325Y-127625572D02*
X189759845Y-127947567D01*
X190309027Y-126995193D02*
X190826918Y-127236689D01*
X190145354Y-128022249D02*
X190567973Y-127115941D01*
X190706402Y-128283870D02*
X191129020Y-127377562D01*
X190927773Y-127809137D02*
X191445664Y-128050633D01*
X191224292Y-128525366D02*
X191646910Y-127619058D01*
X191399830Y-128712304D02*
X192090351Y-129034299D01*
X192821120Y-129269979D02*
X192303230Y-129028483D01*
X192562175Y-129149231D02*
X192984793Y-128242923D01*
X192838104Y-128332146D01*
X192711540Y-128378212D01*
X192605100Y-128381120D01*
X193632156Y-128544793D02*
X193290036Y-129278471D01*
X193292945Y-129384911D01*
X193315977Y-129448193D01*
X193382168Y-129531600D01*
X193554798Y-129612099D01*
X193661238Y-129609191D01*
X193724520Y-129586158D01*
X193807927Y-129519967D01*
X194150046Y-128786290D01*
X193902966Y-129879536D02*
X194593486Y-130201531D01*
X195324256Y-130437211D02*
X194806366Y-130195714D01*
X195065311Y-130316462D02*
X195487929Y-129410155D01*
X195341240Y-129499378D01*
X195214676Y-129545444D01*
X195108236Y-129548352D01*
G04 #@! TO.C,K_TH_1U_2*
X180368175Y-144482425D02*
X180790793Y-143576117D01*
X180886065Y-144723921D02*
X180739143Y-144024909D01*
X181308683Y-143817613D02*
X180549297Y-144094007D01*
X181018446Y-144890735D02*
X181708966Y-145212730D01*
X182258148Y-144260356D02*
X182776039Y-144501852D01*
X182094475Y-145287412D02*
X182517094Y-144381104D01*
X182655523Y-145549033D02*
X183078141Y-144642725D01*
X182876894Y-145074300D02*
X183394785Y-145315796D01*
X183173413Y-145790529D02*
X183596031Y-144884221D01*
X183348951Y-145977467D02*
X184039472Y-146299462D01*
X184770241Y-146535142D02*
X184252351Y-146293646D01*
X184511296Y-146414394D02*
X184933914Y-145508086D01*
X184787225Y-145597309D01*
X184660661Y-145643375D01*
X184554221Y-145646283D01*
X185581277Y-145809956D02*
X185239157Y-146543634D01*
X185242066Y-146650074D01*
X185265098Y-146713356D01*
X185331289Y-146796763D01*
X185503919Y-146877262D01*
X185610359Y-146874354D01*
X185673641Y-146851321D01*
X185757048Y-146785130D01*
X186099167Y-146051453D01*
X185852087Y-147144699D02*
X186542607Y-147466694D01*
X187137856Y-146640885D02*
X187201138Y-146617852D01*
X187307578Y-146614944D01*
X187523365Y-146715567D01*
X187589555Y-146798974D01*
X187612588Y-146862256D01*
X187615496Y-146968696D01*
X187575247Y-147055011D01*
X187471716Y-147164359D01*
X186712329Y-147440753D01*
X187273377Y-147702374D01*
G04 #@! TO.C,K_V1*
X140239880Y-93979880D02*
X140239880Y-92979880D01*
X140811309Y-93979880D02*
X140382738Y-93408452D01*
X140811309Y-92979880D02*
X140239880Y-93551309D01*
X141001785Y-94075119D02*
X141763690Y-94075119D01*
X141858928Y-92979880D02*
X142192261Y-93979880D01*
X142525595Y-92979880D01*
X143382738Y-93979880D02*
X142811309Y-93979880D01*
X143097023Y-93979880D02*
X143097023Y-92979880D01*
X143001785Y-93122738D01*
X142906547Y-93217976D01*
X142811309Y-93265595D01*
G04 #@! TO.C,K_W1*
X101997023Y-55879880D02*
X101997023Y-54879880D01*
X102568452Y-55879880D02*
X102139880Y-55308452D01*
X102568452Y-54879880D02*
X101997023Y-55451309D01*
X102758928Y-55975119D02*
X103520833Y-55975119D01*
X103663690Y-54879880D02*
X103901785Y-55879880D01*
X104092261Y-55165595D01*
X104282738Y-55879880D01*
X104520833Y-54879880D01*
X105425595Y-55879880D02*
X104854166Y-55879880D01*
X105139880Y-55879880D02*
X105139880Y-54879880D01*
X105044642Y-55022738D01*
X104949404Y-55117976D01*
X104854166Y-55165595D01*
G04 #@! TO.C,K_WIN1*
X101235119Y-113029880D02*
X101235119Y-112029880D01*
X101806547Y-113029880D02*
X101377976Y-112458452D01*
X101806547Y-112029880D02*
X101235119Y-112601309D01*
X101997023Y-113125119D02*
X102758928Y-113125119D01*
X102901785Y-112029880D02*
X103139880Y-113029880D01*
X103330357Y-112315595D01*
X103520833Y-113029880D01*
X103758928Y-112029880D01*
X104139880Y-113029880D02*
X104139880Y-112029880D01*
X104616071Y-113029880D02*
X104616071Y-112029880D01*
X105187500Y-113029880D01*
X105187500Y-112029880D01*
X106187500Y-113029880D02*
X105616071Y-113029880D01*
X105901785Y-113029880D02*
X105901785Y-112029880D01*
X105806547Y-112172738D01*
X105711309Y-112267976D01*
X105616071Y-112315595D01*
G04 #@! TO.C,K_X1*
X102092261Y-93979880D02*
X102092261Y-92979880D01*
X102663690Y-93979880D02*
X102235119Y-93408452D01*
X102663690Y-92979880D02*
X102092261Y-93551309D01*
X102854166Y-94075119D02*
X103616071Y-94075119D01*
X103758928Y-92979880D02*
X104425595Y-93979880D01*
X104425595Y-92979880D02*
X103758928Y-93979880D01*
X105330357Y-93979880D02*
X104758928Y-93979880D01*
X105044642Y-93979880D02*
X105044642Y-92979880D01*
X104949404Y-93122738D01*
X104854166Y-93217976D01*
X104758928Y-93265595D01*
G04 #@! TO.C,K_Z1*
X83042261Y-97789880D02*
X83042261Y-96789880D01*
X83613690Y-97789880D02*
X83185119Y-97218452D01*
X83613690Y-96789880D02*
X83042261Y-97361309D01*
X83804166Y-97885119D02*
X84566071Y-97885119D01*
X84708928Y-96789880D02*
X85375595Y-96789880D01*
X84708928Y-97789880D01*
X85375595Y-97789880D01*
X86280357Y-97789880D02*
X85708928Y-97789880D01*
X85994642Y-97789880D02*
X85994642Y-96789880D01*
X85899404Y-96932738D01*
X85804166Y-97027976D01*
X85708928Y-97075595D01*
G04 #@! TD*
M02*
