G04 #@! TF.GenerationSoftware,KiCad,Pcbnew,(5.0.2)-1*
G04 #@! TF.CreationDate,2020-01-03T19:41:44+05:30*
G04 #@! TF.ProjectId,ergocape,6572676f-6361-4706-952e-6b696361645f,rev?*
G04 #@! TF.SameCoordinates,Original*
G04 #@! TF.FileFunction,Other,Comment*
%FSLAX46Y46*%
G04 Gerber Fmt 4.6, Leading zero omitted, Abs format (unit mm)*
G04 Created by KiCad (PCBNEW (5.0.2)-1) date 1/3/2020 7:41:44 PM*
%MOMM*%
%LPD*%
G01*
G04 APERTURE LIST*
%ADD10C,0.150000*%
G04 APERTURE END LIST*
G04 #@! TO.C,K_SHIFT1*
D10*
X49914598Y-100464880D02*
X50039598Y-99464880D01*
X50486026Y-100464880D02*
X50128883Y-99893452D01*
X50611026Y-99464880D02*
X49968169Y-100036309D01*
X50664598Y-100560119D02*
X51426502Y-100560119D01*
X51634836Y-100417261D02*
X51771741Y-100464880D01*
X52009836Y-100464880D01*
X52111026Y-100417261D01*
X52164598Y-100369642D01*
X52224122Y-100274404D01*
X52236026Y-100179166D01*
X52200312Y-100083928D01*
X52158645Y-100036309D01*
X52069360Y-99988690D01*
X51884836Y-99941071D01*
X51795550Y-99893452D01*
X51753883Y-99845833D01*
X51718169Y-99750595D01*
X51730074Y-99655357D01*
X51789598Y-99560119D01*
X51843169Y-99512500D01*
X51944360Y-99464880D01*
X52182455Y-99464880D01*
X52319360Y-99512500D01*
X52628883Y-100464880D02*
X52753883Y-99464880D01*
X52694360Y-99941071D02*
X53265788Y-99941071D01*
X53200312Y-100464880D02*
X53325312Y-99464880D01*
X53676502Y-100464880D02*
X53801502Y-99464880D01*
X54551502Y-99941071D02*
X54218169Y-99941071D01*
X54152693Y-100464880D02*
X54277693Y-99464880D01*
X54753883Y-99464880D01*
X54991979Y-99464880D02*
X55563407Y-99464880D01*
X55152693Y-100464880D02*
X55277693Y-99464880D01*
X56295550Y-100464880D02*
X55724122Y-100464880D01*
X56009836Y-100464880D02*
X56134836Y-99464880D01*
X56021741Y-99607738D01*
X55914598Y-99702976D01*
X55813407Y-99750595D01*
X50990773Y-102242880D02*
X50990773Y-101242880D01*
X51562202Y-102242880D02*
X51133630Y-101671452D01*
X51562202Y-101242880D02*
X50990773Y-101814309D01*
X51990773Y-101719071D02*
X52324107Y-101719071D01*
X52466964Y-102242880D02*
X51990773Y-102242880D01*
X51990773Y-101242880D01*
X52466964Y-101242880D01*
X53086011Y-101766690D02*
X53086011Y-102242880D01*
X52752678Y-101242880D02*
X53086011Y-101766690D01*
X53419345Y-101242880D01*
X53705059Y-102195261D02*
X53847916Y-102242880D01*
X54086011Y-102242880D01*
X54181250Y-102195261D01*
X54228869Y-102147642D01*
X54276488Y-102052404D01*
X54276488Y-101957166D01*
X54228869Y-101861928D01*
X54181250Y-101814309D01*
X54086011Y-101766690D01*
X53895535Y-101719071D01*
X53800297Y-101671452D01*
X53752678Y-101623833D01*
X53705059Y-101528595D01*
X53705059Y-101433357D01*
X53752678Y-101338119D01*
X53800297Y-101290500D01*
X53895535Y-101242880D01*
X54133630Y-101242880D01*
X54276488Y-101290500D01*
X54609821Y-101242880D02*
X54847916Y-102242880D01*
X55038392Y-101528595D01*
X55228869Y-102242880D01*
X55466964Y-101242880D01*
G04 #@! TO.C,K_THUMB_2U1*
X165885935Y-131795947D02*
X165032455Y-131260040D01*
X166127431Y-131278057D02*
X165458606Y-131360242D01*
X165273951Y-130742150D02*
X165520158Y-131566273D01*
X166289214Y-131156466D02*
X166611209Y-130465945D01*
X165716694Y-129792685D02*
X165958190Y-129274795D01*
X166690922Y-130069647D02*
X165837442Y-129533740D01*
X166952543Y-129508599D02*
X166099063Y-128972692D01*
X166505482Y-129227886D02*
X166746978Y-128709996D01*
X167194039Y-128990709D02*
X166340559Y-128454802D01*
X166541805Y-128023227D02*
X167232718Y-128457056D01*
X167334127Y-128464937D01*
X167394893Y-128447299D01*
X167475785Y-128386504D01*
X167556283Y-128213874D01*
X167555891Y-128102039D01*
X167535374Y-128033362D01*
X167474214Y-127939166D01*
X166783302Y-127505337D01*
X167838029Y-127609668D02*
X166984548Y-127073762D01*
X167735050Y-127154450D01*
X167266294Y-126469556D01*
X168119774Y-127005463D01*
X168014833Y-125991072D02*
X168115849Y-125887119D01*
X168176615Y-125869481D01*
X168278024Y-125877362D01*
X168399950Y-125953920D01*
X168461109Y-126048117D01*
X168481626Y-126116794D01*
X168482019Y-126228628D01*
X168321021Y-126573888D01*
X167467541Y-126037981D01*
X167608413Y-125735879D01*
X167689305Y-125675083D01*
X167750071Y-125657445D01*
X167851480Y-125665326D01*
X167932764Y-125716365D01*
X167993923Y-125810561D01*
X168014440Y-125879238D01*
X168014833Y-125991072D01*
X167873960Y-126293175D01*
X168724300Y-125934407D02*
X169046295Y-125243886D01*
X168273313Y-124535350D02*
X168252796Y-124466673D01*
X168252403Y-124354838D01*
X168353027Y-124139051D01*
X168433918Y-124078255D01*
X168494684Y-124060617D01*
X168596093Y-124068498D01*
X168677377Y-124119537D01*
X168779178Y-124239252D01*
X169025385Y-125063375D01*
X169287006Y-124502327D01*
X168614647Y-123578003D02*
X169305560Y-124011832D01*
X169406969Y-124019713D01*
X169467735Y-124002075D01*
X169548627Y-123941280D01*
X169629125Y-123768650D01*
X169628733Y-123656815D01*
X169608216Y-123588138D01*
X169547056Y-123493942D01*
X168856144Y-123060113D01*
X170132242Y-122689712D02*
X169890746Y-123207602D01*
X170011494Y-122948657D02*
X169158014Y-122412750D01*
X169239690Y-122575623D01*
X169280725Y-122712977D01*
X169281117Y-122824811D01*
X165504132Y-128407622D02*
X164597824Y-127985003D01*
X165745628Y-127889731D02*
X165046616Y-128036653D01*
X164839320Y-127467113D02*
X165115714Y-128226499D01*
X165452017Y-127279942D02*
X165592890Y-126977840D01*
X166127997Y-127069739D02*
X165926750Y-127501314D01*
X165020442Y-127078696D01*
X165221689Y-126647120D01*
X165958042Y-126307444D02*
X166389618Y-126508691D01*
X165342437Y-126388175D02*
X165958042Y-126307444D01*
X165624182Y-125783970D01*
X166608081Y-125927519D02*
X166711612Y-125818171D01*
X166812236Y-125602383D01*
X166809328Y-125495943D01*
X166786295Y-125432661D01*
X166720104Y-125349254D01*
X166633789Y-125309005D01*
X166527350Y-125311913D01*
X166464068Y-125334946D01*
X166380661Y-125401136D01*
X166257004Y-125553642D01*
X166173598Y-125619832D01*
X166110315Y-125642865D01*
X166003876Y-125645773D01*
X165917561Y-125605524D01*
X165851370Y-125522117D01*
X165828337Y-125458835D01*
X165825429Y-125352395D01*
X165926053Y-125136607D01*
X166029584Y-125027260D01*
X166127299Y-124705032D02*
X167134231Y-124911863D01*
X166567367Y-124437363D01*
X167295228Y-124566603D01*
X166489544Y-123928197D01*
G04 #@! TD*
M02*
