G04 #@! TF.GenerationSoftware,KiCad,Pcbnew,(5.1.5)-3*
G04 #@! TF.CreationDate,2020-03-03T19:55:16+05:30*
G04 #@! TF.ProjectId,ergocape,6572676f-6361-4706-952e-6b696361645f,rev?*
G04 #@! TF.SameCoordinates,Original*
G04 #@! TF.FileFunction,Legend,Top*
G04 #@! TF.FilePolarity,Positive*
%FSLAX46Y46*%
G04 Gerber Fmt 4.6, Leading zero omitted, Abs format (unit mm)*
G04 Created by KiCad (PCBNEW (5.1.5)-3) date 2020-03-03 19:55:16*
%MOMM*%
%LPD*%
G04 APERTURE LIST*
%ADD10C,0.150000*%
%ADD11C,0.127000*%
%ADD12C,0.010000*%
%ADD13C,0.381000*%
%ADD14C,0.101600*%
%ADD15C,0.203200*%
%ADD16C,0.200000*%
G04 APERTURE END LIST*
D10*
X45086238Y-26439761D02*
X44991000Y-26487380D01*
X44800523Y-26487380D01*
X44705285Y-26439761D01*
X44657666Y-26392142D01*
X44610047Y-26296904D01*
X44610047Y-26011190D01*
X44657666Y-25915952D01*
X44705285Y-25868333D01*
X44800523Y-25820714D01*
X44991000Y-25820714D01*
X45086238Y-25868333D01*
X45514809Y-26487380D02*
X45514809Y-25820714D01*
X45514809Y-26011190D02*
X45562428Y-25915952D01*
X45610047Y-25868333D01*
X45705285Y-25820714D01*
X45800523Y-25820714D01*
X46514809Y-26439761D02*
X46419571Y-26487380D01*
X46229095Y-26487380D01*
X46133857Y-26439761D01*
X46086238Y-26344523D01*
X46086238Y-25963571D01*
X46133857Y-25868333D01*
X46229095Y-25820714D01*
X46419571Y-25820714D01*
X46514809Y-25868333D01*
X46562428Y-25963571D01*
X46562428Y-26058809D01*
X46086238Y-26154047D01*
X47419571Y-26487380D02*
X47419571Y-25963571D01*
X47371952Y-25868333D01*
X47276714Y-25820714D01*
X47086238Y-25820714D01*
X46991000Y-25868333D01*
X47419571Y-26439761D02*
X47324333Y-26487380D01*
X47086238Y-26487380D01*
X46991000Y-26439761D01*
X46943380Y-26344523D01*
X46943380Y-26249285D01*
X46991000Y-26154047D01*
X47086238Y-26106428D01*
X47324333Y-26106428D01*
X47419571Y-26058809D01*
X47752904Y-25820714D02*
X48133857Y-25820714D01*
X47895761Y-25487380D02*
X47895761Y-26344523D01*
X47943380Y-26439761D01*
X48038619Y-26487380D01*
X48133857Y-26487380D01*
X48848142Y-26439761D02*
X48752904Y-26487380D01*
X48562428Y-26487380D01*
X48467190Y-26439761D01*
X48419571Y-26344523D01*
X48419571Y-25963571D01*
X48467190Y-25868333D01*
X48562428Y-25820714D01*
X48752904Y-25820714D01*
X48848142Y-25868333D01*
X48895761Y-25963571D01*
X48895761Y-26058809D01*
X48419571Y-26154047D01*
X49752904Y-26487380D02*
X49752904Y-25487380D01*
X49752904Y-26439761D02*
X49657666Y-26487380D01*
X49467190Y-26487380D01*
X49371952Y-26439761D01*
X49324333Y-26392142D01*
X49276714Y-26296904D01*
X49276714Y-26011190D01*
X49324333Y-25915952D01*
X49371952Y-25868333D01*
X49467190Y-25820714D01*
X49657666Y-25820714D01*
X49752904Y-25868333D01*
X50991000Y-26487380D02*
X50991000Y-25487380D01*
X50991000Y-25868333D02*
X51086238Y-25820714D01*
X51276714Y-25820714D01*
X51371952Y-25868333D01*
X51419571Y-25915952D01*
X51467190Y-26011190D01*
X51467190Y-26296904D01*
X51419571Y-26392142D01*
X51371952Y-26439761D01*
X51276714Y-26487380D01*
X51086238Y-26487380D01*
X50991000Y-26439761D01*
X51800523Y-25820714D02*
X52038619Y-26487380D01*
X52276714Y-25820714D02*
X52038619Y-26487380D01*
X51943380Y-26725476D01*
X51895761Y-26773095D01*
X51800523Y-26820714D01*
X53848142Y-25820714D02*
X53848142Y-26487380D01*
X53419571Y-25820714D02*
X53419571Y-26344523D01*
X53467190Y-26439761D01*
X53562428Y-26487380D01*
X53705285Y-26487380D01*
X53800523Y-26439761D01*
X53848142Y-26392142D01*
X55038619Y-25439761D02*
X54181476Y-26725476D01*
X55371952Y-26487380D02*
X55371952Y-25487380D01*
X55371952Y-25963571D02*
X55943380Y-25963571D01*
X55943380Y-26487380D02*
X55943380Y-25487380D01*
X56848142Y-26487380D02*
X56848142Y-25963571D01*
X56800523Y-25868333D01*
X56705285Y-25820714D01*
X56514809Y-25820714D01*
X56419571Y-25868333D01*
X56848142Y-26439761D02*
X56752904Y-26487380D01*
X56514809Y-26487380D01*
X56419571Y-26439761D01*
X56371952Y-26344523D01*
X56371952Y-26249285D01*
X56419571Y-26154047D01*
X56514809Y-26106428D01*
X56752904Y-26106428D01*
X56848142Y-26058809D01*
X57324333Y-26487380D02*
X57324333Y-25820714D01*
X57324333Y-26011190D02*
X57371952Y-25915952D01*
X57419571Y-25868333D01*
X57514809Y-25820714D01*
X57610047Y-25820714D01*
X57895761Y-26439761D02*
X57990999Y-26487380D01*
X58181476Y-26487380D01*
X58276714Y-26439761D01*
X58324333Y-26344523D01*
X58324333Y-26296904D01*
X58276714Y-26201666D01*
X58181476Y-26154047D01*
X58038619Y-26154047D01*
X57943380Y-26106428D01*
X57895761Y-26011190D01*
X57895761Y-25963571D01*
X57943380Y-25868333D01*
X58038619Y-25820714D01*
X58181476Y-25820714D01*
X58276714Y-25868333D01*
X58752904Y-26487380D02*
X58752904Y-25487380D01*
X59181476Y-26487380D02*
X59181476Y-25963571D01*
X59133857Y-25868333D01*
X59038619Y-25820714D01*
X58895761Y-25820714D01*
X58800523Y-25868333D01*
X58752904Y-25915952D01*
X59657666Y-26487380D02*
X59657666Y-25820714D01*
X59657666Y-25487380D02*
X59610047Y-25535000D01*
X59657666Y-25582619D01*
X59705285Y-25535000D01*
X59657666Y-25487380D01*
X59657666Y-25582619D01*
X59990999Y-25820714D02*
X60371952Y-25820714D01*
X60133857Y-25487380D02*
X60133857Y-26344523D01*
X60181476Y-26439761D01*
X60276714Y-26487380D01*
X60371952Y-26487380D01*
X61133857Y-25820714D02*
X61133857Y-26630238D01*
X61086238Y-26725476D01*
X61038619Y-26773095D01*
X60943380Y-26820714D01*
X60800523Y-26820714D01*
X60705285Y-26773095D01*
X61133857Y-26439761D02*
X61038619Y-26487380D01*
X60848142Y-26487380D01*
X60752904Y-26439761D01*
X60705285Y-26392142D01*
X60657666Y-26296904D01*
X60657666Y-26011190D01*
X60705285Y-25915952D01*
X60752904Y-25868333D01*
X60848142Y-25820714D01*
X61038619Y-25820714D01*
X61133857Y-25868333D01*
X61752904Y-26487380D02*
X61657666Y-26439761D01*
X61610047Y-26392142D01*
X61562428Y-26296904D01*
X61562428Y-26011190D01*
X61610047Y-25915952D01*
X61657666Y-25868333D01*
X61752904Y-25820714D01*
X61895761Y-25820714D01*
X61990999Y-25868333D01*
X62038619Y-25915952D01*
X62086238Y-26011190D01*
X62086238Y-26296904D01*
X62038619Y-26392142D01*
X61990999Y-26439761D01*
X61895761Y-26487380D01*
X61752904Y-26487380D01*
X62895761Y-26439761D02*
X62800523Y-26487380D01*
X62610047Y-26487380D01*
X62514809Y-26439761D01*
X62467190Y-26344523D01*
X62467190Y-25963571D01*
X62514809Y-25868333D01*
X62610047Y-25820714D01*
X62800523Y-25820714D01*
X62895761Y-25868333D01*
X62943380Y-25963571D01*
X62943380Y-26058809D01*
X62467190Y-26154047D01*
X63514809Y-26487380D02*
X63419571Y-26439761D01*
X63371952Y-26344523D01*
X63371952Y-25487380D01*
X63943380Y-26487380D02*
X64133857Y-26487380D01*
X64229095Y-26439761D01*
X64276714Y-26392142D01*
X64371952Y-26249285D01*
X64419571Y-26058809D01*
X64419571Y-25677857D01*
X64371952Y-25582619D01*
X64324333Y-25535000D01*
X64229095Y-25487380D01*
X64038619Y-25487380D01*
X63943380Y-25535000D01*
X63895761Y-25582619D01*
X63848142Y-25677857D01*
X63848142Y-25915952D01*
X63895761Y-26011190D01*
X63943380Y-26058809D01*
X64038619Y-26106428D01*
X64229095Y-26106428D01*
X64324333Y-26058809D01*
X64371952Y-26011190D01*
X64419571Y-25915952D01*
X65276714Y-25487380D02*
X65086238Y-25487380D01*
X64990999Y-25535000D01*
X64943380Y-25582619D01*
X64848142Y-25725476D01*
X64800523Y-25915952D01*
X64800523Y-26296904D01*
X64848142Y-26392142D01*
X64895761Y-26439761D01*
X64990999Y-26487380D01*
X65181476Y-26487380D01*
X65276714Y-26439761D01*
X65324333Y-26392142D01*
X65371952Y-26296904D01*
X65371952Y-26058809D01*
X65324333Y-25963571D01*
X65276714Y-25915952D01*
X65181476Y-25868333D01*
X64990999Y-25868333D01*
X64895761Y-25915952D01*
X64848142Y-25963571D01*
X64800523Y-26058809D01*
X96203190Y-18708714D02*
X96203190Y-19375380D01*
X95774619Y-18708714D02*
X95774619Y-19232523D01*
X95822238Y-19327761D01*
X95917476Y-19375380D01*
X96060333Y-19375380D01*
X96155571Y-19327761D01*
X96203190Y-19280142D01*
X97393666Y-18327761D02*
X96536523Y-19613476D01*
X97631761Y-18708714D02*
X97869857Y-19375380D01*
X98107952Y-18708714D01*
X98488904Y-19375380D02*
X98488904Y-18708714D01*
X98488904Y-18375380D02*
X98441285Y-18423000D01*
X98488904Y-18470619D01*
X98536523Y-18423000D01*
X98488904Y-18375380D01*
X98488904Y-18470619D01*
X98965095Y-19375380D02*
X98965095Y-18708714D01*
X98965095Y-18803952D02*
X99012714Y-18756333D01*
X99107952Y-18708714D01*
X99250809Y-18708714D01*
X99346047Y-18756333D01*
X99393666Y-18851571D01*
X99393666Y-19375380D01*
X99393666Y-18851571D02*
X99441285Y-18756333D01*
X99536523Y-18708714D01*
X99679380Y-18708714D01*
X99774619Y-18756333D01*
X99822238Y-18851571D01*
X99822238Y-19375380D01*
X100060333Y-19470619D02*
X100822238Y-19470619D01*
X100965095Y-18708714D02*
X101203190Y-19375380D01*
X101441285Y-18708714D01*
X101774619Y-19327761D02*
X101869857Y-19375380D01*
X102060333Y-19375380D01*
X102155571Y-19327761D01*
X102203190Y-19232523D01*
X102203190Y-19184904D01*
X102155571Y-19089666D01*
X102060333Y-19042047D01*
X101917476Y-19042047D01*
X101822238Y-18994428D01*
X101774619Y-18899190D01*
X101774619Y-18851571D01*
X101822238Y-18756333D01*
X101917476Y-18708714D01*
X102060333Y-18708714D01*
X102155571Y-18756333D01*
X102393666Y-19470619D02*
X103155571Y-19470619D01*
X103774619Y-19327761D02*
X103679380Y-19375380D01*
X103488904Y-19375380D01*
X103393666Y-19327761D01*
X103346047Y-19232523D01*
X103346047Y-18851571D01*
X103393666Y-18756333D01*
X103488904Y-18708714D01*
X103679380Y-18708714D01*
X103774619Y-18756333D01*
X103822238Y-18851571D01*
X103822238Y-18946809D01*
X103346047Y-19042047D01*
X104250809Y-19375380D02*
X104250809Y-18708714D01*
X104250809Y-18803952D02*
X104298428Y-18756333D01*
X104393666Y-18708714D01*
X104536523Y-18708714D01*
X104631761Y-18756333D01*
X104679380Y-18851571D01*
X104679380Y-19375380D01*
X104679380Y-18851571D02*
X104727000Y-18756333D01*
X104822238Y-18708714D01*
X104965095Y-18708714D01*
X105060333Y-18756333D01*
X105107952Y-18851571D01*
X105107952Y-19375380D01*
X106012714Y-19375380D02*
X106012714Y-18851571D01*
X105965095Y-18756333D01*
X105869857Y-18708714D01*
X105679380Y-18708714D01*
X105584142Y-18756333D01*
X106012714Y-19327761D02*
X105917476Y-19375380D01*
X105679380Y-19375380D01*
X105584142Y-19327761D01*
X105536523Y-19232523D01*
X105536523Y-19137285D01*
X105584142Y-19042047D01*
X105679380Y-18994428D01*
X105917476Y-18994428D01*
X106012714Y-18946809D01*
X106917476Y-19327761D02*
X106822238Y-19375380D01*
X106631761Y-19375380D01*
X106536523Y-19327761D01*
X106488904Y-19280142D01*
X106441285Y-19184904D01*
X106441285Y-18899190D01*
X106488904Y-18803952D01*
X106536523Y-18756333D01*
X106631761Y-18708714D01*
X106822238Y-18708714D01*
X106917476Y-18756333D01*
X107298428Y-19327761D02*
X107393666Y-19375380D01*
X107584142Y-19375380D01*
X107679380Y-19327761D01*
X107727000Y-19232523D01*
X107727000Y-19184904D01*
X107679380Y-19089666D01*
X107584142Y-19042047D01*
X107441285Y-19042047D01*
X107346047Y-18994428D01*
X107298428Y-18899190D01*
X107298428Y-18851571D01*
X107346047Y-18756333D01*
X107441285Y-18708714D01*
X107584142Y-18708714D01*
X107679380Y-18756333D01*
X144867809Y-18835714D02*
X144867809Y-19502380D01*
X144439238Y-18835714D02*
X144439238Y-19359523D01*
X144486857Y-19454761D01*
X144582095Y-19502380D01*
X144724952Y-19502380D01*
X144820190Y-19454761D01*
X144867809Y-19407142D01*
X146058285Y-18454761D02*
X145201142Y-19740476D01*
X146391619Y-19502380D02*
X146391619Y-18502380D01*
X146629714Y-18502380D01*
X146772571Y-18550000D01*
X146867809Y-18645238D01*
X146915428Y-18740476D01*
X146963047Y-18930952D01*
X146963047Y-19073809D01*
X146915428Y-19264285D01*
X146867809Y-19359523D01*
X146772571Y-19454761D01*
X146629714Y-19502380D01*
X146391619Y-19502380D01*
X147772571Y-19454761D02*
X147677333Y-19502380D01*
X147486857Y-19502380D01*
X147391619Y-19454761D01*
X147344000Y-19359523D01*
X147344000Y-18978571D01*
X147391619Y-18883333D01*
X147486857Y-18835714D01*
X147677333Y-18835714D01*
X147772571Y-18883333D01*
X147820190Y-18978571D01*
X147820190Y-19073809D01*
X147344000Y-19169047D01*
X148391619Y-19502380D02*
X148296380Y-19454761D01*
X148248761Y-19359523D01*
X148248761Y-18502380D01*
X148629714Y-18835714D02*
X149010666Y-18835714D01*
X148772571Y-18502380D02*
X148772571Y-19359523D01*
X148820190Y-19454761D01*
X148915428Y-19502380D01*
X149010666Y-19502380D01*
X149772571Y-19502380D02*
X149772571Y-18978571D01*
X149724952Y-18883333D01*
X149629714Y-18835714D01*
X149439238Y-18835714D01*
X149344000Y-18883333D01*
X149772571Y-19454761D02*
X149677333Y-19502380D01*
X149439238Y-19502380D01*
X149344000Y-19454761D01*
X149296380Y-19359523D01*
X149296380Y-19264285D01*
X149344000Y-19169047D01*
X149439238Y-19121428D01*
X149677333Y-19121428D01*
X149772571Y-19073809D01*
X150010666Y-19597619D02*
X150772571Y-19597619D01*
X150867809Y-18502380D02*
X151439238Y-18502380D01*
X151153523Y-19502380D02*
X151153523Y-18502380D01*
X151677333Y-18835714D02*
X151867809Y-19502380D01*
X152058285Y-19026190D01*
X152248761Y-19502380D01*
X152439238Y-18835714D01*
X152963047Y-19502380D02*
X152867809Y-19454761D01*
X152820190Y-19407142D01*
X152772571Y-19311904D01*
X152772571Y-19026190D01*
X152820190Y-18930952D01*
X152867809Y-18883333D01*
X152963047Y-18835714D01*
X153105904Y-18835714D01*
X153201142Y-18883333D01*
X153248761Y-18930952D01*
X153296380Y-19026190D01*
X153296380Y-19311904D01*
X153248761Y-19407142D01*
X153201142Y-19454761D01*
X153105904Y-19502380D01*
X152963047Y-19502380D01*
X131874142Y-18835714D02*
X131874142Y-19502380D01*
X131445571Y-18835714D02*
X131445571Y-19359523D01*
X131493190Y-19454761D01*
X131588428Y-19502380D01*
X131731285Y-19502380D01*
X131826523Y-19454761D01*
X131874142Y-19407142D01*
X133064619Y-18454761D02*
X132207476Y-19740476D01*
X133255095Y-18835714D02*
X133636047Y-18835714D01*
X133397952Y-18502380D02*
X133397952Y-19359523D01*
X133445571Y-19454761D01*
X133540809Y-19502380D01*
X133636047Y-19502380D01*
X134397952Y-19502380D02*
X134397952Y-18978571D01*
X134350333Y-18883333D01*
X134255095Y-18835714D01*
X134064619Y-18835714D01*
X133969380Y-18883333D01*
X134397952Y-19454761D02*
X134302714Y-19502380D01*
X134064619Y-19502380D01*
X133969380Y-19454761D01*
X133921761Y-19359523D01*
X133921761Y-19264285D01*
X133969380Y-19169047D01*
X134064619Y-19121428D01*
X134302714Y-19121428D01*
X134397952Y-19073809D01*
X134778904Y-18835714D02*
X135302714Y-18835714D01*
X134778904Y-19502380D01*
X135302714Y-19502380D01*
X135588428Y-18835714D02*
X136112238Y-18835714D01*
X135588428Y-19502380D01*
X136112238Y-19502380D01*
X136255095Y-19597619D02*
X137017000Y-19597619D01*
X137207476Y-18597619D02*
X137255095Y-18550000D01*
X137350333Y-18502380D01*
X137588428Y-18502380D01*
X137683666Y-18550000D01*
X137731285Y-18597619D01*
X137778904Y-18692857D01*
X137778904Y-18788095D01*
X137731285Y-18930952D01*
X137159857Y-19502380D01*
X137778904Y-19502380D01*
X138397952Y-18502380D02*
X138493190Y-18502380D01*
X138588428Y-18550000D01*
X138636047Y-18597619D01*
X138683666Y-18692857D01*
X138731285Y-18883333D01*
X138731285Y-19121428D01*
X138683666Y-19311904D01*
X138636047Y-19407142D01*
X138588428Y-19454761D01*
X138493190Y-19502380D01*
X138397952Y-19502380D01*
X138302714Y-19454761D01*
X138255095Y-19407142D01*
X138207476Y-19311904D01*
X138159857Y-19121428D01*
X138159857Y-18883333D01*
X138207476Y-18692857D01*
X138255095Y-18597619D01*
X138302714Y-18550000D01*
X138397952Y-18502380D01*
X139350333Y-18502380D02*
X139445571Y-18502380D01*
X139540809Y-18550000D01*
X139588428Y-18597619D01*
X139636047Y-18692857D01*
X139683666Y-18883333D01*
X139683666Y-19121428D01*
X139636047Y-19311904D01*
X139588428Y-19407142D01*
X139540809Y-19454761D01*
X139445571Y-19502380D01*
X139350333Y-19502380D01*
X139255095Y-19454761D01*
X139207476Y-19407142D01*
X139159857Y-19311904D01*
X139112238Y-19121428D01*
X139112238Y-18883333D01*
X139159857Y-18692857D01*
X139207476Y-18597619D01*
X139255095Y-18550000D01*
X139350333Y-18502380D01*
X140540809Y-18835714D02*
X140540809Y-19502380D01*
X140302714Y-18454761D02*
X140064619Y-19169047D01*
X140683666Y-19169047D01*
X117459761Y-18835714D02*
X117459761Y-19502380D01*
X117031190Y-18835714D02*
X117031190Y-19359523D01*
X117078809Y-19454761D01*
X117174047Y-19502380D01*
X117316904Y-19502380D01*
X117412142Y-19454761D01*
X117459761Y-19407142D01*
X118650238Y-18454761D02*
X117793095Y-19740476D01*
X118935952Y-19454761D02*
X119078809Y-19502380D01*
X119316904Y-19502380D01*
X119412142Y-19454761D01*
X119459761Y-19407142D01*
X119507380Y-19311904D01*
X119507380Y-19216666D01*
X119459761Y-19121428D01*
X119412142Y-19073809D01*
X119316904Y-19026190D01*
X119126428Y-18978571D01*
X119031190Y-18930952D01*
X118983571Y-18883333D01*
X118935952Y-18788095D01*
X118935952Y-18692857D01*
X118983571Y-18597619D01*
X119031190Y-18550000D01*
X119126428Y-18502380D01*
X119364523Y-18502380D01*
X119507380Y-18550000D01*
X120316904Y-19454761D02*
X120221666Y-19502380D01*
X120031190Y-19502380D01*
X119935952Y-19454761D01*
X119888333Y-19359523D01*
X119888333Y-18978571D01*
X119935952Y-18883333D01*
X120031190Y-18835714D01*
X120221666Y-18835714D01*
X120316904Y-18883333D01*
X120364523Y-18978571D01*
X120364523Y-19073809D01*
X119888333Y-19169047D01*
X120793095Y-18835714D02*
X120793095Y-19502380D01*
X120793095Y-18930952D02*
X120840714Y-18883333D01*
X120935952Y-18835714D01*
X121078809Y-18835714D01*
X121174047Y-18883333D01*
X121221666Y-18978571D01*
X121221666Y-19502380D01*
X121840714Y-19502380D02*
X121745476Y-19454761D01*
X121697857Y-19407142D01*
X121650238Y-19311904D01*
X121650238Y-19026190D01*
X121697857Y-18930952D01*
X121745476Y-18883333D01*
X121840714Y-18835714D01*
X121983571Y-18835714D01*
X122078809Y-18883333D01*
X122126428Y-18930952D01*
X122174047Y-19026190D01*
X122174047Y-19311904D01*
X122126428Y-19407142D01*
X122078809Y-19454761D01*
X121983571Y-19502380D01*
X121840714Y-19502380D01*
X122602619Y-19502380D02*
X122602619Y-18835714D01*
X122602619Y-19026190D02*
X122650238Y-18930952D01*
X122697857Y-18883333D01*
X122793095Y-18835714D01*
X122888333Y-18835714D01*
X122983571Y-19597619D02*
X123745476Y-19597619D01*
X124507380Y-18550000D02*
X124412142Y-18502380D01*
X124269285Y-18502380D01*
X124126428Y-18550000D01*
X124031190Y-18645238D01*
X123983571Y-18740476D01*
X123935952Y-18930952D01*
X123935952Y-19073809D01*
X123983571Y-19264285D01*
X124031190Y-19359523D01*
X124126428Y-19454761D01*
X124269285Y-19502380D01*
X124364523Y-19502380D01*
X124507380Y-19454761D01*
X124555000Y-19407142D01*
X124555000Y-19073809D01*
X124364523Y-19073809D01*
X125126428Y-19502380D02*
X125031190Y-19454761D01*
X124983571Y-19407142D01*
X124935952Y-19311904D01*
X124935952Y-19026190D01*
X124983571Y-18930952D01*
X125031190Y-18883333D01*
X125126428Y-18835714D01*
X125269285Y-18835714D01*
X125364523Y-18883333D01*
X125412142Y-18930952D01*
X125459761Y-19026190D01*
X125459761Y-19311904D01*
X125412142Y-19407142D01*
X125364523Y-19454761D01*
X125269285Y-19502380D01*
X125126428Y-19502380D01*
X126031190Y-19502380D02*
X125935952Y-19454761D01*
X125888333Y-19407142D01*
X125840714Y-19311904D01*
X125840714Y-19026190D01*
X125888333Y-18930952D01*
X125935952Y-18883333D01*
X126031190Y-18835714D01*
X126174047Y-18835714D01*
X126269285Y-18883333D01*
X126316904Y-18930952D01*
X126364523Y-19026190D01*
X126364523Y-19311904D01*
X126316904Y-19407142D01*
X126269285Y-19454761D01*
X126174047Y-19502380D01*
X126031190Y-19502380D01*
X126793095Y-19502380D02*
X126793095Y-18502380D01*
X126793095Y-18883333D02*
X126888333Y-18835714D01*
X127078809Y-18835714D01*
X127174047Y-18883333D01*
X127221666Y-18930952D01*
X127269285Y-19026190D01*
X127269285Y-19311904D01*
X127221666Y-19407142D01*
X127174047Y-19454761D01*
X127078809Y-19502380D01*
X126888333Y-19502380D01*
X126793095Y-19454761D01*
X128078809Y-19454761D02*
X127983571Y-19502380D01*
X127793095Y-19502380D01*
X127697857Y-19454761D01*
X127650238Y-19359523D01*
X127650238Y-18978571D01*
X127697857Y-18883333D01*
X127793095Y-18835714D01*
X127983571Y-18835714D01*
X128078809Y-18883333D01*
X128126428Y-18978571D01*
X128126428Y-19073809D01*
X127650238Y-19169047D01*
X155813952Y-83200761D02*
X154861571Y-83200761D01*
X154861571Y-81200761D01*
X156480619Y-82153142D02*
X157147285Y-82153142D01*
X157433000Y-83200761D02*
X156480619Y-83200761D01*
X156480619Y-81200761D01*
X157433000Y-81200761D01*
X158956809Y-82153142D02*
X158290142Y-82153142D01*
X158290142Y-83200761D02*
X158290142Y-81200761D01*
X159242523Y-81200761D01*
X159718714Y-81200761D02*
X160861571Y-81200761D01*
X160290142Y-83200761D02*
X160290142Y-81200761D01*
X163052047Y-83200761D02*
X163052047Y-81200761D01*
X163052047Y-82153142D02*
X164194904Y-82153142D01*
X164194904Y-83200761D02*
X164194904Y-81200761D01*
X165052047Y-82629333D02*
X166004428Y-82629333D01*
X164861571Y-83200761D02*
X165528238Y-81200761D01*
X166194904Y-83200761D01*
X166861571Y-83200761D02*
X166861571Y-81200761D01*
X168004428Y-83200761D01*
X168004428Y-81200761D01*
X168956809Y-83200761D02*
X168956809Y-81200761D01*
X169433000Y-81200761D01*
X169718714Y-81296000D01*
X169909190Y-81486476D01*
X170004428Y-81676952D01*
X170099666Y-82057904D01*
X170099666Y-82343619D01*
X170004428Y-82724571D01*
X169909190Y-82915047D01*
X169718714Y-83105523D01*
X169433000Y-83200761D01*
X168956809Y-83200761D01*
X160152000Y-19311500D02*
X154052000Y-19311500D01*
X160152000Y-31411500D02*
X154052000Y-31411500D01*
X160152000Y-19311500D02*
X160152000Y-31411500D01*
X154052000Y-19311500D02*
X154052000Y-31411500D01*
X159902000Y-19311500D02*
X159902000Y-17311500D01*
X154302000Y-19311500D02*
X154302000Y-17311500D01*
X159902000Y-17311500D02*
X154302000Y-17311500D01*
D11*
X75234800Y-51536600D02*
X93014800Y-51536600D01*
X93014800Y-18516600D02*
X75234800Y-18516600D01*
X87934800Y-17246600D02*
X87934800Y-18516600D01*
X93014800Y-51536600D02*
X93014800Y-18516600D01*
X80314800Y-18516600D02*
X80314800Y-17246600D01*
X80314800Y-17246600D02*
X87934800Y-17246600D01*
X75234800Y-18516600D02*
X75234800Y-51536600D01*
D10*
X42826077Y-60452000D02*
G75*
G03X42826077Y-60452000I-2694077J0D01*
G01*
X115216077Y-20574000D02*
G75*
G03X115216077Y-20574000I-2694077J0D01*
G01*
X169318077Y-20574000D02*
G75*
G03X169318077Y-20574000I-2694077J0D01*
G01*
X115280077Y-123444000D02*
G75*
G03X115280077Y-123444000I-2694077J0D01*
G01*
X43588077Y-114808000D02*
G75*
G03X43588077Y-114808000I-2694077J0D01*
G01*
X115914077Y-60642500D02*
G75*
G03X115914077Y-60642500I-2694077J0D01*
G01*
X182145077Y-132715000D02*
G75*
G03X182145077Y-132715000I-2694077J0D01*
G01*
X42826077Y-20574000D02*
G75*
G03X42826077Y-20574000I-2694077J0D01*
G01*
X170080077Y-107823000D02*
G75*
G03X170080077Y-107823000I-2694077J0D01*
G01*
D12*
G36*
X54332910Y-19213348D02*
G01*
X54411454Y-19213778D01*
X54468298Y-19214942D01*
X54507105Y-19217207D01*
X54531538Y-19220940D01*
X54545262Y-19226506D01*
X54551940Y-19234273D01*
X54555236Y-19244605D01*
X54555556Y-19245943D01*
X54560562Y-19270079D01*
X54569829Y-19317701D01*
X54582392Y-19383741D01*
X54597287Y-19463128D01*
X54613551Y-19550796D01*
X54614119Y-19553875D01*
X54630410Y-19639789D01*
X54645652Y-19715696D01*
X54658861Y-19777045D01*
X54669054Y-19819282D01*
X54675248Y-19837855D01*
X54675543Y-19838184D01*
X54693788Y-19847253D01*
X54731405Y-19862367D01*
X54780271Y-19880262D01*
X54780543Y-19880358D01*
X54842093Y-19903493D01*
X54914657Y-19932965D01*
X54983057Y-19962597D01*
X54986294Y-19964062D01*
X55097702Y-20014626D01*
X55344399Y-19846160D01*
X55420077Y-19794803D01*
X55488631Y-19748889D01*
X55546088Y-19711030D01*
X55588476Y-19683837D01*
X55611825Y-19669921D01*
X55614042Y-19668889D01*
X55631010Y-19673484D01*
X55662701Y-19695655D01*
X55710352Y-19736447D01*
X55775198Y-19796905D01*
X55841397Y-19861227D01*
X55905214Y-19924612D01*
X55962329Y-19982451D01*
X56009305Y-20031175D01*
X56042703Y-20067210D01*
X56059085Y-20086984D01*
X56059694Y-20088002D01*
X56061505Y-20101572D01*
X56054683Y-20123733D01*
X56037540Y-20157478D01*
X56008393Y-20205800D01*
X55965555Y-20271692D01*
X55908448Y-20356517D01*
X55857766Y-20431177D01*
X55812461Y-20498140D01*
X55775150Y-20553516D01*
X55748452Y-20593420D01*
X55734985Y-20613962D01*
X55734137Y-20615356D01*
X55735781Y-20635038D01*
X55748245Y-20673293D01*
X55769048Y-20722889D01*
X55776462Y-20738728D01*
X55808814Y-20809290D01*
X55843328Y-20889353D01*
X55871365Y-20958629D01*
X55891568Y-21010045D01*
X55907615Y-21049119D01*
X55916888Y-21069541D01*
X55918041Y-21071114D01*
X55935096Y-21073721D01*
X55975298Y-21080863D01*
X56033302Y-21091523D01*
X56103763Y-21104685D01*
X56181335Y-21119333D01*
X56260672Y-21134449D01*
X56336431Y-21149018D01*
X56403264Y-21162022D01*
X56455828Y-21172445D01*
X56488776Y-21179270D01*
X56496857Y-21181199D01*
X56505205Y-21185962D01*
X56511506Y-21196718D01*
X56516045Y-21217098D01*
X56519104Y-21250734D01*
X56520967Y-21301255D01*
X56521918Y-21372292D01*
X56522240Y-21467476D01*
X56522257Y-21506492D01*
X56522257Y-21823799D01*
X56446057Y-21838839D01*
X56403663Y-21846995D01*
X56340400Y-21858899D01*
X56263962Y-21873116D01*
X56182043Y-21888210D01*
X56159400Y-21892355D01*
X56083806Y-21907053D01*
X56017953Y-21921505D01*
X55967366Y-21934375D01*
X55937574Y-21944322D01*
X55932612Y-21947287D01*
X55920426Y-21968283D01*
X55902953Y-22008967D01*
X55883577Y-22061322D01*
X55879734Y-22072600D01*
X55854339Y-22142523D01*
X55822817Y-22221418D01*
X55791969Y-22292266D01*
X55791817Y-22292595D01*
X55740447Y-22403733D01*
X55909399Y-22652253D01*
X56078352Y-22900772D01*
X55861429Y-23118058D01*
X55795819Y-23182726D01*
X55735979Y-23239733D01*
X55685267Y-23286033D01*
X55647046Y-23318584D01*
X55624675Y-23334343D01*
X55621466Y-23335343D01*
X55602626Y-23327469D01*
X55564180Y-23305578D01*
X55510330Y-23272267D01*
X55445276Y-23230131D01*
X55374940Y-23182943D01*
X55303555Y-23134810D01*
X55239908Y-23092928D01*
X55188041Y-23059871D01*
X55151995Y-23038218D01*
X55135867Y-23030543D01*
X55116189Y-23037037D01*
X55078875Y-23054150D01*
X55031621Y-23078326D01*
X55026612Y-23081013D01*
X54962977Y-23112927D01*
X54919341Y-23128579D01*
X54892202Y-23128745D01*
X54878057Y-23114204D01*
X54877975Y-23114000D01*
X54870905Y-23096779D01*
X54854042Y-23055899D01*
X54828695Y-22994525D01*
X54796171Y-22915819D01*
X54757778Y-22822947D01*
X54714822Y-22719072D01*
X54673222Y-22618502D01*
X54627504Y-22507516D01*
X54585526Y-22404703D01*
X54548548Y-22313215D01*
X54517827Y-22236201D01*
X54494622Y-22176815D01*
X54480190Y-22138209D01*
X54475743Y-22123800D01*
X54486896Y-22107272D01*
X54516069Y-22080930D01*
X54554971Y-22051887D01*
X54665757Y-21960039D01*
X54752351Y-21854759D01*
X54813716Y-21738266D01*
X54848815Y-21612776D01*
X54856608Y-21480507D01*
X54850943Y-21419457D01*
X54820078Y-21292795D01*
X54766920Y-21180941D01*
X54694767Y-21085001D01*
X54606917Y-21006076D01*
X54506665Y-20945270D01*
X54397310Y-20903687D01*
X54282147Y-20882428D01*
X54164475Y-20882599D01*
X54047590Y-20905301D01*
X53934789Y-20951638D01*
X53829369Y-21022713D01*
X53785368Y-21062911D01*
X53700979Y-21166129D01*
X53642222Y-21278925D01*
X53608704Y-21398010D01*
X53600035Y-21520095D01*
X53615823Y-21641893D01*
X53655678Y-21760116D01*
X53719207Y-21871475D01*
X53806021Y-21972684D01*
X53903029Y-22051887D01*
X53943437Y-22082162D01*
X53971982Y-22108219D01*
X53982257Y-22123825D01*
X53976877Y-22140843D01*
X53961575Y-22181500D01*
X53937612Y-22242642D01*
X53906244Y-22321119D01*
X53868732Y-22413780D01*
X53826333Y-22517472D01*
X53784663Y-22618526D01*
X53738690Y-22729607D01*
X53696107Y-22832541D01*
X53658221Y-22924165D01*
X53626340Y-23001316D01*
X53601771Y-23060831D01*
X53585820Y-23099544D01*
X53579910Y-23114000D01*
X53565948Y-23128685D01*
X53538940Y-23128642D01*
X53495413Y-23113099D01*
X53431890Y-23081284D01*
X53431388Y-23081013D01*
X53383560Y-23056323D01*
X53344897Y-23038338D01*
X53323095Y-23030614D01*
X53322133Y-23030543D01*
X53305721Y-23038378D01*
X53269487Y-23060165D01*
X53217474Y-23093328D01*
X53153725Y-23135291D01*
X53083060Y-23182943D01*
X53011116Y-23231191D01*
X52946274Y-23273151D01*
X52892735Y-23306227D01*
X52854697Y-23327821D01*
X52836533Y-23335343D01*
X52819808Y-23325457D01*
X52786180Y-23297826D01*
X52739010Y-23255495D01*
X52681658Y-23201505D01*
X52617484Y-23138899D01*
X52596497Y-23117983D01*
X52379499Y-22900623D01*
X52544668Y-22658220D01*
X52594864Y-22583781D01*
X52638919Y-22516972D01*
X52674362Y-22461665D01*
X52698719Y-22421729D01*
X52709522Y-22401036D01*
X52709838Y-22399563D01*
X52704143Y-22380058D01*
X52688826Y-22340822D01*
X52666537Y-22288430D01*
X52650893Y-22253355D01*
X52621641Y-22186201D01*
X52594094Y-22118358D01*
X52572737Y-22061034D01*
X52566935Y-22043572D01*
X52550452Y-21996938D01*
X52534340Y-21960905D01*
X52525490Y-21947287D01*
X52505960Y-21938952D01*
X52463334Y-21927137D01*
X52403145Y-21913181D01*
X52330922Y-21898422D01*
X52298600Y-21892355D01*
X52216522Y-21877273D01*
X52137795Y-21862669D01*
X52070109Y-21849980D01*
X52021160Y-21840642D01*
X52011943Y-21838839D01*
X51935743Y-21823799D01*
X51935743Y-21506492D01*
X51935914Y-21402154D01*
X51936616Y-21323213D01*
X51938134Y-21266038D01*
X51940749Y-21226999D01*
X51944746Y-21202465D01*
X51950409Y-21188805D01*
X51958020Y-21182389D01*
X51961143Y-21181199D01*
X51979978Y-21176980D01*
X52021588Y-21168562D01*
X52080630Y-21156961D01*
X52151757Y-21143195D01*
X52229625Y-21128280D01*
X52308887Y-21113232D01*
X52384198Y-21099069D01*
X52450213Y-21086806D01*
X52501587Y-21077461D01*
X52532975Y-21072050D01*
X52539959Y-21071114D01*
X52546285Y-21058596D01*
X52560290Y-21025246D01*
X52579355Y-20977377D01*
X52586634Y-20958629D01*
X52615996Y-20886195D01*
X52650571Y-20806170D01*
X52681537Y-20738728D01*
X52704323Y-20687159D01*
X52719482Y-20644785D01*
X52724542Y-20618834D01*
X52723736Y-20615356D01*
X52713041Y-20598936D01*
X52688620Y-20562417D01*
X52653095Y-20509687D01*
X52609087Y-20444635D01*
X52559217Y-20371151D01*
X52549356Y-20356645D01*
X52491492Y-20270704D01*
X52448956Y-20205261D01*
X52420054Y-20157304D01*
X52403090Y-20123820D01*
X52396367Y-20101795D01*
X52398190Y-20088217D01*
X52398236Y-20088131D01*
X52412586Y-20070297D01*
X52444323Y-20035817D01*
X52490010Y-19988268D01*
X52546204Y-19931222D01*
X52609468Y-19868255D01*
X52616602Y-19861227D01*
X52696330Y-19784020D01*
X52757857Y-19727330D01*
X52802421Y-19690110D01*
X52831257Y-19671315D01*
X52843958Y-19668889D01*
X52862494Y-19679471D01*
X52900961Y-19703916D01*
X52955386Y-19739612D01*
X53021798Y-19783947D01*
X53096225Y-19834311D01*
X53113601Y-19846160D01*
X53360297Y-20014626D01*
X53471706Y-19964062D01*
X53539457Y-19934595D01*
X53612183Y-19904959D01*
X53674703Y-19881330D01*
X53677457Y-19880358D01*
X53726360Y-19862457D01*
X53764057Y-19847320D01*
X53782425Y-19838210D01*
X53782456Y-19838184D01*
X53788285Y-19821717D01*
X53798192Y-19781219D01*
X53811195Y-19721242D01*
X53826309Y-19646340D01*
X53842552Y-19561064D01*
X53843881Y-19553875D01*
X53860175Y-19466014D01*
X53875133Y-19386260D01*
X53887791Y-19319681D01*
X53897186Y-19271347D01*
X53902354Y-19246325D01*
X53902444Y-19245943D01*
X53905589Y-19235299D01*
X53911704Y-19227262D01*
X53924453Y-19221467D01*
X53947500Y-19217547D01*
X53984509Y-19215135D01*
X54039144Y-19213865D01*
X54115067Y-19213371D01*
X54215944Y-19213286D01*
X54229000Y-19213286D01*
X54332910Y-19213348D01*
G37*
X54332910Y-19213348D02*
X54411454Y-19213778D01*
X54468298Y-19214942D01*
X54507105Y-19217207D01*
X54531538Y-19220940D01*
X54545262Y-19226506D01*
X54551940Y-19234273D01*
X54555236Y-19244605D01*
X54555556Y-19245943D01*
X54560562Y-19270079D01*
X54569829Y-19317701D01*
X54582392Y-19383741D01*
X54597287Y-19463128D01*
X54613551Y-19550796D01*
X54614119Y-19553875D01*
X54630410Y-19639789D01*
X54645652Y-19715696D01*
X54658861Y-19777045D01*
X54669054Y-19819282D01*
X54675248Y-19837855D01*
X54675543Y-19838184D01*
X54693788Y-19847253D01*
X54731405Y-19862367D01*
X54780271Y-19880262D01*
X54780543Y-19880358D01*
X54842093Y-19903493D01*
X54914657Y-19932965D01*
X54983057Y-19962597D01*
X54986294Y-19964062D01*
X55097702Y-20014626D01*
X55344399Y-19846160D01*
X55420077Y-19794803D01*
X55488631Y-19748889D01*
X55546088Y-19711030D01*
X55588476Y-19683837D01*
X55611825Y-19669921D01*
X55614042Y-19668889D01*
X55631010Y-19673484D01*
X55662701Y-19695655D01*
X55710352Y-19736447D01*
X55775198Y-19796905D01*
X55841397Y-19861227D01*
X55905214Y-19924612D01*
X55962329Y-19982451D01*
X56009305Y-20031175D01*
X56042703Y-20067210D01*
X56059085Y-20086984D01*
X56059694Y-20088002D01*
X56061505Y-20101572D01*
X56054683Y-20123733D01*
X56037540Y-20157478D01*
X56008393Y-20205800D01*
X55965555Y-20271692D01*
X55908448Y-20356517D01*
X55857766Y-20431177D01*
X55812461Y-20498140D01*
X55775150Y-20553516D01*
X55748452Y-20593420D01*
X55734985Y-20613962D01*
X55734137Y-20615356D01*
X55735781Y-20635038D01*
X55748245Y-20673293D01*
X55769048Y-20722889D01*
X55776462Y-20738728D01*
X55808814Y-20809290D01*
X55843328Y-20889353D01*
X55871365Y-20958629D01*
X55891568Y-21010045D01*
X55907615Y-21049119D01*
X55916888Y-21069541D01*
X55918041Y-21071114D01*
X55935096Y-21073721D01*
X55975298Y-21080863D01*
X56033302Y-21091523D01*
X56103763Y-21104685D01*
X56181335Y-21119333D01*
X56260672Y-21134449D01*
X56336431Y-21149018D01*
X56403264Y-21162022D01*
X56455828Y-21172445D01*
X56488776Y-21179270D01*
X56496857Y-21181199D01*
X56505205Y-21185962D01*
X56511506Y-21196718D01*
X56516045Y-21217098D01*
X56519104Y-21250734D01*
X56520967Y-21301255D01*
X56521918Y-21372292D01*
X56522240Y-21467476D01*
X56522257Y-21506492D01*
X56522257Y-21823799D01*
X56446057Y-21838839D01*
X56403663Y-21846995D01*
X56340400Y-21858899D01*
X56263962Y-21873116D01*
X56182043Y-21888210D01*
X56159400Y-21892355D01*
X56083806Y-21907053D01*
X56017953Y-21921505D01*
X55967366Y-21934375D01*
X55937574Y-21944322D01*
X55932612Y-21947287D01*
X55920426Y-21968283D01*
X55902953Y-22008967D01*
X55883577Y-22061322D01*
X55879734Y-22072600D01*
X55854339Y-22142523D01*
X55822817Y-22221418D01*
X55791969Y-22292266D01*
X55791817Y-22292595D01*
X55740447Y-22403733D01*
X55909399Y-22652253D01*
X56078352Y-22900772D01*
X55861429Y-23118058D01*
X55795819Y-23182726D01*
X55735979Y-23239733D01*
X55685267Y-23286033D01*
X55647046Y-23318584D01*
X55624675Y-23334343D01*
X55621466Y-23335343D01*
X55602626Y-23327469D01*
X55564180Y-23305578D01*
X55510330Y-23272267D01*
X55445276Y-23230131D01*
X55374940Y-23182943D01*
X55303555Y-23134810D01*
X55239908Y-23092928D01*
X55188041Y-23059871D01*
X55151995Y-23038218D01*
X55135867Y-23030543D01*
X55116189Y-23037037D01*
X55078875Y-23054150D01*
X55031621Y-23078326D01*
X55026612Y-23081013D01*
X54962977Y-23112927D01*
X54919341Y-23128579D01*
X54892202Y-23128745D01*
X54878057Y-23114204D01*
X54877975Y-23114000D01*
X54870905Y-23096779D01*
X54854042Y-23055899D01*
X54828695Y-22994525D01*
X54796171Y-22915819D01*
X54757778Y-22822947D01*
X54714822Y-22719072D01*
X54673222Y-22618502D01*
X54627504Y-22507516D01*
X54585526Y-22404703D01*
X54548548Y-22313215D01*
X54517827Y-22236201D01*
X54494622Y-22176815D01*
X54480190Y-22138209D01*
X54475743Y-22123800D01*
X54486896Y-22107272D01*
X54516069Y-22080930D01*
X54554971Y-22051887D01*
X54665757Y-21960039D01*
X54752351Y-21854759D01*
X54813716Y-21738266D01*
X54848815Y-21612776D01*
X54856608Y-21480507D01*
X54850943Y-21419457D01*
X54820078Y-21292795D01*
X54766920Y-21180941D01*
X54694767Y-21085001D01*
X54606917Y-21006076D01*
X54506665Y-20945270D01*
X54397310Y-20903687D01*
X54282147Y-20882428D01*
X54164475Y-20882599D01*
X54047590Y-20905301D01*
X53934789Y-20951638D01*
X53829369Y-21022713D01*
X53785368Y-21062911D01*
X53700979Y-21166129D01*
X53642222Y-21278925D01*
X53608704Y-21398010D01*
X53600035Y-21520095D01*
X53615823Y-21641893D01*
X53655678Y-21760116D01*
X53719207Y-21871475D01*
X53806021Y-21972684D01*
X53903029Y-22051887D01*
X53943437Y-22082162D01*
X53971982Y-22108219D01*
X53982257Y-22123825D01*
X53976877Y-22140843D01*
X53961575Y-22181500D01*
X53937612Y-22242642D01*
X53906244Y-22321119D01*
X53868732Y-22413780D01*
X53826333Y-22517472D01*
X53784663Y-22618526D01*
X53738690Y-22729607D01*
X53696107Y-22832541D01*
X53658221Y-22924165D01*
X53626340Y-23001316D01*
X53601771Y-23060831D01*
X53585820Y-23099544D01*
X53579910Y-23114000D01*
X53565948Y-23128685D01*
X53538940Y-23128642D01*
X53495413Y-23113099D01*
X53431890Y-23081284D01*
X53431388Y-23081013D01*
X53383560Y-23056323D01*
X53344897Y-23038338D01*
X53323095Y-23030614D01*
X53322133Y-23030543D01*
X53305721Y-23038378D01*
X53269487Y-23060165D01*
X53217474Y-23093328D01*
X53153725Y-23135291D01*
X53083060Y-23182943D01*
X53011116Y-23231191D01*
X52946274Y-23273151D01*
X52892735Y-23306227D01*
X52854697Y-23327821D01*
X52836533Y-23335343D01*
X52819808Y-23325457D01*
X52786180Y-23297826D01*
X52739010Y-23255495D01*
X52681658Y-23201505D01*
X52617484Y-23138899D01*
X52596497Y-23117983D01*
X52379499Y-22900623D01*
X52544668Y-22658220D01*
X52594864Y-22583781D01*
X52638919Y-22516972D01*
X52674362Y-22461665D01*
X52698719Y-22421729D01*
X52709522Y-22401036D01*
X52709838Y-22399563D01*
X52704143Y-22380058D01*
X52688826Y-22340822D01*
X52666537Y-22288430D01*
X52650893Y-22253355D01*
X52621641Y-22186201D01*
X52594094Y-22118358D01*
X52572737Y-22061034D01*
X52566935Y-22043572D01*
X52550452Y-21996938D01*
X52534340Y-21960905D01*
X52525490Y-21947287D01*
X52505960Y-21938952D01*
X52463334Y-21927137D01*
X52403145Y-21913181D01*
X52330922Y-21898422D01*
X52298600Y-21892355D01*
X52216522Y-21877273D01*
X52137795Y-21862669D01*
X52070109Y-21849980D01*
X52021160Y-21840642D01*
X52011943Y-21838839D01*
X51935743Y-21823799D01*
X51935743Y-21506492D01*
X51935914Y-21402154D01*
X51936616Y-21323213D01*
X51938134Y-21266038D01*
X51940749Y-21226999D01*
X51944746Y-21202465D01*
X51950409Y-21188805D01*
X51958020Y-21182389D01*
X51961143Y-21181199D01*
X51979978Y-21176980D01*
X52021588Y-21168562D01*
X52080630Y-21156961D01*
X52151757Y-21143195D01*
X52229625Y-21128280D01*
X52308887Y-21113232D01*
X52384198Y-21099069D01*
X52450213Y-21086806D01*
X52501587Y-21077461D01*
X52532975Y-21072050D01*
X52539959Y-21071114D01*
X52546285Y-21058596D01*
X52560290Y-21025246D01*
X52579355Y-20977377D01*
X52586634Y-20958629D01*
X52615996Y-20886195D01*
X52650571Y-20806170D01*
X52681537Y-20738728D01*
X52704323Y-20687159D01*
X52719482Y-20644785D01*
X52724542Y-20618834D01*
X52723736Y-20615356D01*
X52713041Y-20598936D01*
X52688620Y-20562417D01*
X52653095Y-20509687D01*
X52609087Y-20444635D01*
X52559217Y-20371151D01*
X52549356Y-20356645D01*
X52491492Y-20270704D01*
X52448956Y-20205261D01*
X52420054Y-20157304D01*
X52403090Y-20123820D01*
X52396367Y-20101795D01*
X52398190Y-20088217D01*
X52398236Y-20088131D01*
X52412586Y-20070297D01*
X52444323Y-20035817D01*
X52490010Y-19988268D01*
X52546204Y-19931222D01*
X52609468Y-19868255D01*
X52616602Y-19861227D01*
X52696330Y-19784020D01*
X52757857Y-19727330D01*
X52802421Y-19690110D01*
X52831257Y-19671315D01*
X52843958Y-19668889D01*
X52862494Y-19679471D01*
X52900961Y-19703916D01*
X52955386Y-19739612D01*
X53021798Y-19783947D01*
X53096225Y-19834311D01*
X53113601Y-19846160D01*
X53360297Y-20014626D01*
X53471706Y-19964062D01*
X53539457Y-19934595D01*
X53612183Y-19904959D01*
X53674703Y-19881330D01*
X53677457Y-19880358D01*
X53726360Y-19862457D01*
X53764057Y-19847320D01*
X53782425Y-19838210D01*
X53782456Y-19838184D01*
X53788285Y-19821717D01*
X53798192Y-19781219D01*
X53811195Y-19721242D01*
X53826309Y-19646340D01*
X53842552Y-19561064D01*
X53843881Y-19553875D01*
X53860175Y-19466014D01*
X53875133Y-19386260D01*
X53887791Y-19319681D01*
X53897186Y-19271347D01*
X53902354Y-19246325D01*
X53902444Y-19245943D01*
X53905589Y-19235299D01*
X53911704Y-19227262D01*
X53924453Y-19221467D01*
X53947500Y-19217547D01*
X53984509Y-19215135D01*
X54039144Y-19213865D01*
X54115067Y-19213371D01*
X54215944Y-19213286D01*
X54229000Y-19213286D01*
X54332910Y-19213348D01*
G36*
X57382595Y-23937966D02*
G01*
X57440021Y-23975497D01*
X57467719Y-24009096D01*
X57489662Y-24070064D01*
X57491405Y-24118308D01*
X57487457Y-24182816D01*
X57338686Y-24247934D01*
X57266349Y-24281202D01*
X57219084Y-24307964D01*
X57194507Y-24331144D01*
X57190237Y-24353667D01*
X57203889Y-24378455D01*
X57218943Y-24394886D01*
X57262746Y-24421235D01*
X57310389Y-24423081D01*
X57354145Y-24402546D01*
X57386289Y-24361752D01*
X57392038Y-24347347D01*
X57419576Y-24302356D01*
X57451258Y-24283182D01*
X57494714Y-24266779D01*
X57494714Y-24328966D01*
X57490872Y-24371283D01*
X57475823Y-24406969D01*
X57444280Y-24447943D01*
X57439592Y-24453267D01*
X57404506Y-24489720D01*
X57374347Y-24509283D01*
X57336615Y-24518283D01*
X57305335Y-24521230D01*
X57249385Y-24521965D01*
X57209555Y-24512660D01*
X57184708Y-24498846D01*
X57145656Y-24468467D01*
X57118625Y-24435613D01*
X57101517Y-24394294D01*
X57092238Y-24338521D01*
X57088693Y-24262305D01*
X57088410Y-24223622D01*
X57089372Y-24177247D01*
X57177007Y-24177247D01*
X57178023Y-24202126D01*
X57180556Y-24206200D01*
X57197274Y-24200665D01*
X57233249Y-24186017D01*
X57281331Y-24165190D01*
X57291386Y-24160714D01*
X57352152Y-24129814D01*
X57385632Y-24102657D01*
X57392990Y-24077220D01*
X57375391Y-24051481D01*
X57360856Y-24040109D01*
X57308410Y-24017364D01*
X57259322Y-24021122D01*
X57218227Y-24048884D01*
X57189758Y-24098152D01*
X57180631Y-24137257D01*
X57177007Y-24177247D01*
X57089372Y-24177247D01*
X57090285Y-24133249D01*
X57097196Y-24066384D01*
X57110884Y-24017695D01*
X57133096Y-23981849D01*
X57165574Y-23953513D01*
X57179733Y-23944355D01*
X57244053Y-23920507D01*
X57314473Y-23919006D01*
X57382595Y-23937966D01*
G37*
X57382595Y-23937966D02*
X57440021Y-23975497D01*
X57467719Y-24009096D01*
X57489662Y-24070064D01*
X57491405Y-24118308D01*
X57487457Y-24182816D01*
X57338686Y-24247934D01*
X57266349Y-24281202D01*
X57219084Y-24307964D01*
X57194507Y-24331144D01*
X57190237Y-24353667D01*
X57203889Y-24378455D01*
X57218943Y-24394886D01*
X57262746Y-24421235D01*
X57310389Y-24423081D01*
X57354145Y-24402546D01*
X57386289Y-24361752D01*
X57392038Y-24347347D01*
X57419576Y-24302356D01*
X57451258Y-24283182D01*
X57494714Y-24266779D01*
X57494714Y-24328966D01*
X57490872Y-24371283D01*
X57475823Y-24406969D01*
X57444280Y-24447943D01*
X57439592Y-24453267D01*
X57404506Y-24489720D01*
X57374347Y-24509283D01*
X57336615Y-24518283D01*
X57305335Y-24521230D01*
X57249385Y-24521965D01*
X57209555Y-24512660D01*
X57184708Y-24498846D01*
X57145656Y-24468467D01*
X57118625Y-24435613D01*
X57101517Y-24394294D01*
X57092238Y-24338521D01*
X57088693Y-24262305D01*
X57088410Y-24223622D01*
X57089372Y-24177247D01*
X57177007Y-24177247D01*
X57178023Y-24202126D01*
X57180556Y-24206200D01*
X57197274Y-24200665D01*
X57233249Y-24186017D01*
X57281331Y-24165190D01*
X57291386Y-24160714D01*
X57352152Y-24129814D01*
X57385632Y-24102657D01*
X57392990Y-24077220D01*
X57375391Y-24051481D01*
X57360856Y-24040109D01*
X57308410Y-24017364D01*
X57259322Y-24021122D01*
X57218227Y-24048884D01*
X57189758Y-24098152D01*
X57180631Y-24137257D01*
X57177007Y-24177247D01*
X57089372Y-24177247D01*
X57090285Y-24133249D01*
X57097196Y-24066384D01*
X57110884Y-24017695D01*
X57133096Y-23981849D01*
X57165574Y-23953513D01*
X57179733Y-23944355D01*
X57244053Y-23920507D01*
X57314473Y-23919006D01*
X57382595Y-23937966D01*
G36*
X56881600Y-23929752D02*
G01*
X56898948Y-23937334D01*
X56940356Y-23970128D01*
X56975765Y-24017547D01*
X56997664Y-24068151D01*
X57001229Y-24093098D01*
X56989279Y-24127927D01*
X56963067Y-24146357D01*
X56934964Y-24157516D01*
X56922095Y-24159572D01*
X56915829Y-24144649D01*
X56903456Y-24112175D01*
X56898028Y-24097502D01*
X56867590Y-24046744D01*
X56823520Y-24021427D01*
X56767010Y-24022206D01*
X56762825Y-24023203D01*
X56732655Y-24037507D01*
X56710476Y-24065393D01*
X56695327Y-24110287D01*
X56686250Y-24175615D01*
X56682286Y-24264804D01*
X56681914Y-24312261D01*
X56681730Y-24387071D01*
X56680522Y-24438069D01*
X56677309Y-24470471D01*
X56671109Y-24489495D01*
X56660940Y-24500356D01*
X56645819Y-24508272D01*
X56644946Y-24508670D01*
X56615828Y-24520981D01*
X56601403Y-24525514D01*
X56599186Y-24511809D01*
X56597289Y-24473925D01*
X56595847Y-24416715D01*
X56594998Y-24345027D01*
X56594829Y-24292565D01*
X56595692Y-24191047D01*
X56599070Y-24114032D01*
X56606142Y-24057023D01*
X56618088Y-24015526D01*
X56636090Y-23985043D01*
X56661327Y-23961080D01*
X56686247Y-23944355D01*
X56746171Y-23922097D01*
X56815911Y-23917076D01*
X56881600Y-23929752D01*
G37*
X56881600Y-23929752D02*
X56898948Y-23937334D01*
X56940356Y-23970128D01*
X56975765Y-24017547D01*
X56997664Y-24068151D01*
X57001229Y-24093098D01*
X56989279Y-24127927D01*
X56963067Y-24146357D01*
X56934964Y-24157516D01*
X56922095Y-24159572D01*
X56915829Y-24144649D01*
X56903456Y-24112175D01*
X56898028Y-24097502D01*
X56867590Y-24046744D01*
X56823520Y-24021427D01*
X56767010Y-24022206D01*
X56762825Y-24023203D01*
X56732655Y-24037507D01*
X56710476Y-24065393D01*
X56695327Y-24110287D01*
X56686250Y-24175615D01*
X56682286Y-24264804D01*
X56681914Y-24312261D01*
X56681730Y-24387071D01*
X56680522Y-24438069D01*
X56677309Y-24470471D01*
X56671109Y-24489495D01*
X56660940Y-24500356D01*
X56645819Y-24508272D01*
X56644946Y-24508670D01*
X56615828Y-24520981D01*
X56601403Y-24525514D01*
X56599186Y-24511809D01*
X56597289Y-24473925D01*
X56595847Y-24416715D01*
X56594998Y-24345027D01*
X56594829Y-24292565D01*
X56595692Y-24191047D01*
X56599070Y-24114032D01*
X56606142Y-24057023D01*
X56618088Y-24015526D01*
X56636090Y-23985043D01*
X56661327Y-23961080D01*
X56686247Y-23944355D01*
X56746171Y-23922097D01*
X56815911Y-23917076D01*
X56881600Y-23929752D01*
G36*
X56373876Y-23927335D02*
G01*
X56415667Y-23946344D01*
X56448469Y-23969378D01*
X56472503Y-23995133D01*
X56489097Y-24028358D01*
X56499577Y-24073800D01*
X56505271Y-24136207D01*
X56507507Y-24220327D01*
X56507743Y-24275721D01*
X56507743Y-24491826D01*
X56470774Y-24508670D01*
X56441656Y-24520981D01*
X56427231Y-24525514D01*
X56424472Y-24512025D01*
X56422282Y-24475653D01*
X56420942Y-24422542D01*
X56420657Y-24380372D01*
X56419434Y-24319447D01*
X56416136Y-24271115D01*
X56411321Y-24241518D01*
X56407496Y-24235229D01*
X56381783Y-24241652D01*
X56341418Y-24258125D01*
X56294679Y-24280458D01*
X56249845Y-24304457D01*
X56215193Y-24325930D01*
X56199002Y-24340685D01*
X56198938Y-24340845D01*
X56200330Y-24368152D01*
X56212818Y-24394219D01*
X56234743Y-24415392D01*
X56266743Y-24422474D01*
X56294092Y-24421649D01*
X56332826Y-24421042D01*
X56353158Y-24430116D01*
X56365369Y-24454092D01*
X56366909Y-24458613D01*
X56372203Y-24492806D01*
X56358047Y-24513568D01*
X56321148Y-24523462D01*
X56281289Y-24525292D01*
X56209562Y-24511727D01*
X56172432Y-24492355D01*
X56126576Y-24446845D01*
X56102256Y-24390983D01*
X56100073Y-24331957D01*
X56120629Y-24276953D01*
X56151549Y-24242486D01*
X56182420Y-24223189D01*
X56230942Y-24198759D01*
X56287485Y-24173985D01*
X56296910Y-24170199D01*
X56359019Y-24142791D01*
X56394822Y-24118634D01*
X56406337Y-24094619D01*
X56395580Y-24067635D01*
X56377114Y-24046543D01*
X56333469Y-24020572D01*
X56285446Y-24018624D01*
X56241406Y-24038637D01*
X56209709Y-24078551D01*
X56205549Y-24088848D01*
X56181327Y-24126724D01*
X56145965Y-24154842D01*
X56101343Y-24177917D01*
X56101343Y-24112485D01*
X56103969Y-24072506D01*
X56115230Y-24040997D01*
X56140199Y-24007378D01*
X56164169Y-23981484D01*
X56201441Y-23944817D01*
X56230401Y-23925121D01*
X56261505Y-23917220D01*
X56296713Y-23915914D01*
X56373876Y-23927335D01*
G37*
X56373876Y-23927335D02*
X56415667Y-23946344D01*
X56448469Y-23969378D01*
X56472503Y-23995133D01*
X56489097Y-24028358D01*
X56499577Y-24073800D01*
X56505271Y-24136207D01*
X56507507Y-24220327D01*
X56507743Y-24275721D01*
X56507743Y-24491826D01*
X56470774Y-24508670D01*
X56441656Y-24520981D01*
X56427231Y-24525514D01*
X56424472Y-24512025D01*
X56422282Y-24475653D01*
X56420942Y-24422542D01*
X56420657Y-24380372D01*
X56419434Y-24319447D01*
X56416136Y-24271115D01*
X56411321Y-24241518D01*
X56407496Y-24235229D01*
X56381783Y-24241652D01*
X56341418Y-24258125D01*
X56294679Y-24280458D01*
X56249845Y-24304457D01*
X56215193Y-24325930D01*
X56199002Y-24340685D01*
X56198938Y-24340845D01*
X56200330Y-24368152D01*
X56212818Y-24394219D01*
X56234743Y-24415392D01*
X56266743Y-24422474D01*
X56294092Y-24421649D01*
X56332826Y-24421042D01*
X56353158Y-24430116D01*
X56365369Y-24454092D01*
X56366909Y-24458613D01*
X56372203Y-24492806D01*
X56358047Y-24513568D01*
X56321148Y-24523462D01*
X56281289Y-24525292D01*
X56209562Y-24511727D01*
X56172432Y-24492355D01*
X56126576Y-24446845D01*
X56102256Y-24390983D01*
X56100073Y-24331957D01*
X56120629Y-24276953D01*
X56151549Y-24242486D01*
X56182420Y-24223189D01*
X56230942Y-24198759D01*
X56287485Y-24173985D01*
X56296910Y-24170199D01*
X56359019Y-24142791D01*
X56394822Y-24118634D01*
X56406337Y-24094619D01*
X56395580Y-24067635D01*
X56377114Y-24046543D01*
X56333469Y-24020572D01*
X56285446Y-24018624D01*
X56241406Y-24038637D01*
X56209709Y-24078551D01*
X56205549Y-24088848D01*
X56181327Y-24126724D01*
X56145965Y-24154842D01*
X56101343Y-24177917D01*
X56101343Y-24112485D01*
X56103969Y-24072506D01*
X56115230Y-24040997D01*
X56140199Y-24007378D01*
X56164169Y-23981484D01*
X56201441Y-23944817D01*
X56230401Y-23925121D01*
X56261505Y-23917220D01*
X56296713Y-23915914D01*
X56373876Y-23927335D01*
G36*
X56008833Y-23929663D02*
G01*
X56011048Y-23967850D01*
X56012784Y-24025886D01*
X56013899Y-24099180D01*
X56014257Y-24176055D01*
X56014257Y-24436196D01*
X55968326Y-24482127D01*
X55936675Y-24510429D01*
X55908890Y-24521893D01*
X55870915Y-24521168D01*
X55855840Y-24519321D01*
X55808726Y-24513948D01*
X55769756Y-24510869D01*
X55760257Y-24510585D01*
X55728233Y-24512445D01*
X55682432Y-24517114D01*
X55664674Y-24519321D01*
X55621057Y-24522735D01*
X55591745Y-24515320D01*
X55562680Y-24492427D01*
X55552188Y-24482127D01*
X55506257Y-24436196D01*
X55506257Y-23949602D01*
X55543226Y-23932758D01*
X55575059Y-23920282D01*
X55593683Y-23915914D01*
X55598458Y-23929718D01*
X55602921Y-23968286D01*
X55606775Y-24027356D01*
X55609722Y-24102663D01*
X55611143Y-24166286D01*
X55615114Y-24416657D01*
X55649759Y-24421556D01*
X55681268Y-24418131D01*
X55696708Y-24407041D01*
X55701023Y-24386308D01*
X55704708Y-24342145D01*
X55707469Y-24280146D01*
X55709012Y-24205909D01*
X55709235Y-24167706D01*
X55709457Y-23947783D01*
X55755166Y-23931849D01*
X55787518Y-23921015D01*
X55805115Y-23915962D01*
X55805623Y-23915914D01*
X55807388Y-23929648D01*
X55809329Y-23967730D01*
X55811282Y-24025482D01*
X55813084Y-24098227D01*
X55814343Y-24166286D01*
X55818314Y-24416657D01*
X55905400Y-24416657D01*
X55909396Y-24188240D01*
X55913392Y-23959822D01*
X55955847Y-23937868D01*
X55987192Y-23922793D01*
X56005744Y-23915951D01*
X56006279Y-23915914D01*
X56008833Y-23929663D01*
G37*
X56008833Y-23929663D02*
X56011048Y-23967850D01*
X56012784Y-24025886D01*
X56013899Y-24099180D01*
X56014257Y-24176055D01*
X56014257Y-24436196D01*
X55968326Y-24482127D01*
X55936675Y-24510429D01*
X55908890Y-24521893D01*
X55870915Y-24521168D01*
X55855840Y-24519321D01*
X55808726Y-24513948D01*
X55769756Y-24510869D01*
X55760257Y-24510585D01*
X55728233Y-24512445D01*
X55682432Y-24517114D01*
X55664674Y-24519321D01*
X55621057Y-24522735D01*
X55591745Y-24515320D01*
X55562680Y-24492427D01*
X55552188Y-24482127D01*
X55506257Y-24436196D01*
X55506257Y-23949602D01*
X55543226Y-23932758D01*
X55575059Y-23920282D01*
X55593683Y-23915914D01*
X55598458Y-23929718D01*
X55602921Y-23968286D01*
X55606775Y-24027356D01*
X55609722Y-24102663D01*
X55611143Y-24166286D01*
X55615114Y-24416657D01*
X55649759Y-24421556D01*
X55681268Y-24418131D01*
X55696708Y-24407041D01*
X55701023Y-24386308D01*
X55704708Y-24342145D01*
X55707469Y-24280146D01*
X55709012Y-24205909D01*
X55709235Y-24167706D01*
X55709457Y-23947783D01*
X55755166Y-23931849D01*
X55787518Y-23921015D01*
X55805115Y-23915962D01*
X55805623Y-23915914D01*
X55807388Y-23929648D01*
X55809329Y-23967730D01*
X55811282Y-24025482D01*
X55813084Y-24098227D01*
X55814343Y-24166286D01*
X55818314Y-24416657D01*
X55905400Y-24416657D01*
X55909396Y-24188240D01*
X55913392Y-23959822D01*
X55955847Y-23937868D01*
X55987192Y-23922793D01*
X56005744Y-23915951D01*
X56006279Y-23915914D01*
X56008833Y-23929663D01*
G36*
X55419117Y-24036358D02*
G01*
X55418933Y-24144837D01*
X55418219Y-24228287D01*
X55416675Y-24290704D01*
X55414001Y-24336085D01*
X55409894Y-24368429D01*
X55404055Y-24391733D01*
X55396182Y-24409995D01*
X55390221Y-24420418D01*
X55340855Y-24476945D01*
X55278264Y-24512377D01*
X55209013Y-24525090D01*
X55139668Y-24513463D01*
X55098375Y-24492568D01*
X55055025Y-24456422D01*
X55025481Y-24412276D01*
X55007655Y-24354462D01*
X54999463Y-24277313D01*
X54998302Y-24220714D01*
X54998458Y-24216647D01*
X55099857Y-24216647D01*
X55100476Y-24281550D01*
X55103314Y-24324514D01*
X55109840Y-24352622D01*
X55121523Y-24372953D01*
X55135483Y-24388288D01*
X55182365Y-24417890D01*
X55232701Y-24420419D01*
X55280276Y-24395705D01*
X55283979Y-24392356D01*
X55299783Y-24374935D01*
X55309693Y-24354209D01*
X55315058Y-24323362D01*
X55317228Y-24275577D01*
X55317571Y-24222748D01*
X55316827Y-24156381D01*
X55313748Y-24112106D01*
X55307061Y-24083009D01*
X55295496Y-24062173D01*
X55286013Y-24051107D01*
X55241960Y-24023198D01*
X55191224Y-24019843D01*
X55142796Y-24041159D01*
X55133450Y-24049073D01*
X55117540Y-24066647D01*
X55107610Y-24087587D01*
X55102278Y-24118782D01*
X55100163Y-24167122D01*
X55099857Y-24216647D01*
X54998458Y-24216647D01*
X55001810Y-24129568D01*
X55013726Y-24061086D01*
X55036135Y-24009600D01*
X55071124Y-23969443D01*
X55098375Y-23948861D01*
X55147907Y-23926625D01*
X55205316Y-23916304D01*
X55258682Y-23919067D01*
X55288543Y-23930212D01*
X55300261Y-23933383D01*
X55308037Y-23921557D01*
X55313465Y-23889866D01*
X55317571Y-23841593D01*
X55322067Y-23787829D01*
X55328313Y-23755482D01*
X55339676Y-23736985D01*
X55359528Y-23724770D01*
X55372000Y-23719362D01*
X55419171Y-23699601D01*
X55419117Y-24036358D01*
G37*
X55419117Y-24036358D02*
X55418933Y-24144837D01*
X55418219Y-24228287D01*
X55416675Y-24290704D01*
X55414001Y-24336085D01*
X55409894Y-24368429D01*
X55404055Y-24391733D01*
X55396182Y-24409995D01*
X55390221Y-24420418D01*
X55340855Y-24476945D01*
X55278264Y-24512377D01*
X55209013Y-24525090D01*
X55139668Y-24513463D01*
X55098375Y-24492568D01*
X55055025Y-24456422D01*
X55025481Y-24412276D01*
X55007655Y-24354462D01*
X54999463Y-24277313D01*
X54998302Y-24220714D01*
X54998458Y-24216647D01*
X55099857Y-24216647D01*
X55100476Y-24281550D01*
X55103314Y-24324514D01*
X55109840Y-24352622D01*
X55121523Y-24372953D01*
X55135483Y-24388288D01*
X55182365Y-24417890D01*
X55232701Y-24420419D01*
X55280276Y-24395705D01*
X55283979Y-24392356D01*
X55299783Y-24374935D01*
X55309693Y-24354209D01*
X55315058Y-24323362D01*
X55317228Y-24275577D01*
X55317571Y-24222748D01*
X55316827Y-24156381D01*
X55313748Y-24112106D01*
X55307061Y-24083009D01*
X55295496Y-24062173D01*
X55286013Y-24051107D01*
X55241960Y-24023198D01*
X55191224Y-24019843D01*
X55142796Y-24041159D01*
X55133450Y-24049073D01*
X55117540Y-24066647D01*
X55107610Y-24087587D01*
X55102278Y-24118782D01*
X55100163Y-24167122D01*
X55099857Y-24216647D01*
X54998458Y-24216647D01*
X55001810Y-24129568D01*
X55013726Y-24061086D01*
X55036135Y-24009600D01*
X55071124Y-23969443D01*
X55098375Y-23948861D01*
X55147907Y-23926625D01*
X55205316Y-23916304D01*
X55258682Y-23919067D01*
X55288543Y-23930212D01*
X55300261Y-23933383D01*
X55308037Y-23921557D01*
X55313465Y-23889866D01*
X55317571Y-23841593D01*
X55322067Y-23787829D01*
X55328313Y-23755482D01*
X55339676Y-23736985D01*
X55359528Y-23724770D01*
X55372000Y-23719362D01*
X55419171Y-23699601D01*
X55419117Y-24036358D01*
G36*
X54758926Y-23920755D02*
G01*
X54824858Y-23945084D01*
X54878273Y-23988117D01*
X54899164Y-24018409D01*
X54921939Y-24073994D01*
X54921466Y-24114186D01*
X54897562Y-24141217D01*
X54888717Y-24145813D01*
X54850530Y-24160144D01*
X54831028Y-24156472D01*
X54824422Y-24132407D01*
X54824086Y-24119114D01*
X54811992Y-24070210D01*
X54780471Y-24035999D01*
X54736659Y-24019476D01*
X54687695Y-24023634D01*
X54647894Y-24045227D01*
X54634450Y-24057544D01*
X54624921Y-24072487D01*
X54618485Y-24095075D01*
X54614317Y-24130328D01*
X54611597Y-24183266D01*
X54609502Y-24258907D01*
X54608960Y-24282857D01*
X54606981Y-24364790D01*
X54604731Y-24422455D01*
X54601357Y-24460608D01*
X54596006Y-24484004D01*
X54587824Y-24497398D01*
X54575959Y-24505545D01*
X54568362Y-24509144D01*
X54536102Y-24521452D01*
X54517111Y-24525514D01*
X54510836Y-24511948D01*
X54507006Y-24470934D01*
X54505600Y-24401999D01*
X54506598Y-24304669D01*
X54506908Y-24289657D01*
X54509101Y-24200859D01*
X54511693Y-24136019D01*
X54515382Y-24090067D01*
X54520864Y-24057935D01*
X54528835Y-24034553D01*
X54539993Y-24014852D01*
X54545830Y-24006410D01*
X54579296Y-23969057D01*
X54616727Y-23940003D01*
X54621309Y-23937467D01*
X54688426Y-23917443D01*
X54758926Y-23920755D01*
G37*
X54758926Y-23920755D02*
X54824858Y-23945084D01*
X54878273Y-23988117D01*
X54899164Y-24018409D01*
X54921939Y-24073994D01*
X54921466Y-24114186D01*
X54897562Y-24141217D01*
X54888717Y-24145813D01*
X54850530Y-24160144D01*
X54831028Y-24156472D01*
X54824422Y-24132407D01*
X54824086Y-24119114D01*
X54811992Y-24070210D01*
X54780471Y-24035999D01*
X54736659Y-24019476D01*
X54687695Y-24023634D01*
X54647894Y-24045227D01*
X54634450Y-24057544D01*
X54624921Y-24072487D01*
X54618485Y-24095075D01*
X54614317Y-24130328D01*
X54611597Y-24183266D01*
X54609502Y-24258907D01*
X54608960Y-24282857D01*
X54606981Y-24364790D01*
X54604731Y-24422455D01*
X54601357Y-24460608D01*
X54596006Y-24484004D01*
X54587824Y-24497398D01*
X54575959Y-24505545D01*
X54568362Y-24509144D01*
X54536102Y-24521452D01*
X54517111Y-24525514D01*
X54510836Y-24511948D01*
X54507006Y-24470934D01*
X54505600Y-24401999D01*
X54506598Y-24304669D01*
X54506908Y-24289657D01*
X54509101Y-24200859D01*
X54511693Y-24136019D01*
X54515382Y-24090067D01*
X54520864Y-24057935D01*
X54528835Y-24034553D01*
X54539993Y-24014852D01*
X54545830Y-24006410D01*
X54579296Y-23969057D01*
X54616727Y-23940003D01*
X54621309Y-23937467D01*
X54688426Y-23917443D01*
X54758926Y-23920755D01*
G36*
X54268744Y-23921968D02*
G01*
X54325616Y-23943087D01*
X54326267Y-23943493D01*
X54361440Y-23969380D01*
X54387407Y-23999633D01*
X54405670Y-24039058D01*
X54417732Y-24092462D01*
X54425096Y-24164651D01*
X54429264Y-24260432D01*
X54429629Y-24274078D01*
X54434876Y-24479842D01*
X54390716Y-24502678D01*
X54358763Y-24518110D01*
X54339470Y-24525423D01*
X54338578Y-24525514D01*
X54335239Y-24512022D01*
X54332587Y-24475626D01*
X54330956Y-24422452D01*
X54330600Y-24379393D01*
X54330592Y-24309641D01*
X54327403Y-24265837D01*
X54316288Y-24244944D01*
X54292501Y-24243925D01*
X54251296Y-24259741D01*
X54189086Y-24288815D01*
X54143341Y-24312963D01*
X54119813Y-24333913D01*
X54112896Y-24356747D01*
X54112886Y-24357877D01*
X54124299Y-24397212D01*
X54158092Y-24418462D01*
X54209809Y-24421539D01*
X54247061Y-24421006D01*
X54266703Y-24431735D01*
X54278952Y-24457505D01*
X54286002Y-24490337D01*
X54275842Y-24508966D01*
X54272017Y-24511632D01*
X54236001Y-24522340D01*
X54185566Y-24523856D01*
X54133626Y-24516759D01*
X54096822Y-24503788D01*
X54045938Y-24460585D01*
X54017014Y-24400446D01*
X54011286Y-24353462D01*
X54015657Y-24311082D01*
X54031475Y-24276488D01*
X54062797Y-24245763D01*
X54113678Y-24214990D01*
X54188176Y-24180252D01*
X54192714Y-24178288D01*
X54259821Y-24147287D01*
X54301232Y-24121862D01*
X54318981Y-24099014D01*
X54315107Y-24075745D01*
X54291643Y-24049056D01*
X54284627Y-24042914D01*
X54237630Y-24019100D01*
X54188933Y-24020103D01*
X54146522Y-24043451D01*
X54118384Y-24086675D01*
X54115769Y-24095160D01*
X54090308Y-24136308D01*
X54058001Y-24156128D01*
X54011286Y-24175770D01*
X54011286Y-24124950D01*
X54025496Y-24051082D01*
X54067675Y-23983327D01*
X54089624Y-23960661D01*
X54139517Y-23931569D01*
X54202967Y-23918400D01*
X54268744Y-23921968D01*
G37*
X54268744Y-23921968D02*
X54325616Y-23943087D01*
X54326267Y-23943493D01*
X54361440Y-23969380D01*
X54387407Y-23999633D01*
X54405670Y-24039058D01*
X54417732Y-24092462D01*
X54425096Y-24164651D01*
X54429264Y-24260432D01*
X54429629Y-24274078D01*
X54434876Y-24479842D01*
X54390716Y-24502678D01*
X54358763Y-24518110D01*
X54339470Y-24525423D01*
X54338578Y-24525514D01*
X54335239Y-24512022D01*
X54332587Y-24475626D01*
X54330956Y-24422452D01*
X54330600Y-24379393D01*
X54330592Y-24309641D01*
X54327403Y-24265837D01*
X54316288Y-24244944D01*
X54292501Y-24243925D01*
X54251296Y-24259741D01*
X54189086Y-24288815D01*
X54143341Y-24312963D01*
X54119813Y-24333913D01*
X54112896Y-24356747D01*
X54112886Y-24357877D01*
X54124299Y-24397212D01*
X54158092Y-24418462D01*
X54209809Y-24421539D01*
X54247061Y-24421006D01*
X54266703Y-24431735D01*
X54278952Y-24457505D01*
X54286002Y-24490337D01*
X54275842Y-24508966D01*
X54272017Y-24511632D01*
X54236001Y-24522340D01*
X54185566Y-24523856D01*
X54133626Y-24516759D01*
X54096822Y-24503788D01*
X54045938Y-24460585D01*
X54017014Y-24400446D01*
X54011286Y-24353462D01*
X54015657Y-24311082D01*
X54031475Y-24276488D01*
X54062797Y-24245763D01*
X54113678Y-24214990D01*
X54188176Y-24180252D01*
X54192714Y-24178288D01*
X54259821Y-24147287D01*
X54301232Y-24121862D01*
X54318981Y-24099014D01*
X54315107Y-24075745D01*
X54291643Y-24049056D01*
X54284627Y-24042914D01*
X54237630Y-24019100D01*
X54188933Y-24020103D01*
X54146522Y-24043451D01*
X54118384Y-24086675D01*
X54115769Y-24095160D01*
X54090308Y-24136308D01*
X54058001Y-24156128D01*
X54011286Y-24175770D01*
X54011286Y-24124950D01*
X54025496Y-24051082D01*
X54067675Y-23983327D01*
X54089624Y-23960661D01*
X54139517Y-23931569D01*
X54202967Y-23918400D01*
X54268744Y-23921968D01*
G36*
X53604886Y-23822289D02*
G01*
X53609139Y-23881613D01*
X53614025Y-23916572D01*
X53620795Y-23931820D01*
X53630702Y-23932015D01*
X53633914Y-23930195D01*
X53676644Y-23917015D01*
X53732227Y-23917785D01*
X53788737Y-23931333D01*
X53824082Y-23948861D01*
X53860321Y-23976861D01*
X53886813Y-24008549D01*
X53904999Y-24048813D01*
X53916322Y-24102543D01*
X53922222Y-24174626D01*
X53924143Y-24269951D01*
X53924177Y-24288237D01*
X53924200Y-24493646D01*
X53878491Y-24509580D01*
X53846027Y-24520420D01*
X53828215Y-24525468D01*
X53827691Y-24525514D01*
X53825937Y-24511828D01*
X53824444Y-24474076D01*
X53823326Y-24417224D01*
X53822697Y-24346234D01*
X53822600Y-24303073D01*
X53822398Y-24217973D01*
X53821358Y-24156981D01*
X53818831Y-24115177D01*
X53814164Y-24087642D01*
X53806707Y-24069456D01*
X53795811Y-24055698D01*
X53789007Y-24049073D01*
X53742272Y-24022375D01*
X53691272Y-24020375D01*
X53645001Y-24042955D01*
X53636444Y-24051107D01*
X53623893Y-24066436D01*
X53615188Y-24084618D01*
X53609631Y-24110909D01*
X53606526Y-24150562D01*
X53605176Y-24208832D01*
X53604886Y-24289173D01*
X53604886Y-24493646D01*
X53559177Y-24509580D01*
X53526713Y-24520420D01*
X53508901Y-24525468D01*
X53508377Y-24525514D01*
X53507037Y-24511623D01*
X53505828Y-24472439D01*
X53504801Y-24411700D01*
X53504002Y-24333141D01*
X53503481Y-24240498D01*
X53503286Y-24137509D01*
X53503286Y-23740342D01*
X53550457Y-23720444D01*
X53597629Y-23700547D01*
X53604886Y-23822289D01*
G37*
X53604886Y-23822289D02*
X53609139Y-23881613D01*
X53614025Y-23916572D01*
X53620795Y-23931820D01*
X53630702Y-23932015D01*
X53633914Y-23930195D01*
X53676644Y-23917015D01*
X53732227Y-23917785D01*
X53788737Y-23931333D01*
X53824082Y-23948861D01*
X53860321Y-23976861D01*
X53886813Y-24008549D01*
X53904999Y-24048813D01*
X53916322Y-24102543D01*
X53922222Y-24174626D01*
X53924143Y-24269951D01*
X53924177Y-24288237D01*
X53924200Y-24493646D01*
X53878491Y-24509580D01*
X53846027Y-24520420D01*
X53828215Y-24525468D01*
X53827691Y-24525514D01*
X53825937Y-24511828D01*
X53824444Y-24474076D01*
X53823326Y-24417224D01*
X53822697Y-24346234D01*
X53822600Y-24303073D01*
X53822398Y-24217973D01*
X53821358Y-24156981D01*
X53818831Y-24115177D01*
X53814164Y-24087642D01*
X53806707Y-24069456D01*
X53795811Y-24055698D01*
X53789007Y-24049073D01*
X53742272Y-24022375D01*
X53691272Y-24020375D01*
X53645001Y-24042955D01*
X53636444Y-24051107D01*
X53623893Y-24066436D01*
X53615188Y-24084618D01*
X53609631Y-24110909D01*
X53606526Y-24150562D01*
X53605176Y-24208832D01*
X53604886Y-24289173D01*
X53604886Y-24493646D01*
X53559177Y-24509580D01*
X53526713Y-24520420D01*
X53508901Y-24525468D01*
X53508377Y-24525514D01*
X53507037Y-24511623D01*
X53505828Y-24472439D01*
X53504801Y-24411700D01*
X53504002Y-24333141D01*
X53503481Y-24240498D01*
X53503286Y-24137509D01*
X53503286Y-23740342D01*
X53550457Y-23720444D01*
X53597629Y-23700547D01*
X53604886Y-23822289D01*
G36*
X52397303Y-23902239D02*
G01*
X52454527Y-23940735D01*
X52498749Y-23996335D01*
X52525167Y-24067086D01*
X52530510Y-24119162D01*
X52529903Y-24140893D01*
X52524822Y-24157531D01*
X52510855Y-24172437D01*
X52483589Y-24188973D01*
X52438612Y-24210498D01*
X52371511Y-24240374D01*
X52371171Y-24240524D01*
X52309407Y-24268813D01*
X52258759Y-24293933D01*
X52224404Y-24313179D01*
X52211518Y-24323848D01*
X52211514Y-24323934D01*
X52222872Y-24347166D01*
X52249431Y-24372774D01*
X52279923Y-24391221D01*
X52295370Y-24394886D01*
X52337515Y-24382212D01*
X52373808Y-24350471D01*
X52391517Y-24315572D01*
X52408552Y-24289845D01*
X52441922Y-24260546D01*
X52481149Y-24235235D01*
X52515756Y-24221471D01*
X52522993Y-24220714D01*
X52531139Y-24233160D01*
X52531630Y-24264972D01*
X52525643Y-24307866D01*
X52514357Y-24353558D01*
X52498950Y-24393761D01*
X52498171Y-24395322D01*
X52451804Y-24460062D01*
X52391711Y-24504097D01*
X52323465Y-24525711D01*
X52252638Y-24523185D01*
X52184804Y-24494804D01*
X52181788Y-24492808D01*
X52128427Y-24444448D01*
X52093340Y-24381352D01*
X52073922Y-24298387D01*
X52071316Y-24275078D01*
X52066701Y-24165055D01*
X52072233Y-24113748D01*
X52211514Y-24113748D01*
X52213324Y-24145753D01*
X52223222Y-24155093D01*
X52247898Y-24148105D01*
X52286795Y-24131587D01*
X52330275Y-24110881D01*
X52331356Y-24110333D01*
X52368209Y-24090949D01*
X52383000Y-24078013D01*
X52379353Y-24064451D01*
X52363995Y-24046632D01*
X52324923Y-24020845D01*
X52282846Y-24018950D01*
X52245103Y-24037717D01*
X52219034Y-24073915D01*
X52211514Y-24113748D01*
X52072233Y-24113748D01*
X52076194Y-24077027D01*
X52100550Y-24007212D01*
X52134456Y-23958302D01*
X52195653Y-23908878D01*
X52263063Y-23884359D01*
X52331880Y-23882797D01*
X52397303Y-23902239D01*
G37*
X52397303Y-23902239D02*
X52454527Y-23940735D01*
X52498749Y-23996335D01*
X52525167Y-24067086D01*
X52530510Y-24119162D01*
X52529903Y-24140893D01*
X52524822Y-24157531D01*
X52510855Y-24172437D01*
X52483589Y-24188973D01*
X52438612Y-24210498D01*
X52371511Y-24240374D01*
X52371171Y-24240524D01*
X52309407Y-24268813D01*
X52258759Y-24293933D01*
X52224404Y-24313179D01*
X52211518Y-24323848D01*
X52211514Y-24323934D01*
X52222872Y-24347166D01*
X52249431Y-24372774D01*
X52279923Y-24391221D01*
X52295370Y-24394886D01*
X52337515Y-24382212D01*
X52373808Y-24350471D01*
X52391517Y-24315572D01*
X52408552Y-24289845D01*
X52441922Y-24260546D01*
X52481149Y-24235235D01*
X52515756Y-24221471D01*
X52522993Y-24220714D01*
X52531139Y-24233160D01*
X52531630Y-24264972D01*
X52525643Y-24307866D01*
X52514357Y-24353558D01*
X52498950Y-24393761D01*
X52498171Y-24395322D01*
X52451804Y-24460062D01*
X52391711Y-24504097D01*
X52323465Y-24525711D01*
X52252638Y-24523185D01*
X52184804Y-24494804D01*
X52181788Y-24492808D01*
X52128427Y-24444448D01*
X52093340Y-24381352D01*
X52073922Y-24298387D01*
X52071316Y-24275078D01*
X52066701Y-24165055D01*
X52072233Y-24113748D01*
X52211514Y-24113748D01*
X52213324Y-24145753D01*
X52223222Y-24155093D01*
X52247898Y-24148105D01*
X52286795Y-24131587D01*
X52330275Y-24110881D01*
X52331356Y-24110333D01*
X52368209Y-24090949D01*
X52383000Y-24078013D01*
X52379353Y-24064451D01*
X52363995Y-24046632D01*
X52324923Y-24020845D01*
X52282846Y-24018950D01*
X52245103Y-24037717D01*
X52219034Y-24073915D01*
X52211514Y-24113748D01*
X52072233Y-24113748D01*
X52076194Y-24077027D01*
X52100550Y-24007212D01*
X52134456Y-23958302D01*
X52195653Y-23908878D01*
X52263063Y-23884359D01*
X52331880Y-23882797D01*
X52397303Y-23902239D01*
G36*
X51270115Y-23892962D02*
G01*
X51338145Y-23928733D01*
X51388351Y-23986301D01*
X51406185Y-24023312D01*
X51420063Y-24078882D01*
X51427167Y-24149096D01*
X51427840Y-24225727D01*
X51422427Y-24300552D01*
X51411270Y-24365342D01*
X51394714Y-24411873D01*
X51389626Y-24419887D01*
X51329355Y-24479707D01*
X51257769Y-24515535D01*
X51180092Y-24526020D01*
X51101548Y-24509810D01*
X51079689Y-24500092D01*
X51037122Y-24470143D01*
X50999763Y-24430433D01*
X50996232Y-24425397D01*
X50981881Y-24401124D01*
X50972394Y-24375178D01*
X50966790Y-24341022D01*
X50964086Y-24292119D01*
X50963299Y-24221935D01*
X50963286Y-24206200D01*
X50963322Y-24201192D01*
X51108429Y-24201192D01*
X51109273Y-24267430D01*
X51112596Y-24311386D01*
X51119583Y-24339779D01*
X51131416Y-24359325D01*
X51137457Y-24365857D01*
X51172186Y-24390680D01*
X51205903Y-24389548D01*
X51239995Y-24368016D01*
X51260329Y-24345029D01*
X51272371Y-24311478D01*
X51279134Y-24258569D01*
X51279598Y-24252399D01*
X51280752Y-24156513D01*
X51268688Y-24085299D01*
X51243570Y-24039194D01*
X51205560Y-24018635D01*
X51191992Y-24017514D01*
X51156364Y-24023152D01*
X51131994Y-24042686D01*
X51117093Y-24080042D01*
X51109875Y-24139150D01*
X51108429Y-24201192D01*
X50963322Y-24201192D01*
X50963826Y-24131413D01*
X50966096Y-24079159D01*
X50971068Y-24042949D01*
X50979713Y-24016299D01*
X50993005Y-23992722D01*
X50995943Y-23988338D01*
X51045313Y-23929249D01*
X51099109Y-23894947D01*
X51164602Y-23881331D01*
X51186842Y-23880665D01*
X51270115Y-23892962D01*
G37*
X51270115Y-23892962D02*
X51338145Y-23928733D01*
X51388351Y-23986301D01*
X51406185Y-24023312D01*
X51420063Y-24078882D01*
X51427167Y-24149096D01*
X51427840Y-24225727D01*
X51422427Y-24300552D01*
X51411270Y-24365342D01*
X51394714Y-24411873D01*
X51389626Y-24419887D01*
X51329355Y-24479707D01*
X51257769Y-24515535D01*
X51180092Y-24526020D01*
X51101548Y-24509810D01*
X51079689Y-24500092D01*
X51037122Y-24470143D01*
X50999763Y-24430433D01*
X50996232Y-24425397D01*
X50981881Y-24401124D01*
X50972394Y-24375178D01*
X50966790Y-24341022D01*
X50964086Y-24292119D01*
X50963299Y-24221935D01*
X50963286Y-24206200D01*
X50963322Y-24201192D01*
X51108429Y-24201192D01*
X51109273Y-24267430D01*
X51112596Y-24311386D01*
X51119583Y-24339779D01*
X51131416Y-24359325D01*
X51137457Y-24365857D01*
X51172186Y-24390680D01*
X51205903Y-24389548D01*
X51239995Y-24368016D01*
X51260329Y-24345029D01*
X51272371Y-24311478D01*
X51279134Y-24258569D01*
X51279598Y-24252399D01*
X51280752Y-24156513D01*
X51268688Y-24085299D01*
X51243570Y-24039194D01*
X51205560Y-24018635D01*
X51191992Y-24017514D01*
X51156364Y-24023152D01*
X51131994Y-24042686D01*
X51117093Y-24080042D01*
X51109875Y-24139150D01*
X51108429Y-24201192D01*
X50963322Y-24201192D01*
X50963826Y-24131413D01*
X50966096Y-24079159D01*
X50971068Y-24042949D01*
X50979713Y-24016299D01*
X50993005Y-23992722D01*
X50995943Y-23988338D01*
X51045313Y-23929249D01*
X51099109Y-23894947D01*
X51164602Y-23881331D01*
X51186842Y-23880665D01*
X51270115Y-23892962D01*
G36*
X52945093Y-23898780D02*
G01*
X52991672Y-23925723D01*
X53024057Y-23952466D01*
X53047742Y-23980484D01*
X53064059Y-24014748D01*
X53074339Y-24060227D01*
X53079914Y-24121892D01*
X53082116Y-24204711D01*
X53082371Y-24264246D01*
X53082371Y-24483391D01*
X53020686Y-24511044D01*
X52959000Y-24538697D01*
X52951743Y-24298670D01*
X52948744Y-24209028D01*
X52945598Y-24143962D01*
X52941701Y-24099026D01*
X52936447Y-24069770D01*
X52929231Y-24051748D01*
X52919450Y-24040511D01*
X52916312Y-24038079D01*
X52868761Y-24019083D01*
X52820697Y-24026600D01*
X52792086Y-24046543D01*
X52780447Y-24060675D01*
X52772391Y-24079220D01*
X52767271Y-24107334D01*
X52764441Y-24150173D01*
X52763256Y-24212895D01*
X52763057Y-24278261D01*
X52763018Y-24360268D01*
X52761614Y-24418316D01*
X52756914Y-24457465D01*
X52746987Y-24482780D01*
X52729903Y-24499323D01*
X52703732Y-24512156D01*
X52668775Y-24525491D01*
X52630596Y-24540007D01*
X52635141Y-24282389D01*
X52636971Y-24189519D01*
X52639112Y-24120889D01*
X52642181Y-24071711D01*
X52646794Y-24037198D01*
X52653568Y-24012562D01*
X52663119Y-23993016D01*
X52674634Y-23975770D01*
X52730190Y-23920680D01*
X52797980Y-23888822D01*
X52871713Y-23881191D01*
X52945093Y-23898780D01*
G37*
X52945093Y-23898780D02*
X52991672Y-23925723D01*
X53024057Y-23952466D01*
X53047742Y-23980484D01*
X53064059Y-24014748D01*
X53074339Y-24060227D01*
X53079914Y-24121892D01*
X53082116Y-24204711D01*
X53082371Y-24264246D01*
X53082371Y-24483391D01*
X53020686Y-24511044D01*
X52959000Y-24538697D01*
X52951743Y-24298670D01*
X52948744Y-24209028D01*
X52945598Y-24143962D01*
X52941701Y-24099026D01*
X52936447Y-24069770D01*
X52929231Y-24051748D01*
X52919450Y-24040511D01*
X52916312Y-24038079D01*
X52868761Y-24019083D01*
X52820697Y-24026600D01*
X52792086Y-24046543D01*
X52780447Y-24060675D01*
X52772391Y-24079220D01*
X52767271Y-24107334D01*
X52764441Y-24150173D01*
X52763256Y-24212895D01*
X52763057Y-24278261D01*
X52763018Y-24360268D01*
X52761614Y-24418316D01*
X52756914Y-24457465D01*
X52746987Y-24482780D01*
X52729903Y-24499323D01*
X52703732Y-24512156D01*
X52668775Y-24525491D01*
X52630596Y-24540007D01*
X52635141Y-24282389D01*
X52636971Y-24189519D01*
X52639112Y-24120889D01*
X52642181Y-24071711D01*
X52646794Y-24037198D01*
X52653568Y-24012562D01*
X52663119Y-23993016D01*
X52674634Y-23975770D01*
X52730190Y-23920680D01*
X52797980Y-23888822D01*
X52871713Y-23881191D01*
X52945093Y-23898780D01*
G36*
X51828744Y-23890918D02*
G01*
X51884201Y-23918568D01*
X51933148Y-23969480D01*
X51946629Y-23988338D01*
X51961314Y-24013015D01*
X51970842Y-24039816D01*
X51976293Y-24075587D01*
X51978747Y-24127169D01*
X51979286Y-24195267D01*
X51976852Y-24288588D01*
X51968394Y-24358657D01*
X51952174Y-24410931D01*
X51926454Y-24450869D01*
X51889497Y-24483929D01*
X51886782Y-24485886D01*
X51850360Y-24505908D01*
X51806502Y-24515815D01*
X51750724Y-24518257D01*
X51660048Y-24518257D01*
X51660010Y-24606283D01*
X51659166Y-24655308D01*
X51654024Y-24684065D01*
X51640587Y-24701311D01*
X51614858Y-24715808D01*
X51608679Y-24718769D01*
X51579764Y-24732648D01*
X51557376Y-24741414D01*
X51540729Y-24742171D01*
X51529036Y-24732023D01*
X51521510Y-24708073D01*
X51517366Y-24667426D01*
X51515815Y-24607186D01*
X51516071Y-24524455D01*
X51517349Y-24416339D01*
X51517748Y-24384000D01*
X51519185Y-24272524D01*
X51520472Y-24199603D01*
X51659971Y-24199603D01*
X51660755Y-24261499D01*
X51664240Y-24301997D01*
X51672124Y-24328708D01*
X51686105Y-24349244D01*
X51695597Y-24359260D01*
X51734404Y-24388567D01*
X51768763Y-24390952D01*
X51804216Y-24366750D01*
X51805114Y-24365857D01*
X51819539Y-24347153D01*
X51828313Y-24321732D01*
X51832739Y-24282584D01*
X51834118Y-24222697D01*
X51834143Y-24209430D01*
X51830812Y-24126901D01*
X51819969Y-24069691D01*
X51800340Y-24034766D01*
X51770650Y-24019094D01*
X51753491Y-24017514D01*
X51712766Y-24024926D01*
X51684832Y-24049330D01*
X51668017Y-24093980D01*
X51660650Y-24162130D01*
X51659971Y-24199603D01*
X51520472Y-24199603D01*
X51520708Y-24186245D01*
X51522677Y-24121333D01*
X51525450Y-24073958D01*
X51529388Y-24040290D01*
X51534849Y-24016498D01*
X51542192Y-23998753D01*
X51551777Y-23983224D01*
X51555887Y-23977381D01*
X51610405Y-23922185D01*
X51679336Y-23890890D01*
X51759072Y-23882165D01*
X51828744Y-23890918D01*
G37*
X51828744Y-23890918D02*
X51884201Y-23918568D01*
X51933148Y-23969480D01*
X51946629Y-23988338D01*
X51961314Y-24013015D01*
X51970842Y-24039816D01*
X51976293Y-24075587D01*
X51978747Y-24127169D01*
X51979286Y-24195267D01*
X51976852Y-24288588D01*
X51968394Y-24358657D01*
X51952174Y-24410931D01*
X51926454Y-24450869D01*
X51889497Y-24483929D01*
X51886782Y-24485886D01*
X51850360Y-24505908D01*
X51806502Y-24515815D01*
X51750724Y-24518257D01*
X51660048Y-24518257D01*
X51660010Y-24606283D01*
X51659166Y-24655308D01*
X51654024Y-24684065D01*
X51640587Y-24701311D01*
X51614858Y-24715808D01*
X51608679Y-24718769D01*
X51579764Y-24732648D01*
X51557376Y-24741414D01*
X51540729Y-24742171D01*
X51529036Y-24732023D01*
X51521510Y-24708073D01*
X51517366Y-24667426D01*
X51515815Y-24607186D01*
X51516071Y-24524455D01*
X51517349Y-24416339D01*
X51517748Y-24384000D01*
X51519185Y-24272524D01*
X51520472Y-24199603D01*
X51659971Y-24199603D01*
X51660755Y-24261499D01*
X51664240Y-24301997D01*
X51672124Y-24328708D01*
X51686105Y-24349244D01*
X51695597Y-24359260D01*
X51734404Y-24388567D01*
X51768763Y-24390952D01*
X51804216Y-24366750D01*
X51805114Y-24365857D01*
X51819539Y-24347153D01*
X51828313Y-24321732D01*
X51832739Y-24282584D01*
X51834118Y-24222697D01*
X51834143Y-24209430D01*
X51830812Y-24126901D01*
X51819969Y-24069691D01*
X51800340Y-24034766D01*
X51770650Y-24019094D01*
X51753491Y-24017514D01*
X51712766Y-24024926D01*
X51684832Y-24049330D01*
X51668017Y-24093980D01*
X51660650Y-24162130D01*
X51659971Y-24199603D01*
X51520472Y-24199603D01*
X51520708Y-24186245D01*
X51522677Y-24121333D01*
X51525450Y-24073958D01*
X51529388Y-24040290D01*
X51534849Y-24016498D01*
X51542192Y-23998753D01*
X51551777Y-23983224D01*
X51555887Y-23977381D01*
X51610405Y-23922185D01*
X51679336Y-23890890D01*
X51759072Y-23882165D01*
X51828744Y-23890918D01*
D10*
X119698000Y-41560800D02*
X120206000Y-41560800D01*
X119698000Y-41560800D02*
X124778000Y-41560800D01*
X124778000Y-41560800D02*
X124778000Y-40036800D01*
X124778000Y-40036800D02*
X119698000Y-40036800D01*
X119698000Y-40036800D02*
X119698000Y-41560800D01*
X119698000Y-41560800D02*
X120206000Y-41560800D01*
X124397000Y-41560800D02*
X124397000Y-40036800D01*
X124524000Y-40036800D02*
X124524000Y-41560800D01*
X124651000Y-41560800D02*
X124651000Y-40036800D01*
X124270000Y-40036800D02*
X124270000Y-41560800D01*
X124143000Y-41560800D02*
X124143000Y-40036800D01*
X124016000Y-41560800D02*
X124016000Y-40036800D01*
X75184000Y-61722000D02*
X75184000Y-61214000D01*
X75184000Y-61722000D02*
X75184000Y-56642000D01*
X75184000Y-56642000D02*
X73660000Y-56642000D01*
X73660000Y-56642000D02*
X73660000Y-61722000D01*
X73660000Y-61722000D02*
X75184000Y-61722000D01*
X75184000Y-61722000D02*
X75184000Y-61214000D01*
X75184000Y-57023000D02*
X73660000Y-57023000D01*
X73660000Y-56896000D02*
X75184000Y-56896000D01*
X75184000Y-56769000D02*
X73660000Y-56769000D01*
X73660000Y-57150000D02*
X75184000Y-57150000D01*
X75184000Y-57277000D02*
X73660000Y-57277000D01*
X75184000Y-57404000D02*
X73660000Y-57404000D01*
X99854000Y-45370800D02*
X100362000Y-45370800D01*
X99854000Y-45370800D02*
X104934000Y-45370800D01*
X104934000Y-45370800D02*
X104934000Y-43846800D01*
X104934000Y-43846800D02*
X99854000Y-43846800D01*
X99854000Y-43846800D02*
X99854000Y-45370800D01*
X99854000Y-45370800D02*
X100362000Y-45370800D01*
X104553000Y-45370800D02*
X104553000Y-43846800D01*
X104680000Y-43846800D02*
X104680000Y-45370800D01*
X104807000Y-45370800D02*
X104807000Y-43846800D01*
X104426000Y-43846800D02*
X104426000Y-45370800D01*
X104299000Y-45370800D02*
X104299000Y-43846800D01*
X104172000Y-45370800D02*
X104172000Y-43846800D01*
X137954000Y-45370800D02*
X138462000Y-45370800D01*
X137954000Y-45370800D02*
X143034000Y-45370800D01*
X143034000Y-45370800D02*
X143034000Y-43846800D01*
X143034000Y-43846800D02*
X137954000Y-43846800D01*
X137954000Y-43846800D02*
X137954000Y-45370800D01*
X137954000Y-45370800D02*
X138462000Y-45370800D01*
X142653000Y-45370800D02*
X142653000Y-43846800D01*
X142780000Y-43846800D02*
X142780000Y-45370800D01*
X142907000Y-45370800D02*
X142907000Y-43846800D01*
X142526000Y-43846800D02*
X142526000Y-45370800D01*
X142399000Y-45370800D02*
X142399000Y-43846800D01*
X142272000Y-45370800D02*
X142272000Y-43846800D01*
X157004000Y-49180800D02*
X157512000Y-49180800D01*
X157004000Y-49180800D02*
X162084000Y-49180800D01*
X162084000Y-49180800D02*
X162084000Y-47656800D01*
X162084000Y-47656800D02*
X157004000Y-47656800D01*
X157004000Y-47656800D02*
X157004000Y-49180800D01*
X157004000Y-49180800D02*
X157512000Y-49180800D01*
X161703000Y-49180800D02*
X161703000Y-47656800D01*
X161830000Y-47656800D02*
X161830000Y-49180800D01*
X161957000Y-49180800D02*
X161957000Y-47656800D01*
X161576000Y-47656800D02*
X161576000Y-49180800D01*
X161449000Y-49180800D02*
X161449000Y-47656800D01*
X161322000Y-49180800D02*
X161322000Y-47656800D01*
X94424500Y-117634000D02*
X94424500Y-117126000D01*
X94424500Y-117634000D02*
X94424500Y-112554000D01*
X94424500Y-112554000D02*
X92900500Y-112554000D01*
X92900500Y-112554000D02*
X92900500Y-117634000D01*
X92900500Y-117634000D02*
X94424500Y-117634000D01*
X94424500Y-117634000D02*
X94424500Y-117126000D01*
X94424500Y-112935000D02*
X92900500Y-112935000D01*
X92900500Y-112808000D02*
X94424500Y-112808000D01*
X94424500Y-112681000D02*
X92900500Y-112681000D01*
X92900500Y-113062000D02*
X94424500Y-113062000D01*
X94424500Y-113189000D02*
X92900500Y-113189000D01*
X94424500Y-113316000D02*
X92900500Y-113316000D01*
X151892000Y-114554000D02*
X151892000Y-114046000D01*
X151892000Y-114554000D02*
X151892000Y-109474000D01*
X151892000Y-109474000D02*
X150368000Y-109474000D01*
X150368000Y-109474000D02*
X150368000Y-114554000D01*
X150368000Y-114554000D02*
X151892000Y-114554000D01*
X151892000Y-114554000D02*
X151892000Y-114046000D01*
X151892000Y-109855000D02*
X150368000Y-109855000D01*
X150368000Y-109728000D02*
X151892000Y-109728000D01*
X151892000Y-109601000D02*
X150368000Y-109601000D01*
X150368000Y-109982000D02*
X151892000Y-109982000D01*
X151892000Y-110109000D02*
X150368000Y-110109000D01*
X151892000Y-110236000D02*
X150368000Y-110236000D01*
X132334000Y-110236000D02*
X132334000Y-109728000D01*
X132334000Y-110236000D02*
X132334000Y-105156000D01*
X132334000Y-105156000D02*
X130810000Y-105156000D01*
X130810000Y-105156000D02*
X130810000Y-110236000D01*
X130810000Y-110236000D02*
X132334000Y-110236000D01*
X132334000Y-110236000D02*
X132334000Y-109728000D01*
X132334000Y-105537000D02*
X130810000Y-105537000D01*
X130810000Y-105410000D02*
X132334000Y-105410000D01*
X132334000Y-105283000D02*
X130810000Y-105283000D01*
X130810000Y-105664000D02*
X132334000Y-105664000D01*
X132334000Y-105791000D02*
X130810000Y-105791000D01*
X132334000Y-105918000D02*
X130810000Y-105918000D01*
X73787000Y-79533800D02*
X73787000Y-79025800D01*
X73787000Y-79533800D02*
X73787000Y-74453800D01*
X73787000Y-74453800D02*
X72263000Y-74453800D01*
X72263000Y-74453800D02*
X72263000Y-79533800D01*
X72263000Y-79533800D02*
X73787000Y-79533800D01*
X73787000Y-79533800D02*
X73787000Y-79025800D01*
X73787000Y-74834800D02*
X72263000Y-74834800D01*
X72263000Y-74707800D02*
X73787000Y-74707800D01*
X73787000Y-74580800D02*
X72263000Y-74580800D01*
X72263000Y-74961800D02*
X73787000Y-74961800D01*
X73787000Y-75088800D02*
X72263000Y-75088800D01*
X73787000Y-75215800D02*
X72263000Y-75215800D01*
X75374500Y-117634000D02*
X75374500Y-117126000D01*
X75374500Y-117634000D02*
X75374500Y-112554000D01*
X75374500Y-112554000D02*
X73850500Y-112554000D01*
X73850500Y-112554000D02*
X73850500Y-117634000D01*
X73850500Y-117634000D02*
X75374500Y-117634000D01*
X75374500Y-117634000D02*
X75374500Y-117126000D01*
X75374500Y-112935000D02*
X73850500Y-112935000D01*
X73850500Y-112808000D02*
X75374500Y-112808000D01*
X75374500Y-112681000D02*
X73850500Y-112681000D01*
X73850500Y-113062000D02*
X75374500Y-113062000D01*
X75374500Y-113189000D02*
X73850500Y-113189000D01*
X75374500Y-113316000D02*
X73850500Y-113316000D01*
X118904000Y-79660800D02*
X119412000Y-79660800D01*
X118904000Y-79660800D02*
X123984000Y-79660800D01*
X123984000Y-79660800D02*
X123984000Y-78136800D01*
X123984000Y-78136800D02*
X118904000Y-78136800D01*
X118904000Y-78136800D02*
X118904000Y-79660800D01*
X118904000Y-79660800D02*
X119412000Y-79660800D01*
X123603000Y-79660800D02*
X123603000Y-78136800D01*
X123730000Y-78136800D02*
X123730000Y-79660800D01*
X123857000Y-79660800D02*
X123857000Y-78136800D01*
X123476000Y-78136800D02*
X123476000Y-79660800D01*
X123349000Y-79660800D02*
X123349000Y-78136800D01*
X123222000Y-79660800D02*
X123222000Y-78136800D01*
X57150000Y-50292000D02*
X57658000Y-50292000D01*
X57150000Y-50292000D02*
X62230000Y-50292000D01*
X62230000Y-50292000D02*
X62230000Y-48768000D01*
X62230000Y-48768000D02*
X57150000Y-48768000D01*
X57150000Y-48768000D02*
X57150000Y-50292000D01*
X57150000Y-50292000D02*
X57658000Y-50292000D01*
X61849000Y-50292000D02*
X61849000Y-48768000D01*
X61976000Y-48768000D02*
X61976000Y-50292000D01*
X62103000Y-50292000D02*
X62103000Y-48768000D01*
X61722000Y-48768000D02*
X61722000Y-50292000D01*
X61595000Y-50292000D02*
X61595000Y-48768000D01*
X61468000Y-50292000D02*
X61468000Y-48768000D01*
X73787000Y-98583800D02*
X73787000Y-98075800D01*
X73787000Y-98583800D02*
X73787000Y-93503800D01*
X73787000Y-93503800D02*
X72263000Y-93503800D01*
X72263000Y-93503800D02*
X72263000Y-98583800D01*
X72263000Y-98583800D02*
X73787000Y-98583800D01*
X73787000Y-98583800D02*
X73787000Y-98075800D01*
X73787000Y-93884800D02*
X72263000Y-93884800D01*
X72263000Y-93757800D02*
X73787000Y-93757800D01*
X73787000Y-93630800D02*
X72263000Y-93630800D01*
X72263000Y-94011800D02*
X73787000Y-94011800D01*
X73787000Y-94138800D02*
X72263000Y-94138800D01*
X73787000Y-94265800D02*
X72263000Y-94265800D01*
X57785000Y-68230800D02*
X58293000Y-68230800D01*
X57785000Y-68230800D02*
X62865000Y-68230800D01*
X62865000Y-68230800D02*
X62865000Y-66706800D01*
X62865000Y-66706800D02*
X57785000Y-66706800D01*
X57785000Y-66706800D02*
X57785000Y-68230800D01*
X57785000Y-68230800D02*
X58293000Y-68230800D01*
X62484000Y-68230800D02*
X62484000Y-66706800D01*
X62611000Y-66706800D02*
X62611000Y-68230800D01*
X62738000Y-68230800D02*
X62738000Y-66706800D01*
X62357000Y-66706800D02*
X62357000Y-68230800D01*
X62230000Y-68230800D02*
X62230000Y-66706800D01*
X62103000Y-68230800D02*
X62103000Y-66706800D01*
X185081943Y-134745156D02*
X185542347Y-134959846D01*
X185081943Y-134745156D02*
X189685987Y-136892057D01*
X189685987Y-136892057D02*
X190330057Y-135510844D01*
X190330057Y-135510844D02*
X185726013Y-133363943D01*
X185726013Y-133363943D02*
X185081943Y-134745156D01*
X185081943Y-134745156D02*
X185542347Y-134959846D01*
X189340683Y-136731039D02*
X189984754Y-135349826D01*
X190099855Y-135403499D02*
X189455784Y-136784712D01*
X189570886Y-136838384D02*
X190214956Y-135457171D01*
X189869653Y-135296154D02*
X189225582Y-136677367D01*
X189110481Y-136623694D02*
X189754551Y-135242481D01*
X188995380Y-136570022D02*
X189639450Y-135188809D01*
X184060943Y-136692156D02*
X184521347Y-136906846D01*
X184060943Y-136692156D02*
X188664987Y-138839057D01*
X188664987Y-138839057D02*
X189309057Y-137457844D01*
X189309057Y-137457844D02*
X184705013Y-135310943D01*
X184705013Y-135310943D02*
X184060943Y-136692156D01*
X184060943Y-136692156D02*
X184521347Y-136906846D01*
X188319683Y-138678039D02*
X188963754Y-137296826D01*
X189078855Y-137350499D02*
X188434784Y-138731712D01*
X188549886Y-138785384D02*
X189193956Y-137404171D01*
X188848653Y-137243154D02*
X188204582Y-138624367D01*
X188089481Y-138570694D02*
X188733551Y-137189481D01*
X187974380Y-138517022D02*
X188618450Y-137135809D01*
X160120156Y-125008057D02*
X160334846Y-124547653D01*
X160120156Y-125008057D02*
X162267057Y-120404013D01*
X162267057Y-120404013D02*
X160885844Y-119759943D01*
X160885844Y-119759943D02*
X158738943Y-124363987D01*
X158738943Y-124363987D02*
X160120156Y-125008057D01*
X160120156Y-125008057D02*
X160334846Y-124547653D01*
X162106039Y-120749317D02*
X160724826Y-120105246D01*
X160778499Y-119990145D02*
X162159712Y-120634216D01*
X162213384Y-120519114D02*
X160832171Y-119875044D01*
X160671154Y-120220347D02*
X162052367Y-120864418D01*
X161998694Y-120979519D02*
X160617481Y-120335449D01*
X161945022Y-121094620D02*
X160563809Y-120450550D01*
X113474000Y-114618000D02*
X113474000Y-114110000D01*
X113474000Y-114618000D02*
X113474000Y-109538000D01*
X113474000Y-109538000D02*
X111950000Y-109538000D01*
X111950000Y-109538000D02*
X111950000Y-114618000D01*
X111950000Y-114618000D02*
X113474000Y-114618000D01*
X113474000Y-114618000D02*
X113474000Y-114110000D01*
X113474000Y-109919000D02*
X111950000Y-109919000D01*
X111950000Y-109792000D02*
X113474000Y-109792000D01*
X113474000Y-109665000D02*
X111950000Y-109665000D01*
X111950000Y-110046000D02*
X113474000Y-110046000D01*
X113474000Y-110173000D02*
X111950000Y-110173000D01*
X113474000Y-110300000D02*
X111950000Y-110300000D01*
X80010000Y-87280800D02*
X80518000Y-87280800D01*
X80010000Y-87280800D02*
X85090000Y-87280800D01*
X85090000Y-87280800D02*
X85090000Y-85756800D01*
X85090000Y-85756800D02*
X80010000Y-85756800D01*
X80010000Y-85756800D02*
X80010000Y-87280800D01*
X80010000Y-87280800D02*
X80518000Y-87280800D01*
X84709000Y-87280800D02*
X84709000Y-85756800D01*
X84836000Y-85756800D02*
X84836000Y-87280800D01*
X84963000Y-87280800D02*
X84963000Y-85756800D01*
X84582000Y-85756800D02*
X84582000Y-87280800D01*
X84455000Y-87280800D02*
X84455000Y-85756800D01*
X84328000Y-87280800D02*
X84328000Y-85756800D01*
X157004000Y-106331000D02*
X157512000Y-106331000D01*
X157004000Y-106331000D02*
X162084000Y-106331000D01*
X162084000Y-106331000D02*
X162084000Y-104807000D01*
X162084000Y-104807000D02*
X157004000Y-104807000D01*
X157004000Y-104807000D02*
X157004000Y-106331000D01*
X157004000Y-106331000D02*
X157512000Y-106331000D01*
X161703000Y-106331000D02*
X161703000Y-104807000D01*
X161830000Y-104807000D02*
X161830000Y-106331000D01*
X161957000Y-106331000D02*
X161957000Y-104807000D01*
X161576000Y-104807000D02*
X161576000Y-106331000D01*
X161449000Y-106331000D02*
X161449000Y-104807000D01*
X161322000Y-106331000D02*
X161322000Y-104807000D01*
X118904000Y-98710800D02*
X119412000Y-98710800D01*
X118904000Y-98710800D02*
X123984000Y-98710800D01*
X123984000Y-98710800D02*
X123984000Y-97186800D01*
X123984000Y-97186800D02*
X118904000Y-97186800D01*
X118904000Y-97186800D02*
X118904000Y-98710800D01*
X118904000Y-98710800D02*
X119412000Y-98710800D01*
X123603000Y-98710800D02*
X123603000Y-97186800D01*
X123730000Y-97186800D02*
X123730000Y-98710800D01*
X123857000Y-98710800D02*
X123857000Y-97186800D01*
X123476000Y-97186800D02*
X123476000Y-98710800D01*
X123349000Y-98710800D02*
X123349000Y-97186800D01*
X123222000Y-98710800D02*
X123222000Y-97186800D01*
X119253000Y-60579000D02*
X119761000Y-60579000D01*
X119253000Y-60579000D02*
X124333000Y-60579000D01*
X124333000Y-60579000D02*
X124333000Y-59055000D01*
X124333000Y-59055000D02*
X119253000Y-59055000D01*
X119253000Y-59055000D02*
X119253000Y-60579000D01*
X119253000Y-60579000D02*
X119761000Y-60579000D01*
X123952000Y-60579000D02*
X123952000Y-59055000D01*
X124079000Y-59055000D02*
X124079000Y-60579000D01*
X124206000Y-60579000D02*
X124206000Y-59055000D01*
X123825000Y-59055000D02*
X123825000Y-60579000D01*
X123698000Y-60579000D02*
X123698000Y-59055000D01*
X123571000Y-60579000D02*
X123571000Y-59055000D01*
X137954000Y-83470800D02*
X138462000Y-83470800D01*
X137954000Y-83470800D02*
X143034000Y-83470800D01*
X143034000Y-83470800D02*
X143034000Y-81946800D01*
X143034000Y-81946800D02*
X137954000Y-81946800D01*
X137954000Y-81946800D02*
X137954000Y-83470800D01*
X137954000Y-83470800D02*
X138462000Y-83470800D01*
X142653000Y-83470800D02*
X142653000Y-81946800D01*
X142780000Y-81946800D02*
X142780000Y-83470800D01*
X142907000Y-83470800D02*
X142907000Y-81946800D01*
X142526000Y-81946800D02*
X142526000Y-83470800D01*
X142399000Y-83470800D02*
X142399000Y-81946800D01*
X142272000Y-83470800D02*
X142272000Y-81946800D01*
X157004000Y-87280800D02*
X157512000Y-87280800D01*
X157004000Y-87280800D02*
X162084000Y-87280800D01*
X162084000Y-87280800D02*
X162084000Y-85756800D01*
X162084000Y-85756800D02*
X157004000Y-85756800D01*
X157004000Y-85756800D02*
X157004000Y-87280800D01*
X157004000Y-87280800D02*
X157512000Y-87280800D01*
X161703000Y-87280800D02*
X161703000Y-85756800D01*
X161830000Y-85756800D02*
X161830000Y-87280800D01*
X161957000Y-87280800D02*
X161957000Y-85756800D01*
X161576000Y-85756800D02*
X161576000Y-87280800D01*
X161449000Y-87280800D02*
X161449000Y-85756800D01*
X161322000Y-87280800D02*
X161322000Y-85756800D01*
X80803800Y-68230800D02*
X81311800Y-68230800D01*
X80803800Y-68230800D02*
X85883800Y-68230800D01*
X85883800Y-68230800D02*
X85883800Y-66706800D01*
X85883800Y-66706800D02*
X80803800Y-66706800D01*
X80803800Y-66706800D02*
X80803800Y-68230800D01*
X80803800Y-68230800D02*
X81311800Y-68230800D01*
X85502800Y-68230800D02*
X85502800Y-66706800D01*
X85629800Y-66706800D02*
X85629800Y-68230800D01*
X85756800Y-68230800D02*
X85756800Y-66706800D01*
X85375800Y-66706800D02*
X85375800Y-68230800D01*
X85248800Y-68230800D02*
X85248800Y-66706800D01*
X85121800Y-68230800D02*
X85121800Y-66706800D01*
X138748000Y-64420800D02*
X139256000Y-64420800D01*
X138748000Y-64420800D02*
X143828000Y-64420800D01*
X143828000Y-64420800D02*
X143828000Y-62896800D01*
X143828000Y-62896800D02*
X138748000Y-62896800D01*
X138748000Y-62896800D02*
X138748000Y-64420800D01*
X138748000Y-64420800D02*
X139256000Y-64420800D01*
X143447000Y-64420800D02*
X143447000Y-62896800D01*
X143574000Y-62896800D02*
X143574000Y-64420800D01*
X143701000Y-64420800D02*
X143701000Y-62896800D01*
X143320000Y-62896800D02*
X143320000Y-64420800D01*
X143193000Y-64420800D02*
X143193000Y-62896800D01*
X143066000Y-64420800D02*
X143066000Y-62896800D01*
X99854000Y-83470800D02*
X100362000Y-83470800D01*
X99854000Y-83470800D02*
X104934000Y-83470800D01*
X104934000Y-83470800D02*
X104934000Y-81946800D01*
X104934000Y-81946800D02*
X99854000Y-81946800D01*
X99854000Y-81946800D02*
X99854000Y-83470800D01*
X99854000Y-83470800D02*
X100362000Y-83470800D01*
X104553000Y-83470800D02*
X104553000Y-81946800D01*
X104680000Y-81946800D02*
X104680000Y-83470800D01*
X104807000Y-83470800D02*
X104807000Y-81946800D01*
X104426000Y-81946800D02*
X104426000Y-83470800D01*
X104299000Y-83470800D02*
X104299000Y-81946800D01*
X104172000Y-83470800D02*
X104172000Y-81946800D01*
X155892000Y-67437000D02*
X156400000Y-67437000D01*
X155892000Y-67437000D02*
X160972000Y-67437000D01*
X160972000Y-67437000D02*
X160972000Y-65913000D01*
X160972000Y-65913000D02*
X155892000Y-65913000D01*
X155892000Y-65913000D02*
X155892000Y-67437000D01*
X155892000Y-67437000D02*
X156400000Y-67437000D01*
X160591000Y-67437000D02*
X160591000Y-65913000D01*
X160718000Y-65913000D02*
X160718000Y-67437000D01*
X160845000Y-67437000D02*
X160845000Y-65913000D01*
X160464000Y-65913000D02*
X160464000Y-67437000D01*
X160337000Y-67437000D02*
X160337000Y-65913000D01*
X160210000Y-67437000D02*
X160210000Y-65913000D01*
X137954000Y-102521000D02*
X138462000Y-102521000D01*
X137954000Y-102521000D02*
X143034000Y-102521000D01*
X143034000Y-102521000D02*
X143034000Y-100997000D01*
X143034000Y-100997000D02*
X137954000Y-100997000D01*
X137954000Y-100997000D02*
X137954000Y-102521000D01*
X137954000Y-102521000D02*
X138462000Y-102521000D01*
X142653000Y-102521000D02*
X142653000Y-100997000D01*
X142780000Y-100997000D02*
X142780000Y-102521000D01*
X142907000Y-102521000D02*
X142907000Y-100997000D01*
X142526000Y-100997000D02*
X142526000Y-102521000D01*
X142399000Y-102521000D02*
X142399000Y-100997000D01*
X142272000Y-102521000D02*
X142272000Y-100997000D01*
X99854000Y-64420800D02*
X100362000Y-64420800D01*
X99854000Y-64420800D02*
X104934000Y-64420800D01*
X104934000Y-64420800D02*
X104934000Y-62896800D01*
X104934000Y-62896800D02*
X99854000Y-62896800D01*
X99854000Y-62896800D02*
X99854000Y-64420800D01*
X99854000Y-64420800D02*
X100362000Y-64420800D01*
X104553000Y-64420800D02*
X104553000Y-62896800D01*
X104680000Y-62896800D02*
X104680000Y-64420800D01*
X104807000Y-64420800D02*
X104807000Y-62896800D01*
X104426000Y-62896800D02*
X104426000Y-64420800D01*
X104299000Y-64420800D02*
X104299000Y-62896800D01*
X104172000Y-64420800D02*
X104172000Y-62896800D01*
X99854000Y-102521000D02*
X100362000Y-102521000D01*
X99854000Y-102521000D02*
X104934000Y-102521000D01*
X104934000Y-102521000D02*
X104934000Y-100997000D01*
X104934000Y-100997000D02*
X99854000Y-100997000D01*
X99854000Y-100997000D02*
X99854000Y-102521000D01*
X99854000Y-102521000D02*
X100362000Y-102521000D01*
X104553000Y-102521000D02*
X104553000Y-100997000D01*
X104680000Y-100997000D02*
X104680000Y-102521000D01*
X104807000Y-102521000D02*
X104807000Y-100997000D01*
X104426000Y-100997000D02*
X104426000Y-102521000D01*
X104299000Y-102521000D02*
X104299000Y-100997000D01*
X104172000Y-102521000D02*
X104172000Y-100997000D01*
X80010000Y-106331000D02*
X80518000Y-106331000D01*
X80010000Y-106331000D02*
X85090000Y-106331000D01*
X85090000Y-106331000D02*
X85090000Y-104807000D01*
X85090000Y-104807000D02*
X80010000Y-104807000D01*
X80010000Y-104807000D02*
X80010000Y-106331000D01*
X80010000Y-106331000D02*
X80518000Y-106331000D01*
X84709000Y-106331000D02*
X84709000Y-104807000D01*
X84836000Y-104807000D02*
X84836000Y-106331000D01*
X84963000Y-106331000D02*
X84963000Y-104807000D01*
X84582000Y-104807000D02*
X84582000Y-106331000D01*
X84455000Y-106331000D02*
X84455000Y-104807000D01*
X84328000Y-106331000D02*
X84328000Y-104807000D01*
D13*
X51593800Y-73215500D02*
X51593800Y-71437500D01*
X51593800Y-84137500D02*
X51593800Y-82359500D01*
X53371800Y-84137500D02*
X51593800Y-84137500D01*
X64293800Y-84137500D02*
X62515800Y-84137500D01*
X64293800Y-82359500D02*
X64293800Y-84137500D01*
X64293800Y-71437500D02*
X64293800Y-73215500D01*
X62515800Y-71437500D02*
X64293800Y-71437500D01*
X51593800Y-71437500D02*
X53371800Y-71437500D01*
X46831200Y-92265500D02*
X46831200Y-90487500D01*
X46831200Y-103187500D02*
X46831200Y-101409500D01*
X48609200Y-103187500D02*
X46831200Y-103187500D01*
X59531200Y-103187500D02*
X57753200Y-103187500D01*
X59531200Y-101409500D02*
X59531200Y-103187500D01*
X59531200Y-90487500D02*
X59531200Y-92265500D01*
X57753200Y-90487500D02*
X59531200Y-90487500D01*
X46831200Y-90487500D02*
X48609200Y-90487500D01*
D10*
X183454156Y-126368057D02*
X183668846Y-125907653D01*
X183454156Y-126368057D02*
X185601057Y-121764013D01*
X185601057Y-121764013D02*
X184219844Y-121119943D01*
X184219844Y-121119943D02*
X182072943Y-125723987D01*
X182072943Y-125723987D02*
X183454156Y-126368057D01*
X183454156Y-126368057D02*
X183668846Y-125907653D01*
X185440039Y-122109317D02*
X184058826Y-121465246D01*
X184112499Y-121350145D02*
X185493712Y-121994216D01*
X185547384Y-121879114D02*
X184166171Y-121235044D01*
X184005154Y-121580347D02*
X185386367Y-122224418D01*
X185332694Y-122339519D02*
X183951481Y-121695449D01*
X185279022Y-122454620D02*
X183897809Y-121810550D01*
X41910000Y-51993800D02*
X42418000Y-51993800D01*
X41910000Y-51993800D02*
X46990000Y-51993800D01*
X46990000Y-51993800D02*
X46990000Y-50469800D01*
X46990000Y-50469800D02*
X41910000Y-50469800D01*
X41910000Y-50469800D02*
X41910000Y-51993800D01*
X41910000Y-51993800D02*
X42418000Y-51993800D01*
X46609000Y-51993800D02*
X46609000Y-50469800D01*
X46736000Y-50469800D02*
X46736000Y-51993800D01*
X46863000Y-51993800D02*
X46863000Y-50469800D01*
X46482000Y-50469800D02*
X46482000Y-51993800D01*
X46355000Y-51993800D02*
X46355000Y-50469800D01*
X46228000Y-51993800D02*
X46228000Y-50469800D01*
D14*
X83731704Y-48936123D02*
X83731704Y-47666123D01*
X84155038Y-48573266D01*
X84578371Y-47666123D01*
X84578371Y-48936123D01*
X85848371Y-48936123D02*
X85122657Y-48936123D01*
X85485514Y-48936123D02*
X85485514Y-47666123D01*
X85364561Y-47847552D01*
X85243609Y-47968504D01*
X85122657Y-48028980D01*
X80798609Y-49994457D02*
X81766228Y-50357314D01*
X80798609Y-50720171D01*
X82189561Y-49571123D02*
X82612895Y-50841123D01*
X83036228Y-49571123D01*
X83399085Y-50478266D02*
X84003847Y-50478266D01*
X83278133Y-50841123D02*
X83701466Y-49571123D01*
X84124800Y-50841123D01*
X85152895Y-50841123D02*
X84548133Y-50841123D01*
X84548133Y-49571123D01*
X85576228Y-49571123D02*
X85576228Y-50599219D01*
X85636704Y-50720171D01*
X85697180Y-50780647D01*
X85818133Y-50841123D01*
X86060038Y-50841123D01*
X86180990Y-50780647D01*
X86241466Y-50720171D01*
X86301942Y-50599219D01*
X86301942Y-49571123D01*
X86906704Y-50175885D02*
X87330038Y-50175885D01*
X87511466Y-50841123D02*
X86906704Y-50841123D01*
X86906704Y-49571123D01*
X87511466Y-49571123D01*
D10*
X78354323Y-22778980D02*
X78020990Y-22302790D01*
X77782895Y-22778980D02*
X77782895Y-21778980D01*
X78163847Y-21778980D01*
X78259085Y-21826600D01*
X78306704Y-21874219D01*
X78354323Y-21969457D01*
X78354323Y-22112314D01*
X78306704Y-22207552D01*
X78259085Y-22255171D01*
X78163847Y-22302790D01*
X77782895Y-22302790D01*
X78735276Y-22493266D02*
X79211466Y-22493266D01*
X78640038Y-22778980D02*
X78973371Y-21778980D01*
X79306704Y-22778980D01*
X79544800Y-21778980D02*
X79782895Y-22778980D01*
X79973371Y-22064695D01*
X80163847Y-22778980D01*
X80401942Y-21778980D01*
X38893904Y-57904380D02*
X38893904Y-56904380D01*
X38893904Y-57380571D02*
X39465333Y-57380571D01*
X39465333Y-57904380D02*
X39465333Y-56904380D01*
X40465333Y-57904380D02*
X39893904Y-57904380D01*
X40179619Y-57904380D02*
X40179619Y-56904380D01*
X40084380Y-57047238D01*
X39989142Y-57142476D01*
X39893904Y-57190095D01*
X41084380Y-56904380D02*
X41179619Y-56904380D01*
X41274857Y-56952000D01*
X41322476Y-56999619D01*
X41370095Y-57094857D01*
X41417714Y-57285333D01*
X41417714Y-57523428D01*
X41370095Y-57713904D01*
X41322476Y-57809142D01*
X41274857Y-57856761D01*
X41179619Y-57904380D01*
X41084380Y-57904380D01*
X40989142Y-57856761D01*
X40941523Y-57809142D01*
X40893904Y-57713904D01*
X40846285Y-57523428D01*
X40846285Y-57285333D01*
X40893904Y-57094857D01*
X40941523Y-56999619D01*
X40989142Y-56952000D01*
X41084380Y-56904380D01*
X111760095Y-18026380D02*
X111760095Y-17026380D01*
X111760095Y-17502571D02*
X112331523Y-17502571D01*
X112331523Y-18026380D02*
X112331523Y-17026380D01*
X112855333Y-18026380D02*
X113045809Y-18026380D01*
X113141047Y-17978761D01*
X113188666Y-17931142D01*
X113283904Y-17788285D01*
X113331523Y-17597809D01*
X113331523Y-17216857D01*
X113283904Y-17121619D01*
X113236285Y-17074000D01*
X113141047Y-17026380D01*
X112950571Y-17026380D01*
X112855333Y-17074000D01*
X112807714Y-17121619D01*
X112760095Y-17216857D01*
X112760095Y-17454952D01*
X112807714Y-17550190D01*
X112855333Y-17597809D01*
X112950571Y-17645428D01*
X113141047Y-17645428D01*
X113236285Y-17597809D01*
X113283904Y-17550190D01*
X113331523Y-17454952D01*
X165862095Y-18026380D02*
X165862095Y-17026380D01*
X165862095Y-17502571D02*
X166433523Y-17502571D01*
X166433523Y-18026380D02*
X166433523Y-17026380D01*
X167433523Y-18026380D02*
X166862095Y-18026380D01*
X167147809Y-18026380D02*
X167147809Y-17026380D01*
X167052571Y-17169238D01*
X166957333Y-17264476D01*
X166862095Y-17312095D01*
X111824095Y-120896380D02*
X111824095Y-119896380D01*
X111824095Y-120372571D02*
X112395523Y-120372571D01*
X112395523Y-120896380D02*
X112395523Y-119896380D01*
X112824095Y-119991619D02*
X112871714Y-119944000D01*
X112966952Y-119896380D01*
X113205047Y-119896380D01*
X113300285Y-119944000D01*
X113347904Y-119991619D01*
X113395523Y-120086857D01*
X113395523Y-120182095D01*
X113347904Y-120324952D01*
X112776476Y-120896380D01*
X113395523Y-120896380D01*
X40132095Y-112260380D02*
X40132095Y-111260380D01*
X40132095Y-111736571D02*
X40703523Y-111736571D01*
X40703523Y-112260380D02*
X40703523Y-111260380D01*
X41084476Y-111260380D02*
X41703523Y-111260380D01*
X41370190Y-111641333D01*
X41513047Y-111641333D01*
X41608285Y-111688952D01*
X41655904Y-111736571D01*
X41703523Y-111831809D01*
X41703523Y-112069904D01*
X41655904Y-112165142D01*
X41608285Y-112212761D01*
X41513047Y-112260380D01*
X41227333Y-112260380D01*
X41132095Y-112212761D01*
X41084476Y-112165142D01*
X112458095Y-58094880D02*
X112458095Y-57094880D01*
X112458095Y-57571071D02*
X113029523Y-57571071D01*
X113029523Y-58094880D02*
X113029523Y-57094880D01*
X113981904Y-57094880D02*
X113505714Y-57094880D01*
X113458095Y-57571071D01*
X113505714Y-57523452D01*
X113600952Y-57475833D01*
X113839047Y-57475833D01*
X113934285Y-57523452D01*
X113981904Y-57571071D01*
X114029523Y-57666309D01*
X114029523Y-57904404D01*
X113981904Y-57999642D01*
X113934285Y-58047261D01*
X113839047Y-58094880D01*
X113600952Y-58094880D01*
X113505714Y-58047261D01*
X113458095Y-57999642D01*
X178689095Y-130167380D02*
X178689095Y-129167380D01*
X178689095Y-129643571D02*
X179260523Y-129643571D01*
X179260523Y-130167380D02*
X179260523Y-129167380D01*
X179879571Y-129595952D02*
X179784333Y-129548333D01*
X179736714Y-129500714D01*
X179689095Y-129405476D01*
X179689095Y-129357857D01*
X179736714Y-129262619D01*
X179784333Y-129215000D01*
X179879571Y-129167380D01*
X180070047Y-129167380D01*
X180165285Y-129215000D01*
X180212904Y-129262619D01*
X180260523Y-129357857D01*
X180260523Y-129405476D01*
X180212904Y-129500714D01*
X180165285Y-129548333D01*
X180070047Y-129595952D01*
X179879571Y-129595952D01*
X179784333Y-129643571D01*
X179736714Y-129691190D01*
X179689095Y-129786428D01*
X179689095Y-129976904D01*
X179736714Y-130072142D01*
X179784333Y-130119761D01*
X179879571Y-130167380D01*
X180070047Y-130167380D01*
X180165285Y-130119761D01*
X180212904Y-130072142D01*
X180260523Y-129976904D01*
X180260523Y-129786428D01*
X180212904Y-129691190D01*
X180165285Y-129643571D01*
X180070047Y-129595952D01*
X38893904Y-18026380D02*
X38893904Y-17026380D01*
X38893904Y-17502571D02*
X39465333Y-17502571D01*
X39465333Y-18026380D02*
X39465333Y-17026380D01*
X40465333Y-18026380D02*
X39893904Y-18026380D01*
X40179619Y-18026380D02*
X40179619Y-17026380D01*
X40084380Y-17169238D01*
X39989142Y-17264476D01*
X39893904Y-17312095D01*
X41417714Y-18026380D02*
X40846285Y-18026380D01*
X41132000Y-18026380D02*
X41132000Y-17026380D01*
X41036761Y-17169238D01*
X40941523Y-17264476D01*
X40846285Y-17312095D01*
X166147904Y-105275380D02*
X166147904Y-104275380D01*
X166147904Y-104751571D02*
X166719333Y-104751571D01*
X166719333Y-105275380D02*
X166719333Y-104275380D01*
X167719333Y-105275380D02*
X167147904Y-105275380D01*
X167433619Y-105275380D02*
X167433619Y-104275380D01*
X167338380Y-104418238D01*
X167243142Y-104513476D01*
X167147904Y-104561095D01*
X168100285Y-104370619D02*
X168147904Y-104323000D01*
X168243142Y-104275380D01*
X168481238Y-104275380D01*
X168576476Y-104323000D01*
X168624095Y-104370619D01*
X168671714Y-104465857D01*
X168671714Y-104561095D01*
X168624095Y-104703952D01*
X168052666Y-105275380D01*
X168671714Y-105275380D01*
X121317361Y-42560704D02*
X121317361Y-41760704D01*
X121507838Y-41760704D01*
X121622123Y-41798800D01*
X121698314Y-41874990D01*
X121736409Y-41951180D01*
X121774504Y-42103561D01*
X121774504Y-42217847D01*
X121736409Y-42370228D01*
X121698314Y-42446419D01*
X121622123Y-42522609D01*
X121507838Y-42560704D01*
X121317361Y-42560704D01*
X121926885Y-42636895D02*
X122536409Y-42636895D01*
X122650695Y-41760704D02*
X123145933Y-41760704D01*
X122879266Y-42065466D01*
X122993552Y-42065466D01*
X123069742Y-42103561D01*
X123107838Y-42141657D01*
X123145933Y-42217847D01*
X123145933Y-42408323D01*
X123107838Y-42484514D01*
X123069742Y-42522609D01*
X122993552Y-42560704D01*
X122764980Y-42560704D01*
X122688790Y-42522609D01*
X122650695Y-42484514D01*
X76183904Y-60102638D02*
X75383904Y-60102638D01*
X75383904Y-59912161D01*
X75422000Y-59797876D01*
X75498190Y-59721685D01*
X75574380Y-59683590D01*
X75726761Y-59645495D01*
X75841047Y-59645495D01*
X75993428Y-59683590D01*
X76069619Y-59721685D01*
X76145809Y-59797876D01*
X76183904Y-59912161D01*
X76183904Y-60102638D01*
X76260095Y-59493114D02*
X76260095Y-58883590D01*
X76183904Y-58274066D02*
X76183904Y-58731209D01*
X76183904Y-58502638D02*
X75383904Y-58502638D01*
X75498190Y-58578828D01*
X75574380Y-58655019D01*
X75612476Y-58731209D01*
X101473361Y-46370704D02*
X101473361Y-45570704D01*
X101663838Y-45570704D01*
X101778123Y-45608800D01*
X101854314Y-45684990D01*
X101892409Y-45761180D01*
X101930504Y-45913561D01*
X101930504Y-46027847D01*
X101892409Y-46180228D01*
X101854314Y-46256419D01*
X101778123Y-46332609D01*
X101663838Y-46370704D01*
X101473361Y-46370704D01*
X102082885Y-46446895D02*
X102692409Y-46446895D01*
X102844790Y-45646895D02*
X102882885Y-45608800D01*
X102959076Y-45570704D01*
X103149552Y-45570704D01*
X103225742Y-45608800D01*
X103263838Y-45646895D01*
X103301933Y-45723085D01*
X103301933Y-45799276D01*
X103263838Y-45913561D01*
X102806695Y-46370704D01*
X103301933Y-46370704D01*
X139573361Y-46370704D02*
X139573361Y-45570704D01*
X139763838Y-45570704D01*
X139878123Y-45608800D01*
X139954314Y-45684990D01*
X139992409Y-45761180D01*
X140030504Y-45913561D01*
X140030504Y-46027847D01*
X139992409Y-46180228D01*
X139954314Y-46256419D01*
X139878123Y-46332609D01*
X139763838Y-46370704D01*
X139573361Y-46370704D01*
X140182885Y-46446895D02*
X140792409Y-46446895D01*
X141325742Y-45837371D02*
X141325742Y-46370704D01*
X141135266Y-45532609D02*
X140944790Y-46104038D01*
X141440028Y-46104038D01*
X158623361Y-50180704D02*
X158623361Y-49380704D01*
X158813838Y-49380704D01*
X158928123Y-49418800D01*
X159004314Y-49494990D01*
X159042409Y-49571180D01*
X159080504Y-49723561D01*
X159080504Y-49837847D01*
X159042409Y-49990228D01*
X159004314Y-50066419D01*
X158928123Y-50142609D01*
X158813838Y-50180704D01*
X158623361Y-50180704D01*
X159232885Y-50256895D02*
X159842409Y-50256895D01*
X160413838Y-49380704D02*
X160032885Y-49380704D01*
X159994790Y-49761657D01*
X160032885Y-49723561D01*
X160109076Y-49685466D01*
X160299552Y-49685466D01*
X160375742Y-49723561D01*
X160413838Y-49761657D01*
X160451933Y-49837847D01*
X160451933Y-50028323D01*
X160413838Y-50104514D01*
X160375742Y-50142609D01*
X160299552Y-50180704D01*
X160109076Y-50180704D01*
X160032885Y-50142609D01*
X159994790Y-50104514D01*
X95424404Y-116986066D02*
X94624404Y-116986066D01*
X94624404Y-116795590D01*
X94662500Y-116681304D01*
X94738690Y-116605114D01*
X94814880Y-116567019D01*
X94967261Y-116528923D01*
X95081547Y-116528923D01*
X95233928Y-116567019D01*
X95310119Y-116605114D01*
X95386309Y-116681304D01*
X95424404Y-116795590D01*
X95424404Y-116986066D01*
X95500595Y-116376542D02*
X95500595Y-115767019D01*
X95195833Y-115614638D02*
X95195833Y-115233685D01*
X95424404Y-115690828D02*
X94624404Y-115424161D01*
X95424404Y-115157495D01*
X95424404Y-114509876D02*
X95424404Y-114890828D01*
X94624404Y-114890828D01*
X94624404Y-114357495D02*
X94624404Y-113900352D01*
X95424404Y-114128923D02*
X94624404Y-114128923D01*
X95424404Y-113214638D02*
X95424404Y-113671780D01*
X95424404Y-113443209D02*
X94624404Y-113443209D01*
X94738690Y-113519400D01*
X94814880Y-113595590D01*
X94852976Y-113671780D01*
X152891904Y-115296542D02*
X152091904Y-115296542D01*
X152091904Y-115106066D01*
X152130000Y-114991780D01*
X152206190Y-114915590D01*
X152282380Y-114877495D01*
X152434761Y-114839400D01*
X152549047Y-114839400D01*
X152701428Y-114877495D01*
X152777619Y-114915590D01*
X152853809Y-114991780D01*
X152891904Y-115106066D01*
X152891904Y-115296542D01*
X152968095Y-114687019D02*
X152968095Y-114077495D01*
X152891904Y-113887019D02*
X152091904Y-113887019D01*
X152396666Y-113887019D02*
X152358571Y-113810828D01*
X152358571Y-113658447D01*
X152396666Y-113582257D01*
X152434761Y-113544161D01*
X152510952Y-113506066D01*
X152739523Y-113506066D01*
X152815714Y-113544161D01*
X152853809Y-113582257D01*
X152891904Y-113658447D01*
X152891904Y-113810828D01*
X152853809Y-113887019D01*
X152891904Y-113048923D02*
X152853809Y-113125114D01*
X152815714Y-113163209D01*
X152739523Y-113201304D01*
X152510952Y-113201304D01*
X152434761Y-113163209D01*
X152396666Y-113125114D01*
X152358571Y-113048923D01*
X152358571Y-112934638D01*
X152396666Y-112858447D01*
X152434761Y-112820352D01*
X152510952Y-112782257D01*
X152739523Y-112782257D01*
X152815714Y-112820352D01*
X152853809Y-112858447D01*
X152891904Y-112934638D01*
X152891904Y-113048923D01*
X152358571Y-112553685D02*
X152358571Y-112248923D01*
X152091904Y-112439400D02*
X152777619Y-112439400D01*
X152853809Y-112401304D01*
X152891904Y-112325114D01*
X152891904Y-112248923D01*
X152968095Y-112172733D02*
X152968095Y-111563209D01*
X152891904Y-110953685D02*
X152891904Y-111410828D01*
X152891904Y-111182257D02*
X152091904Y-111182257D01*
X152206190Y-111258447D01*
X152282380Y-111334638D01*
X152320476Y-111410828D01*
X152091904Y-110610828D02*
X152739523Y-110610828D01*
X152815714Y-110572733D01*
X152853809Y-110534638D01*
X152891904Y-110458447D01*
X152891904Y-110306066D01*
X152853809Y-110229876D01*
X152815714Y-110191780D01*
X152739523Y-110153685D01*
X152091904Y-110153685D01*
X152968095Y-109963209D02*
X152968095Y-109353685D01*
X152168095Y-109201304D02*
X152130000Y-109163209D01*
X152091904Y-109087019D01*
X152091904Y-108896542D01*
X152130000Y-108820352D01*
X152168095Y-108782257D01*
X152244285Y-108744161D01*
X152320476Y-108744161D01*
X152434761Y-108782257D01*
X152891904Y-109239400D01*
X152891904Y-108744161D01*
X133333904Y-111016638D02*
X132533904Y-111016638D01*
X132533904Y-110826161D01*
X132572000Y-110711876D01*
X132648190Y-110635685D01*
X132724380Y-110597590D01*
X132876761Y-110559495D01*
X132991047Y-110559495D01*
X133143428Y-110597590D01*
X133219619Y-110635685D01*
X133295809Y-110711876D01*
X133333904Y-110826161D01*
X133333904Y-111016638D01*
X133410095Y-110407114D02*
X133410095Y-109797590D01*
X132914857Y-109340447D02*
X132952952Y-109226161D01*
X132991047Y-109188066D01*
X133067238Y-109149971D01*
X133181523Y-109149971D01*
X133257714Y-109188066D01*
X133295809Y-109226161D01*
X133333904Y-109302352D01*
X133333904Y-109607114D01*
X132533904Y-109607114D01*
X132533904Y-109340447D01*
X132572000Y-109264257D01*
X132610095Y-109226161D01*
X132686285Y-109188066D01*
X132762476Y-109188066D01*
X132838666Y-109226161D01*
X132876761Y-109264257D01*
X132914857Y-109340447D01*
X132914857Y-109607114D01*
X132800571Y-108807114D02*
X133600571Y-108807114D01*
X132838666Y-108807114D02*
X132800571Y-108730923D01*
X132800571Y-108578542D01*
X132838666Y-108502352D01*
X132876761Y-108464257D01*
X132952952Y-108426161D01*
X133181523Y-108426161D01*
X133257714Y-108464257D01*
X133295809Y-108502352D01*
X133333904Y-108578542D01*
X133333904Y-108730923D01*
X133295809Y-108807114D01*
X132800571Y-108197590D02*
X132800571Y-107892828D01*
X132533904Y-108083304D02*
X133219619Y-108083304D01*
X133295809Y-108045209D01*
X133333904Y-107969019D01*
X133333904Y-107892828D01*
X133410095Y-107816638D02*
X133410095Y-107207114D01*
X133333904Y-106597590D02*
X133333904Y-107054733D01*
X133333904Y-106826161D02*
X132533904Y-106826161D01*
X132648190Y-106902352D01*
X132724380Y-106978542D01*
X132762476Y-107054733D01*
X132533904Y-106254733D02*
X133181523Y-106254733D01*
X133257714Y-106216638D01*
X133295809Y-106178542D01*
X133333904Y-106102352D01*
X133333904Y-105949971D01*
X133295809Y-105873780D01*
X133257714Y-105835685D01*
X133181523Y-105797590D01*
X132533904Y-105797590D01*
X133410095Y-105607114D02*
X133410095Y-104997590D01*
X133333904Y-104388066D02*
X133333904Y-104845209D01*
X133333904Y-104616638D02*
X132533904Y-104616638D01*
X132648190Y-104692828D01*
X132724380Y-104769019D01*
X132762476Y-104845209D01*
X74786904Y-79057295D02*
X73986904Y-79057295D01*
X73986904Y-78866819D01*
X74025000Y-78752533D01*
X74101190Y-78676342D01*
X74177380Y-78638247D01*
X74329761Y-78600152D01*
X74444047Y-78600152D01*
X74596428Y-78638247D01*
X74672619Y-78676342D01*
X74748809Y-78752533D01*
X74786904Y-78866819D01*
X74786904Y-79057295D01*
X74863095Y-78447771D02*
X74863095Y-77838247D01*
X74710714Y-77190628D02*
X74748809Y-77228723D01*
X74786904Y-77343009D01*
X74786904Y-77419200D01*
X74748809Y-77533485D01*
X74672619Y-77609676D01*
X74596428Y-77647771D01*
X74444047Y-77685866D01*
X74329761Y-77685866D01*
X74177380Y-77647771D01*
X74101190Y-77609676D01*
X74025000Y-77533485D01*
X73986904Y-77419200D01*
X73986904Y-77343009D01*
X74025000Y-77228723D01*
X74063095Y-77190628D01*
X74558333Y-76885866D02*
X74558333Y-76504914D01*
X74786904Y-76962057D02*
X73986904Y-76695390D01*
X74786904Y-76428723D01*
X74786904Y-76162057D02*
X73986904Y-76162057D01*
X73986904Y-75857295D01*
X74025000Y-75781104D01*
X74063095Y-75743009D01*
X74139285Y-75704914D01*
X74253571Y-75704914D01*
X74329761Y-75743009D01*
X74367857Y-75781104D01*
X74405952Y-75857295D01*
X74405952Y-76162057D01*
X74786904Y-74943009D02*
X74786904Y-75400152D01*
X74786904Y-75171580D02*
X73986904Y-75171580D01*
X74101190Y-75247771D01*
X74177380Y-75323961D01*
X74215476Y-75400152D01*
X76374404Y-117443209D02*
X75574404Y-117443209D01*
X75574404Y-117252733D01*
X75612500Y-117138447D01*
X75688690Y-117062257D01*
X75764880Y-117024161D01*
X75917261Y-116986066D01*
X76031547Y-116986066D01*
X76183928Y-117024161D01*
X76260119Y-117062257D01*
X76336309Y-117138447D01*
X76374404Y-117252733D01*
X76374404Y-117443209D01*
X76450595Y-116833685D02*
X76450595Y-116224161D01*
X76298214Y-115576542D02*
X76336309Y-115614638D01*
X76374404Y-115728923D01*
X76374404Y-115805114D01*
X76336309Y-115919400D01*
X76260119Y-115995590D01*
X76183928Y-116033685D01*
X76031547Y-116071780D01*
X75917261Y-116071780D01*
X75764880Y-116033685D01*
X75688690Y-115995590D01*
X75612500Y-115919400D01*
X75574404Y-115805114D01*
X75574404Y-115728923D01*
X75612500Y-115614638D01*
X75650595Y-115576542D01*
X75574404Y-115347971D02*
X75574404Y-114890828D01*
X76374404Y-115119400D02*
X75574404Y-115119400D01*
X76374404Y-114167019D02*
X75993452Y-114433685D01*
X76374404Y-114624161D02*
X75574404Y-114624161D01*
X75574404Y-114319400D01*
X75612500Y-114243209D01*
X75650595Y-114205114D01*
X75726785Y-114167019D01*
X75841071Y-114167019D01*
X75917261Y-114205114D01*
X75955357Y-114243209D01*
X75993452Y-114319400D01*
X75993452Y-114624161D01*
X76374404Y-113443209D02*
X76374404Y-113824161D01*
X75574404Y-113824161D01*
X76374404Y-112757495D02*
X76374404Y-113214638D01*
X76374404Y-112986066D02*
X75574404Y-112986066D01*
X75688690Y-113062257D01*
X75764880Y-113138447D01*
X75802976Y-113214638D01*
X120123361Y-80660704D02*
X120123361Y-79860704D01*
X120313838Y-79860704D01*
X120428123Y-79898800D01*
X120504314Y-79974990D01*
X120542409Y-80051180D01*
X120580504Y-80203561D01*
X120580504Y-80317847D01*
X120542409Y-80470228D01*
X120504314Y-80546419D01*
X120428123Y-80622609D01*
X120313838Y-80660704D01*
X120123361Y-80660704D01*
X120732885Y-80736895D02*
X121342409Y-80736895D01*
X121532885Y-80660704D02*
X121532885Y-79860704D01*
X121723361Y-79860704D01*
X121837647Y-79898800D01*
X121913838Y-79974990D01*
X121951933Y-80051180D01*
X121990028Y-80203561D01*
X121990028Y-80317847D01*
X121951933Y-80470228D01*
X121913838Y-80546419D01*
X121837647Y-80622609D01*
X121723361Y-80660704D01*
X121532885Y-80660704D01*
X122751933Y-80660704D02*
X122294790Y-80660704D01*
X122523361Y-80660704D02*
X122523361Y-79860704D01*
X122447171Y-79974990D01*
X122370980Y-80051180D01*
X122294790Y-80089276D01*
X57626504Y-51291904D02*
X57626504Y-50491904D01*
X57816980Y-50491904D01*
X57931266Y-50530000D01*
X58007457Y-50606190D01*
X58045552Y-50682380D01*
X58083647Y-50834761D01*
X58083647Y-50949047D01*
X58045552Y-51101428D01*
X58007457Y-51177619D01*
X57931266Y-51253809D01*
X57816980Y-51291904D01*
X57626504Y-51291904D01*
X58236028Y-51368095D02*
X58845552Y-51368095D01*
X59036028Y-50872857D02*
X59302695Y-50872857D01*
X59416980Y-51291904D02*
X59036028Y-51291904D01*
X59036028Y-50491904D01*
X59416980Y-50491904D01*
X59721742Y-51253809D02*
X59836028Y-51291904D01*
X60026504Y-51291904D01*
X60102695Y-51253809D01*
X60140790Y-51215714D01*
X60178885Y-51139523D01*
X60178885Y-51063333D01*
X60140790Y-50987142D01*
X60102695Y-50949047D01*
X60026504Y-50910952D01*
X59874123Y-50872857D01*
X59797933Y-50834761D01*
X59759838Y-50796666D01*
X59721742Y-50720476D01*
X59721742Y-50644285D01*
X59759838Y-50568095D01*
X59797933Y-50530000D01*
X59874123Y-50491904D01*
X60064600Y-50491904D01*
X60178885Y-50530000D01*
X60978885Y-51215714D02*
X60940790Y-51253809D01*
X60826504Y-51291904D01*
X60750314Y-51291904D01*
X60636028Y-51253809D01*
X60559838Y-51177619D01*
X60521742Y-51101428D01*
X60483647Y-50949047D01*
X60483647Y-50834761D01*
X60521742Y-50682380D01*
X60559838Y-50606190D01*
X60636028Y-50530000D01*
X60750314Y-50491904D01*
X60826504Y-50491904D01*
X60940790Y-50530000D01*
X60978885Y-50568095D01*
X61740790Y-51291904D02*
X61283647Y-51291904D01*
X61512219Y-51291904D02*
X61512219Y-50491904D01*
X61436028Y-50606190D01*
X61359838Y-50682380D01*
X61283647Y-50720476D01*
X74786904Y-98907295D02*
X73986904Y-98907295D01*
X73986904Y-98716819D01*
X74025000Y-98602533D01*
X74101190Y-98526342D01*
X74177380Y-98488247D01*
X74329761Y-98450152D01*
X74444047Y-98450152D01*
X74596428Y-98488247D01*
X74672619Y-98526342D01*
X74748809Y-98602533D01*
X74786904Y-98716819D01*
X74786904Y-98907295D01*
X74863095Y-98297771D02*
X74863095Y-97688247D01*
X74748809Y-97535866D02*
X74786904Y-97421580D01*
X74786904Y-97231104D01*
X74748809Y-97154914D01*
X74710714Y-97116819D01*
X74634523Y-97078723D01*
X74558333Y-97078723D01*
X74482142Y-97116819D01*
X74444047Y-97154914D01*
X74405952Y-97231104D01*
X74367857Y-97383485D01*
X74329761Y-97459676D01*
X74291666Y-97497771D01*
X74215476Y-97535866D01*
X74139285Y-97535866D01*
X74063095Y-97497771D01*
X74025000Y-97459676D01*
X73986904Y-97383485D01*
X73986904Y-97193009D01*
X74025000Y-97078723D01*
X74786904Y-96735866D02*
X73986904Y-96735866D01*
X74367857Y-96735866D02*
X74367857Y-96278723D01*
X74786904Y-96278723D02*
X73986904Y-96278723D01*
X74786904Y-95897771D02*
X73986904Y-95897771D01*
X74367857Y-95250152D02*
X74367857Y-95516819D01*
X74786904Y-95516819D02*
X73986904Y-95516819D01*
X73986904Y-95135866D01*
X73986904Y-94945390D02*
X73986904Y-94488247D01*
X74786904Y-94716819D02*
X73986904Y-94716819D01*
X74863095Y-94412057D02*
X74863095Y-93802533D01*
X74786904Y-93193009D02*
X74786904Y-93650152D01*
X74786904Y-93421580D02*
X73986904Y-93421580D01*
X74101190Y-93497771D01*
X74177380Y-93573961D01*
X74215476Y-93650152D01*
X58432933Y-69230704D02*
X58432933Y-68430704D01*
X58623409Y-68430704D01*
X58737695Y-68468800D01*
X58813885Y-68544990D01*
X58851980Y-68621180D01*
X58890076Y-68773561D01*
X58890076Y-68887847D01*
X58851980Y-69040228D01*
X58813885Y-69116419D01*
X58737695Y-69192609D01*
X58623409Y-69230704D01*
X58432933Y-69230704D01*
X59042457Y-69306895D02*
X59651980Y-69306895D01*
X59728171Y-68697371D02*
X60032933Y-68697371D01*
X59842457Y-68430704D02*
X59842457Y-69116419D01*
X59880552Y-69192609D01*
X59956742Y-69230704D01*
X60032933Y-69230704D01*
X60261504Y-69002133D02*
X60642457Y-69002133D01*
X60185314Y-69230704D02*
X60451980Y-68430704D01*
X60718647Y-69230704D01*
X61251980Y-68811657D02*
X61366266Y-68849752D01*
X61404361Y-68887847D01*
X61442457Y-68964038D01*
X61442457Y-69078323D01*
X61404361Y-69154514D01*
X61366266Y-69192609D01*
X61290076Y-69230704D01*
X60985314Y-69230704D01*
X60985314Y-68430704D01*
X61251980Y-68430704D01*
X61328171Y-68468800D01*
X61366266Y-68506895D01*
X61404361Y-68583085D01*
X61404361Y-68659276D01*
X61366266Y-68735466D01*
X61328171Y-68773561D01*
X61251980Y-68811657D01*
X60985314Y-68811657D01*
X62204361Y-69230704D02*
X61747219Y-69230704D01*
X61975790Y-69230704D02*
X61975790Y-68430704D01*
X61899600Y-68544990D01*
X61823409Y-68621180D01*
X61747219Y-68659276D01*
X184849542Y-135740058D02*
X185187637Y-135015012D01*
X185360267Y-135095511D01*
X185447745Y-135178336D01*
X185484598Y-135279587D01*
X185486924Y-135364739D01*
X185457051Y-135518943D01*
X185408752Y-135622521D01*
X185309827Y-135744525D01*
X185243102Y-135797478D01*
X185141850Y-135834330D01*
X185022172Y-135820557D01*
X184849542Y-135740058D01*
X185369759Y-136066706D02*
X185922175Y-136324302D01*
X186361521Y-135562403D02*
X186775833Y-135755600D01*
X186230583Y-136384048D02*
X186568677Y-135659002D01*
X186679421Y-136593345D02*
X187017515Y-135868298D01*
X186856518Y-136213558D02*
X187270830Y-136406755D01*
X187093733Y-136786541D02*
X187431828Y-136061495D01*
X187818779Y-137124636D02*
X187404467Y-136931439D01*
X187611623Y-137028038D02*
X187949718Y-136302991D01*
X187832367Y-136374370D01*
X187731115Y-136411222D01*
X187645963Y-136413549D01*
X187924684Y-137258087D02*
X188477100Y-137515683D01*
X189061716Y-137704227D02*
X188647403Y-137511030D01*
X188854560Y-137607628D02*
X189192654Y-136882582D01*
X189075303Y-136953961D01*
X188974051Y-136990813D01*
X188888900Y-136993140D01*
X183828542Y-137687058D02*
X184166637Y-136962012D01*
X184339267Y-137042511D01*
X184426745Y-137125336D01*
X184463598Y-137226587D01*
X184465924Y-137311739D01*
X184436051Y-137465943D01*
X184387752Y-137569521D01*
X184288827Y-137691525D01*
X184222102Y-137744478D01*
X184120850Y-137781330D01*
X184001172Y-137767557D01*
X183828542Y-137687058D01*
X184348759Y-138013706D02*
X184901175Y-138271302D01*
X185340521Y-137509403D02*
X185754833Y-137702600D01*
X185209583Y-138331048D02*
X185547677Y-137606002D01*
X185658421Y-138540345D02*
X185996515Y-137815298D01*
X185835518Y-138160558D02*
X186249830Y-138353755D01*
X186072733Y-138733541D02*
X186410828Y-138008495D01*
X186797779Y-139071636D02*
X186383467Y-138878439D01*
X186590623Y-138975038D02*
X186928718Y-138249991D01*
X186811367Y-138321370D01*
X186710115Y-138358222D01*
X186624963Y-138360549D01*
X186903684Y-139205087D02*
X187456100Y-139462683D01*
X187932299Y-138802036D02*
X187982924Y-138783609D01*
X188068076Y-138781283D01*
X188240706Y-138861782D01*
X188293658Y-138928507D01*
X188312085Y-138979133D01*
X188314411Y-139064285D01*
X188282212Y-139133337D01*
X188199387Y-139220815D01*
X187591877Y-139441930D01*
X188040716Y-139651227D01*
X160994310Y-125499402D02*
X160269264Y-125161307D01*
X160349763Y-124988677D01*
X160432588Y-124901199D01*
X160533839Y-124864346D01*
X160618991Y-124862020D01*
X160773195Y-124891893D01*
X160876773Y-124940192D01*
X160998777Y-125039117D01*
X161051729Y-125105842D01*
X161088582Y-125207094D01*
X161074809Y-125326772D01*
X160994310Y-125499402D01*
X161320958Y-124979185D02*
X161578554Y-124426769D01*
X161058337Y-124100121D02*
X161187135Y-123823913D01*
X160864954Y-123883845D02*
X161486423Y-124173640D01*
X161571574Y-124171314D01*
X161638300Y-124118361D01*
X161670499Y-124049309D01*
X161783197Y-123807627D02*
X161058151Y-123469533D01*
X161928095Y-123496893D02*
X161548309Y-123319796D01*
X161463157Y-123322123D01*
X161396432Y-123375075D01*
X161348133Y-123478653D01*
X161350459Y-123563805D01*
X161368885Y-123614430D01*
X162077646Y-123356463D02*
X162335242Y-122804046D01*
X161674595Y-122327848D02*
X161656168Y-122277222D01*
X161653842Y-122192070D01*
X161734340Y-122019440D01*
X161801066Y-121966488D01*
X161851692Y-121948062D01*
X161936843Y-121945735D01*
X162005896Y-121977935D01*
X162093374Y-122060760D01*
X162314489Y-122668269D01*
X162523786Y-122219431D01*
X161943637Y-121570602D02*
X162530579Y-121844298D01*
X162615731Y-121841971D01*
X162666357Y-121823545D01*
X162733082Y-121770593D01*
X162797481Y-121632489D01*
X162795155Y-121547337D01*
X162776729Y-121496711D01*
X162723776Y-121429986D01*
X162136834Y-121156290D01*
X163199975Y-120769338D02*
X163006778Y-121183650D01*
X163103376Y-120976494D02*
X162378330Y-120638400D01*
X162449709Y-120755751D01*
X162486561Y-120857003D01*
X162488888Y-120942154D01*
X114473904Y-114065304D02*
X113673904Y-114065304D01*
X113673904Y-113874828D01*
X113712000Y-113760542D01*
X113788190Y-113684352D01*
X113864380Y-113646257D01*
X114016761Y-113608161D01*
X114131047Y-113608161D01*
X114283428Y-113646257D01*
X114359619Y-113684352D01*
X114435809Y-113760542D01*
X114473904Y-113874828D01*
X114473904Y-114065304D01*
X114550095Y-113455780D02*
X114550095Y-112846257D01*
X113673904Y-112731971D02*
X114473904Y-112541495D01*
X113902476Y-112389114D01*
X114473904Y-112236733D01*
X113673904Y-112046257D01*
X114473904Y-111741495D02*
X113673904Y-111741495D01*
X114473904Y-111360542D02*
X113673904Y-111360542D01*
X114473904Y-110903400D01*
X113673904Y-110903400D01*
X114473904Y-110103400D02*
X114473904Y-110560542D01*
X114473904Y-110331971D02*
X113673904Y-110331971D01*
X113788190Y-110408161D01*
X113864380Y-110484352D01*
X113902476Y-110560542D01*
X81591266Y-88280704D02*
X81591266Y-87480704D01*
X81781742Y-87480704D01*
X81896028Y-87518800D01*
X81972219Y-87594990D01*
X82010314Y-87671180D01*
X82048409Y-87823561D01*
X82048409Y-87937847D01*
X82010314Y-88090228D01*
X81972219Y-88166419D01*
X81896028Y-88242609D01*
X81781742Y-88280704D01*
X81591266Y-88280704D01*
X82353171Y-88052133D02*
X82734123Y-88052133D01*
X82276980Y-88280704D02*
X82543647Y-87480704D01*
X82810314Y-88280704D01*
X83496028Y-88280704D02*
X83038885Y-88280704D01*
X83267457Y-88280704D02*
X83267457Y-87480704D01*
X83191266Y-87594990D01*
X83115076Y-87671180D01*
X83038885Y-87709276D01*
X158528123Y-107330904D02*
X158528123Y-106530904D01*
X158718600Y-106530904D01*
X158832885Y-106569000D01*
X158909076Y-106645190D01*
X158947171Y-106721380D01*
X158985266Y-106873761D01*
X158985266Y-106988047D01*
X158947171Y-107140428D01*
X158909076Y-107216619D01*
X158832885Y-107292809D01*
X158718600Y-107330904D01*
X158528123Y-107330904D01*
X159594790Y-106911857D02*
X159709076Y-106949952D01*
X159747171Y-106988047D01*
X159785266Y-107064238D01*
X159785266Y-107178523D01*
X159747171Y-107254714D01*
X159709076Y-107292809D01*
X159632885Y-107330904D01*
X159328123Y-107330904D01*
X159328123Y-106530904D01*
X159594790Y-106530904D01*
X159670980Y-106569000D01*
X159709076Y-106607095D01*
X159747171Y-106683285D01*
X159747171Y-106759476D01*
X159709076Y-106835666D01*
X159670980Y-106873761D01*
X159594790Y-106911857D01*
X159328123Y-106911857D01*
X160547171Y-107330904D02*
X160090028Y-107330904D01*
X160318600Y-107330904D02*
X160318600Y-106530904D01*
X160242409Y-106645190D01*
X160166219Y-106721380D01*
X160090028Y-106759476D01*
X120428123Y-99710704D02*
X120428123Y-98910704D01*
X120618600Y-98910704D01*
X120732885Y-98948800D01*
X120809076Y-99024990D01*
X120847171Y-99101180D01*
X120885266Y-99253561D01*
X120885266Y-99367847D01*
X120847171Y-99520228D01*
X120809076Y-99596419D01*
X120732885Y-99672609D01*
X120618600Y-99710704D01*
X120428123Y-99710704D01*
X121685266Y-99634514D02*
X121647171Y-99672609D01*
X121532885Y-99710704D01*
X121456695Y-99710704D01*
X121342409Y-99672609D01*
X121266219Y-99596419D01*
X121228123Y-99520228D01*
X121190028Y-99367847D01*
X121190028Y-99253561D01*
X121228123Y-99101180D01*
X121266219Y-99024990D01*
X121342409Y-98948800D01*
X121456695Y-98910704D01*
X121532885Y-98910704D01*
X121647171Y-98948800D01*
X121685266Y-98986895D01*
X122447171Y-99710704D02*
X121990028Y-99710704D01*
X122218600Y-99710704D02*
X122218600Y-98910704D01*
X122142409Y-99024990D01*
X122066219Y-99101180D01*
X121990028Y-99139276D01*
X120815219Y-61578904D02*
X120815219Y-60778904D01*
X121005695Y-60778904D01*
X121119980Y-60817000D01*
X121196171Y-60893190D01*
X121234266Y-60969380D01*
X121272361Y-61121761D01*
X121272361Y-61236047D01*
X121234266Y-61388428D01*
X121196171Y-61464619D01*
X121119980Y-61540809D01*
X121005695Y-61578904D01*
X120815219Y-61578904D01*
X121615219Y-61159857D02*
X121881885Y-61159857D01*
X121996171Y-61578904D02*
X121615219Y-61578904D01*
X121615219Y-60778904D01*
X121996171Y-60778904D01*
X122758076Y-61578904D02*
X122300933Y-61578904D01*
X122529504Y-61578904D02*
X122529504Y-60778904D01*
X122453314Y-60893190D01*
X122377123Y-60969380D01*
X122300933Y-61007476D01*
X139535266Y-84470704D02*
X139535266Y-83670704D01*
X139725742Y-83670704D01*
X139840028Y-83708800D01*
X139916219Y-83784990D01*
X139954314Y-83861180D01*
X139992409Y-84013561D01*
X139992409Y-84127847D01*
X139954314Y-84280228D01*
X139916219Y-84356419D01*
X139840028Y-84432609D01*
X139725742Y-84470704D01*
X139535266Y-84470704D01*
X140601933Y-84051657D02*
X140335266Y-84051657D01*
X140335266Y-84470704D02*
X140335266Y-83670704D01*
X140716219Y-83670704D01*
X141440028Y-84470704D02*
X140982885Y-84470704D01*
X141211457Y-84470704D02*
X141211457Y-83670704D01*
X141135266Y-83784990D01*
X141059076Y-83861180D01*
X140982885Y-83899276D01*
X158528123Y-88280704D02*
X158528123Y-87480704D01*
X158718600Y-87480704D01*
X158832885Y-87518800D01*
X158909076Y-87594990D01*
X158947171Y-87671180D01*
X158985266Y-87823561D01*
X158985266Y-87937847D01*
X158947171Y-88090228D01*
X158909076Y-88166419D01*
X158832885Y-88242609D01*
X158718600Y-88280704D01*
X158528123Y-88280704D01*
X159747171Y-87518800D02*
X159670980Y-87480704D01*
X159556695Y-87480704D01*
X159442409Y-87518800D01*
X159366219Y-87594990D01*
X159328123Y-87671180D01*
X159290028Y-87823561D01*
X159290028Y-87937847D01*
X159328123Y-88090228D01*
X159366219Y-88166419D01*
X159442409Y-88242609D01*
X159556695Y-88280704D01*
X159632885Y-88280704D01*
X159747171Y-88242609D01*
X159785266Y-88204514D01*
X159785266Y-87937847D01*
X159632885Y-87937847D01*
X160547171Y-88280704D02*
X160090028Y-88280704D01*
X160318600Y-88280704D02*
X160318600Y-87480704D01*
X160242409Y-87594990D01*
X160166219Y-87671180D01*
X160090028Y-87709276D01*
X82308876Y-69230704D02*
X82308876Y-68430704D01*
X82499352Y-68430704D01*
X82613638Y-68468800D01*
X82689828Y-68544990D01*
X82727923Y-68621180D01*
X82766019Y-68773561D01*
X82766019Y-68887847D01*
X82727923Y-69040228D01*
X82689828Y-69116419D01*
X82613638Y-69192609D01*
X82499352Y-69230704D01*
X82308876Y-69230704D01*
X83642209Y-69306895D02*
X83566019Y-69268800D01*
X83489828Y-69192609D01*
X83375542Y-69078323D01*
X83299352Y-69040228D01*
X83223161Y-69040228D01*
X83261257Y-69230704D02*
X83185066Y-69192609D01*
X83108876Y-69116419D01*
X83070780Y-68964038D01*
X83070780Y-68697371D01*
X83108876Y-68544990D01*
X83185066Y-68468800D01*
X83261257Y-68430704D01*
X83413638Y-68430704D01*
X83489828Y-68468800D01*
X83566019Y-68544990D01*
X83604114Y-68697371D01*
X83604114Y-68964038D01*
X83566019Y-69116419D01*
X83489828Y-69192609D01*
X83413638Y-69230704D01*
X83261257Y-69230704D01*
X84366019Y-69230704D02*
X83908876Y-69230704D01*
X84137447Y-69230704D02*
X84137447Y-68430704D01*
X84061257Y-68544990D01*
X83985066Y-68621180D01*
X83908876Y-68659276D01*
X140272123Y-65420704D02*
X140272123Y-64620704D01*
X140462600Y-64620704D01*
X140576885Y-64658800D01*
X140653076Y-64734990D01*
X140691171Y-64811180D01*
X140729266Y-64963561D01*
X140729266Y-65077847D01*
X140691171Y-65230228D01*
X140653076Y-65306419D01*
X140576885Y-65382609D01*
X140462600Y-65420704D01*
X140272123Y-65420704D01*
X141529266Y-65420704D02*
X141262600Y-65039752D01*
X141072123Y-65420704D02*
X141072123Y-64620704D01*
X141376885Y-64620704D01*
X141453076Y-64658800D01*
X141491171Y-64696895D01*
X141529266Y-64773085D01*
X141529266Y-64887371D01*
X141491171Y-64963561D01*
X141453076Y-65001657D01*
X141376885Y-65039752D01*
X141072123Y-65039752D01*
X142291171Y-65420704D02*
X141834028Y-65420704D01*
X142062600Y-65420704D02*
X142062600Y-64620704D01*
X141986409Y-64734990D01*
X141910219Y-64811180D01*
X141834028Y-64849276D01*
X101397171Y-84470704D02*
X101397171Y-83670704D01*
X101587647Y-83670704D01*
X101701933Y-83708800D01*
X101778123Y-83784990D01*
X101816219Y-83861180D01*
X101854314Y-84013561D01*
X101854314Y-84127847D01*
X101816219Y-84280228D01*
X101778123Y-84356419D01*
X101701933Y-84432609D01*
X101587647Y-84470704D01*
X101397171Y-84470704D01*
X102159076Y-84432609D02*
X102273361Y-84470704D01*
X102463838Y-84470704D01*
X102540028Y-84432609D01*
X102578123Y-84394514D01*
X102616219Y-84318323D01*
X102616219Y-84242133D01*
X102578123Y-84165942D01*
X102540028Y-84127847D01*
X102463838Y-84089752D01*
X102311457Y-84051657D01*
X102235266Y-84013561D01*
X102197171Y-83975466D01*
X102159076Y-83899276D01*
X102159076Y-83823085D01*
X102197171Y-83746895D01*
X102235266Y-83708800D01*
X102311457Y-83670704D01*
X102501933Y-83670704D01*
X102616219Y-83708800D01*
X103378123Y-84470704D02*
X102920980Y-84470704D01*
X103149552Y-84470704D02*
X103149552Y-83670704D01*
X103073361Y-83784990D01*
X102997171Y-83861180D01*
X102920980Y-83899276D01*
X157511361Y-68436904D02*
X157511361Y-67636904D01*
X157701838Y-67636904D01*
X157816123Y-67675000D01*
X157892314Y-67751190D01*
X157930409Y-67827380D01*
X157968504Y-67979761D01*
X157968504Y-68094047D01*
X157930409Y-68246428D01*
X157892314Y-68322619D01*
X157816123Y-68398809D01*
X157701838Y-68436904D01*
X157511361Y-68436904D01*
X158197076Y-67636904D02*
X158654219Y-67636904D01*
X158425647Y-68436904D02*
X158425647Y-67636904D01*
X159339933Y-68436904D02*
X158882790Y-68436904D01*
X159111361Y-68436904D02*
X159111361Y-67636904D01*
X159035171Y-67751190D01*
X158958980Y-67827380D01*
X158882790Y-67865476D01*
X139535266Y-103520904D02*
X139535266Y-102720904D01*
X139725742Y-102720904D01*
X139840028Y-102759000D01*
X139916219Y-102835190D01*
X139954314Y-102911380D01*
X139992409Y-103063761D01*
X139992409Y-103178047D01*
X139954314Y-103330428D01*
X139916219Y-103406619D01*
X139840028Y-103482809D01*
X139725742Y-103520904D01*
X139535266Y-103520904D01*
X140220980Y-102720904D02*
X140487647Y-103520904D01*
X140754314Y-102720904D01*
X141440028Y-103520904D02*
X140982885Y-103520904D01*
X141211457Y-103520904D02*
X141211457Y-102720904D01*
X141135266Y-102835190D01*
X141059076Y-102911380D01*
X140982885Y-102949476D01*
X101320980Y-65420704D02*
X101320980Y-64620704D01*
X101511457Y-64620704D01*
X101625742Y-64658800D01*
X101701933Y-64734990D01*
X101740028Y-64811180D01*
X101778123Y-64963561D01*
X101778123Y-65077847D01*
X101740028Y-65230228D01*
X101701933Y-65306419D01*
X101625742Y-65382609D01*
X101511457Y-65420704D01*
X101320980Y-65420704D01*
X102044790Y-64620704D02*
X102235266Y-65420704D01*
X102387647Y-64849276D01*
X102540028Y-65420704D01*
X102730504Y-64620704D01*
X103454314Y-65420704D02*
X102997171Y-65420704D01*
X103225742Y-65420704D02*
X103225742Y-64620704D01*
X103149552Y-64734990D01*
X103073361Y-64811180D01*
X102997171Y-64849276D01*
X101397171Y-103520904D02*
X101397171Y-102720904D01*
X101587647Y-102720904D01*
X101701933Y-102759000D01*
X101778123Y-102835190D01*
X101816219Y-102911380D01*
X101854314Y-103063761D01*
X101854314Y-103178047D01*
X101816219Y-103330428D01*
X101778123Y-103406619D01*
X101701933Y-103482809D01*
X101587647Y-103520904D01*
X101397171Y-103520904D01*
X102120980Y-102720904D02*
X102654314Y-103520904D01*
X102654314Y-102720904D02*
X102120980Y-103520904D01*
X103378123Y-103520904D02*
X102920980Y-103520904D01*
X103149552Y-103520904D02*
X103149552Y-102720904D01*
X103073361Y-102835190D01*
X102997171Y-102911380D01*
X102920980Y-102949476D01*
X81553171Y-107330904D02*
X81553171Y-106530904D01*
X81743647Y-106530904D01*
X81857933Y-106569000D01*
X81934123Y-106645190D01*
X81972219Y-106721380D01*
X82010314Y-106873761D01*
X82010314Y-106988047D01*
X81972219Y-107140428D01*
X81934123Y-107216619D01*
X81857933Y-107292809D01*
X81743647Y-107330904D01*
X81553171Y-107330904D01*
X82276980Y-106530904D02*
X82810314Y-106530904D01*
X82276980Y-107330904D01*
X82810314Y-107330904D01*
X83534123Y-107330904D02*
X83076980Y-107330904D01*
X83305552Y-107330904D02*
X83305552Y-106530904D01*
X83229361Y-106645190D01*
X83153171Y-106721380D01*
X83076980Y-106759476D01*
D15*
X53335514Y-81537023D02*
X53335514Y-80267023D01*
X54206371Y-81537023D02*
X53553228Y-80811309D01*
X54206371Y-80267023D02*
X53335514Y-80992738D01*
X54496657Y-81657976D02*
X55657800Y-81657976D01*
X56891514Y-81416071D02*
X56818942Y-81476547D01*
X56601228Y-81537023D01*
X56456085Y-81537023D01*
X56238371Y-81476547D01*
X56093228Y-81355595D01*
X56020657Y-81234642D01*
X55948085Y-80992738D01*
X55948085Y-80811309D01*
X56020657Y-80569404D01*
X56093228Y-80448452D01*
X56238371Y-80327500D01*
X56456085Y-80267023D01*
X56601228Y-80267023D01*
X56818942Y-80327500D01*
X56891514Y-80387976D01*
X57472085Y-81174166D02*
X58197800Y-81174166D01*
X57326942Y-81537023D02*
X57834942Y-80267023D01*
X58342942Y-81537023D01*
X58850942Y-81537023D02*
X58850942Y-80267023D01*
X59431514Y-80267023D01*
X59576657Y-80327500D01*
X59649228Y-80387976D01*
X59721800Y-80508928D01*
X59721800Y-80690357D01*
X59649228Y-80811309D01*
X59576657Y-80871785D01*
X59431514Y-80932261D01*
X58850942Y-80932261D01*
X60302371Y-81476547D02*
X60520085Y-81537023D01*
X60882942Y-81537023D01*
X61028085Y-81476547D01*
X61100657Y-81416071D01*
X61173228Y-81295119D01*
X61173228Y-81174166D01*
X61100657Y-81053214D01*
X61028085Y-80992738D01*
X60882942Y-80932261D01*
X60592657Y-80871785D01*
X60447514Y-80811309D01*
X60374942Y-80750833D01*
X60302371Y-80629880D01*
X60302371Y-80508928D01*
X60374942Y-80387976D01*
X60447514Y-80327500D01*
X60592657Y-80267023D01*
X60955514Y-80267023D01*
X61173228Y-80327500D01*
X62624657Y-81537023D02*
X61753800Y-81537023D01*
X62189228Y-81537023D02*
X62189228Y-80267023D01*
X62044085Y-80448452D01*
X61898942Y-80569404D01*
X61753800Y-80629880D01*
X48355200Y-100587023D02*
X48355200Y-99317023D01*
X49226057Y-100587023D02*
X48572914Y-99861309D01*
X49226057Y-99317023D02*
X48355200Y-100042738D01*
X49516342Y-100707976D02*
X50677485Y-100707976D01*
X50967771Y-100526547D02*
X51185485Y-100587023D01*
X51548342Y-100587023D01*
X51693485Y-100526547D01*
X51766057Y-100466071D01*
X51838628Y-100345119D01*
X51838628Y-100224166D01*
X51766057Y-100103214D01*
X51693485Y-100042738D01*
X51548342Y-99982261D01*
X51258057Y-99921785D01*
X51112914Y-99861309D01*
X51040342Y-99800833D01*
X50967771Y-99679880D01*
X50967771Y-99558928D01*
X51040342Y-99437976D01*
X51112914Y-99377500D01*
X51258057Y-99317023D01*
X51620914Y-99317023D01*
X51838628Y-99377500D01*
X52491771Y-100587023D02*
X52491771Y-99317023D01*
X52491771Y-99921785D02*
X53362628Y-99921785D01*
X53362628Y-100587023D02*
X53362628Y-99317023D01*
X54088342Y-100587023D02*
X54088342Y-99317023D01*
X55322057Y-99921785D02*
X54814057Y-99921785D01*
X54814057Y-100587023D02*
X54814057Y-99317023D01*
X55539771Y-99317023D01*
X55902628Y-99317023D02*
X56773485Y-99317023D01*
X56338057Y-100587023D02*
X56338057Y-99317023D01*
X58079771Y-100587023D02*
X57208914Y-100587023D01*
X57644342Y-100587023D02*
X57644342Y-99317023D01*
X57499200Y-99498452D01*
X57354057Y-99619404D01*
X57208914Y-99679880D01*
D10*
X184449058Y-126600457D02*
X183724012Y-126262362D01*
X183804511Y-126089732D01*
X183887336Y-126002254D01*
X183988587Y-125965401D01*
X184073739Y-125963075D01*
X184227943Y-125992948D01*
X184331521Y-126041247D01*
X184453525Y-126140172D01*
X184506478Y-126206897D01*
X184543330Y-126308149D01*
X184529557Y-126427827D01*
X184449058Y-126600457D01*
X184775706Y-126080240D02*
X185033302Y-125527824D01*
X184271403Y-125088478D02*
X184464600Y-124674166D01*
X185093048Y-125219416D02*
X184368002Y-124881322D01*
X185302345Y-124770578D02*
X184577298Y-124432484D01*
X184922558Y-124593481D02*
X185115755Y-124179169D01*
X185495541Y-124356266D02*
X184770495Y-124018171D01*
X185833636Y-123631220D02*
X185640439Y-124045532D01*
X185737038Y-123838376D02*
X185011991Y-123500281D01*
X185083370Y-123617632D01*
X185120222Y-123718884D01*
X185122549Y-123804036D01*
X185967087Y-123525315D02*
X186224683Y-122972899D01*
X185478884Y-122499027D02*
X185688181Y-122050189D01*
X185851690Y-122420669D01*
X185899990Y-122317091D01*
X185966715Y-122264138D01*
X186017341Y-122245712D01*
X186102493Y-122243386D01*
X186275123Y-122323884D01*
X186328075Y-122390610D01*
X186346501Y-122441236D01*
X186348828Y-122526387D01*
X186252229Y-122733543D01*
X186185504Y-122786496D01*
X186134878Y-122804922D01*
D16*
X165928378Y-131704910D02*
X165022070Y-131282292D01*
X166169874Y-131187020D02*
X165470861Y-131333941D01*
X165263566Y-130764401D02*
X165539960Y-131523788D01*
X166336687Y-131054639D02*
X166658682Y-130364119D01*
X165706309Y-129814936D02*
X165947805Y-129297046D01*
X166733365Y-129978609D02*
X165827057Y-129555991D01*
X166994986Y-129417562D02*
X166088678Y-128994943D01*
X166520253Y-129196190D02*
X166761749Y-128678300D01*
X167236482Y-128899671D02*
X166330174Y-128477053D01*
X166531421Y-128045478D02*
X167265098Y-128387598D01*
X167371538Y-128384689D01*
X167434820Y-128361657D01*
X167518227Y-128295466D01*
X167598726Y-128122836D01*
X167595818Y-128016397D01*
X167572785Y-127953114D01*
X167506595Y-127869707D01*
X166772917Y-127527588D01*
X167880471Y-127518631D02*
X166974164Y-127096013D01*
X167762399Y-127095780D01*
X167255909Y-126491808D01*
X168162217Y-126914426D01*
X168029604Y-125959377D02*
X168133135Y-125850029D01*
X168196418Y-125826996D01*
X168302857Y-125824088D01*
X168432330Y-125884462D01*
X168498520Y-125967869D01*
X168521553Y-126031151D01*
X168524461Y-126137591D01*
X168363464Y-126482851D01*
X167457156Y-126060232D01*
X167598029Y-125758130D01*
X167681436Y-125691940D01*
X167744718Y-125668907D01*
X167851157Y-125665999D01*
X167937473Y-125706248D01*
X168003663Y-125789655D01*
X168026696Y-125852937D01*
X168029604Y-125959377D01*
X167888731Y-126261479D01*
X168771774Y-125832580D02*
X169093769Y-125142060D01*
X168267959Y-124546811D02*
X168244927Y-124483529D01*
X168242018Y-124377089D01*
X168342642Y-124161302D01*
X168426049Y-124095112D01*
X168489331Y-124072079D01*
X168595771Y-124069171D01*
X168682086Y-124109420D01*
X168791434Y-124212951D01*
X169067828Y-124972338D01*
X169329448Y-124411290D01*
X168604263Y-123600254D02*
X169337940Y-123942374D01*
X169444380Y-123939466D01*
X169507662Y-123916433D01*
X169591069Y-123850242D01*
X169671568Y-123677612D01*
X169668660Y-123571173D01*
X169645627Y-123507890D01*
X169579437Y-123424484D01*
X168845759Y-123082364D01*
X170174685Y-122598675D02*
X169933189Y-123116565D01*
X170053937Y-122857620D02*
X169147629Y-122435001D01*
X169236852Y-122581690D01*
X169282918Y-122708255D01*
X169285826Y-122814694D01*
D10*
X41738885Y-52993704D02*
X41738885Y-52193704D01*
X41929361Y-52193704D01*
X42043647Y-52231800D01*
X42119838Y-52307990D01*
X42157933Y-52384180D01*
X42196028Y-52536561D01*
X42196028Y-52650847D01*
X42157933Y-52803228D01*
X42119838Y-52879419D01*
X42043647Y-52955609D01*
X41929361Y-52993704D01*
X41738885Y-52993704D01*
X42348409Y-53069895D02*
X42957933Y-53069895D01*
X43148409Y-52574657D02*
X43415076Y-52574657D01*
X43529361Y-52993704D02*
X43148409Y-52993704D01*
X43148409Y-52193704D01*
X43529361Y-52193704D01*
X43796028Y-52193704D02*
X44329361Y-52993704D01*
X44329361Y-52193704D02*
X43796028Y-52993704D01*
X44519838Y-52193704D02*
X44976980Y-52193704D01*
X44748409Y-52993704D02*
X44748409Y-52193704D01*
X45700790Y-52993704D02*
X45434123Y-52612752D01*
X45243647Y-52993704D02*
X45243647Y-52193704D01*
X45548409Y-52193704D01*
X45624600Y-52231800D01*
X45662695Y-52269895D01*
X45700790Y-52346085D01*
X45700790Y-52460371D01*
X45662695Y-52536561D01*
X45624600Y-52574657D01*
X45548409Y-52612752D01*
X45243647Y-52612752D01*
X46005552Y-52765133D02*
X46386504Y-52765133D01*
X45929361Y-52993704D02*
X46196028Y-52193704D01*
X46462695Y-52993704D01*
X47148409Y-52993704D02*
X46691266Y-52993704D01*
X46919838Y-52993704D02*
X46919838Y-52193704D01*
X46843647Y-52307990D01*
X46767457Y-52384180D01*
X46691266Y-52422276D01*
M02*
