M48
; DRILL file {KiCad (5.1.5)-3} date 3/3/2020 7:55:20 PM
; FORMAT={-:-/ absolute / inch / decimal}
; #@! TF.CreationDate,2020-03-03T19:55:20+05:30
; #@! TF.GenerationSoftware,Kicad,Pcbnew,(5.1.5)-3
; #@! TF.FileFunction,NonPlated,1,2,NPTH
FMAT,2
INCH
T1C0.0315
T2C0.0709
T3C0.1200
T4C0.1570
%
G90
G05
T1
X6.1851Y-0.8233
X6.1851Y-1.0989
X6.1851Y-0.8233
X6.1851Y-1.0989
T2
X7.053Y-5.6245
X7.4155Y-5.7935
X4.6125Y-3.5125
X5.0125Y-3.5125
X3.8625Y-4.4125
X4.2625Y-4.4125
X2.3625Y-4.5625
X2.7625Y-4.5625
X6.1125Y-1.5625
X6.5125Y-1.5625
X6.3727Y-5.307
X6.7352Y-5.4761
X4.6125Y-2.7625
X5.0125Y-2.7625
X3.8625Y-2.1625
X4.2625Y-2.1625
X3.8625Y-1.4125
X4.2625Y-1.4125
X6.6897Y-4.6273
X7.0522Y-4.7963
X2.0813Y-3.0625
X2.4813Y-3.0625
X6.1125Y-2.3125
X6.5125Y-2.3125
X4.61Y-4.26
X5.01Y-4.26
X1.99Y-1.5625
X2.39Y-1.5625
X1.7063Y-3.8125
X2.1063Y-3.8125
X3.1125Y-3.8125
X3.5125Y-3.8125
X7.3699Y-4.9447
X7.7324Y-5.1138
X3.8625Y-2.9125
X4.2625Y-2.9125
X3.1125Y-4.5625
X3.5125Y-4.5625
X2.175Y-2.3125
X2.575Y-2.3125
X1.8937Y-3.8125
X2.2937Y-3.8125
X5.3625Y-3.6625
X5.7625Y-3.6625
X5.3625Y-2.1625
X5.7625Y-2.1625
X3.1125Y-3.0625
X3.5125Y-3.0625
X5.3625Y-1.4125
X5.7625Y-1.4125
X6.1125Y-3.0625
X6.5125Y-3.0625
X1.613Y-1.563
X2.013Y-1.563
X5.3625Y-2.9125
X5.7625Y-2.9125
X2.3625Y-1.5625
X2.7625Y-1.5625
X5.36Y-4.41
X5.76Y-4.41
X4.6125Y-1.2625
X5.0125Y-1.2625
X3.1125Y-1.5625
X3.5125Y-1.5625
X6.6284Y-5.2334
X6.7975Y-4.8709
X4.6125Y-2.0125
X5.0125Y-2.0125
X3.8625Y-3.6625
X4.2625Y-3.6625
X3.1125Y-2.3125
X3.5125Y-2.3125
X1.8937Y-3.0625
X2.2937Y-3.0625
X6.1125Y-3.8125
X6.5125Y-3.8125
T3
X1.72Y-1.2875
X2.66Y-1.2875
X1.4363Y-3.5375
X2.3763Y-3.5375
X1.6237Y-3.5375
X2.5637Y-3.5375
X6.7636Y-5.5943
X7.1608Y-4.7424
X1.6237Y-2.7875
X2.5637Y-2.7875
T4
X1.72Y-1.8875
X2.19Y-1.5625
X2.66Y-1.8875
X1.4363Y-4.1375
X1.9063Y-3.8125
X2.3763Y-4.1375
X3.3125Y-3.8125
X7.5511Y-5.0293
X4.0625Y-2.9125
X3.3125Y-4.5625
X2.375Y-2.3125
X1.6237Y-4.1375
X2.0937Y-3.8125
X2.5637Y-4.1375
X5.5625Y-3.6625
X5.5625Y-2.1625
X3.3125Y-3.0625
X5.5625Y-1.4125
X6.3125Y-3.0625
X1.813Y-1.563
X5.5625Y-2.9125
X2.5625Y-1.5625
X5.56Y-4.41
X4.8125Y-1.2625
X3.3125Y-1.5625
X6.2198Y-5.3407
X6.617Y-4.4888
X6.713Y-5.0521
X4.8125Y-2.0125
X4.0625Y-3.6625
X3.3125Y-2.3125
X1.6237Y-3.3875
X2.0937Y-3.0625
X2.5637Y-3.3875
X6.3125Y-3.8125
X7.2342Y-5.709
X4.8125Y-3.5125
X4.0625Y-4.4125
X2.5625Y-4.5625
X6.3125Y-1.5625
X6.554Y-5.3915
X4.8125Y-2.7625
X4.0625Y-2.1625
X4.0625Y-1.4125
X6.8709Y-4.7118
X2.2813Y-3.0625
X6.3125Y-2.3125
X4.81Y-4.26
T0
M30
