G04 #@! TF.GenerationSoftware,KiCad,Pcbnew,(5.1.5)-3*
G04 #@! TF.CreationDate,2020-01-24T10:20:19+05:30*
G04 #@! TF.ProjectId,ergocape,6572676f-6361-4706-952e-6b696361645f,rev?*
G04 #@! TF.SameCoordinates,Original*
G04 #@! TF.FileFunction,Legend,Bot*
G04 #@! TF.FilePolarity,Positive*
%FSLAX46Y46*%
G04 Gerber Fmt 4.6, Leading zero omitted, Abs format (unit mm)*
G04 Created by KiCad (PCBNEW (5.1.5)-3) date 2020-01-24 10:20:19*
%MOMM*%
%LPD*%
G04 APERTURE LIST*
%ADD10C,0.150000*%
%ADD11C,0.381000*%
%ADD12C,0.010000*%
%ADD13C,0.127000*%
%ADD14C,0.200000*%
%ADD15C,0.203200*%
G04 APERTURE END LIST*
D10*
X168663476Y-96743780D02*
X168996809Y-96267590D01*
X169234904Y-96743780D02*
X169234904Y-95743780D01*
X168853952Y-95743780D01*
X168758714Y-95791400D01*
X168711095Y-95839019D01*
X168663476Y-95934257D01*
X168663476Y-96077114D01*
X168711095Y-96172352D01*
X168758714Y-96219971D01*
X168853952Y-96267590D01*
X169234904Y-96267590D01*
X168234904Y-96743780D02*
X168234904Y-95743780D01*
X167234904Y-95791400D02*
X167330142Y-95743780D01*
X167473000Y-95743780D01*
X167615857Y-95791400D01*
X167711095Y-95886638D01*
X167758714Y-95981876D01*
X167806333Y-96172352D01*
X167806333Y-96315209D01*
X167758714Y-96505685D01*
X167711095Y-96600923D01*
X167615857Y-96696161D01*
X167473000Y-96743780D01*
X167377761Y-96743780D01*
X167234904Y-96696161D01*
X167187285Y-96648542D01*
X167187285Y-96315209D01*
X167377761Y-96315209D01*
X166758714Y-96743780D02*
X166758714Y-95743780D01*
X166758714Y-96219971D02*
X166187285Y-96219971D01*
X166187285Y-96743780D02*
X166187285Y-95743780D01*
X165853952Y-95743780D02*
X165282523Y-95743780D01*
X165568238Y-96743780D02*
X165568238Y-95743780D01*
X164187285Y-96743780D02*
X164187285Y-95743780D01*
X164187285Y-96219971D02*
X163615857Y-96219971D01*
X163615857Y-96743780D02*
X163615857Y-95743780D01*
X163187285Y-96458066D02*
X162711095Y-96458066D01*
X163282523Y-96743780D02*
X162949190Y-95743780D01*
X162615857Y-96743780D01*
X162282523Y-96743780D02*
X162282523Y-95743780D01*
X161711095Y-96743780D01*
X161711095Y-95743780D01*
X161234904Y-96743780D02*
X161234904Y-95743780D01*
X160996809Y-95743780D01*
X160853952Y-95791400D01*
X160758714Y-95886638D01*
X160711095Y-95981876D01*
X160663476Y-96172352D01*
X160663476Y-96315209D01*
X160711095Y-96505685D01*
X160758714Y-96600923D01*
X160853952Y-96696161D01*
X160996809Y-96743780D01*
X161234904Y-96743780D01*
D11*
X61976000Y-49110900D02*
X61976000Y-47332900D01*
X61976000Y-60032900D02*
X61976000Y-58254900D01*
X60198000Y-60032900D02*
X61976000Y-60032900D01*
X49276000Y-60032900D02*
X51054000Y-60032900D01*
X49276000Y-58254900D02*
X49276000Y-60032900D01*
X49276000Y-47332900D02*
X49276000Y-49110900D01*
X51054000Y-47332900D02*
X49276000Y-47332900D01*
X61976000Y-47332900D02*
X60198000Y-47332900D01*
X54768800Y-106261000D02*
X54768800Y-104483000D01*
X54768800Y-117183000D02*
X54768800Y-115405000D01*
X52990800Y-117183000D02*
X54768800Y-117183000D01*
X42068800Y-117183000D02*
X43846800Y-117183000D01*
X42068800Y-115405000D02*
X42068800Y-117183000D01*
X42068800Y-104483000D02*
X42068800Y-106261000D01*
X43846800Y-104483000D02*
X42068800Y-104483000D01*
X54768800Y-104483000D02*
X52990800Y-104483000D01*
D12*
G36*
X144015690Y-31887948D02*
G01*
X143937146Y-31888378D01*
X143880302Y-31889542D01*
X143841495Y-31891807D01*
X143817062Y-31895540D01*
X143803338Y-31901106D01*
X143796660Y-31908873D01*
X143793364Y-31919205D01*
X143793044Y-31920543D01*
X143788038Y-31944679D01*
X143778771Y-31992301D01*
X143766208Y-32058341D01*
X143751313Y-32137728D01*
X143735049Y-32225396D01*
X143734481Y-32228475D01*
X143718190Y-32314389D01*
X143702948Y-32390296D01*
X143689739Y-32451645D01*
X143679546Y-32493882D01*
X143673352Y-32512455D01*
X143673057Y-32512784D01*
X143654812Y-32521853D01*
X143617195Y-32536967D01*
X143568329Y-32554862D01*
X143568057Y-32554958D01*
X143506507Y-32578093D01*
X143433943Y-32607565D01*
X143365543Y-32637197D01*
X143362306Y-32638662D01*
X143250898Y-32689226D01*
X143004201Y-32520760D01*
X142928523Y-32469403D01*
X142859969Y-32423489D01*
X142802512Y-32385630D01*
X142760124Y-32358437D01*
X142736775Y-32344521D01*
X142734558Y-32343489D01*
X142717590Y-32348084D01*
X142685899Y-32370255D01*
X142638248Y-32411047D01*
X142573402Y-32471505D01*
X142507203Y-32535827D01*
X142443386Y-32599212D01*
X142386271Y-32657051D01*
X142339295Y-32705775D01*
X142305897Y-32741810D01*
X142289515Y-32761584D01*
X142288906Y-32762602D01*
X142287095Y-32776172D01*
X142293917Y-32798333D01*
X142311060Y-32832078D01*
X142340207Y-32880400D01*
X142383045Y-32946292D01*
X142440152Y-33031117D01*
X142490834Y-33105777D01*
X142536139Y-33172740D01*
X142573450Y-33228116D01*
X142600148Y-33268020D01*
X142613615Y-33288562D01*
X142614463Y-33289956D01*
X142612819Y-33309638D01*
X142600355Y-33347893D01*
X142579552Y-33397489D01*
X142572138Y-33413328D01*
X142539786Y-33483890D01*
X142505272Y-33563953D01*
X142477235Y-33633229D01*
X142457032Y-33684645D01*
X142440985Y-33723719D01*
X142431712Y-33744141D01*
X142430559Y-33745714D01*
X142413504Y-33748321D01*
X142373302Y-33755463D01*
X142315298Y-33766123D01*
X142244837Y-33779285D01*
X142167265Y-33793933D01*
X142087928Y-33809049D01*
X142012169Y-33823618D01*
X141945336Y-33836622D01*
X141892772Y-33847045D01*
X141859824Y-33853870D01*
X141851743Y-33855799D01*
X141843395Y-33860562D01*
X141837094Y-33871318D01*
X141832555Y-33891698D01*
X141829496Y-33925334D01*
X141827633Y-33975855D01*
X141826682Y-34046892D01*
X141826360Y-34142076D01*
X141826343Y-34181092D01*
X141826343Y-34498399D01*
X141902543Y-34513439D01*
X141944937Y-34521595D01*
X142008200Y-34533499D01*
X142084638Y-34547716D01*
X142166557Y-34562810D01*
X142189200Y-34566955D01*
X142264794Y-34581653D01*
X142330647Y-34596105D01*
X142381234Y-34608975D01*
X142411026Y-34618922D01*
X142415988Y-34621887D01*
X142428174Y-34642883D01*
X142445647Y-34683567D01*
X142465023Y-34735922D01*
X142468866Y-34747200D01*
X142494261Y-34817123D01*
X142525783Y-34896018D01*
X142556631Y-34966866D01*
X142556783Y-34967195D01*
X142608153Y-35078333D01*
X142439201Y-35326853D01*
X142270248Y-35575372D01*
X142487171Y-35792658D01*
X142552781Y-35857326D01*
X142612621Y-35914333D01*
X142663333Y-35960633D01*
X142701554Y-35993184D01*
X142723925Y-36008943D01*
X142727134Y-36009943D01*
X142745974Y-36002069D01*
X142784420Y-35980178D01*
X142838270Y-35946867D01*
X142903324Y-35904731D01*
X142973660Y-35857543D01*
X143045045Y-35809410D01*
X143108692Y-35767528D01*
X143160559Y-35734471D01*
X143196605Y-35712818D01*
X143212733Y-35705143D01*
X143232411Y-35711637D01*
X143269725Y-35728750D01*
X143316979Y-35752926D01*
X143321988Y-35755613D01*
X143385623Y-35787527D01*
X143429259Y-35803179D01*
X143456398Y-35803345D01*
X143470543Y-35788804D01*
X143470625Y-35788600D01*
X143477695Y-35771379D01*
X143494558Y-35730499D01*
X143519905Y-35669125D01*
X143552429Y-35590419D01*
X143590822Y-35497547D01*
X143633778Y-35393672D01*
X143675378Y-35293102D01*
X143721096Y-35182116D01*
X143763074Y-35079303D01*
X143800052Y-34987815D01*
X143830773Y-34910801D01*
X143853978Y-34851415D01*
X143868410Y-34812809D01*
X143872857Y-34798400D01*
X143861704Y-34781872D01*
X143832531Y-34755530D01*
X143793629Y-34726487D01*
X143682843Y-34634639D01*
X143596249Y-34529359D01*
X143534884Y-34412866D01*
X143499785Y-34287376D01*
X143491992Y-34155107D01*
X143497657Y-34094057D01*
X143528522Y-33967395D01*
X143581680Y-33855541D01*
X143653833Y-33759601D01*
X143741683Y-33680676D01*
X143841935Y-33619870D01*
X143951290Y-33578287D01*
X144066453Y-33557028D01*
X144184125Y-33557199D01*
X144301010Y-33579901D01*
X144413811Y-33626238D01*
X144519231Y-33697313D01*
X144563232Y-33737511D01*
X144647621Y-33840729D01*
X144706378Y-33953525D01*
X144739896Y-34072610D01*
X144748565Y-34194695D01*
X144732777Y-34316493D01*
X144692922Y-34434716D01*
X144629393Y-34546075D01*
X144542579Y-34647284D01*
X144445571Y-34726487D01*
X144405163Y-34756762D01*
X144376618Y-34782819D01*
X144366343Y-34798425D01*
X144371723Y-34815443D01*
X144387025Y-34856100D01*
X144410988Y-34917242D01*
X144442356Y-34995719D01*
X144479868Y-35088380D01*
X144522267Y-35192072D01*
X144563937Y-35293126D01*
X144609910Y-35404207D01*
X144652493Y-35507141D01*
X144690379Y-35598765D01*
X144722260Y-35675916D01*
X144746829Y-35735431D01*
X144762780Y-35774144D01*
X144768690Y-35788600D01*
X144782652Y-35803285D01*
X144809660Y-35803242D01*
X144853187Y-35787699D01*
X144916710Y-35755884D01*
X144917212Y-35755613D01*
X144965040Y-35730923D01*
X145003703Y-35712938D01*
X145025505Y-35705214D01*
X145026467Y-35705143D01*
X145042879Y-35712978D01*
X145079113Y-35734765D01*
X145131126Y-35767928D01*
X145194875Y-35809891D01*
X145265540Y-35857543D01*
X145337484Y-35905791D01*
X145402326Y-35947751D01*
X145455865Y-35980827D01*
X145493903Y-36002421D01*
X145512067Y-36009943D01*
X145528792Y-36000057D01*
X145562420Y-35972426D01*
X145609590Y-35930095D01*
X145666942Y-35876105D01*
X145731116Y-35813499D01*
X145752103Y-35792583D01*
X145969101Y-35575223D01*
X145803932Y-35332820D01*
X145753736Y-35258381D01*
X145709681Y-35191572D01*
X145674238Y-35136265D01*
X145649881Y-35096329D01*
X145639078Y-35075636D01*
X145638762Y-35074163D01*
X145644457Y-35054658D01*
X145659774Y-35015422D01*
X145682063Y-34963030D01*
X145697707Y-34927955D01*
X145726959Y-34860801D01*
X145754506Y-34792958D01*
X145775863Y-34735634D01*
X145781665Y-34718172D01*
X145798148Y-34671538D01*
X145814260Y-34635505D01*
X145823110Y-34621887D01*
X145842640Y-34613552D01*
X145885266Y-34601737D01*
X145945455Y-34587781D01*
X146017678Y-34573022D01*
X146050000Y-34566955D01*
X146132078Y-34551873D01*
X146210805Y-34537269D01*
X146278491Y-34524580D01*
X146327440Y-34515242D01*
X146336657Y-34513439D01*
X146412857Y-34498399D01*
X146412857Y-34181092D01*
X146412686Y-34076754D01*
X146411984Y-33997813D01*
X146410466Y-33940638D01*
X146407851Y-33901599D01*
X146403854Y-33877065D01*
X146398191Y-33863405D01*
X146390580Y-33856989D01*
X146387457Y-33855799D01*
X146368622Y-33851580D01*
X146327012Y-33843162D01*
X146267970Y-33831561D01*
X146196843Y-33817795D01*
X146118975Y-33802880D01*
X146039713Y-33787832D01*
X145964402Y-33773669D01*
X145898387Y-33761406D01*
X145847013Y-33752061D01*
X145815625Y-33746650D01*
X145808641Y-33745714D01*
X145802315Y-33733196D01*
X145788310Y-33699846D01*
X145769245Y-33651977D01*
X145761966Y-33633229D01*
X145732604Y-33560795D01*
X145698029Y-33480770D01*
X145667063Y-33413328D01*
X145644277Y-33361759D01*
X145629118Y-33319385D01*
X145624058Y-33293434D01*
X145624864Y-33289956D01*
X145635559Y-33273536D01*
X145659980Y-33237017D01*
X145695505Y-33184287D01*
X145739513Y-33119235D01*
X145789383Y-33045751D01*
X145799244Y-33031245D01*
X145857108Y-32945304D01*
X145899644Y-32879861D01*
X145928546Y-32831904D01*
X145945510Y-32798420D01*
X145952233Y-32776395D01*
X145950410Y-32762817D01*
X145950364Y-32762731D01*
X145936014Y-32744897D01*
X145904277Y-32710417D01*
X145858590Y-32662868D01*
X145802396Y-32605822D01*
X145739132Y-32542855D01*
X145731998Y-32535827D01*
X145652270Y-32458620D01*
X145590743Y-32401930D01*
X145546179Y-32364710D01*
X145517343Y-32345915D01*
X145504642Y-32343489D01*
X145486106Y-32354071D01*
X145447639Y-32378516D01*
X145393214Y-32414212D01*
X145326802Y-32458547D01*
X145252375Y-32508911D01*
X145234999Y-32520760D01*
X144988303Y-32689226D01*
X144876894Y-32638662D01*
X144809143Y-32609195D01*
X144736417Y-32579559D01*
X144673897Y-32555930D01*
X144671143Y-32554958D01*
X144622240Y-32537057D01*
X144584543Y-32521920D01*
X144566175Y-32512810D01*
X144566144Y-32512784D01*
X144560315Y-32496317D01*
X144550408Y-32455819D01*
X144537405Y-32395842D01*
X144522291Y-32320940D01*
X144506048Y-32235664D01*
X144504719Y-32228475D01*
X144488425Y-32140614D01*
X144473467Y-32060860D01*
X144460809Y-31994281D01*
X144451414Y-31945947D01*
X144446246Y-31920925D01*
X144446156Y-31920543D01*
X144443011Y-31909899D01*
X144436896Y-31901862D01*
X144424147Y-31896067D01*
X144401100Y-31892147D01*
X144364091Y-31889735D01*
X144309456Y-31888465D01*
X144233533Y-31887971D01*
X144132656Y-31887886D01*
X144119600Y-31887886D01*
X144015690Y-31887948D01*
G37*
X144015690Y-31887948D02*
X143937146Y-31888378D01*
X143880302Y-31889542D01*
X143841495Y-31891807D01*
X143817062Y-31895540D01*
X143803338Y-31901106D01*
X143796660Y-31908873D01*
X143793364Y-31919205D01*
X143793044Y-31920543D01*
X143788038Y-31944679D01*
X143778771Y-31992301D01*
X143766208Y-32058341D01*
X143751313Y-32137728D01*
X143735049Y-32225396D01*
X143734481Y-32228475D01*
X143718190Y-32314389D01*
X143702948Y-32390296D01*
X143689739Y-32451645D01*
X143679546Y-32493882D01*
X143673352Y-32512455D01*
X143673057Y-32512784D01*
X143654812Y-32521853D01*
X143617195Y-32536967D01*
X143568329Y-32554862D01*
X143568057Y-32554958D01*
X143506507Y-32578093D01*
X143433943Y-32607565D01*
X143365543Y-32637197D01*
X143362306Y-32638662D01*
X143250898Y-32689226D01*
X143004201Y-32520760D01*
X142928523Y-32469403D01*
X142859969Y-32423489D01*
X142802512Y-32385630D01*
X142760124Y-32358437D01*
X142736775Y-32344521D01*
X142734558Y-32343489D01*
X142717590Y-32348084D01*
X142685899Y-32370255D01*
X142638248Y-32411047D01*
X142573402Y-32471505D01*
X142507203Y-32535827D01*
X142443386Y-32599212D01*
X142386271Y-32657051D01*
X142339295Y-32705775D01*
X142305897Y-32741810D01*
X142289515Y-32761584D01*
X142288906Y-32762602D01*
X142287095Y-32776172D01*
X142293917Y-32798333D01*
X142311060Y-32832078D01*
X142340207Y-32880400D01*
X142383045Y-32946292D01*
X142440152Y-33031117D01*
X142490834Y-33105777D01*
X142536139Y-33172740D01*
X142573450Y-33228116D01*
X142600148Y-33268020D01*
X142613615Y-33288562D01*
X142614463Y-33289956D01*
X142612819Y-33309638D01*
X142600355Y-33347893D01*
X142579552Y-33397489D01*
X142572138Y-33413328D01*
X142539786Y-33483890D01*
X142505272Y-33563953D01*
X142477235Y-33633229D01*
X142457032Y-33684645D01*
X142440985Y-33723719D01*
X142431712Y-33744141D01*
X142430559Y-33745714D01*
X142413504Y-33748321D01*
X142373302Y-33755463D01*
X142315298Y-33766123D01*
X142244837Y-33779285D01*
X142167265Y-33793933D01*
X142087928Y-33809049D01*
X142012169Y-33823618D01*
X141945336Y-33836622D01*
X141892772Y-33847045D01*
X141859824Y-33853870D01*
X141851743Y-33855799D01*
X141843395Y-33860562D01*
X141837094Y-33871318D01*
X141832555Y-33891698D01*
X141829496Y-33925334D01*
X141827633Y-33975855D01*
X141826682Y-34046892D01*
X141826360Y-34142076D01*
X141826343Y-34181092D01*
X141826343Y-34498399D01*
X141902543Y-34513439D01*
X141944937Y-34521595D01*
X142008200Y-34533499D01*
X142084638Y-34547716D01*
X142166557Y-34562810D01*
X142189200Y-34566955D01*
X142264794Y-34581653D01*
X142330647Y-34596105D01*
X142381234Y-34608975D01*
X142411026Y-34618922D01*
X142415988Y-34621887D01*
X142428174Y-34642883D01*
X142445647Y-34683567D01*
X142465023Y-34735922D01*
X142468866Y-34747200D01*
X142494261Y-34817123D01*
X142525783Y-34896018D01*
X142556631Y-34966866D01*
X142556783Y-34967195D01*
X142608153Y-35078333D01*
X142439201Y-35326853D01*
X142270248Y-35575372D01*
X142487171Y-35792658D01*
X142552781Y-35857326D01*
X142612621Y-35914333D01*
X142663333Y-35960633D01*
X142701554Y-35993184D01*
X142723925Y-36008943D01*
X142727134Y-36009943D01*
X142745974Y-36002069D01*
X142784420Y-35980178D01*
X142838270Y-35946867D01*
X142903324Y-35904731D01*
X142973660Y-35857543D01*
X143045045Y-35809410D01*
X143108692Y-35767528D01*
X143160559Y-35734471D01*
X143196605Y-35712818D01*
X143212733Y-35705143D01*
X143232411Y-35711637D01*
X143269725Y-35728750D01*
X143316979Y-35752926D01*
X143321988Y-35755613D01*
X143385623Y-35787527D01*
X143429259Y-35803179D01*
X143456398Y-35803345D01*
X143470543Y-35788804D01*
X143470625Y-35788600D01*
X143477695Y-35771379D01*
X143494558Y-35730499D01*
X143519905Y-35669125D01*
X143552429Y-35590419D01*
X143590822Y-35497547D01*
X143633778Y-35393672D01*
X143675378Y-35293102D01*
X143721096Y-35182116D01*
X143763074Y-35079303D01*
X143800052Y-34987815D01*
X143830773Y-34910801D01*
X143853978Y-34851415D01*
X143868410Y-34812809D01*
X143872857Y-34798400D01*
X143861704Y-34781872D01*
X143832531Y-34755530D01*
X143793629Y-34726487D01*
X143682843Y-34634639D01*
X143596249Y-34529359D01*
X143534884Y-34412866D01*
X143499785Y-34287376D01*
X143491992Y-34155107D01*
X143497657Y-34094057D01*
X143528522Y-33967395D01*
X143581680Y-33855541D01*
X143653833Y-33759601D01*
X143741683Y-33680676D01*
X143841935Y-33619870D01*
X143951290Y-33578287D01*
X144066453Y-33557028D01*
X144184125Y-33557199D01*
X144301010Y-33579901D01*
X144413811Y-33626238D01*
X144519231Y-33697313D01*
X144563232Y-33737511D01*
X144647621Y-33840729D01*
X144706378Y-33953525D01*
X144739896Y-34072610D01*
X144748565Y-34194695D01*
X144732777Y-34316493D01*
X144692922Y-34434716D01*
X144629393Y-34546075D01*
X144542579Y-34647284D01*
X144445571Y-34726487D01*
X144405163Y-34756762D01*
X144376618Y-34782819D01*
X144366343Y-34798425D01*
X144371723Y-34815443D01*
X144387025Y-34856100D01*
X144410988Y-34917242D01*
X144442356Y-34995719D01*
X144479868Y-35088380D01*
X144522267Y-35192072D01*
X144563937Y-35293126D01*
X144609910Y-35404207D01*
X144652493Y-35507141D01*
X144690379Y-35598765D01*
X144722260Y-35675916D01*
X144746829Y-35735431D01*
X144762780Y-35774144D01*
X144768690Y-35788600D01*
X144782652Y-35803285D01*
X144809660Y-35803242D01*
X144853187Y-35787699D01*
X144916710Y-35755884D01*
X144917212Y-35755613D01*
X144965040Y-35730923D01*
X145003703Y-35712938D01*
X145025505Y-35705214D01*
X145026467Y-35705143D01*
X145042879Y-35712978D01*
X145079113Y-35734765D01*
X145131126Y-35767928D01*
X145194875Y-35809891D01*
X145265540Y-35857543D01*
X145337484Y-35905791D01*
X145402326Y-35947751D01*
X145455865Y-35980827D01*
X145493903Y-36002421D01*
X145512067Y-36009943D01*
X145528792Y-36000057D01*
X145562420Y-35972426D01*
X145609590Y-35930095D01*
X145666942Y-35876105D01*
X145731116Y-35813499D01*
X145752103Y-35792583D01*
X145969101Y-35575223D01*
X145803932Y-35332820D01*
X145753736Y-35258381D01*
X145709681Y-35191572D01*
X145674238Y-35136265D01*
X145649881Y-35096329D01*
X145639078Y-35075636D01*
X145638762Y-35074163D01*
X145644457Y-35054658D01*
X145659774Y-35015422D01*
X145682063Y-34963030D01*
X145697707Y-34927955D01*
X145726959Y-34860801D01*
X145754506Y-34792958D01*
X145775863Y-34735634D01*
X145781665Y-34718172D01*
X145798148Y-34671538D01*
X145814260Y-34635505D01*
X145823110Y-34621887D01*
X145842640Y-34613552D01*
X145885266Y-34601737D01*
X145945455Y-34587781D01*
X146017678Y-34573022D01*
X146050000Y-34566955D01*
X146132078Y-34551873D01*
X146210805Y-34537269D01*
X146278491Y-34524580D01*
X146327440Y-34515242D01*
X146336657Y-34513439D01*
X146412857Y-34498399D01*
X146412857Y-34181092D01*
X146412686Y-34076754D01*
X146411984Y-33997813D01*
X146410466Y-33940638D01*
X146407851Y-33901599D01*
X146403854Y-33877065D01*
X146398191Y-33863405D01*
X146390580Y-33856989D01*
X146387457Y-33855799D01*
X146368622Y-33851580D01*
X146327012Y-33843162D01*
X146267970Y-33831561D01*
X146196843Y-33817795D01*
X146118975Y-33802880D01*
X146039713Y-33787832D01*
X145964402Y-33773669D01*
X145898387Y-33761406D01*
X145847013Y-33752061D01*
X145815625Y-33746650D01*
X145808641Y-33745714D01*
X145802315Y-33733196D01*
X145788310Y-33699846D01*
X145769245Y-33651977D01*
X145761966Y-33633229D01*
X145732604Y-33560795D01*
X145698029Y-33480770D01*
X145667063Y-33413328D01*
X145644277Y-33361759D01*
X145629118Y-33319385D01*
X145624058Y-33293434D01*
X145624864Y-33289956D01*
X145635559Y-33273536D01*
X145659980Y-33237017D01*
X145695505Y-33184287D01*
X145739513Y-33119235D01*
X145789383Y-33045751D01*
X145799244Y-33031245D01*
X145857108Y-32945304D01*
X145899644Y-32879861D01*
X145928546Y-32831904D01*
X145945510Y-32798420D01*
X145952233Y-32776395D01*
X145950410Y-32762817D01*
X145950364Y-32762731D01*
X145936014Y-32744897D01*
X145904277Y-32710417D01*
X145858590Y-32662868D01*
X145802396Y-32605822D01*
X145739132Y-32542855D01*
X145731998Y-32535827D01*
X145652270Y-32458620D01*
X145590743Y-32401930D01*
X145546179Y-32364710D01*
X145517343Y-32345915D01*
X145504642Y-32343489D01*
X145486106Y-32354071D01*
X145447639Y-32378516D01*
X145393214Y-32414212D01*
X145326802Y-32458547D01*
X145252375Y-32508911D01*
X145234999Y-32520760D01*
X144988303Y-32689226D01*
X144876894Y-32638662D01*
X144809143Y-32609195D01*
X144736417Y-32579559D01*
X144673897Y-32555930D01*
X144671143Y-32554958D01*
X144622240Y-32537057D01*
X144584543Y-32521920D01*
X144566175Y-32512810D01*
X144566144Y-32512784D01*
X144560315Y-32496317D01*
X144550408Y-32455819D01*
X144537405Y-32395842D01*
X144522291Y-32320940D01*
X144506048Y-32235664D01*
X144504719Y-32228475D01*
X144488425Y-32140614D01*
X144473467Y-32060860D01*
X144460809Y-31994281D01*
X144451414Y-31945947D01*
X144446246Y-31920925D01*
X144446156Y-31920543D01*
X144443011Y-31909899D01*
X144436896Y-31901862D01*
X144424147Y-31896067D01*
X144401100Y-31892147D01*
X144364091Y-31889735D01*
X144309456Y-31888465D01*
X144233533Y-31887971D01*
X144132656Y-31887886D01*
X144119600Y-31887886D01*
X144015690Y-31887948D01*
G36*
X140966005Y-36612566D02*
G01*
X140908579Y-36650097D01*
X140880881Y-36683696D01*
X140858938Y-36744664D01*
X140857195Y-36792908D01*
X140861143Y-36857416D01*
X141009914Y-36922534D01*
X141082251Y-36955802D01*
X141129516Y-36982564D01*
X141154093Y-37005744D01*
X141158363Y-37028267D01*
X141144711Y-37053055D01*
X141129657Y-37069486D01*
X141085854Y-37095835D01*
X141038211Y-37097681D01*
X140994455Y-37077146D01*
X140962311Y-37036352D01*
X140956562Y-37021947D01*
X140929024Y-36976956D01*
X140897342Y-36957782D01*
X140853886Y-36941379D01*
X140853886Y-37003566D01*
X140857728Y-37045883D01*
X140872777Y-37081569D01*
X140904320Y-37122543D01*
X140909008Y-37127867D01*
X140944094Y-37164320D01*
X140974253Y-37183883D01*
X141011985Y-37192883D01*
X141043265Y-37195830D01*
X141099215Y-37196565D01*
X141139045Y-37187260D01*
X141163892Y-37173446D01*
X141202944Y-37143067D01*
X141229975Y-37110213D01*
X141247083Y-37068894D01*
X141256362Y-37013121D01*
X141259907Y-36936905D01*
X141260190Y-36898222D01*
X141259228Y-36851847D01*
X141171593Y-36851847D01*
X141170577Y-36876726D01*
X141168044Y-36880800D01*
X141151326Y-36875265D01*
X141115351Y-36860617D01*
X141067269Y-36839790D01*
X141057214Y-36835314D01*
X140996448Y-36804414D01*
X140962968Y-36777257D01*
X140955610Y-36751820D01*
X140973209Y-36726081D01*
X140987744Y-36714709D01*
X141040190Y-36691964D01*
X141089278Y-36695722D01*
X141130373Y-36723484D01*
X141158842Y-36772752D01*
X141167969Y-36811857D01*
X141171593Y-36851847D01*
X141259228Y-36851847D01*
X141258315Y-36807849D01*
X141251404Y-36740984D01*
X141237716Y-36692295D01*
X141215504Y-36656449D01*
X141183026Y-36628113D01*
X141168867Y-36618955D01*
X141104547Y-36595107D01*
X141034127Y-36593606D01*
X140966005Y-36612566D01*
G37*
X140966005Y-36612566D02*
X140908579Y-36650097D01*
X140880881Y-36683696D01*
X140858938Y-36744664D01*
X140857195Y-36792908D01*
X140861143Y-36857416D01*
X141009914Y-36922534D01*
X141082251Y-36955802D01*
X141129516Y-36982564D01*
X141154093Y-37005744D01*
X141158363Y-37028267D01*
X141144711Y-37053055D01*
X141129657Y-37069486D01*
X141085854Y-37095835D01*
X141038211Y-37097681D01*
X140994455Y-37077146D01*
X140962311Y-37036352D01*
X140956562Y-37021947D01*
X140929024Y-36976956D01*
X140897342Y-36957782D01*
X140853886Y-36941379D01*
X140853886Y-37003566D01*
X140857728Y-37045883D01*
X140872777Y-37081569D01*
X140904320Y-37122543D01*
X140909008Y-37127867D01*
X140944094Y-37164320D01*
X140974253Y-37183883D01*
X141011985Y-37192883D01*
X141043265Y-37195830D01*
X141099215Y-37196565D01*
X141139045Y-37187260D01*
X141163892Y-37173446D01*
X141202944Y-37143067D01*
X141229975Y-37110213D01*
X141247083Y-37068894D01*
X141256362Y-37013121D01*
X141259907Y-36936905D01*
X141260190Y-36898222D01*
X141259228Y-36851847D01*
X141171593Y-36851847D01*
X141170577Y-36876726D01*
X141168044Y-36880800D01*
X141151326Y-36875265D01*
X141115351Y-36860617D01*
X141067269Y-36839790D01*
X141057214Y-36835314D01*
X140996448Y-36804414D01*
X140962968Y-36777257D01*
X140955610Y-36751820D01*
X140973209Y-36726081D01*
X140987744Y-36714709D01*
X141040190Y-36691964D01*
X141089278Y-36695722D01*
X141130373Y-36723484D01*
X141158842Y-36772752D01*
X141167969Y-36811857D01*
X141171593Y-36851847D01*
X141259228Y-36851847D01*
X141258315Y-36807849D01*
X141251404Y-36740984D01*
X141237716Y-36692295D01*
X141215504Y-36656449D01*
X141183026Y-36628113D01*
X141168867Y-36618955D01*
X141104547Y-36595107D01*
X141034127Y-36593606D01*
X140966005Y-36612566D01*
G36*
X141467000Y-36604352D02*
G01*
X141449652Y-36611934D01*
X141408244Y-36644728D01*
X141372835Y-36692147D01*
X141350936Y-36742751D01*
X141347371Y-36767698D01*
X141359321Y-36802527D01*
X141385533Y-36820957D01*
X141413636Y-36832116D01*
X141426505Y-36834172D01*
X141432771Y-36819249D01*
X141445144Y-36786775D01*
X141450572Y-36772102D01*
X141481010Y-36721344D01*
X141525080Y-36696027D01*
X141581590Y-36696806D01*
X141585775Y-36697803D01*
X141615945Y-36712107D01*
X141638124Y-36739993D01*
X141653273Y-36784887D01*
X141662350Y-36850215D01*
X141666314Y-36939404D01*
X141666686Y-36986861D01*
X141666870Y-37061671D01*
X141668078Y-37112669D01*
X141671291Y-37145071D01*
X141677491Y-37164095D01*
X141687660Y-37174956D01*
X141702781Y-37182872D01*
X141703654Y-37183270D01*
X141732772Y-37195581D01*
X141747197Y-37200114D01*
X141749414Y-37186409D01*
X141751311Y-37148525D01*
X141752753Y-37091315D01*
X141753602Y-37019627D01*
X141753771Y-36967165D01*
X141752908Y-36865647D01*
X141749530Y-36788632D01*
X141742458Y-36731623D01*
X141730512Y-36690126D01*
X141712510Y-36659643D01*
X141687273Y-36635680D01*
X141662353Y-36618955D01*
X141602429Y-36596697D01*
X141532689Y-36591676D01*
X141467000Y-36604352D01*
G37*
X141467000Y-36604352D02*
X141449652Y-36611934D01*
X141408244Y-36644728D01*
X141372835Y-36692147D01*
X141350936Y-36742751D01*
X141347371Y-36767698D01*
X141359321Y-36802527D01*
X141385533Y-36820957D01*
X141413636Y-36832116D01*
X141426505Y-36834172D01*
X141432771Y-36819249D01*
X141445144Y-36786775D01*
X141450572Y-36772102D01*
X141481010Y-36721344D01*
X141525080Y-36696027D01*
X141581590Y-36696806D01*
X141585775Y-36697803D01*
X141615945Y-36712107D01*
X141638124Y-36739993D01*
X141653273Y-36784887D01*
X141662350Y-36850215D01*
X141666314Y-36939404D01*
X141666686Y-36986861D01*
X141666870Y-37061671D01*
X141668078Y-37112669D01*
X141671291Y-37145071D01*
X141677491Y-37164095D01*
X141687660Y-37174956D01*
X141702781Y-37182872D01*
X141703654Y-37183270D01*
X141732772Y-37195581D01*
X141747197Y-37200114D01*
X141749414Y-37186409D01*
X141751311Y-37148525D01*
X141752753Y-37091315D01*
X141753602Y-37019627D01*
X141753771Y-36967165D01*
X141752908Y-36865647D01*
X141749530Y-36788632D01*
X141742458Y-36731623D01*
X141730512Y-36690126D01*
X141712510Y-36659643D01*
X141687273Y-36635680D01*
X141662353Y-36618955D01*
X141602429Y-36596697D01*
X141532689Y-36591676D01*
X141467000Y-36604352D01*
G36*
X141974724Y-36601935D02*
G01*
X141932933Y-36620944D01*
X141900131Y-36643978D01*
X141876097Y-36669733D01*
X141859503Y-36702958D01*
X141849023Y-36748400D01*
X141843329Y-36810807D01*
X141841093Y-36894927D01*
X141840857Y-36950321D01*
X141840857Y-37166426D01*
X141877826Y-37183270D01*
X141906944Y-37195581D01*
X141921369Y-37200114D01*
X141924128Y-37186625D01*
X141926318Y-37150253D01*
X141927658Y-37097142D01*
X141927943Y-37054972D01*
X141929166Y-36994047D01*
X141932464Y-36945715D01*
X141937279Y-36916118D01*
X141941104Y-36909829D01*
X141966817Y-36916252D01*
X142007182Y-36932725D01*
X142053921Y-36955058D01*
X142098755Y-36979057D01*
X142133407Y-37000530D01*
X142149598Y-37015285D01*
X142149662Y-37015445D01*
X142148270Y-37042752D01*
X142135782Y-37068819D01*
X142113857Y-37089992D01*
X142081857Y-37097074D01*
X142054508Y-37096249D01*
X142015774Y-37095642D01*
X141995442Y-37104716D01*
X141983231Y-37128692D01*
X141981691Y-37133213D01*
X141976397Y-37167406D01*
X141990553Y-37188168D01*
X142027452Y-37198062D01*
X142067311Y-37199892D01*
X142139038Y-37186327D01*
X142176168Y-37166955D01*
X142222024Y-37121445D01*
X142246344Y-37065583D01*
X142248527Y-37006557D01*
X142227971Y-36951553D01*
X142197051Y-36917086D01*
X142166180Y-36897789D01*
X142117658Y-36873359D01*
X142061115Y-36848585D01*
X142051690Y-36844799D01*
X141989581Y-36817391D01*
X141953778Y-36793234D01*
X141942263Y-36769219D01*
X141953020Y-36742235D01*
X141971486Y-36721143D01*
X142015131Y-36695172D01*
X142063154Y-36693224D01*
X142107194Y-36713237D01*
X142138891Y-36753151D01*
X142143051Y-36763448D01*
X142167273Y-36801324D01*
X142202635Y-36829442D01*
X142247257Y-36852517D01*
X142247257Y-36787085D01*
X142244631Y-36747106D01*
X142233370Y-36715597D01*
X142208401Y-36681978D01*
X142184431Y-36656084D01*
X142147159Y-36619417D01*
X142118199Y-36599721D01*
X142087095Y-36591820D01*
X142051887Y-36590514D01*
X141974724Y-36601935D01*
G37*
X141974724Y-36601935D02*
X141932933Y-36620944D01*
X141900131Y-36643978D01*
X141876097Y-36669733D01*
X141859503Y-36702958D01*
X141849023Y-36748400D01*
X141843329Y-36810807D01*
X141841093Y-36894927D01*
X141840857Y-36950321D01*
X141840857Y-37166426D01*
X141877826Y-37183270D01*
X141906944Y-37195581D01*
X141921369Y-37200114D01*
X141924128Y-37186625D01*
X141926318Y-37150253D01*
X141927658Y-37097142D01*
X141927943Y-37054972D01*
X141929166Y-36994047D01*
X141932464Y-36945715D01*
X141937279Y-36916118D01*
X141941104Y-36909829D01*
X141966817Y-36916252D01*
X142007182Y-36932725D01*
X142053921Y-36955058D01*
X142098755Y-36979057D01*
X142133407Y-37000530D01*
X142149598Y-37015285D01*
X142149662Y-37015445D01*
X142148270Y-37042752D01*
X142135782Y-37068819D01*
X142113857Y-37089992D01*
X142081857Y-37097074D01*
X142054508Y-37096249D01*
X142015774Y-37095642D01*
X141995442Y-37104716D01*
X141983231Y-37128692D01*
X141981691Y-37133213D01*
X141976397Y-37167406D01*
X141990553Y-37188168D01*
X142027452Y-37198062D01*
X142067311Y-37199892D01*
X142139038Y-37186327D01*
X142176168Y-37166955D01*
X142222024Y-37121445D01*
X142246344Y-37065583D01*
X142248527Y-37006557D01*
X142227971Y-36951553D01*
X142197051Y-36917086D01*
X142166180Y-36897789D01*
X142117658Y-36873359D01*
X142061115Y-36848585D01*
X142051690Y-36844799D01*
X141989581Y-36817391D01*
X141953778Y-36793234D01*
X141942263Y-36769219D01*
X141953020Y-36742235D01*
X141971486Y-36721143D01*
X142015131Y-36695172D01*
X142063154Y-36693224D01*
X142107194Y-36713237D01*
X142138891Y-36753151D01*
X142143051Y-36763448D01*
X142167273Y-36801324D01*
X142202635Y-36829442D01*
X142247257Y-36852517D01*
X142247257Y-36787085D01*
X142244631Y-36747106D01*
X142233370Y-36715597D01*
X142208401Y-36681978D01*
X142184431Y-36656084D01*
X142147159Y-36619417D01*
X142118199Y-36599721D01*
X142087095Y-36591820D01*
X142051887Y-36590514D01*
X141974724Y-36601935D01*
G36*
X142339767Y-36604263D02*
G01*
X142337552Y-36642450D01*
X142335816Y-36700486D01*
X142334701Y-36773780D01*
X142334343Y-36850655D01*
X142334343Y-37110796D01*
X142380274Y-37156727D01*
X142411925Y-37185029D01*
X142439710Y-37196493D01*
X142477685Y-37195768D01*
X142492760Y-37193921D01*
X142539874Y-37188548D01*
X142578844Y-37185469D01*
X142588343Y-37185185D01*
X142620367Y-37187045D01*
X142666168Y-37191714D01*
X142683926Y-37193921D01*
X142727543Y-37197335D01*
X142756855Y-37189920D01*
X142785920Y-37167027D01*
X142796412Y-37156727D01*
X142842343Y-37110796D01*
X142842343Y-36624202D01*
X142805374Y-36607358D01*
X142773541Y-36594882D01*
X142754917Y-36590514D01*
X142750142Y-36604318D01*
X142745679Y-36642886D01*
X142741825Y-36701956D01*
X142738878Y-36777263D01*
X142737457Y-36840886D01*
X142733486Y-37091257D01*
X142698841Y-37096156D01*
X142667332Y-37092731D01*
X142651892Y-37081641D01*
X142647577Y-37060908D01*
X142643892Y-37016745D01*
X142641131Y-36954746D01*
X142639588Y-36880509D01*
X142639365Y-36842306D01*
X142639143Y-36622383D01*
X142593434Y-36606449D01*
X142561082Y-36595615D01*
X142543485Y-36590562D01*
X142542977Y-36590514D01*
X142541212Y-36604248D01*
X142539271Y-36642330D01*
X142537318Y-36700082D01*
X142535516Y-36772827D01*
X142534257Y-36840886D01*
X142530286Y-37091257D01*
X142443200Y-37091257D01*
X142439204Y-36862840D01*
X142435208Y-36634422D01*
X142392753Y-36612468D01*
X142361408Y-36597393D01*
X142342856Y-36590551D01*
X142342321Y-36590514D01*
X142339767Y-36604263D01*
G37*
X142339767Y-36604263D02*
X142337552Y-36642450D01*
X142335816Y-36700486D01*
X142334701Y-36773780D01*
X142334343Y-36850655D01*
X142334343Y-37110796D01*
X142380274Y-37156727D01*
X142411925Y-37185029D01*
X142439710Y-37196493D01*
X142477685Y-37195768D01*
X142492760Y-37193921D01*
X142539874Y-37188548D01*
X142578844Y-37185469D01*
X142588343Y-37185185D01*
X142620367Y-37187045D01*
X142666168Y-37191714D01*
X142683926Y-37193921D01*
X142727543Y-37197335D01*
X142756855Y-37189920D01*
X142785920Y-37167027D01*
X142796412Y-37156727D01*
X142842343Y-37110796D01*
X142842343Y-36624202D01*
X142805374Y-36607358D01*
X142773541Y-36594882D01*
X142754917Y-36590514D01*
X142750142Y-36604318D01*
X142745679Y-36642886D01*
X142741825Y-36701956D01*
X142738878Y-36777263D01*
X142737457Y-36840886D01*
X142733486Y-37091257D01*
X142698841Y-37096156D01*
X142667332Y-37092731D01*
X142651892Y-37081641D01*
X142647577Y-37060908D01*
X142643892Y-37016745D01*
X142641131Y-36954746D01*
X142639588Y-36880509D01*
X142639365Y-36842306D01*
X142639143Y-36622383D01*
X142593434Y-36606449D01*
X142561082Y-36595615D01*
X142543485Y-36590562D01*
X142542977Y-36590514D01*
X142541212Y-36604248D01*
X142539271Y-36642330D01*
X142537318Y-36700082D01*
X142535516Y-36772827D01*
X142534257Y-36840886D01*
X142530286Y-37091257D01*
X142443200Y-37091257D01*
X142439204Y-36862840D01*
X142435208Y-36634422D01*
X142392753Y-36612468D01*
X142361408Y-36597393D01*
X142342856Y-36590551D01*
X142342321Y-36590514D01*
X142339767Y-36604263D01*
G36*
X142929483Y-36710958D02*
G01*
X142929667Y-36819437D01*
X142930381Y-36902887D01*
X142931925Y-36965304D01*
X142934599Y-37010685D01*
X142938706Y-37043029D01*
X142944545Y-37066333D01*
X142952418Y-37084595D01*
X142958379Y-37095018D01*
X143007745Y-37151545D01*
X143070336Y-37186977D01*
X143139587Y-37199690D01*
X143208932Y-37188063D01*
X143250225Y-37167168D01*
X143293575Y-37131022D01*
X143323119Y-37086876D01*
X143340945Y-37029062D01*
X143349137Y-36951913D01*
X143350298Y-36895314D01*
X143350142Y-36891247D01*
X143248743Y-36891247D01*
X143248124Y-36956150D01*
X143245286Y-36999114D01*
X143238760Y-37027222D01*
X143227077Y-37047553D01*
X143213117Y-37062888D01*
X143166235Y-37092490D01*
X143115899Y-37095019D01*
X143068324Y-37070305D01*
X143064621Y-37066956D01*
X143048817Y-37049535D01*
X143038907Y-37028809D01*
X143033542Y-36997962D01*
X143031372Y-36950177D01*
X143031029Y-36897348D01*
X143031773Y-36830981D01*
X143034852Y-36786706D01*
X143041539Y-36757609D01*
X143053104Y-36736773D01*
X143062587Y-36725707D01*
X143106640Y-36697798D01*
X143157376Y-36694443D01*
X143205804Y-36715759D01*
X143215150Y-36723673D01*
X143231060Y-36741247D01*
X143240990Y-36762187D01*
X143246322Y-36793382D01*
X143248437Y-36841722D01*
X143248743Y-36891247D01*
X143350142Y-36891247D01*
X143346790Y-36804168D01*
X143334874Y-36735686D01*
X143312465Y-36684200D01*
X143277476Y-36644043D01*
X143250225Y-36623461D01*
X143200693Y-36601225D01*
X143143284Y-36590904D01*
X143089918Y-36593667D01*
X143060057Y-36604812D01*
X143048339Y-36607983D01*
X143040563Y-36596157D01*
X143035135Y-36564466D01*
X143031029Y-36516193D01*
X143026533Y-36462429D01*
X143020287Y-36430082D01*
X143008924Y-36411585D01*
X142989072Y-36399370D01*
X142976600Y-36393962D01*
X142929429Y-36374201D01*
X142929483Y-36710958D01*
G37*
X142929483Y-36710958D02*
X142929667Y-36819437D01*
X142930381Y-36902887D01*
X142931925Y-36965304D01*
X142934599Y-37010685D01*
X142938706Y-37043029D01*
X142944545Y-37066333D01*
X142952418Y-37084595D01*
X142958379Y-37095018D01*
X143007745Y-37151545D01*
X143070336Y-37186977D01*
X143139587Y-37199690D01*
X143208932Y-37188063D01*
X143250225Y-37167168D01*
X143293575Y-37131022D01*
X143323119Y-37086876D01*
X143340945Y-37029062D01*
X143349137Y-36951913D01*
X143350298Y-36895314D01*
X143350142Y-36891247D01*
X143248743Y-36891247D01*
X143248124Y-36956150D01*
X143245286Y-36999114D01*
X143238760Y-37027222D01*
X143227077Y-37047553D01*
X143213117Y-37062888D01*
X143166235Y-37092490D01*
X143115899Y-37095019D01*
X143068324Y-37070305D01*
X143064621Y-37066956D01*
X143048817Y-37049535D01*
X143038907Y-37028809D01*
X143033542Y-36997962D01*
X143031372Y-36950177D01*
X143031029Y-36897348D01*
X143031773Y-36830981D01*
X143034852Y-36786706D01*
X143041539Y-36757609D01*
X143053104Y-36736773D01*
X143062587Y-36725707D01*
X143106640Y-36697798D01*
X143157376Y-36694443D01*
X143205804Y-36715759D01*
X143215150Y-36723673D01*
X143231060Y-36741247D01*
X143240990Y-36762187D01*
X143246322Y-36793382D01*
X143248437Y-36841722D01*
X143248743Y-36891247D01*
X143350142Y-36891247D01*
X143346790Y-36804168D01*
X143334874Y-36735686D01*
X143312465Y-36684200D01*
X143277476Y-36644043D01*
X143250225Y-36623461D01*
X143200693Y-36601225D01*
X143143284Y-36590904D01*
X143089918Y-36593667D01*
X143060057Y-36604812D01*
X143048339Y-36607983D01*
X143040563Y-36596157D01*
X143035135Y-36564466D01*
X143031029Y-36516193D01*
X143026533Y-36462429D01*
X143020287Y-36430082D01*
X143008924Y-36411585D01*
X142989072Y-36399370D01*
X142976600Y-36393962D01*
X142929429Y-36374201D01*
X142929483Y-36710958D01*
G36*
X143589674Y-36595355D02*
G01*
X143523742Y-36619684D01*
X143470327Y-36662717D01*
X143449436Y-36693009D01*
X143426661Y-36748594D01*
X143427134Y-36788786D01*
X143451038Y-36815817D01*
X143459883Y-36820413D01*
X143498070Y-36834744D01*
X143517572Y-36831072D01*
X143524178Y-36807007D01*
X143524514Y-36793714D01*
X143536608Y-36744810D01*
X143568129Y-36710599D01*
X143611941Y-36694076D01*
X143660905Y-36698234D01*
X143700706Y-36719827D01*
X143714150Y-36732144D01*
X143723679Y-36747087D01*
X143730115Y-36769675D01*
X143734283Y-36804928D01*
X143737003Y-36857866D01*
X143739098Y-36933507D01*
X143739640Y-36957457D01*
X143741619Y-37039390D01*
X143743869Y-37097055D01*
X143747243Y-37135208D01*
X143752594Y-37158604D01*
X143760776Y-37171998D01*
X143772641Y-37180145D01*
X143780238Y-37183744D01*
X143812498Y-37196052D01*
X143831489Y-37200114D01*
X143837764Y-37186548D01*
X143841594Y-37145534D01*
X143843000Y-37076599D01*
X143842002Y-36979269D01*
X143841692Y-36964257D01*
X143839499Y-36875459D01*
X143836907Y-36810619D01*
X143833218Y-36764667D01*
X143827736Y-36732535D01*
X143819765Y-36709153D01*
X143808607Y-36689452D01*
X143802770Y-36681010D01*
X143769304Y-36643657D01*
X143731873Y-36614603D01*
X143727291Y-36612067D01*
X143660174Y-36592043D01*
X143589674Y-36595355D01*
G37*
X143589674Y-36595355D02*
X143523742Y-36619684D01*
X143470327Y-36662717D01*
X143449436Y-36693009D01*
X143426661Y-36748594D01*
X143427134Y-36788786D01*
X143451038Y-36815817D01*
X143459883Y-36820413D01*
X143498070Y-36834744D01*
X143517572Y-36831072D01*
X143524178Y-36807007D01*
X143524514Y-36793714D01*
X143536608Y-36744810D01*
X143568129Y-36710599D01*
X143611941Y-36694076D01*
X143660905Y-36698234D01*
X143700706Y-36719827D01*
X143714150Y-36732144D01*
X143723679Y-36747087D01*
X143730115Y-36769675D01*
X143734283Y-36804928D01*
X143737003Y-36857866D01*
X143739098Y-36933507D01*
X143739640Y-36957457D01*
X143741619Y-37039390D01*
X143743869Y-37097055D01*
X143747243Y-37135208D01*
X143752594Y-37158604D01*
X143760776Y-37171998D01*
X143772641Y-37180145D01*
X143780238Y-37183744D01*
X143812498Y-37196052D01*
X143831489Y-37200114D01*
X143837764Y-37186548D01*
X143841594Y-37145534D01*
X143843000Y-37076599D01*
X143842002Y-36979269D01*
X143841692Y-36964257D01*
X143839499Y-36875459D01*
X143836907Y-36810619D01*
X143833218Y-36764667D01*
X143827736Y-36732535D01*
X143819765Y-36709153D01*
X143808607Y-36689452D01*
X143802770Y-36681010D01*
X143769304Y-36643657D01*
X143731873Y-36614603D01*
X143727291Y-36612067D01*
X143660174Y-36592043D01*
X143589674Y-36595355D01*
G36*
X144079856Y-36596568D02*
G01*
X144022984Y-36617687D01*
X144022333Y-36618093D01*
X143987160Y-36643980D01*
X143961193Y-36674233D01*
X143942930Y-36713658D01*
X143930868Y-36767062D01*
X143923504Y-36839251D01*
X143919336Y-36935032D01*
X143918971Y-36948678D01*
X143913724Y-37154442D01*
X143957884Y-37177278D01*
X143989837Y-37192710D01*
X144009130Y-37200023D01*
X144010022Y-37200114D01*
X144013361Y-37186622D01*
X144016013Y-37150226D01*
X144017644Y-37097052D01*
X144018000Y-37053993D01*
X144018008Y-36984241D01*
X144021197Y-36940437D01*
X144032312Y-36919544D01*
X144056099Y-36918525D01*
X144097304Y-36934341D01*
X144159514Y-36963415D01*
X144205259Y-36987563D01*
X144228787Y-37008513D01*
X144235704Y-37031347D01*
X144235714Y-37032477D01*
X144224301Y-37071812D01*
X144190508Y-37093062D01*
X144138791Y-37096139D01*
X144101539Y-37095606D01*
X144081897Y-37106335D01*
X144069648Y-37132105D01*
X144062598Y-37164937D01*
X144072758Y-37183566D01*
X144076583Y-37186232D01*
X144112599Y-37196940D01*
X144163034Y-37198456D01*
X144214974Y-37191359D01*
X144251778Y-37178388D01*
X144302662Y-37135185D01*
X144331586Y-37075046D01*
X144337314Y-37028062D01*
X144332943Y-36985682D01*
X144317125Y-36951088D01*
X144285803Y-36920363D01*
X144234922Y-36889590D01*
X144160424Y-36854852D01*
X144155886Y-36852888D01*
X144088779Y-36821887D01*
X144047368Y-36796462D01*
X144029619Y-36773614D01*
X144033493Y-36750345D01*
X144056957Y-36723656D01*
X144063973Y-36717514D01*
X144110970Y-36693700D01*
X144159667Y-36694703D01*
X144202078Y-36718051D01*
X144230216Y-36761275D01*
X144232831Y-36769760D01*
X144258292Y-36810908D01*
X144290599Y-36830728D01*
X144337314Y-36850370D01*
X144337314Y-36799550D01*
X144323104Y-36725682D01*
X144280925Y-36657927D01*
X144258976Y-36635261D01*
X144209083Y-36606169D01*
X144145633Y-36593000D01*
X144079856Y-36596568D01*
G37*
X144079856Y-36596568D02*
X144022984Y-36617687D01*
X144022333Y-36618093D01*
X143987160Y-36643980D01*
X143961193Y-36674233D01*
X143942930Y-36713658D01*
X143930868Y-36767062D01*
X143923504Y-36839251D01*
X143919336Y-36935032D01*
X143918971Y-36948678D01*
X143913724Y-37154442D01*
X143957884Y-37177278D01*
X143989837Y-37192710D01*
X144009130Y-37200023D01*
X144010022Y-37200114D01*
X144013361Y-37186622D01*
X144016013Y-37150226D01*
X144017644Y-37097052D01*
X144018000Y-37053993D01*
X144018008Y-36984241D01*
X144021197Y-36940437D01*
X144032312Y-36919544D01*
X144056099Y-36918525D01*
X144097304Y-36934341D01*
X144159514Y-36963415D01*
X144205259Y-36987563D01*
X144228787Y-37008513D01*
X144235704Y-37031347D01*
X144235714Y-37032477D01*
X144224301Y-37071812D01*
X144190508Y-37093062D01*
X144138791Y-37096139D01*
X144101539Y-37095606D01*
X144081897Y-37106335D01*
X144069648Y-37132105D01*
X144062598Y-37164937D01*
X144072758Y-37183566D01*
X144076583Y-37186232D01*
X144112599Y-37196940D01*
X144163034Y-37198456D01*
X144214974Y-37191359D01*
X144251778Y-37178388D01*
X144302662Y-37135185D01*
X144331586Y-37075046D01*
X144337314Y-37028062D01*
X144332943Y-36985682D01*
X144317125Y-36951088D01*
X144285803Y-36920363D01*
X144234922Y-36889590D01*
X144160424Y-36854852D01*
X144155886Y-36852888D01*
X144088779Y-36821887D01*
X144047368Y-36796462D01*
X144029619Y-36773614D01*
X144033493Y-36750345D01*
X144056957Y-36723656D01*
X144063973Y-36717514D01*
X144110970Y-36693700D01*
X144159667Y-36694703D01*
X144202078Y-36718051D01*
X144230216Y-36761275D01*
X144232831Y-36769760D01*
X144258292Y-36810908D01*
X144290599Y-36830728D01*
X144337314Y-36850370D01*
X144337314Y-36799550D01*
X144323104Y-36725682D01*
X144280925Y-36657927D01*
X144258976Y-36635261D01*
X144209083Y-36606169D01*
X144145633Y-36593000D01*
X144079856Y-36596568D01*
G36*
X144743714Y-36496889D02*
G01*
X144739461Y-36556213D01*
X144734575Y-36591172D01*
X144727805Y-36606420D01*
X144717898Y-36606615D01*
X144714686Y-36604795D01*
X144671956Y-36591615D01*
X144616373Y-36592385D01*
X144559863Y-36605933D01*
X144524518Y-36623461D01*
X144488279Y-36651461D01*
X144461787Y-36683149D01*
X144443601Y-36723413D01*
X144432278Y-36777143D01*
X144426378Y-36849226D01*
X144424457Y-36944551D01*
X144424423Y-36962837D01*
X144424400Y-37168246D01*
X144470109Y-37184180D01*
X144502573Y-37195020D01*
X144520385Y-37200068D01*
X144520909Y-37200114D01*
X144522663Y-37186428D01*
X144524156Y-37148676D01*
X144525274Y-37091824D01*
X144525903Y-37020834D01*
X144526000Y-36977673D01*
X144526202Y-36892573D01*
X144527242Y-36831581D01*
X144529769Y-36789777D01*
X144534436Y-36762242D01*
X144541893Y-36744056D01*
X144552789Y-36730298D01*
X144559593Y-36723673D01*
X144606328Y-36696975D01*
X144657328Y-36694975D01*
X144703599Y-36717555D01*
X144712156Y-36725707D01*
X144724707Y-36741036D01*
X144733412Y-36759218D01*
X144738969Y-36785509D01*
X144742074Y-36825162D01*
X144743424Y-36883432D01*
X144743714Y-36963773D01*
X144743714Y-37168246D01*
X144789423Y-37184180D01*
X144821887Y-37195020D01*
X144839699Y-37200068D01*
X144840223Y-37200114D01*
X144841563Y-37186223D01*
X144842772Y-37147039D01*
X144843799Y-37086300D01*
X144844598Y-37007741D01*
X144845119Y-36915098D01*
X144845314Y-36812109D01*
X144845314Y-36414942D01*
X144798143Y-36395044D01*
X144750971Y-36375147D01*
X144743714Y-36496889D01*
G37*
X144743714Y-36496889D02*
X144739461Y-36556213D01*
X144734575Y-36591172D01*
X144727805Y-36606420D01*
X144717898Y-36606615D01*
X144714686Y-36604795D01*
X144671956Y-36591615D01*
X144616373Y-36592385D01*
X144559863Y-36605933D01*
X144524518Y-36623461D01*
X144488279Y-36651461D01*
X144461787Y-36683149D01*
X144443601Y-36723413D01*
X144432278Y-36777143D01*
X144426378Y-36849226D01*
X144424457Y-36944551D01*
X144424423Y-36962837D01*
X144424400Y-37168246D01*
X144470109Y-37184180D01*
X144502573Y-37195020D01*
X144520385Y-37200068D01*
X144520909Y-37200114D01*
X144522663Y-37186428D01*
X144524156Y-37148676D01*
X144525274Y-37091824D01*
X144525903Y-37020834D01*
X144526000Y-36977673D01*
X144526202Y-36892573D01*
X144527242Y-36831581D01*
X144529769Y-36789777D01*
X144534436Y-36762242D01*
X144541893Y-36744056D01*
X144552789Y-36730298D01*
X144559593Y-36723673D01*
X144606328Y-36696975D01*
X144657328Y-36694975D01*
X144703599Y-36717555D01*
X144712156Y-36725707D01*
X144724707Y-36741036D01*
X144733412Y-36759218D01*
X144738969Y-36785509D01*
X144742074Y-36825162D01*
X144743424Y-36883432D01*
X144743714Y-36963773D01*
X144743714Y-37168246D01*
X144789423Y-37184180D01*
X144821887Y-37195020D01*
X144839699Y-37200068D01*
X144840223Y-37200114D01*
X144841563Y-37186223D01*
X144842772Y-37147039D01*
X144843799Y-37086300D01*
X144844598Y-37007741D01*
X144845119Y-36915098D01*
X144845314Y-36812109D01*
X144845314Y-36414942D01*
X144798143Y-36395044D01*
X144750971Y-36375147D01*
X144743714Y-36496889D01*
G36*
X145951297Y-36576839D02*
G01*
X145894073Y-36615335D01*
X145849851Y-36670935D01*
X145823433Y-36741686D01*
X145818090Y-36793762D01*
X145818697Y-36815493D01*
X145823778Y-36832131D01*
X145837745Y-36847037D01*
X145865011Y-36863573D01*
X145909988Y-36885098D01*
X145977089Y-36914974D01*
X145977429Y-36915124D01*
X146039193Y-36943413D01*
X146089841Y-36968533D01*
X146124196Y-36987779D01*
X146137082Y-36998448D01*
X146137086Y-36998534D01*
X146125728Y-37021766D01*
X146099169Y-37047374D01*
X146068677Y-37065821D01*
X146053230Y-37069486D01*
X146011085Y-37056812D01*
X145974792Y-37025071D01*
X145957083Y-36990172D01*
X145940048Y-36964445D01*
X145906678Y-36935146D01*
X145867451Y-36909835D01*
X145832844Y-36896071D01*
X145825607Y-36895314D01*
X145817461Y-36907760D01*
X145816970Y-36939572D01*
X145822957Y-36982466D01*
X145834243Y-37028158D01*
X145849650Y-37068361D01*
X145850429Y-37069922D01*
X145896796Y-37134662D01*
X145956889Y-37178697D01*
X146025135Y-37200311D01*
X146095962Y-37197785D01*
X146163796Y-37169404D01*
X146166812Y-37167408D01*
X146220173Y-37119048D01*
X146255260Y-37055952D01*
X146274678Y-36972987D01*
X146277284Y-36949678D01*
X146281899Y-36839655D01*
X146276367Y-36788348D01*
X146137086Y-36788348D01*
X146135276Y-36820353D01*
X146125378Y-36829693D01*
X146100702Y-36822705D01*
X146061805Y-36806187D01*
X146018325Y-36785481D01*
X146017244Y-36784933D01*
X145980391Y-36765549D01*
X145965600Y-36752613D01*
X145969247Y-36739051D01*
X145984605Y-36721232D01*
X146023677Y-36695445D01*
X146065754Y-36693550D01*
X146103497Y-36712317D01*
X146129566Y-36748515D01*
X146137086Y-36788348D01*
X146276367Y-36788348D01*
X146272406Y-36751627D01*
X146248050Y-36681812D01*
X146214144Y-36632902D01*
X146152947Y-36583478D01*
X146085537Y-36558959D01*
X146016720Y-36557397D01*
X145951297Y-36576839D01*
G37*
X145951297Y-36576839D02*
X145894073Y-36615335D01*
X145849851Y-36670935D01*
X145823433Y-36741686D01*
X145818090Y-36793762D01*
X145818697Y-36815493D01*
X145823778Y-36832131D01*
X145837745Y-36847037D01*
X145865011Y-36863573D01*
X145909988Y-36885098D01*
X145977089Y-36914974D01*
X145977429Y-36915124D01*
X146039193Y-36943413D01*
X146089841Y-36968533D01*
X146124196Y-36987779D01*
X146137082Y-36998448D01*
X146137086Y-36998534D01*
X146125728Y-37021766D01*
X146099169Y-37047374D01*
X146068677Y-37065821D01*
X146053230Y-37069486D01*
X146011085Y-37056812D01*
X145974792Y-37025071D01*
X145957083Y-36990172D01*
X145940048Y-36964445D01*
X145906678Y-36935146D01*
X145867451Y-36909835D01*
X145832844Y-36896071D01*
X145825607Y-36895314D01*
X145817461Y-36907760D01*
X145816970Y-36939572D01*
X145822957Y-36982466D01*
X145834243Y-37028158D01*
X145849650Y-37068361D01*
X145850429Y-37069922D01*
X145896796Y-37134662D01*
X145956889Y-37178697D01*
X146025135Y-37200311D01*
X146095962Y-37197785D01*
X146163796Y-37169404D01*
X146166812Y-37167408D01*
X146220173Y-37119048D01*
X146255260Y-37055952D01*
X146274678Y-36972987D01*
X146277284Y-36949678D01*
X146281899Y-36839655D01*
X146276367Y-36788348D01*
X146137086Y-36788348D01*
X146135276Y-36820353D01*
X146125378Y-36829693D01*
X146100702Y-36822705D01*
X146061805Y-36806187D01*
X146018325Y-36785481D01*
X146017244Y-36784933D01*
X145980391Y-36765549D01*
X145965600Y-36752613D01*
X145969247Y-36739051D01*
X145984605Y-36721232D01*
X146023677Y-36695445D01*
X146065754Y-36693550D01*
X146103497Y-36712317D01*
X146129566Y-36748515D01*
X146137086Y-36788348D01*
X146276367Y-36788348D01*
X146272406Y-36751627D01*
X146248050Y-36681812D01*
X146214144Y-36632902D01*
X146152947Y-36583478D01*
X146085537Y-36558959D01*
X146016720Y-36557397D01*
X145951297Y-36576839D01*
G36*
X147078485Y-36567562D02*
G01*
X147010455Y-36603333D01*
X146960249Y-36660901D01*
X146942415Y-36697912D01*
X146928537Y-36753482D01*
X146921433Y-36823696D01*
X146920760Y-36900327D01*
X146926173Y-36975152D01*
X146937330Y-37039942D01*
X146953886Y-37086473D01*
X146958974Y-37094487D01*
X147019245Y-37154307D01*
X147090831Y-37190135D01*
X147168508Y-37200620D01*
X147247052Y-37184410D01*
X147268911Y-37174692D01*
X147311478Y-37144743D01*
X147348837Y-37105033D01*
X147352368Y-37099997D01*
X147366719Y-37075724D01*
X147376206Y-37049778D01*
X147381810Y-37015622D01*
X147384514Y-36966719D01*
X147385301Y-36896535D01*
X147385314Y-36880800D01*
X147385278Y-36875792D01*
X147240171Y-36875792D01*
X147239327Y-36942030D01*
X147236004Y-36985986D01*
X147229017Y-37014379D01*
X147217184Y-37033925D01*
X147211143Y-37040457D01*
X147176414Y-37065280D01*
X147142697Y-37064148D01*
X147108605Y-37042616D01*
X147088271Y-37019629D01*
X147076229Y-36986078D01*
X147069466Y-36933169D01*
X147069002Y-36926999D01*
X147067848Y-36831113D01*
X147079912Y-36759899D01*
X147105030Y-36713794D01*
X147143040Y-36693235D01*
X147156608Y-36692114D01*
X147192236Y-36697752D01*
X147216606Y-36717286D01*
X147231507Y-36754642D01*
X147238725Y-36813750D01*
X147240171Y-36875792D01*
X147385278Y-36875792D01*
X147384774Y-36806013D01*
X147382504Y-36753759D01*
X147377532Y-36717549D01*
X147368887Y-36690899D01*
X147355595Y-36667322D01*
X147352657Y-36662938D01*
X147303287Y-36603849D01*
X147249491Y-36569547D01*
X147183998Y-36555931D01*
X147161758Y-36555265D01*
X147078485Y-36567562D01*
G37*
X147078485Y-36567562D02*
X147010455Y-36603333D01*
X146960249Y-36660901D01*
X146942415Y-36697912D01*
X146928537Y-36753482D01*
X146921433Y-36823696D01*
X146920760Y-36900327D01*
X146926173Y-36975152D01*
X146937330Y-37039942D01*
X146953886Y-37086473D01*
X146958974Y-37094487D01*
X147019245Y-37154307D01*
X147090831Y-37190135D01*
X147168508Y-37200620D01*
X147247052Y-37184410D01*
X147268911Y-37174692D01*
X147311478Y-37144743D01*
X147348837Y-37105033D01*
X147352368Y-37099997D01*
X147366719Y-37075724D01*
X147376206Y-37049778D01*
X147381810Y-37015622D01*
X147384514Y-36966719D01*
X147385301Y-36896535D01*
X147385314Y-36880800D01*
X147385278Y-36875792D01*
X147240171Y-36875792D01*
X147239327Y-36942030D01*
X147236004Y-36985986D01*
X147229017Y-37014379D01*
X147217184Y-37033925D01*
X147211143Y-37040457D01*
X147176414Y-37065280D01*
X147142697Y-37064148D01*
X147108605Y-37042616D01*
X147088271Y-37019629D01*
X147076229Y-36986078D01*
X147069466Y-36933169D01*
X147069002Y-36926999D01*
X147067848Y-36831113D01*
X147079912Y-36759899D01*
X147105030Y-36713794D01*
X147143040Y-36693235D01*
X147156608Y-36692114D01*
X147192236Y-36697752D01*
X147216606Y-36717286D01*
X147231507Y-36754642D01*
X147238725Y-36813750D01*
X147240171Y-36875792D01*
X147385278Y-36875792D01*
X147384774Y-36806013D01*
X147382504Y-36753759D01*
X147377532Y-36717549D01*
X147368887Y-36690899D01*
X147355595Y-36667322D01*
X147352657Y-36662938D01*
X147303287Y-36603849D01*
X147249491Y-36569547D01*
X147183998Y-36555931D01*
X147161758Y-36555265D01*
X147078485Y-36567562D01*
G36*
X145403507Y-36573380D02*
G01*
X145356928Y-36600323D01*
X145324543Y-36627066D01*
X145300858Y-36655084D01*
X145284541Y-36689348D01*
X145274261Y-36734827D01*
X145268686Y-36796492D01*
X145266484Y-36879311D01*
X145266229Y-36938846D01*
X145266229Y-37157991D01*
X145327914Y-37185644D01*
X145389600Y-37213297D01*
X145396857Y-36973270D01*
X145399856Y-36883628D01*
X145403002Y-36818562D01*
X145406899Y-36773626D01*
X145412153Y-36744370D01*
X145419369Y-36726348D01*
X145429150Y-36715111D01*
X145432288Y-36712679D01*
X145479839Y-36693683D01*
X145527903Y-36701200D01*
X145556514Y-36721143D01*
X145568153Y-36735275D01*
X145576209Y-36753820D01*
X145581329Y-36781934D01*
X145584159Y-36824773D01*
X145585344Y-36887495D01*
X145585543Y-36952861D01*
X145585582Y-37034868D01*
X145586986Y-37092916D01*
X145591686Y-37132065D01*
X145601613Y-37157380D01*
X145618697Y-37173923D01*
X145644868Y-37186756D01*
X145679825Y-37200091D01*
X145718004Y-37214607D01*
X145713459Y-36956989D01*
X145711629Y-36864119D01*
X145709488Y-36795489D01*
X145706419Y-36746311D01*
X145701806Y-36711798D01*
X145695032Y-36687162D01*
X145685481Y-36667616D01*
X145673966Y-36650370D01*
X145618410Y-36595280D01*
X145550620Y-36563422D01*
X145476887Y-36555791D01*
X145403507Y-36573380D01*
G37*
X145403507Y-36573380D02*
X145356928Y-36600323D01*
X145324543Y-36627066D01*
X145300858Y-36655084D01*
X145284541Y-36689348D01*
X145274261Y-36734827D01*
X145268686Y-36796492D01*
X145266484Y-36879311D01*
X145266229Y-36938846D01*
X145266229Y-37157991D01*
X145327914Y-37185644D01*
X145389600Y-37213297D01*
X145396857Y-36973270D01*
X145399856Y-36883628D01*
X145403002Y-36818562D01*
X145406899Y-36773626D01*
X145412153Y-36744370D01*
X145419369Y-36726348D01*
X145429150Y-36715111D01*
X145432288Y-36712679D01*
X145479839Y-36693683D01*
X145527903Y-36701200D01*
X145556514Y-36721143D01*
X145568153Y-36735275D01*
X145576209Y-36753820D01*
X145581329Y-36781934D01*
X145584159Y-36824773D01*
X145585344Y-36887495D01*
X145585543Y-36952861D01*
X145585582Y-37034868D01*
X145586986Y-37092916D01*
X145591686Y-37132065D01*
X145601613Y-37157380D01*
X145618697Y-37173923D01*
X145644868Y-37186756D01*
X145679825Y-37200091D01*
X145718004Y-37214607D01*
X145713459Y-36956989D01*
X145711629Y-36864119D01*
X145709488Y-36795489D01*
X145706419Y-36746311D01*
X145701806Y-36711798D01*
X145695032Y-36687162D01*
X145685481Y-36667616D01*
X145673966Y-36650370D01*
X145618410Y-36595280D01*
X145550620Y-36563422D01*
X145476887Y-36555791D01*
X145403507Y-36573380D01*
G36*
X146519856Y-36565518D02*
G01*
X146464399Y-36593168D01*
X146415452Y-36644080D01*
X146401971Y-36662938D01*
X146387286Y-36687615D01*
X146377758Y-36714416D01*
X146372307Y-36750187D01*
X146369853Y-36801769D01*
X146369314Y-36869867D01*
X146371748Y-36963188D01*
X146380206Y-37033257D01*
X146396426Y-37085531D01*
X146422146Y-37125469D01*
X146459103Y-37158529D01*
X146461818Y-37160486D01*
X146498240Y-37180508D01*
X146542098Y-37190415D01*
X146597876Y-37192857D01*
X146688552Y-37192857D01*
X146688590Y-37280883D01*
X146689434Y-37329908D01*
X146694576Y-37358665D01*
X146708013Y-37375911D01*
X146733742Y-37390408D01*
X146739921Y-37393369D01*
X146768836Y-37407248D01*
X146791224Y-37416014D01*
X146807871Y-37416771D01*
X146819564Y-37406623D01*
X146827090Y-37382673D01*
X146831234Y-37342026D01*
X146832785Y-37281786D01*
X146832529Y-37199055D01*
X146831251Y-37090939D01*
X146830852Y-37058600D01*
X146829415Y-36947124D01*
X146828128Y-36874203D01*
X146688629Y-36874203D01*
X146687845Y-36936099D01*
X146684360Y-36976597D01*
X146676476Y-37003308D01*
X146662495Y-37023844D01*
X146653003Y-37033860D01*
X146614196Y-37063167D01*
X146579837Y-37065552D01*
X146544384Y-37041350D01*
X146543486Y-37040457D01*
X146529061Y-37021753D01*
X146520287Y-36996332D01*
X146515861Y-36957184D01*
X146514482Y-36897297D01*
X146514457Y-36884030D01*
X146517788Y-36801501D01*
X146528631Y-36744291D01*
X146548260Y-36709366D01*
X146577950Y-36693694D01*
X146595109Y-36692114D01*
X146635834Y-36699526D01*
X146663768Y-36723930D01*
X146680583Y-36768580D01*
X146687950Y-36836730D01*
X146688629Y-36874203D01*
X146828128Y-36874203D01*
X146827892Y-36860845D01*
X146825923Y-36795933D01*
X146823150Y-36748558D01*
X146819212Y-36714890D01*
X146813751Y-36691098D01*
X146806408Y-36673353D01*
X146796823Y-36657824D01*
X146792713Y-36651981D01*
X146738195Y-36596785D01*
X146669264Y-36565490D01*
X146589528Y-36556765D01*
X146519856Y-36565518D01*
G37*
X146519856Y-36565518D02*
X146464399Y-36593168D01*
X146415452Y-36644080D01*
X146401971Y-36662938D01*
X146387286Y-36687615D01*
X146377758Y-36714416D01*
X146372307Y-36750187D01*
X146369853Y-36801769D01*
X146369314Y-36869867D01*
X146371748Y-36963188D01*
X146380206Y-37033257D01*
X146396426Y-37085531D01*
X146422146Y-37125469D01*
X146459103Y-37158529D01*
X146461818Y-37160486D01*
X146498240Y-37180508D01*
X146542098Y-37190415D01*
X146597876Y-37192857D01*
X146688552Y-37192857D01*
X146688590Y-37280883D01*
X146689434Y-37329908D01*
X146694576Y-37358665D01*
X146708013Y-37375911D01*
X146733742Y-37390408D01*
X146739921Y-37393369D01*
X146768836Y-37407248D01*
X146791224Y-37416014D01*
X146807871Y-37416771D01*
X146819564Y-37406623D01*
X146827090Y-37382673D01*
X146831234Y-37342026D01*
X146832785Y-37281786D01*
X146832529Y-37199055D01*
X146831251Y-37090939D01*
X146830852Y-37058600D01*
X146829415Y-36947124D01*
X146828128Y-36874203D01*
X146688629Y-36874203D01*
X146687845Y-36936099D01*
X146684360Y-36976597D01*
X146676476Y-37003308D01*
X146662495Y-37023844D01*
X146653003Y-37033860D01*
X146614196Y-37063167D01*
X146579837Y-37065552D01*
X146544384Y-37041350D01*
X146543486Y-37040457D01*
X146529061Y-37021753D01*
X146520287Y-36996332D01*
X146515861Y-36957184D01*
X146514482Y-36897297D01*
X146514457Y-36884030D01*
X146517788Y-36801501D01*
X146528631Y-36744291D01*
X146548260Y-36709366D01*
X146577950Y-36693694D01*
X146595109Y-36692114D01*
X146635834Y-36699526D01*
X146663768Y-36723930D01*
X146680583Y-36768580D01*
X146687950Y-36836730D01*
X146688629Y-36874203D01*
X146828128Y-36874203D01*
X146827892Y-36860845D01*
X146825923Y-36795933D01*
X146823150Y-36748558D01*
X146819212Y-36714890D01*
X146813751Y-36691098D01*
X146806408Y-36673353D01*
X146796823Y-36657824D01*
X146792713Y-36651981D01*
X146738195Y-36596785D01*
X146669264Y-36565490D01*
X146589528Y-36556765D01*
X146519856Y-36565518D01*
D10*
X124651000Y-55556200D02*
X124651000Y-54032200D01*
X124270000Y-54032200D02*
X124270000Y-55556200D01*
X124143000Y-55556200D02*
X124143000Y-54032200D01*
X124016000Y-55556200D02*
X124016000Y-54032200D01*
X124524000Y-54032200D02*
X124524000Y-55556200D01*
X124778000Y-54032200D02*
X119698000Y-54032200D01*
X119698000Y-54032200D02*
X119698000Y-55556200D01*
X124778000Y-55556200D02*
X124778000Y-54032200D01*
X119698000Y-55556200D02*
X124778000Y-55556200D01*
X124397000Y-55556200D02*
X124397000Y-54032200D01*
D13*
X78536800Y-29464000D02*
X77266800Y-29464000D01*
X78536800Y-37084000D02*
X78536800Y-29464000D01*
X77266800Y-37084000D02*
X78536800Y-37084000D01*
X77266800Y-24384000D02*
X77266800Y-42164000D01*
X44246800Y-24384000D02*
X77266800Y-24384000D01*
X44246800Y-42164000D02*
X44246800Y-24384000D01*
X77266800Y-42164000D02*
X44246800Y-42164000D01*
D10*
X75184000Y-70764400D02*
X73660000Y-70764400D01*
X73660000Y-71145400D02*
X75184000Y-71145400D01*
X75184000Y-71272400D02*
X73660000Y-71272400D01*
X75184000Y-71399400D02*
X73660000Y-71399400D01*
X73660000Y-70891400D02*
X75184000Y-70891400D01*
X73660000Y-70637400D02*
X73660000Y-75717400D01*
X73660000Y-75717400D02*
X75184000Y-75717400D01*
X75184000Y-70637400D02*
X73660000Y-70637400D01*
X75184000Y-75717400D02*
X75184000Y-70637400D01*
X75184000Y-71018400D02*
X73660000Y-71018400D01*
X104807000Y-59366200D02*
X104807000Y-57842200D01*
X104426000Y-57842200D02*
X104426000Y-59366200D01*
X104299000Y-59366200D02*
X104299000Y-57842200D01*
X104172000Y-59366200D02*
X104172000Y-57842200D01*
X104680000Y-57842200D02*
X104680000Y-59366200D01*
X104934000Y-57842200D02*
X99854000Y-57842200D01*
X99854000Y-57842200D02*
X99854000Y-59366200D01*
X104934000Y-59366200D02*
X104934000Y-57842200D01*
X99854000Y-59366200D02*
X104934000Y-59366200D01*
X104553000Y-59366200D02*
X104553000Y-57842200D01*
X142907000Y-59366200D02*
X142907000Y-57842200D01*
X142526000Y-57842200D02*
X142526000Y-59366200D01*
X142399000Y-59366200D02*
X142399000Y-57842200D01*
X142272000Y-59366200D02*
X142272000Y-57842200D01*
X142780000Y-57842200D02*
X142780000Y-59366200D01*
X143034000Y-57842200D02*
X137954000Y-57842200D01*
X137954000Y-57842200D02*
X137954000Y-59366200D01*
X143034000Y-59366200D02*
X143034000Y-57842200D01*
X137954000Y-59366200D02*
X143034000Y-59366200D01*
X142653000Y-59366200D02*
X142653000Y-57842200D01*
X161957000Y-63176200D02*
X161957000Y-61652200D01*
X161576000Y-61652200D02*
X161576000Y-63176200D01*
X161449000Y-63176200D02*
X161449000Y-61652200D01*
X161322000Y-63176200D02*
X161322000Y-61652200D01*
X161830000Y-61652200D02*
X161830000Y-63176200D01*
X162084000Y-61652200D02*
X157004000Y-61652200D01*
X157004000Y-61652200D02*
X157004000Y-63176200D01*
X162084000Y-63176200D02*
X162084000Y-61652200D01*
X157004000Y-63176200D02*
X162084000Y-63176200D01*
X161703000Y-63176200D02*
X161703000Y-61652200D01*
X94424500Y-126676000D02*
X92900500Y-126676000D01*
X92900500Y-127057000D02*
X94424500Y-127057000D01*
X94424500Y-127184000D02*
X92900500Y-127184000D01*
X94424500Y-127311000D02*
X92900500Y-127311000D01*
X92900500Y-126803000D02*
X94424500Y-126803000D01*
X92900500Y-126549000D02*
X92900500Y-131629000D01*
X92900500Y-131629000D02*
X94424500Y-131629000D01*
X94424500Y-126549000D02*
X92900500Y-126549000D01*
X94424500Y-131629000D02*
X94424500Y-126549000D01*
X94424500Y-126930000D02*
X92900500Y-126930000D01*
X151892000Y-123596000D02*
X150368000Y-123596000D01*
X150368000Y-123977000D02*
X151892000Y-123977000D01*
X151892000Y-124104000D02*
X150368000Y-124104000D01*
X151892000Y-124231000D02*
X150368000Y-124231000D01*
X150368000Y-123723000D02*
X151892000Y-123723000D01*
X150368000Y-123469000D02*
X150368000Y-128549000D01*
X150368000Y-128549000D02*
X151892000Y-128549000D01*
X151892000Y-123469000D02*
X150368000Y-123469000D01*
X151892000Y-128549000D02*
X151892000Y-123469000D01*
X151892000Y-123850000D02*
X150368000Y-123850000D01*
X132334000Y-119278000D02*
X130810000Y-119278000D01*
X130810000Y-119659000D02*
X132334000Y-119659000D01*
X132334000Y-119786000D02*
X130810000Y-119786000D01*
X132334000Y-119913000D02*
X130810000Y-119913000D01*
X130810000Y-119405000D02*
X132334000Y-119405000D01*
X130810000Y-119151000D02*
X130810000Y-124231000D01*
X130810000Y-124231000D02*
X132334000Y-124231000D01*
X132334000Y-119151000D02*
X130810000Y-119151000D01*
X132334000Y-124231000D02*
X132334000Y-119151000D01*
X132334000Y-119532000D02*
X130810000Y-119532000D01*
X73787000Y-88576200D02*
X72263000Y-88576200D01*
X72263000Y-88957200D02*
X73787000Y-88957200D01*
X73787000Y-89084200D02*
X72263000Y-89084200D01*
X73787000Y-89211200D02*
X72263000Y-89211200D01*
X72263000Y-88703200D02*
X73787000Y-88703200D01*
X72263000Y-88449200D02*
X72263000Y-93529200D01*
X72263000Y-93529200D02*
X73787000Y-93529200D01*
X73787000Y-88449200D02*
X72263000Y-88449200D01*
X73787000Y-93529200D02*
X73787000Y-88449200D01*
X73787000Y-88830200D02*
X72263000Y-88830200D01*
X75374500Y-126676000D02*
X73850500Y-126676000D01*
X73850500Y-127057000D02*
X75374500Y-127057000D01*
X75374500Y-127184000D02*
X73850500Y-127184000D01*
X75374500Y-127311000D02*
X73850500Y-127311000D01*
X73850500Y-126803000D02*
X75374500Y-126803000D01*
X73850500Y-126549000D02*
X73850500Y-131629000D01*
X73850500Y-131629000D02*
X75374500Y-131629000D01*
X75374500Y-126549000D02*
X73850500Y-126549000D01*
X75374500Y-131629000D02*
X75374500Y-126549000D01*
X75374500Y-126930000D02*
X73850500Y-126930000D01*
X123857000Y-93656200D02*
X123857000Y-92132200D01*
X123476000Y-92132200D02*
X123476000Y-93656200D01*
X123349000Y-93656200D02*
X123349000Y-92132200D01*
X123222000Y-93656200D02*
X123222000Y-92132200D01*
X123730000Y-92132200D02*
X123730000Y-93656200D01*
X123984000Y-92132200D02*
X118904000Y-92132200D01*
X118904000Y-92132200D02*
X118904000Y-93656200D01*
X123984000Y-93656200D02*
X123984000Y-92132200D01*
X118904000Y-93656200D02*
X123984000Y-93656200D01*
X123603000Y-93656200D02*
X123603000Y-92132200D01*
X62103000Y-64287400D02*
X62103000Y-62763400D01*
X61722000Y-62763400D02*
X61722000Y-64287400D01*
X61595000Y-64287400D02*
X61595000Y-62763400D01*
X61468000Y-64287400D02*
X61468000Y-62763400D01*
X61976000Y-62763400D02*
X61976000Y-64287400D01*
X62230000Y-62763400D02*
X57150000Y-62763400D01*
X57150000Y-62763400D02*
X57150000Y-64287400D01*
X62230000Y-64287400D02*
X62230000Y-62763400D01*
X57150000Y-64287400D02*
X62230000Y-64287400D01*
X61849000Y-64287400D02*
X61849000Y-62763400D01*
X73787000Y-107626000D02*
X72263000Y-107626000D01*
X72263000Y-108007000D02*
X73787000Y-108007000D01*
X73787000Y-108134000D02*
X72263000Y-108134000D01*
X73787000Y-108261000D02*
X72263000Y-108261000D01*
X72263000Y-107753000D02*
X73787000Y-107753000D01*
X72263000Y-107499000D02*
X72263000Y-112579000D01*
X72263000Y-112579000D02*
X73787000Y-112579000D01*
X73787000Y-107499000D02*
X72263000Y-107499000D01*
X73787000Y-112579000D02*
X73787000Y-107499000D01*
X73787000Y-107880000D02*
X72263000Y-107880000D01*
X62738000Y-82226200D02*
X62738000Y-80702200D01*
X62357000Y-80702200D02*
X62357000Y-82226200D01*
X62230000Y-82226200D02*
X62230000Y-80702200D01*
X62103000Y-82226200D02*
X62103000Y-80702200D01*
X62611000Y-80702200D02*
X62611000Y-82226200D01*
X62865000Y-80702200D02*
X57785000Y-80702200D01*
X57785000Y-80702200D02*
X57785000Y-82226200D01*
X62865000Y-82226200D02*
X62865000Y-80702200D01*
X57785000Y-82226200D02*
X62865000Y-82226200D01*
X62484000Y-82226200D02*
X62484000Y-80702200D01*
X189799886Y-150281384D02*
X190443956Y-148900171D01*
X190098653Y-148739154D02*
X189454582Y-150120367D01*
X189339481Y-150066694D02*
X189983551Y-148685481D01*
X189224380Y-150013022D02*
X189868450Y-148631809D01*
X190328855Y-148846499D02*
X189684784Y-150227712D01*
X190559057Y-148953844D02*
X185955013Y-146806943D01*
X185955013Y-146806943D02*
X185310943Y-148188156D01*
X189914987Y-150335057D02*
X190559057Y-148953844D01*
X185310943Y-148188156D02*
X189914987Y-150335057D01*
X189569683Y-150174039D02*
X190213754Y-148792826D01*
X188549886Y-152780384D02*
X189193956Y-151399171D01*
X188848653Y-151238154D02*
X188204582Y-152619367D01*
X188089481Y-152565694D02*
X188733551Y-151184481D01*
X187974380Y-152512022D02*
X188618450Y-151130809D01*
X189078855Y-151345499D02*
X188434784Y-152726712D01*
X189309057Y-151452844D02*
X184705013Y-149305943D01*
X184705013Y-149305943D02*
X184060943Y-150687156D01*
X188664987Y-152834057D02*
X189309057Y-151452844D01*
X184060943Y-150687156D02*
X188664987Y-152834057D01*
X188319683Y-152673039D02*
X188963754Y-151291826D01*
X162213384Y-134514114D02*
X160832171Y-133870044D01*
X160671154Y-134215347D02*
X162052367Y-134859418D01*
X161998694Y-134974519D02*
X160617481Y-134330449D01*
X161945022Y-135089620D02*
X160563809Y-134445550D01*
X160778499Y-133985145D02*
X162159712Y-134629216D01*
X160885844Y-133754943D02*
X158738943Y-138358987D01*
X158738943Y-138358987D02*
X160120156Y-139003057D01*
X162267057Y-134399013D02*
X160885844Y-133754943D01*
X160120156Y-139003057D02*
X162267057Y-134399013D01*
X162106039Y-134744317D02*
X160724826Y-134100246D01*
X113474000Y-123660000D02*
X111950000Y-123660000D01*
X111950000Y-124041000D02*
X113474000Y-124041000D01*
X113474000Y-124168000D02*
X111950000Y-124168000D01*
X113474000Y-124295000D02*
X111950000Y-124295000D01*
X111950000Y-123787000D02*
X113474000Y-123787000D01*
X111950000Y-123533000D02*
X111950000Y-128613000D01*
X111950000Y-128613000D02*
X113474000Y-128613000D01*
X113474000Y-123533000D02*
X111950000Y-123533000D01*
X113474000Y-128613000D02*
X113474000Y-123533000D01*
X113474000Y-123914000D02*
X111950000Y-123914000D01*
X84963000Y-101276000D02*
X84963000Y-99752000D01*
X84582000Y-99752000D02*
X84582000Y-101276000D01*
X84455000Y-101276000D02*
X84455000Y-99752000D01*
X84328000Y-101276000D02*
X84328000Y-99752000D01*
X84836000Y-99752000D02*
X84836000Y-101276000D01*
X85090000Y-99752000D02*
X80010000Y-99752000D01*
X80010000Y-99752000D02*
X80010000Y-101276000D01*
X85090000Y-101276000D02*
X85090000Y-99752000D01*
X80010000Y-101276000D02*
X85090000Y-101276000D01*
X84709000Y-101276000D02*
X84709000Y-99752000D01*
X161957000Y-120326000D02*
X161957000Y-118802000D01*
X161576000Y-118802000D02*
X161576000Y-120326000D01*
X161449000Y-120326000D02*
X161449000Y-118802000D01*
X161322000Y-120326000D02*
X161322000Y-118802000D01*
X161830000Y-118802000D02*
X161830000Y-120326000D01*
X162084000Y-118802000D02*
X157004000Y-118802000D01*
X157004000Y-118802000D02*
X157004000Y-120326000D01*
X162084000Y-120326000D02*
X162084000Y-118802000D01*
X157004000Y-120326000D02*
X162084000Y-120326000D01*
X161703000Y-120326000D02*
X161703000Y-118802000D01*
X123857000Y-112706000D02*
X123857000Y-111182000D01*
X123476000Y-111182000D02*
X123476000Y-112706000D01*
X123349000Y-112706000D02*
X123349000Y-111182000D01*
X123222000Y-112706000D02*
X123222000Y-111182000D01*
X123730000Y-111182000D02*
X123730000Y-112706000D01*
X123984000Y-111182000D02*
X118904000Y-111182000D01*
X118904000Y-111182000D02*
X118904000Y-112706000D01*
X123984000Y-112706000D02*
X123984000Y-111182000D01*
X118904000Y-112706000D02*
X123984000Y-112706000D01*
X123603000Y-112706000D02*
X123603000Y-111182000D01*
X124206000Y-74574400D02*
X124206000Y-73050400D01*
X123825000Y-73050400D02*
X123825000Y-74574400D01*
X123698000Y-74574400D02*
X123698000Y-73050400D01*
X123571000Y-74574400D02*
X123571000Y-73050400D01*
X124079000Y-73050400D02*
X124079000Y-74574400D01*
X124333000Y-73050400D02*
X119253000Y-73050400D01*
X119253000Y-73050400D02*
X119253000Y-74574400D01*
X124333000Y-74574400D02*
X124333000Y-73050400D01*
X119253000Y-74574400D02*
X124333000Y-74574400D01*
X123952000Y-74574400D02*
X123952000Y-73050400D01*
X142907000Y-97466200D02*
X142907000Y-95942200D01*
X142526000Y-95942200D02*
X142526000Y-97466200D01*
X142399000Y-97466200D02*
X142399000Y-95942200D01*
X142272000Y-97466200D02*
X142272000Y-95942200D01*
X142780000Y-95942200D02*
X142780000Y-97466200D01*
X143034000Y-95942200D02*
X137954000Y-95942200D01*
X137954000Y-95942200D02*
X137954000Y-97466200D01*
X143034000Y-97466200D02*
X143034000Y-95942200D01*
X137954000Y-97466200D02*
X143034000Y-97466200D01*
X142653000Y-97466200D02*
X142653000Y-95942200D01*
X161957000Y-101276000D02*
X161957000Y-99752000D01*
X161576000Y-99752000D02*
X161576000Y-101276000D01*
X161449000Y-101276000D02*
X161449000Y-99752000D01*
X161322000Y-101276000D02*
X161322000Y-99752000D01*
X161830000Y-99752000D02*
X161830000Y-101276000D01*
X162084000Y-99752000D02*
X157004000Y-99752000D01*
X157004000Y-99752000D02*
X157004000Y-101276000D01*
X162084000Y-101276000D02*
X162084000Y-99752000D01*
X157004000Y-101276000D02*
X162084000Y-101276000D01*
X161703000Y-101276000D02*
X161703000Y-99752000D01*
X85756800Y-82226200D02*
X85756800Y-80702200D01*
X85375800Y-80702200D02*
X85375800Y-82226200D01*
X85248800Y-82226200D02*
X85248800Y-80702200D01*
X85121800Y-82226200D02*
X85121800Y-80702200D01*
X85629800Y-80702200D02*
X85629800Y-82226200D01*
X85883800Y-80702200D02*
X80803800Y-80702200D01*
X80803800Y-80702200D02*
X80803800Y-82226200D01*
X85883800Y-82226200D02*
X85883800Y-80702200D01*
X80803800Y-82226200D02*
X85883800Y-82226200D01*
X85502800Y-82226200D02*
X85502800Y-80702200D01*
X143701000Y-78416200D02*
X143701000Y-76892200D01*
X143320000Y-76892200D02*
X143320000Y-78416200D01*
X143193000Y-78416200D02*
X143193000Y-76892200D01*
X143066000Y-78416200D02*
X143066000Y-76892200D01*
X143574000Y-76892200D02*
X143574000Y-78416200D01*
X143828000Y-76892200D02*
X138748000Y-76892200D01*
X138748000Y-76892200D02*
X138748000Y-78416200D01*
X143828000Y-78416200D02*
X143828000Y-76892200D01*
X138748000Y-78416200D02*
X143828000Y-78416200D01*
X143447000Y-78416200D02*
X143447000Y-76892200D01*
X104807000Y-97466200D02*
X104807000Y-95942200D01*
X104426000Y-95942200D02*
X104426000Y-97466200D01*
X104299000Y-97466200D02*
X104299000Y-95942200D01*
X104172000Y-97466200D02*
X104172000Y-95942200D01*
X104680000Y-95942200D02*
X104680000Y-97466200D01*
X104934000Y-95942200D02*
X99854000Y-95942200D01*
X99854000Y-95942200D02*
X99854000Y-97466200D01*
X104934000Y-97466200D02*
X104934000Y-95942200D01*
X99854000Y-97466200D02*
X104934000Y-97466200D01*
X104553000Y-97466200D02*
X104553000Y-95942200D01*
X160845000Y-81432400D02*
X160845000Y-79908400D01*
X160464000Y-79908400D02*
X160464000Y-81432400D01*
X160337000Y-81432400D02*
X160337000Y-79908400D01*
X160210000Y-81432400D02*
X160210000Y-79908400D01*
X160718000Y-79908400D02*
X160718000Y-81432400D01*
X160972000Y-79908400D02*
X155892000Y-79908400D01*
X155892000Y-79908400D02*
X155892000Y-81432400D01*
X160972000Y-81432400D02*
X160972000Y-79908400D01*
X155892000Y-81432400D02*
X160972000Y-81432400D01*
X160591000Y-81432400D02*
X160591000Y-79908400D01*
X142907000Y-116516000D02*
X142907000Y-114992000D01*
X142526000Y-114992000D02*
X142526000Y-116516000D01*
X142399000Y-116516000D02*
X142399000Y-114992000D01*
X142272000Y-116516000D02*
X142272000Y-114992000D01*
X142780000Y-114992000D02*
X142780000Y-116516000D01*
X143034000Y-114992000D02*
X137954000Y-114992000D01*
X137954000Y-114992000D02*
X137954000Y-116516000D01*
X143034000Y-116516000D02*
X143034000Y-114992000D01*
X137954000Y-116516000D02*
X143034000Y-116516000D01*
X142653000Y-116516000D02*
X142653000Y-114992000D01*
X104807000Y-78416200D02*
X104807000Y-76892200D01*
X104426000Y-76892200D02*
X104426000Y-78416200D01*
X104299000Y-78416200D02*
X104299000Y-76892200D01*
X104172000Y-78416200D02*
X104172000Y-76892200D01*
X104680000Y-76892200D02*
X104680000Y-78416200D01*
X104934000Y-76892200D02*
X99854000Y-76892200D01*
X99854000Y-76892200D02*
X99854000Y-78416200D01*
X104934000Y-78416200D02*
X104934000Y-76892200D01*
X99854000Y-78416200D02*
X104934000Y-78416200D01*
X104553000Y-78416200D02*
X104553000Y-76892200D01*
X104807000Y-116516000D02*
X104807000Y-114992000D01*
X104426000Y-114992000D02*
X104426000Y-116516000D01*
X104299000Y-116516000D02*
X104299000Y-114992000D01*
X104172000Y-116516000D02*
X104172000Y-114992000D01*
X104680000Y-114992000D02*
X104680000Y-116516000D01*
X104934000Y-114992000D02*
X99854000Y-114992000D01*
X99854000Y-114992000D02*
X99854000Y-116516000D01*
X104934000Y-116516000D02*
X104934000Y-114992000D01*
X99854000Y-116516000D02*
X104934000Y-116516000D01*
X104553000Y-116516000D02*
X104553000Y-114992000D01*
X84963000Y-120326000D02*
X84963000Y-118802000D01*
X84582000Y-118802000D02*
X84582000Y-120326000D01*
X84455000Y-120326000D02*
X84455000Y-118802000D01*
X84328000Y-120326000D02*
X84328000Y-118802000D01*
X84836000Y-118802000D02*
X84836000Y-120326000D01*
X85090000Y-118802000D02*
X80010000Y-118802000D01*
X80010000Y-118802000D02*
X80010000Y-120326000D01*
X85090000Y-120326000D02*
X85090000Y-118802000D01*
X80010000Y-120326000D02*
X85090000Y-120326000D01*
X84709000Y-120326000D02*
X84709000Y-118802000D01*
D11*
X59531200Y-87210900D02*
X59531200Y-85432900D01*
X59531200Y-98132900D02*
X59531200Y-96354900D01*
X57753200Y-98132900D02*
X59531200Y-98132900D01*
X46831200Y-98132900D02*
X48609200Y-98132900D01*
X46831200Y-96354900D02*
X46831200Y-98132900D01*
X46831200Y-85432900D02*
X46831200Y-87210900D01*
X48609200Y-85432900D02*
X46831200Y-85432900D01*
X59531200Y-85432900D02*
X57753200Y-85432900D01*
D10*
X185547384Y-135874114D02*
X184166171Y-135230044D01*
X184005154Y-135575347D02*
X185386367Y-136219418D01*
X185332694Y-136334519D02*
X183951481Y-135690449D01*
X185279022Y-136449620D02*
X183897809Y-135805550D01*
X184112499Y-135345145D02*
X185493712Y-135989216D01*
X184219844Y-135114943D02*
X182072943Y-139718987D01*
X182072943Y-139718987D02*
X183454156Y-140363057D01*
X185601057Y-135759013D02*
X184219844Y-135114943D01*
X183454156Y-140363057D02*
X185601057Y-135759013D01*
X185440039Y-136104317D02*
X184058826Y-135460246D01*
X154052000Y-33306900D02*
X160152000Y-33306900D01*
X154052000Y-45406900D02*
X160152000Y-45406900D01*
X154052000Y-33306900D02*
X154052000Y-45406900D01*
X160152000Y-33306900D02*
X160152000Y-45406900D01*
X154302000Y-33306900D02*
X154302000Y-31306900D01*
X159902000Y-33306900D02*
X159902000Y-31306900D01*
X154302000Y-31306900D02*
X159902000Y-31306900D01*
X46863000Y-65989200D02*
X46863000Y-64465200D01*
X46482000Y-64465200D02*
X46482000Y-65989200D01*
X46355000Y-65989200D02*
X46355000Y-64465200D01*
X46228000Y-65989200D02*
X46228000Y-64465200D01*
X46736000Y-64465200D02*
X46736000Y-65989200D01*
X46990000Y-64465200D02*
X41910000Y-64465200D01*
X41910000Y-64465200D02*
X41910000Y-65989200D01*
X46990000Y-65989200D02*
X46990000Y-64465200D01*
X41910000Y-65989200D02*
X46990000Y-65989200D01*
X46609000Y-65989200D02*
X46609000Y-64465200D01*
D14*
X59102190Y-57310280D02*
X59102190Y-56310280D01*
X58530761Y-57310280D02*
X58959333Y-56738852D01*
X58530761Y-56310280D02*
X59102190Y-56881709D01*
X58340285Y-57405519D02*
X57578380Y-57405519D01*
X57006952Y-56786471D02*
X56864095Y-56834090D01*
X56816476Y-56881709D01*
X56768857Y-56976947D01*
X56768857Y-57119804D01*
X56816476Y-57215042D01*
X56864095Y-57262661D01*
X56959333Y-57310280D01*
X57340285Y-57310280D01*
X57340285Y-56310280D01*
X57006952Y-56310280D01*
X56911714Y-56357900D01*
X56864095Y-56405519D01*
X56816476Y-56500757D01*
X56816476Y-56595995D01*
X56864095Y-56691233D01*
X56911714Y-56738852D01*
X57006952Y-56786471D01*
X57340285Y-56786471D01*
X56340285Y-57310280D02*
X56340285Y-56310280D01*
X55768857Y-57310280D02*
X56197428Y-56738852D01*
X55768857Y-56310280D02*
X56340285Y-56881709D01*
X55387904Y-57262661D02*
X55245047Y-57310280D01*
X55006952Y-57310280D01*
X54911714Y-57262661D01*
X54864095Y-57215042D01*
X54816476Y-57119804D01*
X54816476Y-57024566D01*
X54864095Y-56929328D01*
X54911714Y-56881709D01*
X55006952Y-56834090D01*
X55197428Y-56786471D01*
X55292666Y-56738852D01*
X55340285Y-56691233D01*
X55387904Y-56595995D01*
X55387904Y-56500757D01*
X55340285Y-56405519D01*
X55292666Y-56357900D01*
X55197428Y-56310280D01*
X54959333Y-56310280D01*
X54816476Y-56357900D01*
X54387904Y-57310280D02*
X54387904Y-56310280D01*
X54006952Y-56310280D01*
X53911714Y-56357900D01*
X53864095Y-56405519D01*
X53816476Y-56500757D01*
X53816476Y-56643614D01*
X53864095Y-56738852D01*
X53911714Y-56786471D01*
X54006952Y-56834090D01*
X54387904Y-56834090D01*
X53626000Y-57405519D02*
X52864095Y-57405519D01*
X52102190Y-57310280D02*
X52673619Y-57310280D01*
X52387904Y-57310280D02*
X52387904Y-56310280D01*
X52483142Y-56453138D01*
X52578380Y-56548376D01*
X52673619Y-56595995D01*
D15*
X59631085Y-114582523D02*
X59631085Y-113312523D01*
X58760228Y-114582523D02*
X59413371Y-113856809D01*
X58760228Y-113312523D02*
X59631085Y-114038238D01*
X58469942Y-114703476D02*
X57308800Y-114703476D01*
X57018514Y-114522047D02*
X56800800Y-114582523D01*
X56437942Y-114582523D01*
X56292800Y-114522047D01*
X56220228Y-114461571D01*
X56147657Y-114340619D01*
X56147657Y-114219666D01*
X56220228Y-114098714D01*
X56292800Y-114038238D01*
X56437942Y-113977761D01*
X56728228Y-113917285D01*
X56873371Y-113856809D01*
X56945942Y-113796333D01*
X57018514Y-113675380D01*
X57018514Y-113554428D01*
X56945942Y-113433476D01*
X56873371Y-113373000D01*
X56728228Y-113312523D01*
X56365371Y-113312523D01*
X56147657Y-113373000D01*
X55494514Y-114582523D02*
X55494514Y-113312523D01*
X55494514Y-113917285D02*
X54623657Y-113917285D01*
X54623657Y-114582523D02*
X54623657Y-113312523D01*
X53897942Y-114582523D02*
X53897942Y-113312523D01*
X52664228Y-113917285D02*
X53172228Y-113917285D01*
X53172228Y-114582523D02*
X53172228Y-113312523D01*
X52446514Y-113312523D01*
X52083657Y-113312523D02*
X51212800Y-113312523D01*
X51648228Y-114582523D02*
X51648228Y-113312523D01*
X51067657Y-114703476D02*
X49906514Y-114703476D01*
X48672800Y-114582523D02*
X49180800Y-113977761D01*
X49543657Y-114582523D02*
X49543657Y-113312523D01*
X48963085Y-113312523D01*
X48817942Y-113373000D01*
X48745371Y-113433476D01*
X48672800Y-113554428D01*
X48672800Y-113735857D01*
X48745371Y-113856809D01*
X48817942Y-113917285D01*
X48963085Y-113977761D01*
X49543657Y-113977761D01*
X48019657Y-113917285D02*
X47511657Y-113917285D01*
X47293942Y-114582523D02*
X48019657Y-114582523D01*
X48019657Y-113312523D01*
X47293942Y-113312523D01*
X46858514Y-113312523D02*
X46350514Y-114582523D01*
X45842514Y-113312523D01*
X45697371Y-114703476D02*
X44536228Y-114703476D01*
X44245942Y-113433476D02*
X44173371Y-113373000D01*
X44028228Y-113312523D01*
X43665371Y-113312523D01*
X43520228Y-113373000D01*
X43447657Y-113433476D01*
X43375085Y-113554428D01*
X43375085Y-113675380D01*
X43447657Y-113856809D01*
X44318514Y-114582523D01*
X43375085Y-114582523D01*
X42721942Y-114461571D02*
X42649371Y-114522047D01*
X42721942Y-114582523D01*
X42794514Y-114522047D01*
X42721942Y-114461571D01*
X42721942Y-114582523D01*
X42141371Y-113312523D02*
X41125371Y-113312523D01*
X41778514Y-114582523D01*
X39819085Y-113312523D02*
X40544800Y-113312523D01*
X40617371Y-113917285D01*
X40544800Y-113856809D01*
X40399657Y-113796333D01*
X40036800Y-113796333D01*
X39891657Y-113856809D01*
X39819085Y-113917285D01*
X39746514Y-114038238D01*
X39746514Y-114340619D01*
X39819085Y-114461571D01*
X39891657Y-114522047D01*
X40036800Y-114582523D01*
X40399657Y-114582523D01*
X40544800Y-114522047D01*
X40617371Y-114461571D01*
X39456228Y-114703476D02*
X38295085Y-114703476D01*
X37133942Y-114582523D02*
X38004800Y-114582523D01*
X37569371Y-114582523D02*
X37569371Y-113312523D01*
X37714514Y-113493952D01*
X37859657Y-113614904D01*
X38004800Y-113675380D01*
D10*
X73909180Y-27503523D02*
X73432990Y-27170190D01*
X73909180Y-26932095D02*
X72909180Y-26932095D01*
X72909180Y-27313047D01*
X72956800Y-27408285D01*
X73004419Y-27455904D01*
X73099657Y-27503523D01*
X73242514Y-27503523D01*
X73337752Y-27455904D01*
X73385371Y-27408285D01*
X73432990Y-27313047D01*
X73432990Y-26932095D01*
X73623466Y-27884476D02*
X73623466Y-28360666D01*
X73909180Y-27789238D02*
X72909180Y-28122571D01*
X73909180Y-28455904D01*
X72909180Y-28694000D02*
X73909180Y-28932095D01*
X73194895Y-29122571D01*
X73909180Y-29313047D01*
X72909180Y-29551142D01*
D15*
X65082914Y-95532423D02*
X65082914Y-94262423D01*
X64212057Y-95532423D02*
X64865200Y-94806709D01*
X64212057Y-94262423D02*
X65082914Y-94988138D01*
X63921771Y-95653376D02*
X62760628Y-95653376D01*
X62397771Y-94867185D02*
X61889771Y-94867185D01*
X61672057Y-95532423D02*
X62397771Y-95532423D01*
X62397771Y-94262423D01*
X61672057Y-94262423D01*
X61018914Y-95532423D02*
X61018914Y-94262423D01*
X60148057Y-95532423D01*
X60148057Y-94262423D01*
X59640057Y-94262423D02*
X58769200Y-94262423D01*
X59204628Y-95532423D02*
X59204628Y-94262423D01*
X58261200Y-94867185D02*
X57753200Y-94867185D01*
X57535485Y-95532423D02*
X58261200Y-95532423D01*
X58261200Y-94262423D01*
X57535485Y-94262423D01*
X56011485Y-95532423D02*
X56519485Y-94927661D01*
X56882342Y-95532423D02*
X56882342Y-94262423D01*
X56301771Y-94262423D01*
X56156628Y-94322900D01*
X56084057Y-94383376D01*
X56011485Y-94504328D01*
X56011485Y-94685757D01*
X56084057Y-94806709D01*
X56156628Y-94867185D01*
X56301771Y-94927661D01*
X56882342Y-94927661D01*
X55721200Y-95653376D02*
X54560057Y-95653376D01*
X54197200Y-95532423D02*
X54197200Y-94685757D01*
X54197200Y-94927661D02*
X54124628Y-94806709D01*
X54052057Y-94746233D01*
X53906914Y-94685757D01*
X53761771Y-94685757D01*
X52673200Y-95471947D02*
X52818342Y-95532423D01*
X53108628Y-95532423D01*
X53253771Y-95471947D01*
X53326342Y-95350995D01*
X53326342Y-94867185D01*
X53253771Y-94746233D01*
X53108628Y-94685757D01*
X52818342Y-94685757D01*
X52673200Y-94746233D01*
X52600628Y-94867185D01*
X52600628Y-94988138D01*
X53326342Y-95109090D01*
X52092628Y-94685757D02*
X51729771Y-95532423D01*
X51366914Y-94685757D01*
X51149200Y-95653376D02*
X49988057Y-95653376D01*
X49697771Y-94383376D02*
X49625200Y-94322900D01*
X49480057Y-94262423D01*
X49117200Y-94262423D01*
X48972057Y-94322900D01*
X48899485Y-94383376D01*
X48826914Y-94504328D01*
X48826914Y-94625280D01*
X48899485Y-94806709D01*
X49770342Y-95532423D01*
X48826914Y-95532423D01*
X48173771Y-95411471D02*
X48101200Y-95471947D01*
X48173771Y-95532423D01*
X48246342Y-95471947D01*
X48173771Y-95411471D01*
X48173771Y-95532423D01*
X47520628Y-94383376D02*
X47448057Y-94322900D01*
X47302914Y-94262423D01*
X46940057Y-94262423D01*
X46794914Y-94322900D01*
X46722342Y-94383376D01*
X46649771Y-94504328D01*
X46649771Y-94625280D01*
X46722342Y-94806709D01*
X47593200Y-95532423D01*
X46649771Y-95532423D01*
X45270914Y-94262423D02*
X45996628Y-94262423D01*
X46069200Y-94867185D01*
X45996628Y-94806709D01*
X45851485Y-94746233D01*
X45488628Y-94746233D01*
X45343485Y-94806709D01*
X45270914Y-94867185D01*
X45198342Y-94988138D01*
X45198342Y-95290519D01*
X45270914Y-95411471D01*
X45343485Y-95471947D01*
X45488628Y-95532423D01*
X45851485Y-95532423D01*
X45996628Y-95471947D01*
X46069200Y-95411471D01*
X43892057Y-94685757D02*
X43892057Y-95532423D01*
X44545200Y-94685757D02*
X44545200Y-95350995D01*
X44472628Y-95471947D01*
X44327485Y-95532423D01*
X44109771Y-95532423D01*
X43964628Y-95471947D01*
X43892057Y-95411471D01*
X43529200Y-95653376D02*
X42368057Y-95653376D01*
X41206914Y-95532423D02*
X42077771Y-95532423D01*
X41642342Y-95532423D02*
X41642342Y-94262423D01*
X41787485Y-94443852D01*
X41932628Y-94564804D01*
X42077771Y-94625280D01*
M02*
