M48
; DRILL file {KiCad (5.1.5)-3} date 1/24/2020 10:20:23 AM
; FORMAT={-:-/ absolute / inch / decimal}
; #@! TF.CreationDate,2020-01-24T10:20:23+05:30
; #@! TF.GenerationSoftware,Kicad,Pcbnew,(5.1.5)-3
; #@! TF.FileFunction,Plated,1,2,PTH
FMAT,2
INCH
T1C0.0157
T2C0.0300
T3C0.0394
T4C0.0400
T5C0.0591
T6C0.0600
T7C0.1850
%
G90
G05
T1
X1.765Y-2.32
X1.9442Y-4.5308
X2.1902Y-1.9858
X2.473Y-1.749
X2.632Y-1.7105
X2.642Y-1.26
X3.295Y-1.725
X3.4682Y-1.6941
X3.62Y-3.112
X6.1303Y-1.5554
X6.1303Y-1.4373
X6.239Y-1.7562
T2
X6.7771Y-5.7701
X6.8419Y-5.7727
X6.8821Y-5.5449
X6.9258Y-5.5929
T3
X4.659Y-2.1573
X4.9661Y-2.1573
X5.95Y-4.8074
X5.95Y-5.1145
X6.0839Y-3.176
X6.391Y-3.176
X5.3777Y-3.8073
X5.6848Y-3.8073
X2.1965Y-2.501
X2.5035Y-2.501
X3.6875Y-4.9287
X3.6875Y-5.2358
X3.0965Y-3.9572
X3.4035Y-3.9572
X7.2599Y-5.7844
X7.5382Y-5.9141
X4.6277Y-3.6573
X4.9348Y-3.6573
X1.5965Y-2.568
X1.9035Y-2.568
X3.0965Y-4.7072
X3.4035Y-4.7072
X2.875Y-4.1787
X2.875Y-4.4858
X4.6415Y-2.906
X4.9485Y-2.906
X4.6277Y-4.4072
X4.9348Y-4.4072
X3.8777Y-4.5572
X4.1848Y-4.5572
X3.8777Y-3.8073
X4.1848Y-3.8073
X2.2215Y-3.2073
X2.5285Y-3.2073
X4.4375Y-4.81
X4.4375Y-5.117
X2.93Y-2.7275
X2.93Y-3.0345
X5.3777Y-2.3073
X5.6848Y-2.3073
X5.3777Y-4.5572
X5.6848Y-4.5572
X6.1277Y-3.9572
X6.4348Y-3.9572
X2.9375Y-4.9287
X2.9375Y-5.2358
X6.1277Y-4.7072
X6.4348Y-4.7072
X7.1728Y-5.562
X7.3026Y-5.2836
X6.1277Y-2.4573
X6.4348Y-2.4573
X2.875Y-3.4287
X2.875Y-3.7358
X5.409Y-3.0573
X5.7161Y-3.0573
X6.2541Y-5.5084
X6.3839Y-5.2301
X3.8777Y-2.3073
X4.1848Y-2.3073
X5.18Y-4.6374
X5.18Y-4.9445
X3.8777Y-3.0573
X4.1848Y-3.0573
X3.1277Y-3.2073
X3.4348Y-3.2073
X7.2106Y-5.8827
X7.489Y-6.0125
T4
X1.792Y-1.01
X1.792Y-1.61
X1.892Y-1.01
X1.892Y-1.61
X1.992Y-1.01
X1.992Y-1.61
X2.092Y-1.01
X2.092Y-1.61
X2.192Y-1.01
X2.192Y-1.61
X2.292Y-1.01
X2.292Y-1.61
X2.392Y-1.01
X2.392Y-1.61
X2.492Y-1.01
X2.492Y-1.61
X2.592Y-1.01
X2.592Y-1.61
X2.692Y-1.01
X2.692Y-1.61
X2.792Y-1.01
X2.792Y-1.61
X2.892Y-1.01
X2.892Y-1.61
T5
X5.4125Y-3.3635
X5.4625Y-3.2635
X5.4641Y-3.2863
X5.4641Y-3.306
X5.6609Y-3.2863
X5.6609Y-3.306
X5.6625Y-3.2635
X5.7125Y-3.3635
X3.9125Y-4.1135
X3.9625Y-4.0135
X3.9641Y-4.0363
X3.9641Y-4.056
X4.1609Y-4.0363
X4.1609Y-4.056
X4.1625Y-4.0135
X4.2125Y-4.1135
X6.3758Y-5.9698
X6.3788Y-6.0815
X6.3899Y-6.0615
X6.3982Y-6.0436
X6.5601Y-6.166
X6.5683Y-6.1447
X6.5766Y-6.1268
X6.6477Y-6.0965
X7.1405Y-6.1059
X7.2116Y-6.0756
X7.2199Y-6.0578
X7.2281Y-6.0364
X7.39Y-6.1588
X7.3983Y-6.141
X7.4094Y-6.121
X7.4124Y-6.2327
X6.1625Y-2.0135
X6.2125Y-1.9135
X6.2141Y-1.9363
X6.2141Y-1.956
X6.4109Y-1.9363
X6.4109Y-1.956
X6.4125Y-1.9135
X6.4625Y-2.0135
X3.1625Y-3.5135
X3.2125Y-3.4135
X3.2141Y-3.4363
X3.2141Y-3.456
X3.4109Y-3.4363
X3.4109Y-3.456
X3.4125Y-3.4135
X3.4625Y-3.5135
X3.9125Y-3.3635
X3.9625Y-3.2635
X3.9641Y-3.2863
X3.9641Y-3.306
X4.1609Y-3.2863
X4.1609Y-3.306
X4.1625Y-3.2635
X4.2125Y-3.3635
X3.9125Y-2.6135
X3.9625Y-2.5135
X3.9641Y-2.5363
X3.9641Y-2.556
X4.1609Y-2.5363
X4.1609Y-2.556
X4.1625Y-2.5135
X4.2125Y-2.6135
X6.1625Y-4.2635
X6.2125Y-4.1635
X6.2141Y-4.1863
X6.2141Y-4.206
X6.4109Y-4.1863
X6.4109Y-4.206
X6.4125Y-4.1635
X6.4625Y-4.2635
X6.1625Y-2.7635
X6.2125Y-2.6635
X6.2141Y-2.6863
X6.2141Y-2.706
X6.4109Y-2.6863
X6.4109Y-2.706
X6.4125Y-2.6635
X6.4625Y-2.7635
X6.1625Y-3.5135
X6.2125Y-3.4135
X6.2141Y-3.4363
X6.2141Y-3.456
X6.4109Y-3.4363
X6.4109Y-3.456
X6.4125Y-3.4135
X6.4625Y-3.5135
X2.4125Y-2.0135
X2.4625Y-1.9135
X2.4641Y-1.9363
X2.4641Y-1.956
X2.6609Y-1.9363
X2.6609Y-1.956
X2.6625Y-1.9135
X2.7125Y-2.0135
X2.225Y-2.7635
X2.275Y-2.6635
X2.2766Y-2.6863
X2.2766Y-2.706
X2.4734Y-2.6863
X2.4734Y-2.706
X2.475Y-2.6635
X2.525Y-2.7635
X3.1625Y-5.0135
X3.2125Y-4.9135
X3.2141Y-4.9363
X3.2141Y-4.956
X3.4109Y-4.9363
X3.4109Y-4.956
X3.4125Y-4.9135
X3.4625Y-5.0135
X6.7773Y-5.1088
X6.8483Y-5.0785
X6.8566Y-5.0606
X6.8648Y-5.0393
X7.0267Y-5.1617
X7.035Y-5.1438
X7.0461Y-5.1238
X7.0492Y-5.2356
X5.4125Y-4.1135
X5.4625Y-4.0135
X5.4641Y-4.0363
X5.4641Y-4.056
X5.6609Y-4.0363
X5.6609Y-4.056
X5.6625Y-4.0135
X5.7125Y-4.1135
X4.6625Y-2.4635
X4.7125Y-2.3635
X4.7141Y-2.3863
X4.7141Y-2.406
X4.9109Y-2.3863
X4.9109Y-2.406
X4.9125Y-2.3635
X4.9625Y-2.4635
X4.66Y-4.711
X4.71Y-4.611
X4.7116Y-4.6338
X4.7116Y-4.6535
X4.9084Y-4.6338
X4.9084Y-4.6535
X4.91Y-4.611
X4.96Y-4.711
X4.6625Y-1.7135
X4.7125Y-1.6135
X4.7141Y-1.6363
X4.7141Y-1.656
X4.9109Y-1.6363
X4.9109Y-1.656
X4.9125Y-1.6135
X4.9625Y-1.7135
X7.4575Y-5.4262
X7.5285Y-5.3959
X7.5368Y-5.3781
X7.545Y-5.3567
X7.7069Y-5.4791
X7.7152Y-5.4613
X7.7263Y-5.4412
X7.7293Y-5.553
X3.1625Y-2.0135
X3.2125Y-1.9135
X3.2141Y-1.9363
X3.2141Y-1.956
X3.4109Y-1.9363
X3.4109Y-1.956
X3.4125Y-1.9135
X3.4625Y-2.0135
X5.41Y-4.861
X5.46Y-4.761
X5.4616Y-4.7838
X5.4616Y-4.8035
X5.6584Y-4.7838
X5.6584Y-4.8035
X5.66Y-4.761
X5.71Y-4.861
X3.9125Y-1.8635
X3.9625Y-1.7635
X3.9641Y-1.7863
X3.9641Y-1.806
X4.1609Y-1.7863
X4.1609Y-1.806
X4.1625Y-1.7635
X4.2125Y-1.8635
X5.4125Y-2.6135
X5.4625Y-2.5135
X5.4641Y-2.5363
X5.4641Y-2.556
X5.6609Y-2.5363
X5.6609Y-2.556
X5.6625Y-2.5135
X5.7125Y-2.6135
X3.1625Y-2.7635
X3.2125Y-2.6635
X3.2141Y-2.6863
X3.2141Y-2.706
X3.4109Y-2.6863
X3.4109Y-2.706
X3.4125Y-2.6635
X3.4625Y-2.7635
X1.663Y-2.014
X1.713Y-1.914
X1.7146Y-1.9368
X1.7146Y-1.9565
X1.9114Y-1.9368
X1.9114Y-1.9565
X1.913Y-1.914
X1.963Y-2.014
X4.6625Y-3.2135
X4.7125Y-3.1135
X4.7141Y-3.1363
X4.7141Y-3.156
X4.9109Y-3.1363
X4.9109Y-3.156
X4.9125Y-3.1135
X4.9625Y-3.2135
X5.4125Y-1.8635
X5.4625Y-1.7635
X5.4641Y-1.7863
X5.4641Y-1.806
X5.6609Y-1.7863
X5.6609Y-1.806
X5.6625Y-1.7635
X5.7125Y-1.8635
X3.1625Y-4.2635
X3.2125Y-4.1635
X3.2141Y-4.1863
X3.2141Y-4.206
X3.4109Y-4.1863
X3.4109Y-4.206
X3.4125Y-4.1635
X3.4625Y-4.2635
X2.4125Y-5.0135
X2.4625Y-4.9135
X2.4641Y-4.9363
X2.4641Y-4.956
X2.6609Y-4.9363
X2.6609Y-4.956
X2.6625Y-4.9135
X2.7125Y-5.0135
X4.6625Y-3.9635
X4.7125Y-3.8635
X4.7141Y-3.8863
X4.7141Y-3.906
X4.9109Y-3.8863
X4.9109Y-3.906
X4.9125Y-3.8635
X4.9625Y-3.9635
X3.9125Y-4.8635
X3.9625Y-4.7635
X3.9641Y-4.7863
X3.9641Y-4.806
X4.1609Y-4.7863
X4.1609Y-4.806
X4.1625Y-4.7635
X4.2125Y-4.8635
T6
X6.7402Y-5.7813
X6.8141Y-5.7589
X6.8319Y-5.7672
X6.852Y-5.7783
X6.867Y-5.5094
X6.8973Y-5.5805
X6.9151Y-5.5888
X6.9365Y-5.597
T7
X4.4575Y-2.9385
X1.61Y-5.071
X4.4325Y-5.411
X1.58Y-2.931
X6.59Y-4.796
X6.56Y-1.361
X7.065Y-5.776
X4.43Y-1.361
X1.58Y-1.361
T5
G00X1.9757Y-4.206
M15
G01X1.9437Y-4.2635
M16
G05
G00X2.1937Y-4.1635
M15
G01X2.1922Y-4.1863
M16
G05
G00X2.04Y-2.0135
M15
G01X2.0719Y-1.956
M16
G05
G00X2.0916Y-1.9363
M15
G01X2.09Y-1.9135
M16
G05
G00X2.2884Y-1.9363
M15
G01X2.29Y-1.9135
M16
G05
G00X2.34Y-2.0135
M15
G01X2.3081Y-1.956
M16
G05
G00X1.8078Y-4.1863
M15
G01X1.8063Y-4.1635
M16
G05
G00X2.0562Y-4.2635
M15
G01X2.0244Y-4.206
M16
G05
G00X2.1632Y-3.456
M15
G01X2.1312Y-3.5135
M16
G05
G00X2.3812Y-3.4135
M15
G01X2.3797Y-3.4363
M16
G05
G00X1.9953Y-3.4363
M15
G01X1.9938Y-3.4135
M16
G05
G00X2.2438Y-3.5135
M15
G01X2.2118Y-3.456
M16
G05
T0
M30
