G04 #@! TF.GenerationSoftware,KiCad,Pcbnew,(5.1.5)-3*
G04 #@! TF.CreationDate,2020-01-24T10:20:19+05:30*
G04 #@! TF.ProjectId,ergocape,6572676f-6361-4706-952e-6b696361645f,rev?*
G04 #@! TF.SameCoordinates,Original*
G04 #@! TF.FileFunction,Profile,NP*
%FSLAX46Y46*%
G04 Gerber Fmt 4.6, Leading zero omitted, Abs format (unit mm)*
G04 Created by KiCad (PCBNEW (5.1.5)-3) date 2020-01-24 10:20:19*
%MOMM*%
%LPD*%
G04 APERTURE LIST*
%ADD10C,0.150000*%
%ADD11C,0.200000*%
G04 APERTURE END LIST*
D10*
X95478600Y-31267400D02*
X80137000Y-21336000D01*
X127000000Y-31267400D02*
X95478600Y-31267400D01*
X39370000Y-21336000D02*
X80137000Y-21336000D01*
X36576000Y-24130000D02*
G75*
G02X39370000Y-21336000I2794000J0D01*
G01*
X36580000Y-33553400D02*
X36576000Y-24130000D01*
D11*
X31750000Y-82321400D02*
X36576000Y-82321400D01*
D10*
X36576000Y-62890400D02*
X36580000Y-33553400D01*
D11*
X36576000Y-65938400D02*
X36576000Y-62890400D01*
X36576000Y-82321400D02*
X36576000Y-65938400D01*
X31750000Y-101371400D02*
X31750000Y-82321400D01*
X22352000Y-101371400D02*
X31750000Y-101371400D01*
X22352000Y-101498400D02*
X22352000Y-101371400D01*
X22352000Y-112039400D02*
X22352000Y-101498400D01*
D10*
X157988000Y-31267400D02*
X168402000Y-31267400D01*
X147574000Y-31267400D02*
X157988000Y-31267400D01*
X136906000Y-31267400D02*
X147574000Y-31267400D01*
X127000000Y-31267400D02*
X136906000Y-31267400D01*
X204852770Y-135554010D02*
G75*
G02X205467055Y-137241747I-536726J-1151011D01*
G01*
X204385820Y-135332675D02*
X204852770Y-135554010D01*
X170434000Y-33299400D02*
X170434000Y-119405400D01*
X153365200Y-155829000D02*
X143510000Y-140995400D01*
X153585583Y-155924898D02*
X153365200Y-155829000D01*
X205467055Y-137241747D02*
X189577980Y-171300140D01*
X189577980Y-171300140D02*
G75*
G02X187890244Y-171914426I-1151011J536725D01*
G01*
X153585583Y-155924898D02*
X187890244Y-171914426D01*
X170434000Y-119405400D02*
X204385820Y-135332675D01*
X168402000Y-31267400D02*
G75*
G02X170434000Y-33299400I0J-2032000D01*
G01*
X137150000Y-140995400D02*
X143510000Y-140995400D01*
X22352000Y-122961400D02*
X22860000Y-123215400D01*
X22352000Y-120421400D02*
X22352000Y-122961400D01*
X22352000Y-112039400D02*
X22352000Y-120421400D01*
X55118000Y-140995400D02*
X55880000Y-140995400D01*
X53848000Y-140233400D02*
X55118000Y-140995400D01*
X50800000Y-138455400D02*
X53848000Y-140233400D01*
X55880000Y-140995400D02*
X137150000Y-140995400D01*
X22860000Y-123215400D02*
X50800000Y-138455400D01*
M02*
