G04 #@! TF.GenerationSoftware,KiCad,Pcbnew,(5.1.5)-3*
G04 #@! TF.CreationDate,2020-01-24T10:20:19+05:30*
G04 #@! TF.ProjectId,ergocape,6572676f-6361-4706-952e-6b696361645f,rev?*
G04 #@! TF.SameCoordinates,Original*
G04 #@! TF.FileFunction,Other,Comment*
%FSLAX46Y46*%
G04 Gerber Fmt 4.6, Leading zero omitted, Abs format (unit mm)*
G04 Created by KiCad (PCBNEW (5.1.5)-3) date 2020-01-24 10:20:19*
%MOMM*%
%LPD*%
G04 APERTURE LIST*
%ADD10C,0.152400*%
G04 APERTURE END LIST*
D10*
X66675000Y-79082900D02*
X66675000Y-66382900D01*
X53975000Y-79082900D02*
X66675000Y-79082900D01*
X53975000Y-66382900D02*
X53975000Y-79082900D01*
X66675000Y-66382900D02*
X53975000Y-66382900D01*
X40259000Y-63842900D02*
X40259000Y-46062900D01*
X70993000Y-63842900D02*
X40259000Y-63842900D01*
X70993000Y-46062900D02*
X70993000Y-63842900D01*
X64135000Y-46062900D02*
X70993000Y-46062900D01*
X64135000Y-61302900D02*
X64135000Y-46062900D01*
X47117000Y-61302900D02*
X64135000Y-61302900D01*
X47117000Y-46062900D02*
X47117000Y-61302900D01*
X40259000Y-46062900D02*
X47117000Y-46062900D01*
X61976000Y-60032900D02*
X61976000Y-47332900D01*
X49276000Y-60032900D02*
X61976000Y-60032900D01*
X49276000Y-47332900D02*
X49276000Y-60032900D01*
X61976000Y-47332900D02*
X49276000Y-47332900D01*
X33051800Y-120993000D02*
X33051800Y-103213000D01*
X63785800Y-120993000D02*
X33051800Y-120993000D01*
X63785800Y-103213000D02*
X63785800Y-120993000D01*
X56927800Y-103213000D02*
X63785800Y-103213000D01*
X56927800Y-118453000D02*
X56927800Y-103213000D01*
X39909800Y-118453000D02*
X56927800Y-118453000D01*
X39909800Y-103213000D02*
X39909800Y-118453000D01*
X33051800Y-103213000D02*
X39909800Y-103213000D01*
X54768800Y-117183000D02*
X54768800Y-104483000D01*
X42068800Y-117183000D02*
X54768800Y-117183000D01*
X42068800Y-104483000D02*
X42068800Y-117183000D01*
X54768800Y-104483000D02*
X42068800Y-104483000D01*
X77787500Y-60032900D02*
X77787500Y-47332900D01*
X90487500Y-60032900D02*
X77787500Y-60032900D01*
X90487500Y-47332900D02*
X90487500Y-60032900D01*
X77787500Y-47332900D02*
X90487500Y-47332900D01*
X175310320Y-162074428D02*
X180677572Y-150564320D01*
X186820428Y-167441680D02*
X175310320Y-162074428D01*
X192187680Y-155931572D02*
X186820428Y-167441680D01*
X180677572Y-150564320D02*
X192187680Y-155931572D01*
X96838000Y-56222900D02*
X96838000Y-43522900D01*
X109538000Y-56222900D02*
X96838000Y-56222900D01*
X109538000Y-43522900D02*
X109538000Y-56222900D01*
X96838000Y-43522900D02*
X109538000Y-43522900D01*
X115888000Y-52412900D02*
X115888000Y-39712900D01*
X128588000Y-52412900D02*
X115888000Y-52412900D01*
X128588000Y-39712900D02*
X128588000Y-52412900D01*
X115888000Y-39712900D02*
X128588000Y-39712900D01*
X134938000Y-56222900D02*
X134938000Y-43522900D01*
X147638000Y-56222900D02*
X134938000Y-56222900D01*
X147638000Y-43522900D02*
X147638000Y-56222900D01*
X134938000Y-43522900D02*
X147638000Y-43522900D01*
X153988000Y-60032900D02*
X153988000Y-47332900D01*
X166688000Y-60032900D02*
X153988000Y-60032900D01*
X166688000Y-47332900D02*
X166688000Y-60032900D01*
X153988000Y-47332900D02*
X166688000Y-47332900D01*
X77787500Y-98132900D02*
X77787500Y-85432900D01*
X90487500Y-98132900D02*
X77787500Y-98132900D01*
X90487500Y-85432900D02*
X90487500Y-98132900D01*
X77787500Y-85432900D02*
X90487500Y-85432900D01*
X77787500Y-136233000D02*
X77787500Y-123533000D01*
X90487500Y-136233000D02*
X77787500Y-136233000D01*
X90487500Y-123533000D02*
X90487500Y-136233000D01*
X77787500Y-123533000D02*
X90487500Y-123533000D01*
X153988000Y-117183000D02*
X153988000Y-104483000D01*
X166688000Y-117183000D02*
X153988000Y-117183000D01*
X166688000Y-104483000D02*
X166688000Y-117183000D01*
X153988000Y-104483000D02*
X166688000Y-104483000D01*
X115824000Y-128549000D02*
X115824000Y-115849000D01*
X128524000Y-128549000D02*
X115824000Y-128549000D01*
X128524000Y-115849000D02*
X128524000Y-128549000D01*
X115824000Y-115849000D02*
X128524000Y-115849000D01*
X134874000Y-132359000D02*
X134874000Y-119659000D01*
X147574000Y-132359000D02*
X134874000Y-132359000D01*
X147574000Y-119659000D02*
X147574000Y-132359000D01*
X134874000Y-119659000D02*
X147574000Y-119659000D01*
X115888000Y-109563000D02*
X115888000Y-96863000D01*
X128588000Y-109563000D02*
X115888000Y-109563000D01*
X128588000Y-96863000D02*
X128588000Y-109563000D01*
X115888000Y-96863000D02*
X128588000Y-96863000D01*
X51593800Y-98132900D02*
X51593800Y-85432900D01*
X64293800Y-98132900D02*
X51593800Y-98132900D01*
X64293800Y-85432900D02*
X64293800Y-98132900D01*
X51593800Y-85432900D02*
X64293800Y-85432900D01*
X58737500Y-136233000D02*
X58737500Y-123533000D01*
X71437500Y-136233000D02*
X58737500Y-136233000D01*
X71437500Y-123533000D02*
X71437500Y-136233000D01*
X58737500Y-123533000D02*
X71437500Y-123533000D01*
X115888000Y-90512900D02*
X115888000Y-77812900D01*
X128588000Y-90512900D02*
X115888000Y-90512900D01*
X128588000Y-77812900D02*
X128588000Y-90512900D01*
X115888000Y-77812900D02*
X128588000Y-77812900D01*
X115888000Y-71462900D02*
X115888000Y-58762900D01*
X128588000Y-71462900D02*
X115888000Y-71462900D01*
X128588000Y-58762900D02*
X128588000Y-71462900D01*
X115888000Y-58762900D02*
X128588000Y-58762900D01*
X37814200Y-101942900D02*
X37814200Y-84162900D01*
X68548200Y-101942900D02*
X37814200Y-101942900D01*
X68548200Y-84162900D02*
X68548200Y-101942900D01*
X61690200Y-84162900D02*
X68548200Y-84162900D01*
X61690200Y-99402900D02*
X61690200Y-84162900D01*
X44672200Y-99402900D02*
X61690200Y-99402900D01*
X44672200Y-84162900D02*
X44672200Y-99402900D01*
X37814200Y-84162900D02*
X44672200Y-84162900D01*
X59531200Y-98132900D02*
X59531200Y-85432900D01*
X46831200Y-98132900D02*
X59531200Y-98132900D01*
X46831200Y-85432900D02*
X46831200Y-98132900D01*
X59531200Y-85432900D02*
X46831200Y-85432900D01*
X58737500Y-60032900D02*
X58737500Y-47332900D01*
X71437500Y-60032900D02*
X58737500Y-60032900D01*
X71437500Y-47332900D02*
X71437500Y-60032900D01*
X58737500Y-47332900D02*
X71437500Y-47332900D01*
X134938000Y-94322900D02*
X134938000Y-81622900D01*
X147638000Y-94322900D02*
X134938000Y-94322900D01*
X147638000Y-81622900D02*
X147638000Y-94322900D01*
X134938000Y-81622900D02*
X147638000Y-81622900D01*
X153988000Y-98132900D02*
X153988000Y-85432900D01*
X166688000Y-98132900D02*
X153988000Y-98132900D01*
X166688000Y-85432900D02*
X166688000Y-98132900D01*
X153988000Y-85432900D02*
X166688000Y-85432900D01*
X77787500Y-79082900D02*
X77787500Y-66382900D01*
X90487500Y-79082900D02*
X77787500Y-79082900D01*
X90487500Y-66382900D02*
X90487500Y-79082900D01*
X77787500Y-66382900D02*
X90487500Y-66382900D01*
X134938000Y-75272900D02*
X134938000Y-62572900D01*
X147638000Y-75272900D02*
X134938000Y-75272900D01*
X147638000Y-62572900D02*
X147638000Y-75272900D01*
X134938000Y-62572900D02*
X147638000Y-62572900D01*
X96838000Y-94322900D02*
X96838000Y-81622900D01*
X109538000Y-94322900D02*
X96838000Y-94322900D01*
X109538000Y-81622900D02*
X109538000Y-94322900D01*
X96838000Y-81622900D02*
X109538000Y-81622900D01*
X68548200Y-120993000D02*
X68548200Y-103213000D01*
X37814200Y-120993000D02*
X68548200Y-120993000D01*
X37814200Y-103213000D02*
X37814200Y-120993000D01*
X44672200Y-103213000D02*
X37814200Y-103213000D01*
X44672200Y-118453000D02*
X44672200Y-103213000D01*
X61690200Y-118453000D02*
X44672200Y-118453000D01*
X61690200Y-103213000D02*
X61690200Y-118453000D01*
X68548200Y-103213000D02*
X61690200Y-103213000D01*
X46831200Y-117183000D02*
X46831200Y-104483000D01*
X59531200Y-117183000D02*
X46831200Y-117183000D01*
X59531200Y-104483000D02*
X59531200Y-117183000D01*
X46831200Y-104483000D02*
X59531200Y-104483000D01*
X153988000Y-79082900D02*
X153988000Y-66382900D01*
X166688000Y-79082900D02*
X153988000Y-79082900D01*
X166688000Y-66382900D02*
X166688000Y-79082900D01*
X153988000Y-66382900D02*
X166688000Y-66382900D01*
X183360320Y-144809428D02*
X188727572Y-133299320D01*
X194870428Y-150176680D02*
X183360320Y-144809428D01*
X200237680Y-138666572D02*
X194870428Y-150176680D01*
X188727572Y-133299320D02*
X200237680Y-138666572D01*
X134938000Y-113373000D02*
X134938000Y-100673000D01*
X147638000Y-113373000D02*
X134938000Y-113373000D01*
X147638000Y-100673000D02*
X147638000Y-113373000D01*
X134938000Y-100673000D02*
X147638000Y-100673000D01*
X96838000Y-75272900D02*
X96838000Y-62572900D01*
X109538000Y-75272900D02*
X96838000Y-75272900D01*
X109538000Y-62572900D02*
X109538000Y-75272900D01*
X96838000Y-62572900D02*
X109538000Y-62572900D01*
X96838000Y-132423000D02*
X96838000Y-119723000D01*
X109538000Y-132423000D02*
X96838000Y-132423000D01*
X109538000Y-119723000D02*
X109538000Y-132423000D01*
X96838000Y-119723000D02*
X109538000Y-119723000D01*
X96838000Y-113373000D02*
X96838000Y-100673000D01*
X109538000Y-113373000D02*
X96838000Y-113373000D01*
X109538000Y-100673000D02*
X109538000Y-113373000D01*
X96838000Y-100673000D02*
X109538000Y-100673000D01*
X77787500Y-117183000D02*
X77787500Y-104483000D01*
X90487500Y-117183000D02*
X77787500Y-117183000D01*
X90487500Y-104483000D02*
X90487500Y-117183000D01*
X77787500Y-104483000D02*
X90487500Y-104483000D01*
X166083320Y-136746428D02*
X171450572Y-125236320D01*
X177593428Y-142113680D02*
X166083320Y-136746428D01*
X182960680Y-130603572D02*
X177593428Y-142113680D01*
X171450572Y-125236320D02*
X182960680Y-130603572D01*
X174909680Y-147868572D02*
X169542428Y-159378680D01*
X163399572Y-142501320D02*
X174909680Y-147868572D01*
X158032320Y-154011428D02*
X163399572Y-142501320D01*
X169542428Y-159378680D02*
X158032320Y-154011428D01*
X154806538Y-151952430D02*
X170920691Y-159466583D01*
X167795288Y-124097967D02*
X154806538Y-151952430D01*
X183909440Y-131612119D02*
X167795288Y-124097967D01*
X181011124Y-137827578D02*
X183909440Y-131612119D01*
X167198993Y-131386876D02*
X181011124Y-137827578D01*
X160006876Y-146810422D02*
X167198993Y-131386876D01*
X173819007Y-153251124D02*
X160006876Y-146810422D01*
X170920691Y-159466583D02*
X173819007Y-153251124D01*
X167437572Y-133880320D02*
X178947680Y-139247572D01*
X162070320Y-145390428D02*
X167437572Y-133880320D01*
X173580428Y-150757680D02*
X162070320Y-145390428D01*
X178947680Y-139247572D02*
X173580428Y-150757680D01*
X39700200Y-60045600D02*
X39700200Y-47345600D01*
X52400200Y-60045600D02*
X39700200Y-60045600D01*
X52400200Y-47345600D02*
X52400200Y-60045600D01*
X39700200Y-47345600D02*
X52400200Y-47345600D01*
M02*
