G04 #@! TF.GenerationSoftware,KiCad,Pcbnew,(5.1.5)-3*
G04 #@! TF.CreationDate,2020-01-24T10:20:19+05:30*
G04 #@! TF.ProjectId,ergocape,6572676f-6361-4706-952e-6b696361645f,rev?*
G04 #@! TF.SameCoordinates,Original*
G04 #@! TF.FileFunction,OtherDrawing,Comment*
%FSLAX46Y46*%
G04 Gerber Fmt 4.6, Leading zero omitted, Abs format (unit mm)*
G04 Created by KiCad (PCBNEW (5.1.5)-3) date 2020-01-24 10:20:19*
%MOMM*%
%LPD*%
G04 APERTURE LIST*
%ADD10C,0.152400*%
%ADD11C,0.304800*%
%ADD12C,0.150000*%
G04 APERTURE END LIST*
D10*
X74485500Y-82130900D02*
X74485500Y-63334900D01*
X46164500Y-82130900D02*
X74485500Y-82130900D01*
X46164500Y-63334900D02*
X46164500Y-82130900D01*
X74485500Y-63334900D02*
X46164500Y-63334900D01*
X74549000Y-63080900D02*
X74549000Y-44284900D01*
X36703000Y-63080900D02*
X74549000Y-63080900D01*
X36703000Y-44284900D02*
X36703000Y-63080900D01*
X74549000Y-44284900D02*
X36703000Y-44284900D01*
X74486820Y-120231000D02*
X74486820Y-101435000D01*
X22350780Y-120231000D02*
X74486820Y-120231000D01*
X22350780Y-101435000D02*
X22350780Y-120231000D01*
X74486820Y-101435000D02*
X22350780Y-101435000D01*
X74739500Y-63080900D02*
X74739500Y-44284900D01*
X93535500Y-63080900D02*
X74739500Y-63080900D01*
X93535500Y-44284900D02*
X93535500Y-63080900D01*
X74739500Y-44284900D02*
X93535500Y-44284900D01*
X171259753Y-163548714D02*
X179203286Y-146513753D01*
X188294714Y-171492247D02*
X171259753Y-163548714D01*
X196238247Y-154457286D02*
X188294714Y-171492247D01*
X179203286Y-146513753D02*
X196238247Y-154457286D01*
X93790000Y-59270900D02*
X93790000Y-40474900D01*
X112586000Y-59270900D02*
X93790000Y-59270900D01*
X112586000Y-40474900D02*
X112586000Y-59270900D01*
X93790000Y-40474900D02*
X112586000Y-40474900D01*
X112840000Y-55460900D02*
X112840000Y-36664900D01*
X131636000Y-55460900D02*
X112840000Y-55460900D01*
X131636000Y-36664900D02*
X131636000Y-55460900D01*
X112840000Y-36664900D02*
X131636000Y-36664900D01*
X131890000Y-59270900D02*
X131890000Y-40474900D01*
X150686000Y-59270900D02*
X131890000Y-59270900D01*
X150686000Y-40474900D02*
X150686000Y-59270900D01*
X131890000Y-40474900D02*
X150686000Y-40474900D01*
X150940000Y-63080900D02*
X150940000Y-44284900D01*
X169736000Y-63080900D02*
X150940000Y-63080900D01*
X169736000Y-44284900D02*
X169736000Y-63080900D01*
X150940000Y-44284900D02*
X169736000Y-44284900D01*
X74739500Y-101180900D02*
X74739500Y-82384900D01*
X93535500Y-101180900D02*
X74739500Y-101180900D01*
X93535500Y-82384900D02*
X93535500Y-101180900D01*
X74739500Y-82384900D02*
X93535500Y-82384900D01*
X74739500Y-139281000D02*
X74739500Y-120485000D01*
X93535500Y-139281000D02*
X74739500Y-139281000D01*
X93535500Y-120485000D02*
X93535500Y-139281000D01*
X74739500Y-120485000D02*
X93535500Y-120485000D01*
X150940000Y-120231000D02*
X150940000Y-101435000D01*
X169736000Y-120231000D02*
X150940000Y-120231000D01*
X169736000Y-101435000D02*
X169736000Y-120231000D01*
X150940000Y-101435000D02*
X169736000Y-101435000D01*
X112776000Y-131597000D02*
X112776000Y-112801000D01*
X131572000Y-131597000D02*
X112776000Y-131597000D01*
X131572000Y-112801000D02*
X131572000Y-131597000D01*
X112776000Y-112801000D02*
X131572000Y-112801000D01*
X131826000Y-135407000D02*
X131826000Y-116611000D01*
X150622000Y-135407000D02*
X131826000Y-135407000D01*
X150622000Y-116611000D02*
X150622000Y-135407000D01*
X131826000Y-116611000D02*
X150622000Y-116611000D01*
X112840000Y-112611000D02*
X112840000Y-93815000D01*
X131636000Y-112611000D02*
X112840000Y-112611000D01*
X131636000Y-93815000D02*
X131636000Y-112611000D01*
X112840000Y-93815000D02*
X131636000Y-93815000D01*
X41400780Y-101180900D02*
X41400780Y-82384900D01*
X74486820Y-101180900D02*
X41400780Y-101180900D01*
X74486820Y-82384900D02*
X74486820Y-101180900D01*
X41400780Y-82384900D02*
X74486820Y-82384900D01*
X55689500Y-139281000D02*
X55689500Y-120485000D01*
X74485500Y-139281000D02*
X55689500Y-139281000D01*
X74485500Y-120485000D02*
X74485500Y-139281000D01*
X55689500Y-120485000D02*
X74485500Y-120485000D01*
X112840000Y-93560900D02*
X112840000Y-74764900D01*
X131636000Y-93560900D02*
X112840000Y-93560900D01*
X131636000Y-74764900D02*
X131636000Y-93560900D01*
X112840000Y-74764900D02*
X131636000Y-74764900D01*
X112840000Y-74510900D02*
X112840000Y-55714900D01*
X131636000Y-74510900D02*
X112840000Y-74510900D01*
X131636000Y-55714900D02*
X131636000Y-74510900D01*
X112840000Y-55714900D02*
X131636000Y-55714900D01*
X74486720Y-101180900D02*
X74486720Y-82384900D01*
X31875680Y-101180900D02*
X74486720Y-101180900D01*
X31875680Y-82384900D02*
X31875680Y-101180900D01*
X74486720Y-82384900D02*
X31875680Y-82384900D01*
X55689500Y-63080900D02*
X55689500Y-44284900D01*
X74485500Y-63080900D02*
X55689500Y-63080900D01*
X74485500Y-44284900D02*
X74485500Y-63080900D01*
X55689500Y-44284900D02*
X74485500Y-44284900D01*
X131890000Y-97370900D02*
X131890000Y-78574900D01*
X150686000Y-97370900D02*
X131890000Y-97370900D01*
X150686000Y-78574900D02*
X150686000Y-97370900D01*
X131890000Y-78574900D02*
X150686000Y-78574900D01*
X150940000Y-101180900D02*
X150940000Y-82384900D01*
X169736000Y-101180900D02*
X150940000Y-101180900D01*
X169736000Y-82384900D02*
X169736000Y-101180900D01*
X150940000Y-82384900D02*
X169736000Y-82384900D01*
X74739500Y-82130900D02*
X74739500Y-63334900D01*
X93535500Y-82130900D02*
X74739500Y-82130900D01*
X93535500Y-63334900D02*
X93535500Y-82130900D01*
X74739500Y-63334900D02*
X93535500Y-63334900D01*
X131890000Y-78320900D02*
X131890000Y-59524900D01*
X150686000Y-78320900D02*
X131890000Y-78320900D01*
X150686000Y-59524900D02*
X150686000Y-78320900D01*
X131890000Y-59524900D02*
X150686000Y-59524900D01*
X93790000Y-97370900D02*
X93790000Y-78574900D01*
X112586000Y-97370900D02*
X93790000Y-97370900D01*
X112586000Y-78574900D02*
X112586000Y-97370900D01*
X93790000Y-78574900D02*
X112586000Y-78574900D01*
X31875680Y-120231000D02*
X31875680Y-101435000D01*
X74486720Y-120231000D02*
X31875680Y-120231000D01*
X74486720Y-101435000D02*
X74486720Y-120231000D01*
X31875680Y-101435000D02*
X74486720Y-101435000D01*
X150940000Y-82130900D02*
X150940000Y-63334900D01*
X169736000Y-82130900D02*
X150940000Y-82130900D01*
X169736000Y-63334900D02*
X169736000Y-82130900D01*
X150940000Y-63334900D02*
X169736000Y-63334900D01*
X179309753Y-146283714D02*
X187253286Y-129248753D01*
X196344714Y-154227247D02*
X179309753Y-146283714D01*
X204288247Y-137192286D02*
X196344714Y-154227247D01*
X187253286Y-129248753D02*
X204288247Y-137192286D01*
X131890000Y-116421000D02*
X131890000Y-97625000D01*
X150686000Y-116421000D02*
X131890000Y-116421000D01*
X150686000Y-97625000D02*
X150686000Y-116421000D01*
X131890000Y-97625000D02*
X150686000Y-97625000D01*
X93790000Y-78320900D02*
X93790000Y-59524900D01*
X112586000Y-78320900D02*
X93790000Y-78320900D01*
X112586000Y-59524900D02*
X112586000Y-78320900D01*
X93790000Y-59524900D02*
X112586000Y-59524900D01*
X93790000Y-135471000D02*
X93790000Y-116675000D01*
X112586000Y-135471000D02*
X93790000Y-135471000D01*
X112586000Y-116675000D02*
X112586000Y-135471000D01*
X93790000Y-116675000D02*
X112586000Y-116675000D01*
X93790000Y-116421000D02*
X93790000Y-97625000D01*
X112586000Y-116421000D02*
X93790000Y-116421000D01*
X112586000Y-97625000D02*
X112586000Y-116421000D01*
X93790000Y-97625000D02*
X112586000Y-97625000D01*
X74739500Y-120231000D02*
X74739500Y-101435000D01*
X93535500Y-120231000D02*
X74739500Y-120231000D01*
X93535500Y-101435000D02*
X93535500Y-120231000D01*
X74739500Y-101435000D02*
X93535500Y-101435000D01*
X162032753Y-138220714D02*
X169976286Y-121185753D01*
X179067714Y-146164247D02*
X162032753Y-138220714D01*
X187011247Y-129129286D02*
X179067714Y-146164247D01*
X169976286Y-121185753D02*
X187011247Y-129129286D01*
X178960247Y-146394286D02*
X171016714Y-163429247D01*
X161925286Y-138450753D02*
X178960247Y-146394286D01*
X153981753Y-155485714D02*
X161925286Y-138450753D01*
X171016714Y-163429247D02*
X153981753Y-155485714D01*
X169988725Y-121197171D02*
X187023686Y-129140704D01*
X153994314Y-155497296D02*
X169988725Y-121197171D01*
X171029275Y-163440829D02*
X153994314Y-155497296D01*
X187023686Y-129140704D02*
X171029275Y-163440829D01*
X36652200Y-63093600D02*
X36652200Y-44297600D01*
X55448200Y-63093600D02*
X36652200Y-63093600D01*
X55448200Y-44297600D02*
X55448200Y-63093600D01*
X36652200Y-44297600D02*
X55448200Y-44297600D01*
D11*
X67926857Y-61248471D02*
X67999428Y-61175900D01*
X68144571Y-61103328D01*
X68507428Y-61103328D01*
X68652571Y-61175900D01*
X68725142Y-61248471D01*
X68797714Y-61393614D01*
X68797714Y-61538757D01*
X68725142Y-61756471D01*
X67854285Y-62627328D01*
X68797714Y-62627328D01*
X69450857Y-62482185D02*
X69523428Y-62554757D01*
X69450857Y-62627328D01*
X69378285Y-62554757D01*
X69450857Y-62482185D01*
X69450857Y-62627328D01*
X70466857Y-61103328D02*
X70612000Y-61103328D01*
X70757142Y-61175900D01*
X70829714Y-61248471D01*
X70902285Y-61393614D01*
X70974857Y-61683900D01*
X70974857Y-62046757D01*
X70902285Y-62337042D01*
X70829714Y-62482185D01*
X70757142Y-62554757D01*
X70612000Y-62627328D01*
X70466857Y-62627328D01*
X70321714Y-62554757D01*
X70249142Y-62482185D01*
X70176571Y-62337042D01*
X70104000Y-62046757D01*
X70104000Y-61683900D01*
X70176571Y-61393614D01*
X70249142Y-61248471D01*
X70321714Y-61175900D01*
X70466857Y-61103328D01*
X71918285Y-61103328D02*
X72063428Y-61103328D01*
X72208571Y-61175900D01*
X72281142Y-61248471D01*
X72353714Y-61393614D01*
X72426285Y-61683900D01*
X72426285Y-62046757D01*
X72353714Y-62337042D01*
X72281142Y-62482185D01*
X72208571Y-62554757D01*
X72063428Y-62627328D01*
X71918285Y-62627328D01*
X71773142Y-62554757D01*
X71700571Y-62482185D01*
X71628000Y-62337042D01*
X71555428Y-62046757D01*
X71555428Y-61683900D01*
X71628000Y-61393614D01*
X71700571Y-61248471D01*
X71773142Y-61175900D01*
X71918285Y-61103328D01*
X73732571Y-61611328D02*
X73732571Y-62627328D01*
X73079428Y-61611328D02*
X73079428Y-62409614D01*
X73152000Y-62554757D01*
X73297142Y-62627328D01*
X73514857Y-62627328D01*
X73660000Y-62554757D01*
X73732571Y-62482185D01*
X67864677Y-118398571D02*
X67937248Y-118326000D01*
X68082391Y-118253428D01*
X68445248Y-118253428D01*
X68590391Y-118326000D01*
X68662962Y-118398571D01*
X68735534Y-118543714D01*
X68735534Y-118688857D01*
X68662962Y-118906571D01*
X67792105Y-119777428D01*
X68735534Y-119777428D01*
X69388677Y-119632285D02*
X69461248Y-119704857D01*
X69388677Y-119777428D01*
X69316105Y-119704857D01*
X69388677Y-119632285D01*
X69388677Y-119777428D01*
X69969248Y-118253428D02*
X70985248Y-118253428D01*
X70332105Y-119777428D01*
X72291534Y-118253428D02*
X71565820Y-118253428D01*
X71493248Y-118979142D01*
X71565820Y-118906571D01*
X71710962Y-118834000D01*
X72073820Y-118834000D01*
X72218962Y-118906571D01*
X72291534Y-118979142D01*
X72364105Y-119124285D01*
X72364105Y-119487142D01*
X72291534Y-119632285D01*
X72218962Y-119704857D01*
X72073820Y-119777428D01*
X71710962Y-119777428D01*
X71565820Y-119704857D01*
X71493248Y-119632285D01*
X73670391Y-118761428D02*
X73670391Y-119777428D01*
X73017248Y-118761428D02*
X73017248Y-119559714D01*
X73089820Y-119704857D01*
X73234962Y-119777428D01*
X73452677Y-119777428D01*
X73597820Y-119704857D01*
X73670391Y-119632285D01*
X43015494Y-100727328D02*
X42144637Y-100727328D01*
X42580065Y-100727328D02*
X42580065Y-99203328D01*
X42434922Y-99421042D01*
X42289780Y-99566185D01*
X42144637Y-99638757D01*
X43668637Y-100582185D02*
X43741208Y-100654757D01*
X43668637Y-100727328D01*
X43596065Y-100654757D01*
X43668637Y-100582185D01*
X43668637Y-100727328D01*
X44249208Y-99203328D02*
X45265208Y-99203328D01*
X44612065Y-100727328D01*
X46571494Y-99203328D02*
X45845780Y-99203328D01*
X45773208Y-99929042D01*
X45845780Y-99856471D01*
X45990922Y-99783900D01*
X46353780Y-99783900D01*
X46498922Y-99856471D01*
X46571494Y-99929042D01*
X46644065Y-100074185D01*
X46644065Y-100437042D01*
X46571494Y-100582185D01*
X46498922Y-100654757D01*
X46353780Y-100727328D01*
X45990922Y-100727328D01*
X45845780Y-100654757D01*
X45773208Y-100582185D01*
X47950351Y-99711328D02*
X47950351Y-100727328D01*
X47297208Y-99711328D02*
X47297208Y-100509614D01*
X47369780Y-100654757D01*
X47514922Y-100727328D01*
X47732637Y-100727328D01*
X47877780Y-100654757D01*
X47950351Y-100582185D01*
X67864577Y-99348471D02*
X67937148Y-99275900D01*
X68082291Y-99203328D01*
X68445148Y-99203328D01*
X68590291Y-99275900D01*
X68662862Y-99348471D01*
X68735434Y-99493614D01*
X68735434Y-99638757D01*
X68662862Y-99856471D01*
X67792005Y-100727328D01*
X68735434Y-100727328D01*
X69388577Y-100582185D02*
X69461148Y-100654757D01*
X69388577Y-100727328D01*
X69316005Y-100654757D01*
X69388577Y-100582185D01*
X69388577Y-100727328D01*
X70041720Y-99348471D02*
X70114291Y-99275900D01*
X70259434Y-99203328D01*
X70622291Y-99203328D01*
X70767434Y-99275900D01*
X70840005Y-99348471D01*
X70912577Y-99493614D01*
X70912577Y-99638757D01*
X70840005Y-99856471D01*
X69969148Y-100727328D01*
X70912577Y-100727328D01*
X72291434Y-99203328D02*
X71565720Y-99203328D01*
X71493148Y-99929042D01*
X71565720Y-99856471D01*
X71710862Y-99783900D01*
X72073720Y-99783900D01*
X72218862Y-99856471D01*
X72291434Y-99929042D01*
X72364005Y-100074185D01*
X72364005Y-100437042D01*
X72291434Y-100582185D01*
X72218862Y-100654757D01*
X72073720Y-100727328D01*
X71710862Y-100727328D01*
X71565720Y-100654757D01*
X71493148Y-100582185D01*
X73670291Y-99711328D02*
X73670291Y-100727328D01*
X73017148Y-99711328D02*
X73017148Y-100509614D01*
X73089720Y-100654757D01*
X73234862Y-100727328D01*
X73452577Y-100727328D01*
X73597720Y-100654757D01*
X73670291Y-100582185D01*
X32619537Y-118398571D02*
X32692108Y-118326000D01*
X32837251Y-118253428D01*
X33200108Y-118253428D01*
X33345251Y-118326000D01*
X33417822Y-118398571D01*
X33490394Y-118543714D01*
X33490394Y-118688857D01*
X33417822Y-118906571D01*
X32546965Y-119777428D01*
X33490394Y-119777428D01*
X34143537Y-119632285D02*
X34216108Y-119704857D01*
X34143537Y-119777428D01*
X34070965Y-119704857D01*
X34143537Y-119632285D01*
X34143537Y-119777428D01*
X34796680Y-118398571D02*
X34869251Y-118326000D01*
X35014394Y-118253428D01*
X35377251Y-118253428D01*
X35522394Y-118326000D01*
X35594965Y-118398571D01*
X35667537Y-118543714D01*
X35667537Y-118688857D01*
X35594965Y-118906571D01*
X34724108Y-119777428D01*
X35667537Y-119777428D01*
X37046394Y-118253428D02*
X36320680Y-118253428D01*
X36248108Y-118979142D01*
X36320680Y-118906571D01*
X36465822Y-118834000D01*
X36828680Y-118834000D01*
X36973822Y-118906571D01*
X37046394Y-118979142D01*
X37118965Y-119124285D01*
X37118965Y-119487142D01*
X37046394Y-119632285D01*
X36973822Y-119704857D01*
X36828680Y-119777428D01*
X36465822Y-119777428D01*
X36320680Y-119704857D01*
X36248108Y-119632285D01*
X38425251Y-118761428D02*
X38425251Y-119777428D01*
X37772108Y-118761428D02*
X37772108Y-119559714D01*
X37844680Y-119704857D01*
X37989822Y-119777428D01*
X38207537Y-119777428D01*
X38352680Y-119704857D01*
X38425251Y-119632285D01*
X167601162Y-127390558D02*
X167566060Y-127294116D01*
X167561628Y-127131902D01*
X167714978Y-126803042D01*
X167842090Y-126702168D01*
X167938532Y-126667066D01*
X168100746Y-126662634D01*
X168232290Y-126723974D01*
X168398936Y-126881756D01*
X168820161Y-128039061D01*
X169218871Y-127184024D01*
X169363357Y-126530736D02*
X169459799Y-126495634D01*
X169494901Y-126592076D01*
X169398459Y-126627178D01*
X169363357Y-126530736D01*
X169494901Y-126592076D01*
X168543068Y-125027197D02*
X168604408Y-124895653D01*
X168731520Y-124794778D01*
X168827962Y-124759676D01*
X168990176Y-124755244D01*
X169283934Y-124812152D01*
X169612795Y-124965502D01*
X169845213Y-125153955D01*
X169946087Y-125281067D01*
X169981189Y-125377509D01*
X169985621Y-125539723D01*
X169924281Y-125671267D01*
X169797169Y-125772141D01*
X169700727Y-125807243D01*
X169538513Y-125811675D01*
X169244754Y-125754767D01*
X168915894Y-125601417D01*
X168683476Y-125412965D01*
X168582602Y-125285853D01*
X168547500Y-125189411D01*
X168543068Y-125027197D01*
X169156468Y-123711756D02*
X169217808Y-123580212D01*
X169344920Y-123479337D01*
X169441362Y-123444235D01*
X169603576Y-123439803D01*
X169897335Y-123496711D01*
X170226195Y-123650061D01*
X170458613Y-123838514D01*
X170559487Y-123965626D01*
X170594589Y-124062068D01*
X170599021Y-124224282D01*
X170537681Y-124355826D01*
X170410569Y-124456700D01*
X170314127Y-124491802D01*
X170151913Y-124496234D01*
X169858155Y-124439326D01*
X169529294Y-124285976D01*
X169296876Y-124097524D01*
X169196002Y-123970412D01*
X169160900Y-123873970D01*
X169156468Y-123711756D01*
X170383623Y-122282144D02*
X171304431Y-122711525D01*
X170107593Y-122874093D02*
X170831085Y-123211463D01*
X170993299Y-123207031D01*
X171120411Y-123106157D01*
X171212421Y-122908841D01*
X171207989Y-122746627D01*
X171172887Y-122650185D01*
D12*
X156768666Y-46959280D02*
X156768666Y-47673566D01*
X156721047Y-47816423D01*
X156625809Y-47911661D01*
X156482952Y-47959280D01*
X156387714Y-47959280D01*
X157768666Y-47959280D02*
X157197238Y-47959280D01*
X157482952Y-47959280D02*
X157482952Y-46959280D01*
X157387714Y-47102138D01*
X157292476Y-47197376D01*
X157197238Y-47244995D01*
X156768666Y-46959280D02*
X156768666Y-47673566D01*
X156721047Y-47816423D01*
X156625809Y-47911661D01*
X156482952Y-47959280D01*
X156387714Y-47959280D01*
X157197238Y-47054519D02*
X157244857Y-47006900D01*
X157340095Y-46959280D01*
X157578190Y-46959280D01*
X157673428Y-47006900D01*
X157721047Y-47054519D01*
X157768666Y-47149757D01*
X157768666Y-47244995D01*
X157721047Y-47387852D01*
X157149619Y-47959280D01*
X157768666Y-47959280D01*
M02*
