M48
; DRILL file {KiCad (5.1.5)-3} date 1/24/2020 10:20:23 AM
; FORMAT={-:-/ absolute / inch / decimal}
; #@! TF.CreationDate,2020-01-24T10:20:23+05:30
; #@! TF.GenerationSoftware,Kicad,Pcbnew,(5.1.5)-3
; #@! TF.FileFunction,NonPlated,1,2,NPTH
FMAT,2
INCH
T1C0.0315
T2C0.0709
T3C0.1200
T4C0.1570
%
G90
G05
T1
X6.1851Y-1.3743
X6.1851Y-1.6499
X6.1851Y-1.3743
X6.1851Y-1.6499
T2
X3.1125Y-4.3635
X3.5125Y-4.3635
X1.8937Y-3.6135
X2.2937Y-3.6135
X6.6284Y-5.7844
X6.7975Y-5.4218
X2.3625Y-5.1135
X2.7625Y-5.1135
X4.6125Y-4.0635
X5.0125Y-4.0635
X3.8625Y-4.9635
X4.2625Y-4.9635
X5.3625Y-3.4635
X5.7625Y-3.4635
X3.8625Y-4.2135
X4.2625Y-4.2135
X6.3727Y-5.858
X6.7352Y-6.027
X7.053Y-6.1754
X7.4155Y-6.3445
X6.1125Y-2.1135
X6.5125Y-2.1135
X3.1125Y-3.6135
X3.5125Y-3.6135
X3.8625Y-3.4635
X4.2625Y-3.4635
X3.8625Y-2.7135
X4.2625Y-2.7135
X1.8937Y-4.3635
X2.2937Y-4.3635
X1.99Y-2.1135
X2.39Y-2.1135
X6.1125Y-4.3635
X6.5125Y-4.3635
X6.1125Y-2.8635
X6.5125Y-2.8635
X6.1125Y-3.6135
X6.5125Y-3.6135
X2.3625Y-2.1135
X2.7625Y-2.1135
X2.175Y-2.8635
X2.575Y-2.8635
X1.7063Y-4.3635
X2.1063Y-4.3635
X3.1125Y-5.1135
X3.5125Y-5.1135
X6.6897Y-5.1783
X7.0522Y-5.3473
X5.3625Y-4.2135
X5.7625Y-4.2135
X4.6125Y-2.5635
X5.0125Y-2.5635
X4.61Y-4.811
X5.01Y-4.811
X4.6125Y-1.8135
X5.0125Y-1.8135
X7.3699Y-5.4957
X7.7324Y-5.6648
X3.1125Y-2.1135
X3.5125Y-2.1135
X2.0813Y-3.6135
X2.4813Y-3.6135
X5.36Y-4.961
X5.76Y-4.961
X3.8625Y-1.9635
X4.2625Y-1.9635
X5.3625Y-2.7135
X5.7625Y-2.7135
X3.1125Y-2.8635
X3.5125Y-2.8635
X1.613Y-2.114
X2.013Y-2.114
X4.6125Y-3.3135
X5.0125Y-3.3135
X5.3625Y-1.9635
X5.7625Y-1.9635
T3
X1.6237Y-3.3385
X2.5637Y-3.3385
X6.7636Y-6.1453
X7.1608Y-5.2934
X1.6237Y-4.0885
X2.5637Y-4.0885
X1.72Y-1.8385
X2.66Y-1.8385
X1.4363Y-4.0885
X2.3763Y-4.0885
T4
X6.3125Y-4.3635
X6.3125Y-2.8635
X6.3125Y-3.6135
X2.5625Y-2.1135
X2.375Y-2.8635
X1.4363Y-4.6885
X1.9063Y-4.3635
X2.3763Y-4.6885
X3.3125Y-5.1135
X6.8709Y-5.2628
X5.5625Y-4.2135
X4.8125Y-2.5635
X4.81Y-4.811
X4.8125Y-1.8135
X7.5511Y-5.5802
X3.3125Y-2.1135
X2.2813Y-3.6135
X5.56Y-4.961
X4.0625Y-1.9635
X5.5625Y-2.7135
X3.3125Y-2.8635
X1.813Y-2.114
X4.8125Y-3.3135
X5.5625Y-1.9635
X3.3125Y-4.3635
X1.6237Y-3.9385
X2.0937Y-3.6135
X2.5637Y-3.9385
X6.2198Y-5.8917
X6.617Y-5.0398
X6.713Y-5.6031
X2.5625Y-5.1135
X4.8125Y-4.0635
X4.0625Y-4.9635
X5.5625Y-3.4635
X4.0625Y-4.2135
X6.554Y-5.9425
X7.2342Y-6.26
X6.3125Y-2.1135
X3.3125Y-3.6135
X4.0625Y-3.4635
X4.0625Y-2.7135
X1.6237Y-4.6885
X2.0937Y-4.3635
X2.5637Y-4.6885
X1.72Y-2.4385
X2.19Y-2.1135
X2.66Y-2.4385
T0
M30
