<svg version="1.1" xmlns="http://www.w3.org/2000/svg" xmlns:xlink="http://www.w3.org/1999/xlink" stroke-linecap="round" stroke-linejoin="round" stroke-width="0" fill-rule="evenodd" width="139.251859mm" height="88.22427mm" viewBox="26829.761 -103378 139251.859 88224.27" id="wROFlZNgaE55HmX0Ivc-"><g transform="translate(0,-118531.73) scale(1,-1)" fill="currentColor" stroke="currentColor"><path d="M 48627.481 -26744.289 48627.481 -26221.785 M 47207.481 -26744.289 47207.481 -26221.785 M 39633.481 -26147.785 39633.481 -26670.289 M 38213.481 -26147.785 38213.481 -26670.289 M 35619.246 -24947.608 35096.742 -24947.608 M 35619.246 -26367.608 35096.742 -26367.608 M 36171.471 -42562.769 35648.967 -42562.769 M 36171.471 -41142.769 35648.967 -41142.769 M 39981.471 -46222.769 39458.967 -46222.769 M 39981.471 -47642.769 39458.967 -47642.769 M 52980.219 -33732.021 52980.219 -33209.517 M 54400.219 -33732.021 54400.219 -33209.517 M 48566 -46347.748 48566 -46870.252 M 49986 -46347.748 49986 -46870.252 M 32914.219 -37542.021 32914.219 -37019.517 M 34334.219 -37542.021 34334.219 -37019.517" fill="none" stroke-width="120"/><path d="M 59531.25 -73215.5 59531.25 -71437.5 M 59531.25 -84137.5 59531.25 -82359.5 M 57753.25 -84137.5 59531.25 -84137.5 M 46831.25 -84137.5 48609.25 -84137.5 M 46831.25 -82359.5 46831.25 -84137.5 M 46831.25 -71437.5 46831.25 -73215.5 M 48609.25 -71437.5 46831.25 -71437.5 M 59531.25 -71437.5 57753.25 -71437.5 M 54768.75 -90487.5 52990.75 -90487.5 M 43846.75 -90487.5 42068.75 -90487.5 42068.75 -92265.5 M 42068.75 -101409.5 42068.75 -103187.5 43846.75 -103187.5 M 52990.75 -103187.5 54768.75 -103187.5 54768.75 -101409.5 M 54768.75 -92265.5 54768.75 -90487.5" fill="none" stroke-width="381"/><path d="M 35096.742 -26852.608 35619.246 -26852.608 M 35096.742 -28272.608 35619.246 -28272.608 M 52907 -43695.252 52907 -43172.748 M 51487 -43695.252 51487 -43172.748 M 31880 -42518.748 31880 -43041.252 M 30460 -42518.748 30460 -43041.252 M 28440 -40378.748 28440 -40901.252 M 29860 -40378.748 29860 -40901.252 M 81210.868 -25940.98 81733.372 -25940.98 M 81210.868 -27360.98 81733.372 -27360.98 M 96473.372 -26130.98 95950.868 -26130.98 M 96473.372 -27550.98 95950.868 -27550.98 M 28053 -32561 27603 -32111 M 28053 -29161 27603 -29611 M 32653 -29161 33103 -29611 M 32653 -32561 33103 -32111 M 31353 -28111 29353 -28111 M 27603 -32111 27603 -29611 M 31353 -33611 29353 -33611 M 33103 -32111 33103 -29611" fill="none" stroke-width="120"/><path d="M 49816.469 -43217.769 49816.469 -42542.769 M 49816.469 -32867.769 49816.469 -33542.769 M 39466.469 -32867.769 39466.469 -33542.769 M 39466.469 -32867.769 40141.469 -32867.769 M 49816.469 -32867.769 49141.469 -32867.769 M 49816.469 -43217.769 49141.469 -43217.769" fill="none" stroke-width="150"/><path d="M 38241.469 -43042.769 39641.469 -43042.769 39641.469 -44442.769 38241.469 -43042.769"/><path d="M 38241.469 -43042.769 39641.469 -43042.769 39641.469 -44442.769 38241.469 -43042.769" fill="none" stroke-width="100"/><path d="M 41288.683 -41842.769 A 447.214 447.214 0 0 1 40394.255 -41842.769 447.214 447.214 0 0 1 41288.683 -41842.769" fill="none" stroke-width="120"/><path d="M 39841.469 -42342.769 40441.469 -42942.769" fill="none" stroke-width="100"/><path d="M 90073.12 -27929 90073.12 -29729 M 86853.12 -29729 86853.12 -27279" fill="none" stroke-width="120"/><path d="M 39463.731 -24345.537 40463.731 -24345.537 40463.731 -23345.537 39463.731 -24345.537"/><path d="M 39463.731 -24345.537 40463.731 -24345.537 40463.731 -23345.537 39463.731 -24345.537" fill="none" stroke-width="100"/><path d="M 159906.62 -17228.73 166006.62 -17228.73 M 159906.62 -29328.73 166006.62 -29328.73 M 159906.62 -17228.73 159906.62 -29328.73 M 166006.62 -17228.73 166006.62 -29328.73 M 160156.62 -17228.73 160156.62 -15228.73 M 165756.62 -17228.73 165756.62 -15228.73 M 160156.62 -15228.73 165756.62 -15228.73 M 49924.623 -26316.37 49972.242 -26268.751 50019.861 -26125.894 50019.861 -26030.656 49972.242 -25887.798 49877.004 -25792.56 49781.766 -25744.941 49591.29 -25697.322 49448.433 -25697.322 49257.957 -25744.941 49162.719 -25792.56 49067.481 -25887.798 49019.861 -26030.656 49019.861 -26125.894 49067.481 -26268.751 49115.1 -26316.37 M 50019.861 -27268.751 50019.861 -26697.322 M 50019.861 -26983.037 49019.861 -26983.037 49162.719 -26887.798 49257.957 -26792.56 49305.576 -26697.322 M 37630.623 -26242.37 37678.242 -26194.751 37725.861 -26051.894 37725.861 -25956.656 37678.242 -25813.798 37583.004 -25718.56 37487.766 -25670.941 37297.29 -25623.322 37154.433 -25623.322 36963.957 -25670.941 36868.719 -25718.56 36773.481 -25813.798 36725.861 -25956.656 36725.861 -26051.894 36773.481 -26194.751 36821.1 -26242.37 M 36821.1 -26623.322 36773.481 -26670.941 36725.861 -26766.179 36725.861 -27004.275 36773.481 -27099.513 36821.1 -27147.132 36916.338 -27194.751 37011.576 -27194.751 37154.433 -27147.132 37725.861 -26575.703 37725.861 -27194.751 M 35524.66 -24364.75 35572.279 -24412.369 35715.136 -24459.988 35810.374 -24459.988 35953.232 -24412.369 36048.47 -24317.131 36096.089 -24221.893 36143.708 -24031.417 36143.708 -23888.56 36096.089 -23698.084 36048.47 -23602.846 35953.232 -23507.608 35810.374 -23459.988 35715.136 -23459.988 35572.279 -23507.608 35524.66 -23555.227 M 35191.327 -23459.988 34572.279 -23459.988 34905.613 -23840.941 34762.755 -23840.941 34667.517 -23888.56 34619.898 -23936.179 34572.279 -24031.417 34572.279 -24269.512 34619.898 -24364.75 34667.517 -24412.369 34762.755 -24459.988 35048.47 -24459.988 35143.708 -24412.369 35191.327 -24364.75 M 36076.885 -40559.911 36124.504 -40607.53 36267.361 -40655.149 36362.599 -40655.149 36505.457 -40607.53 36600.695 -40512.292 36648.314 -40417.054 36695.933 -40226.578 36695.933 -40083.721 36648.314 -39893.245 36600.695 -39798.007 36505.457 -39702.769 36362.599 -39655.149 36267.361 -39655.149 36124.504 -39702.769 36076.885 -39750.388 M 35219.742 -39988.483 35219.742 -40655.149 M 35457.838 -39607.53 35695.933 -40321.816 35076.885 -40321.816 M 39886.885 -45639.911 39934.504 -45687.53 40077.361 -45735.149 40172.599 -45735.149 40315.457 -45687.53 40410.695 -45592.292 40458.314 -45497.054 40505.933 -45306.578 40505.933 -45163.721 40458.314 -44973.245 40410.695 -44878.007 40315.457 -44782.769 40172.599 -44735.149 40077.361 -44735.149 39934.504 -44782.769 39886.885 -44830.388 M 38982.123 -44735.149 39458.314 -44735.149 39505.933 -45211.34 39458.314 -45163.721 39363.076 -45116.102 39124.98 -45116.102 39029.742 -45163.721 38982.123 -45211.34 38934.504 -45306.578 38934.504 -45544.673 38982.123 -45639.911 39029.742 -45687.53 39124.98 -45735.149 39363.076 -45735.149 39458.314 -45687.53 39505.933 -45639.911 M 55697.361 -33304.102 55744.98 -33256.483 55792.599 -33113.626 55792.599 -33018.388 55744.98 -32875.53 55649.742 -32780.292 55554.504 -32732.673 55364.028 -32685.054 55221.171 -32685.054 55030.695 -32732.673 54935.457 -32780.292 54840.219 -32875.53 54792.599 -33018.388 54792.599 -33113.626 54840.219 -33256.483 54887.838 -33304.102 M 54792.599 -34161.245 54792.599 -33970.769 54840.219 -33875.53 54887.838 -33827.911 55030.695 -33732.673 55221.171 -33685.054 55602.123 -33685.054 55697.361 -33732.673 55744.98 -33780.292 55792.599 -33875.53 55792.599 -34066.007 55744.98 -34161.245 55697.361 -34208.864 55602.123 -34256.483 55364.028 -34256.483 55268.79 -34208.864 55221.171 -34161.245 55173.552 -34066.007 55173.552 -33875.53 55221.171 -33780.292 55268.79 -33732.673 55364.028 -33685.054 M 47983.142 -46442.333 48030.761 -46394.714 48078.38 -46251.857 48078.38 -46156.619 48030.761 -46013.761 47935.523 -45918.523 47840.285 -45870.904 47649.809 -45823.285 47506.952 -45823.285 47316.476 -45870.904 47221.238 -45918.523 47126 -46013.761 47078.38 -46156.619 47078.38 -46251.857 47126 -46394.714 47173.619 -46442.333 M 47078.38 -46775.666 47078.38 -47442.333 48078.38 -47013.761 M 35631.361 -37114.102 35678.98 -37066.483 35726.599 -36923.626 35726.599 -36828.388 35678.98 -36685.53 35583.742 -36590.292 35488.504 -36542.673 35298.028 -36495.054 35155.171 -36495.054 34964.695 -36542.673 34869.457 -36590.292 34774.219 -36685.53 34726.599 -36828.388 34726.599 -36923.626 34774.219 -37066.483 34821.838 -37114.102 M 35155.171 -37685.53 35107.552 -37590.292 35059.933 -37542.673 34964.695 -37495.054 34917.076 -37495.054 34821.838 -37542.673 34774.219 -37590.292 34726.599 -37685.53 34726.599 -37876.007 34774.219 -37971.245 34821.838 -38018.864 34917.076 -38066.483 34964.695 -38066.483 35059.933 -38018.864 35107.552 -37971.245 35155.171 -37876.007 35155.171 -37685.53 35202.79 -37590.292 35250.409 -37542.673 35345.647 -37495.054 35536.123 -37495.054 35631.361 -37542.673 35678.98 -37590.292 35726.599 -37685.53 35726.599 -37876.007 35678.98 -37971.245 35631.361 -38018.864 35536.123 -38066.483 35345.647 -38066.483 35250.409 -38018.864 35202.79 -37971.245 35155.171 -37876.007" fill="none" stroke-width="150"/><path d="M 65082.964 -81537.023 65082.964 -80267.023 M 64212.107 -81537.023 64865.25 -80811.309 M 64212.107 -80267.023 65082.964 -80992.738 M 63921.821 -81657.976 62760.678 -81657.976 M 62397.821 -80871.785 61889.821 -80871.785 M 61672.107 -81537.023 62397.821 -81537.023 62397.821 -80267.023 61672.107 -80267.023 M 61018.964 -81537.023 61018.964 -80267.023 60148.107 -81537.023 60148.107 -80267.023 M 59640.107 -80267.023 58769.25 -80267.023 M 59204.678 -81537.023 59204.678 -80267.023 M 58261.25 -80871.785 57753.25 -80871.785 M 57535.535 -81537.023 58261.25 -81537.023 58261.25 -80267.023 57535.535 -80267.023 M 56011.535 -81537.023 56519.535 -80932.261 M 56882.392 -81537.023 56882.392 -80267.023 56301.821 -80267.023 56156.678 -80327.5 56084.107 -80387.976 56011.535 -80508.928 56011.535 -80690.357 56084.107 -80811.309 56156.678 -80871.785 56301.821 -80932.261 56882.392 -80932.261 M 55721.25 -81657.976 54560.107 -81657.976 M 54197.25 -81537.023 54197.25 -80690.357 M 54197.25 -80932.261 54124.678 -80811.309 54052.107 -80750.833 53906.964 -80690.357 53761.821 -80690.357 M 52673.25 -81476.547 52818.392 -81537.023 53108.678 -81537.023 53253.821 -81476.547 53326.392 -81355.595 53326.392 -80871.785 53253.821 -80750.833 53108.678 -80690.357 52818.392 -80690.357 52673.25 -80750.833 52600.678 -80871.785 52600.678 -80992.738 53326.392 -81113.69 M 52092.678 -80690.357 51729.821 -81537.023 51366.964 -80690.357 M 51149.25 -81657.976 49988.107 -81657.976 M 49697.821 -80387.976 49625.25 -80327.5 49480.107 -80267.023 49117.25 -80267.023 48972.107 -80327.5 48899.535 -80387.976 48826.964 -80508.928 48826.964 -80629.88 48899.535 -80811.309 49770.392 -81537.023 48826.964 -81537.023 M 48173.821 -81416.071 48101.25 -81476.547 48173.821 -81537.023 48246.392 -81476.547 48173.821 -81416.071 48173.821 -81537.023 M 47520.678 -80387.976 47448.107 -80327.5 47302.964 -80267.023 46940.107 -80267.023 46794.964 -80327.5 46722.392 -80387.976 46649.821 -80508.928 46649.821 -80629.88 46722.392 -80811.309 47593.25 -81537.023 46649.821 -81537.023 M 45270.964 -80267.023 45996.678 -80267.023 46069.25 -80871.785 45996.678 -80811.309 45851.535 -80750.833 45488.678 -80750.833 45343.535 -80811.309 45270.964 -80871.785 45198.392 -80992.738 45198.392 -81295.119 45270.964 -81416.071 45343.535 -81476.547 45488.678 -81537.023 45851.535 -81537.023 45996.678 -81476.547 46069.25 -81416.071 M 43892.107 -80690.357 43892.107 -81537.023 M 44545.25 -80690.357 44545.25 -81355.595 44472.678 -81476.547 44327.535 -81537.023 44109.821 -81537.023 43964.678 -81476.547 43892.107 -81416.071 M 43529.25 -81657.976 42368.107 -81657.976 M 41206.964 -81537.023 42077.821 -81537.023 M 41642.392 -81537.023 41642.392 -80267.023 41787.535 -80448.452 41932.678 -80569.404 42077.821 -80629.88 M 59631.035 -100587.023 59631.035 -99317.023 M 58760.178 -100587.023 59413.321 -99861.309 M 58760.178 -99317.023 59631.035 -100042.738 M 58469.892 -100707.976 57308.75 -100707.976 M 57018.464 -100526.547 56800.75 -100587.023 56437.892 -100587.023 56292.75 -100526.547 56220.178 -100466.071 56147.607 -100345.119 56147.607 -100224.166 56220.178 -100103.214 56292.75 -100042.738 56437.892 -99982.261 56728.178 -99921.785 56873.321 -99861.309 56945.892 -99800.833 57018.464 -99679.88 57018.464 -99558.928 56945.892 -99437.976 56873.321 -99377.5 56728.178 -99317.023 56365.321 -99317.023 56147.607 -99377.5 M 55494.464 -100587.023 55494.464 -99317.023 M 55494.464 -99921.785 54623.607 -99921.785 M 54623.607 -100587.023 54623.607 -99317.023 M 53897.892 -100587.023 53897.892 -99317.023 M 52664.178 -99921.785 53172.178 -99921.785 M 53172.178 -100587.023 53172.178 -99317.023 52446.464 -99317.023 M 52083.607 -99317.023 51212.75 -99317.023 M 51648.178 -100587.023 51648.178 -99317.023 M 51067.607 -100707.976 49906.464 -100707.976 M 48672.75 -100587.023 49180.75 -99982.261 M 49543.607 -100587.023 49543.607 -99317.023 48963.035 -99317.023 48817.892 -99377.5 48745.321 -99437.976 48672.75 -99558.928 48672.75 -99740.357 48745.321 -99861.309 48817.892 -99921.785 48963.035 -99982.261 49543.607 -99982.261 M 48019.607 -99921.785 47511.607 -99921.785 M 47293.892 -100587.023 48019.607 -100587.023 48019.607 -99317.023 47293.892 -99317.023 M 46858.464 -99317.023 46350.464 -100587.023 45842.464 -99317.023 M 45697.321 -100707.976 44536.178 -100707.976 M 44245.892 -99437.976 44173.321 -99377.5 44028.178 -99317.023 43665.321 -99317.023 43520.178 -99377.5 43447.607 -99437.976 43375.035 -99558.928 43375.035 -99679.88 43447.607 -99861.309 44318.464 -100587.023 43375.035 -100587.023 M 42721.892 -100466.071 42649.321 -100526.547 42721.892 -100587.023 42794.464 -100526.547 42721.892 -100466.071 42721.892 -100587.023 M 42141.321 -99317.023 41125.321 -99317.023 41778.464 -100587.023 M 39819.035 -99317.023 40544.75 -99317.023 40617.321 -99921.785 40544.75 -99861.309 40399.607 -99800.833 40036.75 -99800.833 39891.607 -99861.309 39819.035 -99921.785 39746.464 -100042.738 39746.464 -100345.119 39819.035 -100466.071 39891.607 -100526.547 40036.75 -100587.023 40399.607 -100587.023 40544.75 -100526.547 40617.321 -100466.071 M 39456.178 -100707.976 38295.035 -100707.976 M 37133.892 -100587.023 38004.75 -100587.023 M 37569.321 -100587.023 37569.321 -99317.023 37714.464 -99498.452 37859.607 -99619.404 38004.75 -99679.88" fill="none" stroke-width="203.2"/><path d="M 35524.66 -29664.988 35857.994 -29188.798 M 36096.089 -29664.988 36096.089 -28664.988 35715.136 -28664.988 35619.898 -28712.608 35572.279 -28760.227 35524.66 -28855.465 35524.66 -28998.322 35572.279 -29093.56 35619.898 -29141.179 35715.136 -29188.798 36096.089 -29188.798 M 34572.279 -29664.988 35143.708 -29664.988 M 34857.994 -29664.988 34857.994 -28664.988 34953.232 -28807.846 35048.47 -28903.084 35143.708 -28950.703 M 54299.38 -43267.333 53823.19 -42934 M 54299.38 -42695.904 53299.38 -42695.904 53299.38 -43076.857 53347 -43172.095 53394.619 -43219.714 53489.857 -43267.333 53632.714 -43267.333 53727.952 -43219.714 53775.571 -43172.095 53823.19 -43076.857 53823.19 -42695.904 M 53394.619 -43648.285 53347 -43695.904 53299.38 -43791.142 53299.38 -44029.238 53347 -44124.476 53394.619 -44172.095 53489.857 -44219.714 53585.095 -44219.714 53727.952 -44172.095 54299.38 -43600.666 54299.38 -44219.714 M 29972.38 -42613.333 29496.19 -42280 M 29972.38 -42041.904 28972.38 -42041.904 28972.38 -42422.857 29020 -42518.095 29067.619 -42565.714 29162.857 -42613.333 29305.714 -42613.333 29400.952 -42565.714 29448.571 -42518.095 29496.19 -42422.857 29496.19 -42041.904 M 28972.38 -42946.666 28972.38 -43565.714 29353.333 -43232.38 29353.333 -43375.238 29400.952 -43470.476 29448.571 -43518.095 29543.809 -43565.714 29781.904 -43565.714 29877.142 -43518.095 29924.761 -43470.476 29972.38 -43375.238 29972.38 -43089.523 29924.761 -42994.285 29877.142 -42946.666 M 27952.38 -40473.333 27476.19 -40140 M 27952.38 -39901.904 26952.38 -39901.904 26952.38 -40282.857 27000 -40378.095 27047.619 -40425.714 27142.857 -40473.333 27285.714 -40473.333 27380.952 -40425.714 27428.571 -40378.095 27476.19 -40282.857 27476.19 -39901.904 M 27285.714 -41330.476 27952.38 -41330.476 M 26904.761 -41092.38 27619.047 -40854.285 27619.047 -41473.333 M 83019.739 -28753.36 83353.072 -28277.17 M 83591.167 -28753.36 83591.167 -27753.36 83210.215 -27753.36 83114.977 -27800.98 83067.358 -27848.599 83019.739 -27943.837 83019.739 -28086.694 83067.358 -28181.932 83114.977 -28229.551 83210.215 -28277.17 83591.167 -28277.17 M 82829.262 -28848.599 82067.358 -28848.599 M 81257.834 -28658.122 81305.453 -28705.741 81448.31 -28753.36 81543.548 -28753.36 81686.405 -28705.741 81781.643 -28610.503 81829.262 -28515.265 81876.881 -28324.789 81876.881 -28181.932 81829.262 -27991.456 81781.643 -27896.218 81686.405 -27800.98 81543.548 -27753.36 81448.31 -27753.36 81305.453 -27800.98 81257.834 -27848.599 M 80257.834 -28658.122 80305.453 -28705.741 80448.31 -28753.36 80543.548 -28753.36 80686.405 -28705.741 80781.643 -28610.503 80829.262 -28515.265 80876.881 -28324.789 80876.881 -28181.932 80829.262 -27991.456 80781.643 -27896.218 80686.405 -27800.98 80543.548 -27753.36 80448.31 -27753.36 80305.453 -27800.98 80257.834 -27848.599 M 79305.453 -28753.36 79876.881 -28753.36 M 79591.167 -28753.36 79591.167 -27753.36 79686.405 -27896.218 79781.643 -27991.456 79876.881 -28039.075 M 97759.739 -25643.36 98093.072 -25167.17 M 98331.167 -25643.36 98331.167 -24643.36 97950.215 -24643.36 97854.977 -24690.98 97807.358 -24738.599 97759.739 -24833.837 97759.739 -24976.694 97807.358 -25071.932 97854.977 -25119.551 97950.215 -25167.17 98331.167 -25167.17 M 97569.262 -25738.599 96807.358 -25738.599 M 95997.834 -25548.122 96045.453 -25595.741 96188.31 -25643.36 96283.548 -25643.36 96426.405 -25595.741 96521.643 -25500.503 96569.262 -25405.265 96616.881 -25214.789 96616.881 -25071.932 96569.262 -24881.456 96521.643 -24786.218 96426.405 -24690.98 96283.548 -24643.36 96188.31 -24643.36 96045.453 -24690.98 95997.834 -24738.599 M 94997.834 -25548.122 95045.453 -25595.741 95188.31 -25643.36 95283.548 -25643.36 95426.405 -25595.741 95521.643 -25500.503 95569.262 -25405.265 95616.881 -25214.789 95616.881 -25071.932 95569.262 -24881.456 95521.643 -24786.218 95426.405 -24690.98 95283.548 -24643.36 95188.31 -24643.36 95045.453 -24690.98 94997.834 -24738.599 M 94616.881 -24738.599 94569.262 -24690.98 94474.024 -24643.36 94235.929 -24643.36 94140.691 -24690.98 94093.072 -24738.599 94045.453 -24833.837 94045.453 -24929.075 94093.072 -25071.932 94664.5 -25643.36 94045.453 -25643.36 M 34507.761 -29527.666 34555.38 -29670.523 34555.38 -29908.619 34507.761 -30003.857 34460.142 -30051.476 34364.904 -30099.095 34269.666 -30099.095 34174.428 -30051.476 34126.809 -30003.857 34079.19 -29908.619 34031.571 -29718.142 33983.952 -29622.904 33936.333 -29575.285 33841.095 -29527.666 33745.857 -29527.666 33650.619 -29575.285 33603 -29622.904 33555.38 -29718.142 33555.38 -29956.238 33603 -30099.095 M 33555.38 -30432.428 34555.38 -30670.523 33841.095 -30861 34555.38 -31051.476 33555.38 -31289.571 M 34555.38 -32194.333 34555.38 -31622.904 M 34555.38 -31908.619 33555.38 -31908.619 33698.238 -31813.38 33793.476 -31718.142 33841.095 -31622.904" fill="none" stroke-width="150"/><path d="M 37850.992 -44404.673 37850.992 -45052.292 37812.897 -45128.483 37774.802 -45166.578 37698.611 -45204.673 37546.23 -45204.673 37470.04 -45166.578 37431.945 -45128.483 37393.849 -45052.292 37393.849 -44404.673 M 36593.849 -45204.673 37050.992 -45204.673 M 36822.421 -45204.673 36822.421 -44404.673 36898.611 -44518.959 36974.802 -44595.149 37050.992 -44633.245" fill="none" stroke-width="200"/><path d="M 85015.5 -25876.619 85825.024 -25876.619 85920.262 -25924.238 85967.881 -25971.857 86015.5 -26067.095 86015.5 -26257.571 85967.881 -26352.809 85920.262 -26400.428 85825.024 -26448.047 85015.5 -26448.047 M 86110.739 -26686.142 86110.739 -27448.047 M 85491.691 -27686.142 85491.691 -28019.476 M 86015.5 -28162.333 86015.5 -27686.142 85015.5 -27686.142 85015.5 -28162.333 M 85967.881 -28543.285 86015.5 -28686.142 86015.5 -28924.238 85967.881 -29019.476 85920.262 -29067.095 85825.024 -29114.714 85729.786 -29114.714 85634.548 -29067.095 85586.929 -29019.476 85539.31 -28924.238 85491.691 -28733.761 85444.072 -28638.523 85396.453 -28590.904 85301.215 -28543.285 85205.977 -28543.285 85110.739 -28590.904 85063.12 -28638.523 85015.5 -28733.761 85015.5 -28971.857 85063.12 -29114.714 M 86015.5 -29543.285 85015.5 -29543.285 85015.5 -29781.38 85063.12 -29924.238 85158.358 -30019.476 85253.596 -30067.095 85444.072 -30114.714 85586.929 -30114.714 85777.405 -30067.095 85872.643 -30019.476 85967.881 -29924.238 86015.5 -29781.38 86015.5 -29543.285 M 86110.739 -30305.19 86110.739 -31067.095 M 86015.5 -31829 86015.5 -31257.571 M 86015.5 -31543.285 85015.5 -31543.285 85158.358 -31448.047 85253.596 -31352.809 85301.215 -31257.571 M 90638.047 -24831.38 90638.047 -25640.904 90590.428 -25736.142 90542.809 -25783.761 90447.571 -25831.38 90257.095 -25831.38 90161.857 -25783.761 90114.238 -25736.142 90066.619 -25640.904 90066.619 -24831.38 M 89638.047 -25783.761 89495.19 -25831.38 89257.095 -25831.38 89161.857 -25783.761 89114.238 -25736.142 89066.619 -25640.904 89066.619 -25545.666 89114.238 -25450.428 89161.857 -25402.809 89257.095 -25355.19 89447.571 -25307.571 89542.809 -25259.952 89590.428 -25212.333 89638.047 -25117.095 89638.047 -25021.857 89590.428 -24926.619 89542.809 -24879 89447.571 -24831.38 89209.476 -24831.38 89066.619 -24879 M 88304.714 -25307.571 88161.857 -25355.19 88114.238 -25402.809 88066.619 -25498.047 88066.619 -25640.904 88114.238 -25736.142 88161.857 -25783.761 88257.095 -25831.38 88638.047 -25831.38 88638.047 -24831.38 88304.714 -24831.38 88209.476 -24879 88161.857 -24926.619 88114.238 -25021.857 88114.238 -25117.095 88161.857 -25212.333 88209.476 -25259.952 88304.714 -25307.571 88638.047 -25307.571 M 87876.142 -25926.619 87114.238 -25926.619 M 86352.333 -25831.38 86923.761 -25831.38 M 86638.047 -25831.38 86638.047 -24831.38 86733.285 -24974.238 86828.523 -25069.476 86923.761 -25117.095 M 44273.254 -28597.917 43606.588 -29597.917 M 43606.588 -28597.917 44273.254 -29597.917 M 42701.826 -29597.917 43273.254 -29597.917 M 42987.54 -29597.917 42987.54 -28597.917 43082.778 -28740.775 43178.016 -28836.013 43273.254 -28883.632" fill="none" stroke-width="150"/></g></svg>