<svg version="1.1" xmlns="http://www.w3.org/2000/svg" xmlns:xlink="http://www.w3.org/1999/xlink" stroke-linecap="round" stroke-linejoin="round" stroke-width="0" fill-rule="evenodd" width="182.09033300000002mm" height="143.216945mm" viewBox="22274.53 -157573.325 182090.333 143216.945" id="akvwMnzwye8zWy-mWKsy"><g transform="translate(0,-171929.70500000002) scale(1,-1)" fill="currentColor" stroke="currentColor"><path d="M 179202.823 -132518.631 196237.784 -140462.164 188294.251 -157497.125 171259.29 -149553.592 179202.823 -132518.631 M 93789.5 -26479.5 112585.5 -26479.5 112585.5 -45275.5 93789.5 -45275.5 93789.5 -26479.5 M 112839.5 -41465.5 112839.5 -22669.5 M 131635.5 -41465.5 112839.5 -41465.5 M 131635.5 -22669.5 131635.5 -41465.5 M 112839.5 -22669.5 131635.5 -22669.5 M 131889.5 -26479.5 150685.5 -26479.5 150685.5 -45275.5 131889.5 -45275.5 131889.5 -26479.5 M 150939.5 -30289.5 169735.5 -30289.5 169735.5 -49085.5 150939.5 -49085.5 150939.5 -30289.5 M 74739.5 -68389.5 93535.5 -68389.5 93535.5 -87185.5 74739.5 -87185.5 74739.5 -68389.5 M 74739.5 -125285.5 74739.5 -106489.5 M 93535.5 -125285.5 74739.5 -125285.5 M 93535.5 -106489.5 93535.5 -125285.5 M 74739.5 -106489.5 93535.5 -106489.5 M 150939.5 -106235.5 150939.5 -87439.5 M 169735.5 -106235.5 150939.5 -106235.5 M 169735.5 -87439.5 169735.5 -106235.5 M 150939.5 -87439.5 169735.5 -87439.5 M 112776 -117602 112776 -98806 M 131572 -117602 112776 -117602 M 131572 -98806 131572 -117602 M 112776 -98806 131572 -98806 M 131826 -121412 131826 -102616 M 150622 -121412 131826 -121412 M 150622 -102616 150622 -121412 M 131826 -102616 150622 -102616 M 112839.5 -79819.5 131635.5 -79819.5 131635.5 -98615.5 112839.5 -98615.5 112839.5 -79819.5 M 41400.73 -68389.5 74486.77 -68389.5 74486.77 -87185.5 41400.73 -87185.5 41400.73 -68389.5 M 55689.5 -125285.5 55689.5 -106489.5 M 74485.5 -125285.5 55689.5 -125285.5 M 74485.5 -106489.5 74485.5 -125285.5 M 55689.5 -106489.5 74485.5 -106489.5 M 112839.5 -60769.5 131635.5 -60769.5 131635.5 -79565.5 112839.5 -79565.5 112839.5 -60769.5 M 112839.5 -41719.5 131635.5 -41719.5 131635.5 -60515.5 112839.5 -60515.5 112839.5 -41719.5 M 74486.77 -87185.5 74486.77 -68389.5 M 31875.73 -87185.5 74486.77 -87185.5 M 31875.73 -68389.5 31875.73 -87185.5 M 74486.77 -68389.5 31875.73 -68389.5 M 55689.5 -49085.5 55689.5 -30289.5 M 74485.5 -49085.5 55689.5 -49085.5 M 74485.5 -30289.5 74485.5 -49085.5 M 55689.5 -30289.5 74485.5 -30289.5 M 131889.5 -83375.5 131889.5 -64579.5 M 150685.5 -83375.5 131889.5 -83375.5 M 150685.5 -64579.5 150685.5 -83375.5 M 131889.5 -64579.5 150685.5 -64579.5 M 150939.5 -68389.5 169735.5 -68389.5 169735.5 -87185.5 150939.5 -87185.5 150939.5 -68389.5 M 74739.5 -68135.5 74739.5 -49339.5 M 93535.5 -68135.5 74739.5 -68135.5 M 93535.5 -49339.5 93535.5 -68135.5 M 74739.5 -49339.5 93535.5 -49339.5 M 131889.5 -64325.5 131889.5 -45529.5 M 150685.5 -64325.5 131889.5 -64325.5 M 150685.5 -45529.5 150685.5 -64325.5 M 131889.5 -45529.5 150685.5 -45529.5 M 93789.5 -83375.5 93789.5 -64579.5 M 112585.5 -83375.5 93789.5 -83375.5 M 112585.5 -64579.5 112585.5 -83375.5 M 93789.5 -64579.5 112585.5 -64579.5 M 31875.73 -87439.5 74486.77 -87439.5 74486.77 -106235.5 31875.73 -106235.5 31875.73 -87439.5 M 74486.77 -87439.5 22350.73 -87439.5 22350.73 -106235.5 74486.77 -106235.5 74486.77 -87439.5 M 150939.5 -49339.5 169735.5 -49339.5 169735.5 -68135.5 150939.5 -68135.5 150939.5 -49339.5 M 187253.702 -115253.468 204288.663 -123197.001 196345.13 -140231.962 179310.169 -132288.429 187253.702 -115253.468 M 131889.5 -83629.5 150685.5 -83629.5 150685.5 -102425.5 131889.5 -102425.5 131889.5 -83629.5 M 93789.5 -45529.5 112585.5 -45529.5 112585.5 -64325.5 93789.5 -64325.5 93789.5 -45529.5 M 93789.5 -102679.5 112585.5 -102679.5 112585.5 -121475.5 93789.5 -121475.5 93789.5 -102679.5 M 93789.5 -102425.5 93789.5 -83629.5 M 112585.5 -102425.5 93789.5 -102425.5 M 112585.5 -83629.5 112585.5 -102425.5 M 93789.5 -83629.5 112585.5 -83629.5 M 74739.5 -106235.5 74739.5 -87439.5 M 93535.5 -106235.5 74739.5 -106235.5 M 93535.5 -87439.5 93535.5 -106235.5 M 74739.5 -87439.5 93535.5 -87439.5" fill="none" stroke-width="152.4"/><path d="M 84049 -23429 92989 -23429 M 92989 -16129 92989 -23429 M 84049 -16129 84049 -23429 M 84049 -16129 92989 -16129" fill="none" stroke-width="150"/><path d="M 74739.5 -30289.5 93535.5 -30289.5 93535.5 -49085.5 74739.5 -49085.5 74739.5 -30289.5 M 74485.5 -49339.5 46164.5 -49339.5 46164.5 -68135.5 74485.5 -68135.5 74485.5 -49339.5 M 169976.329 -107190.737 187011.29 -115134.27 179067.757 -132169.231 162032.796 -124225.698 169976.329 -107190.737 M 171016.879 -149434.394 153981.918 -141490.861 161925.451 -124455.9 178960.412 -132399.433 171016.879 -149434.394 M 187023.499 -115146.124 171029.088 -149446.249 153994.127 -141502.716 169988.538 -107202.591 187023.499 -115146.124" fill="none" stroke-width="152.4"/><path d="M 43015.444 -86731.928 42144.587 -86731.928 M 42580.015 -86731.928 42580.015 -85207.928 42434.872 -85425.642 42289.73 -85570.785 42144.587 -85643.357 M 43668.587 -86586.785 43741.158 -86659.357 43668.587 -86731.928 43596.015 -86659.357 43668.587 -86586.785 43668.587 -86731.928 M 44249.158 -85207.928 45265.158 -85207.928 44612.015 -86731.928 M 46571.444 -85207.928 45845.73 -85207.928 45773.158 -85933.642 45845.73 -85861.071 45990.872 -85788.5 46353.73 -85788.5 46498.872 -85861.071 46571.444 -85933.642 46644.015 -86078.785 46644.015 -86441.642 46571.444 -86586.785 46498.872 -86659.357 46353.73 -86731.928 45990.872 -86731.928 45845.73 -86659.357 45773.158 -86586.785 M 47950.301 -85715.928 47950.301 -86731.928 M 47297.158 -85715.928 47297.158 -86514.214 47369.73 -86659.357 47514.872 -86731.928 47732.587 -86731.928 47877.73 -86659.357 47950.301 -86586.785 M 67864.627 -85353.071 67937.198 -85280.5 68082.341 -85207.928 68445.198 -85207.928 68590.341 -85280.5 68662.912 -85353.071 68735.484 -85498.214 68735.484 -85643.357 68662.912 -85861.071 67792.055 -86731.928 68735.484 -86731.928 M 69388.627 -86586.785 69461.198 -86659.357 69388.627 -86731.928 69316.055 -86659.357 69388.627 -86586.785 69388.627 -86731.928 M 70041.77 -85353.071 70114.341 -85280.5 70259.484 -85207.928 70622.341 -85207.928 70767.484 -85280.5 70840.055 -85353.071 70912.627 -85498.214 70912.627 -85643.357 70840.055 -85861.071 69969.198 -86731.928 70912.627 -86731.928 M 72291.484 -85207.928 71565.77 -85207.928 71493.198 -85933.642 71565.77 -85861.071 71710.912 -85788.5 72073.77 -85788.5 72218.912 -85861.071 72291.484 -85933.642 72364.055 -86078.785 72364.055 -86441.642 72291.484 -86586.785 72218.912 -86659.357 72073.77 -86731.928 71710.912 -86731.928 71565.77 -86659.357 71493.198 -86586.785 M 73670.341 -85715.928 73670.341 -86731.928 M 73017.198 -85715.928 73017.198 -86514.214 73089.77 -86659.357 73234.912 -86731.928 73452.627 -86731.928 73597.77 -86659.357 73670.341 -86586.785 M 32619.587 -104403.071 32692.158 -104330.5 32837.301 -104257.928 33200.158 -104257.928 33345.301 -104330.5 33417.872 -104403.071 33490.444 -104548.214 33490.444 -104693.357 33417.872 -104911.071 32547.015 -105781.928 33490.444 -105781.928 M 34143.587 -105636.785 34216.158 -105709.357 34143.587 -105781.928 34071.015 -105709.357 34143.587 -105636.785 34143.587 -105781.928 M 34796.73 -104403.071 34869.301 -104330.5 35014.444 -104257.928 35377.301 -104257.928 35522.444 -104330.5 35595.015 -104403.071 35667.587 -104548.214 35667.587 -104693.357 35595.015 -104911.071 34724.158 -105781.928 35667.587 -105781.928 M 37046.444 -104257.928 36320.73 -104257.928 36248.158 -104983.642 36320.73 -104911.071 36465.872 -104838.5 36828.73 -104838.5 36973.872 -104911.071 37046.444 -104983.642 37119.015 -105128.785 37119.015 -105491.642 37046.444 -105636.785 36973.872 -105709.357 36828.73 -105781.928 36465.872 -105781.928 36320.73 -105709.357 36248.158 -105636.785 M 38425.301 -104765.928 38425.301 -105781.928 M 37772.158 -104765.928 37772.158 -105564.214 37844.73 -105709.357 37989.872 -105781.928 38207.587 -105781.928 38352.73 -105709.357 38425.301 -105636.785 M 67864.627 -104403.071 67937.198 -104330.5 68082.341 -104257.928 68445.198 -104257.928 68590.341 -104330.5 68662.912 -104403.071 68735.484 -104548.214 68735.484 -104693.357 68662.912 -104911.071 67792.055 -105781.928 68735.484 -105781.928 M 69388.627 -105636.785 69461.198 -105709.357 69388.627 -105781.928 69316.055 -105709.357 69388.627 -105636.785 69388.627 -105781.928 M 69969.198 -104257.928 70985.198 -104257.928 70332.055 -105781.928 M 72291.484 -104257.928 71565.77 -104257.928 71493.198 -104983.642 71565.77 -104911.071 71710.912 -104838.5 72073.77 -104838.5 72218.912 -104911.071 72291.484 -104983.642 72364.055 -105128.785 72364.055 -105491.642 72291.484 -105636.785 72218.912 -105709.357 72073.77 -105781.928 71710.912 -105781.928 71565.77 -105709.357 71493.198 -105636.785 M 73670.341 -104765.928 73670.341 -105781.928 M 73017.198 -104765.928 73017.198 -105564.214 73089.77 -105709.357 73234.912 -105781.928 73452.627 -105781.928 73597.77 -105709.357 73670.341 -105636.785" fill="none" stroke-width="304.8"/><path d="M 79376.142 -15431.38 79376.142 -14431.38 M 79376.142 -14907.571 79947.571 -14907.571 M 79947.571 -15431.38 79947.571 -14431.38 M 80995.19 -15431.38 80661.857 -14955.19 M 80423.761 -15431.38 80423.761 -14431.38 80804.714 -14431.38 80899.952 -14479 80947.571 -14526.619 80995.19 -14621.857 80995.19 -14764.714 80947.571 -14859.952 80899.952 -14907.571 80804.714 -14955.19 80423.761 -14955.19 M 81614.238 -14431.38 81804.714 -14431.38 81899.952 -14479 81995.19 -14574.238 82042.809 -14764.714 82042.809 -15098.047 81995.19 -15288.523 81899.952 -15383.761 81804.714 -15431.38 81614.238 -15431.38 81519 -15383.761 81423.761 -15288.523 81376.142 -15098.047 81376.142 -14764.714 81423.761 -14574.238 81519 -14479 81614.238 -14431.38 M 82471.38 -15050.428 83233.285 -15050.428 M 83566.619 -14431.38 84138.047 -14431.38 M 83852.333 -15431.38 83852.333 -14431.38 M 84661.857 -14955.19 84661.857 -15431.38 M 84328.523 -14431.38 84661.857 -14955.19 84995.19 -14431.38 M 85328.523 -15431.38 85328.523 -14431.38 85709.476 -14431.38 85804.714 -14479 85852.333 -14526.619 85899.952 -14621.857 85899.952 -14764.714 85852.333 -14859.952 85804.714 -14907.571 85709.476 -14955.19 85328.523 -14955.19 M 86328.523 -14907.571 86661.857 -14907.571 M 86804.714 -15431.38 86328.523 -15431.38 86328.523 -14431.38 86804.714 -14431.38 M 87233.285 -15050.428 87995.19 -15050.428 M 89042.809 -15336.142 88995.19 -15383.761 88852.333 -15431.38 88757.095 -15431.38 88614.238 -15383.761 88519 -15288.523 88471.38 -15193.285 88423.761 -15002.809 88423.761 -14859.952 88471.38 -14669.476 88519 -14574.238 88614.238 -14479 88757.095 -14431.38 88852.333 -14431.38 88995.19 -14479 89042.809 -14526.619 M 89471.38 -15050.428 90233.285 -15050.428 M 90614.238 -14431.38 91233.285 -14431.38 90899.952 -14812.333 91042.809 -14812.333 91138.047 -14859.952 91185.666 -14907.571 91233.285 -15002.809 91233.285 -15240.904 91185.666 -15336.142 91138.047 -15383.761 91042.809 -15431.38 90757.095 -15431.38 90661.857 -15383.761 90614.238 -15336.142 M 92185.666 -15431.38 91614.238 -15431.38 M 91899.952 -15431.38 91899.952 -14431.38 91804.714 -14574.238 91709.476 -14669.476 91614.238 -14717.095 M 92614.238 -15050.428 93376.142 -15050.428 M 93852.333 -15431.38 93852.333 -14431.38 94185.666 -15145.666 94519 -14431.38 94519 -15431.38 M 94995.19 -15050.428 95757.095 -15050.428 M 96757.095 -15431.38 96185.666 -15431.38 M 96471.38 -15431.38 96471.38 -14431.38 96376.142 -14574.238 96280.904 -14669.476 96185.666 -14717.095 M 97138.047 -14526.619 97185.666 -14479 97280.904 -14431.38 97519 -14431.38 97614.238 -14479 97661.857 -14526.619 97709.476 -14621.857 97709.476 -14717.095 97661.857 -14859.952 97090.428 -15431.38 97709.476 -15431.38" fill="none" stroke-width="150"/><path d="M 167600.975 -113395.978 167565.873 -113299.536 167561.441 -113137.322 167714.791 -112808.462 167841.903 -112707.588 167938.345 -112672.486 168100.559 -112668.054 168232.103 -112729.394 168398.749 -112887.176 168819.974 -114044.481 169218.684 -113189.444 M 169363.17 -112536.156 169459.612 -112501.054 169494.714 -112597.496 169398.272 -112632.598 169363.17 -112536.156 169494.714 -112597.496 M 168542.881 -111032.617 168604.221 -110901.073 168731.333 -110800.198 168827.775 -110765.096 168989.989 -110760.664 169283.747 -110817.572 169612.608 -110970.922 169845.026 -111159.375 169945.9 -111286.487 169981.002 -111382.929 169985.434 -111545.143 169924.094 -111676.687 169796.982 -111777.561 169700.54 -111812.663 169538.326 -111817.095 169244.567 -111760.187 168915.707 -111606.837 168683.289 -111418.385 168582.415 -111291.273 168547.313 -111194.831 168542.881 -111032.617 M 169156.281 -109717.176 169217.621 -109585.632 169344.733 -109484.757 169441.175 -109449.655 169603.389 -109445.223 169897.148 -109502.131 170226.008 -109655.481 170458.426 -109843.934 170559.3 -109971.046 170594.402 -110067.488 170598.834 -110229.702 170537.494 -110361.246 170410.382 -110462.12 170313.94 -110497.222 170151.726 -110501.654 169857.968 -110444.746 169529.107 -110291.396 169296.689 -110102.944 169195.815 -109975.832 169160.713 -109879.39 169156.281 -109717.176 M 170383.436 -108287.564 171304.244 -108716.945 M 170107.406 -108879.513 170830.898 -109216.883 170993.112 -109212.451 171120.224 -109111.577 171212.234 -108914.261 171207.802 -108752.047 171172.7 -108655.605" fill="none" stroke-width="304.8"/><path d="M 162623.286 -30881.11 162623.286 -31595.396 162575.667 -31738.253 162480.429 -31833.491 162337.572 -31881.11 162242.334 -31881.11 M 163623.286 -31881.11 163051.858 -31881.11 M 163337.572 -31881.11 163337.572 -30881.11 163242.334 -31023.968 163147.096 -31119.206 163051.858 -31166.825 M 162623.286 -30881.11 162623.286 -31595.396 162575.667 -31738.253 162480.429 -31833.491 162337.572 -31881.11 162242.334 -31881.11 M 163051.858 -30976.349 163099.477 -30928.73 163194.715 -30881.11 163432.81 -30881.11 163528.048 -30928.73 163575.667 -30976.349 163623.286 -31071.587 163623.286 -31166.825 163575.667 -31309.682 163004.239 -31881.11 163623.286 -31881.11" fill="none" stroke-width="150"/></g></svg>