<svg version="1.1" xmlns="http://www.w3.org/2000/svg" xmlns:xlink="http://www.w3.org/1999/xlink" stroke-linecap="round" stroke-linejoin="round" stroke-width="0" fill-rule="evenodd" width="168.944614mm" height="129.36032600000001mm" viewBox="32213.55 -154366.626 168944.614 129360.326" id="qiGnCLnsQeu02pOubfaq"><g transform="translate(0,-179372.92599999998) scale(1,-1)" fill="currentColor" stroke="currentColor"><path d="M 180369.966 -135725.33 193031.085 -141629.307 187127.108 -154290.426 174465.989 -148386.449 180369.966 -135725.33 M 96202.5 -28892.5 110172.5 -28892.5 110172.5 -42862.5 96202.5 -42862.5 96202.5 -28892.5 M 115252.5 -39052.5 115252.5 -25082.5 M 129222.5 -39052.5 115252.5 -39052.5 M 129222.5 -25082.5 129222.5 -39052.5 M 115252.5 -25082.5 129222.5 -25082.5 M 134302.5 -28892.5 148272.5 -28892.5 148272.5 -42862.5 134302.5 -42862.5 134302.5 -28892.5 M 153352.5 -32702.5 167322.5 -32702.5 167322.5 -46672.5 153352.5 -46672.5 153352.5 -32702.5 M 77152.5 -70802.5 91122.5 -70802.5 91122.5 -84772.5 77152.5 -84772.5 77152.5 -70802.5 M 77152.5 -122872.5 77152.5 -108902.5 M 91122.5 -122872.5 77152.5 -122872.5 M 91122.5 -108902.5 91122.5 -122872.5 M 77152.5 -108902.5 91122.5 -108902.5 M 153352.5 -103822.5 153352.5 -89852.5 M 167322.5 -103822.5 153352.5 -103822.5 M 167322.5 -89852.5 167322.5 -103822.5 M 153352.5 -89852.5 167322.5 -89852.5 M 115189 -115189 115189 -101219 M 129159 -115189 115189 -115189 M 129159 -101219 129159 -115189 M 115189 -101219 129159 -101219 M 134239 -118999 134239 -105029 M 148209 -118999 134239 -118999 M 148209 -105029 148209 -118999 M 134239 -105029 148209 -105029 M 115252.5 -82232.5 129222.5 -82232.5 129222.5 -96202.5 115252.5 -96202.5 115252.5 -82232.5 M 50958.75 -70802.5 64928.75 -70802.5 64928.75 -84772.5 50958.75 -84772.5 50958.75 -70802.5 M 58102.5 -122872.5 58102.5 -108902.5 M 72072.5 -122872.5 58102.5 -122872.5 M 72072.5 -108902.5 72072.5 -122872.5 M 58102.5 -108902.5 72072.5 -108902.5 M 115252.5 -63182.5 129222.5 -63182.5 129222.5 -77152.5 115252.5 -77152.5 115252.5 -63182.5 M 115252.5 -44132.5 129222.5 -44132.5 129222.5 -58102.5 115252.5 -58102.5 115252.5 -44132.5 M 60166.25 -72910.7 60166.25 -70802.5 M 61791.85 -72910.7 60166.25 -72910.7 M 61791.85 -72097.9 61791.85 -72910.7 M 68446.65 -72097.9 61791.85 -72097.9 M 68446.65 -75501.5 68446.65 -72097.9 M 69310.25 -75501.5 68446.65 -75501.5 M 69310.25 -78295.5 69310.25 -75501.5 M 68446.65 -78295.5 69310.25 -78295.5 M 68446.65 -84391.5 68446.65 -78295.5 M 67405.25 -84391.5 68446.65 -84391.5 M 67405.25 -85559.9 67405.25 -84391.5 M 62833.25 -85559.9 67405.25 -85559.9 M 62833.25 -84391.5 62833.25 -85559.9 M 61791.85 -84391.5 62833.25 -84391.5 M 61791.85 -83604.1 61791.85 -84391.5 M 60166.25 -83604.1 61791.85 -83604.1 M 60166.25 -84772.5 60166.25 -83604.1 M 46196.25 -84772.5 60166.25 -84772.5 M 46196.25 -83604.1 46196.25 -84772.5 M 44570.65 -83604.1 46196.25 -83604.1 M 44570.65 -84391.5 44570.65 -83604.1 M 43529.25 -84391.5 44570.65 -84391.5 M 43529.25 -85559.9 43529.25 -84391.5 M 38957.25 -85559.9 43529.25 -85559.9 M 38957.25 -84391.5 38957.25 -85559.9 M 37915.85 -84391.5 38957.25 -84391.5 M 37915.85 -78295.5 37915.85 -84391.5 M 37052.25 -78295.5 37915.85 -78295.5 M 37052.25 -75501.5 37052.25 -78295.5 M 37915.85 -75501.5 37052.25 -75501.5 M 37915.85 -72097.9 37915.85 -75501.5 M 44570.65 -72097.9 37915.85 -72097.9 M 44570.65 -72910.7 44570.65 -72097.9 M 46196.25 -72910.7 44570.65 -72910.7 M 46196.25 -70802.5 46196.25 -72910.7 M 60166.25 -70802.5 46196.25 -70802.5 M 58102.5 -46672.5 58102.5 -32702.5 M 72072.5 -46672.5 58102.5 -46672.5 M 72072.5 -32702.5 72072.5 -46672.5 M 58102.5 -32702.5 72072.5 -32702.5 M 134302.5 -80962.5 134302.5 -66992.5 M 148272.5 -80962.5 134302.5 -80962.5 M 148272.5 -66992.5 148272.5 -80962.5 M 134302.5 -66992.5 148272.5 -66992.5 M 153352.5 -70802.5 167322.5 -70802.5 167322.5 -84772.5 153352.5 -84772.5 153352.5 -70802.5 M 77152.5 -65722.5 77152.5 -51752.5 M 91122.5 -65722.5 77152.5 -65722.5 M 91122.5 -51752.5 91122.5 -65722.5 M 77152.5 -51752.5 91122.5 -51752.5 M 134302.5 -61912.5 134302.5 -47942.5 M 148272.5 -61912.5 134302.5 -61912.5 M 148272.5 -47942.5 148272.5 -61912.5 M 134302.5 -47942.5 148272.5 -47942.5 M 96202.5 -80962.5 96202.5 -66992.5 M 110172.5 -80962.5 96202.5 -80962.5 M 110172.5 -66992.5 110172.5 -80962.5 M 96202.5 -66992.5 110172.5 -66992.5 M 46196.25 -89852.5 60166.25 -89852.5 60166.25 -91960.7 61791.85 -91960.7 61791.85 -91147.9 68446.65 -91147.9 68446.65 -94551.5 69310.25 -94551.5 69310.25 -97345.5 68446.65 -97345.5 68446.65 -103441.5 67405.25 -103441.5 67405.25 -104609.9 62833.25 -104609.9 62833.25 -103441.5 61791.85 -103441.5 61791.85 -102654.1 60166.25 -102654.1 60166.25 -103822.5 46196.25 -103822.5 46196.25 -102654.1 44570.65 -102654.1 44570.65 -103441.5 43529.25 -103441.5 43529.25 -104609.9 38957.25 -104609.9 38957.25 -103441.5 37915.85 -103441.5 37915.85 -97345.5 37052.25 -97345.5 37052.25 -94551.5 37915.85 -94551.5 37915.85 -91147.9 44570.65 -91147.9 44570.65 -91960.7 46196.25 -91960.7 46196.25 -89852.5 M 55403.75 -89852.5 41433.75 -89852.5 41433.75 -91960.7 39808.15 -91960.7 39808.15 -91147.9 33153.35 -91147.9 33153.35 -94551.5 32289.75 -94551.5 32289.75 -97345.5 33153.35 -97345.5 33153.35 -103441.5 34194.75 -103441.5 34194.75 -104609.9 38766.75 -104609.9 38766.75 -103441.5 39808.15 -103441.5 39808.15 -102654.1 41433.75 -102654.1 41433.75 -103822.5 55403.75 -103822.5 55403.75 -102654.1 57029.35 -102654.1 57029.35 -103441.5 58070.75 -103441.5 58070.75 -104609.9 62642.75 -104609.9 62642.75 -103441.5 63684.15 -103441.5 63684.15 -97345.5 64547.75 -97345.5 64547.75 -94551.5 63684.15 -94551.5 63684.15 -91147.9 57029.35 -91147.9 57029.35 -91960.7 55403.75 -91960.7 55403.75 -89852.5 M 153352.5 -51752.5 167322.5 -51752.5 167322.5 -65722.5 153352.5 -65722.5 153352.5 -51752.5 M 188420.845 -118460.167 201081.964 -124364.144 195177.987 -137025.263 182516.868 -131121.286 188420.845 -118460.167 M 134302.5 -86042.5 148272.5 -86042.5 148272.5 -100012.5 134302.5 -100012.5 134302.5 -86042.5 M 96202.5 -47942.5 110172.5 -47942.5 110172.5 -61912.5 96202.5 -61912.5 96202.5 -47942.5 M 96202.5 -105092.5 110172.5 -105092.5 110172.5 -119062.5 96202.5 -119062.5 96202.5 -105092.5 M 96202.5 -100012.5 96202.5 -86042.5 M 110172.5 -100012.5 96202.5 -100012.5 M 110172.5 -86042.5 110172.5 -100012.5 M 96202.5 -86042.5 110172.5 -86042.5 M 77152.5 -103822.5 77152.5 -89852.5 M 91122.5 -103822.5 77152.5 -103822.5 M 91122.5 -89852.5 91122.5 -103822.5 M 77152.5 -89852.5 91122.5 -89852.5 M 77152.5 -32702.5 91122.5 -32702.5 91122.5 -46672.5 77152.5 -46672.5 77152.5 -32702.5 M 67310 -51752.5 53340 -51752.5 53340 -65722.5 67310 -65722.5 67310 -51752.5 M 171143.472 -110397.436 183804.591 -116301.413 177900.614 -128962.532 165239.495 -123058.555 171143.472 -110397.436 M 169849.736 -146227.695 157188.617 -140323.718 163092.594 -127662.599 175753.713 -133566.576 169849.736 -146227.695 M 179791.361 -124945.849 173887.384 -137606.968 171976.706 -136716.005 171289.698 -138189.299 172026.345 -138532.803 169213.905 -144564.1 166129.196 -143125.676 165764.223 -143908.364 163231.999 -142727.568 163596.972 -141944.881 158072.12 -139368.6 158512.234 -138424.771 157453.304 -137930.984 159385.515 -133787.345 160444.445 -134281.132 160884.56 -133337.303 161598.186 -133670.072 162285.195 -132196.779 161226.265 -131702.991 167130.242 -119041.872 168189.172 -119535.659 168876.18 -118062.365 168162.553 -117729.595 168602.668 -116785.766 167543.738 -116291.979 169475.949 -112148.34 170534.879 -112642.127 170974.993 -111698.298 176499.845 -114274.579 176864.819 -113491.892 179397.043 -114672.687 179032.069 -115455.374 182116.779 -116893.798 179304.339 -122925.095 178567.692 -122581.591 177880.683 -124054.885 179791.361 -124945.849" fill="none" stroke-width="152.4"/></g></svg>