G04 #@! TF.GenerationSoftware,KiCad,Pcbnew,(5.1.5)-3*
G04 #@! TF.CreationDate,2020-01-27T18:25:53+05:30*
G04 #@! TF.ProjectId,ergocape,6572676f-6361-4706-952e-6b696361645f,rev?*
G04 #@! TF.SameCoordinates,Original*
G04 #@! TF.FileFunction,Profile,NP*
%FSLAX46Y46*%
G04 Gerber Fmt 4.6, Leading zero omitted, Abs format (unit mm)*
G04 Created by KiCad (PCBNEW (5.1.5)-3) date 2020-01-27 18:25:53*
%MOMM*%
%LPD*%
G04 APERTURE LIST*
%ADD10C,0.200000*%
%ADD11C,0.150000*%
G04 APERTURE END LIST*
D10*
X31750000Y-68326000D02*
X36576000Y-68326000D01*
D11*
X38866000Y-17272000D02*
X39370000Y-17272000D01*
X36576000Y-48895000D02*
X36580000Y-19558000D01*
D10*
X36576000Y-51943000D02*
X36576000Y-48895000D01*
X36576000Y-68326000D02*
X36576000Y-51943000D01*
X31750000Y-87376000D02*
X31750000Y-68326000D01*
X22352000Y-87376000D02*
X31750000Y-87376000D01*
X22352000Y-87503000D02*
X22352000Y-87376000D01*
X22352000Y-98044000D02*
X22352000Y-87503000D01*
D11*
X157988000Y-17272000D02*
X168402000Y-17272000D01*
X147574000Y-17272000D02*
X157988000Y-17272000D01*
X136906000Y-17272000D02*
X147574000Y-17272000D01*
X127000000Y-17272000D02*
X136906000Y-17272000D01*
X204852770Y-121558610D02*
G75*
G02X205467055Y-123246347I-536726J-1151011D01*
G01*
X204385820Y-121337275D02*
X204852770Y-121558610D01*
X170434000Y-19304000D02*
X170434000Y-105410000D01*
X153365200Y-141833600D02*
X143510000Y-127000000D01*
X153585583Y-141929498D02*
X153365200Y-141833600D01*
X205467055Y-123246347D02*
X189577980Y-157304740D01*
X189577980Y-157304740D02*
G75*
G02X187890244Y-157919026I-1151011J536725D01*
G01*
X153585583Y-141929498D02*
X187890244Y-157919026D01*
X170434000Y-105410000D02*
X204385820Y-121337275D01*
X168402000Y-17272000D02*
G75*
G02X170434000Y-19304000I0J-2032000D01*
G01*
X36580000Y-19558000D02*
G75*
G02X38866000Y-17272000I2286000J0D01*
G01*
X127000000Y-17272000D02*
X39370000Y-17272000D01*
X137160000Y-127000000D02*
X143510000Y-127000000D01*
X22352000Y-108966000D02*
X22860000Y-109220000D01*
X22352000Y-106426000D02*
X22352000Y-108966000D01*
X22352000Y-98044000D02*
X22352000Y-106426000D01*
X55118000Y-127000000D02*
X55880000Y-127000000D01*
X53848000Y-126238000D02*
X55118000Y-127000000D01*
X50800000Y-124460000D02*
X53848000Y-126238000D01*
X55880000Y-127000000D02*
X137160000Y-127000000D01*
X22860000Y-109220000D02*
X50800000Y-124460000D01*
D10*
X91137500Y-103837500D02*
X91137500Y-103237500D01*
X91137500Y-89837500D02*
X77137500Y-89837500D01*
X91137500Y-90437500D02*
X91137500Y-89837500D01*
X91137500Y-103237500D02*
X91937500Y-103237500D01*
X76337500Y-90437500D02*
X76337500Y-103237500D01*
X76337500Y-103237500D02*
X77137500Y-103237500D01*
X91937500Y-90437500D02*
X91137500Y-90437500D01*
X91937500Y-103237500D02*
X91937500Y-90437500D01*
X77137500Y-103837500D02*
X91137500Y-103837500D01*
X77137500Y-103237500D02*
X77137500Y-103837500D01*
X77137500Y-90437500D02*
X76337500Y-90437500D01*
X77137500Y-89837500D02*
X77137500Y-90437500D01*
X110188000Y-100027500D02*
X110188000Y-99427500D01*
X110188000Y-86027500D02*
X96188000Y-86027500D01*
X110188000Y-86627500D02*
X110188000Y-86027500D01*
X110188000Y-99427500D02*
X110988000Y-99427500D01*
X95388000Y-86627500D02*
X95388000Y-99427500D01*
X95388000Y-99427500D02*
X96188000Y-99427500D01*
X110988000Y-86627500D02*
X110188000Y-86627500D01*
X110988000Y-99427500D02*
X110988000Y-86627500D01*
X96188000Y-100027500D02*
X110188000Y-100027500D01*
X96188000Y-99427500D02*
X96188000Y-100027500D01*
X96188000Y-86627500D02*
X95388000Y-86627500D01*
X96188000Y-86027500D02*
X96188000Y-86627500D01*
X110188000Y-119078000D02*
X110188000Y-118478000D01*
X110188000Y-105078000D02*
X96188000Y-105078000D01*
X110188000Y-105678000D02*
X110188000Y-105078000D01*
X110188000Y-118478000D02*
X110988000Y-118478000D01*
X95388000Y-105678000D02*
X95388000Y-118478000D01*
X95388000Y-118478000D02*
X96188000Y-118478000D01*
X110988000Y-105678000D02*
X110188000Y-105678000D01*
X110988000Y-118478000D02*
X110988000Y-105678000D01*
X96188000Y-119078000D02*
X110188000Y-119078000D01*
X96188000Y-118478000D02*
X96188000Y-119078000D01*
X96188000Y-105678000D02*
X95388000Y-105678000D01*
X96188000Y-105078000D02*
X96188000Y-105678000D01*
X110188000Y-61927500D02*
X110188000Y-61327500D01*
X110188000Y-47927500D02*
X96188000Y-47927500D01*
X110188000Y-48527500D02*
X110188000Y-47927500D01*
X110188000Y-61327500D02*
X110988000Y-61327500D01*
X95388000Y-48527500D02*
X95388000Y-61327500D01*
X95388000Y-61327500D02*
X96188000Y-61327500D01*
X110988000Y-48527500D02*
X110188000Y-48527500D01*
X110988000Y-61327500D02*
X110988000Y-48527500D01*
X96188000Y-61927500D02*
X110188000Y-61927500D01*
X96188000Y-61327500D02*
X96188000Y-61927500D01*
X96188000Y-48527500D02*
X95388000Y-48527500D01*
X96188000Y-47927500D02*
X96188000Y-48527500D01*
X148288000Y-100027500D02*
X148288000Y-99427500D01*
X148288000Y-86027500D02*
X134288000Y-86027500D01*
X148288000Y-86627500D02*
X148288000Y-86027500D01*
X148288000Y-99427500D02*
X149088000Y-99427500D01*
X133488000Y-86627500D02*
X133488000Y-99427500D01*
X133488000Y-99427500D02*
X134288000Y-99427500D01*
X149088000Y-86627500D02*
X148288000Y-86627500D01*
X149088000Y-99427500D02*
X149088000Y-86627500D01*
X134288000Y-100027500D02*
X148288000Y-100027500D01*
X134288000Y-99427500D02*
X134288000Y-100027500D01*
X134288000Y-86627500D02*
X133488000Y-86627500D01*
X134288000Y-86027500D02*
X134288000Y-86627500D01*
X187134827Y-154310482D02*
X187388398Y-153766698D01*
X193051482Y-141622173D02*
X180363173Y-135705518D01*
X192797911Y-142165958D02*
X193051482Y-141622173D01*
X187388398Y-153766698D02*
X188113444Y-154104792D01*
X179384556Y-135911208D02*
X173975042Y-147511947D01*
X173975042Y-147511947D02*
X174700089Y-147850042D01*
X193522958Y-142504053D02*
X192797911Y-142165958D01*
X188113444Y-154104792D02*
X193522958Y-142504053D01*
X174446518Y-148393827D02*
X187134827Y-154310482D01*
X174700089Y-147850042D02*
X174446518Y-148393827D01*
X180109602Y-136249302D02*
X179384556Y-135911208D01*
X180363173Y-135705518D02*
X180109602Y-136249302D01*
X195184827Y-137045482D02*
X195438398Y-136501698D01*
X201101482Y-124357173D02*
X188413173Y-118440518D01*
X200847911Y-124900958D02*
X201101482Y-124357173D01*
X195438398Y-136501698D02*
X196163444Y-136839792D01*
X187434556Y-118646208D02*
X182025042Y-130246947D01*
X182025042Y-130246947D02*
X182750089Y-130585042D01*
X201572958Y-125239053D02*
X200847911Y-124900958D01*
X196163444Y-136839792D02*
X201572958Y-125239053D01*
X182496518Y-131128827D02*
X195184827Y-137045482D01*
X182750089Y-130585042D02*
X182496518Y-131128827D01*
X188159602Y-118984302D02*
X187434556Y-118646208D01*
X188413173Y-118440518D02*
X188159602Y-118984302D01*
X53325000Y-65737500D02*
X53325000Y-65137500D01*
X53325000Y-51737500D02*
X67325000Y-51737500D01*
X53325000Y-52337500D02*
X53325000Y-51737500D01*
X53325000Y-65137500D02*
X52525000Y-65137500D01*
X68125000Y-52337500D02*
X68125000Y-65137500D01*
X68125000Y-65137500D02*
X67325000Y-65137500D01*
X52525000Y-52337500D02*
X53325000Y-52337500D01*
X52525000Y-65137500D02*
X52525000Y-52337500D01*
X67325000Y-65737500D02*
X53325000Y-65737500D01*
X67325000Y-65137500D02*
X67325000Y-65737500D01*
X67325000Y-52337500D02*
X68125000Y-52337500D01*
X67325000Y-51737500D02*
X67325000Y-52337500D01*
X167338000Y-65737500D02*
X167338000Y-65137500D01*
X167338000Y-51737500D02*
X153338000Y-51737500D01*
X167338000Y-52337500D02*
X167338000Y-51737500D01*
X167338000Y-65137500D02*
X168138000Y-65137500D01*
X152538000Y-52337500D02*
X152538000Y-65137500D01*
X152538000Y-65137500D02*
X153338000Y-65137500D01*
X168138000Y-52337500D02*
X167338000Y-52337500D01*
X168138000Y-65137500D02*
X168138000Y-52337500D01*
X153338000Y-65737500D02*
X167338000Y-65737500D01*
X153338000Y-65137500D02*
X153338000Y-65737500D01*
X153338000Y-52337500D02*
X152538000Y-52337500D01*
X153338000Y-51737500D02*
X153338000Y-52337500D01*
X110188000Y-80977500D02*
X110188000Y-80377500D01*
X110188000Y-66977500D02*
X96188000Y-66977500D01*
X110188000Y-67577500D02*
X110188000Y-66977500D01*
X110188000Y-80377500D02*
X110988000Y-80377500D01*
X95388000Y-67577500D02*
X95388000Y-80377500D01*
X95388000Y-80377500D02*
X96188000Y-80377500D01*
X110988000Y-67577500D02*
X110188000Y-67577500D01*
X110988000Y-80377500D02*
X110988000Y-67577500D01*
X96188000Y-80977500D02*
X110188000Y-80977500D01*
X96188000Y-80377500D02*
X96188000Y-80977500D01*
X96188000Y-67577500D02*
X95388000Y-67577500D01*
X96188000Y-66977500D02*
X96188000Y-67577500D01*
X148288000Y-61927500D02*
X148288000Y-61327500D01*
X148288000Y-47927500D02*
X134288000Y-47927500D01*
X148288000Y-48527500D02*
X148288000Y-47927500D01*
X148288000Y-61327500D02*
X149088000Y-61327500D01*
X133488000Y-48527500D02*
X133488000Y-61327500D01*
X133488000Y-61327500D02*
X134288000Y-61327500D01*
X149088000Y-48527500D02*
X148288000Y-48527500D01*
X149088000Y-61327500D02*
X149088000Y-48527500D01*
X134288000Y-61927500D02*
X148288000Y-61927500D01*
X134288000Y-61327500D02*
X134288000Y-61927500D01*
X134288000Y-48527500D02*
X133488000Y-48527500D01*
X134288000Y-47927500D02*
X134288000Y-48527500D01*
X91137500Y-65737500D02*
X91137500Y-65137500D01*
X91137500Y-51737500D02*
X77137500Y-51737500D01*
X91137500Y-52337500D02*
X91137500Y-51737500D01*
X91137500Y-65137500D02*
X91937500Y-65137500D01*
X76337500Y-52337500D02*
X76337500Y-65137500D01*
X76337500Y-65137500D02*
X77137500Y-65137500D01*
X91937500Y-52337500D02*
X91137500Y-52337500D01*
X91937500Y-65137500D02*
X91937500Y-52337500D01*
X77137500Y-65737500D02*
X91137500Y-65737500D01*
X77137500Y-65137500D02*
X77137500Y-65737500D01*
X77137500Y-52337500D02*
X76337500Y-52337500D01*
X77137500Y-51737500D02*
X77137500Y-52337500D01*
X167338000Y-84787500D02*
X167338000Y-84187500D01*
X167338000Y-70787500D02*
X153338000Y-70787500D01*
X167338000Y-71387500D02*
X167338000Y-70787500D01*
X167338000Y-84187500D02*
X168138000Y-84187500D01*
X152538000Y-71387500D02*
X152538000Y-84187500D01*
X152538000Y-84187500D02*
X153338000Y-84187500D01*
X168138000Y-71387500D02*
X167338000Y-71387500D01*
X168138000Y-84187500D02*
X168138000Y-71387500D01*
X153338000Y-84787500D02*
X167338000Y-84787500D01*
X153338000Y-84187500D02*
X153338000Y-84787500D01*
X153338000Y-71387500D02*
X152538000Y-71387500D01*
X153338000Y-70787500D02*
X153338000Y-71387500D01*
X148288000Y-80977500D02*
X148288000Y-80377500D01*
X148288000Y-66977500D02*
X134288000Y-66977500D01*
X148288000Y-67577500D02*
X148288000Y-66977500D01*
X148288000Y-80377500D02*
X149088000Y-80377500D01*
X133488000Y-67577500D02*
X133488000Y-80377500D01*
X133488000Y-80377500D02*
X134288000Y-80377500D01*
X149088000Y-67577500D02*
X148288000Y-67577500D01*
X149088000Y-80377500D02*
X149088000Y-67577500D01*
X134288000Y-80977500D02*
X148288000Y-80977500D01*
X134288000Y-80377500D02*
X134288000Y-80977500D01*
X134288000Y-67577500D02*
X133488000Y-67577500D01*
X134288000Y-66977500D02*
X134288000Y-67577500D01*
X129238000Y-58117500D02*
X129238000Y-57517500D01*
X129238000Y-44117500D02*
X115238000Y-44117500D01*
X129238000Y-44717500D02*
X129238000Y-44117500D01*
X129238000Y-57517500D02*
X130038000Y-57517500D01*
X114438000Y-44717500D02*
X114438000Y-57517500D01*
X114438000Y-57517500D02*
X115238000Y-57517500D01*
X130038000Y-44717500D02*
X129238000Y-44717500D01*
X130038000Y-57517500D02*
X130038000Y-44717500D01*
X115238000Y-58117500D02*
X129238000Y-58117500D01*
X115238000Y-57517500D02*
X115238000Y-58117500D01*
X115238000Y-44717500D02*
X114438000Y-44717500D01*
X115238000Y-44117500D02*
X115238000Y-44717500D01*
X129238000Y-77167500D02*
X129238000Y-76567500D01*
X129238000Y-63167500D02*
X115238000Y-63167500D01*
X129238000Y-63767500D02*
X129238000Y-63167500D01*
X129238000Y-76567500D02*
X130038000Y-76567500D01*
X114438000Y-63767500D02*
X114438000Y-76567500D01*
X114438000Y-76567500D02*
X115238000Y-76567500D01*
X130038000Y-63767500D02*
X129238000Y-63767500D01*
X130038000Y-76567500D02*
X130038000Y-63767500D01*
X115238000Y-77167500D02*
X129238000Y-77167500D01*
X115238000Y-76567500D02*
X115238000Y-77167500D01*
X115238000Y-63767500D02*
X114438000Y-63767500D01*
X115238000Y-63167500D02*
X115238000Y-63767500D01*
X72087500Y-122888000D02*
X72087500Y-122288000D01*
X72087500Y-108888000D02*
X58087500Y-108888000D01*
X72087500Y-109488000D02*
X72087500Y-108888000D01*
X72087500Y-122288000D02*
X72887500Y-122288000D01*
X57287500Y-109488000D02*
X57287500Y-122288000D01*
X57287500Y-122288000D02*
X58087500Y-122288000D01*
X72887500Y-109488000D02*
X72087500Y-109488000D01*
X72887500Y-122288000D02*
X72887500Y-109488000D01*
X58087500Y-122888000D02*
X72087500Y-122888000D01*
X58087500Y-122288000D02*
X58087500Y-122888000D01*
X58087500Y-109488000D02*
X57287500Y-109488000D01*
X58087500Y-108888000D02*
X58087500Y-109488000D01*
X129238000Y-96217500D02*
X129238000Y-95617500D01*
X129238000Y-82217500D02*
X115238000Y-82217500D01*
X129238000Y-82817500D02*
X129238000Y-82217500D01*
X129238000Y-95617500D02*
X130038000Y-95617500D01*
X114438000Y-82817500D02*
X114438000Y-95617500D01*
X114438000Y-95617500D02*
X115238000Y-95617500D01*
X130038000Y-82817500D02*
X129238000Y-82817500D01*
X130038000Y-95617500D02*
X130038000Y-82817500D01*
X115238000Y-96217500D02*
X129238000Y-96217500D01*
X115238000Y-95617500D02*
X115238000Y-96217500D01*
X115238000Y-82817500D02*
X114438000Y-82817500D01*
X115238000Y-82217500D02*
X115238000Y-82817500D01*
X148224000Y-119014000D02*
X148224000Y-118414000D01*
X148224000Y-105014000D02*
X134224000Y-105014000D01*
X148224000Y-105614000D02*
X148224000Y-105014000D01*
X148224000Y-118414000D02*
X149024000Y-118414000D01*
X133424000Y-105614000D02*
X133424000Y-118414000D01*
X133424000Y-118414000D02*
X134224000Y-118414000D01*
X149024000Y-105614000D02*
X148224000Y-105614000D01*
X149024000Y-118414000D02*
X149024000Y-105614000D01*
X134224000Y-119014000D02*
X148224000Y-119014000D01*
X134224000Y-118414000D02*
X134224000Y-119014000D01*
X134224000Y-105614000D02*
X133424000Y-105614000D01*
X134224000Y-105014000D02*
X134224000Y-105614000D01*
X129174000Y-115204000D02*
X129174000Y-114604000D01*
X129174000Y-101204000D02*
X115174000Y-101204000D01*
X129174000Y-101804000D02*
X129174000Y-101204000D01*
X129174000Y-114604000D02*
X129974000Y-114604000D01*
X114374000Y-101804000D02*
X114374000Y-114604000D01*
X114374000Y-114604000D02*
X115174000Y-114604000D01*
X129974000Y-101804000D02*
X129174000Y-101804000D01*
X129974000Y-114604000D02*
X129974000Y-101804000D01*
X115174000Y-115204000D02*
X129174000Y-115204000D01*
X115174000Y-114604000D02*
X115174000Y-115204000D01*
X115174000Y-101804000D02*
X114374000Y-101804000D01*
X115174000Y-101204000D02*
X115174000Y-101804000D01*
X167338000Y-103837500D02*
X167338000Y-103237500D01*
X167338000Y-89837500D02*
X153338000Y-89837500D01*
X167338000Y-90437500D02*
X167338000Y-89837500D01*
X167338000Y-103237500D02*
X168138000Y-103237500D01*
X152538000Y-90437500D02*
X152538000Y-103237500D01*
X152538000Y-103237500D02*
X153338000Y-103237500D01*
X168138000Y-90437500D02*
X167338000Y-90437500D01*
X168138000Y-103237500D02*
X168138000Y-90437500D01*
X153338000Y-103837500D02*
X167338000Y-103837500D01*
X153338000Y-103237500D02*
X153338000Y-103837500D01*
X153338000Y-90437500D02*
X152538000Y-90437500D01*
X153338000Y-89837500D02*
X153338000Y-90437500D01*
X91137500Y-122888000D02*
X91137500Y-122288000D01*
X91137500Y-108888000D02*
X77137500Y-108888000D01*
X91137500Y-109488000D02*
X91137500Y-108888000D01*
X91137500Y-122288000D02*
X91937500Y-122288000D01*
X76337500Y-109488000D02*
X76337500Y-122288000D01*
X76337500Y-122288000D02*
X77137500Y-122288000D01*
X91937500Y-109488000D02*
X91137500Y-109488000D01*
X91937500Y-122288000D02*
X91937500Y-109488000D01*
X77137500Y-122888000D02*
X91137500Y-122888000D01*
X77137500Y-122288000D02*
X77137500Y-122888000D01*
X77137500Y-109488000D02*
X76337500Y-109488000D01*
X77137500Y-108888000D02*
X77137500Y-109488000D01*
X91137500Y-84787500D02*
X91137500Y-84187500D01*
X91137500Y-70787500D02*
X77137500Y-70787500D01*
X91137500Y-71387500D02*
X91137500Y-70787500D01*
X91137500Y-84187500D02*
X91937500Y-84187500D01*
X76337500Y-71387500D02*
X76337500Y-84187500D01*
X76337500Y-84187500D02*
X77137500Y-84187500D01*
X91937500Y-71387500D02*
X91137500Y-71387500D01*
X91937500Y-84187500D02*
X91937500Y-71387500D01*
X77137500Y-84787500D02*
X91137500Y-84787500D01*
X77137500Y-84187500D02*
X77137500Y-84787500D01*
X77137500Y-71387500D02*
X76337500Y-71387500D01*
X77137500Y-70787500D02*
X77137500Y-71387500D01*
X167338000Y-46687500D02*
X167338000Y-46087500D01*
X167338000Y-32687500D02*
X153338000Y-32687500D01*
X167338000Y-33287500D02*
X167338000Y-32687500D01*
X167338000Y-46087500D02*
X168138000Y-46087500D01*
X152538000Y-33287500D02*
X152538000Y-46087500D01*
X152538000Y-46087500D02*
X153338000Y-46087500D01*
X168138000Y-33287500D02*
X167338000Y-33287500D01*
X168138000Y-46087500D02*
X168138000Y-33287500D01*
X153338000Y-46687500D02*
X167338000Y-46687500D01*
X153338000Y-46087500D02*
X153338000Y-46687500D01*
X153338000Y-33287500D02*
X152538000Y-33287500D01*
X153338000Y-32687500D02*
X153338000Y-33287500D01*
X148288000Y-42877500D02*
X148288000Y-42277500D01*
X148288000Y-28877500D02*
X134288000Y-28877500D01*
X148288000Y-29477500D02*
X148288000Y-28877500D01*
X148288000Y-42277500D02*
X149088000Y-42277500D01*
X133488000Y-29477500D02*
X133488000Y-42277500D01*
X133488000Y-42277500D02*
X134288000Y-42277500D01*
X149088000Y-29477500D02*
X148288000Y-29477500D01*
X149088000Y-42277500D02*
X149088000Y-29477500D01*
X134288000Y-42877500D02*
X148288000Y-42877500D01*
X134288000Y-42277500D02*
X134288000Y-42877500D01*
X134288000Y-29477500D02*
X133488000Y-29477500D01*
X134288000Y-28877500D02*
X134288000Y-29477500D01*
X129238000Y-39067500D02*
X129238000Y-38467500D01*
X129238000Y-25067500D02*
X115238000Y-25067500D01*
X129238000Y-25667500D02*
X129238000Y-25067500D01*
X129238000Y-38467500D02*
X130038000Y-38467500D01*
X114438000Y-25667500D02*
X114438000Y-38467500D01*
X114438000Y-38467500D02*
X115238000Y-38467500D01*
X130038000Y-25667500D02*
X129238000Y-25667500D01*
X130038000Y-38467500D02*
X130038000Y-25667500D01*
X115238000Y-39067500D02*
X129238000Y-39067500D01*
X115238000Y-38467500D02*
X115238000Y-39067500D01*
X115238000Y-25667500D02*
X114438000Y-25667500D01*
X115238000Y-25067500D02*
X115238000Y-25667500D01*
X110188000Y-42877500D02*
X110188000Y-42277500D01*
X110188000Y-28877500D02*
X96188000Y-28877500D01*
X110188000Y-29477500D02*
X110188000Y-28877500D01*
X110188000Y-42277500D02*
X110988000Y-42277500D01*
X95388000Y-29477500D02*
X95388000Y-42277500D01*
X95388000Y-42277500D02*
X96188000Y-42277500D01*
X110988000Y-29477500D02*
X110188000Y-29477500D01*
X110988000Y-42277500D02*
X110988000Y-29477500D01*
X96188000Y-42877500D02*
X110188000Y-42877500D01*
X96188000Y-42277500D02*
X96188000Y-42877500D01*
X96188000Y-29477500D02*
X95388000Y-29477500D01*
X96188000Y-28877500D02*
X96188000Y-29477500D01*
X91137500Y-46687500D02*
X91137500Y-46087500D01*
X91137500Y-32687500D02*
X77137500Y-32687500D01*
X91137500Y-33287500D02*
X91137500Y-32687500D01*
X91137500Y-46087500D02*
X91937500Y-46087500D01*
X76337500Y-33287500D02*
X76337500Y-46087500D01*
X76337500Y-46087500D02*
X77137500Y-46087500D01*
X91937500Y-33287500D02*
X91137500Y-33287500D01*
X91937500Y-46087500D02*
X91937500Y-33287500D01*
X77137500Y-46687500D02*
X91137500Y-46687500D01*
X77137500Y-46087500D02*
X77137500Y-46687500D01*
X77137500Y-33287500D02*
X76337500Y-33287500D01*
X77137500Y-32687500D02*
X77137500Y-33287500D01*
X177920896Y-128993560D02*
X179812188Y-124937671D01*
X159153931Y-134337960D02*
X157759268Y-137328825D01*
X159833503Y-134654849D02*
X159153931Y-134337960D01*
X171693376Y-110642133D02*
X171149153Y-110388358D01*
X157387693Y-141320769D02*
X168988191Y-146730170D01*
X167123715Y-119020939D02*
X165232423Y-123076828D01*
X172031450Y-109917130D02*
X171693376Y-110642133D01*
X183631949Y-115326531D02*
X172031450Y-109917130D01*
X183293874Y-116051534D02*
X183631949Y-115326531D01*
X168497194Y-116075502D02*
X167123715Y-119020939D01*
X157725767Y-140595766D02*
X157387693Y-141320769D01*
X179812188Y-124937671D02*
X183837627Y-116305090D01*
X173895457Y-137626142D02*
X175786749Y-133570253D01*
X169326266Y-146005168D02*
X169870018Y-146258723D01*
X157759268Y-137328825D02*
X158438839Y-137645715D01*
X168988191Y-146730170D02*
X169326266Y-146005168D01*
X175786749Y-133570253D02*
X177920896Y-128993560D01*
X169212288Y-112767745D02*
X167817623Y-115758613D01*
X158438839Y-137645715D02*
X157181545Y-140341991D01*
X169891859Y-113084634D02*
X169212288Y-112767745D01*
X163098276Y-127653521D02*
X161206984Y-131709410D01*
X165232423Y-123076828D02*
X163098276Y-127653521D01*
X171149153Y-110388358D02*
X169891859Y-113084634D01*
X167817623Y-115758613D02*
X168497194Y-116075502D01*
X169870018Y-146258723D02*
X173895457Y-137626142D01*
X183837627Y-116305090D02*
X183293874Y-116051534D01*
X161206984Y-131709410D02*
X159833503Y-134654849D01*
X157181545Y-140341991D02*
X157725767Y-140595766D01*
X50944375Y-89837073D02*
X55419553Y-89837073D01*
X38169442Y-104587078D02*
X34869387Y-104587078D01*
X38169442Y-103837254D02*
X38169442Y-104587078D01*
X64944553Y-103236771D02*
X64944553Y-103837254D01*
X31094423Y-103236771D02*
X31094423Y-90437037D01*
X55419553Y-103837254D02*
X50944375Y-103837254D01*
X65744505Y-103236771D02*
X64944553Y-103236771D01*
X65744505Y-90437037D02*
X65744505Y-103236771D01*
X64944553Y-90437037D02*
X65744505Y-90437037D01*
X58669483Y-103837254D02*
X55419553Y-103837254D01*
X31894375Y-103236771D02*
X31094423Y-103236771D01*
X55419553Y-89837073D02*
X64944553Y-89837073D01*
X41419375Y-89837073D02*
X45894553Y-89837073D01*
X31894375Y-90437037D02*
X31894375Y-89837073D01*
X34869387Y-104587078D02*
X34869387Y-103837254D01*
X31094423Y-90437037D02*
X31894375Y-90437037D01*
X45894553Y-89837073D02*
X50944375Y-89837073D01*
X61969541Y-104587078D02*
X58669483Y-104587078D01*
X34869387Y-103837254D02*
X31894375Y-103837254D01*
X61969541Y-103837254D02*
X61969541Y-104587078D01*
X45894553Y-103837254D02*
X41419375Y-103837254D01*
X50944375Y-103837254D02*
X45894553Y-103837254D01*
X64944553Y-103837254D02*
X61969541Y-103837254D01*
X58669483Y-104587078D02*
X58669483Y-103837254D01*
X31894375Y-89837073D02*
X41419375Y-89837073D01*
X64944553Y-89837073D02*
X64944553Y-90437037D01*
X41419375Y-103837254D02*
X38169442Y-103837254D01*
X31894375Y-103837254D02*
X31894375Y-103236771D01*
X55706775Y-70787073D02*
X60181953Y-70787073D01*
X42931842Y-85537078D02*
X39631787Y-85537078D01*
X42931842Y-84787254D02*
X42931842Y-85537078D01*
X69706953Y-84186771D02*
X69706953Y-84787254D01*
X35856823Y-84186771D02*
X35856823Y-71387037D01*
X60181953Y-84787254D02*
X55706775Y-84787254D01*
X70506905Y-84186771D02*
X69706953Y-84186771D01*
X70506905Y-71387037D02*
X70506905Y-84186771D01*
X69706953Y-71387037D02*
X70506905Y-71387037D01*
X63431883Y-84787254D02*
X60181953Y-84787254D01*
X36656775Y-84186771D02*
X35856823Y-84186771D01*
X60181953Y-70787073D02*
X69706953Y-70787073D01*
X46181775Y-70787073D02*
X50656953Y-70787073D01*
X36656775Y-71387037D02*
X36656775Y-70787073D01*
X39631787Y-85537078D02*
X39631787Y-84787254D01*
X35856823Y-71387037D02*
X36656775Y-71387037D01*
X50656953Y-70787073D02*
X55706775Y-70787073D01*
X66731941Y-85537078D02*
X63431883Y-85537078D01*
X39631787Y-84787254D02*
X36656775Y-84787254D01*
X66731941Y-84787254D02*
X66731941Y-85537078D01*
X50656953Y-84787254D02*
X46181775Y-84787254D01*
X55706775Y-84787254D02*
X50656953Y-84787254D01*
X69706953Y-84787254D02*
X66731941Y-84787254D01*
X63431883Y-85537078D02*
X63431883Y-84787254D01*
X36656775Y-70787073D02*
X46181775Y-70787073D01*
X69706953Y-70787073D02*
X69706953Y-71387037D01*
X46181775Y-84787254D02*
X42931842Y-84787254D01*
X36656775Y-84787254D02*
X36656775Y-84186771D01*
X53100425Y-32687073D02*
X48625247Y-32687073D01*
X65875358Y-47437078D02*
X69175413Y-47437078D01*
X65875358Y-46687254D02*
X65875358Y-47437078D01*
X39100247Y-46086771D02*
X39100247Y-46687254D01*
X72950377Y-46086771D02*
X72950377Y-33287037D01*
X48625247Y-46687254D02*
X53100425Y-46687254D01*
X38300295Y-46086771D02*
X39100247Y-46086771D01*
X38300295Y-33287037D02*
X38300295Y-46086771D01*
X39100247Y-33287037D02*
X38300295Y-33287037D01*
X45375317Y-46687254D02*
X48625247Y-46687254D01*
X72150425Y-46086771D02*
X72950377Y-46086771D01*
X48625247Y-32687073D02*
X39100247Y-32687073D01*
X62625425Y-32687073D02*
X58150247Y-32687073D01*
X72150425Y-33287037D02*
X72150425Y-32687073D01*
X69175413Y-47437078D02*
X69175413Y-46687254D01*
X72950377Y-33287037D02*
X72150425Y-33287037D01*
X58150247Y-32687073D02*
X53100425Y-32687073D01*
X42075259Y-47437078D02*
X45375317Y-47437078D01*
X69175413Y-46687254D02*
X72150425Y-46687254D01*
X42075259Y-46687254D02*
X42075259Y-47437078D01*
X58150247Y-46687254D02*
X62625425Y-46687254D01*
X53100425Y-46687254D02*
X58150247Y-46687254D01*
X39100247Y-46687254D02*
X42075259Y-46687254D01*
X45375317Y-47437078D02*
X45375317Y-46687254D01*
X72150425Y-32687073D02*
X62625425Y-32687073D01*
X39100247Y-32687073D02*
X39100247Y-33287037D01*
X62625425Y-46687254D02*
X65875358Y-46687254D01*
X72150425Y-46687254D02*
X72150425Y-46086771D01*
M02*
