  0
SECTION
  2
HEADER
  9
$ACADVER
  1
AC1014
  9
$HANDSEED
  5
FFFF
  9
$MEASUREMENT
 70
     1
  0
ENDSEC
  0
SECTION
  2
TABLES
  0
TABLE
  2
VPORT
  5
8
330
0
100
AcDbSymbolTable
 70
     4
  0
VPORT
  5
2E
330
8
100
AcDbSymbolTableRecord
100
AcDbViewportTableRecord
  2
*ACTIVE
 70
     0
 10
0.0
 20
0.0
 11
1.0
 21
1.0
 12
210.0
 22
148.5
 13
0.0
 23
0.0
 14
10.0
 24
10.0
 15
10.0
 25
10.0
 16
0.0
 26
0.0
 36
1.0
 17
0.0
 27
0.0
 37
0.0
 40
341.0
 41
1.24
 42
50.0
 43
0.0
 44
0.0
 50
0.0
 51
0.0
 71
     0
 72
   100
 73
     1
 74
     3
 75
     0
 76
     0
 77
     0
 78
     0
  0
ENDTAB
  0
TABLE
  2
LTYPE
  5
5
330
0
100
AcDbSymbolTable
 70
     1
  0
LTYPE
  5
14
330
5
100
AcDbSymbolTableRecord
100
AcDbLinetypeTableRecord
  2
BYBLOCK
 70
     0
  3

 72
    65
 73
     0
 40
0.0
  0
LTYPE
  5
15
330
5
100
AcDbSymbolTableRecord
100
AcDbLinetypeTableRecord
  2
BYLAYER
 70
     0
  3

 72
    65
 73
     0
 40
0.0
  0
LTYPE
  5
16
330
5
100
AcDbSymbolTableRecord
100
AcDbLinetypeTableRecord
  2
CONTINUOUS
 70
     0
  3
Solid line
 72
    65
 73
     0
 40
0.0
  0
ENDTAB
  0
TABLE
  2
LAYER
  5
2
100
AcDbSymbolTable
 70
2
  0
LAYER
  5
50
100
AcDbSymbolTableRecord
100
AcDbLayerTableRecord
  2
0
 70
0
  6
CONTINUOUS
  0
LAYER
  5
51
100
AcDbSymbolTableRecord
100
AcDbLayerTableRecord
  2
Layer_1
 70
0
  6
CONTINUOUS
  0
ENDTAB
  0
TABLE
  2
STYLE
  5
3
330
0
100
AcDbSymbolTable
 70
     1
  0
STYLE
  5
11
330
3
100
AcDbSymbolTableRecord
100
AcDbTextStyleTableRecord
  2
STANDARD
 70
     0
 40
0.0
 41
1.0
 50
0.0
 71
     0
 42
2.5
  3
txt
  4

  0
ENDTAB
  0
TABLE
  2
VIEW
  5
6
330
0
100
AcDbSymbolTable
 70
     0
  0
ENDTAB
  0
TABLE
  2
UCS
  5
7
330
0
100
AcDbSymbolTable
 70
     0
  0
ENDTAB
  0
TABLE
  2
APPID
  5
9
330
0
100
AcDbSymbolTable
 70
     2
  0
APPID
  5
12
330
9
100
AcDbSymbolTableRecord
100
AcDbRegAppTableRecord
  2
ACAD
 70
     0
  0
ENDTAB
  0
TABLE
  2
DIMSTYLE
  5
A
330
0
100
AcDbSymbolTable
 70
     1
  0
DIMSTYLE
105
27
330
A
100
AcDbSymbolTableRecord
100
AcDbDimStyleTableRecord
  2
ISO-25
 70
     0
  3

  4

  5

  6

  7

 40
1.0
 41
2.5
 42
0.625
 43
3.75
 44
1.25
 45
0.0
 46
0.0
 47
0.0
 48
0.0
140
2.5
141
2.5
142
0.0
143
0.03937007874016
144
1.0
145
0.0
146
1.0
147
0.625
 71
     0
 72
     0
 73
     0
 74
     0
 75
     0
 76
     0
 77
     1
 78
     8
170
     0
171
     3
172
     1
173
     0
174
     0
175
     0
176
     0
177
     0
178
     0
270
     2
271
     2
272
     2
273
     2
274
     3
340
11
275
     0
280
     0
281
     0
282
     0
283
     0
284
     8
285
     0
286
     0
287
     3
288
     0
  0
ENDTAB
  0
TABLE
  2
BLOCK_RECORD
  5
1
330
0
100
AcDbSymbolTable
 70
     1
  0
BLOCK_RECORD
  5
1F
330
1
100
AcDbSymbolTableRecord
100
AcDbBlockTableRecord
  2
*MODEL_SPACE
  0
BLOCK_RECORD
  5
1B
330
1
100
AcDbSymbolTableRecord
100
AcDbBlockTableRecord
  2
*PAPER_SPACE
  0
ENDTAB
  0
ENDSEC
  0
SECTION
  2
BLOCKS
  0
BLOCK
  5
20
330
1F
100
AcDbEntity
  8
0
100
AcDbBlockBegin
  2
*MODEL_SPACE
 70
     0
 10
0.0
 20
0.0
 30
0.0
  3
*MODEL_SPACE
  1

  0
ENDBLK
  5
21
330
1F
100
AcDbEntity
  8
0
100
AcDbBlockEnd
  0
BLOCK
  5
1C
330
1B
100
AcDbEntity
 67
     1
  8
0
100
AcDbBlockBegin
  2
*PAPER_SPACE
  1

  0
ENDBLK
  5
1D
330
1B
100
AcDbEntity
 67
     1
  8
0
100
AcDbBlockEnd
  0
ENDSEC
  0
SECTION
  2
ENTITIES
  0
LINE
  5
100
100
AcDbEntity
  8
Layer_1
 62
2
100
AcDbLine
 10
95.410080
 20
194.651288
 30
0.0
 11
74.903704
 21
194.655124
 31
0.0
  0
LINE
  5
101
100
AcDbEntity
  8
Layer_1
 62
2
100
AcDbLine
 10
74.910821
 20
193.835077
 30
0.0
 11
74.903704
 21
194.655124
 31
0.0
  0
LINE
  5
102
100
AcDbEntity
  8
Layer_1
 62
2
100
AcDbLine
 10
71.613949
 20
194.653393
 30
0.0
 11
71.611927
 21
193.833936
 31
0.0
  0
LINE
  5
103
100
AcDbEntity
  8
Layer_1
 62
2
100
AcDbLine
 10
95.410080
 20
194.651288
 30
0.0
 11
95.408987
 21
193.835301
 31
0.0
  0
LINE
  5
104
100
AcDbEntity
  8
Layer_1
 62
2
100
AcDbLine
 10
71.611927
 20
193.833936
 30
0.0
 11
74.910821
 21
193.835077
 31
0.0
  0
LINE
  5
105
100
AcDbEntity
  8
Layer_1
 62
2
100
AcDbLine
 10
95.408987
 20
193.835301
 30
0.0
 11
98.709145
 21
193.834240
 31
0.0
  0
LINE
  5
106
100
AcDbEntity
  8
Layer_1
 62
2
100
AcDbLine
 10
98.709145
 20
193.834240
 30
0.0
 11
98.724706
 21
194.655647
 31
0.0
  0
LINE
  5
107
100
AcDbEntity
  8
Layer_1
 62
2
100
AcDbLine
 10
98.722506
 20
194.654377
 30
0.0
 11
101.724643
 21
194.651363
 31
0.0
  0
LINE
  5
108
100
AcDbEntity
  8
Layer_1
 62
2
100
AcDbLine
 10
67.875095
 20
195.251724
 30
0.0
 11
68.675003
 21
195.253081
 31
0.0
  0
LINE
  5
109
100
AcDbEntity
  8
Layer_1
 62
2
100
AcDbLine
 10
67.876071
 20
208.051621
 30
0.0
 11
67.875095
 21
195.251724
 31
0.0
  0
LINE
  5
10a
100
AcDbEntity
  8
Layer_1
 62
2
100
AcDbLine
 10
68.674264
 20
208.650306
 30
0.0
 11
68.673779
 21
208.051709
 31
0.0
  0
LINE
  5
10b
100
AcDbEntity
  8
Layer_1
 62
2
100
AcDbLine
 10
68.673779
 20
208.051709
 30
0.0
 11
67.876071
 21
208.051621
 31
0.0
  0
LINE
  5
10c
100
AcDbEntity
  8
Layer_1
 62
2
100
AcDbLine
 10
102.525038
 20
195.251319
 30
0.0
 11
102.523810
 21
208.049945
 31
0.0
  0
LINE
  5
10d
100
AcDbEntity
  8
Layer_1
 62
2
100
AcDbLine
 10
101.724643
 20
194.651363
 30
0.0
 11
101.726058
 21
195.253432
 31
0.0
  0
LINE
  5
10e
100
AcDbEntity
  8
Layer_1
 62
2
100
AcDbLine
 10
68.675789
 20
194.652282
 30
0.0
 11
71.613949
 21
194.653393
 31
0.0
  0
LINE
  5
10f
100
AcDbEntity
  8
Layer_1
 62
2
100
AcDbLine
 10
68.675003
 20
195.253081
 30
0.0
 11
68.675789
 21
194.652282
 31
0.0
  0
LINE
  5
110
100
AcDbEntity
  8
Layer_1
 62
2
100
AcDbLine
 10
101.725316
 20
208.650657
 30
0.0
 11
68.675194
 21
208.653776
 31
0.0
  0
LINE
  5
111
100
AcDbEntity
  8
Layer_1
 62
2
100
AcDbLine
 10
101.727031
 20
208.053327
 30
0.0
 11
101.725316
 21
208.650657
 31
0.0
  0
LINE
  5
112
100
AcDbEntity
  8
Layer_1
 62
2
100
AcDbLine
 10
102.523810
 20
208.049945
 30
0.0
 11
101.727031
 21
208.053327
 31
0.0
  0
LINE
  5
113
100
AcDbEntity
  8
Layer_1
 62
2
100
AcDbLine
 10
101.726058
 20
195.253432
 30
0.0
 11
102.525038
 21
195.251319
 31
0.0
  0
SPLINE
  5
114
100
AcDbEntity
  8
Layer_1
 62
7
100
AcDbSpline
 70
8
 71
3
 72
8
 73
4
 74
0
 40
0
 40
0
 40
0
 40
0
 40
1
 40
1
 40
1
 40
1
 10
86.200066
 20
201.243607
 30
0.0
 10
86.200066
 20
200.886341
 30
0.0
 10
86.009467
 20
200.556214
 30
0.0
 10
85.700066
 20
200.377582
 30
0.0
  0
SPLINE
  5
115
100
AcDbEntity
  8
Layer_1
 62
7
100
AcDbSpline
 70
8
 71
3
 72
8
 73
4
 74
0
 40
0
 40
0
 40
0
 40
0
 40
1
 40
1
 40
1
 40
1
 10
85.700066
 20
200.377582
 30
0.0
 10
85.390665
 20
200.198949
 30
0.0
 10
85.009467
 20
200.198949
 30
0.0
 10
84.700066
 20
200.377582
 30
0.0
  0
SPLINE
  5
116
100
AcDbEntity
  8
Layer_1
 62
7
100
AcDbSpline
 70
8
 71
3
 72
8
 73
4
 74
0
 40
0
 40
0
 40
0
 40
0
 40
1
 40
1
 40
1
 40
1
 10
84.700066
 20
200.377582
 30
0.0
 10
84.390665
 20
200.556214
 30
0.0
 10
84.200066
 20
200.886341
 30
0.0
 10
84.200066
 20
201.243607
 30
0.0
  0
SPLINE
  5
117
100
AcDbEntity
  8
Layer_1
 62
7
100
AcDbSpline
 70
8
 71
3
 72
8
 73
4
 74
0
 40
0
 40
0
 40
0
 40
0
 40
1
 40
1
 40
1
 40
1
 10
84.200066
 20
201.243607
 30
0.0
 10
84.200066
 20
201.600873
 30
0.0
 10
84.390665
 20
201.931000
 30
0.0
 10
84.700066
 20
202.109632
 30
0.0
  0
SPLINE
  5
118
100
AcDbEntity
  8
Layer_1
 62
7
100
AcDbSpline
 70
8
 71
3
 72
8
 73
4
 74
0
 40
0
 40
0
 40
0
 40
0
 40
1
 40
1
 40
1
 40
1
 10
84.700066
 20
202.109632
 30
0.0
 10
85.009467
 20
202.288265
 30
0.0
 10
85.390665
 20
202.288265
 30
0.0
 10
85.700066
 20
202.109632
 30
0.0
  0
SPLINE
  5
119
100
AcDbEntity
  8
Layer_1
 62
7
100
AcDbSpline
 70
8
 71
3
 72
8
 73
4
 74
0
 40
0
 40
0
 40
0
 40
0
 40
1
 40
1
 40
1
 40
1
 10
85.700066
 20
202.109632
 30
0.0
 10
86.009467
 20
201.931000
 30
0.0
 10
86.200066
 20
201.600873
 30
0.0
 10
86.200066
 20
201.243607
 30
0.0
  0
LINE
  5
11a
100
AcDbEntity
  8
Layer_1
 62
7
100
AcDbLine
 10
86.200066
 20
201.243607
 30
0.0
 11
86.200066
 21
201.243607
 31
0.0
  0
LINE
  5
11b
100
AcDbEntity
  8
Layer_1
 62
7
100
AcDbLine
 10
85.200067
 20
202.542902
 30
0.0
 11
85.200067
 21
199.944315
 31
0.0
  0
LINE
  5
11c
100
AcDbEntity
  8
Layer_1
 62
7
100
AcDbLine
 10
83.581857
 20
201.243608
 30
0.0
 11
86.818277
 21
201.243608
 31
0.0
  0
ENDSEC
  0
SECTION
  2
OBJECTS
  0
DICTIONARY
  5
C
330
0
100
AcDbDictionary
  3
ACAD_GROUP
350
D
  3
ACAD_MLINESTYLE
350
17
  0
DICTIONARY
  5
D
330
C
100
AcDbDictionary
  0
DICTIONARY
  5
1A
330
C
100
AcDbDictionary
  0
DICTIONARY
  5
17
330
C
100
AcDbDictionary
  3
STANDARD
350
18
  0
DICTIONARY
  5
19
330
C
100
AcDbDictionary
  0
ENDSEC
  0
EOF
