<svg version="1.1" xmlns="http://www.w3.org/2000/svg" xmlns:xlink="http://www.w3.org/1999/xlink" stroke-linecap="round" stroke-linejoin="round" stroke-width="0" fill-rule="evenodd" width="167.33874600000001mm" height="127.881458mm" viewBox="32975.55 -153522.758 167338.746 127881.458" id="FzNMidznODnRc-AmZgcK"><g transform="translate(0,-179164.05800000002) scale(1,-1)" fill="currentColor" stroke="currentColor"><path d="M 180677.109 -136569.198 192187.217 -141936.45 186819.965 -153446.558 175309.857 -148079.306 180677.109 -136569.198 M 96837.5 -29527.5 109537.5 -29527.5 109537.5 -42227.5 96837.5 -42227.5 96837.5 -29527.5 M 115887.5 -38417.5 115887.5 -25717.5 M 128587.5 -38417.5 115887.5 -38417.5 M 128587.5 -25717.5 128587.5 -38417.5 M 115887.5 -25717.5 128587.5 -25717.5 M 134937.5 -29527.5 147637.5 -29527.5 147637.5 -42227.5 134937.5 -42227.5 134937.5 -29527.5 M 153987.5 -33337.5 166687.5 -33337.5 166687.5 -46037.5 153987.5 -46037.5 153987.5 -33337.5 M 77787.5 -71437.5 90487.5 -71437.5 90487.5 -84137.5 77787.5 -84137.5 77787.5 -71437.5 M 77787.5 -122237.5 77787.5 -109537.5 M 90487.5 -122237.5 77787.5 -122237.5 M 90487.5 -109537.5 90487.5 -122237.5 M 77787.5 -109537.5 90487.5 -109537.5 M 153987.5 -103187.5 153987.5 -90487.5 M 166687.5 -103187.5 153987.5 -103187.5 M 166687.5 -90487.5 166687.5 -103187.5 M 153987.5 -90487.5 166687.5 -90487.5 M 115824 -114554 115824 -101854 M 128524 -114554 115824 -114554 M 128524 -101854 128524 -114554 M 115824 -101854 128524 -101854 M 134874 -118364 134874 -105664 M 147574 -118364 134874 -118364 M 147574 -105664 147574 -118364 M 134874 -105664 147574 -105664 M 115887.5 -82867.5 128587.5 -82867.5 128587.5 -95567.5 115887.5 -95567.5 115887.5 -82867.5 M 51593.75 -71437.5 64293.75 -71437.5 64293.75 -84137.5 51593.75 -84137.5 51593.75 -71437.5 M 58737.5 -122237.5 58737.5 -109537.5 M 71437.5 -122237.5 58737.5 -122237.5 M 71437.5 -109537.5 71437.5 -122237.5 M 58737.5 -109537.5 71437.5 -109537.5 M 115887.5 -63817.5 128587.5 -63817.5 128587.5 -76517.5 115887.5 -76517.5 115887.5 -63817.5 M 115887.5 -44767.5 128587.5 -44767.5 128587.5 -57467.5 115887.5 -57467.5 115887.5 -44767.5 M 37814.25 -87947.5 37814.25 -70167.5 M 68548.25 -87947.5 37814.25 -87947.5 M 68548.25 -70167.5 68548.25 -87947.5 M 61690.25 -70167.5 68548.25 -70167.5 M 61690.25 -85407.5 61690.25 -70167.5 M 44672.25 -85407.5 61690.25 -85407.5 M 44672.25 -70167.5 44672.25 -85407.5 M 37814.25 -70167.5 44672.25 -70167.5 M 59531.25 -84137.5 59531.25 -71437.5 M 46831.25 -84137.5 59531.25 -84137.5 M 46831.25 -71437.5 46831.25 -84137.5 M 59531.25 -71437.5 46831.25 -71437.5 M 58737.5 -46037.5 58737.5 -33337.5 M 71437.5 -46037.5 58737.5 -46037.5 M 71437.5 -33337.5 71437.5 -46037.5 M 58737.5 -33337.5 71437.5 -33337.5 M 134937.5 -80327.5 134937.5 -67627.5 M 147637.5 -80327.5 134937.5 -80327.5 M 147637.5 -67627.5 147637.5 -80327.5 M 134937.5 -67627.5 147637.5 -67627.5 M 153987.5 -71437.5 166687.5 -71437.5 166687.5 -84137.5 153987.5 -84137.5 153987.5 -71437.5 M 77787.5 -65087.5 77787.5 -52387.5 M 90487.5 -65087.5 77787.5 -65087.5 M 90487.5 -52387.5 90487.5 -65087.5 M 77787.5 -52387.5 90487.5 -52387.5 M 134937.5 -61277.5 134937.5 -48577.5 M 147637.5 -61277.5 134937.5 -61277.5 M 147637.5 -48577.5 147637.5 -61277.5 M 134937.5 -48577.5 147637.5 -48577.5 M 96837.5 -80327.5 96837.5 -67627.5 M 109537.5 -80327.5 96837.5 -80327.5 M 109537.5 -67627.5 109537.5 -80327.5 M 96837.5 -67627.5 109537.5 -67627.5 M 46831.25 -90487.5 59531.25 -90487.5 59531.25 -103187.5 46831.25 -103187.5 46831.25 -90487.5 M 68548.25 -89217.5 61690.25 -89217.5 61690.25 -104457.5 44672.25 -104457.5 44672.25 -89217.5 37814.25 -89217.5 37814.25 -106997.5 68548.25 -106997.5 68548.25 -89217.5 M 54768.75 -90487.5 42068.75 -90487.5 42068.75 -103187.5 54768.75 -103187.5 54768.75 -90487.5 M 33051.75 -89217.5 39909.75 -89217.5 39909.75 -104457.5 56927.75 -104457.5 56927.75 -89217.5 63785.75 -89217.5 63785.75 -106997.5 33051.75 -106997.5 33051.75 -89217.5 M 153987.5 -52387.5 166687.5 -52387.5 166687.5 -65087.5 153987.5 -65087.5 153987.5 -52387.5 M 188727.988 -119304.035 200238.096 -124671.287 194870.844 -136181.395 183360.736 -130814.143 188727.988 -119304.035 M 134937.5 -86677.5 147637.5 -86677.5 147637.5 -99377.5 134937.5 -99377.5 134937.5 -86677.5 M 96837.5 -48577.5 109537.5 -48577.5 109537.5 -61277.5 96837.5 -61277.5 96837.5 -48577.5 M 96837.5 -105727.5 109537.5 -105727.5 109537.5 -118427.5 96837.5 -118427.5 96837.5 -105727.5 M 96837.5 -99377.5 96837.5 -86677.5 M 109537.5 -99377.5 96837.5 -99377.5 M 109537.5 -86677.5 109537.5 -99377.5 M 96837.5 -86677.5 109537.5 -86677.5 M 77787.5 -103187.5 77787.5 -90487.5 M 90487.5 -103187.5 77787.5 -103187.5 M 90487.5 -90487.5 90487.5 -103187.5 M 77787.5 -90487.5 90487.5 -90487.5 M 77787.5 -33337.5 90487.5 -33337.5 90487.5 -46037.5 77787.5 -46037.5 77787.5 -33337.5 M 66675 -52387.5 53975 -52387.5 53975 -65087.5 66675 -65087.5 66675 -52387.5 M 171450.615 -111241.304 182960.723 -116608.556 177593.471 -128118.664 166083.363 -122751.412 171450.615 -111241.304 M 169542.593 -145383.827 158032.485 -140016.575 163399.737 -128506.467 174909.845 -133873.719 169542.593 -145383.827 M 178947.493 -125252.992 173580.241 -136763.1 162070.133 -131395.848 167437.385 -119885.74 178947.493 -125252.992 M 170920.504 -145472.003 173818.82 -139256.544 160006.689 -132815.842 167198.806 -117392.296 181010.937 -123832.998 183909.253 -117617.539 167795.101 -110103.387 154806.351 -137957.85 170920.504 -145472.003" fill="none" stroke-width="152.4"/></g></svg>