<svg version="1.1" xmlns="http://www.w3.org/2000/svg" xmlns:xlink="http://www.w3.org/1999/xlink" stroke-linecap="round" stroke-linejoin="round" stroke-width="0" fill-rule="evenodd" width="143.993155mm" height="124.57255mm" viewBox="46640.75 -139726.28 143993.155 124572.55" id="D0UqH6WKBgDITwgbaFwp"><g transform="translate(0,-154880.01) scale(1,-1)" fill="currentColor" stroke="currentColor"><path d="M 80803.75 -49180.75 85883.75 -49180.75 85883.75 -47656.75 80803.75 -47656.75 80803.75 -49180.75 81311.75 -49180.75 M 85502.75 -49180.75 85502.75 -47656.75 M 85629.75 -47656.75 85629.75 -49180.75 M 85756.75 -49180.75 85756.75 -47656.75 M 85375.75 -47656.75 85375.75 -49180.75 M 85248.75 -49180.75 85248.75 -47656.75 M 85121.75 -49180.75 85121.75 -47656.75 M 99853.75 -45370.75 104933.75 -45370.75 104933.75 -43846.75 99853.75 -43846.75 99853.75 -45370.75 100361.75 -45370.75 M 104552.75 -45370.75 104552.75 -43846.75 M 104679.75 -43846.75 104679.75 -45370.75 M 104806.75 -45370.75 104806.75 -43846.75 M 104425.75 -43846.75 104425.75 -45370.75 M 104298.75 -45370.75 104298.75 -43846.75 M 104171.75 -45370.75 104171.75 -43846.75 M 124015.5 -41560.75 124015.5 -40036.75 M 124142.5 -41560.75 124142.5 -40036.75 M 124269.5 -40036.75 124269.5 -41560.75 M 124650.5 -41560.75 124650.5 -40036.75 M 124523.5 -40036.75 124523.5 -41560.75 M 124396.5 -41560.75 124396.5 -40036.75 M 119697.5 -41560.75 120205.5 -41560.75 M 119697.5 -40036.75 119697.5 -41560.75 M 124777.5 -40036.75 119697.5 -40036.75 M 124777.5 -41560.75 124777.5 -40036.75 M 119697.5 -41560.75 124777.5 -41560.75 M 137953.75 -45370.75 143033.75 -45370.75 143033.75 -43846.75 137953.75 -43846.75 137953.75 -45370.75 138461.75 -45370.75 M 142652.75 -45370.75 142652.75 -43846.75 M 142779.75 -43846.75 142779.75 -45370.75 M 142906.75 -45370.75 142906.75 -43846.75 M 142525.75 -43846.75 142525.75 -45370.75 M 142398.75 -45370.75 142398.75 -43846.75 M 142271.75 -45370.75 142271.75 -43846.75 M 161321.75 -49180.75 161321.75 -47656.75 M 161448.75 -49180.75 161448.75 -47656.75 M 161575.75 -47656.75 161575.75 -49180.75 M 161956.75 -49180.75 161956.75 -47656.75 M 161829.75 -47656.75 161829.75 -49180.75 M 161702.75 -49180.75 161702.75 -47656.75 M 157003.75 -49180.75 157511.75 -49180.75 M 157003.75 -47656.75 157003.75 -49180.75 M 162083.75 -47656.75 157003.75 -47656.75 M 162083.75 -49180.75 162083.75 -47656.75 M 157003.75 -49180.75 162083.75 -49180.75 M 94424.5 -113315.75 92900.5 -113315.75 M 94424.5 -113188.75 92900.5 -113188.75 M 92900.5 -113061.75 94424.5 -113061.75 M 94424.5 -112680.75 92900.5 -112680.75 M 92900.5 -112807.75 94424.5 -112807.75 M 94424.5 -112934.75 92900.5 -112934.75 M 94424.5 -117633.75 94424.5 -117125.75 M 92900.5 -117633.75 94424.5 -117633.75 M 92900.5 -112553.75 92900.5 -117633.75 M 94424.5 -112553.75 92900.5 -112553.75 M 94424.5 -117633.75 94424.5 -112553.75 M 151892 -114554 151892 -109474 150368 -109474 150368 -114554 151892 -114554 151892 -114046 M 151892 -109855 150368 -109855 M 150368 -109728 151892 -109728 M 151892 -109601 150368 -109601 M 150368 -109982 151892 -109982 M 151892 -110109 150368 -110109 M 151892 -110236 150368 -110236 M 132334 -110236 132334 -105156 130810 -105156 130810 -110236 132334 -110236 132334 -109728 M 132334 -105537 130810 -105537 M 130810 -105410 132334 -105410 M 132334 -105283 130810 -105283 M 130810 -105664 132334 -105664 M 132334 -105791 130810 -105791 M 132334 -105918 130810 -105918 M 73787 -79533.75 73787 -74453.75 72263 -74453.75 72263 -79533.75 73787 -79533.75 73787 -79025.75 M 73787 -74834.75 72263 -74834.75 M 72263 -74707.75 73787 -74707.75 M 73787 -74580.75 72263 -74580.75 M 72263 -74961.75 73787 -74961.75 M 73787 -75088.75 72263 -75088.75 M 73787 -75215.75 72263 -75215.75 M 75374.5 -113315.75 73850.5 -113315.75 M 75374.5 -113188.75 73850.5 -113188.75 M 73850.5 -113061.75 75374.5 -113061.75 M 75374.5 -112680.75 73850.5 -112680.75 M 73850.5 -112807.75 75374.5 -112807.75 M 75374.5 -112934.75 73850.5 -112934.75 M 75374.5 -117633.75 75374.5 -117125.75 M 73850.5 -117633.75 75374.5 -117633.75 M 73850.5 -112553.75 73850.5 -117633.75 M 75374.5 -112553.75 73850.5 -112553.75 M 75374.5 -117633.75 75374.5 -112553.75 M 118903.75 -79660.75 123983.75 -79660.75 123983.75 -78136.75 118903.75 -78136.75 118903.75 -79660.75 119411.75 -79660.75 M 123602.75 -79660.75 123602.75 -78136.75 M 123729.75 -78136.75 123729.75 -79660.75 M 123856.75 -79660.75 123856.75 -78136.75 M 123475.75 -78136.75 123475.75 -79660.75 M 123348.75 -79660.75 123348.75 -78136.75 M 123221.75 -79660.75 123221.75 -78136.75 M 66071.75 -49180.75 66071.75 -47656.75 M 66198.75 -49180.75 66198.75 -47656.75 M 66325.75 -47656.75 66325.75 -49180.75 M 66706.75 -49180.75 66706.75 -47656.75 M 66579.75 -47656.75 66579.75 -49180.75 M 66452.75 -49180.75 66452.75 -47656.75 M 61753.75 -49180.75 62261.75 -49180.75 M 61753.75 -47656.75 61753.75 -49180.75 M 66833.75 -47656.75 61753.75 -47656.75 M 66833.75 -49180.75 66833.75 -47656.75 M 61753.75 -49180.75 66833.75 -49180.75 M 73787 -94265.75 72263 -94265.75 M 73787 -94138.75 72263 -94138.75 M 72263 -94011.75 73787 -94011.75 M 73787 -93630.75 72263 -93630.75 M 72263 -93757.75 73787 -93757.75 M 73787 -93884.75 72263 -93884.75 M 73787 -98583.75 73787 -98075.75 M 72263 -98583.75 73787 -98583.75 M 72263 -93503.75 72263 -98583.75 M 73787 -93503.75 72263 -93503.75 M 73787 -98583.75 73787 -93503.75 M 62103 -68230.75 62103 -66706.75 M 62230 -68230.75 62230 -66706.75 M 62357 -66706.75 62357 -68230.75 M 62738 -68230.75 62738 -66706.75 M 62611 -66706.75 62611 -68230.75 M 62484 -68230.75 62484 -66706.75 M 57785 -68230.75 58293 -68230.75 M 57785 -66706.75 57785 -68230.75 M 62865 -66706.75 57785 -66706.75 M 62865 -68230.75 62865 -66706.75 M 57785 -68230.75 62865 -68230.75 M 185310.791 -134192.756 189914.835 -136339.657 190558.905 -134958.444 185954.861 -132811.543 185310.791 -134192.756 185771.195 -134407.446 M 189569.53 -136178.639 190213.602 -134797.426 M 190328.703 -134851.099 189684.632 -136232.312 M 189799.734 -136285.983 190443.804 -134904.771 M 190098.501 -134743.754 189454.43 -136124.967 M 189339.329 -136071.294 189983.399 -134690.081 M 189224.228 -136017.622 189868.298 -134636.409 M 187974.459 -138517.075 188618.529 -137135.862 M 188089.56 -138570.747 188733.63 -137189.534 M 188848.732 -137243.207 188204.661 -138624.42 M 188549.965 -138785.436 189194.035 -137404.224 M 189078.934 -137350.552 188434.863 -138731.765 M 188319.761 -138678.092 188963.833 -137296.879 M 184061.022 -136692.209 184521.426 -136906.899 M 184705.092 -135310.996 184061.022 -136692.209 M 189309.136 -137457.897 184705.092 -135310.996 M 188665.066 -138839.11 189309.136 -137457.897 M 184061.022 -136692.209 188665.066 -138839.11 M 160120.004 -125007.657 162266.905 -120403.613 160885.692 -119759.543 158738.791 -124363.587 160120.004 -125007.657 160334.694 -124547.253 M 162105.887 -120748.918 160724.674 -120104.846 M 160778.347 -119989.745 162159.56 -120633.816 M 162213.231 -120518.714 160832.019 -119874.644 M 160671.002 -120219.947 162052.215 -120864.018 M 161998.542 -120979.119 160617.329 -120335.049 M 161944.87 -121094.22 160563.657 -120450.15 M 113474.5 -114617.5 113474.5 -109537.5 111950.5 -109537.5 111950.5 -114617.5 113474.5 -114617.5 113474.5 -114109.5 M 113474.5 -109918.5 111950.5 -109918.5 M 111950.5 -109791.5 113474.5 -109791.5 M 113474.5 -109664.5 111950.5 -109664.5 M 111950.5 -110045.5 113474.5 -110045.5 M 113474.5 -110172.5 111950.5 -110172.5 M 113474.5 -110299.5 111950.5 -110299.5 M 80010 -87280.75 85090 -87280.75 85090 -85756.75 80010 -85756.75 80010 -87280.75 80518 -87280.75 M 84709 -87280.75 84709 -85756.75 M 84836 -85756.75 84836 -87280.75 M 84963 -87280.75 84963 -85756.75 M 84582 -85756.75 84582 -87280.75 M 84455 -87280.75 84455 -85756.75 M 84328 -87280.75 84328 -85756.75 M 157003.75 -106330.75 162083.75 -106330.75 162083.75 -104806.75 157003.75 -104806.75 157003.75 -106330.75 157511.75 -106330.75 M 161702.75 -106330.75 161702.75 -104806.75 M 161829.75 -104806.75 161829.75 -106330.75 M 161956.75 -106330.75 161956.75 -104806.75 M 161575.75 -104806.75 161575.75 -106330.75 M 161448.75 -106330.75 161448.75 -104806.75 M 161321.75 -106330.75 161321.75 -104806.75 M 123221.75 -98710.75 123221.75 -97186.75 M 123348.75 -98710.75 123348.75 -97186.75 M 123475.75 -97186.75 123475.75 -98710.75 M 123856.75 -98710.75 123856.75 -97186.75 M 123729.75 -97186.75 123729.75 -98710.75 M 123602.75 -98710.75 123602.75 -97186.75 M 118903.75 -98710.75 119411.75 -98710.75 M 118903.75 -97186.75 118903.75 -98710.75 M 123983.75 -97186.75 118903.75 -97186.75 M 123983.75 -98710.75 123983.75 -97186.75 M 118903.75 -98710.75 123983.75 -98710.75 M 122428 -60610.75 122428 -59086.75 M 122555 -60610.75 122555 -59086.75 M 122682 -59086.75 122682 -60610.75 M 123063 -60610.75 123063 -59086.75 M 122936 -59086.75 122936 -60610.75 M 122809 -60610.75 122809 -59086.75 M 118110 -60610.75 118618 -60610.75 M 118110 -59086.75 118110 -60610.75 M 123190 -59086.75 118110 -59086.75 M 123190 -60610.75 123190 -59086.75 M 118110 -60610.75 123190 -60610.75 M 142271.75 -83470.75 142271.75 -81946.75 M 142398.75 -83470.75 142398.75 -81946.75 M 142525.75 -81946.75 142525.75 -83470.75 M 142906.75 -83470.75 142906.75 -81946.75 M 142779.75 -81946.75 142779.75 -83470.75 M 142652.75 -83470.75 142652.75 -81946.75 M 137953.75 -83470.75 138461.75 -83470.75 M 137953.75 -81946.75 137953.75 -83470.75 M 143033.75 -81946.75 137953.75 -81946.75 M 143033.75 -83470.75 143033.75 -81946.75 M 137953.75 -83470.75 143033.75 -83470.75 M 161321.75 -87280.75 161321.75 -85756.75 M 161448.75 -87280.75 161448.75 -85756.75 M 161575.75 -85756.75 161575.75 -87280.75 M 161956.75 -87280.75 161956.75 -85756.75 M 161829.75 -85756.75 161829.75 -87280.75 M 161702.75 -87280.75 161702.75 -85756.75 M 157003.75 -87280.75 157511.75 -87280.75 M 157003.75 -85756.75 157003.75 -87280.75 M 162083.75 -85756.75 157003.75 -85756.75 M 162083.75 -87280.75 162083.75 -85756.75 M 157003.75 -87280.75 162083.75 -87280.75 M 80803.75 -68230.75 85883.75 -68230.75 85883.75 -66706.75 80803.75 -66706.75 80803.75 -68230.75 81311.75 -68230.75 M 85502.75 -68230.75 85502.75 -66706.75 M 85629.75 -66706.75 85629.75 -68230.75 M 85756.75 -68230.75 85756.75 -66706.75 M 85375.75 -66706.75 85375.75 -68230.75 M 85248.75 -68230.75 85248.75 -66706.75 M 85121.75 -68230.75 85121.75 -66706.75 M 138747.5 -64420.75 143827.5 -64420.75 143827.5 -62896.75 138747.5 -62896.75 138747.5 -64420.75 139255.5 -64420.75 M 143446.5 -64420.75 143446.5 -62896.75 M 143573.5 -62896.75 143573.5 -64420.75 M 143700.5 -64420.75 143700.5 -62896.75 M 143319.5 -62896.75 143319.5 -64420.75 M 143192.5 -64420.75 143192.5 -62896.75 M 143065.5 -64420.75 143065.5 -62896.75 M 104171.75 -83470.75 104171.75 -81946.75 M 104298.75 -83470.75 104298.75 -81946.75 M 104425.75 -81946.75 104425.75 -83470.75 M 104806.75 -83470.75 104806.75 -81946.75 M 104679.75 -81946.75 104679.75 -83470.75 M 104552.75 -83470.75 104552.75 -81946.75 M 99853.75 -83470.75 100361.75 -83470.75 M 99853.75 -81946.75 99853.75 -83470.75 M 104933.75 -81946.75 99853.75 -81946.75 M 104933.75 -83470.75 104933.75 -81946.75 M 99853.75 -83470.75 104933.75 -83470.75 M 161321.75 -68230.75 161321.75 -66706.75 M 161448.75 -68230.75 161448.75 -66706.75 M 161575.75 -66706.75 161575.75 -68230.75 M 161956.75 -68230.75 161956.75 -66706.75 M 161829.75 -66706.75 161829.75 -68230.75 M 161702.75 -68230.75 161702.75 -66706.75 M 157003.75 -68230.75 157511.75 -68230.75 M 157003.75 -66706.75 157003.75 -68230.75 M 162083.75 -66706.75 157003.75 -66706.75 M 162083.75 -68230.75 162083.75 -66706.75 M 157003.75 -68230.75 162083.75 -68230.75 M 142271.75 -102520.75 142271.75 -100996.75 M 142398.75 -102520.75 142398.75 -100996.75 M 142525.75 -100996.75 142525.75 -102520.75 M 142906.75 -102520.75 142906.75 -100996.75 M 142779.75 -100996.75 142779.75 -102520.75 M 142652.75 -102520.75 142652.75 -100996.75 M 137953.75 -102520.75 138461.75 -102520.75 M 137953.75 -100996.75 137953.75 -102520.75 M 143033.75 -100996.75 137953.75 -100996.75 M 143033.75 -102520.75 143033.75 -100996.75 M 137953.75 -102520.75 143033.75 -102520.75 M 99853.75 -64420.75 104933.75 -64420.75 104933.75 -62896.75 99853.75 -62896.75 99853.75 -64420.75 100361.75 -64420.75 M 104552.75 -64420.75 104552.75 -62896.75 M 104679.75 -62896.75 104679.75 -64420.75 M 104806.75 -64420.75 104806.75 -62896.75 M 104425.75 -62896.75 104425.75 -64420.75 M 104298.75 -64420.75 104298.75 -62896.75 M 104171.75 -64420.75 104171.75 -62896.75 M 104171.75 -102520.75 104171.75 -100996.75 M 104298.75 -102520.75 104298.75 -100996.75 M 104425.75 -100996.75 104425.75 -102520.75 M 104806.75 -102520.75 104806.75 -100996.75 M 104679.75 -100996.75 104679.75 -102520.75 M 104552.75 -102520.75 104552.75 -100996.75 M 99853.75 -102520.75 100361.75 -102520.75 M 99853.75 -100996.75 99853.75 -102520.75 M 104933.75 -100996.75 99853.75 -100996.75 M 104933.75 -102520.75 104933.75 -100996.75 M 99853.75 -102520.75 104933.75 -102520.75 M 80010 -106330.75 85090 -106330.75 85090 -104806.75 80010 -104806.75 80010 -106330.75 80518 -106330.75 M 84709 -106330.75 84709 -104806.75 M 84836 -104806.75 84836 -106330.75 M 84963 -106330.75 84963 -104806.75 M 84582 -104806.75 84582 -106330.75 M 84455 -106330.75 84455 -104806.75 M 84328 -106330.75 84328 -104806.75" fill="none" stroke-width="150"/><path d="M 51593.75 -71437.5 53371.75 -71437.5 M 62515.75 -71437.5 64293.75 -71437.5 64293.75 -73215.5 M 64293.75 -82359.5 64293.75 -84137.5 62515.75 -84137.5 M 53371.75 -84137.5 51593.75 -84137.5 51593.75 -82359.5 M 51593.75 -73215.5 51593.75 -71437.5 M 46831.25 -90487.5 48609.25 -90487.5 M 57753.25 -90487.5 59531.25 -90487.5 59531.25 -92265.5 M 59531.25 -101409.5 59531.25 -103187.5 57753.25 -103187.5 M 48609.25 -103187.5 46831.25 -103187.5 46831.25 -101409.5 M 46831.25 -92265.5 46831.25 -90487.5" fill="none" stroke-width="381"/><path d="M 185279.497 -122454.203 183898.284 -121810.133 M 185333.169 -122339.102 183951.956 -121695.032 M 184005.629 -121579.93 185386.842 -122224.001 M 185547.859 -121878.697 184166.646 -121234.627 M 184112.974 -121349.728 185494.187 -121993.799 M 185440.514 -122108.9 184059.301 -121464.829 M 183454.631 -126367.64 183669.321 -125907.236 M 182073.418 -125723.57 183454.631 -126367.64 M 184220.319 -121119.526 182073.418 -125723.57 M 185601.532 -121763.596 184220.319 -121119.526 M 183454.631 -126367.64 185601.532 -121763.596 M 165756.62 -15228.73 160156.62 -15228.73 M 160156.62 -17228.73 160156.62 -15228.73 M 165756.62 -17228.73 165756.62 -15228.73 M 159906.62 -17228.73 159906.62 -29328.73 M 166006.62 -17228.73 166006.62 -29328.73 159906.62 -29328.73 M 166006.62 -17228.73 159906.62 -17228.73 M 82423.111 -50180.654 82423.111 -49380.654 82613.588 -49380.654 82727.873 -49418.75 82804.064 -49494.94 82842.159 -49571.13 82880.254 -49723.511 82880.254 -49837.797 82842.159 -49990.178 82804.064 -50066.369 82727.873 -50142.559 82613.588 -50180.654 82423.111 -50180.654 M 83032.635 -50256.845 83642.159 -50256.845 M 84251.683 -50180.654 83794.54 -50180.654 M 84023.111 -50180.654 84023.111 -49380.654 83946.921 -49494.94 83870.73 -49571.13 83794.54 -49609.226 M 101473.111 -46370.654 101473.111 -45570.654 101663.588 -45570.654 101777.873 -45608.75 101854.064 -45684.94 101892.159 -45761.13 101930.254 -45913.511 101930.254 -46027.797 101892.159 -46180.178 101854.064 -46256.369 101777.873 -46332.559 101663.588 -46370.654 101473.111 -46370.654 M 102082.635 -46446.845 102692.159 -46446.845 M 102844.54 -45646.845 102882.635 -45608.75 102958.826 -45570.654 103149.302 -45570.654 103225.492 -45608.75 103263.588 -45646.845 103301.683 -45723.035 103301.683 -45799.226 103263.588 -45913.511 102806.445 -46370.654 103301.683 -46370.654 M 121316.861 -42560.654 121316.861 -41760.654 121507.338 -41760.654 121621.623 -41798.75 121697.814 -41874.94 121735.909 -41951.13 121774.004 -42103.511 121774.004 -42217.797 121735.909 -42370.178 121697.814 -42446.369 121621.623 -42522.559 121507.338 -42560.654 121316.861 -42560.654 M 121926.385 -42636.845 122535.909 -42636.845 M 122650.195 -41760.654 123145.433 -41760.654 122878.766 -42065.416 122993.052 -42065.416 123069.242 -42103.511 123107.338 -42141.607 123145.433 -42217.797 123145.433 -42408.273 123107.338 -42484.464 123069.242 -42522.559 122993.052 -42560.654 122764.48 -42560.654 122688.29 -42522.559 122650.195 -42484.464 M 139573.111 -46370.654 139573.111 -45570.654 139763.588 -45570.654 139877.873 -45608.75 139954.064 -45684.94 139992.159 -45761.13 140030.254 -45913.511 140030.254 -46027.797 139992.159 -46180.178 139954.064 -46256.369 139877.873 -46332.559 139763.588 -46370.654 139573.111 -46370.654 M 140182.635 -46446.845 140792.159 -46446.845 M 141325.492 -45837.321 141325.492 -46370.654 M 141135.016 -45532.559 140944.54 -46103.988 141439.778 -46103.988 M 158623.111 -50180.654 158623.111 -49380.654 158813.588 -49380.654 158927.873 -49418.75 159004.064 -49494.94 159042.159 -49571.13 159080.254 -49723.511 159080.254 -49837.797 159042.159 -49990.178 159004.064 -50066.369 158927.873 -50142.559 158813.588 -50180.654 158623.111 -50180.654 M 159232.635 -50256.845 159842.159 -50256.845 M 160413.588 -49380.654 160032.635 -49380.654 159994.54 -49761.607 160032.635 -49723.511 160108.826 -49685.416 160299.302 -49685.416 160375.492 -49723.511 160413.588 -49761.607 160451.683 -49837.797 160451.683 -50028.273 160413.588 -50104.464 160375.492 -50142.559 160299.302 -50180.654 160108.826 -50180.654 160032.635 -50142.559 159994.54 -50104.464 M 95424.404 -116985.816 94624.404 -116985.816 94624.404 -116795.34 94662.5 -116681.054 94738.69 -116604.864 94814.88 -116566.769 94967.261 -116528.673 95081.547 -116528.673 95233.928 -116566.769 95310.119 -116604.864 95386.309 -116681.054 95424.404 -116795.34 95424.404 -116985.816 M 95500.595 -116376.292 95500.595 -115766.769 M 95195.833 -115614.388 95195.833 -115233.435 M 95424.404 -115690.578 94624.404 -115423.911 95424.404 -115157.245 M 95424.404 -114509.626 95424.404 -114890.578 94624.404 -114890.578 M 94624.404 -114357.245 94624.404 -113900.102 M 95424.404 -114128.673 94624.404 -114128.673 M 95424.404 -113214.388 95424.404 -113671.53 M 95424.404 -113442.959 94624.404 -113442.959 94738.69 -113519.15 94814.88 -113595.34 94852.976 -113671.53 M 152891.904 -115296.542 152091.904 -115296.542 152091.904 -115106.066 152130 -114991.78 152206.19 -114915.59 152282.38 -114877.495 152434.761 -114839.4 152549.047 -114839.4 152701.428 -114877.495 152777.619 -114915.59 152853.809 -114991.78 152891.904 -115106.066 152891.904 -115296.542 M 152968.095 -114687.019 152968.095 -114077.495 M 152891.904 -113887.019 152091.904 -113887.019 M 152396.666 -113887.019 152358.571 -113810.828 152358.571 -113658.447 152396.666 -113582.257 152434.761 -113544.161 152510.952 -113506.066 152739.523 -113506.066 152815.714 -113544.161 152853.809 -113582.257 152891.904 -113658.447 152891.904 -113810.828 152853.809 -113887.019 M 152891.904 -113048.923 152853.809 -113125.114 152815.714 -113163.209 152739.523 -113201.304 152510.952 -113201.304 152434.761 -113163.209 152396.666 -113125.114 152358.571 -113048.923 152358.571 -112934.638 152396.666 -112858.447 152434.761 -112820.352 152510.952 -112782.257 152739.523 -112782.257 152815.714 -112820.352 152853.809 -112858.447 152891.904 -112934.638 152891.904 -113048.923 M 152358.571 -112553.685 152358.571 -112248.923 M 152091.904 -112439.4 152777.619 -112439.4 152853.809 -112401.304 152891.904 -112325.114 152891.904 -112248.923 M 152968.095 -112172.733 152968.095 -111563.209 M 152891.904 -110953.685 152891.904 -111410.828 M 152891.904 -111182.257 152091.904 -111182.257 152206.19 -111258.447 152282.38 -111334.638 152320.476 -111410.828 M 152091.904 -110610.828 152739.523 -110610.828 152815.714 -110572.733 152853.809 -110534.638 152891.904 -110458.447 152891.904 -110306.066 152853.809 -110229.876 152815.714 -110191.78 152739.523 -110153.685 152091.904 -110153.685 M 152968.095 -109963.209 152968.095 -109353.685 M 152168.095 -109201.304 152130 -109163.209 152091.904 -109087.019 152091.904 -108896.542 152130 -108820.352 152168.095 -108782.257 152244.285 -108744.161 152320.476 -108744.161 152434.761 -108782.257 152891.904 -109239.4 152891.904 -108744.161 M 133333.904 -111016.638 132533.904 -111016.638 132533.904 -110826.161 132572 -110711.876 132648.19 -110635.685 132724.38 -110597.59 132876.761 -110559.495 132991.047 -110559.495 133143.428 -110597.59 133219.619 -110635.685 133295.809 -110711.876 133333.904 -110826.161 133333.904 -111016.638 M 133410.095 -110407.114 133410.095 -109797.59 M 132914.857 -109340.447 132952.952 -109226.161 132991.047 -109188.066 133067.238 -109149.971 133181.523 -109149.971 133257.714 -109188.066 133295.809 -109226.161 133333.904 -109302.352 133333.904 -109607.114 132533.904 -109607.114 132533.904 -109340.447 132572 -109264.257 132610.095 -109226.161 132686.285 -109188.066 132762.476 -109188.066 132838.666 -109226.161 132876.761 -109264.257 132914.857 -109340.447 132914.857 -109607.114 M 132800.571 -108807.114 133600.571 -108807.114 M 132838.666 -108807.114 132800.571 -108730.923 132800.571 -108578.542 132838.666 -108502.352 132876.761 -108464.257 132952.952 -108426.161 133181.523 -108426.161 133257.714 -108464.257 133295.809 -108502.352 133333.904 -108578.542 133333.904 -108730.923 133295.809 -108807.114 M 132800.571 -108197.59 132800.571 -107892.828 M 132533.904 -108083.304 133219.619 -108083.304 133295.809 -108045.209 133333.904 -107969.019 133333.904 -107892.828 M 133410.095 -107816.638 133410.095 -107207.114 M 133333.904 -106597.59 133333.904 -107054.733 M 133333.904 -106826.161 132533.904 -106826.161 132648.19 -106902.352 132724.38 -106978.542 132762.476 -107054.733 M 132533.904 -106254.733 133181.523 -106254.733 133257.714 -106216.638 133295.809 -106178.542 133333.904 -106102.352 133333.904 -105949.971 133295.809 -105873.78 133257.714 -105835.685 133181.523 -105797.59 132533.904 -105797.59 M 133410.095 -105607.114 133410.095 -104997.59 M 133333.904 -104388.066 133333.904 -104845.209 M 133333.904 -104616.638 132533.904 -104616.638 132648.19 -104692.828 132724.38 -104769.019 132762.476 -104845.209 M 74786.904 -79057.245 73986.904 -79057.245 73986.904 -78866.769 74025 -78752.483 74101.19 -78676.292 74177.38 -78638.197 74329.761 -78600.102 74444.047 -78600.102 74596.428 -78638.197 74672.619 -78676.292 74748.809 -78752.483 74786.904 -78866.769 74786.904 -79057.245 M 74863.095 -78447.721 74863.095 -77838.197 M 74710.714 -77190.578 74748.809 -77228.673 74786.904 -77342.959 74786.904 -77419.15 74748.809 -77533.435 74672.619 -77609.626 74596.428 -77647.721 74444.047 -77685.816 74329.761 -77685.816 74177.38 -77647.721 74101.19 -77609.626 74025 -77533.435 73986.904 -77419.15 73986.904 -77342.959 74025 -77228.673 74063.095 -77190.578 M 74558.333 -76885.816 74558.333 -76504.864 M 74786.904 -76962.007 73986.904 -76695.34 74786.904 -76428.673 M 74786.904 -76162.007 73986.904 -76162.007 73986.904 -75857.245 74025 -75781.054 74063.095 -75742.959 74139.285 -75704.864 74253.571 -75704.864 74329.761 -75742.959 74367.857 -75781.054 74405.952 -75857.245 74405.952 -76162.007 M 74786.904 -74942.959 74786.904 -75400.102 M 74786.904 -75171.53 73986.904 -75171.53 74101.19 -75247.721 74177.38 -75323.911 74215.476 -75400.102 M 76374.404 -117442.959 75574.404 -117442.959 75574.404 -117252.483 75612.5 -117138.197 75688.69 -117062.007 75764.88 -117023.911 75917.261 -116985.816 76031.547 -116985.816 76183.928 -117023.911 76260.119 -117062.007 76336.309 -117138.197 76374.404 -117252.483 76374.404 -117442.959 M 76450.595 -116833.435 76450.595 -116223.911 M 76298.214 -115576.292 76336.309 -115614.388 76374.404 -115728.673 76374.404 -115804.864 76336.309 -115919.15 76260.119 -115995.34 76183.928 -116033.435 76031.547 -116071.53 75917.261 -116071.53 75764.88 -116033.435 75688.69 -115995.34 75612.5 -115919.15 75574.404 -115804.864 75574.404 -115728.673 75612.5 -115614.388 75650.595 -115576.292 M 75574.404 -115347.721 75574.404 -114890.578 M 76374.404 -115119.15 75574.404 -115119.15 M 76374.404 -114166.769 75993.452 -114433.435 M 76374.404 -114623.911 75574.404 -114623.911 75574.404 -114319.15 75612.5 -114242.959 75650.595 -114204.864 75726.785 -114166.769 75841.071 -114166.769 75917.261 -114204.864 75955.357 -114242.959 75993.452 -114319.15 75993.452 -114623.911 M 76374.404 -113442.959 76374.404 -113823.911 75574.404 -113823.911 M 76374.404 -112757.245 76374.404 -113214.388 M 76374.404 -112985.816 75574.404 -112985.816 75688.69 -113062.007 75764.88 -113138.197 75802.976 -113214.388 M 120123.111 -80660.654 120123.111 -79860.654 120313.588 -79860.654 120427.873 -79898.75 120504.064 -79974.94 120542.159 -80051.13 120580.254 -80203.511 120580.254 -80317.797 120542.159 -80470.178 120504.064 -80546.369 120427.873 -80622.559 120313.588 -80660.654 120123.111 -80660.654 M 120732.635 -80736.845 121342.159 -80736.845 M 121532.635 -80660.654 121532.635 -79860.654 121723.111 -79860.654 121837.397 -79898.75 121913.588 -79974.94 121951.683 -80051.13 121989.778 -80203.511 121989.778 -80317.797 121951.683 -80470.178 121913.588 -80546.369 121837.397 -80622.559 121723.111 -80660.654 121532.635 -80660.654 M 122751.683 -80660.654 122294.54 -80660.654 M 122523.111 -80660.654 122523.111 -79860.654 122446.921 -79974.94 122370.73 -80051.13 122294.54 -80089.226 M 62230.254 -50180.654 62230.254 -49380.654 62420.73 -49380.654 62535.016 -49418.75 62611.207 -49494.94 62649.302 -49571.13 62687.397 -49723.511 62687.397 -49837.797 62649.302 -49990.178 62611.207 -50066.369 62535.016 -50142.559 62420.73 -50180.654 62230.254 -50180.654 M 62839.778 -50256.845 63449.302 -50256.845 M 63639.778 -49761.607 63906.445 -49761.607 M 64020.73 -50180.654 63639.778 -50180.654 63639.778 -49380.654 64020.73 -49380.654 M 64325.492 -50142.559 64439.778 -50180.654 64630.254 -50180.654 64706.445 -50142.559 64744.54 -50104.464 64782.635 -50028.273 64782.635 -49952.083 64744.54 -49875.892 64706.445 -49837.797 64630.254 -49799.702 64477.873 -49761.607 64401.683 -49723.511 64363.588 -49685.416 64325.492 -49609.226 64325.492 -49533.035 64363.588 -49456.845 64401.683 -49418.75 64477.873 -49380.654 64668.35 -49380.654 64782.635 -49418.75 M 65582.635 -50104.464 65544.54 -50142.559 65430.254 -50180.654 65354.064 -50180.654 65239.778 -50142.559 65163.588 -50066.369 65125.492 -49990.178 65087.397 -49837.797 65087.397 -49723.511 65125.492 -49571.13 65163.588 -49494.94 65239.778 -49418.75 65354.064 -49380.654 65430.254 -49380.654 65544.54 -49418.75 65582.635 -49456.845 M 66344.54 -50180.654 65887.397 -50180.654 M 66115.969 -50180.654 66115.969 -49380.654 66039.778 -49494.94 65963.588 -49571.13 65887.397 -49609.226 M 74786.904 -98907.245 73986.904 -98907.245 73986.904 -98716.769 74025 -98602.483 74101.19 -98526.292 74177.38 -98488.197 74329.761 -98450.102 74444.047 -98450.102 74596.428 -98488.197 74672.619 -98526.292 74748.809 -98602.483 74786.904 -98716.769 74786.904 -98907.245 M 74863.095 -98297.721 74863.095 -97688.197 M 74748.809 -97535.816 74786.904 -97421.53 74786.904 -97231.054 74748.809 -97154.864 74710.714 -97116.769 74634.523 -97078.673 74558.333 -97078.673 74482.142 -97116.769 74444.047 -97154.864 74405.952 -97231.054 74367.857 -97383.435 74329.761 -97459.626 74291.666 -97497.721 74215.476 -97535.816 74139.285 -97535.816 74063.095 -97497.721 74025 -97459.626 73986.904 -97383.435 73986.904 -97192.959 74025 -97078.673 M 74786.904 -96735.816 73986.904 -96735.816 M 74367.857 -96735.816 74367.857 -96278.673 M 74786.904 -96278.673 73986.904 -96278.673 M 74786.904 -95897.721 73986.904 -95897.721 M 74367.857 -95250.102 74367.857 -95516.769 M 74786.904 -95516.769 73986.904 -95516.769 73986.904 -95135.816 M 73986.904 -94945.34 73986.904 -94488.197 M 74786.904 -94716.769 73986.904 -94716.769 M 74863.095 -94412.007 74863.095 -93802.483 M 74786.904 -93192.959 74786.904 -93650.102 M 74786.904 -93421.53 73986.904 -93421.53 74101.19 -93497.721 74177.38 -93573.911 74215.476 -93650.102 M 58432.933 -69230.654 58432.933 -68430.654 58623.409 -68430.654 58737.695 -68468.75 58813.885 -68544.94 58851.98 -68621.13 58890.076 -68773.511 58890.076 -68887.797 58851.98 -69040.178 58813.885 -69116.369 58737.695 -69192.559 58623.409 -69230.654 58432.933 -69230.654 M 59042.457 -69306.845 59651.98 -69306.845 M 59728.171 -68697.321 60032.933 -68697.321 M 59842.457 -68430.654 59842.457 -69116.369 59880.552 -69192.559 59956.742 -69230.654 60032.933 -69230.654 M 60261.504 -69002.083 60642.457 -69002.083 M 60185.314 -69230.654 60451.98 -68430.654 60718.647 -69230.654 M 61251.98 -68811.607 61366.266 -68849.702 61404.361 -68887.797 61442.457 -68963.988 61442.457 -69078.273 61404.361 -69154.464 61366.266 -69192.559 61290.076 -69230.654 60985.314 -69230.654 60985.314 -68430.654 61251.98 -68430.654 61328.171 -68468.75 61366.266 -68506.845 61404.361 -68583.035 61404.361 -68659.226 61366.266 -68735.416 61328.171 -68773.511 61251.98 -68811.607 60985.314 -68811.607 M 62204.361 -69230.654 61747.219 -69230.654 M 61975.79 -69230.654 61975.79 -68430.654 61899.6 -68544.94 61823.409 -68621.13 61747.219 -68659.226 M 185078.39 -135187.658 185416.485 -134462.612 185589.115 -134543.111 185676.593 -134625.936 185713.446 -134727.187 185715.772 -134812.339 185685.899 -134966.543 185637.6 -135070.121 185538.675 -135192.125 185471.95 -135245.078 185370.698 -135281.93 185251.02 -135268.157 185078.39 -135187.658 M 185598.607 -135514.306 186151.023 -135771.902 M 186590.369 -135010.003 187004.681 -135203.2 M 186459.431 -135831.648 186797.525 -135106.602 M 186908.269 -136040.945 187246.363 -135315.898 M 187085.366 -135661.158 187499.678 -135854.355 M 187322.581 -136234.141 187660.676 -135509.095 M 188047.627 -136572.236 187633.315 -136379.039 M 187840.471 -136475.638 188178.566 -135750.591 188061.215 -135821.97 187959.963 -135858.822 187874.811 -135861.149 M 188153.532 -136705.687 188705.948 -136963.283 M 189290.564 -137151.827 188876.251 -136958.63 M 189083.408 -137055.228 189421.502 -136330.182 189304.151 -136401.561 189202.899 -136438.413 189117.748 -136440.74 M 183828.621 -137687.111 184166.716 -136962.065 184339.346 -137042.564 184426.824 -137125.389 184463.677 -137226.64 184466.003 -137311.792 184436.13 -137465.996 184387.831 -137569.574 184288.906 -137691.578 184222.181 -137744.531 184120.929 -137781.383 184001.251 -137767.61 183828.621 -137687.111 M 184348.838 -138013.759 184901.254 -138271.355 M 185340.6 -137509.456 185754.912 -137702.653 M 185209.662 -138331.101 185547.756 -137606.055 M 185658.5 -138540.398 185996.594 -137815.351 M 185835.597 -138160.611 186249.909 -138353.808 M 186072.812 -138733.594 186410.907 -138008.548 M 186797.858 -139071.689 186383.546 -138878.492 M 186590.702 -138975.091 186928.797 -138250.044 186811.446 -138321.423 186710.194 -138358.275 186625.042 -138360.602 M 186903.763 -139205.14 187456.179 -139462.736 M 187932.378 -138802.089 187983.003 -138783.662 188068.155 -138781.336 188240.785 -138861.835 188293.737 -138928.56 188312.164 -138979.186 188314.49 -139064.338 188282.291 -139133.39 188199.466 -139220.868 187591.956 -139441.983 188040.795 -139651.28 M 160994.158 -125499.002 160269.112 -125160.907 160349.611 -124988.277 160432.436 -124900.799 160533.687 -124863.946 160618.839 -124861.62 160773.043 -124891.493 160876.621 -124939.792 160998.625 -125038.717 161051.577 -125105.442 161088.43 -125206.694 161074.657 -125326.372 160994.158 -125499.002 M 161320.806 -124978.785 161578.402 -124426.369 M 161058.185 -124099.721 161186.983 -123823.513 M 160864.802 -123883.445 161486.271 -124173.24 161571.422 -124170.914 161638.148 -124117.961 161670.347 -124048.909 M 161783.045 -123807.227 161057.999 -123469.133 M 161927.943 -123496.493 161548.157 -123319.396 161463.005 -123321.723 161396.28 -123374.675 161347.981 -123478.253 161350.307 -123563.405 161368.733 -123614.03 M 162077.494 -123356.063 162335.09 -122803.646 M 161674.443 -122327.448 161656.016 -122276.822 161653.69 -122191.67 161734.188 -122019.04 161800.914 -121966.088 161851.54 -121947.662 161936.691 -121945.335 162005.744 -121977.535 162093.222 -122060.36 162314.337 -122667.869 162523.634 -122219.031 M 161943.485 -121570.202 162530.427 -121843.898 162615.579 -121841.571 162666.205 -121823.145 162732.93 -121770.193 162797.329 -121632.089 162795.003 -121546.937 162776.577 -121496.311 162723.624 -121429.586 162136.682 -121155.89 M 163199.823 -120768.938 163006.626 -121183.25 M 163103.224 -120976.094 162378.178 -120638 162449.557 -120755.351 162486.409 -120856.603 162488.736 -120941.754 M 114474.404 -114064.804 113674.404 -114064.804 113674.404 -113874.328 113712.5 -113760.042 113788.69 -113683.852 113864.88 -113645.757 114017.261 -113607.661 114131.547 -113607.661 114283.928 -113645.757 114360.119 -113683.852 114436.309 -113760.042 114474.404 -113874.328 114474.404 -114064.804 M 114550.595 -113455.28 114550.595 -112845.757 M 113674.404 -112731.471 114474.404 -112540.995 113902.976 -112388.614 114474.404 -112236.233 113674.404 -112045.757 M 114474.404 -111740.995 113674.404 -111740.995 M 114474.404 -111360.042 113674.404 -111360.042 114474.404 -110902.9 113674.404 -110902.9 M 114474.404 -110102.9 114474.404 -110560.042 M 114474.404 -110331.471 113674.404 -110331.471 113788.69 -110407.661 113864.88 -110483.852 113902.976 -110560.042 M 81591.266 -88280.654 81591.266 -87480.654 81781.742 -87480.654 81896.028 -87518.75 81972.219 -87594.94 82010.314 -87671.13 82048.409 -87823.511 82048.409 -87937.797 82010.314 -88090.178 81972.219 -88166.369 81896.028 -88242.559 81781.742 -88280.654 81591.266 -88280.654 M 82353.171 -88052.083 82734.123 -88052.083 M 82276.98 -88280.654 82543.647 -87480.654 82810.314 -88280.654 M 83496.028 -88280.654 83038.885 -88280.654 M 83267.457 -88280.654 83267.457 -87480.654 83191.266 -87594.94 83115.076 -87671.13 83038.885 -87709.226 M 158527.873 -107330.654 158527.873 -106530.654 158718.35 -106530.654 158832.635 -106568.75 158908.826 -106644.94 158946.921 -106721.13 158985.016 -106873.511 158985.016 -106987.797 158946.921 -107140.178 158908.826 -107216.369 158832.635 -107292.559 158718.35 -107330.654 158527.873 -107330.654 M 159594.54 -106911.607 159708.826 -106949.702 159746.921 -106987.797 159785.016 -107063.988 159785.016 -107178.273 159746.921 -107254.464 159708.826 -107292.559 159632.635 -107330.654 159327.873 -107330.654 159327.873 -106530.654 159594.54 -106530.654 159670.73 -106568.75 159708.826 -106606.845 159746.921 -106683.035 159746.921 -106759.226 159708.826 -106835.416 159670.73 -106873.511 159594.54 -106911.607 159327.873 -106911.607 M 160546.921 -107330.654 160089.778 -107330.654 M 160318.35 -107330.654 160318.35 -106530.654 160242.159 -106644.94 160165.969 -106721.13 160089.778 -106759.226 M 120427.873 -99710.654 120427.873 -98910.654 120618.35 -98910.654 120732.635 -98948.75 120808.826 -99024.94 120846.921 -99101.13 120885.016 -99253.511 120885.016 -99367.797 120846.921 -99520.178 120808.826 -99596.369 120732.635 -99672.559 120618.35 -99710.654 120427.873 -99710.654 M 121685.016 -99634.464 121646.921 -99672.559 121532.635 -99710.654 121456.445 -99710.654 121342.159 -99672.559 121265.969 -99596.369 121227.873 -99520.178 121189.778 -99367.797 121189.778 -99253.511 121227.873 -99101.13 121265.969 -99024.94 121342.159 -98948.75 121456.445 -98910.654 121532.635 -98910.654 121646.921 -98948.75 121685.016 -98986.845 M 122446.921 -99710.654 121989.778 -99710.654 M 122218.35 -99710.654 122218.35 -98910.654 122142.159 -99024.94 122065.969 -99101.13 121989.778 -99139.226 M 119672.219 -61610.654 119672.219 -60810.654 119862.695 -60810.654 119976.98 -60848.75 120053.171 -60924.94 120091.266 -61001.13 120129.361 -61153.511 120129.361 -61267.797 120091.266 -61420.178 120053.171 -61496.369 119976.98 -61572.559 119862.695 -61610.654 119672.219 -61610.654 M 120472.219 -61191.607 120738.885 -61191.607 M 120853.171 -61610.654 120472.219 -61610.654 120472.219 -60810.654 120853.171 -60810.654 M 121615.076 -61610.654 121157.933 -61610.654 M 121386.504 -61610.654 121386.504 -60810.654 121310.314 -60924.94 121234.123 -61001.13 121157.933 -61039.226 M 139535.016 -84470.654 139535.016 -83670.654 139725.492 -83670.654 139839.778 -83708.75 139915.969 -83784.94 139954.064 -83861.13 139992.159 -84013.511 139992.159 -84127.797 139954.064 -84280.178 139915.969 -84356.369 139839.778 -84432.559 139725.492 -84470.654 139535.016 -84470.654 M 140601.683 -84051.607 140335.016 -84051.607 M 140335.016 -84470.654 140335.016 -83670.654 140715.969 -83670.654 M 141439.778 -84470.654 140982.635 -84470.654 M 141211.207 -84470.654 141211.207 -83670.654 141135.016 -83784.94 141058.826 -83861.13 140982.635 -83899.226 M 158527.873 -88280.654 158527.873 -87480.654 158718.35 -87480.654 158832.635 -87518.75 158908.826 -87594.94 158946.921 -87671.13 158985.016 -87823.511 158985.016 -87937.797 158946.921 -88090.178 158908.826 -88166.369 158832.635 -88242.559 158718.35 -88280.654 158527.873 -88280.654 M 159746.921 -87518.75 159670.73 -87480.654 159556.445 -87480.654 159442.159 -87518.75 159365.969 -87594.94 159327.873 -87671.13 159289.778 -87823.511 159289.778 -87937.797 159327.873 -88090.178 159365.969 -88166.369 159442.159 -88242.559 159556.445 -88280.654 159632.635 -88280.654 159746.921 -88242.559 159785.016 -88204.464 159785.016 -87937.797 159632.635 -87937.797 M 160546.921 -88280.654 160089.778 -88280.654 M 160318.35 -88280.654 160318.35 -87480.654 160242.159 -87594.94 160165.969 -87671.13 160089.778 -87709.226 M 82308.826 -69230.654 82308.826 -68430.654 82499.302 -68430.654 82613.588 -68468.75 82689.778 -68544.94 82727.873 -68621.13 82765.969 -68773.511 82765.969 -68887.797 82727.873 -69040.178 82689.778 -69116.369 82613.588 -69192.559 82499.302 -69230.654 82308.826 -69230.654 M 83642.159 -69306.845 83565.969 -69268.75 83489.778 -69192.559 83375.492 -69078.273 83299.302 -69040.178 83223.111 -69040.178 M 83261.207 -69230.654 83185.016 -69192.559 83108.826 -69116.369 83070.73 -68963.988 83070.73 -68697.321 83108.826 -68544.94 83185.016 -68468.75 83261.207 -68430.654 83413.588 -68430.654 83489.778 -68468.75 83565.969 -68544.94 83604.064 -68697.321 83604.064 -68963.988 83565.969 -69116.369 83489.778 -69192.559 83413.588 -69230.654 83261.207 -69230.654 M 84365.969 -69230.654 83908.826 -69230.654 M 84137.397 -69230.654 84137.397 -68430.654 84061.207 -68544.94 83985.016 -68621.13 83908.826 -68659.226 M 140271.623 -65420.654 140271.623 -64620.654 140462.1 -64620.654 140576.385 -64658.75 140652.576 -64734.94 140690.671 -64811.13 140728.766 -64963.511 140728.766 -65077.797 140690.671 -65230.178 140652.576 -65306.369 140576.385 -65382.559 140462.1 -65420.654 140271.623 -65420.654 M 141528.766 -65420.654 141262.1 -65039.702 M 141071.623 -65420.654 141071.623 -64620.654 141376.385 -64620.654 141452.576 -64658.75 141490.671 -64696.845 141528.766 -64773.035 141528.766 -64887.321 141490.671 -64963.511 141452.576 -65001.607 141376.385 -65039.702 141071.623 -65039.702 M 142290.671 -65420.654 141833.528 -65420.654 M 142062.1 -65420.654 142062.1 -64620.654 141985.909 -64734.94 141909.719 -64811.13 141833.528 -64849.226 M 101396.921 -84470.654 101396.921 -83670.654 101587.397 -83670.654 101701.683 -83708.75 101777.873 -83784.94 101815.969 -83861.13 101854.064 -84013.511 101854.064 -84127.797 101815.969 -84280.178 101777.873 -84356.369 101701.683 -84432.559 101587.397 -84470.654 101396.921 -84470.654 M 102158.826 -84432.559 102273.111 -84470.654 102463.588 -84470.654 102539.778 -84432.559 102577.873 -84394.464 102615.969 -84318.273 102615.969 -84242.083 102577.873 -84165.892 102539.778 -84127.797 102463.588 -84089.702 102311.207 -84051.607 102235.016 -84013.511 102196.921 -83975.416 102158.826 -83899.226 102158.826 -83823.035 102196.921 -83746.845 102235.016 -83708.75 102311.207 -83670.654 102501.683 -83670.654 102615.969 -83708.75 M 103377.873 -84470.654 102920.73 -84470.654 M 103149.302 -84470.654 103149.302 -83670.654 103073.111 -83784.94 102996.921 -83861.13 102920.73 -83899.226 M 158623.111 -69230.654 158623.111 -68430.654 158813.588 -68430.654 158927.873 -68468.75 159004.064 -68544.94 159042.159 -68621.13 159080.254 -68773.511 159080.254 -68887.797 159042.159 -69040.178 159004.064 -69116.369 158927.873 -69192.559 158813.588 -69230.654 158623.111 -69230.654 M 159308.826 -68430.654 159765.969 -68430.654 M 159537.397 -69230.654 159537.397 -68430.654 M 160451.683 -69230.654 159994.54 -69230.654 M 160223.111 -69230.654 160223.111 -68430.654 160146.921 -68544.94 160070.73 -68621.13 159994.54 -68659.226 M 139535.016 -103520.654 139535.016 -102720.654 139725.492 -102720.654 139839.778 -102758.75 139915.969 -102834.94 139954.064 -102911.13 139992.159 -103063.511 139992.159 -103177.797 139954.064 -103330.178 139915.969 -103406.369 139839.778 -103482.559 139725.492 -103520.654 139535.016 -103520.654 M 140220.73 -102720.654 140487.397 -103520.654 140754.064 -102720.654 M 141439.778 -103520.654 140982.635 -103520.654 M 141211.207 -103520.654 141211.207 -102720.654 141135.016 -102834.94 141058.826 -102911.13 140982.635 -102949.226 M 101320.73 -65420.654 101320.73 -64620.654 101511.207 -64620.654 101625.492 -64658.75 101701.683 -64734.94 101739.778 -64811.13 101777.873 -64963.511 101777.873 -65077.797 101739.778 -65230.178 101701.683 -65306.369 101625.492 -65382.559 101511.207 -65420.654 101320.73 -65420.654 M 102044.54 -64620.654 102235.016 -65420.654 102387.397 -64849.226 102539.778 -65420.654 102730.254 -64620.654 M 103454.064 -65420.654 102996.921 -65420.654 M 103225.492 -65420.654 103225.492 -64620.654 103149.302 -64734.94 103073.111 -64811.13 102996.921 -64849.226 M 101396.921 -103520.654 101396.921 -102720.654 101587.397 -102720.654 101701.683 -102758.75 101777.873 -102834.94 101815.969 -102911.13 101854.064 -103063.511 101854.064 -103177.797 101815.969 -103330.178 101777.873 -103406.369 101701.683 -103482.559 101587.397 -103520.654 101396.921 -103520.654 M 102120.73 -102720.654 102654.064 -103520.654 M 102654.064 -102720.654 102120.73 -103520.654 M 103377.873 -103520.654 102920.73 -103520.654 M 103149.302 -103520.654 103149.302 -102720.654 103073.111 -102834.94 102996.921 -102911.13 102920.73 -102949.226 M 81553.171 -107330.654 81553.171 -106530.654 81743.647 -106530.654 81857.933 -106568.75 81934.123 -106644.94 81972.219 -106721.13 82010.314 -106873.511 82010.314 -106987.797 81972.219 -107140.178 81934.123 -107216.369 81857.933 -107292.559 81743.647 -107330.654 81553.171 -107330.654 M 82276.98 -106530.654 82810.314 -106530.654 82276.98 -107330.654 82810.314 -107330.654 M 83534.123 -107330.654 83076.98 -107330.654 M 83305.552 -107330.654 83305.552 -106530.654 83229.361 -106644.94 83153.171 -106721.13 83076.98 -106759.226" fill="none" stroke-width="150"/><path d="M 53335.464 -81537.023 53335.464 -80267.023 M 54206.321 -81537.023 53553.178 -80811.309 M 54206.321 -80267.023 53335.464 -80992.738 M 54496.607 -81657.976 55657.75 -81657.976 M 56891.464 -81416.071 56818.892 -81476.547 56601.178 -81537.023 56456.035 -81537.023 56238.321 -81476.547 56093.178 -81355.595 56020.607 -81234.642 55948.035 -80992.738 55948.035 -80811.309 56020.607 -80569.404 56093.178 -80448.452 56238.321 -80327.5 56456.035 -80267.023 56601.178 -80267.023 56818.892 -80327.5 56891.464 -80387.976 M 57472.035 -81174.166 58197.75 -81174.166 M 57326.892 -81537.023 57834.892 -80267.023 58342.892 -81537.023 M 58850.892 -81537.023 58850.892 -80267.023 59431.464 -80267.023 59576.607 -80327.5 59649.178 -80387.976 59721.75 -80508.928 59721.75 -80690.357 59649.178 -80811.309 59576.607 -80871.785 59431.464 -80932.261 58850.892 -80932.261 M 60302.321 -81476.547 60520.035 -81537.023 60882.892 -81537.023 61028.035 -81476.547 61100.607 -81416.071 61173.178 -81295.119 61173.178 -81174.166 61100.607 -81053.214 61028.035 -80992.738 60882.892 -80932.261 60592.607 -80871.785 60447.464 -80811.309 60374.892 -80750.833 60302.321 -80629.88 60302.321 -80508.928 60374.892 -80387.976 60447.464 -80327.5 60592.607 -80267.023 60955.464 -80267.023 61173.178 -80327.5 M 62624.607 -81537.023 61753.75 -81537.023 M 62189.178 -81537.023 62189.178 -80267.023 62044.035 -80448.452 61898.892 -80569.404 61753.75 -80629.88 M 48355.25 -100587.023 48355.25 -99317.023 M 49226.107 -100587.023 48572.964 -99861.309 M 49226.107 -99317.023 48355.25 -100042.738 M 49516.392 -100707.976 50677.535 -100707.976 M 50967.821 -100526.547 51185.535 -100587.023 51548.392 -100587.023 51693.535 -100526.547 51766.107 -100466.071 51838.678 -100345.119 51838.678 -100224.166 51766.107 -100103.214 51693.535 -100042.738 51548.392 -99982.261 51258.107 -99921.785 51112.964 -99861.309 51040.392 -99800.833 50967.821 -99679.88 50967.821 -99558.928 51040.392 -99437.976 51112.964 -99377.5 51258.107 -99317.023 51620.964 -99317.023 51838.678 -99377.5 M 52491.821 -100587.023 52491.821 -99317.023 M 52491.821 -99921.785 53362.678 -99921.785 M 53362.678 -100587.023 53362.678 -99317.023 M 54088.392 -100587.023 54088.392 -99317.023 M 55322.107 -99921.785 54814.107 -99921.785 M 54814.107 -100587.023 54814.107 -99317.023 55539.821 -99317.023 M 55902.678 -99317.023 56773.535 -99317.023 M 56338.107 -100587.023 56338.107 -99317.023 M 58079.821 -100587.023 57208.964 -100587.023 M 57644.392 -100587.023 57644.392 -99317.023 57499.25 -99498.452 57354.107 -99619.404 57208.964 -99679.88" fill="none" stroke-width="203.2"/><path d="M 184449.533 -126600.04 183724.487 -126261.945 183804.986 -126089.315 183887.811 -126001.837 183989.062 -125964.984 184074.214 -125962.658 184228.418 -125992.531 184331.996 -126040.83 184454 -126139.755 184506.953 -126206.48 184543.805 -126307.732 184530.032 -126427.41 184449.533 -126600.04 M 184776.181 -126079.823 185033.777 -125527.407 M 184271.878 -125088.061 184465.075 -124673.749 M 185093.523 -125218.999 184368.477 -124880.905 M 185302.82 -124770.161 184577.773 -124432.067 M 184923.033 -124593.064 185116.23 -124178.752 M 185496.016 -124355.849 184770.97 -124017.754 M 185834.111 -123630.803 185640.914 -124045.115 M 185737.513 -123837.959 185012.466 -123499.864 185083.845 -123617.215 185120.697 -123718.467 185123.024 -123803.619 M 185967.562 -123524.898 186225.158 -122972.482 M 185479.359 -122498.61 185688.656 -122049.772 185852.165 -122420.252 185900.465 -122316.674 185967.19 -122263.721 186017.816 -122245.295 186102.968 -122242.969 186275.598 -122323.467 186328.55 -122390.193 186346.976 -122440.819 186349.303 -122525.97 186252.704 -122733.126 186185.979 -122786.079 186135.353 -122804.505" fill="none" stroke-width="150"/><path d="M 165928.191 -131705.33 165021.883 -131282.712 M 166169.687 -131187.44 165470.674 -131334.361 M 165263.379 -130764.821 165539.773 -131524.208 M 166336.5 -131055.059 166658.495 -130364.539 M 165706.122 -129815.356 165947.618 -129297.466 M 166733.178 -129979.029 165826.87 -129556.411 M 166994.799 -129417.982 166088.491 -128995.363 M 166520.066 -129196.61 166761.562 -128678.72 M 167236.295 -128900.091 166329.987 -128477.473 M 166531.234 -128045.898 167264.911 -128388.018 167371.351 -128385.109 167434.633 -128362.077 167518.04 -128295.886 167598.539 -128123.256 167595.631 -128016.817 167572.598 -127953.534 167506.408 -127870.127 166772.73 -127528.008 M 167880.284 -127519.051 166973.977 -127096.433 167762.212 -127096.2 167255.722 -126492.228 168162.03 -126914.846 M 168029.417 -125959.797 168132.948 -125850.449 168196.231 -125827.416 168302.67 -125824.508 168432.143 -125884.882 168498.333 -125968.289 168521.366 -126031.571 168524.274 -126138.011 168363.277 -126483.271 167456.969 -126060.652 167597.842 -125758.55 167681.249 -125692.36 167744.531 -125669.327 167850.97 -125666.419 167937.286 -125706.668 168003.476 -125790.075 168026.509 -125853.357 168029.417 -125959.797 167888.544 -126261.899 M 168771.587 -125833 169093.582 -125142.48 M 168267.772 -124547.231 168244.74 -124483.949 168241.831 -124377.509 168342.455 -124161.722 168425.862 -124095.532 168489.144 -124072.499 168595.584 -124069.591 168681.899 -124109.84 168791.247 -124213.371 169067.641 -124972.758 169329.261 -124411.71 M 168604.076 -123600.674 169337.753 -123942.794 169444.193 -123939.886 169507.475 -123916.853 169590.882 -123850.662 169671.381 -123678.032 169668.473 -123571.593 169645.44 -123508.31 169579.25 -123424.904 168845.572 -123082.784 M 170174.498 -122599.095 169933.002 -123116.985 M 170053.75 -122858.04 169147.442 -122435.421 169236.665 -122582.11 169282.731 -122708.675 169285.639 -122815.114" fill="none" stroke-width="200"/></g></svg>