<svg version="1.1" xmlns="http://www.w3.org/2000/svg" xmlns:xlink="http://www.w3.org/1999/xlink" stroke-linecap="round" stroke-linejoin="round" stroke-width="0" fill-rule="evenodd" width="6.41005in" height="5.1034in" viewBox="1357.8 -5828.95 6410.05 5103.4" id="LUR7_zuqjs5fsQyGywiL"><defs><circle cx="0" cy="0" r="12.8" id="LUR7_zuqjs5fsQyGywiL_pad-1"/><circle cx="0" cy="0" r="15.75" id="LUR7_zuqjs5fsQyGywiL_pad-2"/><circle cx="0" cy="0" r="35.45" id="LUR7_zuqjs5fsQyGywiL_pad-3"/><circle cx="0" cy="0" r="60" id="LUR7_zuqjs5fsQyGywiL_pad-4"/><circle cx="0" cy="0" r="78.5" id="LUR7_zuqjs5fsQyGywiL_pad-5"/></defs><g transform="translate(0,-6554.5) scale(1,-1)" fill="currentColor" stroke="currentColor"><use xlink:href="#LUR7_zuqjs5fsQyGywiL_pad-1" x="3371.2" y="-881.1"/><use xlink:href="#LUR7_zuqjs5fsQyGywiL_pad-1" x="3598.8" y="-881.1"/><use xlink:href="#LUR7_zuqjs5fsQyGywiL_pad-2" x="6415.6" y="-741.3"/><use xlink:href="#LUR7_zuqjs5fsQyGywiL_pad-2" x="6415.6" y="-1016.9"/><use xlink:href="#LUR7_zuqjs5fsQyGywiL_pad-2" x="6415.6" y="-741.3"/><use xlink:href="#LUR7_zuqjs5fsQyGywiL_pad-2" x="6415.6" y="-1016.9"/><use xlink:href="#LUR7_zuqjs5fsQyGywiL_pad-3" x="5362.5" y="-2912.5"/><use xlink:href="#LUR7_zuqjs5fsQyGywiL_pad-3" x="5762.5" y="-2912.5"/><use xlink:href="#LUR7_zuqjs5fsQyGywiL_pad-3" x="4610" y="-4260"/><use xlink:href="#LUR7_zuqjs5fsQyGywiL_pad-3" x="5010" y="-4260"/><use xlink:href="#LUR7_zuqjs5fsQyGywiL_pad-3" x="7369.9" y="-4944.7"/><use xlink:href="#LUR7_zuqjs5fsQyGywiL_pad-3" x="7732.4" y="-5113.8"/><use xlink:href="#LUR7_zuqjs5fsQyGywiL_pad-3" x="4612.5" y="-2762.5"/><use xlink:href="#LUR7_zuqjs5fsQyGywiL_pad-3" x="5012.5" y="-2762.5"/><use xlink:href="#LUR7_zuqjs5fsQyGywiL_pad-3" x="3862.5" y="-2162.5"/><use xlink:href="#LUR7_zuqjs5fsQyGywiL_pad-3" x="4262.5" y="-2162.5"/><use xlink:href="#LUR7_zuqjs5fsQyGywiL_pad-3" x="3112.5" y="-1562.5"/><use xlink:href="#LUR7_zuqjs5fsQyGywiL_pad-3" x="3512.5" y="-1562.5"/><use xlink:href="#LUR7_zuqjs5fsQyGywiL_pad-3" x="2081.2" y="-3062.5"/><use xlink:href="#LUR7_zuqjs5fsQyGywiL_pad-3" x="2481.2" y="-3062.5"/><use xlink:href="#LUR7_zuqjs5fsQyGywiL_pad-3" x="3862.5" y="-1412.5"/><use xlink:href="#LUR7_zuqjs5fsQyGywiL_pad-3" x="4262.5" y="-1412.5"/><use xlink:href="#LUR7_zuqjs5fsQyGywiL_pad-3" x="6112.5" y="-2312.5"/><use xlink:href="#LUR7_zuqjs5fsQyGywiL_pad-3" x="6512.5" y="-2312.5"/><use xlink:href="#LUR7_zuqjs5fsQyGywiL_pad-3" x="3862.5" y="-3662.5"/><use xlink:href="#LUR7_zuqjs5fsQyGywiL_pad-3" x="4262.5" y="-3662.5"/><use xlink:href="#LUR7_zuqjs5fsQyGywiL_pad-3" x="3112.5" y="-4562.5"/><use xlink:href="#LUR7_zuqjs5fsQyGywiL_pad-3" x="3512.5" y="-4562.5"/><use xlink:href="#LUR7_zuqjs5fsQyGywiL_pad-3" x="3862.5" y="-2912.5"/><use xlink:href="#LUR7_zuqjs5fsQyGywiL_pad-3" x="4262.5" y="-2912.5"/><use xlink:href="#LUR7_zuqjs5fsQyGywiL_pad-3" x="4612.5" y="-2012.5"/><use xlink:href="#LUR7_zuqjs5fsQyGywiL_pad-3" x="5012.5" y="-2012.5"/><use xlink:href="#LUR7_zuqjs5fsQyGywiL_pad-3" x="6112.5" y="-3812.5"/><use xlink:href="#LUR7_zuqjs5fsQyGywiL_pad-3" x="6512.5" y="-3812.5"/><use xlink:href="#LUR7_zuqjs5fsQyGywiL_pad-3" x="3112.5" y="-2312.5"/><use xlink:href="#LUR7_zuqjs5fsQyGywiL_pad-3" x="3512.5" y="-2312.5"/><use xlink:href="#LUR7_zuqjs5fsQyGywiL_pad-3" x="6628.4" y="-5233.4"/><use xlink:href="#LUR7_zuqjs5fsQyGywiL_pad-3" x="6797.5" y="-4870.9"/><use xlink:href="#LUR7_zuqjs5fsQyGywiL_pad-3" x="3112.5" y="-3062.5"/><use xlink:href="#LUR7_zuqjs5fsQyGywiL_pad-3" x="3512.5" y="-3062.5"/><use xlink:href="#LUR7_zuqjs5fsQyGywiL_pad-3" x="5362.5" y="-2162.5"/><use xlink:href="#LUR7_zuqjs5fsQyGywiL_pad-3" x="5762.5" y="-2162.5"/><use xlink:href="#LUR7_zuqjs5fsQyGywiL_pad-3" x="5360" y="-4410"/><use xlink:href="#LUR7_zuqjs5fsQyGywiL_pad-3" x="5760" y="-4410"/><use xlink:href="#LUR7_zuqjs5fsQyGywiL_pad-3" x="1893.8" y="-3812.5"/><use xlink:href="#LUR7_zuqjs5fsQyGywiL_pad-3" x="2293.7" y="-3812.5"/><use xlink:href="#LUR7_zuqjs5fsQyGywiL_pad-3" x="6112.5" y="-1562.5"/><use xlink:href="#LUR7_zuqjs5fsQyGywiL_pad-3" x="6512.5" y="-1562.5"/><use xlink:href="#LUR7_zuqjs5fsQyGywiL_pad-3" x="6112.5" y="-3062.5"/><use xlink:href="#LUR7_zuqjs5fsQyGywiL_pad-3" x="6512.5" y="-3062.5"/><use xlink:href="#LUR7_zuqjs5fsQyGywiL_pad-3" x="2362.5" y="-1562.5"/><use xlink:href="#LUR7_zuqjs5fsQyGywiL_pad-3" x="2762.5" y="-1562.5"/><use xlink:href="#LUR7_zuqjs5fsQyGywiL_pad-3" x="3112.5" y="-3812.5"/><use xlink:href="#LUR7_zuqjs5fsQyGywiL_pad-3" x="3512.5" y="-3812.5"/><use xlink:href="#LUR7_zuqjs5fsQyGywiL_pad-3" x="6372.7" y="-5307"/><use xlink:href="#LUR7_zuqjs5fsQyGywiL_pad-3" x="6735.2" y="-5476.1"/><use xlink:href="#LUR7_zuqjs5fsQyGywiL_pad-3" x="4612.5" y="-1262.5"/><use xlink:href="#LUR7_zuqjs5fsQyGywiL_pad-3" x="5012.5" y="-1262.5"/><use xlink:href="#LUR7_zuqjs5fsQyGywiL_pad-3" x="1706.3" y="-3812.5"/><use xlink:href="#LUR7_zuqjs5fsQyGywiL_pad-3" x="2106.2" y="-3812.5"/><use xlink:href="#LUR7_zuqjs5fsQyGywiL_pad-3" x="1893.8" y="-3062.5"/><use xlink:href="#LUR7_zuqjs5fsQyGywiL_pad-3" x="2293.7" y="-3062.5"/><use xlink:href="#LUR7_zuqjs5fsQyGywiL_pad-3" x="6689.7" y="-4627.3"/><use xlink:href="#LUR7_zuqjs5fsQyGywiL_pad-3" x="7052.2" y="-4796.3"/><use xlink:href="#LUR7_zuqjs5fsQyGywiL_pad-3" x="4612.5" y="-3512.5"/><use xlink:href="#LUR7_zuqjs5fsQyGywiL_pad-3" x="5012.5" y="-3512.5"/><use xlink:href="#LUR7_zuqjs5fsQyGywiL_pad-3" x="5362.5" y="-1412.5"/><use xlink:href="#LUR7_zuqjs5fsQyGywiL_pad-3" x="5762.5" y="-1412.5"/><use xlink:href="#LUR7_zuqjs5fsQyGywiL_pad-3" x="5362.5" y="-3662.5"/><use xlink:href="#LUR7_zuqjs5fsQyGywiL_pad-3" x="5762.5" y="-3662.5"/><use xlink:href="#LUR7_zuqjs5fsQyGywiL_pad-3" x="2362.5" y="-4562.5"/><use xlink:href="#LUR7_zuqjs5fsQyGywiL_pad-3" x="2762.5" y="-4562.5"/><use xlink:href="#LUR7_zuqjs5fsQyGywiL_pad-3" x="7052.9" y="-5624.4"/><use xlink:href="#LUR7_zuqjs5fsQyGywiL_pad-3" x="7415.5" y="-5793.5"/><use xlink:href="#LUR7_zuqjs5fsQyGywiL_pad-3" x="3862.5" y="-4412.5"/><use xlink:href="#LUR7_zuqjs5fsQyGywiL_pad-3" x="4262.5" y="-4412.5"/><use xlink:href="#LUR7_zuqjs5fsQyGywiL_pad-3" x="2175" y="-2312.5"/><use xlink:href="#LUR7_zuqjs5fsQyGywiL_pad-3" x="2575" y="-2312.5"/><use xlink:href="#LUR7_zuqjs5fsQyGywiL_pad-4" x="6763.5" y="-5594.3"/><use xlink:href="#LUR7_zuqjs5fsQyGywiL_pad-4" x="7160.8" y="-4742.4"/><use xlink:href="#LUR7_zuqjs5fsQyGywiL_pad-4" x="1623.8" y="-3537.5"/><use xlink:href="#LUR7_zuqjs5fsQyGywiL_pad-4" x="2563.7" y="-3537.5"/><use xlink:href="#LUR7_zuqjs5fsQyGywiL_pad-4" x="1436.3" y="-3537.5"/><use xlink:href="#LUR7_zuqjs5fsQyGywiL_pad-4" x="2376.2" y="-3537.5"/><use xlink:href="#LUR7_zuqjs5fsQyGywiL_pad-4" x="1623.8" y="-2787.5"/><use xlink:href="#LUR7_zuqjs5fsQyGywiL_pad-4" x="2563.7" y="-2787.5"/><use xlink:href="#LUR7_zuqjs5fsQyGywiL_pad-5" x="6312.5" y="-1562.5"/><use xlink:href="#LUR7_zuqjs5fsQyGywiL_pad-5" x="6312.5" y="-3062.5"/><use xlink:href="#LUR7_zuqjs5fsQyGywiL_pad-5" x="2562.5" y="-1562.5"/><use xlink:href="#LUR7_zuqjs5fsQyGywiL_pad-5" x="3312.5" y="-3812.5"/><use xlink:href="#LUR7_zuqjs5fsQyGywiL_pad-5" x="6554" y="-5391.5"/><use xlink:href="#LUR7_zuqjs5fsQyGywiL_pad-5" x="4812.5" y="-1262.5"/><use xlink:href="#LUR7_zuqjs5fsQyGywiL_pad-5" x="1436.3" y="-4137.5"/><use xlink:href="#LUR7_zuqjs5fsQyGywiL_pad-5" x="1906.2" y="-3812.5"/><use xlink:href="#LUR7_zuqjs5fsQyGywiL_pad-5" x="2376.2" y="-4137.5"/><use xlink:href="#LUR7_zuqjs5fsQyGywiL_pad-5" x="1623.8" y="-3387.5"/><use xlink:href="#LUR7_zuqjs5fsQyGywiL_pad-5" x="2093.8" y="-3062.5"/><use xlink:href="#LUR7_zuqjs5fsQyGywiL_pad-5" x="2563.7" y="-3387.5"/><use xlink:href="#LUR7_zuqjs5fsQyGywiL_pad-5" x="6870.9" y="-4711.8"/><use xlink:href="#LUR7_zuqjs5fsQyGywiL_pad-5" x="4812.5" y="-3512.5"/><use xlink:href="#LUR7_zuqjs5fsQyGywiL_pad-5" x="5562.5" y="-1412.5"/><use xlink:href="#LUR7_zuqjs5fsQyGywiL_pad-5" x="5562.5" y="-3662.5"/><use xlink:href="#LUR7_zuqjs5fsQyGywiL_pad-5" x="2562.5" y="-4562.5"/><use xlink:href="#LUR7_zuqjs5fsQyGywiL_pad-5" x="7234.2" y="-5709"/><use xlink:href="#LUR7_zuqjs5fsQyGywiL_pad-5" x="4062.5" y="-4412.5"/><use xlink:href="#LUR7_zuqjs5fsQyGywiL_pad-5" x="2375" y="-2312.5"/><use xlink:href="#LUR7_zuqjs5fsQyGywiL_pad-5" x="5562.5" y="-2912.5"/><use xlink:href="#LUR7_zuqjs5fsQyGywiL_pad-5" x="4810" y="-4260"/><use xlink:href="#LUR7_zuqjs5fsQyGywiL_pad-5" x="7551.2" y="-5029.2"/><use xlink:href="#LUR7_zuqjs5fsQyGywiL_pad-5" x="4812.5" y="-2762.5"/><use xlink:href="#LUR7_zuqjs5fsQyGywiL_pad-5" x="4062.5" y="-2162.5"/><use xlink:href="#LUR7_zuqjs5fsQyGywiL_pad-5" x="3312.5" y="-1562.5"/><use xlink:href="#LUR7_zuqjs5fsQyGywiL_pad-5" x="2281.2" y="-3062.5"/><use xlink:href="#LUR7_zuqjs5fsQyGywiL_pad-5" x="4062.5" y="-1412.5"/><use xlink:href="#LUR7_zuqjs5fsQyGywiL_pad-5" x="6312.5" y="-2312.5"/><use xlink:href="#LUR7_zuqjs5fsQyGywiL_pad-5" x="4062.5" y="-3662.5"/><use xlink:href="#LUR7_zuqjs5fsQyGywiL_pad-5" x="3312.5" y="-4562.5"/><use xlink:href="#LUR7_zuqjs5fsQyGywiL_pad-5" x="4062.5" y="-2912.5"/><use xlink:href="#LUR7_zuqjs5fsQyGywiL_pad-5" x="4812.5" y="-2012.5"/><use xlink:href="#LUR7_zuqjs5fsQyGywiL_pad-5" x="6312.5" y="-3812.5"/><use xlink:href="#LUR7_zuqjs5fsQyGywiL_pad-5" x="3312.5" y="-2312.5"/><use xlink:href="#LUR7_zuqjs5fsQyGywiL_pad-5" x="6219.8" y="-5340.8"/><use xlink:href="#LUR7_zuqjs5fsQyGywiL_pad-5" x="6617" y="-4488.8"/><use xlink:href="#LUR7_zuqjs5fsQyGywiL_pad-5" x="6712.9" y="-5052.1"/><use xlink:href="#LUR7_zuqjs5fsQyGywiL_pad-5" x="3312.5" y="-3062.5"/><use xlink:href="#LUR7_zuqjs5fsQyGywiL_pad-5" x="5562.5" y="-2162.5"/><use xlink:href="#LUR7_zuqjs5fsQyGywiL_pad-5" x="5560" y="-4410"/><use xlink:href="#LUR7_zuqjs5fsQyGywiL_pad-5" x="1623.8" y="-4137.5"/><use xlink:href="#LUR7_zuqjs5fsQyGywiL_pad-5" x="2093.8" y="-3812.5"/><use xlink:href="#LUR7_zuqjs5fsQyGywiL_pad-5" x="2563.7" y="-4137.5"/></g></svg>