<svg version="1.1" xmlns="http://www.w3.org/2000/svg" xmlns:xlink="http://www.w3.org/1999/xlink" stroke-linecap="round" stroke-linejoin="round" stroke-width="0" fill-rule="evenodd" width="6.6968000000000005in" height="4.99745in" viewBox="1062.15 -5711.25 6696.8 4997.45" id="Gsw3_5726crmVsQmWWzy"><defs><circle cx="0" cy="0" r="5.9" id="Gsw3_5726crmVsQmWWzy_pad-1"/><circle cx="0" cy="0" r="7.85" id="Gsw3_5726crmVsQmWWzy_pad-2"/><circle cx="0" cy="0" r="15" id="Gsw3_5726crmVsQmWWzy_pad-4"/><circle cx="0" cy="0" r="19.7" id="Gsw3_5726crmVsQmWWzy_pad-5"/><circle cx="0" cy="0" r="29.55" id="Gsw3_5726crmVsQmWWzy_pad-6"/><circle cx="0" cy="0" r="30" id="Gsw3_5726crmVsQmWWzy_pad-7"/></defs><g transform="translate(0,-6425.05) scale(1,-1)" fill="currentColor" stroke="currentColor"><use xlink:href="#Gsw3_5726crmVsQmWWzy_pad-1" x="5130" y="-2890"/><use xlink:href="#Gsw3_5726crmVsQmWWzy_pad-1" x="3480" y="-1035"/><use xlink:href="#Gsw3_5726crmVsQmWWzy_pad-1" x="2362.5" y="-1385"/><use xlink:href="#Gsw3_5726crmVsQmWWzy_pad-1" x="1875" y="-1495"/><use xlink:href="#Gsw3_5726crmVsQmWWzy_pad-2" x="1070" y="-1640"/><use xlink:href="#Gsw3_5726crmVsQmWWzy_pad-2" x="1070" y="-1680"/><use xlink:href="#Gsw3_5726crmVsQmWWzy_pad-2" x="1785" y="-2575"/><use xlink:href="#Gsw3_5726crmVsQmWWzy_pad-2" x="1808.6" y="-1956.4"/><use xlink:href="#Gsw3_5726crmVsQmWWzy_pad-2" x="1815" y="-2525"/><use xlink:href="#Gsw3_5726crmVsQmWWzy_pad-2" x="1855" y="-1955"/><use xlink:href="#Gsw3_5726crmVsQmWWzy_pad-2" x="1865" y="-2520"/><use xlink:href="#Gsw3_5726crmVsQmWWzy_pad-2" x="1905" y="-1955"/><use xlink:href="#Gsw3_5726crmVsQmWWzy_pad-2" x="2015" y="-990"/><use xlink:href="#Gsw3_5726crmVsQmWWzy_pad-2" x="2105" y="-1615"/><use xlink:href="#Gsw3_5726crmVsQmWWzy_pad-2" x="2205" y="-2475"/><use xlink:href="#Gsw3_5726crmVsQmWWzy_pad-2" x="2245" y="-2555"/><use xlink:href="#Gsw3_5726crmVsQmWWzy_pad-2" x="2260" y="-2340"/><use xlink:href="#Gsw3_5726crmVsQmWWzy_pad-2" x="2305" y="-2525"/><use xlink:href="#Gsw3_5726crmVsQmWWzy_pad-2" x="2890" y="-2730"/><use xlink:href="#Gsw3_5726crmVsQmWWzy_pad-2" x="2905" y="-2685"/><use xlink:href="#Gsw3_5726crmVsQmWWzy_pad-2" x="2965" y="-2220"/><use xlink:href="#Gsw3_5726crmVsQmWWzy_pad-2" x="3025" y="-3450"/><use xlink:href="#Gsw3_5726crmVsQmWWzy_pad-2" x="3315" y="-1050"/><use xlink:href="#Gsw3_5726crmVsQmWWzy_pad-2" x="3347.5" y="-1220"/><use xlink:href="#Gsw3_5726crmVsQmWWzy_pad-2" x="3400" y="-1035"/><use xlink:href="#Gsw3_5726crmVsQmWWzy_pad-2" x="3520" y="-1242.5"/><use xlink:href="#Gsw3_5726crmVsQmWWzy_pad-2" x="3575" y="-1047.5"/><use xlink:href="#Gsw3_5726crmVsQmWWzy_pad-2" x="3665" y="-1047.5"/><use xlink:href="#Gsw3_5726crmVsQmWWzy_pad-2" x="3705" y="-2075"/><use xlink:href="#Gsw3_5726crmVsQmWWzy_pad-2" x="3765" y="-2730"/><use xlink:href="#Gsw3_5726crmVsQmWWzy_pad-2" x="3776.4" y="-1153.9"/><use xlink:href="#Gsw3_5726crmVsQmWWzy_pad-2" x="5290" y="-2692.5"/><use xlink:href="#Gsw3_5726crmVsQmWWzy_pad-2" x="6410" y="-1125"/><use xlink:href="#Gsw3_5726crmVsQmWWzy_pad-2" x="6415" y="-925"/><use xlink:href="#Gsw3_5726crmVsQmWWzy_pad-2" x="6420" y="-805"/><use xlink:href="#Gsw3_5726crmVsQmWWzy_pad-4" x="6777.1" y="-5219.1"/><use xlink:href="#Gsw3_5726crmVsQmWWzy_pad-4" x="6841.9" y="-5221.8"/><use xlink:href="#Gsw3_5726crmVsQmWWzy_pad-4" x="6882.1" y="-4994"/><use xlink:href="#Gsw3_5726crmVsQmWWzy_pad-4" x="6925.8" y="-5041.9"/><use xlink:href="#Gsw3_5726crmVsQmWWzy_pad-5" x="7259.9" y="-5233.4"/><use xlink:href="#Gsw3_5726crmVsQmWWzy_pad-5" x="7538.2" y="-5363.1"/><use xlink:href="#Gsw3_5726crmVsQmWWzy_pad-5" x="6127.7" y="-2656.2"/><use xlink:href="#Gsw3_5726crmVsQmWWzy_pad-5" x="6434.8" y="-2656.2"/><use xlink:href="#Gsw3_5726crmVsQmWWzy_pad-5" x="2377.7" y="-1906.2"/><use xlink:href="#Gsw3_5726crmVsQmWWzy_pad-5" x="2684.8" y="-1906.2"/><use xlink:href="#Gsw3_5726crmVsQmWWzy_pad-5" x="3687.5" y="-4377.7"/><use xlink:href="#Gsw3_5726crmVsQmWWzy_pad-5" x="3687.5" y="-4684.8"/><use xlink:href="#Gsw3_5726crmVsQmWWzy_pad-5" x="4596.5" y="-2356.2"/><use xlink:href="#Gsw3_5726crmVsQmWWzy_pad-5" x="4903.5" y="-2356.2"/><use xlink:href="#Gsw3_5726crmVsQmWWzy_pad-5" x="4437.5" y="-4259"/><use xlink:href="#Gsw3_5726crmVsQmWWzy_pad-5" x="4437.5" y="-4566"/><use xlink:href="#Gsw3_5726crmVsQmWWzy_pad-5" x="6127.7" y="-3406.2"/><use xlink:href="#Gsw3_5726crmVsQmWWzy_pad-5" x="6434.8" y="-3406.2"/><use xlink:href="#Gsw3_5726crmVsQmWWzy_pad-5" x="3877.7" y="-3256.3"/><use xlink:href="#Gsw3_5726crmVsQmWWzy_pad-5" x="4184.8" y="-3256.3"/><use xlink:href="#Gsw3_5726crmVsQmWWzy_pad-5" x="4627.7" y="-3106.2"/><use xlink:href="#Gsw3_5726crmVsQmWWzy_pad-5" x="4934.8" y="-3106.2"/><use xlink:href="#Gsw3_5726crmVsQmWWzy_pad-5" x="3877.7" y="-1756.2"/><use xlink:href="#Gsw3_5726crmVsQmWWzy_pad-5" x="4184.8" y="-1756.2"/><use xlink:href="#Gsw3_5726crmVsQmWWzy_pad-5" x="4627.7" y="-3856.2"/><use xlink:href="#Gsw3_5726crmVsQmWWzy_pad-5" x="4934.8" y="-3856.2"/><use xlink:href="#Gsw3_5726crmVsQmWWzy_pad-5" x="2221.5" y="-2656.2"/><use xlink:href="#Gsw3_5726crmVsQmWWzy_pad-5" x="2528.5" y="-2656.2"/><use xlink:href="#Gsw3_5726crmVsQmWWzy_pad-5" x="5377.7" y="-4006.2"/><use xlink:href="#Gsw3_5726crmVsQmWWzy_pad-5" x="5684.8" y="-4006.2"/><use xlink:href="#Gsw3_5726crmVsQmWWzy_pad-5" x="5950" y="-4256.5"/><use xlink:href="#Gsw3_5726crmVsQmWWzy_pad-5" x="5950" y="-4563.5"/><use xlink:href="#Gsw3_5726crmVsQmWWzy_pad-5" x="3127.7" y="-2656.2"/><use xlink:href="#Gsw3_5726crmVsQmWWzy_pad-5" x="3434.8" y="-2656.2"/><use xlink:href="#Gsw3_5726crmVsQmWWzy_pad-5" x="2937.5" y="-4377.7"/><use xlink:href="#Gsw3_5726crmVsQmWWzy_pad-5" x="2937.5" y="-4684.8"/><use xlink:href="#Gsw3_5726crmVsQmWWzy_pad-5" x="6127.7" y="-1906.2"/><use xlink:href="#Gsw3_5726crmVsQmWWzy_pad-5" x="6434.8" y="-1906.2"/><use xlink:href="#Gsw3_5726crmVsQmWWzy_pad-5" x="6127.7" y="-4156.2"/><use xlink:href="#Gsw3_5726crmVsQmWWzy_pad-5" x="6434.8" y="-4156.2"/><use xlink:href="#Gsw3_5726crmVsQmWWzy_pad-5" x="5377.7" y="-3256.3"/><use xlink:href="#Gsw3_5726crmVsQmWWzy_pad-5" x="5684.8" y="-3256.3"/><use xlink:href="#Gsw3_5726crmVsQmWWzy_pad-5" x="3127.7" y="-1906.2"/><use xlink:href="#Gsw3_5726crmVsQmWWzy_pad-5" x="3434.8" y="-1906.2"/><use xlink:href="#Gsw3_5726crmVsQmWWzy_pad-5" x="5180" y="-4086.5"/><use xlink:href="#Gsw3_5726crmVsQmWWzy_pad-5" x="5180" y="-4393.5"/><use xlink:href="#Gsw3_5726crmVsQmWWzy_pad-5" x="3096.5" y="-3406.2"/><use xlink:href="#Gsw3_5726crmVsQmWWzy_pad-5" x="3403.5" y="-3406.2"/><use xlink:href="#Gsw3_5726crmVsQmWWzy_pad-5" x="5409" y="-2506.3"/><use xlink:href="#Gsw3_5726crmVsQmWWzy_pad-5" x="5716" y="-2506.3"/><use xlink:href="#Gsw3_5726crmVsQmWWzy_pad-5" x="5377.7" y="-1756.2"/><use xlink:href="#Gsw3_5726crmVsQmWWzy_pad-5" x="5684.8" y="-1756.2"/><use xlink:href="#Gsw3_5726crmVsQmWWzy_pad-5" x="7172.8" y="-5011"/><use xlink:href="#Gsw3_5726crmVsQmWWzy_pad-5" x="7302.6" y="-4732.6"/><use xlink:href="#Gsw3_5726crmVsQmWWzy_pad-5" x="6254.1" y="-4957.4"/><use xlink:href="#Gsw3_5726crmVsQmWWzy_pad-5" x="6383.9" y="-4679.1"/><use xlink:href="#Gsw3_5726crmVsQmWWzy_pad-5" x="3877.7" y="-4006.2"/><use xlink:href="#Gsw3_5726crmVsQmWWzy_pad-5" x="4184.8" y="-4006.2"/><use xlink:href="#Gsw3_5726crmVsQmWWzy_pad-5" x="4659" y="-1606.2"/><use xlink:href="#Gsw3_5726crmVsQmWWzy_pad-5" x="4966" y="-1606.2"/><use xlink:href="#Gsw3_5726crmVsQmWWzy_pad-5" x="2875" y="-2877.7"/><use xlink:href="#Gsw3_5726crmVsQmWWzy_pad-5" x="2875" y="-3184.8"/><use xlink:href="#Gsw3_5726crmVsQmWWzy_pad-5" x="3096.5" y="-4156.2"/><use xlink:href="#Gsw3_5726crmVsQmWWzy_pad-5" x="3403.5" y="-4156.2"/><use xlink:href="#Gsw3_5726crmVsQmWWzy_pad-5" x="7210.6" y="-5331.8"/><use xlink:href="#Gsw3_5726crmVsQmWWzy_pad-5" x="7489" y="-5461.5"/><use xlink:href="#Gsw3_5726crmVsQmWWzy_pad-5" x="3877.7" y="-2506.3"/><use xlink:href="#Gsw3_5726crmVsQmWWzy_pad-5" x="4184.8" y="-2506.3"/><use xlink:href="#Gsw3_5726crmVsQmWWzy_pad-5" x="2875" y="-3627.7"/><use xlink:href="#Gsw3_5726crmVsQmWWzy_pad-5" x="2875" y="-3934.8"/><use xlink:href="#Gsw3_5726crmVsQmWWzy_pad-6" x="3162.5" y="-2962.5"/><use xlink:href="#Gsw3_5726crmVsQmWWzy_pad-6" x="3212.5" y="-2862.5"/><use xlink:href="#Gsw3_5726crmVsQmWWzy_pad-6" x="3214.1" y="-2885.3"/><use xlink:href="#Gsw3_5726crmVsQmWWzy_pad-6" x="3214.1" y="-2905"/><use xlink:href="#Gsw3_5726crmVsQmWWzy_pad-6" x="3410.9" y="-2885.3"/><use xlink:href="#Gsw3_5726crmVsQmWWzy_pad-6" x="3410.9" y="-2905"/><use xlink:href="#Gsw3_5726crmVsQmWWzy_pad-6" x="3412.5" y="-2862.5"/><use xlink:href="#Gsw3_5726crmVsQmWWzy_pad-6" x="3462.5" y="-2962.5"/><use xlink:href="#Gsw3_5726crmVsQmWWzy_pad-6" x="5412.5" y="-2062.5"/><use xlink:href="#Gsw3_5726crmVsQmWWzy_pad-6" x="5462.5" y="-1962.5"/><use xlink:href="#Gsw3_5726crmVsQmWWzy_pad-6" x="5464.1" y="-1985.3"/><use xlink:href="#Gsw3_5726crmVsQmWWzy_pad-6" x="5464.1" y="-2005"/><use xlink:href="#Gsw3_5726crmVsQmWWzy_pad-6" x="5660.9" y="-1985.3"/><use xlink:href="#Gsw3_5726crmVsQmWWzy_pad-6" x="5660.9" y="-2005"/><use xlink:href="#Gsw3_5726crmVsQmWWzy_pad-6" x="5662.5" y="-1962.5"/><use xlink:href="#Gsw3_5726crmVsQmWWzy_pad-6" x="5712.5" y="-2062.5"/><use xlink:href="#Gsw3_5726crmVsQmWWzy_pad-6" x="5410" y="-4310"/><use xlink:href="#Gsw3_5726crmVsQmWWzy_pad-6" x="5460" y="-4210"/><use xlink:href="#Gsw3_5726crmVsQmWWzy_pad-6" x="5461.6" y="-4232.8"/><use xlink:href="#Gsw3_5726crmVsQmWWzy_pad-6" x="5461.6" y="-4252.5"/><use xlink:href="#Gsw3_5726crmVsQmWWzy_pad-6" x="5658.4" y="-4232.8"/><use xlink:href="#Gsw3_5726crmVsQmWWzy_pad-6" x="5658.4" y="-4252.5"/><use xlink:href="#Gsw3_5726crmVsQmWWzy_pad-6" x="5660" y="-4210"/><use xlink:href="#Gsw3_5726crmVsQmWWzy_pad-6" x="5710" y="-4310"/><use xlink:href="#Gsw3_5726crmVsQmWWzy_pad-6" x="6162.5" y="-1462.5"/><use xlink:href="#Gsw3_5726crmVsQmWWzy_pad-6" x="6212.5" y="-1362.5"/><use xlink:href="#Gsw3_5726crmVsQmWWzy_pad-6" x="6214.1" y="-1385.3"/><use xlink:href="#Gsw3_5726crmVsQmWWzy_pad-6" x="6214.1" y="-1405"/><use xlink:href="#Gsw3_5726crmVsQmWWzy_pad-6" x="6410.9" y="-1385.3"/><use xlink:href="#Gsw3_5726crmVsQmWWzy_pad-6" x="6410.9" y="-1405"/><use xlink:href="#Gsw3_5726crmVsQmWWzy_pad-6" x="6412.5" y="-1362.5"/><use xlink:href="#Gsw3_5726crmVsQmWWzy_pad-6" x="6462.5" y="-1462.5"/><use xlink:href="#Gsw3_5726crmVsQmWWzy_pad-6" x="6162.5" y="-2962.5"/><use xlink:href="#Gsw3_5726crmVsQmWWzy_pad-6" x="6212.5" y="-2862.5"/><use xlink:href="#Gsw3_5726crmVsQmWWzy_pad-6" x="6214.1" y="-2885.3"/><use xlink:href="#Gsw3_5726crmVsQmWWzy_pad-6" x="6214.1" y="-2905"/><use xlink:href="#Gsw3_5726crmVsQmWWzy_pad-6" x="6410.9" y="-2885.3"/><use xlink:href="#Gsw3_5726crmVsQmWWzy_pad-6" x="6410.9" y="-2905"/><use xlink:href="#Gsw3_5726crmVsQmWWzy_pad-6" x="6412.5" y="-2862.5"/><use xlink:href="#Gsw3_5726crmVsQmWWzy_pad-6" x="6462.5" y="-2962.5"/><use xlink:href="#Gsw3_5726crmVsQmWWzy_pad-6" x="2412.5" y="-1462.5"/><use xlink:href="#Gsw3_5726crmVsQmWWzy_pad-6" x="2462.5" y="-1362.5"/><use xlink:href="#Gsw3_5726crmVsQmWWzy_pad-6" x="2464.1" y="-1385.3"/><use xlink:href="#Gsw3_5726crmVsQmWWzy_pad-6" x="2464.1" y="-1405"/><use xlink:href="#Gsw3_5726crmVsQmWWzy_pad-6" x="2660.9" y="-1385.3"/><use xlink:href="#Gsw3_5726crmVsQmWWzy_pad-6" x="2660.9" y="-1405"/><use xlink:href="#Gsw3_5726crmVsQmWWzy_pad-6" x="2662.5" y="-1362.5"/><use xlink:href="#Gsw3_5726crmVsQmWWzy_pad-6" x="2712.5" y="-1462.5"/><use xlink:href="#Gsw3_5726crmVsQmWWzy_pad-6" x="3162.5" y="-3712.5"/><use xlink:href="#Gsw3_5726crmVsQmWWzy_pad-6" x="3212.5" y="-3612.5"/><use xlink:href="#Gsw3_5726crmVsQmWWzy_pad-6" x="3214.1" y="-3635.3"/><use xlink:href="#Gsw3_5726crmVsQmWWzy_pad-6" x="3214.1" y="-3655"/><use xlink:href="#Gsw3_5726crmVsQmWWzy_pad-6" x="3410.9" y="-3635.3"/><use xlink:href="#Gsw3_5726crmVsQmWWzy_pad-6" x="3410.9" y="-3655"/><use xlink:href="#Gsw3_5726crmVsQmWWzy_pad-6" x="3412.5" y="-3612.5"/><use xlink:href="#Gsw3_5726crmVsQmWWzy_pad-6" x="3462.5" y="-3712.5"/><use xlink:href="#Gsw3_5726crmVsQmWWzy_pad-6" x="6375.8" y="-5418.8"/><use xlink:href="#Gsw3_5726crmVsQmWWzy_pad-6" x="6378.8" y="-5530.5"/><use xlink:href="#Gsw3_5726crmVsQmWWzy_pad-6" x="6389.9" y="-5510.5"/><use xlink:href="#Gsw3_5726crmVsQmWWzy_pad-6" x="6398.2" y="-5492.7"/><use xlink:href="#Gsw3_5726crmVsQmWWzy_pad-6" x="6560.1" y="-5615.1"/><use xlink:href="#Gsw3_5726crmVsQmWWzy_pad-6" x="6568.3" y="-5593.7"/><use xlink:href="#Gsw3_5726crmVsQmWWzy_pad-6" x="6576.6" y="-5575.9"/><use xlink:href="#Gsw3_5726crmVsQmWWzy_pad-6" x="6647.7" y="-5545.6"/><use xlink:href="#Gsw3_5726crmVsQmWWzy_pad-6" x="4662.5" y="-1162.5"/><use xlink:href="#Gsw3_5726crmVsQmWWzy_pad-6" x="4712.5" y="-1062.5"/><use xlink:href="#Gsw3_5726crmVsQmWWzy_pad-6" x="4714.1" y="-1085.3"/><use xlink:href="#Gsw3_5726crmVsQmWWzy_pad-6" x="4714.1" y="-1105"/><use xlink:href="#Gsw3_5726crmVsQmWWzy_pad-6" x="4910.9" y="-1085.3"/><use xlink:href="#Gsw3_5726crmVsQmWWzy_pad-6" x="4910.9" y="-1105"/><use xlink:href="#Gsw3_5726crmVsQmWWzy_pad-6" x="4912.5" y="-1062.5"/><use xlink:href="#Gsw3_5726crmVsQmWWzy_pad-6" x="4962.5" y="-1162.5"/><use xlink:href="#Gsw3_5726crmVsQmWWzy_pad-6" x="6777.3" y="-4557.8"/><use xlink:href="#Gsw3_5726crmVsQmWWzy_pad-6" x="6848.3" y="-4527.5"/><use xlink:href="#Gsw3_5726crmVsQmWWzy_pad-6" x="6856.6" y="-4509.6"/><use xlink:href="#Gsw3_5726crmVsQmWWzy_pad-6" x="6864.8" y="-4488.3"/><use xlink:href="#Gsw3_5726crmVsQmWWzy_pad-6" x="7026.7" y="-4610.7"/><use xlink:href="#Gsw3_5726crmVsQmWWzy_pad-6" x="7035" y="-4592.8"/><use xlink:href="#Gsw3_5726crmVsQmWWzy_pad-6" x="7046.1" y="-4572.8"/><use xlink:href="#Gsw3_5726crmVsQmWWzy_pad-6" x="7049.2" y="-4684.6"/><use xlink:href="#Gsw3_5726crmVsQmWWzy_pad-6" x="4662.5" y="-3412.5"/><use xlink:href="#Gsw3_5726crmVsQmWWzy_pad-6" x="4712.5" y="-3312.5"/><use xlink:href="#Gsw3_5726crmVsQmWWzy_pad-6" x="4714.1" y="-3335.3"/><use xlink:href="#Gsw3_5726crmVsQmWWzy_pad-6" x="4714.1" y="-3355"/><use xlink:href="#Gsw3_5726crmVsQmWWzy_pad-6" x="4910.9" y="-3335.3"/><use xlink:href="#Gsw3_5726crmVsQmWWzy_pad-6" x="4910.9" y="-3355"/><use xlink:href="#Gsw3_5726crmVsQmWWzy_pad-6" x="4912.5" y="-3312.5"/><use xlink:href="#Gsw3_5726crmVsQmWWzy_pad-6" x="4962.5" y="-3412.5"/><use xlink:href="#Gsw3_5726crmVsQmWWzy_pad-6" x="5412.5" y="-1312.5"/><use xlink:href="#Gsw3_5726crmVsQmWWzy_pad-6" x="5462.5" y="-1212.5"/><use xlink:href="#Gsw3_5726crmVsQmWWzy_pad-6" x="5464.1" y="-1235.3"/><use xlink:href="#Gsw3_5726crmVsQmWWzy_pad-6" x="5464.1" y="-1255"/><use xlink:href="#Gsw3_5726crmVsQmWWzy_pad-6" x="5660.9" y="-1235.3"/><use xlink:href="#Gsw3_5726crmVsQmWWzy_pad-6" x="5660.9" y="-1255"/><use xlink:href="#Gsw3_5726crmVsQmWWzy_pad-6" x="5662.5" y="-1212.5"/><use xlink:href="#Gsw3_5726crmVsQmWWzy_pad-6" x="5712.5" y="-1312.5"/><use xlink:href="#Gsw3_5726crmVsQmWWzy_pad-6" x="5412.5" y="-3562.5"/><use xlink:href="#Gsw3_5726crmVsQmWWzy_pad-6" x="5462.5" y="-3462.5"/><use xlink:href="#Gsw3_5726crmVsQmWWzy_pad-6" x="5464.1" y="-3485.3"/><use xlink:href="#Gsw3_5726crmVsQmWWzy_pad-6" x="5464.1" y="-3505"/><use xlink:href="#Gsw3_5726crmVsQmWWzy_pad-6" x="5660.9" y="-3485.3"/><use xlink:href="#Gsw3_5726crmVsQmWWzy_pad-6" x="5660.9" y="-3505"/><use xlink:href="#Gsw3_5726crmVsQmWWzy_pad-6" x="5662.5" y="-3462.5"/><use xlink:href="#Gsw3_5726crmVsQmWWzy_pad-6" x="5712.5" y="-3562.5"/><use xlink:href="#Gsw3_5726crmVsQmWWzy_pad-6" x="2412.5" y="-4462.5"/><use xlink:href="#Gsw3_5726crmVsQmWWzy_pad-6" x="2462.5" y="-4362.5"/><use xlink:href="#Gsw3_5726crmVsQmWWzy_pad-6" x="2464.1" y="-4385.3"/><use xlink:href="#Gsw3_5726crmVsQmWWzy_pad-6" x="2464.1" y="-4405"/><use xlink:href="#Gsw3_5726crmVsQmWWzy_pad-6" x="2660.9" y="-4385.3"/><use xlink:href="#Gsw3_5726crmVsQmWWzy_pad-6" x="2660.9" y="-4405"/><use xlink:href="#Gsw3_5726crmVsQmWWzy_pad-6" x="2662.5" y="-4362.5"/><use xlink:href="#Gsw3_5726crmVsQmWWzy_pad-6" x="2712.5" y="-4462.5"/><use xlink:href="#Gsw3_5726crmVsQmWWzy_pad-6" x="7140.5" y="-5554.9"/><use xlink:href="#Gsw3_5726crmVsQmWWzy_pad-6" x="7211.5" y="-5524.6"/><use xlink:href="#Gsw3_5726crmVsQmWWzy_pad-6" x="7219.9" y="-5506.8"/><use xlink:href="#Gsw3_5726crmVsQmWWzy_pad-6" x="7228.1" y="-5485.4"/><use xlink:href="#Gsw3_5726crmVsQmWWzy_pad-6" x="7390" y="-5607.8"/><use xlink:href="#Gsw3_5726crmVsQmWWzy_pad-6" x="7398.3" y="-5590"/><use xlink:href="#Gsw3_5726crmVsQmWWzy_pad-6" x="7409.3" y="-5570"/><use xlink:href="#Gsw3_5726crmVsQmWWzy_pad-6" x="7412.4" y="-5681.7"/><use xlink:href="#Gsw3_5726crmVsQmWWzy_pad-6" x="3912.5" y="-4312.5"/><use xlink:href="#Gsw3_5726crmVsQmWWzy_pad-6" x="3962.5" y="-4212.5"/><use xlink:href="#Gsw3_5726crmVsQmWWzy_pad-6" x="3964.1" y="-4235.3"/><use xlink:href="#Gsw3_5726crmVsQmWWzy_pad-6" x="3964.1" y="-4255"/><use xlink:href="#Gsw3_5726crmVsQmWWzy_pad-6" x="4160.9" y="-4235.3"/><use xlink:href="#Gsw3_5726crmVsQmWWzy_pad-6" x="4160.9" y="-4255"/><use xlink:href="#Gsw3_5726crmVsQmWWzy_pad-6" x="4162.5" y="-4212.5"/><use xlink:href="#Gsw3_5726crmVsQmWWzy_pad-6" x="4212.5" y="-4312.5"/><use xlink:href="#Gsw3_5726crmVsQmWWzy_pad-6" x="2225" y="-2212.5"/><use xlink:href="#Gsw3_5726crmVsQmWWzy_pad-6" x="2275" y="-2112.5"/><use xlink:href="#Gsw3_5726crmVsQmWWzy_pad-6" x="2276.6" y="-2135.3"/><use xlink:href="#Gsw3_5726crmVsQmWWzy_pad-6" x="2276.6" y="-2155"/><use xlink:href="#Gsw3_5726crmVsQmWWzy_pad-6" x="2473.4" y="-2135.3"/><use xlink:href="#Gsw3_5726crmVsQmWWzy_pad-6" x="2473.4" y="-2155"/><use xlink:href="#Gsw3_5726crmVsQmWWzy_pad-6" x="2475" y="-2112.5"/><use xlink:href="#Gsw3_5726crmVsQmWWzy_pad-6" x="2525" y="-2212.5"/><use xlink:href="#Gsw3_5726crmVsQmWWzy_pad-6" x="5412.5" y="-2812.5"/><use xlink:href="#Gsw3_5726crmVsQmWWzy_pad-6" x="5462.5" y="-2712.5"/><use xlink:href="#Gsw3_5726crmVsQmWWzy_pad-6" x="5464.1" y="-2735.3"/><use xlink:href="#Gsw3_5726crmVsQmWWzy_pad-6" x="5464.1" y="-2755"/><use xlink:href="#Gsw3_5726crmVsQmWWzy_pad-6" x="5660.9" y="-2735.3"/><use xlink:href="#Gsw3_5726crmVsQmWWzy_pad-6" x="5660.9" y="-2755"/><use xlink:href="#Gsw3_5726crmVsQmWWzy_pad-6" x="5662.5" y="-2712.5"/><use xlink:href="#Gsw3_5726crmVsQmWWzy_pad-6" x="5712.5" y="-2812.5"/><use xlink:href="#Gsw3_5726crmVsQmWWzy_pad-6" x="4660" y="-4160"/><use xlink:href="#Gsw3_5726crmVsQmWWzy_pad-6" x="4710" y="-4060"/><use xlink:href="#Gsw3_5726crmVsQmWWzy_pad-6" x="4711.6" y="-4082.8"/><use xlink:href="#Gsw3_5726crmVsQmWWzy_pad-6" x="4711.6" y="-4102.5"/><use xlink:href="#Gsw3_5726crmVsQmWWzy_pad-6" x="4908.4" y="-4082.8"/><use xlink:href="#Gsw3_5726crmVsQmWWzy_pad-6" x="4908.4" y="-4102.5"/><use xlink:href="#Gsw3_5726crmVsQmWWzy_pad-6" x="4910" y="-4060"/><use xlink:href="#Gsw3_5726crmVsQmWWzy_pad-6" x="4960" y="-4160"/><use xlink:href="#Gsw3_5726crmVsQmWWzy_pad-6" x="7457.5" y="-4875.2"/><use xlink:href="#Gsw3_5726crmVsQmWWzy_pad-6" x="7528.5" y="-4844.9"/><use xlink:href="#Gsw3_5726crmVsQmWWzy_pad-6" x="7536.8" y="-4827.1"/><use xlink:href="#Gsw3_5726crmVsQmWWzy_pad-6" x="7545.1" y="-4805.7"/><use xlink:href="#Gsw3_5726crmVsQmWWzy_pad-6" x="7706.9" y="-4928.1"/><use xlink:href="#Gsw3_5726crmVsQmWWzy_pad-6" x="7715.2" y="-4910.3"/><use xlink:href="#Gsw3_5726crmVsQmWWzy_pad-6" x="7726.3" y="-4890.2"/><use xlink:href="#Gsw3_5726crmVsQmWWzy_pad-6" x="7729.4" y="-5002"/><use xlink:href="#Gsw3_5726crmVsQmWWzy_pad-6" x="4662.5" y="-2662.5"/><use xlink:href="#Gsw3_5726crmVsQmWWzy_pad-6" x="4712.5" y="-2562.5"/><use xlink:href="#Gsw3_5726crmVsQmWWzy_pad-6" x="4714.1" y="-2585.3"/><use xlink:href="#Gsw3_5726crmVsQmWWzy_pad-6" x="4714.1" y="-2605"/><use xlink:href="#Gsw3_5726crmVsQmWWzy_pad-6" x="4910.9" y="-2585.3"/><use xlink:href="#Gsw3_5726crmVsQmWWzy_pad-6" x="4910.9" y="-2605"/><use xlink:href="#Gsw3_5726crmVsQmWWzy_pad-6" x="4912.5" y="-2562.5"/><use xlink:href="#Gsw3_5726crmVsQmWWzy_pad-6" x="4962.5" y="-2662.5"/><use xlink:href="#Gsw3_5726crmVsQmWWzy_pad-6" x="3912.5" y="-2062.5"/><use xlink:href="#Gsw3_5726crmVsQmWWzy_pad-6" x="3962.5" y="-1962.5"/><use xlink:href="#Gsw3_5726crmVsQmWWzy_pad-6" x="3964.1" y="-1985.3"/><use xlink:href="#Gsw3_5726crmVsQmWWzy_pad-6" x="3964.1" y="-2005"/><use xlink:href="#Gsw3_5726crmVsQmWWzy_pad-6" x="4160.9" y="-1985.3"/><use xlink:href="#Gsw3_5726crmVsQmWWzy_pad-6" x="4160.9" y="-2005"/><use xlink:href="#Gsw3_5726crmVsQmWWzy_pad-6" x="4162.5" y="-1962.5"/><use xlink:href="#Gsw3_5726crmVsQmWWzy_pad-6" x="4212.5" y="-2062.5"/><use xlink:href="#Gsw3_5726crmVsQmWWzy_pad-6" x="3162.5" y="-1462.5"/><use xlink:href="#Gsw3_5726crmVsQmWWzy_pad-6" x="3212.5" y="-1362.5"/><use xlink:href="#Gsw3_5726crmVsQmWWzy_pad-6" x="3214.1" y="-1385.3"/><use xlink:href="#Gsw3_5726crmVsQmWWzy_pad-6" x="3214.1" y="-1405"/><use xlink:href="#Gsw3_5726crmVsQmWWzy_pad-6" x="3410.9" y="-1385.3"/><use xlink:href="#Gsw3_5726crmVsQmWWzy_pad-6" x="3410.9" y="-1405"/><use xlink:href="#Gsw3_5726crmVsQmWWzy_pad-6" x="3412.5" y="-1362.5"/><use xlink:href="#Gsw3_5726crmVsQmWWzy_pad-6" x="3462.5" y="-1462.5"/><use xlink:href="#Gsw3_5726crmVsQmWWzy_pad-6" x="3912.5" y="-1312.5"/><use xlink:href="#Gsw3_5726crmVsQmWWzy_pad-6" x="3962.5" y="-1212.5"/><use xlink:href="#Gsw3_5726crmVsQmWWzy_pad-6" x="3964.1" y="-1235.3"/><use xlink:href="#Gsw3_5726crmVsQmWWzy_pad-6" x="3964.1" y="-1255"/><use xlink:href="#Gsw3_5726crmVsQmWWzy_pad-6" x="4160.9" y="-1235.3"/><use xlink:href="#Gsw3_5726crmVsQmWWzy_pad-6" x="4160.9" y="-1255"/><use xlink:href="#Gsw3_5726crmVsQmWWzy_pad-6" x="4162.5" y="-1212.5"/><use xlink:href="#Gsw3_5726crmVsQmWWzy_pad-6" x="4212.5" y="-1312.5"/><use xlink:href="#Gsw3_5726crmVsQmWWzy_pad-6" x="6162.5" y="-2212.5"/><use xlink:href="#Gsw3_5726crmVsQmWWzy_pad-6" x="6212.5" y="-2112.5"/><use xlink:href="#Gsw3_5726crmVsQmWWzy_pad-6" x="6214.1" y="-2135.3"/><use xlink:href="#Gsw3_5726crmVsQmWWzy_pad-6" x="6214.1" y="-2155"/><use xlink:href="#Gsw3_5726crmVsQmWWzy_pad-6" x="6410.9" y="-2135.3"/><use xlink:href="#Gsw3_5726crmVsQmWWzy_pad-6" x="6410.9" y="-2155"/><use xlink:href="#Gsw3_5726crmVsQmWWzy_pad-6" x="6412.5" y="-2112.5"/><use xlink:href="#Gsw3_5726crmVsQmWWzy_pad-6" x="6462.5" y="-2212.5"/><use xlink:href="#Gsw3_5726crmVsQmWWzy_pad-6" x="3912.5" y="-3562.5"/><use xlink:href="#Gsw3_5726crmVsQmWWzy_pad-6" x="3962.5" y="-3462.5"/><use xlink:href="#Gsw3_5726crmVsQmWWzy_pad-6" x="3964.1" y="-3485.3"/><use xlink:href="#Gsw3_5726crmVsQmWWzy_pad-6" x="3964.1" y="-3505"/><use xlink:href="#Gsw3_5726crmVsQmWWzy_pad-6" x="4160.9" y="-3485.3"/><use xlink:href="#Gsw3_5726crmVsQmWWzy_pad-6" x="4160.9" y="-3505"/><use xlink:href="#Gsw3_5726crmVsQmWWzy_pad-6" x="4162.5" y="-3462.5"/><use xlink:href="#Gsw3_5726crmVsQmWWzy_pad-6" x="4212.5" y="-3562.5"/><use xlink:href="#Gsw3_5726crmVsQmWWzy_pad-6" x="3162.5" y="-4462.5"/><use xlink:href="#Gsw3_5726crmVsQmWWzy_pad-6" x="3212.5" y="-4362.5"/><use xlink:href="#Gsw3_5726crmVsQmWWzy_pad-6" x="3214.1" y="-4385.3"/><use xlink:href="#Gsw3_5726crmVsQmWWzy_pad-6" x="3214.1" y="-4405"/><use xlink:href="#Gsw3_5726crmVsQmWWzy_pad-6" x="3410.9" y="-4385.3"/><use xlink:href="#Gsw3_5726crmVsQmWWzy_pad-6" x="3410.9" y="-4405"/><use xlink:href="#Gsw3_5726crmVsQmWWzy_pad-6" x="3412.5" y="-4362.5"/><use xlink:href="#Gsw3_5726crmVsQmWWzy_pad-6" x="3462.5" y="-4462.5"/><use xlink:href="#Gsw3_5726crmVsQmWWzy_pad-6" x="3912.5" y="-2812.5"/><use xlink:href="#Gsw3_5726crmVsQmWWzy_pad-6" x="3962.5" y="-2712.5"/><use xlink:href="#Gsw3_5726crmVsQmWWzy_pad-6" x="3964.1" y="-2735.3"/><use xlink:href="#Gsw3_5726crmVsQmWWzy_pad-6" x="3964.1" y="-2755"/><use xlink:href="#Gsw3_5726crmVsQmWWzy_pad-6" x="4160.9" y="-2735.3"/><use xlink:href="#Gsw3_5726crmVsQmWWzy_pad-6" x="4160.9" y="-2755"/><use xlink:href="#Gsw3_5726crmVsQmWWzy_pad-6" x="4162.5" y="-2712.5"/><use xlink:href="#Gsw3_5726crmVsQmWWzy_pad-6" x="4212.5" y="-2812.5"/><use xlink:href="#Gsw3_5726crmVsQmWWzy_pad-6" x="4662.5" y="-1912.5"/><use xlink:href="#Gsw3_5726crmVsQmWWzy_pad-6" x="4712.5" y="-1812.5"/><use xlink:href="#Gsw3_5726crmVsQmWWzy_pad-6" x="4714.1" y="-1835.3"/><use xlink:href="#Gsw3_5726crmVsQmWWzy_pad-6" x="4714.1" y="-1855"/><use xlink:href="#Gsw3_5726crmVsQmWWzy_pad-6" x="4910.9" y="-1835.3"/><use xlink:href="#Gsw3_5726crmVsQmWWzy_pad-6" x="4910.9" y="-1855"/><use xlink:href="#Gsw3_5726crmVsQmWWzy_pad-6" x="4912.5" y="-1812.5"/><use xlink:href="#Gsw3_5726crmVsQmWWzy_pad-6" x="4962.5" y="-1912.5"/><use xlink:href="#Gsw3_5726crmVsQmWWzy_pad-6" x="6162.5" y="-3712.5"/><use xlink:href="#Gsw3_5726crmVsQmWWzy_pad-6" x="6212.5" y="-3612.5"/><use xlink:href="#Gsw3_5726crmVsQmWWzy_pad-6" x="6214.1" y="-3635.3"/><use xlink:href="#Gsw3_5726crmVsQmWWzy_pad-6" x="6214.1" y="-3655"/><use xlink:href="#Gsw3_5726crmVsQmWWzy_pad-6" x="6410.9" y="-3635.3"/><use xlink:href="#Gsw3_5726crmVsQmWWzy_pad-6" x="6410.9" y="-3655"/><use xlink:href="#Gsw3_5726crmVsQmWWzy_pad-6" x="6412.5" y="-3612.5"/><use xlink:href="#Gsw3_5726crmVsQmWWzy_pad-6" x="6462.5" y="-3712.5"/><use xlink:href="#Gsw3_5726crmVsQmWWzy_pad-6" x="3162.5" y="-2212.5"/><use xlink:href="#Gsw3_5726crmVsQmWWzy_pad-6" x="3212.5" y="-2112.5"/><use xlink:href="#Gsw3_5726crmVsQmWWzy_pad-6" x="3214.1" y="-2135.3"/><use xlink:href="#Gsw3_5726crmVsQmWWzy_pad-6" x="3214.1" y="-2155"/><use xlink:href="#Gsw3_5726crmVsQmWWzy_pad-6" x="3410.9" y="-2135.3"/><use xlink:href="#Gsw3_5726crmVsQmWWzy_pad-6" x="3410.9" y="-2155"/><use xlink:href="#Gsw3_5726crmVsQmWWzy_pad-6" x="3412.5" y="-2112.5"/><use xlink:href="#Gsw3_5726crmVsQmWWzy_pad-6" x="3462.5" y="-2212.5"/><use xlink:href="#Gsw3_5726crmVsQmWWzy_pad-7" x="6740.2" y="-5230.4"/><use xlink:href="#Gsw3_5726crmVsQmWWzy_pad-7" x="6814.1" y="-5207.9"/><use xlink:href="#Gsw3_5726crmVsQmWWzy_pad-7" x="6831.9" y="-5216.2"/><use xlink:href="#Gsw3_5726crmVsQmWWzy_pad-7" x="6851.9" y="-5227.3"/><use xlink:href="#Gsw3_5726crmVsQmWWzy_pad-7" x="6867" y="-4958.5"/><use xlink:href="#Gsw3_5726crmVsQmWWzy_pad-7" x="6897.3" y="-5029.5"/><use xlink:href="#Gsw3_5726crmVsQmWWzy_pad-7" x="6915.1" y="-5037.8"/><use xlink:href="#Gsw3_5726crmVsQmWWzy_pad-7" x="6936.5" y="-5046"/><path d="M 3314.9 -725.6 3314.9 -749.2 M 3314.9 -880.3 3314.9 -923.6 M 3655.1 -725.6 3655.1 -749.2 M 3655.1 -880.3 3655.1 -923.6" fill="none" stroke-width="23.6"/><path d="M 1975.7 -3655 1943.7 -3712.5 M 2193.7 -3612.5 2192.2 -3635.3 M 1807.8 -3635.3 1806.3 -3612.5 M 2056.3 -3712.5 2024.3 -3655 M 1995.3 -2885.3 1993.8 -2862.5 M 2243.8 -2962.5 2211.8 -2905 M 2163.2 -2905 2131.2 -2962.5 M 2381.2 -2862.5 2379.7 -2885.3" fill="none" stroke-width="59.1"/></g></svg>