G04 #@! TF.GenerationSoftware,KiCad,Pcbnew,(5.1.5)-3*
G04 #@! TF.CreationDate,2020-03-17T18:41:03+05:30*
G04 #@! TF.ProjectId,ergocape,6572676f-6361-4706-952e-6b696361645f,rev?*
G04 #@! TF.SameCoordinates,Original*
G04 #@! TF.FileFunction,Legend,Bot*
G04 #@! TF.FilePolarity,Positive*
%FSLAX46Y46*%
G04 Gerber Fmt 4.6, Leading zero omitted, Abs format (unit mm)*
G04 Created by KiCad (PCBNEW (5.1.5)-3) date 2020-03-17 18:41:03*
%MOMM*%
%LPD*%
G04 APERTURE LIST*
%ADD10C,0.150000*%
%ADD11C,0.010000*%
G04 APERTURE END LIST*
D10*
X64895761Y-26439761D02*
X64991000Y-26487380D01*
X65181476Y-26487380D01*
X65276714Y-26439761D01*
X65324333Y-26392142D01*
X65371952Y-26296904D01*
X65371952Y-26011190D01*
X65324333Y-25915952D01*
X65276714Y-25868333D01*
X65181476Y-25820714D01*
X64991000Y-25820714D01*
X64895761Y-25868333D01*
X64467190Y-26487380D02*
X64467190Y-25820714D01*
X64467190Y-26011190D02*
X64419571Y-25915952D01*
X64371952Y-25868333D01*
X64276714Y-25820714D01*
X64181476Y-25820714D01*
X63467190Y-26439761D02*
X63562428Y-26487380D01*
X63752904Y-26487380D01*
X63848142Y-26439761D01*
X63895761Y-26344523D01*
X63895761Y-25963571D01*
X63848142Y-25868333D01*
X63752904Y-25820714D01*
X63562428Y-25820714D01*
X63467190Y-25868333D01*
X63419571Y-25963571D01*
X63419571Y-26058809D01*
X63895761Y-26154047D01*
X62562428Y-26487380D02*
X62562428Y-25963571D01*
X62610047Y-25868333D01*
X62705285Y-25820714D01*
X62895761Y-25820714D01*
X62991000Y-25868333D01*
X62562428Y-26439761D02*
X62657666Y-26487380D01*
X62895761Y-26487380D01*
X62991000Y-26439761D01*
X63038619Y-26344523D01*
X63038619Y-26249285D01*
X62991000Y-26154047D01*
X62895761Y-26106428D01*
X62657666Y-26106428D01*
X62562428Y-26058809D01*
X62229095Y-25820714D02*
X61848142Y-25820714D01*
X62086238Y-25487380D02*
X62086238Y-26344523D01*
X62038619Y-26439761D01*
X61943380Y-26487380D01*
X61848142Y-26487380D01*
X61133857Y-26439761D02*
X61229095Y-26487380D01*
X61419571Y-26487380D01*
X61514809Y-26439761D01*
X61562428Y-26344523D01*
X61562428Y-25963571D01*
X61514809Y-25868333D01*
X61419571Y-25820714D01*
X61229095Y-25820714D01*
X61133857Y-25868333D01*
X61086238Y-25963571D01*
X61086238Y-26058809D01*
X61562428Y-26154047D01*
X60229095Y-26487380D02*
X60229095Y-25487380D01*
X60229095Y-26439761D02*
X60324333Y-26487380D01*
X60514809Y-26487380D01*
X60610047Y-26439761D01*
X60657666Y-26392142D01*
X60705285Y-26296904D01*
X60705285Y-26011190D01*
X60657666Y-25915952D01*
X60610047Y-25868333D01*
X60514809Y-25820714D01*
X60324333Y-25820714D01*
X60229095Y-25868333D01*
X58991000Y-26487380D02*
X58991000Y-25487380D01*
X58991000Y-25868333D02*
X58895761Y-25820714D01*
X58705285Y-25820714D01*
X58610047Y-25868333D01*
X58562428Y-25915952D01*
X58514809Y-26011190D01*
X58514809Y-26296904D01*
X58562428Y-26392142D01*
X58610047Y-26439761D01*
X58705285Y-26487380D01*
X58895761Y-26487380D01*
X58991000Y-26439761D01*
X58181476Y-25820714D02*
X57943380Y-26487380D01*
X57705285Y-25820714D02*
X57943380Y-26487380D01*
X58038619Y-26725476D01*
X58086238Y-26773095D01*
X58181476Y-26820714D01*
X56133857Y-25820714D02*
X56133857Y-26487380D01*
X56562428Y-25820714D02*
X56562428Y-26344523D01*
X56514809Y-26439761D01*
X56419571Y-26487380D01*
X56276714Y-26487380D01*
X56181476Y-26439761D01*
X56133857Y-26392142D01*
X54943380Y-25439761D02*
X55800523Y-26725476D01*
X54610047Y-26487380D02*
X54610047Y-25487380D01*
X54610047Y-25963571D02*
X54038619Y-25963571D01*
X54038619Y-26487380D02*
X54038619Y-25487380D01*
X53133857Y-26487380D02*
X53133857Y-25963571D01*
X53181476Y-25868333D01*
X53276714Y-25820714D01*
X53467190Y-25820714D01*
X53562428Y-25868333D01*
X53133857Y-26439761D02*
X53229095Y-26487380D01*
X53467190Y-26487380D01*
X53562428Y-26439761D01*
X53610047Y-26344523D01*
X53610047Y-26249285D01*
X53562428Y-26154047D01*
X53467190Y-26106428D01*
X53229095Y-26106428D01*
X53133857Y-26058809D01*
X52657666Y-26487380D02*
X52657666Y-25820714D01*
X52657666Y-26011190D02*
X52610047Y-25915952D01*
X52562428Y-25868333D01*
X52467190Y-25820714D01*
X52371952Y-25820714D01*
X52086238Y-26439761D02*
X51991000Y-26487380D01*
X51800523Y-26487380D01*
X51705285Y-26439761D01*
X51657666Y-26344523D01*
X51657666Y-26296904D01*
X51705285Y-26201666D01*
X51800523Y-26154047D01*
X51943380Y-26154047D01*
X52038619Y-26106428D01*
X52086238Y-26011190D01*
X52086238Y-25963571D01*
X52038619Y-25868333D01*
X51943380Y-25820714D01*
X51800523Y-25820714D01*
X51705285Y-25868333D01*
X51229095Y-26487380D02*
X51229095Y-25487380D01*
X50800523Y-26487380D02*
X50800523Y-25963571D01*
X50848142Y-25868333D01*
X50943380Y-25820714D01*
X51086238Y-25820714D01*
X51181476Y-25868333D01*
X51229095Y-25915952D01*
X50324333Y-26487380D02*
X50324333Y-25820714D01*
X50324333Y-25487380D02*
X50371952Y-25535000D01*
X50324333Y-25582619D01*
X50276714Y-25535000D01*
X50324333Y-25487380D01*
X50324333Y-25582619D01*
X49991000Y-25820714D02*
X49610047Y-25820714D01*
X49848142Y-25487380D02*
X49848142Y-26344523D01*
X49800523Y-26439761D01*
X49705285Y-26487380D01*
X49610047Y-26487380D01*
X48848142Y-25820714D02*
X48848142Y-26630238D01*
X48895761Y-26725476D01*
X48943380Y-26773095D01*
X49038619Y-26820714D01*
X49181476Y-26820714D01*
X49276714Y-26773095D01*
X48848142Y-26439761D02*
X48943380Y-26487380D01*
X49133857Y-26487380D01*
X49229095Y-26439761D01*
X49276714Y-26392142D01*
X49324333Y-26296904D01*
X49324333Y-26011190D01*
X49276714Y-25915952D01*
X49229095Y-25868333D01*
X49133857Y-25820714D01*
X48943380Y-25820714D01*
X48848142Y-25868333D01*
X48229095Y-26487380D02*
X48324333Y-26439761D01*
X48371952Y-26392142D01*
X48419571Y-26296904D01*
X48419571Y-26011190D01*
X48371952Y-25915952D01*
X48324333Y-25868333D01*
X48229095Y-25820714D01*
X48086238Y-25820714D01*
X47991000Y-25868333D01*
X47943380Y-25915952D01*
X47895761Y-26011190D01*
X47895761Y-26296904D01*
X47943380Y-26392142D01*
X47991000Y-26439761D01*
X48086238Y-26487380D01*
X48229095Y-26487380D01*
X47086238Y-26439761D02*
X47181476Y-26487380D01*
X47371952Y-26487380D01*
X47467190Y-26439761D01*
X47514809Y-26344523D01*
X47514809Y-25963571D01*
X47467190Y-25868333D01*
X47371952Y-25820714D01*
X47181476Y-25820714D01*
X47086238Y-25868333D01*
X47038619Y-25963571D01*
X47038619Y-26058809D01*
X47514809Y-26154047D01*
X46467190Y-26487380D02*
X46562428Y-26439761D01*
X46610047Y-26344523D01*
X46610047Y-25487380D01*
X46038619Y-26487380D02*
X45848142Y-26487380D01*
X45752904Y-26439761D01*
X45705285Y-26392142D01*
X45610047Y-26249285D01*
X45562428Y-26058809D01*
X45562428Y-25677857D01*
X45610047Y-25582619D01*
X45657666Y-25535000D01*
X45752904Y-25487380D01*
X45943380Y-25487380D01*
X46038619Y-25535000D01*
X46086238Y-25582619D01*
X46133857Y-25677857D01*
X46133857Y-25915952D01*
X46086238Y-26011190D01*
X46038619Y-26058809D01*
X45943380Y-26106428D01*
X45752904Y-26106428D01*
X45657666Y-26058809D01*
X45610047Y-26011190D01*
X45562428Y-25915952D01*
X44705285Y-25487380D02*
X44895761Y-25487380D01*
X44991000Y-25535000D01*
X45038619Y-25582619D01*
X45133857Y-25725476D01*
X45181476Y-25915952D01*
X45181476Y-26296904D01*
X45133857Y-26392142D01*
X45086238Y-26439761D01*
X44991000Y-26487380D01*
X44800523Y-26487380D01*
X44705285Y-26439761D01*
X44657666Y-26392142D01*
X44610047Y-26296904D01*
X44610047Y-26058809D01*
X44657666Y-25963571D01*
X44705285Y-25915952D01*
X44800523Y-25868333D01*
X44991000Y-25868333D01*
X45086238Y-25915952D01*
X45133857Y-25963571D01*
X45181476Y-26058809D01*
X105131761Y-19327761D02*
X105227000Y-19375380D01*
X105417476Y-19375380D01*
X105512714Y-19327761D01*
X105560333Y-19280142D01*
X105607952Y-19184904D01*
X105607952Y-18899190D01*
X105560333Y-18803952D01*
X105512714Y-18756333D01*
X105417476Y-18708714D01*
X105227000Y-18708714D01*
X105131761Y-18756333D01*
X104274619Y-19375380D02*
X104274619Y-18851571D01*
X104322238Y-18756333D01*
X104417476Y-18708714D01*
X104607952Y-18708714D01*
X104703190Y-18756333D01*
X104274619Y-19327761D02*
X104369857Y-19375380D01*
X104607952Y-19375380D01*
X104703190Y-19327761D01*
X104750809Y-19232523D01*
X104750809Y-19137285D01*
X104703190Y-19042047D01*
X104607952Y-18994428D01*
X104369857Y-18994428D01*
X104274619Y-18946809D01*
X103798428Y-18708714D02*
X103798428Y-19708714D01*
X103798428Y-18756333D02*
X103703190Y-18708714D01*
X103512714Y-18708714D01*
X103417476Y-18756333D01*
X103369857Y-18803952D01*
X103322238Y-18899190D01*
X103322238Y-19184904D01*
X103369857Y-19280142D01*
X103417476Y-19327761D01*
X103512714Y-19375380D01*
X103703190Y-19375380D01*
X103798428Y-19327761D01*
X103036523Y-18708714D02*
X102655571Y-18708714D01*
X102893666Y-18375380D02*
X102893666Y-19232523D01*
X102846047Y-19327761D01*
X102750809Y-19375380D01*
X102655571Y-19375380D01*
X102322238Y-18708714D02*
X102322238Y-19375380D01*
X102322238Y-18803952D02*
X102274619Y-18756333D01*
X102179380Y-18708714D01*
X102036523Y-18708714D01*
X101941285Y-18756333D01*
X101893666Y-18851571D01*
X101893666Y-19375380D01*
X101512714Y-18375380D02*
X100893666Y-18375380D01*
X101227000Y-18756333D01*
X101084142Y-18756333D01*
X100988904Y-18803952D01*
X100941285Y-18851571D01*
X100893666Y-18946809D01*
X100893666Y-19184904D01*
X100941285Y-19280142D01*
X100988904Y-19327761D01*
X101084142Y-19375380D01*
X101369857Y-19375380D01*
X101465095Y-19327761D01*
X101512714Y-19280142D01*
X100465095Y-19375380D02*
X100465095Y-18708714D01*
X100465095Y-18803952D02*
X100417476Y-18756333D01*
X100322238Y-18708714D01*
X100179380Y-18708714D01*
X100084142Y-18756333D01*
X100036523Y-18851571D01*
X100036523Y-19375380D01*
X100036523Y-18851571D02*
X99988904Y-18756333D01*
X99893666Y-18708714D01*
X99750809Y-18708714D01*
X99655571Y-18756333D01*
X99607952Y-18851571D01*
X99607952Y-19375380D01*
X98941285Y-18375380D02*
X98846047Y-18375380D01*
X98750809Y-18423000D01*
X98703190Y-18470619D01*
X98655571Y-18565857D01*
X98607952Y-18756333D01*
X98607952Y-18994428D01*
X98655571Y-19184904D01*
X98703190Y-19280142D01*
X98750809Y-19327761D01*
X98846047Y-19375380D01*
X98941285Y-19375380D01*
X99036523Y-19327761D01*
X99084142Y-19280142D01*
X99131761Y-19184904D01*
X99179380Y-18994428D01*
X99179380Y-18756333D01*
X99131761Y-18565857D01*
X99084142Y-18470619D01*
X99036523Y-18423000D01*
X98941285Y-18375380D01*
X153074190Y-18835714D02*
X153074190Y-19502380D01*
X153502761Y-18835714D02*
X153502761Y-19359523D01*
X153455142Y-19454761D01*
X153359904Y-19502380D01*
X153217047Y-19502380D01*
X153121809Y-19454761D01*
X153074190Y-19407142D01*
X151883714Y-18454761D02*
X152740857Y-19740476D01*
X151550380Y-19502380D02*
X151550380Y-18502380D01*
X151312285Y-18502380D01*
X151169428Y-18550000D01*
X151074190Y-18645238D01*
X151026571Y-18740476D01*
X150978952Y-18930952D01*
X150978952Y-19073809D01*
X151026571Y-19264285D01*
X151074190Y-19359523D01*
X151169428Y-19454761D01*
X151312285Y-19502380D01*
X151550380Y-19502380D01*
X150169428Y-19454761D02*
X150264666Y-19502380D01*
X150455142Y-19502380D01*
X150550380Y-19454761D01*
X150598000Y-19359523D01*
X150598000Y-18978571D01*
X150550380Y-18883333D01*
X150455142Y-18835714D01*
X150264666Y-18835714D01*
X150169428Y-18883333D01*
X150121809Y-18978571D01*
X150121809Y-19073809D01*
X150598000Y-19169047D01*
X149550380Y-19502380D02*
X149645619Y-19454761D01*
X149693238Y-19359523D01*
X149693238Y-18502380D01*
X149312285Y-18835714D02*
X148931333Y-18835714D01*
X149169428Y-18502380D02*
X149169428Y-19359523D01*
X149121809Y-19454761D01*
X149026571Y-19502380D01*
X148931333Y-19502380D01*
X148169428Y-19502380D02*
X148169428Y-18978571D01*
X148217047Y-18883333D01*
X148312285Y-18835714D01*
X148502761Y-18835714D01*
X148598000Y-18883333D01*
X148169428Y-19454761D02*
X148264666Y-19502380D01*
X148502761Y-19502380D01*
X148598000Y-19454761D01*
X148645619Y-19359523D01*
X148645619Y-19264285D01*
X148598000Y-19169047D01*
X148502761Y-19121428D01*
X148264666Y-19121428D01*
X148169428Y-19073809D01*
X147931333Y-19597619D02*
X147169428Y-19597619D01*
X147074190Y-18502380D02*
X146502761Y-18502380D01*
X146788476Y-19502380D02*
X146788476Y-18502380D01*
X146264666Y-18835714D02*
X146074190Y-19502380D01*
X145883714Y-19026190D01*
X145693238Y-19502380D01*
X145502761Y-18835714D01*
X144978952Y-19502380D02*
X145074190Y-19454761D01*
X145121809Y-19407142D01*
X145169428Y-19311904D01*
X145169428Y-19026190D01*
X145121809Y-18930952D01*
X145074190Y-18883333D01*
X144978952Y-18835714D01*
X144836095Y-18835714D01*
X144740857Y-18883333D01*
X144693238Y-18930952D01*
X144645619Y-19026190D01*
X144645619Y-19311904D01*
X144693238Y-19407142D01*
X144740857Y-19454761D01*
X144836095Y-19502380D01*
X144978952Y-19502380D01*
X138866285Y-18502380D02*
X138866285Y-18692857D01*
X138485333Y-18502380D02*
X138485333Y-18692857D01*
X138199619Y-18502380D02*
X137628190Y-18502380D01*
X137913904Y-19502380D02*
X137913904Y-18502380D01*
X136866285Y-19502380D02*
X136866285Y-18978571D01*
X136913904Y-18883333D01*
X137009142Y-18835714D01*
X137199619Y-18835714D01*
X137294857Y-18883333D01*
X136866285Y-19454761D02*
X136961523Y-19502380D01*
X137199619Y-19502380D01*
X137294857Y-19454761D01*
X137342476Y-19359523D01*
X137342476Y-19264285D01*
X137294857Y-19169047D01*
X137199619Y-19121428D01*
X136961523Y-19121428D01*
X136866285Y-19073809D01*
X136485333Y-18835714D02*
X135961523Y-18835714D01*
X136485333Y-19502380D01*
X135961523Y-19502380D01*
X135675809Y-18835714D02*
X135152000Y-18835714D01*
X135675809Y-19502380D01*
X135152000Y-19502380D01*
X134818666Y-18502380D02*
X134818666Y-18692857D01*
X134437714Y-18502380D02*
X134437714Y-18692857D01*
X127650238Y-18835714D02*
X127650238Y-19502380D01*
X128078809Y-18835714D02*
X128078809Y-19359523D01*
X128031190Y-19454761D01*
X127935952Y-19502380D01*
X127793095Y-19502380D01*
X127697857Y-19454761D01*
X127650238Y-19407142D01*
X126459761Y-18454761D02*
X127316904Y-19740476D01*
X126174047Y-19454761D02*
X126031190Y-19502380D01*
X125793095Y-19502380D01*
X125697857Y-19454761D01*
X125650238Y-19407142D01*
X125602619Y-19311904D01*
X125602619Y-19216666D01*
X125650238Y-19121428D01*
X125697857Y-19073809D01*
X125793095Y-19026190D01*
X125983571Y-18978571D01*
X126078809Y-18930952D01*
X126126428Y-18883333D01*
X126174047Y-18788095D01*
X126174047Y-18692857D01*
X126126428Y-18597619D01*
X126078809Y-18550000D01*
X125983571Y-18502380D01*
X125745476Y-18502380D01*
X125602619Y-18550000D01*
X124793095Y-19454761D02*
X124888333Y-19502380D01*
X125078809Y-19502380D01*
X125174047Y-19454761D01*
X125221666Y-19359523D01*
X125221666Y-18978571D01*
X125174047Y-18883333D01*
X125078809Y-18835714D01*
X124888333Y-18835714D01*
X124793095Y-18883333D01*
X124745476Y-18978571D01*
X124745476Y-19073809D01*
X125221666Y-19169047D01*
X124316904Y-18835714D02*
X124316904Y-19502380D01*
X124316904Y-18930952D02*
X124269285Y-18883333D01*
X124174047Y-18835714D01*
X124031190Y-18835714D01*
X123935952Y-18883333D01*
X123888333Y-18978571D01*
X123888333Y-19502380D01*
X123269285Y-19502380D02*
X123364523Y-19454761D01*
X123412142Y-19407142D01*
X123459761Y-19311904D01*
X123459761Y-19026190D01*
X123412142Y-18930952D01*
X123364523Y-18883333D01*
X123269285Y-18835714D01*
X123126428Y-18835714D01*
X123031190Y-18883333D01*
X122983571Y-18930952D01*
X122935952Y-19026190D01*
X122935952Y-19311904D01*
X122983571Y-19407142D01*
X123031190Y-19454761D01*
X123126428Y-19502380D01*
X123269285Y-19502380D01*
X122507380Y-19502380D02*
X122507380Y-18835714D01*
X122507380Y-19026190D02*
X122459761Y-18930952D01*
X122412142Y-18883333D01*
X122316904Y-18835714D01*
X122221666Y-18835714D01*
X122126428Y-19597619D02*
X121364523Y-19597619D01*
X120602619Y-18550000D02*
X120697857Y-18502380D01*
X120840714Y-18502380D01*
X120983571Y-18550000D01*
X121078809Y-18645238D01*
X121126428Y-18740476D01*
X121174047Y-18930952D01*
X121174047Y-19073809D01*
X121126428Y-19264285D01*
X121078809Y-19359523D01*
X120983571Y-19454761D01*
X120840714Y-19502380D01*
X120745476Y-19502380D01*
X120602619Y-19454761D01*
X120555000Y-19407142D01*
X120555000Y-19073809D01*
X120745476Y-19073809D01*
X119983571Y-19502380D02*
X120078809Y-19454761D01*
X120126428Y-19407142D01*
X120174047Y-19311904D01*
X120174047Y-19026190D01*
X120126428Y-18930952D01*
X120078809Y-18883333D01*
X119983571Y-18835714D01*
X119840714Y-18835714D01*
X119745476Y-18883333D01*
X119697857Y-18930952D01*
X119650238Y-19026190D01*
X119650238Y-19311904D01*
X119697857Y-19407142D01*
X119745476Y-19454761D01*
X119840714Y-19502380D01*
X119983571Y-19502380D01*
X119078809Y-19502380D02*
X119174047Y-19454761D01*
X119221666Y-19407142D01*
X119269285Y-19311904D01*
X119269285Y-19026190D01*
X119221666Y-18930952D01*
X119174047Y-18883333D01*
X119078809Y-18835714D01*
X118935952Y-18835714D01*
X118840714Y-18883333D01*
X118793095Y-18930952D01*
X118745476Y-19026190D01*
X118745476Y-19311904D01*
X118793095Y-19407142D01*
X118840714Y-19454761D01*
X118935952Y-19502380D01*
X119078809Y-19502380D01*
X118316904Y-19502380D02*
X118316904Y-18502380D01*
X118316904Y-18883333D02*
X118221666Y-18835714D01*
X118031190Y-18835714D01*
X117935952Y-18883333D01*
X117888333Y-18930952D01*
X117840714Y-19026190D01*
X117840714Y-19311904D01*
X117888333Y-19407142D01*
X117935952Y-19454761D01*
X118031190Y-19502380D01*
X118221666Y-19502380D01*
X118316904Y-19454761D01*
X117031190Y-19454761D02*
X117126428Y-19502380D01*
X117316904Y-19502380D01*
X117412142Y-19454761D01*
X117459761Y-19359523D01*
X117459761Y-18978571D01*
X117412142Y-18883333D01*
X117316904Y-18835714D01*
X117126428Y-18835714D01*
X117031190Y-18883333D01*
X116983571Y-18978571D01*
X116983571Y-19073809D01*
X117459761Y-19169047D01*
D11*
G36*
X59365114Y-24174505D02*
G01*
X59290461Y-24211727D01*
X59224569Y-24280261D01*
X59206423Y-24305648D01*
X59186655Y-24338866D01*
X59173828Y-24374945D01*
X59166490Y-24423098D01*
X59163187Y-24492536D01*
X59162462Y-24584206D01*
X59165737Y-24709830D01*
X59177123Y-24804154D01*
X59198959Y-24874523D01*
X59233581Y-24928286D01*
X59283330Y-24972788D01*
X59286986Y-24975423D01*
X59336015Y-25002377D01*
X59395055Y-25015712D01*
X59470141Y-25019000D01*
X59592205Y-25019000D01*
X59592256Y-25137497D01*
X59593392Y-25203492D01*
X59600314Y-25242202D01*
X59618402Y-25265419D01*
X59653038Y-25284933D01*
X59661355Y-25288920D01*
X59700280Y-25307603D01*
X59730417Y-25319403D01*
X59752826Y-25320422D01*
X59768567Y-25306761D01*
X59778698Y-25274522D01*
X59784277Y-25219804D01*
X59786365Y-25138711D01*
X59786019Y-25027344D01*
X59784300Y-24881802D01*
X59783763Y-24838269D01*
X59781828Y-24688205D01*
X59780096Y-24590042D01*
X59592308Y-24590042D01*
X59591252Y-24673364D01*
X59586562Y-24727880D01*
X59575949Y-24763837D01*
X59557128Y-24791482D01*
X59544350Y-24804965D01*
X59492110Y-24844417D01*
X59445858Y-24847628D01*
X59398133Y-24815049D01*
X59396923Y-24813846D01*
X59377506Y-24788668D01*
X59365693Y-24754447D01*
X59359735Y-24701748D01*
X59357880Y-24621131D01*
X59357846Y-24603271D01*
X59362330Y-24492175D01*
X59376926Y-24415161D01*
X59403350Y-24368147D01*
X59443317Y-24347050D01*
X59466416Y-24344923D01*
X59521238Y-24354900D01*
X59558842Y-24387752D01*
X59581477Y-24447857D01*
X59591394Y-24539598D01*
X59592308Y-24590042D01*
X59780096Y-24590042D01*
X59779778Y-24572060D01*
X59777127Y-24484679D01*
X59773394Y-24420905D01*
X59768093Y-24375582D01*
X59760742Y-24343555D01*
X59750857Y-24319668D01*
X59737954Y-24298764D01*
X59732421Y-24290898D01*
X59659031Y-24216595D01*
X59566240Y-24174467D01*
X59458904Y-24162722D01*
X59365114Y-24174505D01*
G37*
X59365114Y-24174505D02*
X59290461Y-24211727D01*
X59224569Y-24280261D01*
X59206423Y-24305648D01*
X59186655Y-24338866D01*
X59173828Y-24374945D01*
X59166490Y-24423098D01*
X59163187Y-24492536D01*
X59162462Y-24584206D01*
X59165737Y-24709830D01*
X59177123Y-24804154D01*
X59198959Y-24874523D01*
X59233581Y-24928286D01*
X59283330Y-24972788D01*
X59286986Y-24975423D01*
X59336015Y-25002377D01*
X59395055Y-25015712D01*
X59470141Y-25019000D01*
X59592205Y-25019000D01*
X59592256Y-25137497D01*
X59593392Y-25203492D01*
X59600314Y-25242202D01*
X59618402Y-25265419D01*
X59653038Y-25284933D01*
X59661355Y-25288920D01*
X59700280Y-25307603D01*
X59730417Y-25319403D01*
X59752826Y-25320422D01*
X59768567Y-25306761D01*
X59778698Y-25274522D01*
X59784277Y-25219804D01*
X59786365Y-25138711D01*
X59786019Y-25027344D01*
X59784300Y-24881802D01*
X59783763Y-24838269D01*
X59781828Y-24688205D01*
X59780096Y-24590042D01*
X59592308Y-24590042D01*
X59591252Y-24673364D01*
X59586562Y-24727880D01*
X59575949Y-24763837D01*
X59557128Y-24791482D01*
X59544350Y-24804965D01*
X59492110Y-24844417D01*
X59445858Y-24847628D01*
X59398133Y-24815049D01*
X59396923Y-24813846D01*
X59377506Y-24788668D01*
X59365693Y-24754447D01*
X59359735Y-24701748D01*
X59357880Y-24621131D01*
X59357846Y-24603271D01*
X59362330Y-24492175D01*
X59376926Y-24415161D01*
X59403350Y-24368147D01*
X59443317Y-24347050D01*
X59466416Y-24344923D01*
X59521238Y-24354900D01*
X59558842Y-24387752D01*
X59581477Y-24447857D01*
X59591394Y-24539598D01*
X59592308Y-24590042D01*
X59780096Y-24590042D01*
X59779778Y-24572060D01*
X59777127Y-24484679D01*
X59773394Y-24420905D01*
X59768093Y-24375582D01*
X59760742Y-24343555D01*
X59750857Y-24319668D01*
X59737954Y-24298764D01*
X59732421Y-24290898D01*
X59659031Y-24216595D01*
X59566240Y-24174467D01*
X59458904Y-24162722D01*
X59365114Y-24174505D01*
G36*
X57862336Y-24185089D02*
G01*
X57799633Y-24221358D01*
X57756039Y-24257358D01*
X57724155Y-24295075D01*
X57702190Y-24341199D01*
X57688351Y-24402421D01*
X57680847Y-24485431D01*
X57677883Y-24596919D01*
X57677539Y-24677062D01*
X57677539Y-24972065D01*
X57843615Y-25046515D01*
X57853385Y-24723402D01*
X57857421Y-24602729D01*
X57861656Y-24515141D01*
X57866903Y-24454650D01*
X57873975Y-24415268D01*
X57883689Y-24391007D01*
X57896856Y-24375880D01*
X57901081Y-24372606D01*
X57965091Y-24347034D01*
X58029792Y-24357153D01*
X58068308Y-24384000D01*
X58083975Y-24403024D01*
X58094820Y-24427988D01*
X58101712Y-24465834D01*
X58105521Y-24523502D01*
X58107117Y-24607935D01*
X58107385Y-24695928D01*
X58107437Y-24806323D01*
X58109328Y-24884463D01*
X58115655Y-24937165D01*
X58129017Y-24971242D01*
X58152015Y-24993511D01*
X58187246Y-25010787D01*
X58234303Y-25028738D01*
X58285697Y-25048278D01*
X58279579Y-24701485D01*
X58277116Y-24576468D01*
X58274233Y-24484082D01*
X58270102Y-24417881D01*
X58263893Y-24371420D01*
X58254774Y-24338256D01*
X58241917Y-24311944D01*
X58226416Y-24288729D01*
X58151629Y-24214569D01*
X58060372Y-24171684D01*
X57961117Y-24161412D01*
X57862336Y-24185089D01*
G37*
X57862336Y-24185089D02*
X57799633Y-24221358D01*
X57756039Y-24257358D01*
X57724155Y-24295075D01*
X57702190Y-24341199D01*
X57688351Y-24402421D01*
X57680847Y-24485431D01*
X57677883Y-24596919D01*
X57677539Y-24677062D01*
X57677539Y-24972065D01*
X57843615Y-25046515D01*
X57853385Y-24723402D01*
X57857421Y-24602729D01*
X57861656Y-24515141D01*
X57866903Y-24454650D01*
X57873975Y-24415268D01*
X57883689Y-24391007D01*
X57896856Y-24375880D01*
X57901081Y-24372606D01*
X57965091Y-24347034D01*
X58029792Y-24357153D01*
X58068308Y-24384000D01*
X58083975Y-24403024D01*
X58094820Y-24427988D01*
X58101712Y-24465834D01*
X58105521Y-24523502D01*
X58107117Y-24607935D01*
X58107385Y-24695928D01*
X58107437Y-24806323D01*
X58109328Y-24884463D01*
X58115655Y-24937165D01*
X58129017Y-24971242D01*
X58152015Y-24993511D01*
X58187246Y-25010787D01*
X58234303Y-25028738D01*
X58285697Y-25048278D01*
X58279579Y-24701485D01*
X58277116Y-24576468D01*
X58274233Y-24484082D01*
X58270102Y-24417881D01*
X58263893Y-24371420D01*
X58254774Y-24338256D01*
X58241917Y-24311944D01*
X58226416Y-24288729D01*
X58151629Y-24214569D01*
X58060372Y-24171684D01*
X57961117Y-24161412D01*
X57862336Y-24185089D01*
G36*
X60117114Y-24177256D02*
G01*
X60025536Y-24225409D01*
X59957951Y-24302905D01*
X59933943Y-24352727D01*
X59915262Y-24427533D01*
X59905699Y-24522052D01*
X59904792Y-24625210D01*
X59912079Y-24725935D01*
X59927097Y-24813153D01*
X59949385Y-24875791D01*
X59956235Y-24886579D01*
X60037368Y-24967105D01*
X60133734Y-25015336D01*
X60238299Y-25029450D01*
X60344032Y-25007629D01*
X60373457Y-24994547D01*
X60430759Y-24954231D01*
X60481050Y-24900775D01*
X60485803Y-24893995D01*
X60505122Y-24861321D01*
X60517892Y-24826394D01*
X60525436Y-24780414D01*
X60529076Y-24714584D01*
X60530135Y-24620105D01*
X60530154Y-24598923D01*
X60530106Y-24592182D01*
X60334769Y-24592182D01*
X60333632Y-24681349D01*
X60329159Y-24740520D01*
X60319754Y-24778741D01*
X60303824Y-24805053D01*
X60295692Y-24813846D01*
X60248942Y-24847261D01*
X60203553Y-24845737D01*
X60157660Y-24816752D01*
X60130288Y-24785809D01*
X60114077Y-24740643D01*
X60104974Y-24669420D01*
X60104349Y-24661114D01*
X60102796Y-24532037D01*
X60119035Y-24436172D01*
X60152848Y-24374107D01*
X60204016Y-24346432D01*
X60222280Y-24344923D01*
X60270240Y-24352513D01*
X60303047Y-24378808D01*
X60323105Y-24429095D01*
X60332822Y-24508664D01*
X60334769Y-24592182D01*
X60530106Y-24592182D01*
X60529426Y-24498249D01*
X60526371Y-24427906D01*
X60519678Y-24379163D01*
X60508040Y-24343288D01*
X60490147Y-24311548D01*
X60486192Y-24305648D01*
X60419733Y-24226104D01*
X60347315Y-24179929D01*
X60259151Y-24161599D01*
X60229213Y-24160703D01*
X60117114Y-24177256D01*
G37*
X60117114Y-24177256D02*
X60025536Y-24225409D01*
X59957951Y-24302905D01*
X59933943Y-24352727D01*
X59915262Y-24427533D01*
X59905699Y-24522052D01*
X59904792Y-24625210D01*
X59912079Y-24725935D01*
X59927097Y-24813153D01*
X59949385Y-24875791D01*
X59956235Y-24886579D01*
X60037368Y-24967105D01*
X60133734Y-25015336D01*
X60238299Y-25029450D01*
X60344032Y-25007629D01*
X60373457Y-24994547D01*
X60430759Y-24954231D01*
X60481050Y-24900775D01*
X60485803Y-24893995D01*
X60505122Y-24861321D01*
X60517892Y-24826394D01*
X60525436Y-24780414D01*
X60529076Y-24714584D01*
X60530135Y-24620105D01*
X60530154Y-24598923D01*
X60530106Y-24592182D01*
X60334769Y-24592182D01*
X60333632Y-24681349D01*
X60329159Y-24740520D01*
X60319754Y-24778741D01*
X60303824Y-24805053D01*
X60295692Y-24813846D01*
X60248942Y-24847261D01*
X60203553Y-24845737D01*
X60157660Y-24816752D01*
X60130288Y-24785809D01*
X60114077Y-24740643D01*
X60104974Y-24669420D01*
X60104349Y-24661114D01*
X60102796Y-24532037D01*
X60119035Y-24436172D01*
X60152848Y-24374107D01*
X60204016Y-24346432D01*
X60222280Y-24344923D01*
X60270240Y-24352513D01*
X60303047Y-24378808D01*
X60323105Y-24429095D01*
X60332822Y-24508664D01*
X60334769Y-24592182D01*
X60530106Y-24592182D01*
X60529426Y-24498249D01*
X60526371Y-24427906D01*
X60519678Y-24379163D01*
X60508040Y-24343288D01*
X60490147Y-24311548D01*
X60486192Y-24305648D01*
X60419733Y-24226104D01*
X60347315Y-24179929D01*
X60259151Y-24161599D01*
X60229213Y-24160703D01*
X60117114Y-24177256D01*
G36*
X58599746Y-24189745D02*
G01*
X58522714Y-24241567D01*
X58463184Y-24316412D01*
X58427622Y-24411654D01*
X58420429Y-24481756D01*
X58421246Y-24511009D01*
X58428086Y-24533407D01*
X58446888Y-24553474D01*
X58483592Y-24575733D01*
X58544138Y-24604709D01*
X58634466Y-24644927D01*
X58634923Y-24645129D01*
X58718067Y-24683210D01*
X58786247Y-24717025D01*
X58832495Y-24742933D01*
X58849842Y-24757295D01*
X58849846Y-24757411D01*
X58834557Y-24788685D01*
X58798804Y-24823157D01*
X58757758Y-24847990D01*
X58736963Y-24852923D01*
X58680230Y-24835862D01*
X58631373Y-24793133D01*
X58607535Y-24746155D01*
X58584603Y-24711522D01*
X58539682Y-24672081D01*
X58486877Y-24638009D01*
X58440290Y-24619480D01*
X58430548Y-24618462D01*
X58419582Y-24635215D01*
X58418921Y-24678039D01*
X58426980Y-24735781D01*
X58442173Y-24797289D01*
X58462914Y-24851409D01*
X58463962Y-24853510D01*
X58526379Y-24940660D01*
X58607274Y-24999939D01*
X58699144Y-25029034D01*
X58794487Y-25025634D01*
X58885802Y-24987428D01*
X58889862Y-24984741D01*
X58961694Y-24919642D01*
X59008927Y-24834705D01*
X59035066Y-24723021D01*
X59038574Y-24691643D01*
X59044787Y-24543536D01*
X59037339Y-24474468D01*
X58849846Y-24474468D01*
X58847410Y-24517552D01*
X58834086Y-24530126D01*
X58800868Y-24520719D01*
X58748506Y-24498483D01*
X58689976Y-24470610D01*
X58688521Y-24469872D01*
X58638911Y-24443777D01*
X58619000Y-24426363D01*
X58623910Y-24408107D01*
X58644584Y-24384120D01*
X58697181Y-24349406D01*
X58753823Y-24346856D01*
X58804631Y-24372119D01*
X58839724Y-24420847D01*
X58849846Y-24474468D01*
X59037339Y-24474468D01*
X59032008Y-24425036D01*
X58999222Y-24331055D01*
X58953579Y-24265215D01*
X58871198Y-24198681D01*
X58780454Y-24165676D01*
X58687815Y-24163573D01*
X58599746Y-24189745D01*
G37*
X58599746Y-24189745D02*
X58522714Y-24241567D01*
X58463184Y-24316412D01*
X58427622Y-24411654D01*
X58420429Y-24481756D01*
X58421246Y-24511009D01*
X58428086Y-24533407D01*
X58446888Y-24553474D01*
X58483592Y-24575733D01*
X58544138Y-24604709D01*
X58634466Y-24644927D01*
X58634923Y-24645129D01*
X58718067Y-24683210D01*
X58786247Y-24717025D01*
X58832495Y-24742933D01*
X58849842Y-24757295D01*
X58849846Y-24757411D01*
X58834557Y-24788685D01*
X58798804Y-24823157D01*
X58757758Y-24847990D01*
X58736963Y-24852923D01*
X58680230Y-24835862D01*
X58631373Y-24793133D01*
X58607535Y-24746155D01*
X58584603Y-24711522D01*
X58539682Y-24672081D01*
X58486877Y-24638009D01*
X58440290Y-24619480D01*
X58430548Y-24618462D01*
X58419582Y-24635215D01*
X58418921Y-24678039D01*
X58426980Y-24735781D01*
X58442173Y-24797289D01*
X58462914Y-24851409D01*
X58463962Y-24853510D01*
X58526379Y-24940660D01*
X58607274Y-24999939D01*
X58699144Y-25029034D01*
X58794487Y-25025634D01*
X58885802Y-24987428D01*
X58889862Y-24984741D01*
X58961694Y-24919642D01*
X59008927Y-24834705D01*
X59035066Y-24723021D01*
X59038574Y-24691643D01*
X59044787Y-24543536D01*
X59037339Y-24474468D01*
X58849846Y-24474468D01*
X58847410Y-24517552D01*
X58834086Y-24530126D01*
X58800868Y-24520719D01*
X58748506Y-24498483D01*
X58689976Y-24470610D01*
X58688521Y-24469872D01*
X58638911Y-24443777D01*
X58619000Y-24426363D01*
X58623910Y-24408107D01*
X58644584Y-24384120D01*
X58697181Y-24349406D01*
X58753823Y-24346856D01*
X58804631Y-24372119D01*
X58839724Y-24420847D01*
X58849846Y-24474468D01*
X59037339Y-24474468D01*
X59032008Y-24425036D01*
X58999222Y-24331055D01*
X58953579Y-24265215D01*
X58871198Y-24198681D01*
X58780454Y-24165676D01*
X58687815Y-24163573D01*
X58599746Y-24189745D01*
G36*
X56974154Y-24082120D02*
G01*
X56968428Y-24161980D01*
X56961851Y-24209039D01*
X56952738Y-24229566D01*
X56939402Y-24229829D01*
X56935077Y-24227378D01*
X56877556Y-24209636D01*
X56802732Y-24210672D01*
X56726661Y-24228910D01*
X56679082Y-24252505D01*
X56630298Y-24290198D01*
X56594636Y-24332855D01*
X56570155Y-24387057D01*
X56554913Y-24459384D01*
X56546970Y-24556419D01*
X56544384Y-24684742D01*
X56544338Y-24709358D01*
X56544308Y-24985870D01*
X56605839Y-25007320D01*
X56649541Y-25021912D01*
X56673518Y-25028706D01*
X56674223Y-25028769D01*
X56676585Y-25010345D01*
X56678594Y-24959526D01*
X56680099Y-24882993D01*
X56680947Y-24787430D01*
X56681077Y-24729329D01*
X56681349Y-24614771D01*
X56682748Y-24532667D01*
X56686151Y-24476393D01*
X56692433Y-24439326D01*
X56702471Y-24414844D01*
X56717139Y-24396325D01*
X56726298Y-24387406D01*
X56789211Y-24351466D01*
X56857864Y-24348775D01*
X56920152Y-24379170D01*
X56931671Y-24390144D01*
X56948567Y-24410779D01*
X56960286Y-24435256D01*
X56967767Y-24470647D01*
X56971946Y-24524026D01*
X56973763Y-24602466D01*
X56974154Y-24710617D01*
X56974154Y-24985870D01*
X57035685Y-25007320D01*
X57079387Y-25021912D01*
X57103364Y-25028706D01*
X57104070Y-25028769D01*
X57105874Y-25010069D01*
X57107500Y-24957322D01*
X57108883Y-24875557D01*
X57109958Y-24769805D01*
X57110660Y-24645094D01*
X57110923Y-24506455D01*
X57110923Y-23971806D01*
X56983923Y-23918236D01*
X56974154Y-24082120D01*
G37*
X56974154Y-24082120D02*
X56968428Y-24161980D01*
X56961851Y-24209039D01*
X56952738Y-24229566D01*
X56939402Y-24229829D01*
X56935077Y-24227378D01*
X56877556Y-24209636D01*
X56802732Y-24210672D01*
X56726661Y-24228910D01*
X56679082Y-24252505D01*
X56630298Y-24290198D01*
X56594636Y-24332855D01*
X56570155Y-24387057D01*
X56554913Y-24459384D01*
X56546970Y-24556419D01*
X56544384Y-24684742D01*
X56544338Y-24709358D01*
X56544308Y-24985870D01*
X56605839Y-25007320D01*
X56649541Y-25021912D01*
X56673518Y-25028706D01*
X56674223Y-25028769D01*
X56676585Y-25010345D01*
X56678594Y-24959526D01*
X56680099Y-24882993D01*
X56680947Y-24787430D01*
X56681077Y-24729329D01*
X56681349Y-24614771D01*
X56682748Y-24532667D01*
X56686151Y-24476393D01*
X56692433Y-24439326D01*
X56702471Y-24414844D01*
X56717139Y-24396325D01*
X56726298Y-24387406D01*
X56789211Y-24351466D01*
X56857864Y-24348775D01*
X56920152Y-24379170D01*
X56931671Y-24390144D01*
X56948567Y-24410779D01*
X56960286Y-24435256D01*
X56967767Y-24470647D01*
X56971946Y-24524026D01*
X56973763Y-24602466D01*
X56974154Y-24710617D01*
X56974154Y-24985870D01*
X57035685Y-25007320D01*
X57079387Y-25021912D01*
X57103364Y-25028706D01*
X57104070Y-25028769D01*
X57105874Y-25010069D01*
X57107500Y-24957322D01*
X57108883Y-24875557D01*
X57109958Y-24769805D01*
X57110660Y-24645094D01*
X57110923Y-24506455D01*
X57110923Y-23971806D01*
X56983923Y-23918236D01*
X56974154Y-24082120D01*
G36*
X56080499Y-24216303D02*
G01*
X56003940Y-24244733D01*
X56003064Y-24245279D01*
X55955715Y-24280127D01*
X55920759Y-24320852D01*
X55896175Y-24373925D01*
X55879938Y-24445814D01*
X55870025Y-24542992D01*
X55864414Y-24671928D01*
X55863923Y-24690298D01*
X55856859Y-24967287D01*
X55916305Y-24998028D01*
X55959319Y-25018802D01*
X55985290Y-25028646D01*
X55986491Y-25028769D01*
X55990986Y-25010606D01*
X55994556Y-24961612D01*
X55996752Y-24890031D01*
X55997231Y-24832068D01*
X55997242Y-24738170D01*
X56001534Y-24679203D01*
X56016497Y-24651079D01*
X56048518Y-24649706D01*
X56103986Y-24670998D01*
X56187731Y-24710136D01*
X56249311Y-24742643D01*
X56280983Y-24770845D01*
X56290294Y-24801582D01*
X56290308Y-24803104D01*
X56274943Y-24856054D01*
X56229453Y-24884660D01*
X56159834Y-24888803D01*
X56109687Y-24888084D01*
X56083246Y-24902527D01*
X56066757Y-24937218D01*
X56057267Y-24981416D01*
X56070943Y-25006493D01*
X56076093Y-25010082D01*
X56124575Y-25024496D01*
X56192469Y-25026537D01*
X56262388Y-25016983D01*
X56311932Y-24999522D01*
X56380430Y-24941364D01*
X56419366Y-24860408D01*
X56427077Y-24797160D01*
X56421193Y-24740111D01*
X56399899Y-24693542D01*
X56357735Y-24652181D01*
X56289241Y-24610755D01*
X56188956Y-24563993D01*
X56182846Y-24561350D01*
X56092510Y-24519617D01*
X56036765Y-24485391D01*
X56012871Y-24454635D01*
X56018087Y-24423311D01*
X56049672Y-24387383D01*
X56059117Y-24379116D01*
X56122383Y-24347058D01*
X56187936Y-24348407D01*
X56245028Y-24379838D01*
X56282907Y-24438024D01*
X56286426Y-24449446D01*
X56320700Y-24504837D01*
X56364191Y-24531518D01*
X56427077Y-24557960D01*
X56427077Y-24489548D01*
X56407948Y-24390110D01*
X56351169Y-24298902D01*
X56321622Y-24268389D01*
X56254458Y-24229228D01*
X56169044Y-24211500D01*
X56080499Y-24216303D01*
G37*
X56080499Y-24216303D02*
X56003940Y-24244733D01*
X56003064Y-24245279D01*
X55955715Y-24280127D01*
X55920759Y-24320852D01*
X55896175Y-24373925D01*
X55879938Y-24445814D01*
X55870025Y-24542992D01*
X55864414Y-24671928D01*
X55863923Y-24690298D01*
X55856859Y-24967287D01*
X55916305Y-24998028D01*
X55959319Y-25018802D01*
X55985290Y-25028646D01*
X55986491Y-25028769D01*
X55990986Y-25010606D01*
X55994556Y-24961612D01*
X55996752Y-24890031D01*
X55997231Y-24832068D01*
X55997242Y-24738170D01*
X56001534Y-24679203D01*
X56016497Y-24651079D01*
X56048518Y-24649706D01*
X56103986Y-24670998D01*
X56187731Y-24710136D01*
X56249311Y-24742643D01*
X56280983Y-24770845D01*
X56290294Y-24801582D01*
X56290308Y-24803104D01*
X56274943Y-24856054D01*
X56229453Y-24884660D01*
X56159834Y-24888803D01*
X56109687Y-24888084D01*
X56083246Y-24902527D01*
X56066757Y-24937218D01*
X56057267Y-24981416D01*
X56070943Y-25006493D01*
X56076093Y-25010082D01*
X56124575Y-25024496D01*
X56192469Y-25026537D01*
X56262388Y-25016983D01*
X56311932Y-24999522D01*
X56380430Y-24941364D01*
X56419366Y-24860408D01*
X56427077Y-24797160D01*
X56421193Y-24740111D01*
X56399899Y-24693542D01*
X56357735Y-24652181D01*
X56289241Y-24610755D01*
X56188956Y-24563993D01*
X56182846Y-24561350D01*
X56092510Y-24519617D01*
X56036765Y-24485391D01*
X56012871Y-24454635D01*
X56018087Y-24423311D01*
X56049672Y-24387383D01*
X56059117Y-24379116D01*
X56122383Y-24347058D01*
X56187936Y-24348407D01*
X56245028Y-24379838D01*
X56282907Y-24438024D01*
X56286426Y-24449446D01*
X56320700Y-24504837D01*
X56364191Y-24531518D01*
X56427077Y-24557960D01*
X56427077Y-24489548D01*
X56407948Y-24390110D01*
X56351169Y-24298902D01*
X56321622Y-24268389D01*
X56254458Y-24229228D01*
X56169044Y-24211500D01*
X56080499Y-24216303D01*
G36*
X55420638Y-24214670D02*
G01*
X55331883Y-24247421D01*
X55259978Y-24305350D01*
X55231856Y-24346128D01*
X55201198Y-24420954D01*
X55201835Y-24475058D01*
X55234013Y-24511446D01*
X55245919Y-24517633D01*
X55297325Y-24536925D01*
X55323578Y-24531982D01*
X55332470Y-24499587D01*
X55332923Y-24481692D01*
X55349203Y-24415859D01*
X55391635Y-24369807D01*
X55450612Y-24347564D01*
X55516525Y-24353161D01*
X55570105Y-24382229D01*
X55588202Y-24398810D01*
X55601029Y-24418925D01*
X55609694Y-24449332D01*
X55615304Y-24496788D01*
X55618965Y-24568050D01*
X55621785Y-24669875D01*
X55622516Y-24702115D01*
X55625180Y-24812410D01*
X55628208Y-24890036D01*
X55632750Y-24941396D01*
X55639954Y-24972890D01*
X55650967Y-24990920D01*
X55666940Y-25001888D01*
X55677166Y-25006733D01*
X55720594Y-25023301D01*
X55746158Y-25028769D01*
X55754605Y-25010507D01*
X55759761Y-24955296D01*
X55761654Y-24862499D01*
X55760311Y-24731478D01*
X55759893Y-24711269D01*
X55756942Y-24591733D01*
X55753452Y-24504449D01*
X55748486Y-24442591D01*
X55741107Y-24399336D01*
X55730376Y-24367860D01*
X55715355Y-24341339D01*
X55707498Y-24329975D01*
X55662447Y-24279692D01*
X55612060Y-24240581D01*
X55605892Y-24237167D01*
X55515542Y-24210212D01*
X55420638Y-24214670D01*
G37*
X55420638Y-24214670D02*
X55331883Y-24247421D01*
X55259978Y-24305350D01*
X55231856Y-24346128D01*
X55201198Y-24420954D01*
X55201835Y-24475058D01*
X55234013Y-24511446D01*
X55245919Y-24517633D01*
X55297325Y-24536925D01*
X55323578Y-24531982D01*
X55332470Y-24499587D01*
X55332923Y-24481692D01*
X55349203Y-24415859D01*
X55391635Y-24369807D01*
X55450612Y-24347564D01*
X55516525Y-24353161D01*
X55570105Y-24382229D01*
X55588202Y-24398810D01*
X55601029Y-24418925D01*
X55609694Y-24449332D01*
X55615304Y-24496788D01*
X55618965Y-24568050D01*
X55621785Y-24669875D01*
X55622516Y-24702115D01*
X55625180Y-24812410D01*
X55628208Y-24890036D01*
X55632750Y-24941396D01*
X55639954Y-24972890D01*
X55650967Y-24990920D01*
X55666940Y-25001888D01*
X55677166Y-25006733D01*
X55720594Y-25023301D01*
X55746158Y-25028769D01*
X55754605Y-25010507D01*
X55759761Y-24955296D01*
X55761654Y-24862499D01*
X55760311Y-24731478D01*
X55759893Y-24711269D01*
X55756942Y-24591733D01*
X55753452Y-24504449D01*
X55748486Y-24442591D01*
X55741107Y-24399336D01*
X55730376Y-24367860D01*
X55715355Y-24341339D01*
X55707498Y-24329975D01*
X55662447Y-24279692D01*
X55612060Y-24240581D01*
X55605892Y-24237167D01*
X55515542Y-24210212D01*
X55420638Y-24214670D01*
G36*
X54531919Y-24370289D02*
G01*
X54532167Y-24516320D01*
X54533128Y-24628655D01*
X54535206Y-24712678D01*
X54538807Y-24773769D01*
X54544335Y-24817309D01*
X54552196Y-24848679D01*
X54562793Y-24873262D01*
X54570818Y-24887294D01*
X54637272Y-24963388D01*
X54721530Y-25011084D01*
X54814751Y-25028199D01*
X54908100Y-25012546D01*
X54963688Y-24984418D01*
X55022043Y-24935760D01*
X55061814Y-24876333D01*
X55085810Y-24798507D01*
X55096839Y-24694652D01*
X55098401Y-24618462D01*
X55098191Y-24612986D01*
X54961692Y-24612986D01*
X54960859Y-24700355D01*
X54957039Y-24758192D01*
X54948254Y-24796029D01*
X54932526Y-24823398D01*
X54913734Y-24844042D01*
X54850625Y-24883890D01*
X54782863Y-24887295D01*
X54718821Y-24854025D01*
X54713836Y-24849517D01*
X54692561Y-24826067D01*
X54679221Y-24798166D01*
X54671999Y-24756641D01*
X54669077Y-24692316D01*
X54668615Y-24621200D01*
X54669617Y-24531858D01*
X54673762Y-24472258D01*
X54682764Y-24433089D01*
X54698333Y-24405040D01*
X54711098Y-24390144D01*
X54770400Y-24352575D01*
X54838699Y-24348057D01*
X54903890Y-24376753D01*
X54916472Y-24387406D01*
X54937889Y-24411063D01*
X54951256Y-24439251D01*
X54958434Y-24481245D01*
X54961281Y-24546319D01*
X54961692Y-24612986D01*
X55098191Y-24612986D01*
X55093678Y-24495765D01*
X55077638Y-24403577D01*
X55047472Y-24334269D01*
X55000371Y-24280211D01*
X54963688Y-24252505D01*
X54897010Y-24222572D01*
X54819728Y-24208678D01*
X54747890Y-24212397D01*
X54707692Y-24227400D01*
X54691918Y-24231670D01*
X54681450Y-24215750D01*
X54674144Y-24173089D01*
X54668615Y-24108106D01*
X54662563Y-24035732D01*
X54654156Y-23992187D01*
X54638859Y-23967287D01*
X54612136Y-23950845D01*
X54595346Y-23943564D01*
X54531846Y-23916963D01*
X54531919Y-24370289D01*
G37*
X54531919Y-24370289D02*
X54532167Y-24516320D01*
X54533128Y-24628655D01*
X54535206Y-24712678D01*
X54538807Y-24773769D01*
X54544335Y-24817309D01*
X54552196Y-24848679D01*
X54562793Y-24873262D01*
X54570818Y-24887294D01*
X54637272Y-24963388D01*
X54721530Y-25011084D01*
X54814751Y-25028199D01*
X54908100Y-25012546D01*
X54963688Y-24984418D01*
X55022043Y-24935760D01*
X55061814Y-24876333D01*
X55085810Y-24798507D01*
X55096839Y-24694652D01*
X55098401Y-24618462D01*
X55098191Y-24612986D01*
X54961692Y-24612986D01*
X54960859Y-24700355D01*
X54957039Y-24758192D01*
X54948254Y-24796029D01*
X54932526Y-24823398D01*
X54913734Y-24844042D01*
X54850625Y-24883890D01*
X54782863Y-24887295D01*
X54718821Y-24854025D01*
X54713836Y-24849517D01*
X54692561Y-24826067D01*
X54679221Y-24798166D01*
X54671999Y-24756641D01*
X54669077Y-24692316D01*
X54668615Y-24621200D01*
X54669617Y-24531858D01*
X54673762Y-24472258D01*
X54682764Y-24433089D01*
X54698333Y-24405040D01*
X54711098Y-24390144D01*
X54770400Y-24352575D01*
X54838699Y-24348057D01*
X54903890Y-24376753D01*
X54916472Y-24387406D01*
X54937889Y-24411063D01*
X54951256Y-24439251D01*
X54958434Y-24481245D01*
X54961281Y-24546319D01*
X54961692Y-24612986D01*
X55098191Y-24612986D01*
X55093678Y-24495765D01*
X55077638Y-24403577D01*
X55047472Y-24334269D01*
X55000371Y-24280211D01*
X54963688Y-24252505D01*
X54897010Y-24222572D01*
X54819728Y-24208678D01*
X54747890Y-24212397D01*
X54707692Y-24227400D01*
X54691918Y-24231670D01*
X54681450Y-24215750D01*
X54674144Y-24173089D01*
X54668615Y-24108106D01*
X54662563Y-24035732D01*
X54654156Y-23992187D01*
X54638859Y-23967287D01*
X54612136Y-23950845D01*
X54595346Y-23943564D01*
X54531846Y-23916963D01*
X54531919Y-24370289D01*
G36*
X53738071Y-24226662D02*
G01*
X53735089Y-24278068D01*
X53732753Y-24356192D01*
X53731251Y-24454857D01*
X53730769Y-24558343D01*
X53730769Y-24908533D01*
X53792599Y-24970363D01*
X53835207Y-25008462D01*
X53872610Y-25023895D01*
X53923730Y-25022918D01*
X53944022Y-25020433D01*
X54007446Y-25013200D01*
X54059905Y-25009055D01*
X54072692Y-25008672D01*
X54115801Y-25011176D01*
X54177456Y-25017462D01*
X54201362Y-25020433D01*
X54260078Y-25025028D01*
X54299536Y-25015046D01*
X54338662Y-24984228D01*
X54352785Y-24970363D01*
X54414615Y-24908533D01*
X54414615Y-24253503D01*
X54364850Y-24230829D01*
X54321998Y-24214034D01*
X54296927Y-24208154D01*
X54290499Y-24226736D01*
X54284491Y-24278655D01*
X54279303Y-24358172D01*
X54275336Y-24459546D01*
X54273423Y-24545192D01*
X54268077Y-24882231D01*
X54221440Y-24888825D01*
X54179024Y-24884214D01*
X54158240Y-24869287D01*
X54152430Y-24841377D01*
X54147470Y-24781925D01*
X54143754Y-24698466D01*
X54141676Y-24598532D01*
X54141376Y-24547104D01*
X54141077Y-24251054D01*
X54079546Y-24229604D01*
X54035996Y-24215020D01*
X54012306Y-24208219D01*
X54011623Y-24208154D01*
X54009246Y-24226642D01*
X54006634Y-24277906D01*
X54004005Y-24355649D01*
X54001579Y-24453574D01*
X53999885Y-24545192D01*
X53994539Y-24882231D01*
X53877308Y-24882231D01*
X53871928Y-24574746D01*
X53866549Y-24267261D01*
X53809399Y-24237707D01*
X53767203Y-24217413D01*
X53742230Y-24208204D01*
X53741509Y-24208154D01*
X53738071Y-24226662D01*
G37*
X53738071Y-24226662D02*
X53735089Y-24278068D01*
X53732753Y-24356192D01*
X53731251Y-24454857D01*
X53730769Y-24558343D01*
X53730769Y-24908533D01*
X53792599Y-24970363D01*
X53835207Y-25008462D01*
X53872610Y-25023895D01*
X53923730Y-25022918D01*
X53944022Y-25020433D01*
X54007446Y-25013200D01*
X54059905Y-25009055D01*
X54072692Y-25008672D01*
X54115801Y-25011176D01*
X54177456Y-25017462D01*
X54201362Y-25020433D01*
X54260078Y-25025028D01*
X54299536Y-25015046D01*
X54338662Y-24984228D01*
X54352785Y-24970363D01*
X54414615Y-24908533D01*
X54414615Y-24253503D01*
X54364850Y-24230829D01*
X54321998Y-24214034D01*
X54296927Y-24208154D01*
X54290499Y-24226736D01*
X54284491Y-24278655D01*
X54279303Y-24358172D01*
X54275336Y-24459546D01*
X54273423Y-24545192D01*
X54268077Y-24882231D01*
X54221440Y-24888825D01*
X54179024Y-24884214D01*
X54158240Y-24869287D01*
X54152430Y-24841377D01*
X54147470Y-24781925D01*
X54143754Y-24698466D01*
X54141676Y-24598532D01*
X54141376Y-24547104D01*
X54141077Y-24251054D01*
X54079546Y-24229604D01*
X54035996Y-24215020D01*
X54012306Y-24208219D01*
X54011623Y-24208154D01*
X54009246Y-24226642D01*
X54006634Y-24277906D01*
X54004005Y-24355649D01*
X54001579Y-24453574D01*
X53999885Y-24545192D01*
X53994539Y-24882231D01*
X53877308Y-24882231D01*
X53871928Y-24574746D01*
X53866549Y-24267261D01*
X53809399Y-24237707D01*
X53767203Y-24217413D01*
X53742230Y-24208204D01*
X53741509Y-24208154D01*
X53738071Y-24226662D01*
G36*
X53246667Y-24223528D02*
G01*
X53190410Y-24249117D01*
X53146253Y-24280124D01*
X53113899Y-24314795D01*
X53091562Y-24359520D01*
X53077454Y-24420692D01*
X53069789Y-24504701D01*
X53066780Y-24617940D01*
X53066462Y-24692509D01*
X53066462Y-24983420D01*
X53116227Y-25006095D01*
X53155424Y-25022667D01*
X53174843Y-25028769D01*
X53178558Y-25010610D01*
X53181505Y-24961648D01*
X53183309Y-24890153D01*
X53183692Y-24833385D01*
X53185339Y-24751371D01*
X53189778Y-24686309D01*
X53196260Y-24646467D01*
X53201410Y-24638000D01*
X53236023Y-24646646D01*
X53290360Y-24668823D01*
X53353278Y-24698886D01*
X53413632Y-24731192D01*
X53460279Y-24760098D01*
X53482074Y-24779961D01*
X53482161Y-24780175D01*
X53480286Y-24816935D01*
X53463475Y-24852026D01*
X53433961Y-24880528D01*
X53390884Y-24890061D01*
X53354068Y-24888950D01*
X53301926Y-24888133D01*
X53274556Y-24900349D01*
X53258118Y-24932624D01*
X53256045Y-24938710D01*
X53248919Y-24984739D01*
X53267976Y-25012687D01*
X53317647Y-25026007D01*
X53371303Y-25028470D01*
X53467858Y-25010210D01*
X53517841Y-24984131D01*
X53579571Y-24922868D01*
X53612310Y-24847670D01*
X53615247Y-24768211D01*
X53587576Y-24694167D01*
X53545953Y-24647769D01*
X53504396Y-24621793D01*
X53439078Y-24588907D01*
X53362962Y-24555557D01*
X53350274Y-24550461D01*
X53266667Y-24513565D01*
X53218470Y-24481046D01*
X53202970Y-24448718D01*
X53217450Y-24412394D01*
X53242308Y-24384000D01*
X53301061Y-24349039D01*
X53365707Y-24346417D01*
X53424992Y-24373358D01*
X53467661Y-24427088D01*
X53473261Y-24440950D01*
X53505867Y-24491936D01*
X53553470Y-24529787D01*
X53613539Y-24560850D01*
X53613539Y-24472768D01*
X53610003Y-24418951D01*
X53594844Y-24376534D01*
X53561232Y-24331279D01*
X53528965Y-24296420D01*
X53478791Y-24247062D01*
X53439807Y-24220547D01*
X53397936Y-24209911D01*
X53350540Y-24208154D01*
X53246667Y-24223528D01*
G37*
X53246667Y-24223528D02*
X53190410Y-24249117D01*
X53146253Y-24280124D01*
X53113899Y-24314795D01*
X53091562Y-24359520D01*
X53077454Y-24420692D01*
X53069789Y-24504701D01*
X53066780Y-24617940D01*
X53066462Y-24692509D01*
X53066462Y-24983420D01*
X53116227Y-25006095D01*
X53155424Y-25022667D01*
X53174843Y-25028769D01*
X53178558Y-25010610D01*
X53181505Y-24961648D01*
X53183309Y-24890153D01*
X53183692Y-24833385D01*
X53185339Y-24751371D01*
X53189778Y-24686309D01*
X53196260Y-24646467D01*
X53201410Y-24638000D01*
X53236023Y-24646646D01*
X53290360Y-24668823D01*
X53353278Y-24698886D01*
X53413632Y-24731192D01*
X53460279Y-24760098D01*
X53482074Y-24779961D01*
X53482161Y-24780175D01*
X53480286Y-24816935D01*
X53463475Y-24852026D01*
X53433961Y-24880528D01*
X53390884Y-24890061D01*
X53354068Y-24888950D01*
X53301926Y-24888133D01*
X53274556Y-24900349D01*
X53258118Y-24932624D01*
X53256045Y-24938710D01*
X53248919Y-24984739D01*
X53267976Y-25012687D01*
X53317647Y-25026007D01*
X53371303Y-25028470D01*
X53467858Y-25010210D01*
X53517841Y-24984131D01*
X53579571Y-24922868D01*
X53612310Y-24847670D01*
X53615247Y-24768211D01*
X53587576Y-24694167D01*
X53545953Y-24647769D01*
X53504396Y-24621793D01*
X53439078Y-24588907D01*
X53362962Y-24555557D01*
X53350274Y-24550461D01*
X53266667Y-24513565D01*
X53218470Y-24481046D01*
X53202970Y-24448718D01*
X53217450Y-24412394D01*
X53242308Y-24384000D01*
X53301061Y-24349039D01*
X53365707Y-24346417D01*
X53424992Y-24373358D01*
X53467661Y-24427088D01*
X53473261Y-24440950D01*
X53505867Y-24491936D01*
X53553470Y-24529787D01*
X53613539Y-24560850D01*
X53613539Y-24472768D01*
X53610003Y-24418951D01*
X53594844Y-24376534D01*
X53561232Y-24331279D01*
X53528965Y-24296420D01*
X53478791Y-24247062D01*
X53439807Y-24220547D01*
X53397936Y-24209911D01*
X53350540Y-24208154D01*
X53246667Y-24223528D01*
G36*
X52563193Y-24226782D02*
G01*
X52539839Y-24236988D01*
X52484098Y-24281134D01*
X52436431Y-24344967D01*
X52406952Y-24413087D01*
X52402154Y-24446670D01*
X52418240Y-24493556D01*
X52453525Y-24518365D01*
X52491356Y-24533387D01*
X52508679Y-24536155D01*
X52517114Y-24516066D01*
X52533770Y-24472351D01*
X52541077Y-24452598D01*
X52582052Y-24384271D01*
X52641378Y-24350191D01*
X52717448Y-24351239D01*
X52723082Y-24352581D01*
X52763695Y-24371836D01*
X52793552Y-24409375D01*
X52813945Y-24469809D01*
X52826164Y-24557751D01*
X52831500Y-24677813D01*
X52832000Y-24741698D01*
X52832248Y-24842403D01*
X52833874Y-24911054D01*
X52838199Y-24954673D01*
X52846546Y-24980282D01*
X52860235Y-24994903D01*
X52880589Y-25005558D01*
X52881766Y-25006095D01*
X52920962Y-25022667D01*
X52940381Y-25028769D01*
X52943365Y-25010319D01*
X52945919Y-24959323D01*
X52947860Y-24882308D01*
X52949003Y-24785805D01*
X52949231Y-24715184D01*
X52948068Y-24578525D01*
X52943521Y-24474851D01*
X52934001Y-24398108D01*
X52917919Y-24342246D01*
X52893687Y-24301212D01*
X52859714Y-24268954D01*
X52826167Y-24246440D01*
X52745501Y-24216476D01*
X52651619Y-24209718D01*
X52563193Y-24226782D01*
G37*
X52563193Y-24226782D02*
X52539839Y-24236988D01*
X52484098Y-24281134D01*
X52436431Y-24344967D01*
X52406952Y-24413087D01*
X52402154Y-24446670D01*
X52418240Y-24493556D01*
X52453525Y-24518365D01*
X52491356Y-24533387D01*
X52508679Y-24536155D01*
X52517114Y-24516066D01*
X52533770Y-24472351D01*
X52541077Y-24452598D01*
X52582052Y-24384271D01*
X52641378Y-24350191D01*
X52717448Y-24351239D01*
X52723082Y-24352581D01*
X52763695Y-24371836D01*
X52793552Y-24409375D01*
X52813945Y-24469809D01*
X52826164Y-24557751D01*
X52831500Y-24677813D01*
X52832000Y-24741698D01*
X52832248Y-24842403D01*
X52833874Y-24911054D01*
X52838199Y-24954673D01*
X52846546Y-24980282D01*
X52860235Y-24994903D01*
X52880589Y-25005558D01*
X52881766Y-25006095D01*
X52920962Y-25022667D01*
X52940381Y-25028769D01*
X52943365Y-25010319D01*
X52945919Y-24959323D01*
X52947860Y-24882308D01*
X52949003Y-24785805D01*
X52949231Y-24715184D01*
X52948068Y-24578525D01*
X52943521Y-24474851D01*
X52934001Y-24398108D01*
X52917919Y-24342246D01*
X52893687Y-24301212D01*
X52859714Y-24268954D01*
X52826167Y-24246440D01*
X52745501Y-24216476D01*
X52651619Y-24209718D01*
X52563193Y-24226782D01*
G36*
X51888776Y-24237838D02*
G01*
X51811472Y-24288361D01*
X51774186Y-24333590D01*
X51744647Y-24415663D01*
X51742301Y-24480607D01*
X51747615Y-24567445D01*
X51947885Y-24655103D01*
X52045261Y-24699887D01*
X52108887Y-24735913D01*
X52141971Y-24767117D01*
X52147720Y-24797436D01*
X52129342Y-24830805D01*
X52109077Y-24852923D01*
X52050111Y-24888393D01*
X51985976Y-24890879D01*
X51927074Y-24863235D01*
X51883803Y-24808320D01*
X51876064Y-24788928D01*
X51838994Y-24728364D01*
X51796346Y-24702552D01*
X51737846Y-24680471D01*
X51737846Y-24764184D01*
X51743018Y-24821150D01*
X51763277Y-24869189D01*
X51805738Y-24924346D01*
X51812049Y-24931514D01*
X51859280Y-24980585D01*
X51899879Y-25006920D01*
X51950672Y-25019035D01*
X51992780Y-25023003D01*
X52068098Y-25023991D01*
X52121714Y-25011466D01*
X52155162Y-24992869D01*
X52207732Y-24951975D01*
X52244121Y-24907748D01*
X52267150Y-24852126D01*
X52279641Y-24777047D01*
X52284413Y-24674449D01*
X52284794Y-24622376D01*
X52283499Y-24559948D01*
X52165529Y-24559948D01*
X52164161Y-24593438D01*
X52160751Y-24598923D01*
X52138247Y-24591472D01*
X52089818Y-24571753D01*
X52025092Y-24543718D01*
X52011557Y-24537692D01*
X51929756Y-24496096D01*
X51884688Y-24459538D01*
X51874783Y-24425296D01*
X51898474Y-24390648D01*
X51918040Y-24375339D01*
X51988640Y-24344721D01*
X52054720Y-24349780D01*
X52110041Y-24387151D01*
X52148364Y-24453473D01*
X52160651Y-24506116D01*
X52165529Y-24559948D01*
X52283499Y-24559948D01*
X52282270Y-24500720D01*
X52272968Y-24410710D01*
X52254540Y-24345167D01*
X52224640Y-24296912D01*
X52180920Y-24258767D01*
X52161859Y-24246440D01*
X52075274Y-24214336D01*
X51980478Y-24212316D01*
X51888776Y-24237838D01*
G37*
X51888776Y-24237838D02*
X51811472Y-24288361D01*
X51774186Y-24333590D01*
X51744647Y-24415663D01*
X51742301Y-24480607D01*
X51747615Y-24567445D01*
X51947885Y-24655103D01*
X52045261Y-24699887D01*
X52108887Y-24735913D01*
X52141971Y-24767117D01*
X52147720Y-24797436D01*
X52129342Y-24830805D01*
X52109077Y-24852923D01*
X52050111Y-24888393D01*
X51985976Y-24890879D01*
X51927074Y-24863235D01*
X51883803Y-24808320D01*
X51876064Y-24788928D01*
X51838994Y-24728364D01*
X51796346Y-24702552D01*
X51737846Y-24680471D01*
X51737846Y-24764184D01*
X51743018Y-24821150D01*
X51763277Y-24869189D01*
X51805738Y-24924346D01*
X51812049Y-24931514D01*
X51859280Y-24980585D01*
X51899879Y-25006920D01*
X51950672Y-25019035D01*
X51992780Y-25023003D01*
X52068098Y-25023991D01*
X52121714Y-25011466D01*
X52155162Y-24992869D01*
X52207732Y-24951975D01*
X52244121Y-24907748D01*
X52267150Y-24852126D01*
X52279641Y-24777047D01*
X52284413Y-24674449D01*
X52284794Y-24622376D01*
X52283499Y-24559948D01*
X52165529Y-24559948D01*
X52164161Y-24593438D01*
X52160751Y-24598923D01*
X52138247Y-24591472D01*
X52089818Y-24571753D01*
X52025092Y-24543718D01*
X52011557Y-24537692D01*
X51929756Y-24496096D01*
X51884688Y-24459538D01*
X51874783Y-24425296D01*
X51898474Y-24390648D01*
X51918040Y-24375339D01*
X51988640Y-24344721D01*
X52054720Y-24349780D01*
X52110041Y-24387151D01*
X52148364Y-24453473D01*
X52160651Y-24506116D01*
X52165529Y-24559948D01*
X52283499Y-24559948D01*
X52282270Y-24500720D01*
X52272968Y-24410710D01*
X52254540Y-24345167D01*
X52224640Y-24296912D01*
X52180920Y-24258767D01*
X52161859Y-24246440D01*
X52075274Y-24214336D01*
X51980478Y-24212316D01*
X51888776Y-24237838D01*
G36*
X55994122Y-17877776D02*
G01*
X55888388Y-17878355D01*
X55811868Y-17879922D01*
X55759628Y-17882972D01*
X55726737Y-17887996D01*
X55708263Y-17895489D01*
X55699273Y-17905944D01*
X55694837Y-17919853D01*
X55694406Y-17921654D01*
X55687667Y-17954145D01*
X55675192Y-18018252D01*
X55658281Y-18107151D01*
X55638229Y-18214019D01*
X55616336Y-18332033D01*
X55615571Y-18336178D01*
X55593641Y-18451831D01*
X55573123Y-18554014D01*
X55555341Y-18636598D01*
X55541619Y-18693456D01*
X55533282Y-18718458D01*
X55532884Y-18718901D01*
X55508323Y-18731110D01*
X55457685Y-18751456D01*
X55391905Y-18775545D01*
X55391539Y-18775674D01*
X55308683Y-18806818D01*
X55211000Y-18846491D01*
X55118923Y-18886381D01*
X55114566Y-18888353D01*
X54964593Y-18956420D01*
X54632502Y-18729639D01*
X54530626Y-18660504D01*
X54438343Y-18598697D01*
X54360997Y-18547733D01*
X54303936Y-18511127D01*
X54272505Y-18492394D01*
X54269521Y-18491004D01*
X54246679Y-18497190D01*
X54204018Y-18527035D01*
X54139872Y-18581947D01*
X54052579Y-18663334D01*
X53963465Y-18749922D01*
X53877559Y-18835247D01*
X53800673Y-18913108D01*
X53737436Y-18978697D01*
X53692477Y-19027205D01*
X53670424Y-19053825D01*
X53669604Y-19055195D01*
X53667166Y-19073463D01*
X53676350Y-19103295D01*
X53699426Y-19148721D01*
X53738663Y-19213770D01*
X53796330Y-19302470D01*
X53873205Y-19416657D01*
X53941430Y-19517162D01*
X54002418Y-19607303D01*
X54052644Y-19681849D01*
X54088584Y-19735565D01*
X54106713Y-19763218D01*
X54107854Y-19765095D01*
X54105641Y-19791590D01*
X54088862Y-19843086D01*
X54060858Y-19909851D01*
X54050878Y-19931172D01*
X54007328Y-20026159D01*
X53960866Y-20133937D01*
X53923123Y-20227192D01*
X53895927Y-20296406D01*
X53874325Y-20349006D01*
X53861842Y-20376497D01*
X53860291Y-20378616D01*
X53837332Y-20382124D01*
X53783214Y-20391738D01*
X53705132Y-20406089D01*
X53610281Y-20423807D01*
X53505857Y-20443525D01*
X53399056Y-20463874D01*
X53297074Y-20483486D01*
X53207106Y-20500991D01*
X53136347Y-20515022D01*
X53091994Y-20524209D01*
X53081115Y-20526807D01*
X53069878Y-20533218D01*
X53061395Y-20547697D01*
X53055286Y-20575133D01*
X53051168Y-20620411D01*
X53048659Y-20688420D01*
X53047379Y-20784047D01*
X53046946Y-20912180D01*
X53046923Y-20964701D01*
X53046923Y-21391845D01*
X53149500Y-21412091D01*
X53206569Y-21423070D01*
X53291731Y-21439095D01*
X53394628Y-21458233D01*
X53504904Y-21478551D01*
X53535385Y-21484132D01*
X53637145Y-21503917D01*
X53725795Y-21523373D01*
X53793892Y-21540697D01*
X53833996Y-21554088D01*
X53840677Y-21558079D01*
X53857081Y-21586342D01*
X53880601Y-21641109D01*
X53906684Y-21711588D01*
X53911858Y-21726769D01*
X53946044Y-21820896D01*
X53988477Y-21927101D01*
X54030003Y-22022473D01*
X54030208Y-22022916D01*
X54099360Y-22172525D01*
X53644488Y-22841617D01*
X53936500Y-23134116D01*
X54024820Y-23221170D01*
X54105375Y-23297909D01*
X54173640Y-23360237D01*
X54225092Y-23404056D01*
X54255206Y-23425270D01*
X54259526Y-23426616D01*
X54284889Y-23416016D01*
X54336642Y-23386547D01*
X54409132Y-23341705D01*
X54496706Y-23284984D01*
X54591388Y-23221462D01*
X54687484Y-23156668D01*
X54773163Y-23100287D01*
X54842984Y-23055788D01*
X54891506Y-23026639D01*
X54913218Y-23016308D01*
X54939707Y-23025050D01*
X54989938Y-23048087D01*
X55053549Y-23080631D01*
X55060292Y-23084249D01*
X55145954Y-23127210D01*
X55204694Y-23148279D01*
X55241228Y-23148503D01*
X55260269Y-23128928D01*
X55260380Y-23128654D01*
X55269898Y-23105472D01*
X55292597Y-23050441D01*
X55326718Y-22967822D01*
X55370500Y-22861872D01*
X55422184Y-22736852D01*
X55480008Y-22597020D01*
X55536009Y-22461637D01*
X55597553Y-22312234D01*
X55654061Y-22173832D01*
X55703839Y-22050673D01*
X55745194Y-21947002D01*
X55776432Y-21867059D01*
X55795859Y-21815088D01*
X55801846Y-21795692D01*
X55786832Y-21773443D01*
X55747561Y-21737982D01*
X55695193Y-21698887D01*
X55546059Y-21575245D01*
X55429489Y-21433522D01*
X55346882Y-21276704D01*
X55299634Y-21107775D01*
X55289143Y-20929722D01*
X55296769Y-20847539D01*
X55338318Y-20677031D01*
X55409877Y-20526459D01*
X55507005Y-20397309D01*
X55625266Y-20291064D01*
X55760220Y-20209210D01*
X55907429Y-20153232D01*
X56062456Y-20124615D01*
X56220861Y-20124844D01*
X56378206Y-20155405D01*
X56530054Y-20217782D01*
X56671965Y-20313460D01*
X56731197Y-20367572D01*
X56844797Y-20506520D01*
X56923894Y-20658361D01*
X56969014Y-20818667D01*
X56980684Y-20983012D01*
X56959431Y-21146971D01*
X56905780Y-21306118D01*
X56820260Y-21456025D01*
X56703395Y-21592267D01*
X56572807Y-21698887D01*
X56518412Y-21739642D01*
X56479986Y-21774718D01*
X56466154Y-21795726D01*
X56473397Y-21818635D01*
X56493995Y-21873365D01*
X56526254Y-21955672D01*
X56568479Y-22061315D01*
X56618977Y-22186050D01*
X56676052Y-22325636D01*
X56732146Y-22461670D01*
X56794033Y-22611201D01*
X56851356Y-22749767D01*
X56902356Y-22873107D01*
X56945273Y-22976964D01*
X56978347Y-23057080D01*
X56999819Y-23109195D01*
X57007775Y-23128654D01*
X57026571Y-23148423D01*
X57062926Y-23148365D01*
X57121521Y-23127441D01*
X57207032Y-23084613D01*
X57207708Y-23084249D01*
X57272093Y-23051012D01*
X57324139Y-23026802D01*
X57353488Y-23016404D01*
X57354783Y-23016308D01*
X57376876Y-23026855D01*
X57425652Y-23056184D01*
X57495669Y-23100827D01*
X57581486Y-23157314D01*
X57676612Y-23221462D01*
X57773460Y-23286411D01*
X57860747Y-23342896D01*
X57932819Y-23387421D01*
X57984023Y-23416490D01*
X58008474Y-23426616D01*
X58030990Y-23413307D01*
X58076258Y-23376112D01*
X58139756Y-23319128D01*
X58216961Y-23246449D01*
X58303349Y-23162171D01*
X58331601Y-23134016D01*
X58623713Y-22841416D01*
X58401369Y-22515104D01*
X58333798Y-22414897D01*
X58274493Y-22324963D01*
X58226783Y-22250510D01*
X58193993Y-22196751D01*
X58179452Y-22168894D01*
X58179026Y-22166912D01*
X58186692Y-22140655D01*
X58207311Y-22087837D01*
X58237315Y-22017310D01*
X58258375Y-21970093D01*
X58297752Y-21879694D01*
X58334835Y-21788366D01*
X58363585Y-21711200D01*
X58371395Y-21687692D01*
X58393583Y-21624916D01*
X58415273Y-21576411D01*
X58427187Y-21558079D01*
X58453477Y-21546859D01*
X58510858Y-21530954D01*
X58591882Y-21512167D01*
X58689105Y-21492299D01*
X58732615Y-21484132D01*
X58843104Y-21463829D01*
X58949084Y-21444170D01*
X59040199Y-21427088D01*
X59106092Y-21414518D01*
X59118500Y-21412091D01*
X59221077Y-21391845D01*
X59221077Y-20964701D01*
X59220847Y-20824246D01*
X59219901Y-20717979D01*
X59217859Y-20641013D01*
X59214338Y-20588460D01*
X59208957Y-20555433D01*
X59201334Y-20537045D01*
X59191088Y-20528408D01*
X59186885Y-20526807D01*
X59161530Y-20521127D01*
X59105516Y-20509795D01*
X59026036Y-20494179D01*
X58930288Y-20475647D01*
X58825467Y-20455569D01*
X58718768Y-20435312D01*
X58617387Y-20416246D01*
X58528521Y-20399739D01*
X58459363Y-20387159D01*
X58417111Y-20379875D01*
X58407710Y-20378616D01*
X58399193Y-20361763D01*
X58380340Y-20316870D01*
X58354676Y-20252430D01*
X58344877Y-20227192D01*
X58305352Y-20129686D01*
X58258808Y-20021959D01*
X58217123Y-19931172D01*
X58186450Y-19861753D01*
X58166044Y-19804710D01*
X58159232Y-19769777D01*
X58160318Y-19765095D01*
X58174715Y-19742991D01*
X58207588Y-19693831D01*
X58255410Y-19622848D01*
X58314652Y-19535278D01*
X58381785Y-19436357D01*
X58395059Y-19416830D01*
X58472954Y-19301140D01*
X58530213Y-19213044D01*
X58569119Y-19148486D01*
X58591956Y-19103411D01*
X58601006Y-19073763D01*
X58598552Y-19055485D01*
X58598489Y-19055369D01*
X58579173Y-19031361D01*
X58536449Y-18984947D01*
X58474949Y-18920937D01*
X58399302Y-18844145D01*
X58314139Y-18759382D01*
X58304535Y-18749922D01*
X58197210Y-18645989D01*
X58114385Y-18569675D01*
X58054395Y-18519571D01*
X58015577Y-18494270D01*
X57998480Y-18491004D01*
X57973527Y-18505250D01*
X57921745Y-18538156D01*
X57848480Y-18586208D01*
X57759080Y-18645890D01*
X57658889Y-18713688D01*
X57635499Y-18729639D01*
X57303407Y-18956420D01*
X57153435Y-18888353D01*
X57062230Y-18848685D01*
X56964331Y-18808791D01*
X56880169Y-18776983D01*
X56876462Y-18775674D01*
X56810631Y-18751576D01*
X56759884Y-18731200D01*
X56735158Y-18718936D01*
X56735116Y-18718901D01*
X56727271Y-18696734D01*
X56713934Y-18642217D01*
X56696430Y-18561480D01*
X56676083Y-18460650D01*
X56654218Y-18345856D01*
X56652429Y-18336178D01*
X56630496Y-18217904D01*
X56610360Y-18110542D01*
X56593320Y-18020917D01*
X56580672Y-17955851D01*
X56573716Y-17922168D01*
X56573594Y-17921654D01*
X56569361Y-17907325D01*
X56561129Y-17896507D01*
X56543967Y-17888706D01*
X56512942Y-17883429D01*
X56463122Y-17880182D01*
X56389576Y-17878472D01*
X56287371Y-17877807D01*
X56151575Y-17877693D01*
X56134000Y-17877692D01*
X55994122Y-17877776D01*
G37*
X55994122Y-17877776D02*
X55888388Y-17878355D01*
X55811868Y-17879922D01*
X55759628Y-17882972D01*
X55726737Y-17887996D01*
X55708263Y-17895489D01*
X55699273Y-17905944D01*
X55694837Y-17919853D01*
X55694406Y-17921654D01*
X55687667Y-17954145D01*
X55675192Y-18018252D01*
X55658281Y-18107151D01*
X55638229Y-18214019D01*
X55616336Y-18332033D01*
X55615571Y-18336178D01*
X55593641Y-18451831D01*
X55573123Y-18554014D01*
X55555341Y-18636598D01*
X55541619Y-18693456D01*
X55533282Y-18718458D01*
X55532884Y-18718901D01*
X55508323Y-18731110D01*
X55457685Y-18751456D01*
X55391905Y-18775545D01*
X55391539Y-18775674D01*
X55308683Y-18806818D01*
X55211000Y-18846491D01*
X55118923Y-18886381D01*
X55114566Y-18888353D01*
X54964593Y-18956420D01*
X54632502Y-18729639D01*
X54530626Y-18660504D01*
X54438343Y-18598697D01*
X54360997Y-18547733D01*
X54303936Y-18511127D01*
X54272505Y-18492394D01*
X54269521Y-18491004D01*
X54246679Y-18497190D01*
X54204018Y-18527035D01*
X54139872Y-18581947D01*
X54052579Y-18663334D01*
X53963465Y-18749922D01*
X53877559Y-18835247D01*
X53800673Y-18913108D01*
X53737436Y-18978697D01*
X53692477Y-19027205D01*
X53670424Y-19053825D01*
X53669604Y-19055195D01*
X53667166Y-19073463D01*
X53676350Y-19103295D01*
X53699426Y-19148721D01*
X53738663Y-19213770D01*
X53796330Y-19302470D01*
X53873205Y-19416657D01*
X53941430Y-19517162D01*
X54002418Y-19607303D01*
X54052644Y-19681849D01*
X54088584Y-19735565D01*
X54106713Y-19763218D01*
X54107854Y-19765095D01*
X54105641Y-19791590D01*
X54088862Y-19843086D01*
X54060858Y-19909851D01*
X54050878Y-19931172D01*
X54007328Y-20026159D01*
X53960866Y-20133937D01*
X53923123Y-20227192D01*
X53895927Y-20296406D01*
X53874325Y-20349006D01*
X53861842Y-20376497D01*
X53860291Y-20378616D01*
X53837332Y-20382124D01*
X53783214Y-20391738D01*
X53705132Y-20406089D01*
X53610281Y-20423807D01*
X53505857Y-20443525D01*
X53399056Y-20463874D01*
X53297074Y-20483486D01*
X53207106Y-20500991D01*
X53136347Y-20515022D01*
X53091994Y-20524209D01*
X53081115Y-20526807D01*
X53069878Y-20533218D01*
X53061395Y-20547697D01*
X53055286Y-20575133D01*
X53051168Y-20620411D01*
X53048659Y-20688420D01*
X53047379Y-20784047D01*
X53046946Y-20912180D01*
X53046923Y-20964701D01*
X53046923Y-21391845D01*
X53149500Y-21412091D01*
X53206569Y-21423070D01*
X53291731Y-21439095D01*
X53394628Y-21458233D01*
X53504904Y-21478551D01*
X53535385Y-21484132D01*
X53637145Y-21503917D01*
X53725795Y-21523373D01*
X53793892Y-21540697D01*
X53833996Y-21554088D01*
X53840677Y-21558079D01*
X53857081Y-21586342D01*
X53880601Y-21641109D01*
X53906684Y-21711588D01*
X53911858Y-21726769D01*
X53946044Y-21820896D01*
X53988477Y-21927101D01*
X54030003Y-22022473D01*
X54030208Y-22022916D01*
X54099360Y-22172525D01*
X53644488Y-22841617D01*
X53936500Y-23134116D01*
X54024820Y-23221170D01*
X54105375Y-23297909D01*
X54173640Y-23360237D01*
X54225092Y-23404056D01*
X54255206Y-23425270D01*
X54259526Y-23426616D01*
X54284889Y-23416016D01*
X54336642Y-23386547D01*
X54409132Y-23341705D01*
X54496706Y-23284984D01*
X54591388Y-23221462D01*
X54687484Y-23156668D01*
X54773163Y-23100287D01*
X54842984Y-23055788D01*
X54891506Y-23026639D01*
X54913218Y-23016308D01*
X54939707Y-23025050D01*
X54989938Y-23048087D01*
X55053549Y-23080631D01*
X55060292Y-23084249D01*
X55145954Y-23127210D01*
X55204694Y-23148279D01*
X55241228Y-23148503D01*
X55260269Y-23128928D01*
X55260380Y-23128654D01*
X55269898Y-23105472D01*
X55292597Y-23050441D01*
X55326718Y-22967822D01*
X55370500Y-22861872D01*
X55422184Y-22736852D01*
X55480008Y-22597020D01*
X55536009Y-22461637D01*
X55597553Y-22312234D01*
X55654061Y-22173832D01*
X55703839Y-22050673D01*
X55745194Y-21947002D01*
X55776432Y-21867059D01*
X55795859Y-21815088D01*
X55801846Y-21795692D01*
X55786832Y-21773443D01*
X55747561Y-21737982D01*
X55695193Y-21698887D01*
X55546059Y-21575245D01*
X55429489Y-21433522D01*
X55346882Y-21276704D01*
X55299634Y-21107775D01*
X55289143Y-20929722D01*
X55296769Y-20847539D01*
X55338318Y-20677031D01*
X55409877Y-20526459D01*
X55507005Y-20397309D01*
X55625266Y-20291064D01*
X55760220Y-20209210D01*
X55907429Y-20153232D01*
X56062456Y-20124615D01*
X56220861Y-20124844D01*
X56378206Y-20155405D01*
X56530054Y-20217782D01*
X56671965Y-20313460D01*
X56731197Y-20367572D01*
X56844797Y-20506520D01*
X56923894Y-20658361D01*
X56969014Y-20818667D01*
X56980684Y-20983012D01*
X56959431Y-21146971D01*
X56905780Y-21306118D01*
X56820260Y-21456025D01*
X56703395Y-21592267D01*
X56572807Y-21698887D01*
X56518412Y-21739642D01*
X56479986Y-21774718D01*
X56466154Y-21795726D01*
X56473397Y-21818635D01*
X56493995Y-21873365D01*
X56526254Y-21955672D01*
X56568479Y-22061315D01*
X56618977Y-22186050D01*
X56676052Y-22325636D01*
X56732146Y-22461670D01*
X56794033Y-22611201D01*
X56851356Y-22749767D01*
X56902356Y-22873107D01*
X56945273Y-22976964D01*
X56978347Y-23057080D01*
X56999819Y-23109195D01*
X57007775Y-23128654D01*
X57026571Y-23148423D01*
X57062926Y-23148365D01*
X57121521Y-23127441D01*
X57207032Y-23084613D01*
X57207708Y-23084249D01*
X57272093Y-23051012D01*
X57324139Y-23026802D01*
X57353488Y-23016404D01*
X57354783Y-23016308D01*
X57376876Y-23026855D01*
X57425652Y-23056184D01*
X57495669Y-23100827D01*
X57581486Y-23157314D01*
X57676612Y-23221462D01*
X57773460Y-23286411D01*
X57860747Y-23342896D01*
X57932819Y-23387421D01*
X57984023Y-23416490D01*
X58008474Y-23426616D01*
X58030990Y-23413307D01*
X58076258Y-23376112D01*
X58139756Y-23319128D01*
X58216961Y-23246449D01*
X58303349Y-23162171D01*
X58331601Y-23134016D01*
X58623713Y-22841416D01*
X58401369Y-22515104D01*
X58333798Y-22414897D01*
X58274493Y-22324963D01*
X58226783Y-22250510D01*
X58193993Y-22196751D01*
X58179452Y-22168894D01*
X58179026Y-22166912D01*
X58186692Y-22140655D01*
X58207311Y-22087837D01*
X58237315Y-22017310D01*
X58258375Y-21970093D01*
X58297752Y-21879694D01*
X58334835Y-21788366D01*
X58363585Y-21711200D01*
X58371395Y-21687692D01*
X58393583Y-21624916D01*
X58415273Y-21576411D01*
X58427187Y-21558079D01*
X58453477Y-21546859D01*
X58510858Y-21530954D01*
X58591882Y-21512167D01*
X58689105Y-21492299D01*
X58732615Y-21484132D01*
X58843104Y-21463829D01*
X58949084Y-21444170D01*
X59040199Y-21427088D01*
X59106092Y-21414518D01*
X59118500Y-21412091D01*
X59221077Y-21391845D01*
X59221077Y-20964701D01*
X59220847Y-20824246D01*
X59219901Y-20717979D01*
X59217859Y-20641013D01*
X59214338Y-20588460D01*
X59208957Y-20555433D01*
X59201334Y-20537045D01*
X59191088Y-20528408D01*
X59186885Y-20526807D01*
X59161530Y-20521127D01*
X59105516Y-20509795D01*
X59026036Y-20494179D01*
X58930288Y-20475647D01*
X58825467Y-20455569D01*
X58718768Y-20435312D01*
X58617387Y-20416246D01*
X58528521Y-20399739D01*
X58459363Y-20387159D01*
X58417111Y-20379875D01*
X58407710Y-20378616D01*
X58399193Y-20361763D01*
X58380340Y-20316870D01*
X58354676Y-20252430D01*
X58344877Y-20227192D01*
X58305352Y-20129686D01*
X58258808Y-20021959D01*
X58217123Y-19931172D01*
X58186450Y-19861753D01*
X58166044Y-19804710D01*
X58159232Y-19769777D01*
X58160318Y-19765095D01*
X58174715Y-19742991D01*
X58207588Y-19693831D01*
X58255410Y-19622848D01*
X58314652Y-19535278D01*
X58381785Y-19436357D01*
X58395059Y-19416830D01*
X58472954Y-19301140D01*
X58530213Y-19213044D01*
X58569119Y-19148486D01*
X58591956Y-19103411D01*
X58601006Y-19073763D01*
X58598552Y-19055485D01*
X58598489Y-19055369D01*
X58579173Y-19031361D01*
X58536449Y-18984947D01*
X58474949Y-18920937D01*
X58399302Y-18844145D01*
X58314139Y-18759382D01*
X58304535Y-18749922D01*
X58197210Y-18645989D01*
X58114385Y-18569675D01*
X58054395Y-18519571D01*
X58015577Y-18494270D01*
X57998480Y-18491004D01*
X57973527Y-18505250D01*
X57921745Y-18538156D01*
X57848480Y-18586208D01*
X57759080Y-18645890D01*
X57658889Y-18713688D01*
X57635499Y-18729639D01*
X57303407Y-18956420D01*
X57153435Y-18888353D01*
X57062230Y-18848685D01*
X56964331Y-18808791D01*
X56880169Y-18776983D01*
X56876462Y-18775674D01*
X56810631Y-18751576D01*
X56759884Y-18731200D01*
X56735158Y-18718936D01*
X56735116Y-18718901D01*
X56727271Y-18696734D01*
X56713934Y-18642217D01*
X56696430Y-18561480D01*
X56676083Y-18460650D01*
X56654218Y-18345856D01*
X56652429Y-18336178D01*
X56630496Y-18217904D01*
X56610360Y-18110542D01*
X56593320Y-18020917D01*
X56580672Y-17955851D01*
X56573716Y-17922168D01*
X56573594Y-17921654D01*
X56569361Y-17907325D01*
X56561129Y-17896507D01*
X56543967Y-17888706D01*
X56512942Y-17883429D01*
X56463122Y-17880182D01*
X56389576Y-17878472D01*
X56287371Y-17877807D01*
X56151575Y-17877693D01*
X56134000Y-17877692D01*
X55994122Y-17877776D01*
D10*
X62616171Y-59801880D02*
X62616171Y-58801880D01*
X62044742Y-59801880D02*
X62473314Y-59230452D01*
X62044742Y-58801880D02*
X62616171Y-59373309D01*
X61854266Y-59897119D02*
X61092361Y-59897119D01*
X60997123Y-58801880D02*
X60425695Y-58801880D01*
X60711409Y-59801880D02*
X60711409Y-58801880D01*
X60139980Y-59516166D02*
X59663790Y-59516166D01*
X60235219Y-59801880D02*
X59901885Y-58801880D01*
X59568552Y-59801880D01*
X58901885Y-59278071D02*
X58759028Y-59325690D01*
X58711409Y-59373309D01*
X58663790Y-59468547D01*
X58663790Y-59611404D01*
X58711409Y-59706642D01*
X58759028Y-59754261D01*
X58854266Y-59801880D01*
X59235219Y-59801880D01*
X59235219Y-58801880D01*
X58901885Y-58801880D01*
X58806647Y-58849500D01*
X58759028Y-58897119D01*
X58711409Y-58992357D01*
X58711409Y-59087595D01*
X58759028Y-59182833D01*
X58806647Y-59230452D01*
X58901885Y-59278071D01*
X59235219Y-59278071D01*
X57711409Y-59801880D02*
X58282838Y-59801880D01*
X57997123Y-59801880D02*
X57997123Y-58801880D01*
X58092361Y-58944738D01*
X58187600Y-59039976D01*
X58282838Y-59087595D01*
M02*
