G04 #@! TF.GenerationSoftware,KiCad,Pcbnew,(5.1.5)-3*
G04 #@! TF.CreationDate,2020-03-17T18:41:03+05:30*
G04 #@! TF.ProjectId,ergocape,6572676f-6361-4706-952e-6b696361645f,rev?*
G04 #@! TF.SameCoordinates,Original*
G04 #@! TF.FileFunction,Legend,Top*
G04 #@! TF.FilePolarity,Positive*
%FSLAX46Y46*%
G04 Gerber Fmt 4.6, Leading zero omitted, Abs format (unit mm)*
G04 Created by KiCad (PCBNEW (5.1.5)-3) date 2020-03-17 18:41:03*
%MOMM*%
%LPD*%
G04 APERTURE LIST*
%ADD10C,0.150000*%
%ADD11C,0.010000*%
G04 APERTURE END LIST*
D10*
X45086238Y-26439761D02*
X44991000Y-26487380D01*
X44800523Y-26487380D01*
X44705285Y-26439761D01*
X44657666Y-26392142D01*
X44610047Y-26296904D01*
X44610047Y-26011190D01*
X44657666Y-25915952D01*
X44705285Y-25868333D01*
X44800523Y-25820714D01*
X44991000Y-25820714D01*
X45086238Y-25868333D01*
X45514809Y-26487380D02*
X45514809Y-25820714D01*
X45514809Y-26011190D02*
X45562428Y-25915952D01*
X45610047Y-25868333D01*
X45705285Y-25820714D01*
X45800523Y-25820714D01*
X46514809Y-26439761D02*
X46419571Y-26487380D01*
X46229095Y-26487380D01*
X46133857Y-26439761D01*
X46086238Y-26344523D01*
X46086238Y-25963571D01*
X46133857Y-25868333D01*
X46229095Y-25820714D01*
X46419571Y-25820714D01*
X46514809Y-25868333D01*
X46562428Y-25963571D01*
X46562428Y-26058809D01*
X46086238Y-26154047D01*
X47419571Y-26487380D02*
X47419571Y-25963571D01*
X47371952Y-25868333D01*
X47276714Y-25820714D01*
X47086238Y-25820714D01*
X46991000Y-25868333D01*
X47419571Y-26439761D02*
X47324333Y-26487380D01*
X47086238Y-26487380D01*
X46991000Y-26439761D01*
X46943380Y-26344523D01*
X46943380Y-26249285D01*
X46991000Y-26154047D01*
X47086238Y-26106428D01*
X47324333Y-26106428D01*
X47419571Y-26058809D01*
X47752904Y-25820714D02*
X48133857Y-25820714D01*
X47895761Y-25487380D02*
X47895761Y-26344523D01*
X47943380Y-26439761D01*
X48038619Y-26487380D01*
X48133857Y-26487380D01*
X48848142Y-26439761D02*
X48752904Y-26487380D01*
X48562428Y-26487380D01*
X48467190Y-26439761D01*
X48419571Y-26344523D01*
X48419571Y-25963571D01*
X48467190Y-25868333D01*
X48562428Y-25820714D01*
X48752904Y-25820714D01*
X48848142Y-25868333D01*
X48895761Y-25963571D01*
X48895761Y-26058809D01*
X48419571Y-26154047D01*
X49752904Y-26487380D02*
X49752904Y-25487380D01*
X49752904Y-26439761D02*
X49657666Y-26487380D01*
X49467190Y-26487380D01*
X49371952Y-26439761D01*
X49324333Y-26392142D01*
X49276714Y-26296904D01*
X49276714Y-26011190D01*
X49324333Y-25915952D01*
X49371952Y-25868333D01*
X49467190Y-25820714D01*
X49657666Y-25820714D01*
X49752904Y-25868333D01*
X50991000Y-26487380D02*
X50991000Y-25487380D01*
X50991000Y-25868333D02*
X51086238Y-25820714D01*
X51276714Y-25820714D01*
X51371952Y-25868333D01*
X51419571Y-25915952D01*
X51467190Y-26011190D01*
X51467190Y-26296904D01*
X51419571Y-26392142D01*
X51371952Y-26439761D01*
X51276714Y-26487380D01*
X51086238Y-26487380D01*
X50991000Y-26439761D01*
X51800523Y-25820714D02*
X52038619Y-26487380D01*
X52276714Y-25820714D02*
X52038619Y-26487380D01*
X51943380Y-26725476D01*
X51895761Y-26773095D01*
X51800523Y-26820714D01*
X53848142Y-25820714D02*
X53848142Y-26487380D01*
X53419571Y-25820714D02*
X53419571Y-26344523D01*
X53467190Y-26439761D01*
X53562428Y-26487380D01*
X53705285Y-26487380D01*
X53800523Y-26439761D01*
X53848142Y-26392142D01*
X55038619Y-25439761D02*
X54181476Y-26725476D01*
X55371952Y-26487380D02*
X55371952Y-25487380D01*
X55371952Y-25963571D02*
X55943380Y-25963571D01*
X55943380Y-26487380D02*
X55943380Y-25487380D01*
X56848142Y-26487380D02*
X56848142Y-25963571D01*
X56800523Y-25868333D01*
X56705285Y-25820714D01*
X56514809Y-25820714D01*
X56419571Y-25868333D01*
X56848142Y-26439761D02*
X56752904Y-26487380D01*
X56514809Y-26487380D01*
X56419571Y-26439761D01*
X56371952Y-26344523D01*
X56371952Y-26249285D01*
X56419571Y-26154047D01*
X56514809Y-26106428D01*
X56752904Y-26106428D01*
X56848142Y-26058809D01*
X57324333Y-26487380D02*
X57324333Y-25820714D01*
X57324333Y-26011190D02*
X57371952Y-25915952D01*
X57419571Y-25868333D01*
X57514809Y-25820714D01*
X57610047Y-25820714D01*
X57895761Y-26439761D02*
X57990999Y-26487380D01*
X58181476Y-26487380D01*
X58276714Y-26439761D01*
X58324333Y-26344523D01*
X58324333Y-26296904D01*
X58276714Y-26201666D01*
X58181476Y-26154047D01*
X58038619Y-26154047D01*
X57943380Y-26106428D01*
X57895761Y-26011190D01*
X57895761Y-25963571D01*
X57943380Y-25868333D01*
X58038619Y-25820714D01*
X58181476Y-25820714D01*
X58276714Y-25868333D01*
X58752904Y-26487380D02*
X58752904Y-25487380D01*
X59181476Y-26487380D02*
X59181476Y-25963571D01*
X59133857Y-25868333D01*
X59038619Y-25820714D01*
X58895761Y-25820714D01*
X58800523Y-25868333D01*
X58752904Y-25915952D01*
X59657666Y-26487380D02*
X59657666Y-25820714D01*
X59657666Y-25487380D02*
X59610047Y-25535000D01*
X59657666Y-25582619D01*
X59705285Y-25535000D01*
X59657666Y-25487380D01*
X59657666Y-25582619D01*
X59990999Y-25820714D02*
X60371952Y-25820714D01*
X60133857Y-25487380D02*
X60133857Y-26344523D01*
X60181476Y-26439761D01*
X60276714Y-26487380D01*
X60371952Y-26487380D01*
X61133857Y-25820714D02*
X61133857Y-26630238D01*
X61086238Y-26725476D01*
X61038619Y-26773095D01*
X60943380Y-26820714D01*
X60800523Y-26820714D01*
X60705285Y-26773095D01*
X61133857Y-26439761D02*
X61038619Y-26487380D01*
X60848142Y-26487380D01*
X60752904Y-26439761D01*
X60705285Y-26392142D01*
X60657666Y-26296904D01*
X60657666Y-26011190D01*
X60705285Y-25915952D01*
X60752904Y-25868333D01*
X60848142Y-25820714D01*
X61038619Y-25820714D01*
X61133857Y-25868333D01*
X61752904Y-26487380D02*
X61657666Y-26439761D01*
X61610047Y-26392142D01*
X61562428Y-26296904D01*
X61562428Y-26011190D01*
X61610047Y-25915952D01*
X61657666Y-25868333D01*
X61752904Y-25820714D01*
X61895761Y-25820714D01*
X61990999Y-25868333D01*
X62038619Y-25915952D01*
X62086238Y-26011190D01*
X62086238Y-26296904D01*
X62038619Y-26392142D01*
X61990999Y-26439761D01*
X61895761Y-26487380D01*
X61752904Y-26487380D01*
X62895761Y-26439761D02*
X62800523Y-26487380D01*
X62610047Y-26487380D01*
X62514809Y-26439761D01*
X62467190Y-26344523D01*
X62467190Y-25963571D01*
X62514809Y-25868333D01*
X62610047Y-25820714D01*
X62800523Y-25820714D01*
X62895761Y-25868333D01*
X62943380Y-25963571D01*
X62943380Y-26058809D01*
X62467190Y-26154047D01*
X63514809Y-26487380D02*
X63419571Y-26439761D01*
X63371952Y-26344523D01*
X63371952Y-25487380D01*
X63943380Y-26487380D02*
X64133857Y-26487380D01*
X64229095Y-26439761D01*
X64276714Y-26392142D01*
X64371952Y-26249285D01*
X64419571Y-26058809D01*
X64419571Y-25677857D01*
X64371952Y-25582619D01*
X64324333Y-25535000D01*
X64229095Y-25487380D01*
X64038619Y-25487380D01*
X63943380Y-25535000D01*
X63895761Y-25582619D01*
X63848142Y-25677857D01*
X63848142Y-25915952D01*
X63895761Y-26011190D01*
X63943380Y-26058809D01*
X64038619Y-26106428D01*
X64229095Y-26106428D01*
X64324333Y-26058809D01*
X64371952Y-26011190D01*
X64419571Y-25915952D01*
X65276714Y-25487380D02*
X65086238Y-25487380D01*
X64990999Y-25535000D01*
X64943380Y-25582619D01*
X64848142Y-25725476D01*
X64800523Y-25915952D01*
X64800523Y-26296904D01*
X64848142Y-26392142D01*
X64895761Y-26439761D01*
X64990999Y-26487380D01*
X65181476Y-26487380D01*
X65276714Y-26439761D01*
X65324333Y-26392142D01*
X65371952Y-26296904D01*
X65371952Y-26058809D01*
X65324333Y-25963571D01*
X65276714Y-25915952D01*
X65181476Y-25868333D01*
X64990999Y-25868333D01*
X64895761Y-25915952D01*
X64848142Y-25963571D01*
X64800523Y-26058809D01*
X98322238Y-19327761D02*
X98227000Y-19375380D01*
X98036523Y-19375380D01*
X97941285Y-19327761D01*
X97893666Y-19280142D01*
X97846047Y-19184904D01*
X97846047Y-18899190D01*
X97893666Y-18803952D01*
X97941285Y-18756333D01*
X98036523Y-18708714D01*
X98227000Y-18708714D01*
X98322238Y-18756333D01*
X99179380Y-19375380D02*
X99179380Y-18851571D01*
X99131761Y-18756333D01*
X99036523Y-18708714D01*
X98846047Y-18708714D01*
X98750809Y-18756333D01*
X99179380Y-19327761D02*
X99084142Y-19375380D01*
X98846047Y-19375380D01*
X98750809Y-19327761D01*
X98703190Y-19232523D01*
X98703190Y-19137285D01*
X98750809Y-19042047D01*
X98846047Y-18994428D01*
X99084142Y-18994428D01*
X99179380Y-18946809D01*
X99655571Y-18708714D02*
X99655571Y-19708714D01*
X99655571Y-18756333D02*
X99750809Y-18708714D01*
X99941285Y-18708714D01*
X100036523Y-18756333D01*
X100084142Y-18803952D01*
X100131761Y-18899190D01*
X100131761Y-19184904D01*
X100084142Y-19280142D01*
X100036523Y-19327761D01*
X99941285Y-19375380D01*
X99750809Y-19375380D01*
X99655571Y-19327761D01*
X100417476Y-18708714D02*
X100798428Y-18708714D01*
X100560333Y-18375380D02*
X100560333Y-19232523D01*
X100607952Y-19327761D01*
X100703190Y-19375380D01*
X100798428Y-19375380D01*
X101131761Y-18708714D02*
X101131761Y-19375380D01*
X101131761Y-18803952D02*
X101179380Y-18756333D01*
X101274619Y-18708714D01*
X101417476Y-18708714D01*
X101512714Y-18756333D01*
X101560333Y-18851571D01*
X101560333Y-19375380D01*
X101941285Y-18375380D02*
X102560333Y-18375380D01*
X102227000Y-18756333D01*
X102369857Y-18756333D01*
X102465095Y-18803952D01*
X102512714Y-18851571D01*
X102560333Y-18946809D01*
X102560333Y-19184904D01*
X102512714Y-19280142D01*
X102465095Y-19327761D01*
X102369857Y-19375380D01*
X102084142Y-19375380D01*
X101988904Y-19327761D01*
X101941285Y-19280142D01*
X102988904Y-19375380D02*
X102988904Y-18708714D01*
X102988904Y-18803952D02*
X103036523Y-18756333D01*
X103131761Y-18708714D01*
X103274619Y-18708714D01*
X103369857Y-18756333D01*
X103417476Y-18851571D01*
X103417476Y-19375380D01*
X103417476Y-18851571D02*
X103465095Y-18756333D01*
X103560333Y-18708714D01*
X103703190Y-18708714D01*
X103798428Y-18756333D01*
X103846047Y-18851571D01*
X103846047Y-19375380D01*
X104512714Y-18375380D02*
X104607952Y-18375380D01*
X104703190Y-18423000D01*
X104750809Y-18470619D01*
X104798428Y-18565857D01*
X104846047Y-18756333D01*
X104846047Y-18994428D01*
X104798428Y-19184904D01*
X104750809Y-19280142D01*
X104703190Y-19327761D01*
X104607952Y-19375380D01*
X104512714Y-19375380D01*
X104417476Y-19327761D01*
X104369857Y-19280142D01*
X104322238Y-19184904D01*
X104274619Y-18994428D01*
X104274619Y-18756333D01*
X104322238Y-18565857D01*
X104369857Y-18470619D01*
X104417476Y-18423000D01*
X104512714Y-18375380D01*
X144867809Y-18835714D02*
X144867809Y-19502380D01*
X144439238Y-18835714D02*
X144439238Y-19359523D01*
X144486857Y-19454761D01*
X144582095Y-19502380D01*
X144724952Y-19502380D01*
X144820190Y-19454761D01*
X144867809Y-19407142D01*
X146058285Y-18454761D02*
X145201142Y-19740476D01*
X146391619Y-19502380D02*
X146391619Y-18502380D01*
X146629714Y-18502380D01*
X146772571Y-18550000D01*
X146867809Y-18645238D01*
X146915428Y-18740476D01*
X146963047Y-18930952D01*
X146963047Y-19073809D01*
X146915428Y-19264285D01*
X146867809Y-19359523D01*
X146772571Y-19454761D01*
X146629714Y-19502380D01*
X146391619Y-19502380D01*
X147772571Y-19454761D02*
X147677333Y-19502380D01*
X147486857Y-19502380D01*
X147391619Y-19454761D01*
X147344000Y-19359523D01*
X147344000Y-18978571D01*
X147391619Y-18883333D01*
X147486857Y-18835714D01*
X147677333Y-18835714D01*
X147772571Y-18883333D01*
X147820190Y-18978571D01*
X147820190Y-19073809D01*
X147344000Y-19169047D01*
X148391619Y-19502380D02*
X148296380Y-19454761D01*
X148248761Y-19359523D01*
X148248761Y-18502380D01*
X148629714Y-18835714D02*
X149010666Y-18835714D01*
X148772571Y-18502380D02*
X148772571Y-19359523D01*
X148820190Y-19454761D01*
X148915428Y-19502380D01*
X149010666Y-19502380D01*
X149772571Y-19502380D02*
X149772571Y-18978571D01*
X149724952Y-18883333D01*
X149629714Y-18835714D01*
X149439238Y-18835714D01*
X149344000Y-18883333D01*
X149772571Y-19454761D02*
X149677333Y-19502380D01*
X149439238Y-19502380D01*
X149344000Y-19454761D01*
X149296380Y-19359523D01*
X149296380Y-19264285D01*
X149344000Y-19169047D01*
X149439238Y-19121428D01*
X149677333Y-19121428D01*
X149772571Y-19073809D01*
X150010666Y-19597619D02*
X150772571Y-19597619D01*
X150867809Y-18502380D02*
X151439238Y-18502380D01*
X151153523Y-19502380D02*
X151153523Y-18502380D01*
X151677333Y-18835714D02*
X151867809Y-19502380D01*
X152058285Y-19026190D01*
X152248761Y-19502380D01*
X152439238Y-18835714D01*
X152963047Y-19502380D02*
X152867809Y-19454761D01*
X152820190Y-19407142D01*
X152772571Y-19311904D01*
X152772571Y-19026190D01*
X152820190Y-18930952D01*
X152867809Y-18883333D01*
X152963047Y-18835714D01*
X153105904Y-18835714D01*
X153201142Y-18883333D01*
X153248761Y-18930952D01*
X153296380Y-19026190D01*
X153296380Y-19311904D01*
X153248761Y-19407142D01*
X153201142Y-19454761D01*
X153105904Y-19502380D01*
X152963047Y-19502380D01*
X133802714Y-18502380D02*
X133802714Y-18692857D01*
X134183666Y-18502380D02*
X134183666Y-18692857D01*
X134469380Y-18502380D02*
X135040809Y-18502380D01*
X134755095Y-19502380D02*
X134755095Y-18502380D01*
X135802714Y-19502380D02*
X135802714Y-18978571D01*
X135755095Y-18883333D01*
X135659857Y-18835714D01*
X135469380Y-18835714D01*
X135374142Y-18883333D01*
X135802714Y-19454761D02*
X135707476Y-19502380D01*
X135469380Y-19502380D01*
X135374142Y-19454761D01*
X135326523Y-19359523D01*
X135326523Y-19264285D01*
X135374142Y-19169047D01*
X135469380Y-19121428D01*
X135707476Y-19121428D01*
X135802714Y-19073809D01*
X136183666Y-18835714D02*
X136707476Y-18835714D01*
X136183666Y-19502380D01*
X136707476Y-19502380D01*
X136993190Y-18835714D02*
X137517000Y-18835714D01*
X136993190Y-19502380D01*
X137517000Y-19502380D01*
X137850333Y-18502380D02*
X137850333Y-18692857D01*
X138231285Y-18502380D02*
X138231285Y-18692857D01*
X117459761Y-18835714D02*
X117459761Y-19502380D01*
X117031190Y-18835714D02*
X117031190Y-19359523D01*
X117078809Y-19454761D01*
X117174047Y-19502380D01*
X117316904Y-19502380D01*
X117412142Y-19454761D01*
X117459761Y-19407142D01*
X118650238Y-18454761D02*
X117793095Y-19740476D01*
X118935952Y-19454761D02*
X119078809Y-19502380D01*
X119316904Y-19502380D01*
X119412142Y-19454761D01*
X119459761Y-19407142D01*
X119507380Y-19311904D01*
X119507380Y-19216666D01*
X119459761Y-19121428D01*
X119412142Y-19073809D01*
X119316904Y-19026190D01*
X119126428Y-18978571D01*
X119031190Y-18930952D01*
X118983571Y-18883333D01*
X118935952Y-18788095D01*
X118935952Y-18692857D01*
X118983571Y-18597619D01*
X119031190Y-18550000D01*
X119126428Y-18502380D01*
X119364523Y-18502380D01*
X119507380Y-18550000D01*
X120316904Y-19454761D02*
X120221666Y-19502380D01*
X120031190Y-19502380D01*
X119935952Y-19454761D01*
X119888333Y-19359523D01*
X119888333Y-18978571D01*
X119935952Y-18883333D01*
X120031190Y-18835714D01*
X120221666Y-18835714D01*
X120316904Y-18883333D01*
X120364523Y-18978571D01*
X120364523Y-19073809D01*
X119888333Y-19169047D01*
X120793095Y-18835714D02*
X120793095Y-19502380D01*
X120793095Y-18930952D02*
X120840714Y-18883333D01*
X120935952Y-18835714D01*
X121078809Y-18835714D01*
X121174047Y-18883333D01*
X121221666Y-18978571D01*
X121221666Y-19502380D01*
X121840714Y-19502380D02*
X121745476Y-19454761D01*
X121697857Y-19407142D01*
X121650238Y-19311904D01*
X121650238Y-19026190D01*
X121697857Y-18930952D01*
X121745476Y-18883333D01*
X121840714Y-18835714D01*
X121983571Y-18835714D01*
X122078809Y-18883333D01*
X122126428Y-18930952D01*
X122174047Y-19026190D01*
X122174047Y-19311904D01*
X122126428Y-19407142D01*
X122078809Y-19454761D01*
X121983571Y-19502380D01*
X121840714Y-19502380D01*
X122602619Y-19502380D02*
X122602619Y-18835714D01*
X122602619Y-19026190D02*
X122650238Y-18930952D01*
X122697857Y-18883333D01*
X122793095Y-18835714D01*
X122888333Y-18835714D01*
X122983571Y-19597619D02*
X123745476Y-19597619D01*
X124507380Y-18550000D02*
X124412142Y-18502380D01*
X124269285Y-18502380D01*
X124126428Y-18550000D01*
X124031190Y-18645238D01*
X123983571Y-18740476D01*
X123935952Y-18930952D01*
X123935952Y-19073809D01*
X123983571Y-19264285D01*
X124031190Y-19359523D01*
X124126428Y-19454761D01*
X124269285Y-19502380D01*
X124364523Y-19502380D01*
X124507380Y-19454761D01*
X124555000Y-19407142D01*
X124555000Y-19073809D01*
X124364523Y-19073809D01*
X125126428Y-19502380D02*
X125031190Y-19454761D01*
X124983571Y-19407142D01*
X124935952Y-19311904D01*
X124935952Y-19026190D01*
X124983571Y-18930952D01*
X125031190Y-18883333D01*
X125126428Y-18835714D01*
X125269285Y-18835714D01*
X125364523Y-18883333D01*
X125412142Y-18930952D01*
X125459761Y-19026190D01*
X125459761Y-19311904D01*
X125412142Y-19407142D01*
X125364523Y-19454761D01*
X125269285Y-19502380D01*
X125126428Y-19502380D01*
X126031190Y-19502380D02*
X125935952Y-19454761D01*
X125888333Y-19407142D01*
X125840714Y-19311904D01*
X125840714Y-19026190D01*
X125888333Y-18930952D01*
X125935952Y-18883333D01*
X126031190Y-18835714D01*
X126174047Y-18835714D01*
X126269285Y-18883333D01*
X126316904Y-18930952D01*
X126364523Y-19026190D01*
X126364523Y-19311904D01*
X126316904Y-19407142D01*
X126269285Y-19454761D01*
X126174047Y-19502380D01*
X126031190Y-19502380D01*
X126793095Y-19502380D02*
X126793095Y-18502380D01*
X126793095Y-18883333D02*
X126888333Y-18835714D01*
X127078809Y-18835714D01*
X127174047Y-18883333D01*
X127221666Y-18930952D01*
X127269285Y-19026190D01*
X127269285Y-19311904D01*
X127221666Y-19407142D01*
X127174047Y-19454761D01*
X127078809Y-19502380D01*
X126888333Y-19502380D01*
X126793095Y-19454761D01*
X128078809Y-19454761D02*
X127983571Y-19502380D01*
X127793095Y-19502380D01*
X127697857Y-19454761D01*
X127650238Y-19359523D01*
X127650238Y-18978571D01*
X127697857Y-18883333D01*
X127793095Y-18835714D01*
X127983571Y-18835714D01*
X128078809Y-18883333D01*
X128126428Y-18978571D01*
X128126428Y-19073809D01*
X127650238Y-19169047D01*
D11*
G36*
X56273878Y-17877776D02*
G01*
X56379612Y-17878355D01*
X56456132Y-17879922D01*
X56508372Y-17882972D01*
X56541263Y-17887996D01*
X56559737Y-17895489D01*
X56568727Y-17905944D01*
X56573163Y-17919853D01*
X56573594Y-17921654D01*
X56580333Y-17954145D01*
X56592808Y-18018252D01*
X56609719Y-18107151D01*
X56629771Y-18214019D01*
X56651664Y-18332033D01*
X56652429Y-18336178D01*
X56674359Y-18451831D01*
X56694877Y-18554014D01*
X56712659Y-18636598D01*
X56726381Y-18693456D01*
X56734718Y-18718458D01*
X56735116Y-18718901D01*
X56759677Y-18731110D01*
X56810315Y-18751456D01*
X56876095Y-18775545D01*
X56876461Y-18775674D01*
X56959317Y-18806818D01*
X57057000Y-18846491D01*
X57149077Y-18886381D01*
X57153434Y-18888353D01*
X57303407Y-18956420D01*
X57635498Y-18729639D01*
X57737374Y-18660504D01*
X57829657Y-18598697D01*
X57907003Y-18547733D01*
X57964064Y-18511127D01*
X57995495Y-18492394D01*
X57998479Y-18491004D01*
X58021321Y-18497190D01*
X58063982Y-18527035D01*
X58128128Y-18581947D01*
X58215421Y-18663334D01*
X58304535Y-18749922D01*
X58390441Y-18835247D01*
X58467327Y-18913108D01*
X58530564Y-18978697D01*
X58575523Y-19027205D01*
X58597576Y-19053825D01*
X58598396Y-19055195D01*
X58600834Y-19073463D01*
X58591650Y-19103295D01*
X58568574Y-19148721D01*
X58529337Y-19213770D01*
X58471670Y-19302470D01*
X58394795Y-19416657D01*
X58326570Y-19517162D01*
X58265582Y-19607303D01*
X58215356Y-19681849D01*
X58179416Y-19735565D01*
X58161287Y-19763218D01*
X58160146Y-19765095D01*
X58162359Y-19791590D01*
X58179138Y-19843086D01*
X58207142Y-19909851D01*
X58217122Y-19931172D01*
X58260672Y-20026159D01*
X58307134Y-20133937D01*
X58344877Y-20227192D01*
X58372073Y-20296406D01*
X58393675Y-20349006D01*
X58406158Y-20376497D01*
X58407709Y-20378616D01*
X58430668Y-20382124D01*
X58484786Y-20391738D01*
X58562868Y-20406089D01*
X58657719Y-20423807D01*
X58762143Y-20443525D01*
X58868944Y-20463874D01*
X58970926Y-20483486D01*
X59060894Y-20500991D01*
X59131653Y-20515022D01*
X59176006Y-20524209D01*
X59186885Y-20526807D01*
X59198122Y-20533218D01*
X59206605Y-20547697D01*
X59212714Y-20575133D01*
X59216832Y-20620411D01*
X59219341Y-20688420D01*
X59220621Y-20784047D01*
X59221054Y-20912180D01*
X59221077Y-20964701D01*
X59221077Y-21391845D01*
X59118500Y-21412091D01*
X59061431Y-21423070D01*
X58976269Y-21439095D01*
X58873372Y-21458233D01*
X58763096Y-21478551D01*
X58732615Y-21484132D01*
X58630855Y-21503917D01*
X58542205Y-21523373D01*
X58474108Y-21540697D01*
X58434004Y-21554088D01*
X58427323Y-21558079D01*
X58410919Y-21586342D01*
X58387399Y-21641109D01*
X58361316Y-21711588D01*
X58356142Y-21726769D01*
X58321956Y-21820896D01*
X58279523Y-21927101D01*
X58237997Y-22022473D01*
X58237792Y-22022916D01*
X58168640Y-22172525D01*
X58623512Y-22841617D01*
X58331500Y-23134116D01*
X58243180Y-23221170D01*
X58162625Y-23297909D01*
X58094360Y-23360237D01*
X58042908Y-23404056D01*
X58012794Y-23425270D01*
X58008474Y-23426616D01*
X57983111Y-23416016D01*
X57931358Y-23386547D01*
X57858868Y-23341705D01*
X57771294Y-23284984D01*
X57676612Y-23221462D01*
X57580516Y-23156668D01*
X57494837Y-23100287D01*
X57425016Y-23055788D01*
X57376494Y-23026639D01*
X57354782Y-23016308D01*
X57328293Y-23025050D01*
X57278062Y-23048087D01*
X57214451Y-23080631D01*
X57207708Y-23084249D01*
X57122046Y-23127210D01*
X57063306Y-23148279D01*
X57026772Y-23148503D01*
X57007731Y-23128928D01*
X57007620Y-23128654D01*
X56998102Y-23105472D01*
X56975403Y-23050441D01*
X56941282Y-22967822D01*
X56897500Y-22861872D01*
X56845816Y-22736852D01*
X56787992Y-22597020D01*
X56731991Y-22461637D01*
X56670447Y-22312234D01*
X56613939Y-22173832D01*
X56564161Y-22050673D01*
X56522806Y-21947002D01*
X56491568Y-21867059D01*
X56472141Y-21815088D01*
X56466154Y-21795692D01*
X56481168Y-21773443D01*
X56520439Y-21737982D01*
X56572807Y-21698887D01*
X56721941Y-21575245D01*
X56838511Y-21433522D01*
X56921118Y-21276704D01*
X56968366Y-21107775D01*
X56978857Y-20929722D01*
X56971231Y-20847539D01*
X56929682Y-20677031D01*
X56858123Y-20526459D01*
X56760995Y-20397309D01*
X56642734Y-20291064D01*
X56507780Y-20209210D01*
X56360571Y-20153232D01*
X56205544Y-20124615D01*
X56047139Y-20124844D01*
X55889794Y-20155405D01*
X55737946Y-20217782D01*
X55596035Y-20313460D01*
X55536803Y-20367572D01*
X55423203Y-20506520D01*
X55344106Y-20658361D01*
X55298986Y-20818667D01*
X55287316Y-20983012D01*
X55308569Y-21146971D01*
X55362220Y-21306118D01*
X55447740Y-21456025D01*
X55564605Y-21592267D01*
X55695193Y-21698887D01*
X55749588Y-21739642D01*
X55788014Y-21774718D01*
X55801846Y-21795726D01*
X55794603Y-21818635D01*
X55774005Y-21873365D01*
X55741746Y-21955672D01*
X55699521Y-22061315D01*
X55649023Y-22186050D01*
X55591948Y-22325636D01*
X55535854Y-22461670D01*
X55473967Y-22611201D01*
X55416644Y-22749767D01*
X55365644Y-22873107D01*
X55322727Y-22976964D01*
X55289653Y-23057080D01*
X55268181Y-23109195D01*
X55260225Y-23128654D01*
X55241429Y-23148423D01*
X55205074Y-23148365D01*
X55146479Y-23127441D01*
X55060968Y-23084613D01*
X55060292Y-23084249D01*
X54995907Y-23051012D01*
X54943861Y-23026802D01*
X54914512Y-23016404D01*
X54913217Y-23016308D01*
X54891124Y-23026855D01*
X54842348Y-23056184D01*
X54772331Y-23100827D01*
X54686514Y-23157314D01*
X54591388Y-23221462D01*
X54494540Y-23286411D01*
X54407253Y-23342896D01*
X54335181Y-23387421D01*
X54283977Y-23416490D01*
X54259526Y-23426616D01*
X54237010Y-23413307D01*
X54191742Y-23376112D01*
X54128244Y-23319128D01*
X54051039Y-23246449D01*
X53964651Y-23162171D01*
X53936399Y-23134016D01*
X53644287Y-22841416D01*
X53866631Y-22515104D01*
X53934202Y-22414897D01*
X53993507Y-22324963D01*
X54041217Y-22250510D01*
X54074007Y-22196751D01*
X54088548Y-22168894D01*
X54088974Y-22166912D01*
X54081308Y-22140655D01*
X54060689Y-22087837D01*
X54030685Y-22017310D01*
X54009625Y-21970093D01*
X53970248Y-21879694D01*
X53933165Y-21788366D01*
X53904415Y-21711200D01*
X53896605Y-21687692D01*
X53874417Y-21624916D01*
X53852727Y-21576411D01*
X53840813Y-21558079D01*
X53814523Y-21546859D01*
X53757142Y-21530954D01*
X53676118Y-21512167D01*
X53578895Y-21492299D01*
X53535385Y-21484132D01*
X53424896Y-21463829D01*
X53318916Y-21444170D01*
X53227801Y-21427088D01*
X53161908Y-21414518D01*
X53149500Y-21412091D01*
X53046923Y-21391845D01*
X53046923Y-20964701D01*
X53047153Y-20824246D01*
X53048099Y-20717979D01*
X53050141Y-20641013D01*
X53053662Y-20588460D01*
X53059043Y-20555433D01*
X53066666Y-20537045D01*
X53076912Y-20528408D01*
X53081115Y-20526807D01*
X53106470Y-20521127D01*
X53162484Y-20509795D01*
X53241964Y-20494179D01*
X53337712Y-20475647D01*
X53442533Y-20455569D01*
X53549232Y-20435312D01*
X53650613Y-20416246D01*
X53739479Y-20399739D01*
X53808637Y-20387159D01*
X53850889Y-20379875D01*
X53860290Y-20378616D01*
X53868807Y-20361763D01*
X53887660Y-20316870D01*
X53913324Y-20252430D01*
X53923123Y-20227192D01*
X53962648Y-20129686D01*
X54009192Y-20021959D01*
X54050877Y-19931172D01*
X54081550Y-19861753D01*
X54101956Y-19804710D01*
X54108768Y-19769777D01*
X54107682Y-19765095D01*
X54093285Y-19742991D01*
X54060412Y-19693831D01*
X54012590Y-19622848D01*
X53953348Y-19535278D01*
X53886215Y-19436357D01*
X53872941Y-19416830D01*
X53795046Y-19301140D01*
X53737787Y-19213044D01*
X53698881Y-19148486D01*
X53676044Y-19103411D01*
X53666994Y-19073763D01*
X53669448Y-19055485D01*
X53669511Y-19055369D01*
X53688827Y-19031361D01*
X53731551Y-18984947D01*
X53793051Y-18920937D01*
X53868698Y-18844145D01*
X53953861Y-18759382D01*
X53963465Y-18749922D01*
X54070790Y-18645989D01*
X54153615Y-18569675D01*
X54213605Y-18519571D01*
X54252423Y-18494270D01*
X54269520Y-18491004D01*
X54294473Y-18505250D01*
X54346255Y-18538156D01*
X54419520Y-18586208D01*
X54508920Y-18645890D01*
X54609111Y-18713688D01*
X54632501Y-18729639D01*
X54964593Y-18956420D01*
X55114565Y-18888353D01*
X55205770Y-18848685D01*
X55303669Y-18808791D01*
X55387831Y-18776983D01*
X55391538Y-18775674D01*
X55457369Y-18751576D01*
X55508116Y-18731200D01*
X55532842Y-18718936D01*
X55532884Y-18718901D01*
X55540729Y-18696734D01*
X55554066Y-18642217D01*
X55571570Y-18561480D01*
X55591917Y-18460650D01*
X55613782Y-18345856D01*
X55615571Y-18336178D01*
X55637504Y-18217904D01*
X55657640Y-18110542D01*
X55674680Y-18020917D01*
X55687328Y-17955851D01*
X55694284Y-17922168D01*
X55694406Y-17921654D01*
X55698639Y-17907325D01*
X55706871Y-17896507D01*
X55724033Y-17888706D01*
X55755058Y-17883429D01*
X55804878Y-17880182D01*
X55878424Y-17878472D01*
X55980629Y-17877807D01*
X56116425Y-17877693D01*
X56134000Y-17877692D01*
X56273878Y-17877776D01*
G37*
X56273878Y-17877776D02*
X56379612Y-17878355D01*
X56456132Y-17879922D01*
X56508372Y-17882972D01*
X56541263Y-17887996D01*
X56559737Y-17895489D01*
X56568727Y-17905944D01*
X56573163Y-17919853D01*
X56573594Y-17921654D01*
X56580333Y-17954145D01*
X56592808Y-18018252D01*
X56609719Y-18107151D01*
X56629771Y-18214019D01*
X56651664Y-18332033D01*
X56652429Y-18336178D01*
X56674359Y-18451831D01*
X56694877Y-18554014D01*
X56712659Y-18636598D01*
X56726381Y-18693456D01*
X56734718Y-18718458D01*
X56735116Y-18718901D01*
X56759677Y-18731110D01*
X56810315Y-18751456D01*
X56876095Y-18775545D01*
X56876461Y-18775674D01*
X56959317Y-18806818D01*
X57057000Y-18846491D01*
X57149077Y-18886381D01*
X57153434Y-18888353D01*
X57303407Y-18956420D01*
X57635498Y-18729639D01*
X57737374Y-18660504D01*
X57829657Y-18598697D01*
X57907003Y-18547733D01*
X57964064Y-18511127D01*
X57995495Y-18492394D01*
X57998479Y-18491004D01*
X58021321Y-18497190D01*
X58063982Y-18527035D01*
X58128128Y-18581947D01*
X58215421Y-18663334D01*
X58304535Y-18749922D01*
X58390441Y-18835247D01*
X58467327Y-18913108D01*
X58530564Y-18978697D01*
X58575523Y-19027205D01*
X58597576Y-19053825D01*
X58598396Y-19055195D01*
X58600834Y-19073463D01*
X58591650Y-19103295D01*
X58568574Y-19148721D01*
X58529337Y-19213770D01*
X58471670Y-19302470D01*
X58394795Y-19416657D01*
X58326570Y-19517162D01*
X58265582Y-19607303D01*
X58215356Y-19681849D01*
X58179416Y-19735565D01*
X58161287Y-19763218D01*
X58160146Y-19765095D01*
X58162359Y-19791590D01*
X58179138Y-19843086D01*
X58207142Y-19909851D01*
X58217122Y-19931172D01*
X58260672Y-20026159D01*
X58307134Y-20133937D01*
X58344877Y-20227192D01*
X58372073Y-20296406D01*
X58393675Y-20349006D01*
X58406158Y-20376497D01*
X58407709Y-20378616D01*
X58430668Y-20382124D01*
X58484786Y-20391738D01*
X58562868Y-20406089D01*
X58657719Y-20423807D01*
X58762143Y-20443525D01*
X58868944Y-20463874D01*
X58970926Y-20483486D01*
X59060894Y-20500991D01*
X59131653Y-20515022D01*
X59176006Y-20524209D01*
X59186885Y-20526807D01*
X59198122Y-20533218D01*
X59206605Y-20547697D01*
X59212714Y-20575133D01*
X59216832Y-20620411D01*
X59219341Y-20688420D01*
X59220621Y-20784047D01*
X59221054Y-20912180D01*
X59221077Y-20964701D01*
X59221077Y-21391845D01*
X59118500Y-21412091D01*
X59061431Y-21423070D01*
X58976269Y-21439095D01*
X58873372Y-21458233D01*
X58763096Y-21478551D01*
X58732615Y-21484132D01*
X58630855Y-21503917D01*
X58542205Y-21523373D01*
X58474108Y-21540697D01*
X58434004Y-21554088D01*
X58427323Y-21558079D01*
X58410919Y-21586342D01*
X58387399Y-21641109D01*
X58361316Y-21711588D01*
X58356142Y-21726769D01*
X58321956Y-21820896D01*
X58279523Y-21927101D01*
X58237997Y-22022473D01*
X58237792Y-22022916D01*
X58168640Y-22172525D01*
X58623512Y-22841617D01*
X58331500Y-23134116D01*
X58243180Y-23221170D01*
X58162625Y-23297909D01*
X58094360Y-23360237D01*
X58042908Y-23404056D01*
X58012794Y-23425270D01*
X58008474Y-23426616D01*
X57983111Y-23416016D01*
X57931358Y-23386547D01*
X57858868Y-23341705D01*
X57771294Y-23284984D01*
X57676612Y-23221462D01*
X57580516Y-23156668D01*
X57494837Y-23100287D01*
X57425016Y-23055788D01*
X57376494Y-23026639D01*
X57354782Y-23016308D01*
X57328293Y-23025050D01*
X57278062Y-23048087D01*
X57214451Y-23080631D01*
X57207708Y-23084249D01*
X57122046Y-23127210D01*
X57063306Y-23148279D01*
X57026772Y-23148503D01*
X57007731Y-23128928D01*
X57007620Y-23128654D01*
X56998102Y-23105472D01*
X56975403Y-23050441D01*
X56941282Y-22967822D01*
X56897500Y-22861872D01*
X56845816Y-22736852D01*
X56787992Y-22597020D01*
X56731991Y-22461637D01*
X56670447Y-22312234D01*
X56613939Y-22173832D01*
X56564161Y-22050673D01*
X56522806Y-21947002D01*
X56491568Y-21867059D01*
X56472141Y-21815088D01*
X56466154Y-21795692D01*
X56481168Y-21773443D01*
X56520439Y-21737982D01*
X56572807Y-21698887D01*
X56721941Y-21575245D01*
X56838511Y-21433522D01*
X56921118Y-21276704D01*
X56968366Y-21107775D01*
X56978857Y-20929722D01*
X56971231Y-20847539D01*
X56929682Y-20677031D01*
X56858123Y-20526459D01*
X56760995Y-20397309D01*
X56642734Y-20291064D01*
X56507780Y-20209210D01*
X56360571Y-20153232D01*
X56205544Y-20124615D01*
X56047139Y-20124844D01*
X55889794Y-20155405D01*
X55737946Y-20217782D01*
X55596035Y-20313460D01*
X55536803Y-20367572D01*
X55423203Y-20506520D01*
X55344106Y-20658361D01*
X55298986Y-20818667D01*
X55287316Y-20983012D01*
X55308569Y-21146971D01*
X55362220Y-21306118D01*
X55447740Y-21456025D01*
X55564605Y-21592267D01*
X55695193Y-21698887D01*
X55749588Y-21739642D01*
X55788014Y-21774718D01*
X55801846Y-21795726D01*
X55794603Y-21818635D01*
X55774005Y-21873365D01*
X55741746Y-21955672D01*
X55699521Y-22061315D01*
X55649023Y-22186050D01*
X55591948Y-22325636D01*
X55535854Y-22461670D01*
X55473967Y-22611201D01*
X55416644Y-22749767D01*
X55365644Y-22873107D01*
X55322727Y-22976964D01*
X55289653Y-23057080D01*
X55268181Y-23109195D01*
X55260225Y-23128654D01*
X55241429Y-23148423D01*
X55205074Y-23148365D01*
X55146479Y-23127441D01*
X55060968Y-23084613D01*
X55060292Y-23084249D01*
X54995907Y-23051012D01*
X54943861Y-23026802D01*
X54914512Y-23016404D01*
X54913217Y-23016308D01*
X54891124Y-23026855D01*
X54842348Y-23056184D01*
X54772331Y-23100827D01*
X54686514Y-23157314D01*
X54591388Y-23221462D01*
X54494540Y-23286411D01*
X54407253Y-23342896D01*
X54335181Y-23387421D01*
X54283977Y-23416490D01*
X54259526Y-23426616D01*
X54237010Y-23413307D01*
X54191742Y-23376112D01*
X54128244Y-23319128D01*
X54051039Y-23246449D01*
X53964651Y-23162171D01*
X53936399Y-23134016D01*
X53644287Y-22841416D01*
X53866631Y-22515104D01*
X53934202Y-22414897D01*
X53993507Y-22324963D01*
X54041217Y-22250510D01*
X54074007Y-22196751D01*
X54088548Y-22168894D01*
X54088974Y-22166912D01*
X54081308Y-22140655D01*
X54060689Y-22087837D01*
X54030685Y-22017310D01*
X54009625Y-21970093D01*
X53970248Y-21879694D01*
X53933165Y-21788366D01*
X53904415Y-21711200D01*
X53896605Y-21687692D01*
X53874417Y-21624916D01*
X53852727Y-21576411D01*
X53840813Y-21558079D01*
X53814523Y-21546859D01*
X53757142Y-21530954D01*
X53676118Y-21512167D01*
X53578895Y-21492299D01*
X53535385Y-21484132D01*
X53424896Y-21463829D01*
X53318916Y-21444170D01*
X53227801Y-21427088D01*
X53161908Y-21414518D01*
X53149500Y-21412091D01*
X53046923Y-21391845D01*
X53046923Y-20964701D01*
X53047153Y-20824246D01*
X53048099Y-20717979D01*
X53050141Y-20641013D01*
X53053662Y-20588460D01*
X53059043Y-20555433D01*
X53066666Y-20537045D01*
X53076912Y-20528408D01*
X53081115Y-20526807D01*
X53106470Y-20521127D01*
X53162484Y-20509795D01*
X53241964Y-20494179D01*
X53337712Y-20475647D01*
X53442533Y-20455569D01*
X53549232Y-20435312D01*
X53650613Y-20416246D01*
X53739479Y-20399739D01*
X53808637Y-20387159D01*
X53850889Y-20379875D01*
X53860290Y-20378616D01*
X53868807Y-20361763D01*
X53887660Y-20316870D01*
X53913324Y-20252430D01*
X53923123Y-20227192D01*
X53962648Y-20129686D01*
X54009192Y-20021959D01*
X54050877Y-19931172D01*
X54081550Y-19861753D01*
X54101956Y-19804710D01*
X54108768Y-19769777D01*
X54107682Y-19765095D01*
X54093285Y-19742991D01*
X54060412Y-19693831D01*
X54012590Y-19622848D01*
X53953348Y-19535278D01*
X53886215Y-19436357D01*
X53872941Y-19416830D01*
X53795046Y-19301140D01*
X53737787Y-19213044D01*
X53698881Y-19148486D01*
X53676044Y-19103411D01*
X53666994Y-19073763D01*
X53669448Y-19055485D01*
X53669511Y-19055369D01*
X53688827Y-19031361D01*
X53731551Y-18984947D01*
X53793051Y-18920937D01*
X53868698Y-18844145D01*
X53953861Y-18759382D01*
X53963465Y-18749922D01*
X54070790Y-18645989D01*
X54153615Y-18569675D01*
X54213605Y-18519571D01*
X54252423Y-18494270D01*
X54269520Y-18491004D01*
X54294473Y-18505250D01*
X54346255Y-18538156D01*
X54419520Y-18586208D01*
X54508920Y-18645890D01*
X54609111Y-18713688D01*
X54632501Y-18729639D01*
X54964593Y-18956420D01*
X55114565Y-18888353D01*
X55205770Y-18848685D01*
X55303669Y-18808791D01*
X55387831Y-18776983D01*
X55391538Y-18775674D01*
X55457369Y-18751576D01*
X55508116Y-18731200D01*
X55532842Y-18718936D01*
X55532884Y-18718901D01*
X55540729Y-18696734D01*
X55554066Y-18642217D01*
X55571570Y-18561480D01*
X55591917Y-18460650D01*
X55613782Y-18345856D01*
X55615571Y-18336178D01*
X55637504Y-18217904D01*
X55657640Y-18110542D01*
X55674680Y-18020917D01*
X55687328Y-17955851D01*
X55694284Y-17922168D01*
X55694406Y-17921654D01*
X55698639Y-17907325D01*
X55706871Y-17896507D01*
X55724033Y-17888706D01*
X55755058Y-17883429D01*
X55804878Y-17880182D01*
X55878424Y-17878472D01*
X55980629Y-17877807D01*
X56116425Y-17877693D01*
X56134000Y-17877692D01*
X56273878Y-17877776D01*
G36*
X60379224Y-24237838D02*
G01*
X60456528Y-24288361D01*
X60493814Y-24333590D01*
X60523353Y-24415663D01*
X60525699Y-24480607D01*
X60520385Y-24567445D01*
X60320115Y-24655103D01*
X60222739Y-24699887D01*
X60159113Y-24735913D01*
X60126029Y-24767117D01*
X60120280Y-24797436D01*
X60138658Y-24830805D01*
X60158923Y-24852923D01*
X60217889Y-24888393D01*
X60282024Y-24890879D01*
X60340926Y-24863235D01*
X60384197Y-24808320D01*
X60391936Y-24788928D01*
X60429006Y-24728364D01*
X60471654Y-24702552D01*
X60530154Y-24680471D01*
X60530154Y-24764184D01*
X60524982Y-24821150D01*
X60504723Y-24869189D01*
X60462262Y-24924346D01*
X60455951Y-24931514D01*
X60408720Y-24980585D01*
X60368121Y-25006920D01*
X60317328Y-25019035D01*
X60275220Y-25023003D01*
X60199902Y-25023991D01*
X60146286Y-25011466D01*
X60112838Y-24992869D01*
X60060268Y-24951975D01*
X60023879Y-24907748D01*
X60000850Y-24852126D01*
X59988359Y-24777047D01*
X59983587Y-24674449D01*
X59983206Y-24622376D01*
X59984501Y-24559948D01*
X60102471Y-24559948D01*
X60103839Y-24593438D01*
X60107249Y-24598923D01*
X60129753Y-24591472D01*
X60178182Y-24571753D01*
X60242908Y-24543718D01*
X60256443Y-24537692D01*
X60338244Y-24496096D01*
X60383312Y-24459538D01*
X60393217Y-24425296D01*
X60369526Y-24390648D01*
X60349960Y-24375339D01*
X60279360Y-24344721D01*
X60213280Y-24349780D01*
X60157959Y-24387151D01*
X60119636Y-24453473D01*
X60107349Y-24506116D01*
X60102471Y-24559948D01*
X59984501Y-24559948D01*
X59985730Y-24500720D01*
X59995032Y-24410710D01*
X60013460Y-24345167D01*
X60043360Y-24296912D01*
X60087080Y-24258767D01*
X60106141Y-24246440D01*
X60192726Y-24214336D01*
X60287522Y-24212316D01*
X60379224Y-24237838D01*
G37*
X60379224Y-24237838D02*
X60456528Y-24288361D01*
X60493814Y-24333590D01*
X60523353Y-24415663D01*
X60525699Y-24480607D01*
X60520385Y-24567445D01*
X60320115Y-24655103D01*
X60222739Y-24699887D01*
X60159113Y-24735913D01*
X60126029Y-24767117D01*
X60120280Y-24797436D01*
X60138658Y-24830805D01*
X60158923Y-24852923D01*
X60217889Y-24888393D01*
X60282024Y-24890879D01*
X60340926Y-24863235D01*
X60384197Y-24808320D01*
X60391936Y-24788928D01*
X60429006Y-24728364D01*
X60471654Y-24702552D01*
X60530154Y-24680471D01*
X60530154Y-24764184D01*
X60524982Y-24821150D01*
X60504723Y-24869189D01*
X60462262Y-24924346D01*
X60455951Y-24931514D01*
X60408720Y-24980585D01*
X60368121Y-25006920D01*
X60317328Y-25019035D01*
X60275220Y-25023003D01*
X60199902Y-25023991D01*
X60146286Y-25011466D01*
X60112838Y-24992869D01*
X60060268Y-24951975D01*
X60023879Y-24907748D01*
X60000850Y-24852126D01*
X59988359Y-24777047D01*
X59983587Y-24674449D01*
X59983206Y-24622376D01*
X59984501Y-24559948D01*
X60102471Y-24559948D01*
X60103839Y-24593438D01*
X60107249Y-24598923D01*
X60129753Y-24591472D01*
X60178182Y-24571753D01*
X60242908Y-24543718D01*
X60256443Y-24537692D01*
X60338244Y-24496096D01*
X60383312Y-24459538D01*
X60393217Y-24425296D01*
X60369526Y-24390648D01*
X60349960Y-24375339D01*
X60279360Y-24344721D01*
X60213280Y-24349780D01*
X60157959Y-24387151D01*
X60119636Y-24453473D01*
X60107349Y-24506116D01*
X60102471Y-24559948D01*
X59984501Y-24559948D01*
X59985730Y-24500720D01*
X59995032Y-24410710D01*
X60013460Y-24345167D01*
X60043360Y-24296912D01*
X60087080Y-24258767D01*
X60106141Y-24246440D01*
X60192726Y-24214336D01*
X60287522Y-24212316D01*
X60379224Y-24237838D01*
G36*
X59704807Y-24226782D02*
G01*
X59728161Y-24236988D01*
X59783902Y-24281134D01*
X59831569Y-24344967D01*
X59861048Y-24413087D01*
X59865846Y-24446670D01*
X59849760Y-24493556D01*
X59814475Y-24518365D01*
X59776644Y-24533387D01*
X59759321Y-24536155D01*
X59750886Y-24516066D01*
X59734230Y-24472351D01*
X59726923Y-24452598D01*
X59685948Y-24384271D01*
X59626622Y-24350191D01*
X59550552Y-24351239D01*
X59544918Y-24352581D01*
X59504305Y-24371836D01*
X59474448Y-24409375D01*
X59454055Y-24469809D01*
X59441836Y-24557751D01*
X59436500Y-24677813D01*
X59436000Y-24741698D01*
X59435752Y-24842403D01*
X59434126Y-24911054D01*
X59429801Y-24954673D01*
X59421454Y-24980282D01*
X59407765Y-24994903D01*
X59387411Y-25005558D01*
X59386234Y-25006095D01*
X59347038Y-25022667D01*
X59327619Y-25028769D01*
X59324635Y-25010319D01*
X59322081Y-24959323D01*
X59320140Y-24882308D01*
X59318997Y-24785805D01*
X59318769Y-24715184D01*
X59319932Y-24578525D01*
X59324479Y-24474851D01*
X59333999Y-24398108D01*
X59350081Y-24342246D01*
X59374313Y-24301212D01*
X59408286Y-24268954D01*
X59441833Y-24246440D01*
X59522499Y-24216476D01*
X59616381Y-24209718D01*
X59704807Y-24226782D01*
G37*
X59704807Y-24226782D02*
X59728161Y-24236988D01*
X59783902Y-24281134D01*
X59831569Y-24344967D01*
X59861048Y-24413087D01*
X59865846Y-24446670D01*
X59849760Y-24493556D01*
X59814475Y-24518365D01*
X59776644Y-24533387D01*
X59759321Y-24536155D01*
X59750886Y-24516066D01*
X59734230Y-24472351D01*
X59726923Y-24452598D01*
X59685948Y-24384271D01*
X59626622Y-24350191D01*
X59550552Y-24351239D01*
X59544918Y-24352581D01*
X59504305Y-24371836D01*
X59474448Y-24409375D01*
X59454055Y-24469809D01*
X59441836Y-24557751D01*
X59436500Y-24677813D01*
X59436000Y-24741698D01*
X59435752Y-24842403D01*
X59434126Y-24911054D01*
X59429801Y-24954673D01*
X59421454Y-24980282D01*
X59407765Y-24994903D01*
X59387411Y-25005558D01*
X59386234Y-25006095D01*
X59347038Y-25022667D01*
X59327619Y-25028769D01*
X59324635Y-25010319D01*
X59322081Y-24959323D01*
X59320140Y-24882308D01*
X59318997Y-24785805D01*
X59318769Y-24715184D01*
X59319932Y-24578525D01*
X59324479Y-24474851D01*
X59333999Y-24398108D01*
X59350081Y-24342246D01*
X59374313Y-24301212D01*
X59408286Y-24268954D01*
X59441833Y-24246440D01*
X59522499Y-24216476D01*
X59616381Y-24209718D01*
X59704807Y-24226782D01*
G36*
X59021333Y-24223528D02*
G01*
X59077590Y-24249117D01*
X59121747Y-24280124D01*
X59154101Y-24314795D01*
X59176438Y-24359520D01*
X59190546Y-24420692D01*
X59198211Y-24504701D01*
X59201220Y-24617940D01*
X59201538Y-24692509D01*
X59201538Y-24983420D01*
X59151773Y-25006095D01*
X59112576Y-25022667D01*
X59093157Y-25028769D01*
X59089442Y-25010610D01*
X59086495Y-24961648D01*
X59084691Y-24890153D01*
X59084308Y-24833385D01*
X59082661Y-24751371D01*
X59078222Y-24686309D01*
X59071740Y-24646467D01*
X59066590Y-24638000D01*
X59031977Y-24646646D01*
X58977640Y-24668823D01*
X58914722Y-24698886D01*
X58854368Y-24731192D01*
X58807721Y-24760098D01*
X58785926Y-24779961D01*
X58785839Y-24780175D01*
X58787714Y-24816935D01*
X58804525Y-24852026D01*
X58834039Y-24880528D01*
X58877116Y-24890061D01*
X58913932Y-24888950D01*
X58966074Y-24888133D01*
X58993444Y-24900349D01*
X59009882Y-24932624D01*
X59011955Y-24938710D01*
X59019081Y-24984739D01*
X59000024Y-25012687D01*
X58950353Y-25026007D01*
X58896697Y-25028470D01*
X58800142Y-25010210D01*
X58750159Y-24984131D01*
X58688429Y-24922868D01*
X58655690Y-24847670D01*
X58652753Y-24768211D01*
X58680424Y-24694167D01*
X58722047Y-24647769D01*
X58763604Y-24621793D01*
X58828922Y-24588907D01*
X58905038Y-24555557D01*
X58917726Y-24550461D01*
X59001333Y-24513565D01*
X59049530Y-24481046D01*
X59065030Y-24448718D01*
X59050550Y-24412394D01*
X59025692Y-24384000D01*
X58966939Y-24349039D01*
X58902293Y-24346417D01*
X58843008Y-24373358D01*
X58800339Y-24427088D01*
X58794739Y-24440950D01*
X58762133Y-24491936D01*
X58714530Y-24529787D01*
X58654461Y-24560850D01*
X58654461Y-24472768D01*
X58657997Y-24418951D01*
X58673156Y-24376534D01*
X58706768Y-24331279D01*
X58739035Y-24296420D01*
X58789209Y-24247062D01*
X58828193Y-24220547D01*
X58870064Y-24209911D01*
X58917460Y-24208154D01*
X59021333Y-24223528D01*
G37*
X59021333Y-24223528D02*
X59077590Y-24249117D01*
X59121747Y-24280124D01*
X59154101Y-24314795D01*
X59176438Y-24359520D01*
X59190546Y-24420692D01*
X59198211Y-24504701D01*
X59201220Y-24617940D01*
X59201538Y-24692509D01*
X59201538Y-24983420D01*
X59151773Y-25006095D01*
X59112576Y-25022667D01*
X59093157Y-25028769D01*
X59089442Y-25010610D01*
X59086495Y-24961648D01*
X59084691Y-24890153D01*
X59084308Y-24833385D01*
X59082661Y-24751371D01*
X59078222Y-24686309D01*
X59071740Y-24646467D01*
X59066590Y-24638000D01*
X59031977Y-24646646D01*
X58977640Y-24668823D01*
X58914722Y-24698886D01*
X58854368Y-24731192D01*
X58807721Y-24760098D01*
X58785926Y-24779961D01*
X58785839Y-24780175D01*
X58787714Y-24816935D01*
X58804525Y-24852026D01*
X58834039Y-24880528D01*
X58877116Y-24890061D01*
X58913932Y-24888950D01*
X58966074Y-24888133D01*
X58993444Y-24900349D01*
X59009882Y-24932624D01*
X59011955Y-24938710D01*
X59019081Y-24984739D01*
X59000024Y-25012687D01*
X58950353Y-25026007D01*
X58896697Y-25028470D01*
X58800142Y-25010210D01*
X58750159Y-24984131D01*
X58688429Y-24922868D01*
X58655690Y-24847670D01*
X58652753Y-24768211D01*
X58680424Y-24694167D01*
X58722047Y-24647769D01*
X58763604Y-24621793D01*
X58828922Y-24588907D01*
X58905038Y-24555557D01*
X58917726Y-24550461D01*
X59001333Y-24513565D01*
X59049530Y-24481046D01*
X59065030Y-24448718D01*
X59050550Y-24412394D01*
X59025692Y-24384000D01*
X58966939Y-24349039D01*
X58902293Y-24346417D01*
X58843008Y-24373358D01*
X58800339Y-24427088D01*
X58794739Y-24440950D01*
X58762133Y-24491936D01*
X58714530Y-24529787D01*
X58654461Y-24560850D01*
X58654461Y-24472768D01*
X58657997Y-24418951D01*
X58673156Y-24376534D01*
X58706768Y-24331279D01*
X58739035Y-24296420D01*
X58789209Y-24247062D01*
X58828193Y-24220547D01*
X58870064Y-24209911D01*
X58917460Y-24208154D01*
X59021333Y-24223528D01*
G36*
X58529929Y-24226662D02*
G01*
X58532911Y-24278068D01*
X58535247Y-24356192D01*
X58536749Y-24454857D01*
X58537231Y-24558343D01*
X58537231Y-24908533D01*
X58475401Y-24970363D01*
X58432793Y-25008462D01*
X58395390Y-25023895D01*
X58344270Y-25022918D01*
X58323978Y-25020433D01*
X58260554Y-25013200D01*
X58208095Y-25009055D01*
X58195308Y-25008672D01*
X58152199Y-25011176D01*
X58090544Y-25017462D01*
X58066638Y-25020433D01*
X58007922Y-25025028D01*
X57968464Y-25015046D01*
X57929338Y-24984228D01*
X57915215Y-24970363D01*
X57853385Y-24908533D01*
X57853385Y-24253503D01*
X57903150Y-24230829D01*
X57946002Y-24214034D01*
X57971073Y-24208154D01*
X57977501Y-24226736D01*
X57983509Y-24278655D01*
X57988697Y-24358172D01*
X57992664Y-24459546D01*
X57994577Y-24545192D01*
X57999923Y-24882231D01*
X58046560Y-24888825D01*
X58088976Y-24884214D01*
X58109760Y-24869287D01*
X58115570Y-24841377D01*
X58120530Y-24781925D01*
X58124246Y-24698466D01*
X58126324Y-24598532D01*
X58126624Y-24547104D01*
X58126923Y-24251054D01*
X58188454Y-24229604D01*
X58232004Y-24215020D01*
X58255694Y-24208219D01*
X58256377Y-24208154D01*
X58258754Y-24226642D01*
X58261366Y-24277906D01*
X58263995Y-24355649D01*
X58266421Y-24453574D01*
X58268115Y-24545192D01*
X58273461Y-24882231D01*
X58390692Y-24882231D01*
X58396072Y-24574746D01*
X58401451Y-24267261D01*
X58458601Y-24237707D01*
X58500797Y-24217413D01*
X58525770Y-24208204D01*
X58526491Y-24208154D01*
X58529929Y-24226662D01*
G37*
X58529929Y-24226662D02*
X58532911Y-24278068D01*
X58535247Y-24356192D01*
X58536749Y-24454857D01*
X58537231Y-24558343D01*
X58537231Y-24908533D01*
X58475401Y-24970363D01*
X58432793Y-25008462D01*
X58395390Y-25023895D01*
X58344270Y-25022918D01*
X58323978Y-25020433D01*
X58260554Y-25013200D01*
X58208095Y-25009055D01*
X58195308Y-25008672D01*
X58152199Y-25011176D01*
X58090544Y-25017462D01*
X58066638Y-25020433D01*
X58007922Y-25025028D01*
X57968464Y-25015046D01*
X57929338Y-24984228D01*
X57915215Y-24970363D01*
X57853385Y-24908533D01*
X57853385Y-24253503D01*
X57903150Y-24230829D01*
X57946002Y-24214034D01*
X57971073Y-24208154D01*
X57977501Y-24226736D01*
X57983509Y-24278655D01*
X57988697Y-24358172D01*
X57992664Y-24459546D01*
X57994577Y-24545192D01*
X57999923Y-24882231D01*
X58046560Y-24888825D01*
X58088976Y-24884214D01*
X58109760Y-24869287D01*
X58115570Y-24841377D01*
X58120530Y-24781925D01*
X58124246Y-24698466D01*
X58126324Y-24598532D01*
X58126624Y-24547104D01*
X58126923Y-24251054D01*
X58188454Y-24229604D01*
X58232004Y-24215020D01*
X58255694Y-24208219D01*
X58256377Y-24208154D01*
X58258754Y-24226642D01*
X58261366Y-24277906D01*
X58263995Y-24355649D01*
X58266421Y-24453574D01*
X58268115Y-24545192D01*
X58273461Y-24882231D01*
X58390692Y-24882231D01*
X58396072Y-24574746D01*
X58401451Y-24267261D01*
X58458601Y-24237707D01*
X58500797Y-24217413D01*
X58525770Y-24208204D01*
X58526491Y-24208154D01*
X58529929Y-24226662D01*
G36*
X57736081Y-24370289D02*
G01*
X57735833Y-24516320D01*
X57734872Y-24628655D01*
X57732794Y-24712678D01*
X57729193Y-24773769D01*
X57723665Y-24817309D01*
X57715804Y-24848679D01*
X57705207Y-24873262D01*
X57697182Y-24887294D01*
X57630728Y-24963388D01*
X57546470Y-25011084D01*
X57453249Y-25028199D01*
X57359900Y-25012546D01*
X57304312Y-24984418D01*
X57245957Y-24935760D01*
X57206186Y-24876333D01*
X57182190Y-24798507D01*
X57171161Y-24694652D01*
X57169599Y-24618462D01*
X57169809Y-24612986D01*
X57306308Y-24612986D01*
X57307141Y-24700355D01*
X57310961Y-24758192D01*
X57319746Y-24796029D01*
X57335474Y-24823398D01*
X57354266Y-24844042D01*
X57417375Y-24883890D01*
X57485137Y-24887295D01*
X57549179Y-24854025D01*
X57554164Y-24849517D01*
X57575439Y-24826067D01*
X57588779Y-24798166D01*
X57596001Y-24756641D01*
X57598923Y-24692316D01*
X57599385Y-24621200D01*
X57598383Y-24531858D01*
X57594238Y-24472258D01*
X57585236Y-24433089D01*
X57569667Y-24405040D01*
X57556902Y-24390144D01*
X57497600Y-24352575D01*
X57429301Y-24348057D01*
X57364110Y-24376753D01*
X57351528Y-24387406D01*
X57330111Y-24411063D01*
X57316744Y-24439251D01*
X57309566Y-24481245D01*
X57306719Y-24546319D01*
X57306308Y-24612986D01*
X57169809Y-24612986D01*
X57174322Y-24495765D01*
X57190362Y-24403577D01*
X57220528Y-24334269D01*
X57267629Y-24280211D01*
X57304312Y-24252505D01*
X57370990Y-24222572D01*
X57448272Y-24208678D01*
X57520110Y-24212397D01*
X57560308Y-24227400D01*
X57576082Y-24231670D01*
X57586550Y-24215750D01*
X57593856Y-24173089D01*
X57599385Y-24108106D01*
X57605437Y-24035732D01*
X57613844Y-23992187D01*
X57629141Y-23967287D01*
X57655864Y-23950845D01*
X57672654Y-23943564D01*
X57736154Y-23916963D01*
X57736081Y-24370289D01*
G37*
X57736081Y-24370289D02*
X57735833Y-24516320D01*
X57734872Y-24628655D01*
X57732794Y-24712678D01*
X57729193Y-24773769D01*
X57723665Y-24817309D01*
X57715804Y-24848679D01*
X57705207Y-24873262D01*
X57697182Y-24887294D01*
X57630728Y-24963388D01*
X57546470Y-25011084D01*
X57453249Y-25028199D01*
X57359900Y-25012546D01*
X57304312Y-24984418D01*
X57245957Y-24935760D01*
X57206186Y-24876333D01*
X57182190Y-24798507D01*
X57171161Y-24694652D01*
X57169599Y-24618462D01*
X57169809Y-24612986D01*
X57306308Y-24612986D01*
X57307141Y-24700355D01*
X57310961Y-24758192D01*
X57319746Y-24796029D01*
X57335474Y-24823398D01*
X57354266Y-24844042D01*
X57417375Y-24883890D01*
X57485137Y-24887295D01*
X57549179Y-24854025D01*
X57554164Y-24849517D01*
X57575439Y-24826067D01*
X57588779Y-24798166D01*
X57596001Y-24756641D01*
X57598923Y-24692316D01*
X57599385Y-24621200D01*
X57598383Y-24531858D01*
X57594238Y-24472258D01*
X57585236Y-24433089D01*
X57569667Y-24405040D01*
X57556902Y-24390144D01*
X57497600Y-24352575D01*
X57429301Y-24348057D01*
X57364110Y-24376753D01*
X57351528Y-24387406D01*
X57330111Y-24411063D01*
X57316744Y-24439251D01*
X57309566Y-24481245D01*
X57306719Y-24546319D01*
X57306308Y-24612986D01*
X57169809Y-24612986D01*
X57174322Y-24495765D01*
X57190362Y-24403577D01*
X57220528Y-24334269D01*
X57267629Y-24280211D01*
X57304312Y-24252505D01*
X57370990Y-24222572D01*
X57448272Y-24208678D01*
X57520110Y-24212397D01*
X57560308Y-24227400D01*
X57576082Y-24231670D01*
X57586550Y-24215750D01*
X57593856Y-24173089D01*
X57599385Y-24108106D01*
X57605437Y-24035732D01*
X57613844Y-23992187D01*
X57629141Y-23967287D01*
X57655864Y-23950845D01*
X57672654Y-23943564D01*
X57736154Y-23916963D01*
X57736081Y-24370289D01*
G36*
X56847362Y-24214670D02*
G01*
X56936117Y-24247421D01*
X57008022Y-24305350D01*
X57036144Y-24346128D01*
X57066802Y-24420954D01*
X57066165Y-24475058D01*
X57033987Y-24511446D01*
X57022081Y-24517633D01*
X56970675Y-24536925D01*
X56944422Y-24531982D01*
X56935530Y-24499587D01*
X56935077Y-24481692D01*
X56918797Y-24415859D01*
X56876365Y-24369807D01*
X56817388Y-24347564D01*
X56751475Y-24353161D01*
X56697895Y-24382229D01*
X56679798Y-24398810D01*
X56666971Y-24418925D01*
X56658306Y-24449332D01*
X56652696Y-24496788D01*
X56649035Y-24568050D01*
X56646215Y-24669875D01*
X56645484Y-24702115D01*
X56642820Y-24812410D01*
X56639792Y-24890036D01*
X56635250Y-24941396D01*
X56628046Y-24972890D01*
X56617033Y-24990920D01*
X56601060Y-25001888D01*
X56590834Y-25006733D01*
X56547406Y-25023301D01*
X56521842Y-25028769D01*
X56513395Y-25010507D01*
X56508239Y-24955296D01*
X56506346Y-24862499D01*
X56507689Y-24731478D01*
X56508107Y-24711269D01*
X56511058Y-24591733D01*
X56514548Y-24504449D01*
X56519514Y-24442591D01*
X56526893Y-24399336D01*
X56537624Y-24367860D01*
X56552645Y-24341339D01*
X56560502Y-24329975D01*
X56605553Y-24279692D01*
X56655940Y-24240581D01*
X56662108Y-24237167D01*
X56752458Y-24210212D01*
X56847362Y-24214670D01*
G37*
X56847362Y-24214670D02*
X56936117Y-24247421D01*
X57008022Y-24305350D01*
X57036144Y-24346128D01*
X57066802Y-24420954D01*
X57066165Y-24475058D01*
X57033987Y-24511446D01*
X57022081Y-24517633D01*
X56970675Y-24536925D01*
X56944422Y-24531982D01*
X56935530Y-24499587D01*
X56935077Y-24481692D01*
X56918797Y-24415859D01*
X56876365Y-24369807D01*
X56817388Y-24347564D01*
X56751475Y-24353161D01*
X56697895Y-24382229D01*
X56679798Y-24398810D01*
X56666971Y-24418925D01*
X56658306Y-24449332D01*
X56652696Y-24496788D01*
X56649035Y-24568050D01*
X56646215Y-24669875D01*
X56645484Y-24702115D01*
X56642820Y-24812410D01*
X56639792Y-24890036D01*
X56635250Y-24941396D01*
X56628046Y-24972890D01*
X56617033Y-24990920D01*
X56601060Y-25001888D01*
X56590834Y-25006733D01*
X56547406Y-25023301D01*
X56521842Y-25028769D01*
X56513395Y-25010507D01*
X56508239Y-24955296D01*
X56506346Y-24862499D01*
X56507689Y-24731478D01*
X56508107Y-24711269D01*
X56511058Y-24591733D01*
X56514548Y-24504449D01*
X56519514Y-24442591D01*
X56526893Y-24399336D01*
X56537624Y-24367860D01*
X56552645Y-24341339D01*
X56560502Y-24329975D01*
X56605553Y-24279692D01*
X56655940Y-24240581D01*
X56662108Y-24237167D01*
X56752458Y-24210212D01*
X56847362Y-24214670D01*
G36*
X56187501Y-24216303D02*
G01*
X56264060Y-24244733D01*
X56264936Y-24245279D01*
X56312285Y-24280127D01*
X56347241Y-24320852D01*
X56371825Y-24373925D01*
X56388062Y-24445814D01*
X56397975Y-24542992D01*
X56403586Y-24671928D01*
X56404077Y-24690298D01*
X56411141Y-24967287D01*
X56351695Y-24998028D01*
X56308681Y-25018802D01*
X56282710Y-25028646D01*
X56281509Y-25028769D01*
X56277014Y-25010606D01*
X56273444Y-24961612D01*
X56271248Y-24890031D01*
X56270769Y-24832068D01*
X56270758Y-24738170D01*
X56266466Y-24679203D01*
X56251503Y-24651079D01*
X56219482Y-24649706D01*
X56164014Y-24670998D01*
X56080269Y-24710136D01*
X56018689Y-24742643D01*
X55987017Y-24770845D01*
X55977706Y-24801582D01*
X55977692Y-24803104D01*
X55993057Y-24856054D01*
X56038547Y-24884660D01*
X56108166Y-24888803D01*
X56158313Y-24888084D01*
X56184754Y-24902527D01*
X56201243Y-24937218D01*
X56210733Y-24981416D01*
X56197057Y-25006493D01*
X56191907Y-25010082D01*
X56143425Y-25024496D01*
X56075531Y-25026537D01*
X56005612Y-25016983D01*
X55956068Y-24999522D01*
X55887570Y-24941364D01*
X55848634Y-24860408D01*
X55840923Y-24797160D01*
X55846807Y-24740111D01*
X55868101Y-24693542D01*
X55910265Y-24652181D01*
X55978759Y-24610755D01*
X56079044Y-24563993D01*
X56085154Y-24561350D01*
X56175490Y-24519617D01*
X56231235Y-24485391D01*
X56255129Y-24454635D01*
X56249913Y-24423311D01*
X56218328Y-24387383D01*
X56208883Y-24379116D01*
X56145617Y-24347058D01*
X56080064Y-24348407D01*
X56022972Y-24379838D01*
X55985093Y-24438024D01*
X55981574Y-24449446D01*
X55947300Y-24504837D01*
X55903809Y-24531518D01*
X55840923Y-24557960D01*
X55840923Y-24489548D01*
X55860052Y-24390110D01*
X55916831Y-24298902D01*
X55946378Y-24268389D01*
X56013542Y-24229228D01*
X56098956Y-24211500D01*
X56187501Y-24216303D01*
G37*
X56187501Y-24216303D02*
X56264060Y-24244733D01*
X56264936Y-24245279D01*
X56312285Y-24280127D01*
X56347241Y-24320852D01*
X56371825Y-24373925D01*
X56388062Y-24445814D01*
X56397975Y-24542992D01*
X56403586Y-24671928D01*
X56404077Y-24690298D01*
X56411141Y-24967287D01*
X56351695Y-24998028D01*
X56308681Y-25018802D01*
X56282710Y-25028646D01*
X56281509Y-25028769D01*
X56277014Y-25010606D01*
X56273444Y-24961612D01*
X56271248Y-24890031D01*
X56270769Y-24832068D01*
X56270758Y-24738170D01*
X56266466Y-24679203D01*
X56251503Y-24651079D01*
X56219482Y-24649706D01*
X56164014Y-24670998D01*
X56080269Y-24710136D01*
X56018689Y-24742643D01*
X55987017Y-24770845D01*
X55977706Y-24801582D01*
X55977692Y-24803104D01*
X55993057Y-24856054D01*
X56038547Y-24884660D01*
X56108166Y-24888803D01*
X56158313Y-24888084D01*
X56184754Y-24902527D01*
X56201243Y-24937218D01*
X56210733Y-24981416D01*
X56197057Y-25006493D01*
X56191907Y-25010082D01*
X56143425Y-25024496D01*
X56075531Y-25026537D01*
X56005612Y-25016983D01*
X55956068Y-24999522D01*
X55887570Y-24941364D01*
X55848634Y-24860408D01*
X55840923Y-24797160D01*
X55846807Y-24740111D01*
X55868101Y-24693542D01*
X55910265Y-24652181D01*
X55978759Y-24610755D01*
X56079044Y-24563993D01*
X56085154Y-24561350D01*
X56175490Y-24519617D01*
X56231235Y-24485391D01*
X56255129Y-24454635D01*
X56249913Y-24423311D01*
X56218328Y-24387383D01*
X56208883Y-24379116D01*
X56145617Y-24347058D01*
X56080064Y-24348407D01*
X56022972Y-24379838D01*
X55985093Y-24438024D01*
X55981574Y-24449446D01*
X55947300Y-24504837D01*
X55903809Y-24531518D01*
X55840923Y-24557960D01*
X55840923Y-24489548D01*
X55860052Y-24390110D01*
X55916831Y-24298902D01*
X55946378Y-24268389D01*
X56013542Y-24229228D01*
X56098956Y-24211500D01*
X56187501Y-24216303D01*
G36*
X55293846Y-24082120D02*
G01*
X55299572Y-24161980D01*
X55306149Y-24209039D01*
X55315262Y-24229566D01*
X55328598Y-24229829D01*
X55332923Y-24227378D01*
X55390444Y-24209636D01*
X55465268Y-24210672D01*
X55541339Y-24228910D01*
X55588918Y-24252505D01*
X55637702Y-24290198D01*
X55673364Y-24332855D01*
X55697845Y-24387057D01*
X55713087Y-24459384D01*
X55721030Y-24556419D01*
X55723616Y-24684742D01*
X55723662Y-24709358D01*
X55723692Y-24985870D01*
X55662161Y-25007320D01*
X55618459Y-25021912D01*
X55594482Y-25028706D01*
X55593777Y-25028769D01*
X55591415Y-25010345D01*
X55589406Y-24959526D01*
X55587901Y-24882993D01*
X55587053Y-24787430D01*
X55586923Y-24729329D01*
X55586651Y-24614771D01*
X55585252Y-24532667D01*
X55581849Y-24476393D01*
X55575567Y-24439326D01*
X55565529Y-24414844D01*
X55550861Y-24396325D01*
X55541702Y-24387406D01*
X55478789Y-24351466D01*
X55410136Y-24348775D01*
X55347848Y-24379170D01*
X55336329Y-24390144D01*
X55319433Y-24410779D01*
X55307714Y-24435256D01*
X55300233Y-24470647D01*
X55296054Y-24524026D01*
X55294237Y-24602466D01*
X55293846Y-24710617D01*
X55293846Y-24985870D01*
X55232315Y-25007320D01*
X55188613Y-25021912D01*
X55164636Y-25028706D01*
X55163930Y-25028769D01*
X55162126Y-25010069D01*
X55160500Y-24957322D01*
X55159117Y-24875557D01*
X55158042Y-24769805D01*
X55157340Y-24645094D01*
X55157077Y-24506455D01*
X55157077Y-23971806D01*
X55284077Y-23918236D01*
X55293846Y-24082120D01*
G37*
X55293846Y-24082120D02*
X55299572Y-24161980D01*
X55306149Y-24209039D01*
X55315262Y-24229566D01*
X55328598Y-24229829D01*
X55332923Y-24227378D01*
X55390444Y-24209636D01*
X55465268Y-24210672D01*
X55541339Y-24228910D01*
X55588918Y-24252505D01*
X55637702Y-24290198D01*
X55673364Y-24332855D01*
X55697845Y-24387057D01*
X55713087Y-24459384D01*
X55721030Y-24556419D01*
X55723616Y-24684742D01*
X55723662Y-24709358D01*
X55723692Y-24985870D01*
X55662161Y-25007320D01*
X55618459Y-25021912D01*
X55594482Y-25028706D01*
X55593777Y-25028769D01*
X55591415Y-25010345D01*
X55589406Y-24959526D01*
X55587901Y-24882993D01*
X55587053Y-24787430D01*
X55586923Y-24729329D01*
X55586651Y-24614771D01*
X55585252Y-24532667D01*
X55581849Y-24476393D01*
X55575567Y-24439326D01*
X55565529Y-24414844D01*
X55550861Y-24396325D01*
X55541702Y-24387406D01*
X55478789Y-24351466D01*
X55410136Y-24348775D01*
X55347848Y-24379170D01*
X55336329Y-24390144D01*
X55319433Y-24410779D01*
X55307714Y-24435256D01*
X55300233Y-24470647D01*
X55296054Y-24524026D01*
X55294237Y-24602466D01*
X55293846Y-24710617D01*
X55293846Y-24985870D01*
X55232315Y-25007320D01*
X55188613Y-25021912D01*
X55164636Y-25028706D01*
X55163930Y-25028769D01*
X55162126Y-25010069D01*
X55160500Y-24957322D01*
X55159117Y-24875557D01*
X55158042Y-24769805D01*
X55157340Y-24645094D01*
X55157077Y-24506455D01*
X55157077Y-23971806D01*
X55284077Y-23918236D01*
X55293846Y-24082120D01*
G36*
X53668254Y-24189745D02*
G01*
X53745286Y-24241567D01*
X53804816Y-24316412D01*
X53840378Y-24411654D01*
X53847571Y-24481756D01*
X53846754Y-24511009D01*
X53839914Y-24533407D01*
X53821112Y-24553474D01*
X53784408Y-24575733D01*
X53723862Y-24604709D01*
X53633534Y-24644927D01*
X53633077Y-24645129D01*
X53549933Y-24683210D01*
X53481753Y-24717025D01*
X53435505Y-24742933D01*
X53418158Y-24757295D01*
X53418154Y-24757411D01*
X53433443Y-24788685D01*
X53469196Y-24823157D01*
X53510242Y-24847990D01*
X53531037Y-24852923D01*
X53587770Y-24835862D01*
X53636627Y-24793133D01*
X53660465Y-24746155D01*
X53683397Y-24711522D01*
X53728318Y-24672081D01*
X53781123Y-24638009D01*
X53827710Y-24619480D01*
X53837452Y-24618462D01*
X53848418Y-24635215D01*
X53849079Y-24678039D01*
X53841020Y-24735781D01*
X53825827Y-24797289D01*
X53805086Y-24851409D01*
X53804038Y-24853510D01*
X53741621Y-24940660D01*
X53660726Y-24999939D01*
X53568856Y-25029034D01*
X53473513Y-25025634D01*
X53382198Y-24987428D01*
X53378138Y-24984741D01*
X53306306Y-24919642D01*
X53259073Y-24834705D01*
X53232934Y-24723021D01*
X53229426Y-24691643D01*
X53223213Y-24543536D01*
X53230661Y-24474468D01*
X53418154Y-24474468D01*
X53420590Y-24517552D01*
X53433914Y-24530126D01*
X53467132Y-24520719D01*
X53519494Y-24498483D01*
X53578024Y-24470610D01*
X53579479Y-24469872D01*
X53629089Y-24443777D01*
X53649000Y-24426363D01*
X53644090Y-24408107D01*
X53623416Y-24384120D01*
X53570819Y-24349406D01*
X53514177Y-24346856D01*
X53463369Y-24372119D01*
X53428276Y-24420847D01*
X53418154Y-24474468D01*
X53230661Y-24474468D01*
X53235992Y-24425036D01*
X53268778Y-24331055D01*
X53314421Y-24265215D01*
X53396802Y-24198681D01*
X53487546Y-24165676D01*
X53580185Y-24163573D01*
X53668254Y-24189745D01*
G37*
X53668254Y-24189745D02*
X53745286Y-24241567D01*
X53804816Y-24316412D01*
X53840378Y-24411654D01*
X53847571Y-24481756D01*
X53846754Y-24511009D01*
X53839914Y-24533407D01*
X53821112Y-24553474D01*
X53784408Y-24575733D01*
X53723862Y-24604709D01*
X53633534Y-24644927D01*
X53633077Y-24645129D01*
X53549933Y-24683210D01*
X53481753Y-24717025D01*
X53435505Y-24742933D01*
X53418158Y-24757295D01*
X53418154Y-24757411D01*
X53433443Y-24788685D01*
X53469196Y-24823157D01*
X53510242Y-24847990D01*
X53531037Y-24852923D01*
X53587770Y-24835862D01*
X53636627Y-24793133D01*
X53660465Y-24746155D01*
X53683397Y-24711522D01*
X53728318Y-24672081D01*
X53781123Y-24638009D01*
X53827710Y-24619480D01*
X53837452Y-24618462D01*
X53848418Y-24635215D01*
X53849079Y-24678039D01*
X53841020Y-24735781D01*
X53825827Y-24797289D01*
X53805086Y-24851409D01*
X53804038Y-24853510D01*
X53741621Y-24940660D01*
X53660726Y-24999939D01*
X53568856Y-25029034D01*
X53473513Y-25025634D01*
X53382198Y-24987428D01*
X53378138Y-24984741D01*
X53306306Y-24919642D01*
X53259073Y-24834705D01*
X53232934Y-24723021D01*
X53229426Y-24691643D01*
X53223213Y-24543536D01*
X53230661Y-24474468D01*
X53418154Y-24474468D01*
X53420590Y-24517552D01*
X53433914Y-24530126D01*
X53467132Y-24520719D01*
X53519494Y-24498483D01*
X53578024Y-24470610D01*
X53579479Y-24469872D01*
X53629089Y-24443777D01*
X53649000Y-24426363D01*
X53644090Y-24408107D01*
X53623416Y-24384120D01*
X53570819Y-24349406D01*
X53514177Y-24346856D01*
X53463369Y-24372119D01*
X53428276Y-24420847D01*
X53418154Y-24474468D01*
X53230661Y-24474468D01*
X53235992Y-24425036D01*
X53268778Y-24331055D01*
X53314421Y-24265215D01*
X53396802Y-24198681D01*
X53487546Y-24165676D01*
X53580185Y-24163573D01*
X53668254Y-24189745D01*
G36*
X52150886Y-24177256D02*
G01*
X52242464Y-24225409D01*
X52310049Y-24302905D01*
X52334057Y-24352727D01*
X52352738Y-24427533D01*
X52362301Y-24522052D01*
X52363208Y-24625210D01*
X52355921Y-24725935D01*
X52340903Y-24813153D01*
X52318615Y-24875791D01*
X52311765Y-24886579D01*
X52230632Y-24967105D01*
X52134266Y-25015336D01*
X52029701Y-25029450D01*
X51923968Y-25007629D01*
X51894543Y-24994547D01*
X51837241Y-24954231D01*
X51786950Y-24900775D01*
X51782197Y-24893995D01*
X51762878Y-24861321D01*
X51750108Y-24826394D01*
X51742564Y-24780414D01*
X51738924Y-24714584D01*
X51737865Y-24620105D01*
X51737846Y-24598923D01*
X51737894Y-24592182D01*
X51933231Y-24592182D01*
X51934368Y-24681349D01*
X51938841Y-24740520D01*
X51948246Y-24778741D01*
X51964176Y-24805053D01*
X51972308Y-24813846D01*
X52019058Y-24847261D01*
X52064447Y-24845737D01*
X52110340Y-24816752D01*
X52137712Y-24785809D01*
X52153923Y-24740643D01*
X52163026Y-24669420D01*
X52163651Y-24661114D01*
X52165204Y-24532037D01*
X52148965Y-24436172D01*
X52115152Y-24374107D01*
X52063984Y-24346432D01*
X52045720Y-24344923D01*
X51997760Y-24352513D01*
X51964953Y-24378808D01*
X51944895Y-24429095D01*
X51935178Y-24508664D01*
X51933231Y-24592182D01*
X51737894Y-24592182D01*
X51738574Y-24498249D01*
X51741629Y-24427906D01*
X51748322Y-24379163D01*
X51759960Y-24343288D01*
X51777853Y-24311548D01*
X51781808Y-24305648D01*
X51848267Y-24226104D01*
X51920685Y-24179929D01*
X52008849Y-24161599D01*
X52038787Y-24160703D01*
X52150886Y-24177256D01*
G37*
X52150886Y-24177256D02*
X52242464Y-24225409D01*
X52310049Y-24302905D01*
X52334057Y-24352727D01*
X52352738Y-24427533D01*
X52362301Y-24522052D01*
X52363208Y-24625210D01*
X52355921Y-24725935D01*
X52340903Y-24813153D01*
X52318615Y-24875791D01*
X52311765Y-24886579D01*
X52230632Y-24967105D01*
X52134266Y-25015336D01*
X52029701Y-25029450D01*
X51923968Y-25007629D01*
X51894543Y-24994547D01*
X51837241Y-24954231D01*
X51786950Y-24900775D01*
X51782197Y-24893995D01*
X51762878Y-24861321D01*
X51750108Y-24826394D01*
X51742564Y-24780414D01*
X51738924Y-24714584D01*
X51737865Y-24620105D01*
X51737846Y-24598923D01*
X51737894Y-24592182D01*
X51933231Y-24592182D01*
X51934368Y-24681349D01*
X51938841Y-24740520D01*
X51948246Y-24778741D01*
X51964176Y-24805053D01*
X51972308Y-24813846D01*
X52019058Y-24847261D01*
X52064447Y-24845737D01*
X52110340Y-24816752D01*
X52137712Y-24785809D01*
X52153923Y-24740643D01*
X52163026Y-24669420D01*
X52163651Y-24661114D01*
X52165204Y-24532037D01*
X52148965Y-24436172D01*
X52115152Y-24374107D01*
X52063984Y-24346432D01*
X52045720Y-24344923D01*
X51997760Y-24352513D01*
X51964953Y-24378808D01*
X51944895Y-24429095D01*
X51935178Y-24508664D01*
X51933231Y-24592182D01*
X51737894Y-24592182D01*
X51738574Y-24498249D01*
X51741629Y-24427906D01*
X51748322Y-24379163D01*
X51759960Y-24343288D01*
X51777853Y-24311548D01*
X51781808Y-24305648D01*
X51848267Y-24226104D01*
X51920685Y-24179929D01*
X52008849Y-24161599D01*
X52038787Y-24160703D01*
X52150886Y-24177256D01*
G36*
X54405664Y-24185089D02*
G01*
X54468367Y-24221358D01*
X54511961Y-24257358D01*
X54543845Y-24295075D01*
X54565810Y-24341199D01*
X54579649Y-24402421D01*
X54587153Y-24485431D01*
X54590117Y-24596919D01*
X54590461Y-24677062D01*
X54590461Y-24972065D01*
X54424385Y-25046515D01*
X54414615Y-24723402D01*
X54410579Y-24602729D01*
X54406344Y-24515141D01*
X54401097Y-24454650D01*
X54394025Y-24415268D01*
X54384311Y-24391007D01*
X54371144Y-24375880D01*
X54366919Y-24372606D01*
X54302909Y-24347034D01*
X54238208Y-24357153D01*
X54199692Y-24384000D01*
X54184025Y-24403024D01*
X54173180Y-24427988D01*
X54166288Y-24465834D01*
X54162479Y-24523502D01*
X54160883Y-24607935D01*
X54160615Y-24695928D01*
X54160563Y-24806323D01*
X54158672Y-24884463D01*
X54152345Y-24937165D01*
X54138983Y-24971242D01*
X54115985Y-24993511D01*
X54080754Y-25010787D01*
X54033697Y-25028738D01*
X53982303Y-25048278D01*
X53988421Y-24701485D01*
X53990884Y-24576468D01*
X53993767Y-24484082D01*
X53997898Y-24417881D01*
X54004107Y-24371420D01*
X54013226Y-24338256D01*
X54026083Y-24311944D01*
X54041584Y-24288729D01*
X54116371Y-24214569D01*
X54207628Y-24171684D01*
X54306883Y-24161412D01*
X54405664Y-24185089D01*
G37*
X54405664Y-24185089D02*
X54468367Y-24221358D01*
X54511961Y-24257358D01*
X54543845Y-24295075D01*
X54565810Y-24341199D01*
X54579649Y-24402421D01*
X54587153Y-24485431D01*
X54590117Y-24596919D01*
X54590461Y-24677062D01*
X54590461Y-24972065D01*
X54424385Y-25046515D01*
X54414615Y-24723402D01*
X54410579Y-24602729D01*
X54406344Y-24515141D01*
X54401097Y-24454650D01*
X54394025Y-24415268D01*
X54384311Y-24391007D01*
X54371144Y-24375880D01*
X54366919Y-24372606D01*
X54302909Y-24347034D01*
X54238208Y-24357153D01*
X54199692Y-24384000D01*
X54184025Y-24403024D01*
X54173180Y-24427988D01*
X54166288Y-24465834D01*
X54162479Y-24523502D01*
X54160883Y-24607935D01*
X54160615Y-24695928D01*
X54160563Y-24806323D01*
X54158672Y-24884463D01*
X54152345Y-24937165D01*
X54138983Y-24971242D01*
X54115985Y-24993511D01*
X54080754Y-25010787D01*
X54033697Y-25028738D01*
X53982303Y-25048278D01*
X53988421Y-24701485D01*
X53990884Y-24576468D01*
X53993767Y-24484082D01*
X53997898Y-24417881D01*
X54004107Y-24371420D01*
X54013226Y-24338256D01*
X54026083Y-24311944D01*
X54041584Y-24288729D01*
X54116371Y-24214569D01*
X54207628Y-24171684D01*
X54306883Y-24161412D01*
X54405664Y-24185089D01*
G36*
X52902886Y-24174505D02*
G01*
X52977539Y-24211727D01*
X53043431Y-24280261D01*
X53061577Y-24305648D01*
X53081345Y-24338866D01*
X53094172Y-24374945D01*
X53101510Y-24423098D01*
X53104813Y-24492536D01*
X53105538Y-24584206D01*
X53102263Y-24709830D01*
X53090877Y-24804154D01*
X53069041Y-24874523D01*
X53034419Y-24928286D01*
X52984670Y-24972788D01*
X52981014Y-24975423D01*
X52931985Y-25002377D01*
X52872945Y-25015712D01*
X52797859Y-25019000D01*
X52675795Y-25019000D01*
X52675744Y-25137497D01*
X52674608Y-25203492D01*
X52667686Y-25242202D01*
X52649598Y-25265419D01*
X52614962Y-25284933D01*
X52606645Y-25288920D01*
X52567720Y-25307603D01*
X52537583Y-25319403D01*
X52515174Y-25320422D01*
X52499433Y-25306761D01*
X52489302Y-25274522D01*
X52483723Y-25219804D01*
X52481635Y-25138711D01*
X52481981Y-25027344D01*
X52483700Y-24881802D01*
X52484237Y-24838269D01*
X52486172Y-24688205D01*
X52487904Y-24590042D01*
X52675692Y-24590042D01*
X52676748Y-24673364D01*
X52681438Y-24727880D01*
X52692051Y-24763837D01*
X52710872Y-24791482D01*
X52723650Y-24804965D01*
X52775890Y-24844417D01*
X52822142Y-24847628D01*
X52869867Y-24815049D01*
X52871077Y-24813846D01*
X52890494Y-24788668D01*
X52902307Y-24754447D01*
X52908265Y-24701748D01*
X52910120Y-24621131D01*
X52910154Y-24603271D01*
X52905670Y-24492175D01*
X52891074Y-24415161D01*
X52864650Y-24368147D01*
X52824683Y-24347050D01*
X52801584Y-24344923D01*
X52746762Y-24354900D01*
X52709158Y-24387752D01*
X52686523Y-24447857D01*
X52676606Y-24539598D01*
X52675692Y-24590042D01*
X52487904Y-24590042D01*
X52488222Y-24572060D01*
X52490873Y-24484679D01*
X52494606Y-24420905D01*
X52499907Y-24375582D01*
X52507258Y-24343555D01*
X52517143Y-24319668D01*
X52530046Y-24298764D01*
X52535579Y-24290898D01*
X52608969Y-24216595D01*
X52701760Y-24174467D01*
X52809096Y-24162722D01*
X52902886Y-24174505D01*
G37*
X52902886Y-24174505D02*
X52977539Y-24211727D01*
X53043431Y-24280261D01*
X53061577Y-24305648D01*
X53081345Y-24338866D01*
X53094172Y-24374945D01*
X53101510Y-24423098D01*
X53104813Y-24492536D01*
X53105538Y-24584206D01*
X53102263Y-24709830D01*
X53090877Y-24804154D01*
X53069041Y-24874523D01*
X53034419Y-24928286D01*
X52984670Y-24972788D01*
X52981014Y-24975423D01*
X52931985Y-25002377D01*
X52872945Y-25015712D01*
X52797859Y-25019000D01*
X52675795Y-25019000D01*
X52675744Y-25137497D01*
X52674608Y-25203492D01*
X52667686Y-25242202D01*
X52649598Y-25265419D01*
X52614962Y-25284933D01*
X52606645Y-25288920D01*
X52567720Y-25307603D01*
X52537583Y-25319403D01*
X52515174Y-25320422D01*
X52499433Y-25306761D01*
X52489302Y-25274522D01*
X52483723Y-25219804D01*
X52481635Y-25138711D01*
X52481981Y-25027344D01*
X52483700Y-24881802D01*
X52484237Y-24838269D01*
X52486172Y-24688205D01*
X52487904Y-24590042D01*
X52675692Y-24590042D01*
X52676748Y-24673364D01*
X52681438Y-24727880D01*
X52692051Y-24763837D01*
X52710872Y-24791482D01*
X52723650Y-24804965D01*
X52775890Y-24844417D01*
X52822142Y-24847628D01*
X52869867Y-24815049D01*
X52871077Y-24813846D01*
X52890494Y-24788668D01*
X52902307Y-24754447D01*
X52908265Y-24701748D01*
X52910120Y-24621131D01*
X52910154Y-24603271D01*
X52905670Y-24492175D01*
X52891074Y-24415161D01*
X52864650Y-24368147D01*
X52824683Y-24347050D01*
X52801584Y-24344923D01*
X52746762Y-24354900D01*
X52709158Y-24387752D01*
X52686523Y-24447857D01*
X52676606Y-24539598D01*
X52675692Y-24590042D01*
X52487904Y-24590042D01*
X52488222Y-24572060D01*
X52490873Y-24484679D01*
X52494606Y-24420905D01*
X52499907Y-24375582D01*
X52507258Y-24343555D01*
X52517143Y-24319668D01*
X52530046Y-24298764D01*
X52535579Y-24290898D01*
X52608969Y-24216595D01*
X52701760Y-24174467D01*
X52809096Y-24162722D01*
X52902886Y-24174505D01*
D10*
X165862095Y-20772380D02*
X165862095Y-19772380D01*
X165862095Y-20248571D02*
X166433523Y-20248571D01*
X166433523Y-20772380D02*
X166433523Y-19772380D01*
X167433523Y-20772380D02*
X166862095Y-20772380D01*
X167147809Y-20772380D02*
X167147809Y-19772380D01*
X167052571Y-19915238D01*
X166957333Y-20010476D01*
X166862095Y-20058095D01*
X111760095Y-123896380D02*
X111760095Y-122896380D01*
X111760095Y-123372571D02*
X112331523Y-123372571D01*
X112331523Y-123896380D02*
X112331523Y-122896380D01*
X112760095Y-122991619D02*
X112807714Y-122944000D01*
X112902952Y-122896380D01*
X113141047Y-122896380D01*
X113236285Y-122944000D01*
X113283904Y-122991619D01*
X113331523Y-123086857D01*
X113331523Y-123182095D01*
X113283904Y-123324952D01*
X112712476Y-123896380D01*
X113331523Y-123896380D01*
X40132095Y-115260380D02*
X40132095Y-114260380D01*
X40132095Y-114736571D02*
X40703523Y-114736571D01*
X40703523Y-115260380D02*
X40703523Y-114260380D01*
X41084476Y-114260380D02*
X41703523Y-114260380D01*
X41370190Y-114641333D01*
X41513047Y-114641333D01*
X41608285Y-114688952D01*
X41655904Y-114736571D01*
X41703523Y-114831809D01*
X41703523Y-115069904D01*
X41655904Y-115165142D01*
X41608285Y-115212761D01*
X41513047Y-115260380D01*
X41227333Y-115260380D01*
X41132095Y-115212761D01*
X41084476Y-115165142D01*
X112458095Y-61158380D02*
X112458095Y-60158380D01*
X112458095Y-60634571D02*
X113029523Y-60634571D01*
X113029523Y-61158380D02*
X113029523Y-60158380D01*
X113981904Y-60158380D02*
X113505714Y-60158380D01*
X113458095Y-60634571D01*
X113505714Y-60586952D01*
X113600952Y-60539333D01*
X113839047Y-60539333D01*
X113934285Y-60586952D01*
X113981904Y-60634571D01*
X114029523Y-60729809D01*
X114029523Y-60967904D01*
X113981904Y-61063142D01*
X113934285Y-61110761D01*
X113839047Y-61158380D01*
X113600952Y-61158380D01*
X113505714Y-61110761D01*
X113458095Y-61063142D01*
X179070095Y-133548380D02*
X179070095Y-132548380D01*
X179070095Y-133024571D02*
X179641523Y-133024571D01*
X179641523Y-133548380D02*
X179641523Y-132548380D01*
X180260571Y-132976952D02*
X180165333Y-132929333D01*
X180117714Y-132881714D01*
X180070095Y-132786476D01*
X180070095Y-132738857D01*
X180117714Y-132643619D01*
X180165333Y-132596000D01*
X180260571Y-132548380D01*
X180451047Y-132548380D01*
X180546285Y-132596000D01*
X180593904Y-132643619D01*
X180641523Y-132738857D01*
X180641523Y-132786476D01*
X180593904Y-132881714D01*
X180546285Y-132929333D01*
X180451047Y-132976952D01*
X180260571Y-132976952D01*
X180165333Y-133024571D01*
X180117714Y-133072190D01*
X180070095Y-133167428D01*
X180070095Y-133357904D01*
X180117714Y-133453142D01*
X180165333Y-133500761D01*
X180260571Y-133548380D01*
X180451047Y-133548380D01*
X180546285Y-133500761D01*
X180593904Y-133453142D01*
X180641523Y-133357904D01*
X180641523Y-133167428D01*
X180593904Y-133072190D01*
X180546285Y-133024571D01*
X180451047Y-132976952D01*
X111760095Y-20772380D02*
X111760095Y-19772380D01*
X111760095Y-20248571D02*
X112331523Y-20248571D01*
X112331523Y-20772380D02*
X112331523Y-19772380D01*
X112855333Y-20772380D02*
X113045809Y-20772380D01*
X113141047Y-20724761D01*
X113188666Y-20677142D01*
X113283904Y-20534285D01*
X113331523Y-20343809D01*
X113331523Y-19962857D01*
X113283904Y-19867619D01*
X113236285Y-19820000D01*
X113141047Y-19772380D01*
X112950571Y-19772380D01*
X112855333Y-19820000D01*
X112807714Y-19867619D01*
X112760095Y-19962857D01*
X112760095Y-20200952D01*
X112807714Y-20296190D01*
X112855333Y-20343809D01*
X112950571Y-20391428D01*
X113141047Y-20391428D01*
X113236285Y-20343809D01*
X113283904Y-20296190D01*
X113331523Y-20200952D01*
X38893904Y-60904380D02*
X38893904Y-59904380D01*
X38893904Y-60380571D02*
X39465333Y-60380571D01*
X39465333Y-60904380D02*
X39465333Y-59904380D01*
X40465333Y-60904380D02*
X39893904Y-60904380D01*
X40179619Y-60904380D02*
X40179619Y-59904380D01*
X40084380Y-60047238D01*
X39989142Y-60142476D01*
X39893904Y-60190095D01*
X41084380Y-59904380D02*
X41179619Y-59904380D01*
X41274857Y-59952000D01*
X41322476Y-59999619D01*
X41370095Y-60094857D01*
X41417714Y-60285333D01*
X41417714Y-60523428D01*
X41370095Y-60713904D01*
X41322476Y-60809142D01*
X41274857Y-60856761D01*
X41179619Y-60904380D01*
X41084380Y-60904380D01*
X40989142Y-60856761D01*
X40941523Y-60809142D01*
X40893904Y-60713904D01*
X40846285Y-60523428D01*
X40846285Y-60285333D01*
X40893904Y-60094857D01*
X40941523Y-59999619D01*
X40989142Y-59952000D01*
X41084380Y-59904380D01*
X38893904Y-21026380D02*
X38893904Y-20026380D01*
X38893904Y-20502571D02*
X39465333Y-20502571D01*
X39465333Y-21026380D02*
X39465333Y-20026380D01*
X40465333Y-21026380D02*
X39893904Y-21026380D01*
X40179619Y-21026380D02*
X40179619Y-20026380D01*
X40084380Y-20169238D01*
X39989142Y-20264476D01*
X39893904Y-20312095D01*
X41417714Y-21026380D02*
X40846285Y-21026380D01*
X41132000Y-21026380D02*
X41132000Y-20026380D01*
X41036761Y-20169238D01*
X40941523Y-20264476D01*
X40846285Y-20312095D01*
X166147904Y-108402380D02*
X166147904Y-107402380D01*
X166147904Y-107878571D02*
X166719333Y-107878571D01*
X166719333Y-108402380D02*
X166719333Y-107402380D01*
X167719333Y-108402380D02*
X167147904Y-108402380D01*
X167433619Y-108402380D02*
X167433619Y-107402380D01*
X167338380Y-107545238D01*
X167243142Y-107640476D01*
X167147904Y-107688095D01*
X168100285Y-107497619D02*
X168147904Y-107450000D01*
X168243142Y-107402380D01*
X168481238Y-107402380D01*
X168576476Y-107450000D01*
X168624095Y-107497619D01*
X168671714Y-107592857D01*
X168671714Y-107688095D01*
X168624095Y-107830952D01*
X168052666Y-108402380D01*
X168671714Y-108402380D01*
X83155852Y-40751880D02*
X83155852Y-39751880D01*
X83727280Y-40751880D02*
X83298709Y-40180452D01*
X83727280Y-39751880D02*
X83155852Y-40323309D01*
X83917757Y-40847119D02*
X84679661Y-40847119D01*
X85441566Y-40751880D02*
X84870138Y-40751880D01*
X85155852Y-40751880D02*
X85155852Y-39751880D01*
X85060614Y-39894738D01*
X84965376Y-39989976D01*
X84870138Y-40037595D01*
X102206352Y-36941880D02*
X102206352Y-35941880D01*
X102777780Y-36941880D02*
X102349209Y-36370452D01*
X102777780Y-35941880D02*
X102206352Y-36513309D01*
X102968257Y-37037119D02*
X103730161Y-37037119D01*
X103920638Y-36037119D02*
X103968257Y-35989500D01*
X104063495Y-35941880D01*
X104301590Y-35941880D01*
X104396828Y-35989500D01*
X104444447Y-36037119D01*
X104492066Y-36132357D01*
X104492066Y-36227595D01*
X104444447Y-36370452D01*
X103873019Y-36941880D01*
X104492066Y-36941880D01*
X121256352Y-33131880D02*
X121256352Y-32131880D01*
X121827780Y-33131880D02*
X121399209Y-32560452D01*
X121827780Y-32131880D02*
X121256352Y-32703309D01*
X122018257Y-33227119D02*
X122780161Y-33227119D01*
X122923019Y-32131880D02*
X123542066Y-32131880D01*
X123208733Y-32512833D01*
X123351590Y-32512833D01*
X123446828Y-32560452D01*
X123494447Y-32608071D01*
X123542066Y-32703309D01*
X123542066Y-32941404D01*
X123494447Y-33036642D01*
X123446828Y-33084261D01*
X123351590Y-33131880D01*
X123065876Y-33131880D01*
X122970638Y-33084261D01*
X122923019Y-33036642D01*
X140306352Y-36941880D02*
X140306352Y-35941880D01*
X140877780Y-36941880D02*
X140449209Y-36370452D01*
X140877780Y-35941880D02*
X140306352Y-36513309D01*
X141068257Y-37037119D02*
X141830161Y-37037119D01*
X142496828Y-36275214D02*
X142496828Y-36941880D01*
X142258733Y-35894261D02*
X142020638Y-36608547D01*
X142639685Y-36608547D01*
X159356352Y-40751880D02*
X159356352Y-39751880D01*
X159927780Y-40751880D02*
X159499209Y-40180452D01*
X159927780Y-39751880D02*
X159356352Y-40323309D01*
X160118257Y-40847119D02*
X160880161Y-40847119D01*
X161594447Y-39751880D02*
X161118257Y-39751880D01*
X161070638Y-40228071D01*
X161118257Y-40180452D01*
X161213495Y-40132833D01*
X161451590Y-40132833D01*
X161546828Y-40180452D01*
X161594447Y-40228071D01*
X161642066Y-40323309D01*
X161642066Y-40561404D01*
X161594447Y-40656642D01*
X161546828Y-40704261D01*
X161451590Y-40751880D01*
X161213495Y-40751880D01*
X161118257Y-40704261D01*
X161070638Y-40656642D01*
X82727280Y-78851880D02*
X82727280Y-77851880D01*
X83298709Y-78851880D02*
X82870138Y-78280452D01*
X83298709Y-77851880D02*
X82727280Y-78423309D01*
X83489185Y-78947119D02*
X84251090Y-78947119D01*
X84441566Y-78566166D02*
X84917757Y-78566166D01*
X84346328Y-78851880D02*
X84679661Y-77851880D01*
X85012995Y-78851880D01*
X85870138Y-78851880D02*
X85298709Y-78851880D01*
X85584423Y-78851880D02*
X85584423Y-77851880D01*
X85489185Y-77994738D01*
X85393947Y-78089976D01*
X85298709Y-78137595D01*
X81941566Y-116952380D02*
X81941566Y-115952380D01*
X82512995Y-116952380D02*
X82084423Y-116380952D01*
X82512995Y-115952380D02*
X81941566Y-116523809D01*
X82703471Y-117047619D02*
X83465376Y-117047619D01*
X83655852Y-116666666D02*
X84132042Y-116666666D01*
X83560614Y-116952380D02*
X83893947Y-115952380D01*
X84227280Y-116952380D01*
X85036804Y-116952380D02*
X84560614Y-116952380D01*
X84560614Y-115952380D01*
X85227280Y-115952380D02*
X85798709Y-115952380D01*
X85512995Y-116952380D02*
X85512995Y-115952380D01*
X86655852Y-116952380D02*
X86084423Y-116952380D01*
X86370138Y-116952380D02*
X86370138Y-115952380D01*
X86274900Y-116095238D01*
X86179661Y-116190476D01*
X86084423Y-116238095D01*
X158856352Y-97901880D02*
X158856352Y-96901880D01*
X159427780Y-97901880D02*
X158999209Y-97330452D01*
X159427780Y-96901880D02*
X158856352Y-97473309D01*
X159618257Y-97997119D02*
X160380161Y-97997119D01*
X160951590Y-97378071D02*
X161094447Y-97425690D01*
X161142066Y-97473309D01*
X161189685Y-97568547D01*
X161189685Y-97711404D01*
X161142066Y-97806642D01*
X161094447Y-97854261D01*
X160999209Y-97901880D01*
X160618257Y-97901880D01*
X160618257Y-96901880D01*
X160951590Y-96901880D01*
X161046828Y-96949500D01*
X161094447Y-96997119D01*
X161142066Y-97092357D01*
X161142066Y-97187595D01*
X161094447Y-97282833D01*
X161046828Y-97330452D01*
X160951590Y-97378071D01*
X160618257Y-97378071D01*
X162142066Y-97901880D02*
X161570638Y-97901880D01*
X161856352Y-97901880D02*
X161856352Y-96901880D01*
X161761114Y-97044738D01*
X161665876Y-97139976D01*
X161570638Y-97187595D01*
X118025685Y-109268380D02*
X118025685Y-108268380D01*
X118597114Y-109268380D02*
X118168542Y-108696952D01*
X118597114Y-108268380D02*
X118025685Y-108839809D01*
X118787590Y-109363619D02*
X119549495Y-109363619D01*
X120120923Y-108744571D02*
X120263780Y-108792190D01*
X120311400Y-108839809D01*
X120359019Y-108935047D01*
X120359019Y-109077904D01*
X120311400Y-109173142D01*
X120263780Y-109220761D01*
X120168542Y-109268380D01*
X119787590Y-109268380D01*
X119787590Y-108268380D01*
X120120923Y-108268380D01*
X120216161Y-108316000D01*
X120263780Y-108363619D01*
X120311400Y-108458857D01*
X120311400Y-108554095D01*
X120263780Y-108649333D01*
X120216161Y-108696952D01*
X120120923Y-108744571D01*
X119787590Y-108744571D01*
X120978066Y-108268380D02*
X121168542Y-108268380D01*
X121263780Y-108316000D01*
X121359019Y-108411238D01*
X121406638Y-108601714D01*
X121406638Y-108935047D01*
X121359019Y-109125523D01*
X121263780Y-109220761D01*
X121168542Y-109268380D01*
X120978066Y-109268380D01*
X120882828Y-109220761D01*
X120787590Y-109125523D01*
X120739971Y-108935047D01*
X120739971Y-108601714D01*
X120787590Y-108411238D01*
X120882828Y-108316000D01*
X120978066Y-108268380D01*
X121692352Y-108268380D02*
X122263780Y-108268380D01*
X121978066Y-109268380D02*
X121978066Y-108268380D01*
X122359019Y-109363619D02*
X123120923Y-109363619D01*
X123882828Y-109268380D02*
X123311400Y-109268380D01*
X123597114Y-109268380D02*
X123597114Y-108268380D01*
X123501876Y-108411238D01*
X123406638Y-108506476D01*
X123311400Y-108554095D01*
X124311400Y-108268380D02*
X124311400Y-109077904D01*
X124359019Y-109173142D01*
X124406638Y-109220761D01*
X124501876Y-109268380D01*
X124692352Y-109268380D01*
X124787590Y-109220761D01*
X124835209Y-109173142D01*
X124882828Y-109077904D01*
X124882828Y-108268380D01*
X125120923Y-109363619D02*
X125882828Y-109363619D01*
X126644733Y-109268380D02*
X126073304Y-109268380D01*
X126359019Y-109268380D02*
X126359019Y-108268380D01*
X126263780Y-108411238D01*
X126168542Y-108506476D01*
X126073304Y-108554095D01*
X137075685Y-113078380D02*
X137075685Y-112078380D01*
X137647114Y-113078380D02*
X137218542Y-112506952D01*
X137647114Y-112078380D02*
X137075685Y-112649809D01*
X137837590Y-113173619D02*
X138599495Y-113173619D01*
X139170923Y-112554571D02*
X139313780Y-112602190D01*
X139361400Y-112649809D01*
X139409019Y-112745047D01*
X139409019Y-112887904D01*
X139361400Y-112983142D01*
X139313780Y-113030761D01*
X139218542Y-113078380D01*
X138837590Y-113078380D01*
X138837590Y-112078380D01*
X139170923Y-112078380D01*
X139266161Y-112126000D01*
X139313780Y-112173619D01*
X139361400Y-112268857D01*
X139361400Y-112364095D01*
X139313780Y-112459333D01*
X139266161Y-112506952D01*
X139170923Y-112554571D01*
X138837590Y-112554571D01*
X140028066Y-112078380D02*
X140218542Y-112078380D01*
X140313780Y-112126000D01*
X140409019Y-112221238D01*
X140456638Y-112411714D01*
X140456638Y-112745047D01*
X140409019Y-112935523D01*
X140313780Y-113030761D01*
X140218542Y-113078380D01*
X140028066Y-113078380D01*
X139932828Y-113030761D01*
X139837590Y-112935523D01*
X139789971Y-112745047D01*
X139789971Y-112411714D01*
X139837590Y-112221238D01*
X139932828Y-112126000D01*
X140028066Y-112078380D01*
X140742352Y-112078380D02*
X141313780Y-112078380D01*
X141028066Y-113078380D02*
X141028066Y-112078380D01*
X141409019Y-113173619D02*
X142170923Y-113173619D01*
X142932828Y-113078380D02*
X142361400Y-113078380D01*
X142647114Y-113078380D02*
X142647114Y-112078380D01*
X142551876Y-112221238D01*
X142456638Y-112316476D01*
X142361400Y-112364095D01*
X143361400Y-112078380D02*
X143361400Y-112887904D01*
X143409019Y-112983142D01*
X143456638Y-113030761D01*
X143551876Y-113078380D01*
X143742352Y-113078380D01*
X143837590Y-113030761D01*
X143885209Y-112983142D01*
X143932828Y-112887904D01*
X143932828Y-112078380D01*
X144170923Y-113173619D02*
X144932828Y-113173619D01*
X145123304Y-112173619D02*
X145170923Y-112126000D01*
X145266161Y-112078380D01*
X145504257Y-112078380D01*
X145599495Y-112126000D01*
X145647114Y-112173619D01*
X145694733Y-112268857D01*
X145694733Y-112364095D01*
X145647114Y-112506952D01*
X145075685Y-113078380D01*
X145694733Y-113078380D01*
X120756352Y-90281880D02*
X120756352Y-89281880D01*
X121327780Y-90281880D02*
X120899209Y-89710452D01*
X121327780Y-89281880D02*
X120756352Y-89853309D01*
X121518257Y-90377119D02*
X122280161Y-90377119D01*
X123089685Y-90186642D02*
X123042066Y-90234261D01*
X122899209Y-90281880D01*
X122803971Y-90281880D01*
X122661114Y-90234261D01*
X122565876Y-90139023D01*
X122518257Y-90043785D01*
X122470638Y-89853309D01*
X122470638Y-89710452D01*
X122518257Y-89519976D01*
X122565876Y-89424738D01*
X122661114Y-89329500D01*
X122803971Y-89281880D01*
X122899209Y-89281880D01*
X123042066Y-89329500D01*
X123089685Y-89377119D01*
X124042066Y-90281880D02*
X123470638Y-90281880D01*
X123756352Y-90281880D02*
X123756352Y-89281880D01*
X123661114Y-89424738D01*
X123565876Y-89519976D01*
X123470638Y-89567595D01*
X55057390Y-78851880D02*
X55057390Y-77851880D01*
X55628819Y-78851880D02*
X55200247Y-78280452D01*
X55628819Y-77851880D02*
X55057390Y-78423309D01*
X55819295Y-78947119D02*
X56581200Y-78947119D01*
X57390723Y-78756642D02*
X57343104Y-78804261D01*
X57200247Y-78851880D01*
X57105009Y-78851880D01*
X56962152Y-78804261D01*
X56866914Y-78709023D01*
X56819295Y-78613785D01*
X56771676Y-78423309D01*
X56771676Y-78280452D01*
X56819295Y-78089976D01*
X56866914Y-77994738D01*
X56962152Y-77899500D01*
X57105009Y-77851880D01*
X57200247Y-77851880D01*
X57343104Y-77899500D01*
X57390723Y-77947119D01*
X57771676Y-78566166D02*
X58247866Y-78566166D01*
X57676438Y-78851880D02*
X58009771Y-77851880D01*
X58343104Y-78851880D01*
X58676438Y-78851880D02*
X58676438Y-77851880D01*
X59057390Y-77851880D01*
X59152628Y-77899500D01*
X59200247Y-77947119D01*
X59247866Y-78042357D01*
X59247866Y-78185214D01*
X59200247Y-78280452D01*
X59152628Y-78328071D01*
X59057390Y-78375690D01*
X58676438Y-78375690D01*
X59628819Y-78804261D02*
X59771676Y-78851880D01*
X60009771Y-78851880D01*
X60105009Y-78804261D01*
X60152628Y-78756642D01*
X60200247Y-78661404D01*
X60200247Y-78566166D01*
X60152628Y-78470928D01*
X60105009Y-78423309D01*
X60009771Y-78375690D01*
X59819295Y-78328071D01*
X59724057Y-78280452D01*
X59676438Y-78232833D01*
X59628819Y-78137595D01*
X59628819Y-78042357D01*
X59676438Y-77947119D01*
X59724057Y-77899500D01*
X59819295Y-77851880D01*
X60057390Y-77851880D01*
X60200247Y-77899500D01*
X61152628Y-78851880D02*
X60581200Y-78851880D01*
X60866914Y-78851880D02*
X60866914Y-77851880D01*
X60771676Y-77994738D01*
X60676438Y-78089976D01*
X60581200Y-78137595D01*
X62320138Y-116952380D02*
X62320138Y-115952380D01*
X62891566Y-116952380D02*
X62462995Y-116380952D01*
X62891566Y-115952380D02*
X62320138Y-116523809D01*
X63082042Y-117047619D02*
X63843947Y-117047619D01*
X64653471Y-116857142D02*
X64605852Y-116904761D01*
X64462995Y-116952380D01*
X64367757Y-116952380D01*
X64224900Y-116904761D01*
X64129661Y-116809523D01*
X64082042Y-116714285D01*
X64034423Y-116523809D01*
X64034423Y-116380952D01*
X64082042Y-116190476D01*
X64129661Y-116095238D01*
X64224900Y-116000000D01*
X64367757Y-115952380D01*
X64462995Y-115952380D01*
X64605852Y-116000000D01*
X64653471Y-116047619D01*
X64939185Y-115952380D02*
X65510614Y-115952380D01*
X65224900Y-116952380D02*
X65224900Y-115952380D01*
X66415376Y-116952380D02*
X66082042Y-116476190D01*
X65843947Y-116952380D02*
X65843947Y-115952380D01*
X66224900Y-115952380D01*
X66320138Y-116000000D01*
X66367757Y-116047619D01*
X66415376Y-116142857D01*
X66415376Y-116285714D01*
X66367757Y-116380952D01*
X66320138Y-116428571D01*
X66224900Y-116476190D01*
X65843947Y-116476190D01*
X67320138Y-116952380D02*
X66843947Y-116952380D01*
X66843947Y-115952380D01*
X68177280Y-116952380D02*
X67605852Y-116952380D01*
X67891566Y-116952380D02*
X67891566Y-115952380D01*
X67796328Y-116095238D01*
X67701090Y-116190476D01*
X67605852Y-116238095D01*
X120756352Y-71231880D02*
X120756352Y-70231880D01*
X121327780Y-71231880D02*
X120899209Y-70660452D01*
X121327780Y-70231880D02*
X120756352Y-70803309D01*
X121518257Y-71327119D02*
X122280161Y-71327119D01*
X122518257Y-71231880D02*
X122518257Y-70231880D01*
X122756352Y-70231880D01*
X122899209Y-70279500D01*
X122994447Y-70374738D01*
X123042066Y-70469976D01*
X123089685Y-70660452D01*
X123089685Y-70803309D01*
X123042066Y-70993785D01*
X122994447Y-71089023D01*
X122899209Y-71184261D01*
X122756352Y-71231880D01*
X122518257Y-71231880D01*
X124042066Y-71231880D02*
X123470638Y-71231880D01*
X123756352Y-71231880D02*
X123756352Y-70231880D01*
X123661114Y-70374738D01*
X123565876Y-70469976D01*
X123470638Y-70517595D01*
X120803971Y-52181880D02*
X120803971Y-51181880D01*
X121375400Y-52181880D02*
X120946828Y-51610452D01*
X121375400Y-51181880D02*
X120803971Y-51753309D01*
X121565876Y-52277119D02*
X122327780Y-52277119D01*
X122565876Y-51658071D02*
X122899209Y-51658071D01*
X123042066Y-52181880D02*
X122565876Y-52181880D01*
X122565876Y-51181880D01*
X123042066Y-51181880D01*
X123994447Y-52181880D02*
X123423019Y-52181880D01*
X123708733Y-52181880D02*
X123708733Y-51181880D01*
X123613495Y-51324738D01*
X123518257Y-51419976D01*
X123423019Y-51467595D01*
X62677280Y-40751880D02*
X62677280Y-39751880D01*
X63248709Y-40751880D02*
X62820138Y-40180452D01*
X63248709Y-39751880D02*
X62677280Y-40323309D01*
X63439185Y-40847119D02*
X64201090Y-40847119D01*
X64439185Y-40228071D02*
X64772519Y-40228071D01*
X64915376Y-40751880D02*
X64439185Y-40751880D01*
X64439185Y-39751880D01*
X64915376Y-39751880D01*
X65296328Y-40704261D02*
X65439185Y-40751880D01*
X65677280Y-40751880D01*
X65772519Y-40704261D01*
X65820138Y-40656642D01*
X65867757Y-40561404D01*
X65867757Y-40466166D01*
X65820138Y-40370928D01*
X65772519Y-40323309D01*
X65677280Y-40275690D01*
X65486804Y-40228071D01*
X65391566Y-40180452D01*
X65343947Y-40132833D01*
X65296328Y-40037595D01*
X65296328Y-39942357D01*
X65343947Y-39847119D01*
X65391566Y-39799500D01*
X65486804Y-39751880D01*
X65724900Y-39751880D01*
X65867757Y-39799500D01*
X66867757Y-40656642D02*
X66820138Y-40704261D01*
X66677280Y-40751880D01*
X66582042Y-40751880D01*
X66439185Y-40704261D01*
X66343947Y-40609023D01*
X66296328Y-40513785D01*
X66248709Y-40323309D01*
X66248709Y-40180452D01*
X66296328Y-39989976D01*
X66343947Y-39894738D01*
X66439185Y-39799500D01*
X66582042Y-39751880D01*
X66677280Y-39751880D01*
X66820138Y-39799500D01*
X66867757Y-39847119D01*
X67820138Y-40751880D02*
X67248709Y-40751880D01*
X67534423Y-40751880D02*
X67534423Y-39751880D01*
X67439185Y-39894738D01*
X67343947Y-39989976D01*
X67248709Y-40037595D01*
X139877780Y-75041880D02*
X139877780Y-74041880D01*
X140449209Y-75041880D02*
X140020638Y-74470452D01*
X140449209Y-74041880D02*
X139877780Y-74613309D01*
X140639685Y-75137119D02*
X141401590Y-75137119D01*
X141973019Y-74518071D02*
X141639685Y-74518071D01*
X141639685Y-75041880D02*
X141639685Y-74041880D01*
X142115876Y-74041880D01*
X143020638Y-75041880D02*
X142449209Y-75041880D01*
X142734923Y-75041880D02*
X142734923Y-74041880D01*
X142639685Y-74184738D01*
X142544447Y-74279976D01*
X142449209Y-74327595D01*
X158856352Y-78851880D02*
X158856352Y-77851880D01*
X159427780Y-78851880D02*
X158999209Y-78280452D01*
X159427780Y-77851880D02*
X158856352Y-78423309D01*
X159618257Y-78947119D02*
X160380161Y-78947119D01*
X161142066Y-77899500D02*
X161046828Y-77851880D01*
X160903971Y-77851880D01*
X160761114Y-77899500D01*
X160665876Y-77994738D01*
X160618257Y-78089976D01*
X160570638Y-78280452D01*
X160570638Y-78423309D01*
X160618257Y-78613785D01*
X160665876Y-78709023D01*
X160761114Y-78804261D01*
X160903971Y-78851880D01*
X160999209Y-78851880D01*
X161142066Y-78804261D01*
X161189685Y-78756642D01*
X161189685Y-78423309D01*
X160999209Y-78423309D01*
X162142066Y-78851880D02*
X161570638Y-78851880D01*
X161856352Y-78851880D02*
X161856352Y-77851880D01*
X161761114Y-77994738D01*
X161665876Y-78089976D01*
X161570638Y-78137595D01*
X82632042Y-59801880D02*
X82632042Y-58801880D01*
X83203471Y-59801880D02*
X82774900Y-59230452D01*
X83203471Y-58801880D02*
X82632042Y-59373309D01*
X83393947Y-59897119D02*
X84155852Y-59897119D01*
X85060614Y-59897119D02*
X84965376Y-59849500D01*
X84870138Y-59754261D01*
X84727280Y-59611404D01*
X84632042Y-59563785D01*
X84536804Y-59563785D01*
X84584423Y-59801880D02*
X84489185Y-59754261D01*
X84393947Y-59659023D01*
X84346328Y-59468547D01*
X84346328Y-59135214D01*
X84393947Y-58944738D01*
X84489185Y-58849500D01*
X84584423Y-58801880D01*
X84774900Y-58801880D01*
X84870138Y-58849500D01*
X84965376Y-58944738D01*
X85012995Y-59135214D01*
X85012995Y-59468547D01*
X84965376Y-59659023D01*
X84870138Y-59754261D01*
X84774900Y-59801880D01*
X84584423Y-59801880D01*
X85965376Y-59801880D02*
X85393947Y-59801880D01*
X85679661Y-59801880D02*
X85679661Y-58801880D01*
X85584423Y-58944738D01*
X85489185Y-59039976D01*
X85393947Y-59087595D01*
X139806352Y-55991880D02*
X139806352Y-54991880D01*
X140377780Y-55991880D02*
X139949209Y-55420452D01*
X140377780Y-54991880D02*
X139806352Y-55563309D01*
X140568257Y-56087119D02*
X141330161Y-56087119D01*
X142139685Y-55991880D02*
X141806352Y-55515690D01*
X141568257Y-55991880D02*
X141568257Y-54991880D01*
X141949209Y-54991880D01*
X142044447Y-55039500D01*
X142092066Y-55087119D01*
X142139685Y-55182357D01*
X142139685Y-55325214D01*
X142092066Y-55420452D01*
X142044447Y-55468071D01*
X141949209Y-55515690D01*
X141568257Y-55515690D01*
X143092066Y-55991880D02*
X142520638Y-55991880D01*
X142806352Y-55991880D02*
X142806352Y-54991880D01*
X142711114Y-55134738D01*
X142615876Y-55229976D01*
X142520638Y-55277595D01*
X101730161Y-75041880D02*
X101730161Y-74041880D01*
X102301590Y-75041880D02*
X101873019Y-74470452D01*
X102301590Y-74041880D02*
X101730161Y-74613309D01*
X102492066Y-75137119D02*
X103253971Y-75137119D01*
X103444447Y-74994261D02*
X103587304Y-75041880D01*
X103825400Y-75041880D01*
X103920638Y-74994261D01*
X103968257Y-74946642D01*
X104015876Y-74851404D01*
X104015876Y-74756166D01*
X103968257Y-74660928D01*
X103920638Y-74613309D01*
X103825400Y-74565690D01*
X103634923Y-74518071D01*
X103539685Y-74470452D01*
X103492066Y-74422833D01*
X103444447Y-74327595D01*
X103444447Y-74232357D01*
X103492066Y-74137119D01*
X103539685Y-74089500D01*
X103634923Y-74041880D01*
X103873019Y-74041880D01*
X104015876Y-74089500D01*
X104968257Y-75041880D02*
X104396828Y-75041880D01*
X104682542Y-75041880D02*
X104682542Y-74041880D01*
X104587304Y-74184738D01*
X104492066Y-74279976D01*
X104396828Y-74327595D01*
X50130558Y-97226380D02*
X50130558Y-96226380D01*
X50701986Y-97226380D02*
X50273415Y-96654952D01*
X50701986Y-96226380D02*
X50130558Y-96797809D01*
X50892463Y-97321619D02*
X51654367Y-97321619D01*
X51844844Y-97178761D02*
X51987701Y-97226380D01*
X52225796Y-97226380D01*
X52321034Y-97178761D01*
X52368653Y-97131142D01*
X52416272Y-97035904D01*
X52416272Y-96940666D01*
X52368653Y-96845428D01*
X52321034Y-96797809D01*
X52225796Y-96750190D01*
X52035320Y-96702571D01*
X51940082Y-96654952D01*
X51892463Y-96607333D01*
X51844844Y-96512095D01*
X51844844Y-96416857D01*
X51892463Y-96321619D01*
X51940082Y-96274000D01*
X52035320Y-96226380D01*
X52273415Y-96226380D01*
X52416272Y-96274000D01*
X52844844Y-97226380D02*
X52844844Y-96226380D01*
X52844844Y-96702571D02*
X53416272Y-96702571D01*
X53416272Y-97226380D02*
X53416272Y-96226380D01*
X53892463Y-97226380D02*
X53892463Y-96226380D01*
X54701986Y-96702571D02*
X54368653Y-96702571D01*
X54368653Y-97226380D02*
X54368653Y-96226380D01*
X54844844Y-96226380D01*
X55082939Y-96226380D02*
X55654367Y-96226380D01*
X55368653Y-97226380D02*
X55368653Y-96226380D01*
X56511510Y-97226380D02*
X55940082Y-97226380D01*
X56225796Y-97226380D02*
X56225796Y-96226380D01*
X56130558Y-96369238D01*
X56035320Y-96464476D01*
X55940082Y-96512095D01*
X158975400Y-59801880D02*
X158975400Y-58801880D01*
X159546828Y-59801880D02*
X159118257Y-59230452D01*
X159546828Y-58801880D02*
X158975400Y-59373309D01*
X159737304Y-59897119D02*
X160499209Y-59897119D01*
X160594447Y-58801880D02*
X161165876Y-58801880D01*
X160880161Y-59801880D02*
X160880161Y-58801880D01*
X162023019Y-59801880D02*
X161451590Y-59801880D01*
X161737304Y-59801880D02*
X161737304Y-58801880D01*
X161642066Y-58944738D01*
X161546828Y-59039976D01*
X161451590Y-59087595D01*
X188145585Y-127358024D02*
X188568203Y-126451716D01*
X188663475Y-127599520D02*
X188516553Y-126900508D01*
X189086093Y-126693212D02*
X188326707Y-126969606D01*
X188795856Y-127766334D02*
X189486376Y-128088329D01*
X190035558Y-127135955D02*
X190553449Y-127377451D01*
X189871885Y-128163011D02*
X190294504Y-127256703D01*
X190432933Y-128424632D02*
X190855551Y-127518324D01*
X190654304Y-127949899D02*
X191172195Y-128191395D01*
X190950823Y-128666128D02*
X191373441Y-127759820D01*
X191126361Y-128853066D02*
X191816882Y-129175061D01*
X192547651Y-129410741D02*
X192029761Y-129169245D01*
X192288706Y-129289993D02*
X192711324Y-128383685D01*
X192564635Y-128472908D01*
X192438071Y-128518974D01*
X192331631Y-128521882D01*
X193358687Y-128685555D02*
X193016567Y-129419233D01*
X193019476Y-129525673D01*
X193042508Y-129588955D01*
X193108699Y-129672362D01*
X193281329Y-129752861D01*
X193387769Y-129749953D01*
X193451051Y-129726920D01*
X193534458Y-129660729D01*
X193876577Y-128927052D01*
X193629497Y-130020298D02*
X194320017Y-130342293D01*
X195050787Y-130577973D02*
X194532897Y-130336476D01*
X194791842Y-130457224D02*
X195214460Y-129550917D01*
X195067771Y-129640140D01*
X194941207Y-129686206D01*
X194834767Y-129689114D01*
X180095585Y-144623024D02*
X180518203Y-143716716D01*
X180613475Y-144864520D02*
X180466553Y-144165508D01*
X181036093Y-143958212D02*
X180276707Y-144234606D01*
X180745856Y-145031334D02*
X181436376Y-145353329D01*
X181985558Y-144400955D02*
X182503449Y-144642451D01*
X181821885Y-145428011D02*
X182244504Y-144521703D01*
X182382933Y-145689632D02*
X182805551Y-144783324D01*
X182604304Y-145214899D02*
X183122195Y-145456395D01*
X182900823Y-145931128D02*
X183323441Y-145024820D01*
X183076361Y-146118066D02*
X183766882Y-146440061D01*
X184497651Y-146675741D02*
X183979761Y-146434245D01*
X184238706Y-146554993D02*
X184661324Y-145648685D01*
X184514635Y-145737908D01*
X184388071Y-145783974D01*
X184281631Y-145786882D01*
X185308687Y-145950555D02*
X184966567Y-146684233D01*
X184969476Y-146790673D01*
X184992508Y-146853955D01*
X185058699Y-146937362D01*
X185231329Y-147017861D01*
X185337769Y-147014953D01*
X185401051Y-146991920D01*
X185484458Y-146925729D01*
X185826577Y-146192052D01*
X185579497Y-147285298D02*
X186270017Y-147607293D01*
X186865266Y-146781484D02*
X186928548Y-146758451D01*
X187034988Y-146755543D01*
X187250775Y-146856166D01*
X187316965Y-146939573D01*
X187339998Y-147002855D01*
X187342906Y-147109295D01*
X187302657Y-147195610D01*
X187199126Y-147304958D01*
X186439739Y-147581352D01*
X187000787Y-147842973D01*
X166444905Y-130452723D02*
X165538597Y-130030105D01*
X166686401Y-129934833D02*
X165987388Y-130081754D01*
X165780093Y-129512214D02*
X166056487Y-130271601D01*
X166853214Y-129802452D02*
X167175209Y-129111932D01*
X166222836Y-128562749D02*
X166464332Y-128044859D01*
X167249892Y-128726422D02*
X166343584Y-128303804D01*
X167511513Y-128165375D02*
X166605205Y-127742756D01*
X167036780Y-127944003D02*
X167278276Y-127426113D01*
X167753009Y-127647484D02*
X166846701Y-127224866D01*
X167047948Y-126793291D02*
X167781625Y-127135411D01*
X167888065Y-127132502D01*
X167951347Y-127109470D01*
X168034754Y-127043279D01*
X168115253Y-126870649D01*
X168112345Y-126764210D01*
X168089312Y-126700927D01*
X168023122Y-126617520D01*
X167289444Y-126275401D01*
X168396998Y-126266444D02*
X167490691Y-125843826D01*
X168278926Y-125843593D01*
X167772436Y-125239621D01*
X168678744Y-125662239D01*
X168546131Y-124707190D02*
X168649662Y-124597842D01*
X168712945Y-124574809D01*
X168819384Y-124571901D01*
X168948857Y-124632275D01*
X169015047Y-124715682D01*
X169038080Y-124778964D01*
X169040988Y-124885404D01*
X168879991Y-125230664D01*
X167973683Y-124808045D01*
X168114556Y-124505943D01*
X168197963Y-124439753D01*
X168261245Y-124416720D01*
X168367684Y-124413812D01*
X168454000Y-124454061D01*
X168520190Y-124537468D01*
X168543223Y-124600750D01*
X168546131Y-124707190D01*
X168405258Y-125009292D01*
X169288301Y-124580393D02*
X169610296Y-123889873D01*
X168784486Y-123294624D02*
X168761454Y-123231342D01*
X168758545Y-123124902D01*
X168859169Y-122909115D01*
X168942576Y-122842925D01*
X169005858Y-122819892D01*
X169112298Y-122816984D01*
X169198613Y-122857233D01*
X169307961Y-122960764D01*
X169584355Y-123720151D01*
X169845975Y-123159103D01*
X169120790Y-122348067D02*
X169854467Y-122690187D01*
X169960907Y-122687279D01*
X170024189Y-122664246D01*
X170107596Y-122598055D01*
X170188095Y-122425425D01*
X170185187Y-122318986D01*
X170162154Y-122255703D01*
X170095964Y-122172297D01*
X169362286Y-121830177D01*
X170691212Y-121346488D02*
X170449716Y-121864378D01*
X170570464Y-121605433D02*
X169664156Y-121182814D01*
X169753379Y-121329503D01*
X169799445Y-121456068D01*
X169802353Y-121562507D01*
X139877780Y-94091880D02*
X139877780Y-93091880D01*
X140449209Y-94091880D02*
X140020638Y-93520452D01*
X140449209Y-93091880D02*
X139877780Y-93663309D01*
X140639685Y-94187119D02*
X141401590Y-94187119D01*
X141496828Y-93091880D02*
X141830161Y-94091880D01*
X142163495Y-93091880D01*
X143020638Y-94091880D02*
X142449209Y-94091880D01*
X142734923Y-94091880D02*
X142734923Y-93091880D01*
X142639685Y-93234738D01*
X142544447Y-93329976D01*
X142449209Y-93377595D01*
X101634923Y-55991880D02*
X101634923Y-54991880D01*
X102206352Y-55991880D02*
X101777780Y-55420452D01*
X102206352Y-54991880D02*
X101634923Y-55563309D01*
X102396828Y-56087119D02*
X103158733Y-56087119D01*
X103301590Y-54991880D02*
X103539685Y-55991880D01*
X103730161Y-55277595D01*
X103920638Y-55991880D01*
X104158733Y-54991880D01*
X105063495Y-55991880D02*
X104492066Y-55991880D01*
X104777780Y-55991880D02*
X104777780Y-54991880D01*
X104682542Y-55134738D01*
X104587304Y-55229976D01*
X104492066Y-55277595D01*
X100873019Y-113142380D02*
X100873019Y-112142380D01*
X101444447Y-113142380D02*
X101015876Y-112570952D01*
X101444447Y-112142380D02*
X100873019Y-112713809D01*
X101634923Y-113237619D02*
X102396828Y-113237619D01*
X102539685Y-112142380D02*
X102777780Y-113142380D01*
X102968257Y-112428095D01*
X103158733Y-113142380D01*
X103396828Y-112142380D01*
X103777780Y-113142380D02*
X103777780Y-112142380D01*
X104253971Y-113142380D02*
X104253971Y-112142380D01*
X104825400Y-113142380D01*
X104825400Y-112142380D01*
X105825400Y-113142380D02*
X105253971Y-113142380D01*
X105539685Y-113142380D02*
X105539685Y-112142380D01*
X105444447Y-112285238D01*
X105349209Y-112380476D01*
X105253971Y-112428095D01*
X101730161Y-94091880D02*
X101730161Y-93091880D01*
X102301590Y-94091880D02*
X101873019Y-93520452D01*
X102301590Y-93091880D02*
X101730161Y-93663309D01*
X102492066Y-94187119D02*
X103253971Y-94187119D01*
X103396828Y-93091880D02*
X104063495Y-94091880D01*
X104063495Y-93091880D02*
X103396828Y-94091880D01*
X104968257Y-94091880D02*
X104396828Y-94091880D01*
X104682542Y-94091880D02*
X104682542Y-93091880D01*
X104587304Y-93234738D01*
X104492066Y-93329976D01*
X104396828Y-93377595D01*
X43282838Y-40764580D02*
X43282838Y-39764580D01*
X43854266Y-40764580D02*
X43425695Y-40193152D01*
X43854266Y-39764580D02*
X43282838Y-40336009D01*
X44044742Y-40859819D02*
X44806647Y-40859819D01*
X44949504Y-39764580D02*
X45616171Y-40764580D01*
X45616171Y-39764580D02*
X44949504Y-40764580D01*
X45854266Y-39764580D02*
X46425695Y-39764580D01*
X46139980Y-40764580D02*
X46139980Y-39764580D01*
X47330457Y-40764580D02*
X46997123Y-40288390D01*
X46759028Y-40764580D02*
X46759028Y-39764580D01*
X47139980Y-39764580D01*
X47235219Y-39812200D01*
X47282838Y-39859819D01*
X47330457Y-39955057D01*
X47330457Y-40097914D01*
X47282838Y-40193152D01*
X47235219Y-40240771D01*
X47139980Y-40288390D01*
X46759028Y-40288390D01*
X47711409Y-40478866D02*
X48187600Y-40478866D01*
X47616171Y-40764580D02*
X47949504Y-39764580D01*
X48282838Y-40764580D01*
X49139980Y-40764580D02*
X48568552Y-40764580D01*
X48854266Y-40764580D02*
X48854266Y-39764580D01*
X48759028Y-39907438D01*
X48663790Y-40002676D01*
X48568552Y-40050295D01*
X82679661Y-97901880D02*
X82679661Y-96901880D01*
X83251090Y-97901880D02*
X82822519Y-97330452D01*
X83251090Y-96901880D02*
X82679661Y-97473309D01*
X83441566Y-97997119D02*
X84203471Y-97997119D01*
X84346328Y-96901880D02*
X85012995Y-96901880D01*
X84346328Y-97901880D01*
X85012995Y-97901880D01*
X85917757Y-97901880D02*
X85346328Y-97901880D01*
X85632042Y-97901880D02*
X85632042Y-96901880D01*
X85536804Y-97044738D01*
X85441566Y-97139976D01*
X85346328Y-97187595D01*
M02*
