G04 #@! TF.GenerationSoftware,KiCad,Pcbnew,(5.1.5)-3*
G04 #@! TF.CreationDate,2020-03-17T18:41:58+05:30*
G04 #@! TF.ProjectId,ergocape,6572676f-6361-4706-952e-6b696361645f,rev?*
G04 #@! TF.SameCoordinates,Original*
G04 #@! TF.FileFunction,Legend,Top*
G04 #@! TF.FilePolarity,Positive*
%FSLAX46Y46*%
G04 Gerber Fmt 4.6, Leading zero omitted, Abs format (unit mm)*
G04 Created by KiCad (PCBNEW (5.1.5)-3) date 2020-03-17 18:41:58*
%MOMM*%
%LPD*%
G04 APERTURE LIST*
%ADD10C,0.150000*%
G04 APERTURE END LIST*
D10*
X165862095Y-21026380D02*
X165862095Y-20026380D01*
X165862095Y-20502571D02*
X166433523Y-20502571D01*
X166433523Y-21026380D02*
X166433523Y-20026380D01*
X167433523Y-21026380D02*
X166862095Y-21026380D01*
X167147809Y-21026380D02*
X167147809Y-20026380D01*
X167052571Y-20169238D01*
X166957333Y-20264476D01*
X166862095Y-20312095D01*
X111760095Y-124150380D02*
X111760095Y-123150380D01*
X111760095Y-123626571D02*
X112331523Y-123626571D01*
X112331523Y-124150380D02*
X112331523Y-123150380D01*
X112760095Y-123245619D02*
X112807714Y-123198000D01*
X112902952Y-123150380D01*
X113141047Y-123150380D01*
X113236285Y-123198000D01*
X113283904Y-123245619D01*
X113331523Y-123340857D01*
X113331523Y-123436095D01*
X113283904Y-123578952D01*
X112712476Y-124150380D01*
X113331523Y-124150380D01*
X40132095Y-115006380D02*
X40132095Y-114006380D01*
X40132095Y-114482571D02*
X40703523Y-114482571D01*
X40703523Y-115006380D02*
X40703523Y-114006380D01*
X41084476Y-114006380D02*
X41703523Y-114006380D01*
X41370190Y-114387333D01*
X41513047Y-114387333D01*
X41608285Y-114434952D01*
X41655904Y-114482571D01*
X41703523Y-114577809D01*
X41703523Y-114815904D01*
X41655904Y-114911142D01*
X41608285Y-114958761D01*
X41513047Y-115006380D01*
X41227333Y-115006380D01*
X41132095Y-114958761D01*
X41084476Y-114911142D01*
X112458095Y-60904380D02*
X112458095Y-59904380D01*
X112458095Y-60380571D02*
X113029523Y-60380571D01*
X113029523Y-60904380D02*
X113029523Y-59904380D01*
X113981904Y-59904380D02*
X113505714Y-59904380D01*
X113458095Y-60380571D01*
X113505714Y-60332952D01*
X113600952Y-60285333D01*
X113839047Y-60285333D01*
X113934285Y-60332952D01*
X113981904Y-60380571D01*
X114029523Y-60475809D01*
X114029523Y-60713904D01*
X113981904Y-60809142D01*
X113934285Y-60856761D01*
X113839047Y-60904380D01*
X113600952Y-60904380D01*
X113505714Y-60856761D01*
X113458095Y-60809142D01*
X178816095Y-133294380D02*
X178816095Y-132294380D01*
X178816095Y-132770571D02*
X179387523Y-132770571D01*
X179387523Y-133294380D02*
X179387523Y-132294380D01*
X180006571Y-132722952D02*
X179911333Y-132675333D01*
X179863714Y-132627714D01*
X179816095Y-132532476D01*
X179816095Y-132484857D01*
X179863714Y-132389619D01*
X179911333Y-132342000D01*
X180006571Y-132294380D01*
X180197047Y-132294380D01*
X180292285Y-132342000D01*
X180339904Y-132389619D01*
X180387523Y-132484857D01*
X180387523Y-132532476D01*
X180339904Y-132627714D01*
X180292285Y-132675333D01*
X180197047Y-132722952D01*
X180006571Y-132722952D01*
X179911333Y-132770571D01*
X179863714Y-132818190D01*
X179816095Y-132913428D01*
X179816095Y-133103904D01*
X179863714Y-133199142D01*
X179911333Y-133246761D01*
X180006571Y-133294380D01*
X180197047Y-133294380D01*
X180292285Y-133246761D01*
X180339904Y-133199142D01*
X180387523Y-133103904D01*
X180387523Y-132913428D01*
X180339904Y-132818190D01*
X180292285Y-132770571D01*
X180197047Y-132722952D01*
X111760095Y-21026380D02*
X111760095Y-20026380D01*
X111760095Y-20502571D02*
X112331523Y-20502571D01*
X112331523Y-21026380D02*
X112331523Y-20026380D01*
X112855333Y-21026380D02*
X113045809Y-21026380D01*
X113141047Y-20978761D01*
X113188666Y-20931142D01*
X113283904Y-20788285D01*
X113331523Y-20597809D01*
X113331523Y-20216857D01*
X113283904Y-20121619D01*
X113236285Y-20074000D01*
X113141047Y-20026380D01*
X112950571Y-20026380D01*
X112855333Y-20074000D01*
X112807714Y-20121619D01*
X112760095Y-20216857D01*
X112760095Y-20454952D01*
X112807714Y-20550190D01*
X112855333Y-20597809D01*
X112950571Y-20645428D01*
X113141047Y-20645428D01*
X113236285Y-20597809D01*
X113283904Y-20550190D01*
X113331523Y-20454952D01*
X38893904Y-60904380D02*
X38893904Y-59904380D01*
X38893904Y-60380571D02*
X39465333Y-60380571D01*
X39465333Y-60904380D02*
X39465333Y-59904380D01*
X40465333Y-60904380D02*
X39893904Y-60904380D01*
X40179619Y-60904380D02*
X40179619Y-59904380D01*
X40084380Y-60047238D01*
X39989142Y-60142476D01*
X39893904Y-60190095D01*
X41084380Y-59904380D02*
X41179619Y-59904380D01*
X41274857Y-59952000D01*
X41322476Y-59999619D01*
X41370095Y-60094857D01*
X41417714Y-60285333D01*
X41417714Y-60523428D01*
X41370095Y-60713904D01*
X41322476Y-60809142D01*
X41274857Y-60856761D01*
X41179619Y-60904380D01*
X41084380Y-60904380D01*
X40989142Y-60856761D01*
X40941523Y-60809142D01*
X40893904Y-60713904D01*
X40846285Y-60523428D01*
X40846285Y-60285333D01*
X40893904Y-60094857D01*
X40941523Y-59999619D01*
X40989142Y-59952000D01*
X41084380Y-59904380D01*
X38893904Y-21026380D02*
X38893904Y-20026380D01*
X38893904Y-20502571D02*
X39465333Y-20502571D01*
X39465333Y-21026380D02*
X39465333Y-20026380D01*
X40465333Y-21026380D02*
X39893904Y-21026380D01*
X40179619Y-21026380D02*
X40179619Y-20026380D01*
X40084380Y-20169238D01*
X39989142Y-20264476D01*
X39893904Y-20312095D01*
X41417714Y-21026380D02*
X40846285Y-21026380D01*
X41132000Y-21026380D02*
X41132000Y-20026380D01*
X41036761Y-20169238D01*
X40941523Y-20264476D01*
X40846285Y-20312095D01*
X166147904Y-108402380D02*
X166147904Y-107402380D01*
X166147904Y-107878571D02*
X166719333Y-107878571D01*
X166719333Y-108402380D02*
X166719333Y-107402380D01*
X167719333Y-108402380D02*
X167147904Y-108402380D01*
X167433619Y-108402380D02*
X167433619Y-107402380D01*
X167338380Y-107545238D01*
X167243142Y-107640476D01*
X167147904Y-107688095D01*
X168100285Y-107497619D02*
X168147904Y-107450000D01*
X168243142Y-107402380D01*
X168481238Y-107402380D01*
X168576476Y-107450000D01*
X168624095Y-107497619D01*
X168671714Y-107592857D01*
X168671714Y-107688095D01*
X168624095Y-107830952D01*
X168052666Y-108402380D01*
X168671714Y-108402380D01*
M02*
