G04 #@! TF.GenerationSoftware,KiCad,Pcbnew,(5.1.5)-3*
G04 #@! TF.CreationDate,2020-03-17T18:41:58+05:30*
G04 #@! TF.ProjectId,ergocape,6572676f-6361-4706-952e-6b696361645f,rev?*
G04 #@! TF.SameCoordinates,Original*
G04 #@! TF.FileFunction,Profile,NP*
%FSLAX46Y46*%
G04 Gerber Fmt 4.6, Leading zero omitted, Abs format (unit mm)*
G04 Created by KiCad (PCBNEW (5.1.5)-3) date 2020-03-17 18:41:58*
%MOMM*%
%LPD*%
G04 APERTURE LIST*
%ADD10C,0.150000*%
%ADD11C,0.200000*%
G04 APERTURE END LIST*
D10*
X149966590Y-143948457D02*
X137150000Y-127000000D01*
X178795667Y-107992564D02*
X172948600Y-105181400D01*
X172951400Y-103212900D02*
X172948600Y-105181400D01*
X207860777Y-121545847D02*
X178795667Y-107992564D01*
X207860777Y-121545847D02*
G75*
G02X208585634Y-123537376I-633336J-1358193D01*
G01*
X188939819Y-162121972D02*
X149966590Y-143948457D01*
X190931348Y-161397115D02*
G75*
G02X188939819Y-162121972I-1358193J633336D01*
G01*
X208585634Y-123537376D02*
X190931348Y-161397115D01*
X172951400Y-18821400D02*
X172951400Y-103212900D01*
X171402000Y-17272000D02*
G75*
G02X172951400Y-18821400I0J-1549400D01*
G01*
X31750461Y-19354160D02*
G75*
G02X33756601Y-17272001I2031539J50160D01*
G01*
X33756601Y-17272001D02*
X39370000Y-17272000D01*
D11*
X31750461Y-19354160D02*
X31750000Y-87376000D01*
X22352000Y-87376000D02*
X31750000Y-87376000D01*
X22352000Y-87503000D02*
X22352000Y-87376000D01*
X22352000Y-98044000D02*
X22352000Y-87503000D01*
D10*
X157988000Y-17272000D02*
X171402000Y-17272000D01*
X147574000Y-17272000D02*
X157988000Y-17272000D01*
X136906000Y-17272000D02*
X147574000Y-17272000D01*
X127000000Y-17272000D02*
X136906000Y-17272000D01*
X127000000Y-17272000D02*
X39370000Y-17272000D01*
X22352000Y-108966000D02*
X22860000Y-109220000D01*
X22352000Y-106426000D02*
X22352000Y-108966000D01*
X22352000Y-98044000D02*
X22352000Y-106426000D01*
X55118000Y-127000000D02*
X55880000Y-127000000D01*
X53848000Y-126238000D02*
X55118000Y-127000000D01*
X50800000Y-124460000D02*
X53848000Y-126238000D01*
X55880000Y-127000000D02*
X137150000Y-127000000D01*
X22860000Y-109220000D02*
X50800000Y-124460000D01*
M02*
