G04 #@! TF.GenerationSoftware,KiCad,Pcbnew,(5.1.5)-3*
G04 #@! TF.CreationDate,2020-03-17T18:41:58+05:30*
G04 #@! TF.ProjectId,ergocape,6572676f-6361-4706-952e-6b696361645f,rev?*
G04 #@! TF.SameCoordinates,Original*
G04 #@! TF.FileFunction,Copper,L1,Top*
G04 #@! TF.FilePolarity,Positive*
%FSLAX46Y46*%
G04 Gerber Fmt 4.6, Leading zero omitted, Abs format (unit mm)*
G04 Created by KiCad (PCBNEW (5.1.5)-3) date 2020-03-17 18:41:58*
%MOMM*%
%LPD*%
G04 APERTURE LIST*
%ADD10C,0.254000*%
G04 APERTURE END LIST*
D10*
G36*
X39347601Y-17728000D02*
G01*
X171379695Y-17728000D01*
X171613952Y-17750969D01*
X171817830Y-17812523D01*
X172005868Y-17912505D01*
X172170906Y-18047107D01*
X172306659Y-18211205D01*
X172407950Y-18398540D01*
X172470925Y-18601980D01*
X172495400Y-18834842D01*
X172495401Y-103212348D01*
X172492650Y-105145984D01*
X172491099Y-105156003D01*
X172492587Y-105190804D01*
X172492569Y-105203150D01*
X172493543Y-105213190D01*
X172494935Y-105245745D01*
X172497873Y-105257801D01*
X172499072Y-105270152D01*
X172508484Y-105301337D01*
X172516204Y-105333014D01*
X172521442Y-105344274D01*
X172525025Y-105356145D01*
X172540341Y-105384898D01*
X172554092Y-105414456D01*
X172561421Y-105424471D01*
X172567255Y-105435423D01*
X172587893Y-105460644D01*
X172607139Y-105486943D01*
X172616279Y-105495334D01*
X172624139Y-105504939D01*
X172649305Y-105525652D01*
X172673309Y-105547688D01*
X172683912Y-105554135D01*
X172693493Y-105562021D01*
X172722209Y-105577423D01*
X172730827Y-105582663D01*
X172741951Y-105588011D01*
X172772651Y-105604477D01*
X172782350Y-105607434D01*
X178580328Y-108394998D01*
X178582653Y-108396374D01*
X178600517Y-108404704D01*
X178618267Y-108413238D01*
X178620803Y-108414164D01*
X207647850Y-121949698D01*
X207841914Y-122064466D01*
X207993286Y-122199809D01*
X208115487Y-122361974D01*
X208203863Y-122544790D01*
X208255046Y-122741283D01*
X208267088Y-122943977D01*
X208239530Y-123145155D01*
X208166535Y-123357146D01*
X190527501Y-161184181D01*
X190412728Y-161378252D01*
X190277386Y-161529624D01*
X190115221Y-161651825D01*
X189932405Y-161740201D01*
X189735911Y-161791384D01*
X189533218Y-161803426D01*
X189332040Y-161775868D01*
X189120049Y-161702873D01*
X150261975Y-143583058D01*
X142059870Y-132736723D01*
X177822908Y-132736723D01*
X177822908Y-133077701D01*
X177889429Y-133412126D01*
X178019915Y-133727148D01*
X178209352Y-134010660D01*
X178450460Y-134251768D01*
X178733972Y-134441205D01*
X179048994Y-134571691D01*
X179383419Y-134638212D01*
X179724397Y-134638212D01*
X180058822Y-134571691D01*
X180373844Y-134441205D01*
X180657356Y-134251768D01*
X180898464Y-134010660D01*
X181087901Y-133727148D01*
X181218387Y-133412126D01*
X181284908Y-133077701D01*
X181284908Y-132736723D01*
X181218387Y-132402298D01*
X181087901Y-132087276D01*
X180898464Y-131803764D01*
X180657356Y-131562656D01*
X180373844Y-131373219D01*
X180058822Y-131242733D01*
X179724397Y-131176212D01*
X179383419Y-131176212D01*
X179048994Y-131242733D01*
X178733972Y-131373219D01*
X178450460Y-131562656D01*
X178209352Y-131803764D01*
X178019915Y-132087276D01*
X177889429Y-132402298D01*
X177822908Y-132736723D01*
X142059870Y-132736723D01*
X137535292Y-126753493D01*
X137530984Y-126745434D01*
X137508236Y-126717716D01*
X137500202Y-126707091D01*
X137494050Y-126700429D01*
X137474001Y-126675999D01*
X137463629Y-126667487D01*
X137454532Y-126657636D01*
X137428990Y-126639060D01*
X137404566Y-126619016D01*
X137392732Y-126612691D01*
X137381888Y-126604804D01*
X137353218Y-126591570D01*
X137325348Y-126576673D01*
X137312508Y-126572778D01*
X137300333Y-126567158D01*
X137269630Y-126559771D01*
X137239392Y-126550598D01*
X137226040Y-126549283D01*
X137213002Y-126546146D01*
X137181443Y-126544891D01*
X137172399Y-126544000D01*
X137159050Y-126544000D01*
X137123250Y-126542576D01*
X137114231Y-126544000D01*
X55244305Y-126544000D01*
X54099406Y-125857062D01*
X54097113Y-125855403D01*
X54080134Y-125845499D01*
X54063403Y-125835460D01*
X54060864Y-125834257D01*
X51043452Y-124074101D01*
X51038020Y-124070405D01*
X51024087Y-124062805D01*
X51010417Y-124054831D01*
X51004461Y-124052100D01*
X49577048Y-123273511D01*
X110855000Y-123273511D01*
X110855000Y-123614489D01*
X110921521Y-123948914D01*
X111052007Y-124263936D01*
X111241444Y-124547448D01*
X111482552Y-124788556D01*
X111766064Y-124977993D01*
X112081086Y-125108479D01*
X112415511Y-125175000D01*
X112756489Y-125175000D01*
X113090914Y-125108479D01*
X113405936Y-124977993D01*
X113689448Y-124788556D01*
X113930556Y-124547448D01*
X114119993Y-124263936D01*
X114250479Y-123948914D01*
X114317000Y-123614489D01*
X114317000Y-123273511D01*
X114250479Y-122939086D01*
X114119993Y-122624064D01*
X113930556Y-122340552D01*
X113689448Y-122099444D01*
X113405936Y-121910007D01*
X113090914Y-121779521D01*
X112756489Y-121713000D01*
X112415511Y-121713000D01*
X112081086Y-121779521D01*
X111766064Y-121910007D01*
X111482552Y-122099444D01*
X111241444Y-122340552D01*
X111052007Y-122624064D01*
X110921521Y-122939086D01*
X110855000Y-123273511D01*
X49577048Y-123273511D01*
X33744381Y-114637511D01*
X39163000Y-114637511D01*
X39163000Y-114978489D01*
X39229521Y-115312914D01*
X39360007Y-115627936D01*
X39549444Y-115911448D01*
X39790552Y-116152556D01*
X40074064Y-116341993D01*
X40389086Y-116472479D01*
X40723511Y-116539000D01*
X41064489Y-116539000D01*
X41398914Y-116472479D01*
X41713936Y-116341993D01*
X41997448Y-116152556D01*
X42238556Y-115911448D01*
X42427993Y-115627936D01*
X42558479Y-115312914D01*
X42625000Y-114978489D01*
X42625000Y-114637511D01*
X42558479Y-114303086D01*
X42427993Y-113988064D01*
X42238556Y-113704552D01*
X41997448Y-113463444D01*
X41713936Y-113274007D01*
X41398914Y-113143521D01*
X41064489Y-113077000D01*
X40723511Y-113077000D01*
X40389086Y-113143521D01*
X40074064Y-113274007D01*
X39790552Y-113463444D01*
X39549444Y-113704552D01*
X39360007Y-113988064D01*
X39229521Y-114303086D01*
X39163000Y-114637511D01*
X33744381Y-114637511D01*
X23090857Y-108826498D01*
X23083963Y-108822159D01*
X23071221Y-108815788D01*
X23058692Y-108808954D01*
X23051181Y-108805768D01*
X22808000Y-108684178D01*
X22808000Y-107652511D01*
X165655000Y-107652511D01*
X165655000Y-107993489D01*
X165721521Y-108327914D01*
X165852007Y-108642936D01*
X166041444Y-108926448D01*
X166282552Y-109167556D01*
X166566064Y-109356993D01*
X166881086Y-109487479D01*
X167215511Y-109554000D01*
X167556489Y-109554000D01*
X167890914Y-109487479D01*
X168205936Y-109356993D01*
X168489448Y-109167556D01*
X168730556Y-108926448D01*
X168919993Y-108642936D01*
X169050479Y-108327914D01*
X169117000Y-107993489D01*
X169117000Y-107652511D01*
X169050479Y-107318086D01*
X168919993Y-107003064D01*
X168730556Y-106719552D01*
X168489448Y-106478444D01*
X168205936Y-106289007D01*
X167890914Y-106158521D01*
X167556489Y-106092000D01*
X167215511Y-106092000D01*
X166881086Y-106158521D01*
X166566064Y-106289007D01*
X166282552Y-106478444D01*
X166041444Y-106719552D01*
X165852007Y-107003064D01*
X165721521Y-107318086D01*
X165655000Y-107652511D01*
X22808000Y-107652511D01*
X22808000Y-98197762D01*
X22826040Y-98138292D01*
X22833000Y-98067626D01*
X22833000Y-87857000D01*
X31726381Y-87857000D01*
X31749997Y-87859326D01*
X31773615Y-87857000D01*
X31773626Y-87857000D01*
X31844292Y-87850040D01*
X31934961Y-87822536D01*
X32018522Y-87777872D01*
X32091764Y-87717764D01*
X32151872Y-87644522D01*
X32196536Y-87560961D01*
X32224040Y-87470292D01*
X32233327Y-87376000D01*
X32230999Y-87352367D01*
X32231182Y-60281511D01*
X38401000Y-60281511D01*
X38401000Y-60622489D01*
X38467521Y-60956914D01*
X38598007Y-61271936D01*
X38787444Y-61555448D01*
X39028552Y-61796556D01*
X39312064Y-61985993D01*
X39627086Y-62116479D01*
X39961511Y-62183000D01*
X40302489Y-62183000D01*
X40636914Y-62116479D01*
X40951936Y-61985993D01*
X41235448Y-61796556D01*
X41476556Y-61555448D01*
X41665993Y-61271936D01*
X41796479Y-60956914D01*
X41863000Y-60622489D01*
X41863000Y-60472011D01*
X111489000Y-60472011D01*
X111489000Y-60812989D01*
X111555521Y-61147414D01*
X111686007Y-61462436D01*
X111875444Y-61745948D01*
X112116552Y-61987056D01*
X112400064Y-62176493D01*
X112715086Y-62306979D01*
X113049511Y-62373500D01*
X113390489Y-62373500D01*
X113724914Y-62306979D01*
X114039936Y-62176493D01*
X114323448Y-61987056D01*
X114564556Y-61745948D01*
X114753993Y-61462436D01*
X114884479Y-61147414D01*
X114951000Y-60812989D01*
X114951000Y-60472011D01*
X114884479Y-60137586D01*
X114753993Y-59822564D01*
X114564556Y-59539052D01*
X114323448Y-59297944D01*
X114039936Y-59108507D01*
X113724914Y-58978021D01*
X113390489Y-58911500D01*
X113049511Y-58911500D01*
X112715086Y-58978021D01*
X112400064Y-59108507D01*
X112116552Y-59297944D01*
X111875444Y-59539052D01*
X111686007Y-59822564D01*
X111555521Y-60137586D01*
X111489000Y-60472011D01*
X41863000Y-60472011D01*
X41863000Y-60281511D01*
X41796479Y-59947086D01*
X41665993Y-59632064D01*
X41476556Y-59348552D01*
X41235448Y-59107444D01*
X40951936Y-58918007D01*
X40636914Y-58787521D01*
X40302489Y-58721000D01*
X39961511Y-58721000D01*
X39627086Y-58787521D01*
X39312064Y-58918007D01*
X39028552Y-59107444D01*
X38787444Y-59348552D01*
X38598007Y-59632064D01*
X38467521Y-59947086D01*
X38401000Y-60281511D01*
X32231182Y-60281511D01*
X32231453Y-20403511D01*
X38401000Y-20403511D01*
X38401000Y-20744489D01*
X38467521Y-21078914D01*
X38598007Y-21393936D01*
X38787444Y-21677448D01*
X39028552Y-21918556D01*
X39312064Y-22107993D01*
X39627086Y-22238479D01*
X39961511Y-22305000D01*
X40302489Y-22305000D01*
X40636914Y-22238479D01*
X40951936Y-22107993D01*
X41235448Y-21918556D01*
X41476556Y-21677448D01*
X41665993Y-21393936D01*
X41796479Y-21078914D01*
X41863000Y-20744489D01*
X41863000Y-20403511D01*
X110791000Y-20403511D01*
X110791000Y-20744489D01*
X110857521Y-21078914D01*
X110988007Y-21393936D01*
X111177444Y-21677448D01*
X111418552Y-21918556D01*
X111702064Y-22107993D01*
X112017086Y-22238479D01*
X112351511Y-22305000D01*
X112692489Y-22305000D01*
X113026914Y-22238479D01*
X113341936Y-22107993D01*
X113625448Y-21918556D01*
X113866556Y-21677448D01*
X114055993Y-21393936D01*
X114186479Y-21078914D01*
X114253000Y-20744489D01*
X114253000Y-20403511D01*
X164893000Y-20403511D01*
X164893000Y-20744489D01*
X164959521Y-21078914D01*
X165090007Y-21393936D01*
X165279444Y-21677448D01*
X165520552Y-21918556D01*
X165804064Y-22107993D01*
X166119086Y-22238479D01*
X166453511Y-22305000D01*
X166794489Y-22305000D01*
X167128914Y-22238479D01*
X167443936Y-22107993D01*
X167727448Y-21918556D01*
X167968556Y-21677448D01*
X168157993Y-21393936D01*
X168288479Y-21078914D01*
X168355000Y-20744489D01*
X168355000Y-20403511D01*
X168288479Y-20069086D01*
X168157993Y-19754064D01*
X167968556Y-19470552D01*
X167727448Y-19229444D01*
X167443936Y-19040007D01*
X167128914Y-18909521D01*
X166794489Y-18843000D01*
X166453511Y-18843000D01*
X166119086Y-18909521D01*
X165804064Y-19040007D01*
X165520552Y-19229444D01*
X165279444Y-19470552D01*
X165090007Y-19754064D01*
X164959521Y-20069086D01*
X164893000Y-20403511D01*
X114253000Y-20403511D01*
X114186479Y-20069086D01*
X114055993Y-19754064D01*
X113866556Y-19470552D01*
X113625448Y-19229444D01*
X113341936Y-19040007D01*
X113026914Y-18909521D01*
X112692489Y-18843000D01*
X112351511Y-18843000D01*
X112017086Y-18909521D01*
X111702064Y-19040007D01*
X111418552Y-19229444D01*
X111177444Y-19470552D01*
X110988007Y-19754064D01*
X110857521Y-20069086D01*
X110791000Y-20403511D01*
X41863000Y-20403511D01*
X41796479Y-20069086D01*
X41665993Y-19754064D01*
X41476556Y-19470552D01*
X41235448Y-19229444D01*
X40951936Y-19040007D01*
X40636914Y-18909521D01*
X40302489Y-18843000D01*
X39961511Y-18843000D01*
X39627086Y-18909521D01*
X39312064Y-19040007D01*
X39028552Y-19229444D01*
X38787444Y-19470552D01*
X38598007Y-19754064D01*
X38467521Y-20069086D01*
X38401000Y-20403511D01*
X32231453Y-20403511D01*
X32231461Y-19330538D01*
X32224501Y-19259872D01*
X32216509Y-19233526D01*
X32230930Y-19036483D01*
X32312430Y-18740306D01*
X32449904Y-18465604D01*
X32638123Y-18222829D01*
X32869907Y-18021240D01*
X33136432Y-17868511D01*
X33427551Y-17770458D01*
X33752210Y-17728209D01*
X33761642Y-17728001D01*
X39347591Y-17727999D01*
X39347601Y-17728000D01*
G37*
X39347601Y-17728000D02*
X171379695Y-17728000D01*
X171613952Y-17750969D01*
X171817830Y-17812523D01*
X172005868Y-17912505D01*
X172170906Y-18047107D01*
X172306659Y-18211205D01*
X172407950Y-18398540D01*
X172470925Y-18601980D01*
X172495400Y-18834842D01*
X172495401Y-103212348D01*
X172492650Y-105145984D01*
X172491099Y-105156003D01*
X172492587Y-105190804D01*
X172492569Y-105203150D01*
X172493543Y-105213190D01*
X172494935Y-105245745D01*
X172497873Y-105257801D01*
X172499072Y-105270152D01*
X172508484Y-105301337D01*
X172516204Y-105333014D01*
X172521442Y-105344274D01*
X172525025Y-105356145D01*
X172540341Y-105384898D01*
X172554092Y-105414456D01*
X172561421Y-105424471D01*
X172567255Y-105435423D01*
X172587893Y-105460644D01*
X172607139Y-105486943D01*
X172616279Y-105495334D01*
X172624139Y-105504939D01*
X172649305Y-105525652D01*
X172673309Y-105547688D01*
X172683912Y-105554135D01*
X172693493Y-105562021D01*
X172722209Y-105577423D01*
X172730827Y-105582663D01*
X172741951Y-105588011D01*
X172772651Y-105604477D01*
X172782350Y-105607434D01*
X178580328Y-108394998D01*
X178582653Y-108396374D01*
X178600517Y-108404704D01*
X178618267Y-108413238D01*
X178620803Y-108414164D01*
X207647850Y-121949698D01*
X207841914Y-122064466D01*
X207993286Y-122199809D01*
X208115487Y-122361974D01*
X208203863Y-122544790D01*
X208255046Y-122741283D01*
X208267088Y-122943977D01*
X208239530Y-123145155D01*
X208166535Y-123357146D01*
X190527501Y-161184181D01*
X190412728Y-161378252D01*
X190277386Y-161529624D01*
X190115221Y-161651825D01*
X189932405Y-161740201D01*
X189735911Y-161791384D01*
X189533218Y-161803426D01*
X189332040Y-161775868D01*
X189120049Y-161702873D01*
X150261975Y-143583058D01*
X142059870Y-132736723D01*
X177822908Y-132736723D01*
X177822908Y-133077701D01*
X177889429Y-133412126D01*
X178019915Y-133727148D01*
X178209352Y-134010660D01*
X178450460Y-134251768D01*
X178733972Y-134441205D01*
X179048994Y-134571691D01*
X179383419Y-134638212D01*
X179724397Y-134638212D01*
X180058822Y-134571691D01*
X180373844Y-134441205D01*
X180657356Y-134251768D01*
X180898464Y-134010660D01*
X181087901Y-133727148D01*
X181218387Y-133412126D01*
X181284908Y-133077701D01*
X181284908Y-132736723D01*
X181218387Y-132402298D01*
X181087901Y-132087276D01*
X180898464Y-131803764D01*
X180657356Y-131562656D01*
X180373844Y-131373219D01*
X180058822Y-131242733D01*
X179724397Y-131176212D01*
X179383419Y-131176212D01*
X179048994Y-131242733D01*
X178733972Y-131373219D01*
X178450460Y-131562656D01*
X178209352Y-131803764D01*
X178019915Y-132087276D01*
X177889429Y-132402298D01*
X177822908Y-132736723D01*
X142059870Y-132736723D01*
X137535292Y-126753493D01*
X137530984Y-126745434D01*
X137508236Y-126717716D01*
X137500202Y-126707091D01*
X137494050Y-126700429D01*
X137474001Y-126675999D01*
X137463629Y-126667487D01*
X137454532Y-126657636D01*
X137428990Y-126639060D01*
X137404566Y-126619016D01*
X137392732Y-126612691D01*
X137381888Y-126604804D01*
X137353218Y-126591570D01*
X137325348Y-126576673D01*
X137312508Y-126572778D01*
X137300333Y-126567158D01*
X137269630Y-126559771D01*
X137239392Y-126550598D01*
X137226040Y-126549283D01*
X137213002Y-126546146D01*
X137181443Y-126544891D01*
X137172399Y-126544000D01*
X137159050Y-126544000D01*
X137123250Y-126542576D01*
X137114231Y-126544000D01*
X55244305Y-126544000D01*
X54099406Y-125857062D01*
X54097113Y-125855403D01*
X54080134Y-125845499D01*
X54063403Y-125835460D01*
X54060864Y-125834257D01*
X51043452Y-124074101D01*
X51038020Y-124070405D01*
X51024087Y-124062805D01*
X51010417Y-124054831D01*
X51004461Y-124052100D01*
X49577048Y-123273511D01*
X110855000Y-123273511D01*
X110855000Y-123614489D01*
X110921521Y-123948914D01*
X111052007Y-124263936D01*
X111241444Y-124547448D01*
X111482552Y-124788556D01*
X111766064Y-124977993D01*
X112081086Y-125108479D01*
X112415511Y-125175000D01*
X112756489Y-125175000D01*
X113090914Y-125108479D01*
X113405936Y-124977993D01*
X113689448Y-124788556D01*
X113930556Y-124547448D01*
X114119993Y-124263936D01*
X114250479Y-123948914D01*
X114317000Y-123614489D01*
X114317000Y-123273511D01*
X114250479Y-122939086D01*
X114119993Y-122624064D01*
X113930556Y-122340552D01*
X113689448Y-122099444D01*
X113405936Y-121910007D01*
X113090914Y-121779521D01*
X112756489Y-121713000D01*
X112415511Y-121713000D01*
X112081086Y-121779521D01*
X111766064Y-121910007D01*
X111482552Y-122099444D01*
X111241444Y-122340552D01*
X111052007Y-122624064D01*
X110921521Y-122939086D01*
X110855000Y-123273511D01*
X49577048Y-123273511D01*
X33744381Y-114637511D01*
X39163000Y-114637511D01*
X39163000Y-114978489D01*
X39229521Y-115312914D01*
X39360007Y-115627936D01*
X39549444Y-115911448D01*
X39790552Y-116152556D01*
X40074064Y-116341993D01*
X40389086Y-116472479D01*
X40723511Y-116539000D01*
X41064489Y-116539000D01*
X41398914Y-116472479D01*
X41713936Y-116341993D01*
X41997448Y-116152556D01*
X42238556Y-115911448D01*
X42427993Y-115627936D01*
X42558479Y-115312914D01*
X42625000Y-114978489D01*
X42625000Y-114637511D01*
X42558479Y-114303086D01*
X42427993Y-113988064D01*
X42238556Y-113704552D01*
X41997448Y-113463444D01*
X41713936Y-113274007D01*
X41398914Y-113143521D01*
X41064489Y-113077000D01*
X40723511Y-113077000D01*
X40389086Y-113143521D01*
X40074064Y-113274007D01*
X39790552Y-113463444D01*
X39549444Y-113704552D01*
X39360007Y-113988064D01*
X39229521Y-114303086D01*
X39163000Y-114637511D01*
X33744381Y-114637511D01*
X23090857Y-108826498D01*
X23083963Y-108822159D01*
X23071221Y-108815788D01*
X23058692Y-108808954D01*
X23051181Y-108805768D01*
X22808000Y-108684178D01*
X22808000Y-107652511D01*
X165655000Y-107652511D01*
X165655000Y-107993489D01*
X165721521Y-108327914D01*
X165852007Y-108642936D01*
X166041444Y-108926448D01*
X166282552Y-109167556D01*
X166566064Y-109356993D01*
X166881086Y-109487479D01*
X167215511Y-109554000D01*
X167556489Y-109554000D01*
X167890914Y-109487479D01*
X168205936Y-109356993D01*
X168489448Y-109167556D01*
X168730556Y-108926448D01*
X168919993Y-108642936D01*
X169050479Y-108327914D01*
X169117000Y-107993489D01*
X169117000Y-107652511D01*
X169050479Y-107318086D01*
X168919993Y-107003064D01*
X168730556Y-106719552D01*
X168489448Y-106478444D01*
X168205936Y-106289007D01*
X167890914Y-106158521D01*
X167556489Y-106092000D01*
X167215511Y-106092000D01*
X166881086Y-106158521D01*
X166566064Y-106289007D01*
X166282552Y-106478444D01*
X166041444Y-106719552D01*
X165852007Y-107003064D01*
X165721521Y-107318086D01*
X165655000Y-107652511D01*
X22808000Y-107652511D01*
X22808000Y-98197762D01*
X22826040Y-98138292D01*
X22833000Y-98067626D01*
X22833000Y-87857000D01*
X31726381Y-87857000D01*
X31749997Y-87859326D01*
X31773615Y-87857000D01*
X31773626Y-87857000D01*
X31844292Y-87850040D01*
X31934961Y-87822536D01*
X32018522Y-87777872D01*
X32091764Y-87717764D01*
X32151872Y-87644522D01*
X32196536Y-87560961D01*
X32224040Y-87470292D01*
X32233327Y-87376000D01*
X32230999Y-87352367D01*
X32231182Y-60281511D01*
X38401000Y-60281511D01*
X38401000Y-60622489D01*
X38467521Y-60956914D01*
X38598007Y-61271936D01*
X38787444Y-61555448D01*
X39028552Y-61796556D01*
X39312064Y-61985993D01*
X39627086Y-62116479D01*
X39961511Y-62183000D01*
X40302489Y-62183000D01*
X40636914Y-62116479D01*
X40951936Y-61985993D01*
X41235448Y-61796556D01*
X41476556Y-61555448D01*
X41665993Y-61271936D01*
X41796479Y-60956914D01*
X41863000Y-60622489D01*
X41863000Y-60472011D01*
X111489000Y-60472011D01*
X111489000Y-60812989D01*
X111555521Y-61147414D01*
X111686007Y-61462436D01*
X111875444Y-61745948D01*
X112116552Y-61987056D01*
X112400064Y-62176493D01*
X112715086Y-62306979D01*
X113049511Y-62373500D01*
X113390489Y-62373500D01*
X113724914Y-62306979D01*
X114039936Y-62176493D01*
X114323448Y-61987056D01*
X114564556Y-61745948D01*
X114753993Y-61462436D01*
X114884479Y-61147414D01*
X114951000Y-60812989D01*
X114951000Y-60472011D01*
X114884479Y-60137586D01*
X114753993Y-59822564D01*
X114564556Y-59539052D01*
X114323448Y-59297944D01*
X114039936Y-59108507D01*
X113724914Y-58978021D01*
X113390489Y-58911500D01*
X113049511Y-58911500D01*
X112715086Y-58978021D01*
X112400064Y-59108507D01*
X112116552Y-59297944D01*
X111875444Y-59539052D01*
X111686007Y-59822564D01*
X111555521Y-60137586D01*
X111489000Y-60472011D01*
X41863000Y-60472011D01*
X41863000Y-60281511D01*
X41796479Y-59947086D01*
X41665993Y-59632064D01*
X41476556Y-59348552D01*
X41235448Y-59107444D01*
X40951936Y-58918007D01*
X40636914Y-58787521D01*
X40302489Y-58721000D01*
X39961511Y-58721000D01*
X39627086Y-58787521D01*
X39312064Y-58918007D01*
X39028552Y-59107444D01*
X38787444Y-59348552D01*
X38598007Y-59632064D01*
X38467521Y-59947086D01*
X38401000Y-60281511D01*
X32231182Y-60281511D01*
X32231453Y-20403511D01*
X38401000Y-20403511D01*
X38401000Y-20744489D01*
X38467521Y-21078914D01*
X38598007Y-21393936D01*
X38787444Y-21677448D01*
X39028552Y-21918556D01*
X39312064Y-22107993D01*
X39627086Y-22238479D01*
X39961511Y-22305000D01*
X40302489Y-22305000D01*
X40636914Y-22238479D01*
X40951936Y-22107993D01*
X41235448Y-21918556D01*
X41476556Y-21677448D01*
X41665993Y-21393936D01*
X41796479Y-21078914D01*
X41863000Y-20744489D01*
X41863000Y-20403511D01*
X110791000Y-20403511D01*
X110791000Y-20744489D01*
X110857521Y-21078914D01*
X110988007Y-21393936D01*
X111177444Y-21677448D01*
X111418552Y-21918556D01*
X111702064Y-22107993D01*
X112017086Y-22238479D01*
X112351511Y-22305000D01*
X112692489Y-22305000D01*
X113026914Y-22238479D01*
X113341936Y-22107993D01*
X113625448Y-21918556D01*
X113866556Y-21677448D01*
X114055993Y-21393936D01*
X114186479Y-21078914D01*
X114253000Y-20744489D01*
X114253000Y-20403511D01*
X164893000Y-20403511D01*
X164893000Y-20744489D01*
X164959521Y-21078914D01*
X165090007Y-21393936D01*
X165279444Y-21677448D01*
X165520552Y-21918556D01*
X165804064Y-22107993D01*
X166119086Y-22238479D01*
X166453511Y-22305000D01*
X166794489Y-22305000D01*
X167128914Y-22238479D01*
X167443936Y-22107993D01*
X167727448Y-21918556D01*
X167968556Y-21677448D01*
X168157993Y-21393936D01*
X168288479Y-21078914D01*
X168355000Y-20744489D01*
X168355000Y-20403511D01*
X168288479Y-20069086D01*
X168157993Y-19754064D01*
X167968556Y-19470552D01*
X167727448Y-19229444D01*
X167443936Y-19040007D01*
X167128914Y-18909521D01*
X166794489Y-18843000D01*
X166453511Y-18843000D01*
X166119086Y-18909521D01*
X165804064Y-19040007D01*
X165520552Y-19229444D01*
X165279444Y-19470552D01*
X165090007Y-19754064D01*
X164959521Y-20069086D01*
X164893000Y-20403511D01*
X114253000Y-20403511D01*
X114186479Y-20069086D01*
X114055993Y-19754064D01*
X113866556Y-19470552D01*
X113625448Y-19229444D01*
X113341936Y-19040007D01*
X113026914Y-18909521D01*
X112692489Y-18843000D01*
X112351511Y-18843000D01*
X112017086Y-18909521D01*
X111702064Y-19040007D01*
X111418552Y-19229444D01*
X111177444Y-19470552D01*
X110988007Y-19754064D01*
X110857521Y-20069086D01*
X110791000Y-20403511D01*
X41863000Y-20403511D01*
X41796479Y-20069086D01*
X41665993Y-19754064D01*
X41476556Y-19470552D01*
X41235448Y-19229444D01*
X40951936Y-19040007D01*
X40636914Y-18909521D01*
X40302489Y-18843000D01*
X39961511Y-18843000D01*
X39627086Y-18909521D01*
X39312064Y-19040007D01*
X39028552Y-19229444D01*
X38787444Y-19470552D01*
X38598007Y-19754064D01*
X38467521Y-20069086D01*
X38401000Y-20403511D01*
X32231453Y-20403511D01*
X32231461Y-19330538D01*
X32224501Y-19259872D01*
X32216509Y-19233526D01*
X32230930Y-19036483D01*
X32312430Y-18740306D01*
X32449904Y-18465604D01*
X32638123Y-18222829D01*
X32869907Y-18021240D01*
X33136432Y-17868511D01*
X33427551Y-17770458D01*
X33752210Y-17728209D01*
X33761642Y-17728001D01*
X39347591Y-17727999D01*
X39347601Y-17728000D01*
M02*
