G04 #@! TF.GenerationSoftware,KiCad,Pcbnew,(5.1.5)-3*
G04 #@! TF.CreationDate,2020-06-21T18:11:26+05:30*
G04 #@! TF.ProjectId,ergocape,6572676f-6361-4706-952e-6b696361645f,rev?*
G04 #@! TF.SameCoordinates,Original*
G04 #@! TF.FileFunction,Legend,Bot*
G04 #@! TF.FilePolarity,Positive*
%FSLAX46Y46*%
G04 Gerber Fmt 4.6, Leading zero omitted, Abs format (unit mm)*
G04 Created by KiCad (PCBNEW (5.1.5)-3) date 2020-06-21 18:11:26*
%MOMM*%
%LPD*%
G04 APERTURE LIST*
%ADD10C,0.150000*%
%ADD11C,0.127000*%
%ADD12C,0.010000*%
%ADD13C,0.381000*%
%ADD14C,0.200000*%
%ADD15C,0.203200*%
G04 APERTURE END LIST*
D10*
X64895761Y-26439761D02*
X64991000Y-26487380D01*
X65181476Y-26487380D01*
X65276714Y-26439761D01*
X65324333Y-26392142D01*
X65371952Y-26296904D01*
X65371952Y-26011190D01*
X65324333Y-25915952D01*
X65276714Y-25868333D01*
X65181476Y-25820714D01*
X64991000Y-25820714D01*
X64895761Y-25868333D01*
X64467190Y-26487380D02*
X64467190Y-25820714D01*
X64467190Y-26011190D02*
X64419571Y-25915952D01*
X64371952Y-25868333D01*
X64276714Y-25820714D01*
X64181476Y-25820714D01*
X63467190Y-26439761D02*
X63562428Y-26487380D01*
X63752904Y-26487380D01*
X63848142Y-26439761D01*
X63895761Y-26344523D01*
X63895761Y-25963571D01*
X63848142Y-25868333D01*
X63752904Y-25820714D01*
X63562428Y-25820714D01*
X63467190Y-25868333D01*
X63419571Y-25963571D01*
X63419571Y-26058809D01*
X63895761Y-26154047D01*
X62562428Y-26487380D02*
X62562428Y-25963571D01*
X62610047Y-25868333D01*
X62705285Y-25820714D01*
X62895761Y-25820714D01*
X62991000Y-25868333D01*
X62562428Y-26439761D02*
X62657666Y-26487380D01*
X62895761Y-26487380D01*
X62991000Y-26439761D01*
X63038619Y-26344523D01*
X63038619Y-26249285D01*
X62991000Y-26154047D01*
X62895761Y-26106428D01*
X62657666Y-26106428D01*
X62562428Y-26058809D01*
X62229095Y-25820714D02*
X61848142Y-25820714D01*
X62086238Y-25487380D02*
X62086238Y-26344523D01*
X62038619Y-26439761D01*
X61943380Y-26487380D01*
X61848142Y-26487380D01*
X61133857Y-26439761D02*
X61229095Y-26487380D01*
X61419571Y-26487380D01*
X61514809Y-26439761D01*
X61562428Y-26344523D01*
X61562428Y-25963571D01*
X61514809Y-25868333D01*
X61419571Y-25820714D01*
X61229095Y-25820714D01*
X61133857Y-25868333D01*
X61086238Y-25963571D01*
X61086238Y-26058809D01*
X61562428Y-26154047D01*
X60229095Y-26487380D02*
X60229095Y-25487380D01*
X60229095Y-26439761D02*
X60324333Y-26487380D01*
X60514809Y-26487380D01*
X60610047Y-26439761D01*
X60657666Y-26392142D01*
X60705285Y-26296904D01*
X60705285Y-26011190D01*
X60657666Y-25915952D01*
X60610047Y-25868333D01*
X60514809Y-25820714D01*
X60324333Y-25820714D01*
X60229095Y-25868333D01*
X58991000Y-26487380D02*
X58991000Y-25487380D01*
X58991000Y-25868333D02*
X58895761Y-25820714D01*
X58705285Y-25820714D01*
X58610047Y-25868333D01*
X58562428Y-25915952D01*
X58514809Y-26011190D01*
X58514809Y-26296904D01*
X58562428Y-26392142D01*
X58610047Y-26439761D01*
X58705285Y-26487380D01*
X58895761Y-26487380D01*
X58991000Y-26439761D01*
X58181476Y-25820714D02*
X57943380Y-26487380D01*
X57705285Y-25820714D02*
X57943380Y-26487380D01*
X58038619Y-26725476D01*
X58086238Y-26773095D01*
X58181476Y-26820714D01*
X56133857Y-25820714D02*
X56133857Y-26487380D01*
X56562428Y-25820714D02*
X56562428Y-26344523D01*
X56514809Y-26439761D01*
X56419571Y-26487380D01*
X56276714Y-26487380D01*
X56181476Y-26439761D01*
X56133857Y-26392142D01*
X54943380Y-25439761D02*
X55800523Y-26725476D01*
X54610047Y-26487380D02*
X54610047Y-25487380D01*
X54610047Y-25963571D02*
X54038619Y-25963571D01*
X54038619Y-26487380D02*
X54038619Y-25487380D01*
X53133857Y-26487380D02*
X53133857Y-25963571D01*
X53181476Y-25868333D01*
X53276714Y-25820714D01*
X53467190Y-25820714D01*
X53562428Y-25868333D01*
X53133857Y-26439761D02*
X53229095Y-26487380D01*
X53467190Y-26487380D01*
X53562428Y-26439761D01*
X53610047Y-26344523D01*
X53610047Y-26249285D01*
X53562428Y-26154047D01*
X53467190Y-26106428D01*
X53229095Y-26106428D01*
X53133857Y-26058809D01*
X52657666Y-26487380D02*
X52657666Y-25820714D01*
X52657666Y-26011190D02*
X52610047Y-25915952D01*
X52562428Y-25868333D01*
X52467190Y-25820714D01*
X52371952Y-25820714D01*
X52086238Y-26439761D02*
X51991000Y-26487380D01*
X51800523Y-26487380D01*
X51705285Y-26439761D01*
X51657666Y-26344523D01*
X51657666Y-26296904D01*
X51705285Y-26201666D01*
X51800523Y-26154047D01*
X51943380Y-26154047D01*
X52038619Y-26106428D01*
X52086238Y-26011190D01*
X52086238Y-25963571D01*
X52038619Y-25868333D01*
X51943380Y-25820714D01*
X51800523Y-25820714D01*
X51705285Y-25868333D01*
X51229095Y-26487380D02*
X51229095Y-25487380D01*
X50800523Y-26487380D02*
X50800523Y-25963571D01*
X50848142Y-25868333D01*
X50943380Y-25820714D01*
X51086238Y-25820714D01*
X51181476Y-25868333D01*
X51229095Y-25915952D01*
X50324333Y-26487380D02*
X50324333Y-25820714D01*
X50324333Y-25487380D02*
X50371952Y-25535000D01*
X50324333Y-25582619D01*
X50276714Y-25535000D01*
X50324333Y-25487380D01*
X50324333Y-25582619D01*
X49991000Y-25820714D02*
X49610047Y-25820714D01*
X49848142Y-25487380D02*
X49848142Y-26344523D01*
X49800523Y-26439761D01*
X49705285Y-26487380D01*
X49610047Y-26487380D01*
X48848142Y-25820714D02*
X48848142Y-26630238D01*
X48895761Y-26725476D01*
X48943380Y-26773095D01*
X49038619Y-26820714D01*
X49181476Y-26820714D01*
X49276714Y-26773095D01*
X48848142Y-26439761D02*
X48943380Y-26487380D01*
X49133857Y-26487380D01*
X49229095Y-26439761D01*
X49276714Y-26392142D01*
X49324333Y-26296904D01*
X49324333Y-26011190D01*
X49276714Y-25915952D01*
X49229095Y-25868333D01*
X49133857Y-25820714D01*
X48943380Y-25820714D01*
X48848142Y-25868333D01*
X48229095Y-26487380D02*
X48324333Y-26439761D01*
X48371952Y-26392142D01*
X48419571Y-26296904D01*
X48419571Y-26011190D01*
X48371952Y-25915952D01*
X48324333Y-25868333D01*
X48229095Y-25820714D01*
X48086238Y-25820714D01*
X47991000Y-25868333D01*
X47943380Y-25915952D01*
X47895761Y-26011190D01*
X47895761Y-26296904D01*
X47943380Y-26392142D01*
X47991000Y-26439761D01*
X48086238Y-26487380D01*
X48229095Y-26487380D01*
X47086238Y-26439761D02*
X47181476Y-26487380D01*
X47371952Y-26487380D01*
X47467190Y-26439761D01*
X47514809Y-26344523D01*
X47514809Y-25963571D01*
X47467190Y-25868333D01*
X47371952Y-25820714D01*
X47181476Y-25820714D01*
X47086238Y-25868333D01*
X47038619Y-25963571D01*
X47038619Y-26058809D01*
X47514809Y-26154047D01*
X46467190Y-26487380D02*
X46562428Y-26439761D01*
X46610047Y-26344523D01*
X46610047Y-25487380D01*
X46038619Y-26487380D02*
X45848142Y-26487380D01*
X45752904Y-26439761D01*
X45705285Y-26392142D01*
X45610047Y-26249285D01*
X45562428Y-26058809D01*
X45562428Y-25677857D01*
X45610047Y-25582619D01*
X45657666Y-25535000D01*
X45752904Y-25487380D01*
X45943380Y-25487380D01*
X46038619Y-25535000D01*
X46086238Y-25582619D01*
X46133857Y-25677857D01*
X46133857Y-25915952D01*
X46086238Y-26011190D01*
X46038619Y-26058809D01*
X45943380Y-26106428D01*
X45752904Y-26106428D01*
X45657666Y-26058809D01*
X45610047Y-26011190D01*
X45562428Y-25915952D01*
X44705285Y-25487380D02*
X44895761Y-25487380D01*
X44991000Y-25535000D01*
X45038619Y-25582619D01*
X45133857Y-25725476D01*
X45181476Y-25915952D01*
X45181476Y-26296904D01*
X45133857Y-26392142D01*
X45086238Y-26439761D01*
X44991000Y-26487380D01*
X44800523Y-26487380D01*
X44705285Y-26439761D01*
X44657666Y-26392142D01*
X44610047Y-26296904D01*
X44610047Y-26058809D01*
X44657666Y-25963571D01*
X44705285Y-25915952D01*
X44800523Y-25868333D01*
X44991000Y-25868333D01*
X45086238Y-25915952D01*
X45133857Y-25963571D01*
X45181476Y-26058809D01*
X105131761Y-19327761D02*
X105227000Y-19375380D01*
X105417476Y-19375380D01*
X105512714Y-19327761D01*
X105560333Y-19280142D01*
X105607952Y-19184904D01*
X105607952Y-18899190D01*
X105560333Y-18803952D01*
X105512714Y-18756333D01*
X105417476Y-18708714D01*
X105227000Y-18708714D01*
X105131761Y-18756333D01*
X104274619Y-19375380D02*
X104274619Y-18851571D01*
X104322238Y-18756333D01*
X104417476Y-18708714D01*
X104607952Y-18708714D01*
X104703190Y-18756333D01*
X104274619Y-19327761D02*
X104369857Y-19375380D01*
X104607952Y-19375380D01*
X104703190Y-19327761D01*
X104750809Y-19232523D01*
X104750809Y-19137285D01*
X104703190Y-19042047D01*
X104607952Y-18994428D01*
X104369857Y-18994428D01*
X104274619Y-18946809D01*
X103798428Y-18708714D02*
X103798428Y-19708714D01*
X103798428Y-18756333D02*
X103703190Y-18708714D01*
X103512714Y-18708714D01*
X103417476Y-18756333D01*
X103369857Y-18803952D01*
X103322238Y-18899190D01*
X103322238Y-19184904D01*
X103369857Y-19280142D01*
X103417476Y-19327761D01*
X103512714Y-19375380D01*
X103703190Y-19375380D01*
X103798428Y-19327761D01*
X103036523Y-18708714D02*
X102655571Y-18708714D01*
X102893666Y-18375380D02*
X102893666Y-19232523D01*
X102846047Y-19327761D01*
X102750809Y-19375380D01*
X102655571Y-19375380D01*
X102322238Y-18708714D02*
X102322238Y-19375380D01*
X102322238Y-18803952D02*
X102274619Y-18756333D01*
X102179380Y-18708714D01*
X102036523Y-18708714D01*
X101941285Y-18756333D01*
X101893666Y-18851571D01*
X101893666Y-19375380D01*
X101512714Y-18375380D02*
X100893666Y-18375380D01*
X101227000Y-18756333D01*
X101084142Y-18756333D01*
X100988904Y-18803952D01*
X100941285Y-18851571D01*
X100893666Y-18946809D01*
X100893666Y-19184904D01*
X100941285Y-19280142D01*
X100988904Y-19327761D01*
X101084142Y-19375380D01*
X101369857Y-19375380D01*
X101465095Y-19327761D01*
X101512714Y-19280142D01*
X100465095Y-19375380D02*
X100465095Y-18708714D01*
X100465095Y-18803952D02*
X100417476Y-18756333D01*
X100322238Y-18708714D01*
X100179380Y-18708714D01*
X100084142Y-18756333D01*
X100036523Y-18851571D01*
X100036523Y-19375380D01*
X100036523Y-18851571D02*
X99988904Y-18756333D01*
X99893666Y-18708714D01*
X99750809Y-18708714D01*
X99655571Y-18756333D01*
X99607952Y-18851571D01*
X99607952Y-19375380D01*
X98941285Y-18375380D02*
X98846047Y-18375380D01*
X98750809Y-18423000D01*
X98703190Y-18470619D01*
X98655571Y-18565857D01*
X98607952Y-18756333D01*
X98607952Y-18994428D01*
X98655571Y-19184904D01*
X98703190Y-19280142D01*
X98750809Y-19327761D01*
X98846047Y-19375380D01*
X98941285Y-19375380D01*
X99036523Y-19327761D01*
X99084142Y-19280142D01*
X99131761Y-19184904D01*
X99179380Y-18994428D01*
X99179380Y-18756333D01*
X99131761Y-18565857D01*
X99084142Y-18470619D01*
X99036523Y-18423000D01*
X98941285Y-18375380D01*
X153074190Y-18835714D02*
X153074190Y-19502380D01*
X153502761Y-18835714D02*
X153502761Y-19359523D01*
X153455142Y-19454761D01*
X153359904Y-19502380D01*
X153217047Y-19502380D01*
X153121809Y-19454761D01*
X153074190Y-19407142D01*
X151883714Y-18454761D02*
X152740857Y-19740476D01*
X151550380Y-19502380D02*
X151550380Y-18502380D01*
X151312285Y-18502380D01*
X151169428Y-18550000D01*
X151074190Y-18645238D01*
X151026571Y-18740476D01*
X150978952Y-18930952D01*
X150978952Y-19073809D01*
X151026571Y-19264285D01*
X151074190Y-19359523D01*
X151169428Y-19454761D01*
X151312285Y-19502380D01*
X151550380Y-19502380D01*
X150169428Y-19454761D02*
X150264666Y-19502380D01*
X150455142Y-19502380D01*
X150550380Y-19454761D01*
X150598000Y-19359523D01*
X150598000Y-18978571D01*
X150550380Y-18883333D01*
X150455142Y-18835714D01*
X150264666Y-18835714D01*
X150169428Y-18883333D01*
X150121809Y-18978571D01*
X150121809Y-19073809D01*
X150598000Y-19169047D01*
X149550380Y-19502380D02*
X149645619Y-19454761D01*
X149693238Y-19359523D01*
X149693238Y-18502380D01*
X149312285Y-18835714D02*
X148931333Y-18835714D01*
X149169428Y-18502380D02*
X149169428Y-19359523D01*
X149121809Y-19454761D01*
X149026571Y-19502380D01*
X148931333Y-19502380D01*
X148169428Y-19502380D02*
X148169428Y-18978571D01*
X148217047Y-18883333D01*
X148312285Y-18835714D01*
X148502761Y-18835714D01*
X148598000Y-18883333D01*
X148169428Y-19454761D02*
X148264666Y-19502380D01*
X148502761Y-19502380D01*
X148598000Y-19454761D01*
X148645619Y-19359523D01*
X148645619Y-19264285D01*
X148598000Y-19169047D01*
X148502761Y-19121428D01*
X148264666Y-19121428D01*
X148169428Y-19073809D01*
X147931333Y-19597619D02*
X147169428Y-19597619D01*
X147074190Y-18502380D02*
X146502761Y-18502380D01*
X146788476Y-19502380D02*
X146788476Y-18502380D01*
X146264666Y-18835714D02*
X146074190Y-19502380D01*
X145883714Y-19026190D01*
X145693238Y-19502380D01*
X145502761Y-18835714D01*
X144978952Y-19502380D02*
X145074190Y-19454761D01*
X145121809Y-19407142D01*
X145169428Y-19311904D01*
X145169428Y-19026190D01*
X145121809Y-18930952D01*
X145074190Y-18883333D01*
X144978952Y-18835714D01*
X144836095Y-18835714D01*
X144740857Y-18883333D01*
X144693238Y-18930952D01*
X144645619Y-19026190D01*
X144645619Y-19311904D01*
X144693238Y-19407142D01*
X144740857Y-19454761D01*
X144836095Y-19502380D01*
X144978952Y-19502380D01*
X138866285Y-18502380D02*
X138866285Y-18692857D01*
X138485333Y-18502380D02*
X138485333Y-18692857D01*
X138199619Y-18502380D02*
X137628190Y-18502380D01*
X137913904Y-19502380D02*
X137913904Y-18502380D01*
X136866285Y-19502380D02*
X136866285Y-18978571D01*
X136913904Y-18883333D01*
X137009142Y-18835714D01*
X137199619Y-18835714D01*
X137294857Y-18883333D01*
X136866285Y-19454761D02*
X136961523Y-19502380D01*
X137199619Y-19502380D01*
X137294857Y-19454761D01*
X137342476Y-19359523D01*
X137342476Y-19264285D01*
X137294857Y-19169047D01*
X137199619Y-19121428D01*
X136961523Y-19121428D01*
X136866285Y-19073809D01*
X136485333Y-18835714D02*
X135961523Y-18835714D01*
X136485333Y-19502380D01*
X135961523Y-19502380D01*
X135675809Y-18835714D02*
X135152000Y-18835714D01*
X135675809Y-19502380D01*
X135152000Y-19502380D01*
X134818666Y-18502380D02*
X134818666Y-18692857D01*
X134437714Y-18502380D02*
X134437714Y-18692857D01*
X127650238Y-18835714D02*
X127650238Y-19502380D01*
X128078809Y-18835714D02*
X128078809Y-19359523D01*
X128031190Y-19454761D01*
X127935952Y-19502380D01*
X127793095Y-19502380D01*
X127697857Y-19454761D01*
X127650238Y-19407142D01*
X126459761Y-18454761D02*
X127316904Y-19740476D01*
X126174047Y-19454761D02*
X126031190Y-19502380D01*
X125793095Y-19502380D01*
X125697857Y-19454761D01*
X125650238Y-19407142D01*
X125602619Y-19311904D01*
X125602619Y-19216666D01*
X125650238Y-19121428D01*
X125697857Y-19073809D01*
X125793095Y-19026190D01*
X125983571Y-18978571D01*
X126078809Y-18930952D01*
X126126428Y-18883333D01*
X126174047Y-18788095D01*
X126174047Y-18692857D01*
X126126428Y-18597619D01*
X126078809Y-18550000D01*
X125983571Y-18502380D01*
X125745476Y-18502380D01*
X125602619Y-18550000D01*
X124793095Y-19454761D02*
X124888333Y-19502380D01*
X125078809Y-19502380D01*
X125174047Y-19454761D01*
X125221666Y-19359523D01*
X125221666Y-18978571D01*
X125174047Y-18883333D01*
X125078809Y-18835714D01*
X124888333Y-18835714D01*
X124793095Y-18883333D01*
X124745476Y-18978571D01*
X124745476Y-19073809D01*
X125221666Y-19169047D01*
X124316904Y-18835714D02*
X124316904Y-19502380D01*
X124316904Y-18930952D02*
X124269285Y-18883333D01*
X124174047Y-18835714D01*
X124031190Y-18835714D01*
X123935952Y-18883333D01*
X123888333Y-18978571D01*
X123888333Y-19502380D01*
X123269285Y-19502380D02*
X123364523Y-19454761D01*
X123412142Y-19407142D01*
X123459761Y-19311904D01*
X123459761Y-19026190D01*
X123412142Y-18930952D01*
X123364523Y-18883333D01*
X123269285Y-18835714D01*
X123126428Y-18835714D01*
X123031190Y-18883333D01*
X122983571Y-18930952D01*
X122935952Y-19026190D01*
X122935952Y-19311904D01*
X122983571Y-19407142D01*
X123031190Y-19454761D01*
X123126428Y-19502380D01*
X123269285Y-19502380D01*
X122507380Y-19502380D02*
X122507380Y-18835714D01*
X122507380Y-19026190D02*
X122459761Y-18930952D01*
X122412142Y-18883333D01*
X122316904Y-18835714D01*
X122221666Y-18835714D01*
X122126428Y-19597619D02*
X121364523Y-19597619D01*
X120602619Y-18550000D02*
X120697857Y-18502380D01*
X120840714Y-18502380D01*
X120983571Y-18550000D01*
X121078809Y-18645238D01*
X121126428Y-18740476D01*
X121174047Y-18930952D01*
X121174047Y-19073809D01*
X121126428Y-19264285D01*
X121078809Y-19359523D01*
X120983571Y-19454761D01*
X120840714Y-19502380D01*
X120745476Y-19502380D01*
X120602619Y-19454761D01*
X120555000Y-19407142D01*
X120555000Y-19073809D01*
X120745476Y-19073809D01*
X119983571Y-19502380D02*
X120078809Y-19454761D01*
X120126428Y-19407142D01*
X120174047Y-19311904D01*
X120174047Y-19026190D01*
X120126428Y-18930952D01*
X120078809Y-18883333D01*
X119983571Y-18835714D01*
X119840714Y-18835714D01*
X119745476Y-18883333D01*
X119697857Y-18930952D01*
X119650238Y-19026190D01*
X119650238Y-19311904D01*
X119697857Y-19407142D01*
X119745476Y-19454761D01*
X119840714Y-19502380D01*
X119983571Y-19502380D01*
X119078809Y-19502380D02*
X119174047Y-19454761D01*
X119221666Y-19407142D01*
X119269285Y-19311904D01*
X119269285Y-19026190D01*
X119221666Y-18930952D01*
X119174047Y-18883333D01*
X119078809Y-18835714D01*
X118935952Y-18835714D01*
X118840714Y-18883333D01*
X118793095Y-18930952D01*
X118745476Y-19026190D01*
X118745476Y-19311904D01*
X118793095Y-19407142D01*
X118840714Y-19454761D01*
X118935952Y-19502380D01*
X119078809Y-19502380D01*
X118316904Y-19502380D02*
X118316904Y-18502380D01*
X118316904Y-18883333D02*
X118221666Y-18835714D01*
X118031190Y-18835714D01*
X117935952Y-18883333D01*
X117888333Y-18930952D01*
X117840714Y-19026190D01*
X117840714Y-19311904D01*
X117888333Y-19407142D01*
X117935952Y-19454761D01*
X118031190Y-19502380D01*
X118221666Y-19502380D01*
X118316904Y-19454761D01*
X117031190Y-19454761D02*
X117126428Y-19502380D01*
X117316904Y-19502380D01*
X117412142Y-19454761D01*
X117459761Y-19359523D01*
X117459761Y-18978571D01*
X117412142Y-18883333D01*
X117316904Y-18835714D01*
X117126428Y-18835714D01*
X117031190Y-18883333D01*
X116983571Y-18978571D01*
X116983571Y-19073809D01*
X117459761Y-19169047D01*
X168663476Y-82748380D02*
X168996809Y-82272190D01*
X169234904Y-82748380D02*
X169234904Y-81748380D01*
X168853952Y-81748380D01*
X168758714Y-81796000D01*
X168711095Y-81843619D01*
X168663476Y-81938857D01*
X168663476Y-82081714D01*
X168711095Y-82176952D01*
X168758714Y-82224571D01*
X168853952Y-82272190D01*
X169234904Y-82272190D01*
X168234904Y-82748380D02*
X168234904Y-81748380D01*
X167234904Y-81796000D02*
X167330142Y-81748380D01*
X167473000Y-81748380D01*
X167615857Y-81796000D01*
X167711095Y-81891238D01*
X167758714Y-81986476D01*
X167806333Y-82176952D01*
X167806333Y-82319809D01*
X167758714Y-82510285D01*
X167711095Y-82605523D01*
X167615857Y-82700761D01*
X167473000Y-82748380D01*
X167377761Y-82748380D01*
X167234904Y-82700761D01*
X167187285Y-82653142D01*
X167187285Y-82319809D01*
X167377761Y-82319809D01*
X166758714Y-82748380D02*
X166758714Y-81748380D01*
X166758714Y-82224571D02*
X166187285Y-82224571D01*
X166187285Y-82748380D02*
X166187285Y-81748380D01*
X165853952Y-81748380D02*
X165282523Y-81748380D01*
X165568238Y-82748380D02*
X165568238Y-81748380D01*
X164187285Y-82748380D02*
X164187285Y-81748380D01*
X164187285Y-82224571D02*
X163615857Y-82224571D01*
X163615857Y-82748380D02*
X163615857Y-81748380D01*
X163187285Y-82462666D02*
X162711095Y-82462666D01*
X163282523Y-82748380D02*
X162949190Y-81748380D01*
X162615857Y-82748380D01*
X162282523Y-82748380D02*
X162282523Y-81748380D01*
X161711095Y-82748380D01*
X161711095Y-81748380D01*
X161234904Y-82748380D02*
X161234904Y-81748380D01*
X160996809Y-81748380D01*
X160853952Y-81796000D01*
X160758714Y-81891238D01*
X160711095Y-81986476D01*
X160663476Y-82176952D01*
X160663476Y-82319809D01*
X160711095Y-82510285D01*
X160758714Y-82605523D01*
X160853952Y-82700761D01*
X160996809Y-82748380D01*
X161234904Y-82748380D01*
D11*
X80314800Y-17246600D02*
X80314800Y-18516600D01*
X87934800Y-17246600D02*
X80314800Y-17246600D01*
X87934800Y-18516600D02*
X87934800Y-17246600D01*
X75234800Y-18516600D02*
X93014800Y-18516600D01*
X75234800Y-51536600D02*
X75234800Y-18516600D01*
X93014800Y-51536600D02*
X75234800Y-51536600D01*
X93014800Y-18516600D02*
X93014800Y-51536600D01*
D12*
G36*
X54125090Y-19213348D02*
G01*
X54046546Y-19213778D01*
X53989702Y-19214942D01*
X53950895Y-19217207D01*
X53926462Y-19220940D01*
X53912738Y-19226506D01*
X53906060Y-19234273D01*
X53902764Y-19244605D01*
X53902444Y-19245943D01*
X53897438Y-19270079D01*
X53888171Y-19317701D01*
X53875608Y-19383741D01*
X53860713Y-19463128D01*
X53844449Y-19550796D01*
X53843881Y-19553875D01*
X53827590Y-19639789D01*
X53812348Y-19715696D01*
X53799139Y-19777045D01*
X53788946Y-19819282D01*
X53782752Y-19837855D01*
X53782457Y-19838184D01*
X53764212Y-19847253D01*
X53726595Y-19862367D01*
X53677729Y-19880262D01*
X53677457Y-19880358D01*
X53615907Y-19903493D01*
X53543343Y-19932965D01*
X53474943Y-19962597D01*
X53471706Y-19964062D01*
X53360298Y-20014626D01*
X53113601Y-19846160D01*
X53037923Y-19794803D01*
X52969369Y-19748889D01*
X52911912Y-19711030D01*
X52869524Y-19683837D01*
X52846175Y-19669921D01*
X52843958Y-19668889D01*
X52826990Y-19673484D01*
X52795299Y-19695655D01*
X52747648Y-19736447D01*
X52682802Y-19796905D01*
X52616603Y-19861227D01*
X52552786Y-19924612D01*
X52495671Y-19982451D01*
X52448695Y-20031175D01*
X52415297Y-20067210D01*
X52398915Y-20086984D01*
X52398306Y-20088002D01*
X52396495Y-20101572D01*
X52403317Y-20123733D01*
X52420460Y-20157478D01*
X52449607Y-20205800D01*
X52492445Y-20271692D01*
X52549552Y-20356517D01*
X52600234Y-20431177D01*
X52645539Y-20498140D01*
X52682850Y-20553516D01*
X52709548Y-20593420D01*
X52723015Y-20613962D01*
X52723863Y-20615356D01*
X52722219Y-20635038D01*
X52709755Y-20673293D01*
X52688952Y-20722889D01*
X52681538Y-20738728D01*
X52649186Y-20809290D01*
X52614672Y-20889353D01*
X52586635Y-20958629D01*
X52566432Y-21010045D01*
X52550385Y-21049119D01*
X52541112Y-21069541D01*
X52539959Y-21071114D01*
X52522904Y-21073721D01*
X52482702Y-21080863D01*
X52424698Y-21091523D01*
X52354237Y-21104685D01*
X52276665Y-21119333D01*
X52197328Y-21134449D01*
X52121569Y-21149018D01*
X52054736Y-21162022D01*
X52002172Y-21172445D01*
X51969224Y-21179270D01*
X51961143Y-21181199D01*
X51952795Y-21185962D01*
X51946494Y-21196718D01*
X51941955Y-21217098D01*
X51938896Y-21250734D01*
X51937033Y-21301255D01*
X51936082Y-21372292D01*
X51935760Y-21467476D01*
X51935743Y-21506492D01*
X51935743Y-21823799D01*
X52011943Y-21838839D01*
X52054337Y-21846995D01*
X52117600Y-21858899D01*
X52194038Y-21873116D01*
X52275957Y-21888210D01*
X52298600Y-21892355D01*
X52374194Y-21907053D01*
X52440047Y-21921505D01*
X52490634Y-21934375D01*
X52520426Y-21944322D01*
X52525388Y-21947287D01*
X52537574Y-21968283D01*
X52555047Y-22008967D01*
X52574423Y-22061322D01*
X52578266Y-22072600D01*
X52603661Y-22142523D01*
X52635183Y-22221418D01*
X52666031Y-22292266D01*
X52666183Y-22292595D01*
X52717553Y-22403733D01*
X52548601Y-22652253D01*
X52379648Y-22900772D01*
X52596571Y-23118058D01*
X52662181Y-23182726D01*
X52722021Y-23239733D01*
X52772733Y-23286033D01*
X52810954Y-23318584D01*
X52833325Y-23334343D01*
X52836534Y-23335343D01*
X52855374Y-23327469D01*
X52893820Y-23305578D01*
X52947670Y-23272267D01*
X53012724Y-23230131D01*
X53083060Y-23182943D01*
X53154445Y-23134810D01*
X53218092Y-23092928D01*
X53269959Y-23059871D01*
X53306005Y-23038218D01*
X53322133Y-23030543D01*
X53341811Y-23037037D01*
X53379125Y-23054150D01*
X53426379Y-23078326D01*
X53431388Y-23081013D01*
X53495023Y-23112927D01*
X53538659Y-23128579D01*
X53565798Y-23128745D01*
X53579943Y-23114204D01*
X53580025Y-23114000D01*
X53587095Y-23096779D01*
X53603958Y-23055899D01*
X53629305Y-22994525D01*
X53661829Y-22915819D01*
X53700222Y-22822947D01*
X53743178Y-22719072D01*
X53784778Y-22618502D01*
X53830496Y-22507516D01*
X53872474Y-22404703D01*
X53909452Y-22313215D01*
X53940173Y-22236201D01*
X53963378Y-22176815D01*
X53977810Y-22138209D01*
X53982257Y-22123800D01*
X53971104Y-22107272D01*
X53941931Y-22080930D01*
X53903029Y-22051887D01*
X53792243Y-21960039D01*
X53705649Y-21854759D01*
X53644284Y-21738266D01*
X53609185Y-21612776D01*
X53601392Y-21480507D01*
X53607057Y-21419457D01*
X53637922Y-21292795D01*
X53691080Y-21180941D01*
X53763233Y-21085001D01*
X53851083Y-21006076D01*
X53951335Y-20945270D01*
X54060690Y-20903687D01*
X54175853Y-20882428D01*
X54293525Y-20882599D01*
X54410410Y-20905301D01*
X54523211Y-20951638D01*
X54628631Y-21022713D01*
X54672632Y-21062911D01*
X54757021Y-21166129D01*
X54815778Y-21278925D01*
X54849296Y-21398010D01*
X54857965Y-21520095D01*
X54842177Y-21641893D01*
X54802322Y-21760116D01*
X54738793Y-21871475D01*
X54651979Y-21972684D01*
X54554971Y-22051887D01*
X54514563Y-22082162D01*
X54486018Y-22108219D01*
X54475743Y-22123825D01*
X54481123Y-22140843D01*
X54496425Y-22181500D01*
X54520388Y-22242642D01*
X54551756Y-22321119D01*
X54589268Y-22413780D01*
X54631667Y-22517472D01*
X54673337Y-22618526D01*
X54719310Y-22729607D01*
X54761893Y-22832541D01*
X54799779Y-22924165D01*
X54831660Y-23001316D01*
X54856229Y-23060831D01*
X54872180Y-23099544D01*
X54878090Y-23114000D01*
X54892052Y-23128685D01*
X54919060Y-23128642D01*
X54962587Y-23113099D01*
X55026110Y-23081284D01*
X55026612Y-23081013D01*
X55074440Y-23056323D01*
X55113103Y-23038338D01*
X55134905Y-23030614D01*
X55135867Y-23030543D01*
X55152279Y-23038378D01*
X55188513Y-23060165D01*
X55240526Y-23093328D01*
X55304275Y-23135291D01*
X55374940Y-23182943D01*
X55446884Y-23231191D01*
X55511726Y-23273151D01*
X55565265Y-23306227D01*
X55603303Y-23327821D01*
X55621467Y-23335343D01*
X55638192Y-23325457D01*
X55671820Y-23297826D01*
X55718990Y-23255495D01*
X55776342Y-23201505D01*
X55840516Y-23138899D01*
X55861503Y-23117983D01*
X56078501Y-22900623D01*
X55913332Y-22658220D01*
X55863136Y-22583781D01*
X55819081Y-22516972D01*
X55783638Y-22461665D01*
X55759281Y-22421729D01*
X55748478Y-22401036D01*
X55748162Y-22399563D01*
X55753857Y-22380058D01*
X55769174Y-22340822D01*
X55791463Y-22288430D01*
X55807107Y-22253355D01*
X55836359Y-22186201D01*
X55863906Y-22118358D01*
X55885263Y-22061034D01*
X55891065Y-22043572D01*
X55907548Y-21996938D01*
X55923660Y-21960905D01*
X55932510Y-21947287D01*
X55952040Y-21938952D01*
X55994666Y-21927137D01*
X56054855Y-21913181D01*
X56127078Y-21898422D01*
X56159400Y-21892355D01*
X56241478Y-21877273D01*
X56320205Y-21862669D01*
X56387891Y-21849980D01*
X56436840Y-21840642D01*
X56446057Y-21838839D01*
X56522257Y-21823799D01*
X56522257Y-21506492D01*
X56522086Y-21402154D01*
X56521384Y-21323213D01*
X56519866Y-21266038D01*
X56517251Y-21226999D01*
X56513254Y-21202465D01*
X56507591Y-21188805D01*
X56499980Y-21182389D01*
X56496857Y-21181199D01*
X56478022Y-21176980D01*
X56436412Y-21168562D01*
X56377370Y-21156961D01*
X56306243Y-21143195D01*
X56228375Y-21128280D01*
X56149113Y-21113232D01*
X56073802Y-21099069D01*
X56007787Y-21086806D01*
X55956413Y-21077461D01*
X55925025Y-21072050D01*
X55918041Y-21071114D01*
X55911715Y-21058596D01*
X55897710Y-21025246D01*
X55878645Y-20977377D01*
X55871366Y-20958629D01*
X55842004Y-20886195D01*
X55807429Y-20806170D01*
X55776463Y-20738728D01*
X55753677Y-20687159D01*
X55738518Y-20644785D01*
X55733458Y-20618834D01*
X55734264Y-20615356D01*
X55744959Y-20598936D01*
X55769380Y-20562417D01*
X55804905Y-20509687D01*
X55848913Y-20444635D01*
X55898783Y-20371151D01*
X55908644Y-20356645D01*
X55966508Y-20270704D01*
X56009044Y-20205261D01*
X56037946Y-20157304D01*
X56054910Y-20123820D01*
X56061633Y-20101795D01*
X56059810Y-20088217D01*
X56059764Y-20088131D01*
X56045414Y-20070297D01*
X56013677Y-20035817D01*
X55967990Y-19988268D01*
X55911796Y-19931222D01*
X55848532Y-19868255D01*
X55841398Y-19861227D01*
X55761670Y-19784020D01*
X55700143Y-19727330D01*
X55655579Y-19690110D01*
X55626743Y-19671315D01*
X55614042Y-19668889D01*
X55595506Y-19679471D01*
X55557039Y-19703916D01*
X55502614Y-19739612D01*
X55436202Y-19783947D01*
X55361775Y-19834311D01*
X55344399Y-19846160D01*
X55097703Y-20014626D01*
X54986294Y-19964062D01*
X54918543Y-19934595D01*
X54845817Y-19904959D01*
X54783297Y-19881330D01*
X54780543Y-19880358D01*
X54731640Y-19862457D01*
X54693943Y-19847320D01*
X54675575Y-19838210D01*
X54675544Y-19838184D01*
X54669715Y-19821717D01*
X54659808Y-19781219D01*
X54646805Y-19721242D01*
X54631691Y-19646340D01*
X54615448Y-19561064D01*
X54614119Y-19553875D01*
X54597825Y-19466014D01*
X54582867Y-19386260D01*
X54570209Y-19319681D01*
X54560814Y-19271347D01*
X54555646Y-19246325D01*
X54555556Y-19245943D01*
X54552411Y-19235299D01*
X54546296Y-19227262D01*
X54533547Y-19221467D01*
X54510500Y-19217547D01*
X54473491Y-19215135D01*
X54418856Y-19213865D01*
X54342933Y-19213371D01*
X54242056Y-19213286D01*
X54229000Y-19213286D01*
X54125090Y-19213348D01*
G37*
X54125090Y-19213348D02*
X54046546Y-19213778D01*
X53989702Y-19214942D01*
X53950895Y-19217207D01*
X53926462Y-19220940D01*
X53912738Y-19226506D01*
X53906060Y-19234273D01*
X53902764Y-19244605D01*
X53902444Y-19245943D01*
X53897438Y-19270079D01*
X53888171Y-19317701D01*
X53875608Y-19383741D01*
X53860713Y-19463128D01*
X53844449Y-19550796D01*
X53843881Y-19553875D01*
X53827590Y-19639789D01*
X53812348Y-19715696D01*
X53799139Y-19777045D01*
X53788946Y-19819282D01*
X53782752Y-19837855D01*
X53782457Y-19838184D01*
X53764212Y-19847253D01*
X53726595Y-19862367D01*
X53677729Y-19880262D01*
X53677457Y-19880358D01*
X53615907Y-19903493D01*
X53543343Y-19932965D01*
X53474943Y-19962597D01*
X53471706Y-19964062D01*
X53360298Y-20014626D01*
X53113601Y-19846160D01*
X53037923Y-19794803D01*
X52969369Y-19748889D01*
X52911912Y-19711030D01*
X52869524Y-19683837D01*
X52846175Y-19669921D01*
X52843958Y-19668889D01*
X52826990Y-19673484D01*
X52795299Y-19695655D01*
X52747648Y-19736447D01*
X52682802Y-19796905D01*
X52616603Y-19861227D01*
X52552786Y-19924612D01*
X52495671Y-19982451D01*
X52448695Y-20031175D01*
X52415297Y-20067210D01*
X52398915Y-20086984D01*
X52398306Y-20088002D01*
X52396495Y-20101572D01*
X52403317Y-20123733D01*
X52420460Y-20157478D01*
X52449607Y-20205800D01*
X52492445Y-20271692D01*
X52549552Y-20356517D01*
X52600234Y-20431177D01*
X52645539Y-20498140D01*
X52682850Y-20553516D01*
X52709548Y-20593420D01*
X52723015Y-20613962D01*
X52723863Y-20615356D01*
X52722219Y-20635038D01*
X52709755Y-20673293D01*
X52688952Y-20722889D01*
X52681538Y-20738728D01*
X52649186Y-20809290D01*
X52614672Y-20889353D01*
X52586635Y-20958629D01*
X52566432Y-21010045D01*
X52550385Y-21049119D01*
X52541112Y-21069541D01*
X52539959Y-21071114D01*
X52522904Y-21073721D01*
X52482702Y-21080863D01*
X52424698Y-21091523D01*
X52354237Y-21104685D01*
X52276665Y-21119333D01*
X52197328Y-21134449D01*
X52121569Y-21149018D01*
X52054736Y-21162022D01*
X52002172Y-21172445D01*
X51969224Y-21179270D01*
X51961143Y-21181199D01*
X51952795Y-21185962D01*
X51946494Y-21196718D01*
X51941955Y-21217098D01*
X51938896Y-21250734D01*
X51937033Y-21301255D01*
X51936082Y-21372292D01*
X51935760Y-21467476D01*
X51935743Y-21506492D01*
X51935743Y-21823799D01*
X52011943Y-21838839D01*
X52054337Y-21846995D01*
X52117600Y-21858899D01*
X52194038Y-21873116D01*
X52275957Y-21888210D01*
X52298600Y-21892355D01*
X52374194Y-21907053D01*
X52440047Y-21921505D01*
X52490634Y-21934375D01*
X52520426Y-21944322D01*
X52525388Y-21947287D01*
X52537574Y-21968283D01*
X52555047Y-22008967D01*
X52574423Y-22061322D01*
X52578266Y-22072600D01*
X52603661Y-22142523D01*
X52635183Y-22221418D01*
X52666031Y-22292266D01*
X52666183Y-22292595D01*
X52717553Y-22403733D01*
X52548601Y-22652253D01*
X52379648Y-22900772D01*
X52596571Y-23118058D01*
X52662181Y-23182726D01*
X52722021Y-23239733D01*
X52772733Y-23286033D01*
X52810954Y-23318584D01*
X52833325Y-23334343D01*
X52836534Y-23335343D01*
X52855374Y-23327469D01*
X52893820Y-23305578D01*
X52947670Y-23272267D01*
X53012724Y-23230131D01*
X53083060Y-23182943D01*
X53154445Y-23134810D01*
X53218092Y-23092928D01*
X53269959Y-23059871D01*
X53306005Y-23038218D01*
X53322133Y-23030543D01*
X53341811Y-23037037D01*
X53379125Y-23054150D01*
X53426379Y-23078326D01*
X53431388Y-23081013D01*
X53495023Y-23112927D01*
X53538659Y-23128579D01*
X53565798Y-23128745D01*
X53579943Y-23114204D01*
X53580025Y-23114000D01*
X53587095Y-23096779D01*
X53603958Y-23055899D01*
X53629305Y-22994525D01*
X53661829Y-22915819D01*
X53700222Y-22822947D01*
X53743178Y-22719072D01*
X53784778Y-22618502D01*
X53830496Y-22507516D01*
X53872474Y-22404703D01*
X53909452Y-22313215D01*
X53940173Y-22236201D01*
X53963378Y-22176815D01*
X53977810Y-22138209D01*
X53982257Y-22123800D01*
X53971104Y-22107272D01*
X53941931Y-22080930D01*
X53903029Y-22051887D01*
X53792243Y-21960039D01*
X53705649Y-21854759D01*
X53644284Y-21738266D01*
X53609185Y-21612776D01*
X53601392Y-21480507D01*
X53607057Y-21419457D01*
X53637922Y-21292795D01*
X53691080Y-21180941D01*
X53763233Y-21085001D01*
X53851083Y-21006076D01*
X53951335Y-20945270D01*
X54060690Y-20903687D01*
X54175853Y-20882428D01*
X54293525Y-20882599D01*
X54410410Y-20905301D01*
X54523211Y-20951638D01*
X54628631Y-21022713D01*
X54672632Y-21062911D01*
X54757021Y-21166129D01*
X54815778Y-21278925D01*
X54849296Y-21398010D01*
X54857965Y-21520095D01*
X54842177Y-21641893D01*
X54802322Y-21760116D01*
X54738793Y-21871475D01*
X54651979Y-21972684D01*
X54554971Y-22051887D01*
X54514563Y-22082162D01*
X54486018Y-22108219D01*
X54475743Y-22123825D01*
X54481123Y-22140843D01*
X54496425Y-22181500D01*
X54520388Y-22242642D01*
X54551756Y-22321119D01*
X54589268Y-22413780D01*
X54631667Y-22517472D01*
X54673337Y-22618526D01*
X54719310Y-22729607D01*
X54761893Y-22832541D01*
X54799779Y-22924165D01*
X54831660Y-23001316D01*
X54856229Y-23060831D01*
X54872180Y-23099544D01*
X54878090Y-23114000D01*
X54892052Y-23128685D01*
X54919060Y-23128642D01*
X54962587Y-23113099D01*
X55026110Y-23081284D01*
X55026612Y-23081013D01*
X55074440Y-23056323D01*
X55113103Y-23038338D01*
X55134905Y-23030614D01*
X55135867Y-23030543D01*
X55152279Y-23038378D01*
X55188513Y-23060165D01*
X55240526Y-23093328D01*
X55304275Y-23135291D01*
X55374940Y-23182943D01*
X55446884Y-23231191D01*
X55511726Y-23273151D01*
X55565265Y-23306227D01*
X55603303Y-23327821D01*
X55621467Y-23335343D01*
X55638192Y-23325457D01*
X55671820Y-23297826D01*
X55718990Y-23255495D01*
X55776342Y-23201505D01*
X55840516Y-23138899D01*
X55861503Y-23117983D01*
X56078501Y-22900623D01*
X55913332Y-22658220D01*
X55863136Y-22583781D01*
X55819081Y-22516972D01*
X55783638Y-22461665D01*
X55759281Y-22421729D01*
X55748478Y-22401036D01*
X55748162Y-22399563D01*
X55753857Y-22380058D01*
X55769174Y-22340822D01*
X55791463Y-22288430D01*
X55807107Y-22253355D01*
X55836359Y-22186201D01*
X55863906Y-22118358D01*
X55885263Y-22061034D01*
X55891065Y-22043572D01*
X55907548Y-21996938D01*
X55923660Y-21960905D01*
X55932510Y-21947287D01*
X55952040Y-21938952D01*
X55994666Y-21927137D01*
X56054855Y-21913181D01*
X56127078Y-21898422D01*
X56159400Y-21892355D01*
X56241478Y-21877273D01*
X56320205Y-21862669D01*
X56387891Y-21849980D01*
X56436840Y-21840642D01*
X56446057Y-21838839D01*
X56522257Y-21823799D01*
X56522257Y-21506492D01*
X56522086Y-21402154D01*
X56521384Y-21323213D01*
X56519866Y-21266038D01*
X56517251Y-21226999D01*
X56513254Y-21202465D01*
X56507591Y-21188805D01*
X56499980Y-21182389D01*
X56496857Y-21181199D01*
X56478022Y-21176980D01*
X56436412Y-21168562D01*
X56377370Y-21156961D01*
X56306243Y-21143195D01*
X56228375Y-21128280D01*
X56149113Y-21113232D01*
X56073802Y-21099069D01*
X56007787Y-21086806D01*
X55956413Y-21077461D01*
X55925025Y-21072050D01*
X55918041Y-21071114D01*
X55911715Y-21058596D01*
X55897710Y-21025246D01*
X55878645Y-20977377D01*
X55871366Y-20958629D01*
X55842004Y-20886195D01*
X55807429Y-20806170D01*
X55776463Y-20738728D01*
X55753677Y-20687159D01*
X55738518Y-20644785D01*
X55733458Y-20618834D01*
X55734264Y-20615356D01*
X55744959Y-20598936D01*
X55769380Y-20562417D01*
X55804905Y-20509687D01*
X55848913Y-20444635D01*
X55898783Y-20371151D01*
X55908644Y-20356645D01*
X55966508Y-20270704D01*
X56009044Y-20205261D01*
X56037946Y-20157304D01*
X56054910Y-20123820D01*
X56061633Y-20101795D01*
X56059810Y-20088217D01*
X56059764Y-20088131D01*
X56045414Y-20070297D01*
X56013677Y-20035817D01*
X55967990Y-19988268D01*
X55911796Y-19931222D01*
X55848532Y-19868255D01*
X55841398Y-19861227D01*
X55761670Y-19784020D01*
X55700143Y-19727330D01*
X55655579Y-19690110D01*
X55626743Y-19671315D01*
X55614042Y-19668889D01*
X55595506Y-19679471D01*
X55557039Y-19703916D01*
X55502614Y-19739612D01*
X55436202Y-19783947D01*
X55361775Y-19834311D01*
X55344399Y-19846160D01*
X55097703Y-20014626D01*
X54986294Y-19964062D01*
X54918543Y-19934595D01*
X54845817Y-19904959D01*
X54783297Y-19881330D01*
X54780543Y-19880358D01*
X54731640Y-19862457D01*
X54693943Y-19847320D01*
X54675575Y-19838210D01*
X54675544Y-19838184D01*
X54669715Y-19821717D01*
X54659808Y-19781219D01*
X54646805Y-19721242D01*
X54631691Y-19646340D01*
X54615448Y-19561064D01*
X54614119Y-19553875D01*
X54597825Y-19466014D01*
X54582867Y-19386260D01*
X54570209Y-19319681D01*
X54560814Y-19271347D01*
X54555646Y-19246325D01*
X54555556Y-19245943D01*
X54552411Y-19235299D01*
X54546296Y-19227262D01*
X54533547Y-19221467D01*
X54510500Y-19217547D01*
X54473491Y-19215135D01*
X54418856Y-19213865D01*
X54342933Y-19213371D01*
X54242056Y-19213286D01*
X54229000Y-19213286D01*
X54125090Y-19213348D01*
G36*
X51075405Y-23937966D02*
G01*
X51017979Y-23975497D01*
X50990281Y-24009096D01*
X50968338Y-24070064D01*
X50966595Y-24118308D01*
X50970543Y-24182816D01*
X51119314Y-24247934D01*
X51191651Y-24281202D01*
X51238916Y-24307964D01*
X51263493Y-24331144D01*
X51267763Y-24353667D01*
X51254111Y-24378455D01*
X51239057Y-24394886D01*
X51195254Y-24421235D01*
X51147611Y-24423081D01*
X51103855Y-24402546D01*
X51071711Y-24361752D01*
X51065962Y-24347347D01*
X51038424Y-24302356D01*
X51006742Y-24283182D01*
X50963286Y-24266779D01*
X50963286Y-24328966D01*
X50967128Y-24371283D01*
X50982177Y-24406969D01*
X51013720Y-24447943D01*
X51018408Y-24453267D01*
X51053494Y-24489720D01*
X51083653Y-24509283D01*
X51121385Y-24518283D01*
X51152665Y-24521230D01*
X51208615Y-24521965D01*
X51248445Y-24512660D01*
X51273292Y-24498846D01*
X51312344Y-24468467D01*
X51339375Y-24435613D01*
X51356483Y-24394294D01*
X51365762Y-24338521D01*
X51369307Y-24262305D01*
X51369590Y-24223622D01*
X51368628Y-24177247D01*
X51280993Y-24177247D01*
X51279977Y-24202126D01*
X51277444Y-24206200D01*
X51260726Y-24200665D01*
X51224751Y-24186017D01*
X51176669Y-24165190D01*
X51166614Y-24160714D01*
X51105848Y-24129814D01*
X51072368Y-24102657D01*
X51065010Y-24077220D01*
X51082609Y-24051481D01*
X51097144Y-24040109D01*
X51149590Y-24017364D01*
X51198678Y-24021122D01*
X51239773Y-24048884D01*
X51268242Y-24098152D01*
X51277369Y-24137257D01*
X51280993Y-24177247D01*
X51368628Y-24177247D01*
X51367715Y-24133249D01*
X51360804Y-24066384D01*
X51347116Y-24017695D01*
X51324904Y-23981849D01*
X51292426Y-23953513D01*
X51278267Y-23944355D01*
X51213947Y-23920507D01*
X51143527Y-23919006D01*
X51075405Y-23937966D01*
G37*
X51075405Y-23937966D02*
X51017979Y-23975497D01*
X50990281Y-24009096D01*
X50968338Y-24070064D01*
X50966595Y-24118308D01*
X50970543Y-24182816D01*
X51119314Y-24247934D01*
X51191651Y-24281202D01*
X51238916Y-24307964D01*
X51263493Y-24331144D01*
X51267763Y-24353667D01*
X51254111Y-24378455D01*
X51239057Y-24394886D01*
X51195254Y-24421235D01*
X51147611Y-24423081D01*
X51103855Y-24402546D01*
X51071711Y-24361752D01*
X51065962Y-24347347D01*
X51038424Y-24302356D01*
X51006742Y-24283182D01*
X50963286Y-24266779D01*
X50963286Y-24328966D01*
X50967128Y-24371283D01*
X50982177Y-24406969D01*
X51013720Y-24447943D01*
X51018408Y-24453267D01*
X51053494Y-24489720D01*
X51083653Y-24509283D01*
X51121385Y-24518283D01*
X51152665Y-24521230D01*
X51208615Y-24521965D01*
X51248445Y-24512660D01*
X51273292Y-24498846D01*
X51312344Y-24468467D01*
X51339375Y-24435613D01*
X51356483Y-24394294D01*
X51365762Y-24338521D01*
X51369307Y-24262305D01*
X51369590Y-24223622D01*
X51368628Y-24177247D01*
X51280993Y-24177247D01*
X51279977Y-24202126D01*
X51277444Y-24206200D01*
X51260726Y-24200665D01*
X51224751Y-24186017D01*
X51176669Y-24165190D01*
X51166614Y-24160714D01*
X51105848Y-24129814D01*
X51072368Y-24102657D01*
X51065010Y-24077220D01*
X51082609Y-24051481D01*
X51097144Y-24040109D01*
X51149590Y-24017364D01*
X51198678Y-24021122D01*
X51239773Y-24048884D01*
X51268242Y-24098152D01*
X51277369Y-24137257D01*
X51280993Y-24177247D01*
X51368628Y-24177247D01*
X51367715Y-24133249D01*
X51360804Y-24066384D01*
X51347116Y-24017695D01*
X51324904Y-23981849D01*
X51292426Y-23953513D01*
X51278267Y-23944355D01*
X51213947Y-23920507D01*
X51143527Y-23919006D01*
X51075405Y-23937966D01*
G36*
X51576400Y-23929752D02*
G01*
X51559052Y-23937334D01*
X51517644Y-23970128D01*
X51482235Y-24017547D01*
X51460336Y-24068151D01*
X51456771Y-24093098D01*
X51468721Y-24127927D01*
X51494933Y-24146357D01*
X51523036Y-24157516D01*
X51535905Y-24159572D01*
X51542171Y-24144649D01*
X51554544Y-24112175D01*
X51559972Y-24097502D01*
X51590410Y-24046744D01*
X51634480Y-24021427D01*
X51690990Y-24022206D01*
X51695175Y-24023203D01*
X51725345Y-24037507D01*
X51747524Y-24065393D01*
X51762673Y-24110287D01*
X51771750Y-24175615D01*
X51775714Y-24264804D01*
X51776086Y-24312261D01*
X51776270Y-24387071D01*
X51777478Y-24438069D01*
X51780691Y-24470471D01*
X51786891Y-24489495D01*
X51797060Y-24500356D01*
X51812181Y-24508272D01*
X51813054Y-24508670D01*
X51842172Y-24520981D01*
X51856597Y-24525514D01*
X51858814Y-24511809D01*
X51860711Y-24473925D01*
X51862153Y-24416715D01*
X51863002Y-24345027D01*
X51863171Y-24292565D01*
X51862308Y-24191047D01*
X51858930Y-24114032D01*
X51851858Y-24057023D01*
X51839912Y-24015526D01*
X51821910Y-23985043D01*
X51796673Y-23961080D01*
X51771753Y-23944355D01*
X51711829Y-23922097D01*
X51642089Y-23917076D01*
X51576400Y-23929752D01*
G37*
X51576400Y-23929752D02*
X51559052Y-23937334D01*
X51517644Y-23970128D01*
X51482235Y-24017547D01*
X51460336Y-24068151D01*
X51456771Y-24093098D01*
X51468721Y-24127927D01*
X51494933Y-24146357D01*
X51523036Y-24157516D01*
X51535905Y-24159572D01*
X51542171Y-24144649D01*
X51554544Y-24112175D01*
X51559972Y-24097502D01*
X51590410Y-24046744D01*
X51634480Y-24021427D01*
X51690990Y-24022206D01*
X51695175Y-24023203D01*
X51725345Y-24037507D01*
X51747524Y-24065393D01*
X51762673Y-24110287D01*
X51771750Y-24175615D01*
X51775714Y-24264804D01*
X51776086Y-24312261D01*
X51776270Y-24387071D01*
X51777478Y-24438069D01*
X51780691Y-24470471D01*
X51786891Y-24489495D01*
X51797060Y-24500356D01*
X51812181Y-24508272D01*
X51813054Y-24508670D01*
X51842172Y-24520981D01*
X51856597Y-24525514D01*
X51858814Y-24511809D01*
X51860711Y-24473925D01*
X51862153Y-24416715D01*
X51863002Y-24345027D01*
X51863171Y-24292565D01*
X51862308Y-24191047D01*
X51858930Y-24114032D01*
X51851858Y-24057023D01*
X51839912Y-24015526D01*
X51821910Y-23985043D01*
X51796673Y-23961080D01*
X51771753Y-23944355D01*
X51711829Y-23922097D01*
X51642089Y-23917076D01*
X51576400Y-23929752D01*
G36*
X52084124Y-23927335D02*
G01*
X52042333Y-23946344D01*
X52009531Y-23969378D01*
X51985497Y-23995133D01*
X51968903Y-24028358D01*
X51958423Y-24073800D01*
X51952729Y-24136207D01*
X51950493Y-24220327D01*
X51950257Y-24275721D01*
X51950257Y-24491826D01*
X51987226Y-24508670D01*
X52016344Y-24520981D01*
X52030769Y-24525514D01*
X52033528Y-24512025D01*
X52035718Y-24475653D01*
X52037058Y-24422542D01*
X52037343Y-24380372D01*
X52038566Y-24319447D01*
X52041864Y-24271115D01*
X52046679Y-24241518D01*
X52050504Y-24235229D01*
X52076217Y-24241652D01*
X52116582Y-24258125D01*
X52163321Y-24280458D01*
X52208155Y-24304457D01*
X52242807Y-24325930D01*
X52258998Y-24340685D01*
X52259062Y-24340845D01*
X52257670Y-24368152D01*
X52245182Y-24394219D01*
X52223257Y-24415392D01*
X52191257Y-24422474D01*
X52163908Y-24421649D01*
X52125174Y-24421042D01*
X52104842Y-24430116D01*
X52092631Y-24454092D01*
X52091091Y-24458613D01*
X52085797Y-24492806D01*
X52099953Y-24513568D01*
X52136852Y-24523462D01*
X52176711Y-24525292D01*
X52248438Y-24511727D01*
X52285568Y-24492355D01*
X52331424Y-24446845D01*
X52355744Y-24390983D01*
X52357927Y-24331957D01*
X52337371Y-24276953D01*
X52306451Y-24242486D01*
X52275580Y-24223189D01*
X52227058Y-24198759D01*
X52170515Y-24173985D01*
X52161090Y-24170199D01*
X52098981Y-24142791D01*
X52063178Y-24118634D01*
X52051663Y-24094619D01*
X52062420Y-24067635D01*
X52080886Y-24046543D01*
X52124531Y-24020572D01*
X52172554Y-24018624D01*
X52216594Y-24038637D01*
X52248291Y-24078551D01*
X52252451Y-24088848D01*
X52276673Y-24126724D01*
X52312035Y-24154842D01*
X52356657Y-24177917D01*
X52356657Y-24112485D01*
X52354031Y-24072506D01*
X52342770Y-24040997D01*
X52317801Y-24007378D01*
X52293831Y-23981484D01*
X52256559Y-23944817D01*
X52227599Y-23925121D01*
X52196495Y-23917220D01*
X52161287Y-23915914D01*
X52084124Y-23927335D01*
G37*
X52084124Y-23927335D02*
X52042333Y-23946344D01*
X52009531Y-23969378D01*
X51985497Y-23995133D01*
X51968903Y-24028358D01*
X51958423Y-24073800D01*
X51952729Y-24136207D01*
X51950493Y-24220327D01*
X51950257Y-24275721D01*
X51950257Y-24491826D01*
X51987226Y-24508670D01*
X52016344Y-24520981D01*
X52030769Y-24525514D01*
X52033528Y-24512025D01*
X52035718Y-24475653D01*
X52037058Y-24422542D01*
X52037343Y-24380372D01*
X52038566Y-24319447D01*
X52041864Y-24271115D01*
X52046679Y-24241518D01*
X52050504Y-24235229D01*
X52076217Y-24241652D01*
X52116582Y-24258125D01*
X52163321Y-24280458D01*
X52208155Y-24304457D01*
X52242807Y-24325930D01*
X52258998Y-24340685D01*
X52259062Y-24340845D01*
X52257670Y-24368152D01*
X52245182Y-24394219D01*
X52223257Y-24415392D01*
X52191257Y-24422474D01*
X52163908Y-24421649D01*
X52125174Y-24421042D01*
X52104842Y-24430116D01*
X52092631Y-24454092D01*
X52091091Y-24458613D01*
X52085797Y-24492806D01*
X52099953Y-24513568D01*
X52136852Y-24523462D01*
X52176711Y-24525292D01*
X52248438Y-24511727D01*
X52285568Y-24492355D01*
X52331424Y-24446845D01*
X52355744Y-24390983D01*
X52357927Y-24331957D01*
X52337371Y-24276953D01*
X52306451Y-24242486D01*
X52275580Y-24223189D01*
X52227058Y-24198759D01*
X52170515Y-24173985D01*
X52161090Y-24170199D01*
X52098981Y-24142791D01*
X52063178Y-24118634D01*
X52051663Y-24094619D01*
X52062420Y-24067635D01*
X52080886Y-24046543D01*
X52124531Y-24020572D01*
X52172554Y-24018624D01*
X52216594Y-24038637D01*
X52248291Y-24078551D01*
X52252451Y-24088848D01*
X52276673Y-24126724D01*
X52312035Y-24154842D01*
X52356657Y-24177917D01*
X52356657Y-24112485D01*
X52354031Y-24072506D01*
X52342770Y-24040997D01*
X52317801Y-24007378D01*
X52293831Y-23981484D01*
X52256559Y-23944817D01*
X52227599Y-23925121D01*
X52196495Y-23917220D01*
X52161287Y-23915914D01*
X52084124Y-23927335D01*
G36*
X52449167Y-23929663D02*
G01*
X52446952Y-23967850D01*
X52445216Y-24025886D01*
X52444101Y-24099180D01*
X52443743Y-24176055D01*
X52443743Y-24436196D01*
X52489674Y-24482127D01*
X52521325Y-24510429D01*
X52549110Y-24521893D01*
X52587085Y-24521168D01*
X52602160Y-24519321D01*
X52649274Y-24513948D01*
X52688244Y-24510869D01*
X52697743Y-24510585D01*
X52729767Y-24512445D01*
X52775568Y-24517114D01*
X52793326Y-24519321D01*
X52836943Y-24522735D01*
X52866255Y-24515320D01*
X52895320Y-24492427D01*
X52905812Y-24482127D01*
X52951743Y-24436196D01*
X52951743Y-23949602D01*
X52914774Y-23932758D01*
X52882941Y-23920282D01*
X52864317Y-23915914D01*
X52859542Y-23929718D01*
X52855079Y-23968286D01*
X52851225Y-24027356D01*
X52848278Y-24102663D01*
X52846857Y-24166286D01*
X52842886Y-24416657D01*
X52808241Y-24421556D01*
X52776732Y-24418131D01*
X52761292Y-24407041D01*
X52756977Y-24386308D01*
X52753292Y-24342145D01*
X52750531Y-24280146D01*
X52748988Y-24205909D01*
X52748765Y-24167706D01*
X52748543Y-23947783D01*
X52702834Y-23931849D01*
X52670482Y-23921015D01*
X52652885Y-23915962D01*
X52652377Y-23915914D01*
X52650612Y-23929648D01*
X52648671Y-23967730D01*
X52646718Y-24025482D01*
X52644916Y-24098227D01*
X52643657Y-24166286D01*
X52639686Y-24416657D01*
X52552600Y-24416657D01*
X52548604Y-24188240D01*
X52544608Y-23959822D01*
X52502153Y-23937868D01*
X52470808Y-23922793D01*
X52452256Y-23915951D01*
X52451721Y-23915914D01*
X52449167Y-23929663D01*
G37*
X52449167Y-23929663D02*
X52446952Y-23967850D01*
X52445216Y-24025886D01*
X52444101Y-24099180D01*
X52443743Y-24176055D01*
X52443743Y-24436196D01*
X52489674Y-24482127D01*
X52521325Y-24510429D01*
X52549110Y-24521893D01*
X52587085Y-24521168D01*
X52602160Y-24519321D01*
X52649274Y-24513948D01*
X52688244Y-24510869D01*
X52697743Y-24510585D01*
X52729767Y-24512445D01*
X52775568Y-24517114D01*
X52793326Y-24519321D01*
X52836943Y-24522735D01*
X52866255Y-24515320D01*
X52895320Y-24492427D01*
X52905812Y-24482127D01*
X52951743Y-24436196D01*
X52951743Y-23949602D01*
X52914774Y-23932758D01*
X52882941Y-23920282D01*
X52864317Y-23915914D01*
X52859542Y-23929718D01*
X52855079Y-23968286D01*
X52851225Y-24027356D01*
X52848278Y-24102663D01*
X52846857Y-24166286D01*
X52842886Y-24416657D01*
X52808241Y-24421556D01*
X52776732Y-24418131D01*
X52761292Y-24407041D01*
X52756977Y-24386308D01*
X52753292Y-24342145D01*
X52750531Y-24280146D01*
X52748988Y-24205909D01*
X52748765Y-24167706D01*
X52748543Y-23947783D01*
X52702834Y-23931849D01*
X52670482Y-23921015D01*
X52652885Y-23915962D01*
X52652377Y-23915914D01*
X52650612Y-23929648D01*
X52648671Y-23967730D01*
X52646718Y-24025482D01*
X52644916Y-24098227D01*
X52643657Y-24166286D01*
X52639686Y-24416657D01*
X52552600Y-24416657D01*
X52548604Y-24188240D01*
X52544608Y-23959822D01*
X52502153Y-23937868D01*
X52470808Y-23922793D01*
X52452256Y-23915951D01*
X52451721Y-23915914D01*
X52449167Y-23929663D01*
G36*
X53038883Y-24036358D02*
G01*
X53039067Y-24144837D01*
X53039781Y-24228287D01*
X53041325Y-24290704D01*
X53043999Y-24336085D01*
X53048106Y-24368429D01*
X53053945Y-24391733D01*
X53061818Y-24409995D01*
X53067779Y-24420418D01*
X53117145Y-24476945D01*
X53179736Y-24512377D01*
X53248987Y-24525090D01*
X53318332Y-24513463D01*
X53359625Y-24492568D01*
X53402975Y-24456422D01*
X53432519Y-24412276D01*
X53450345Y-24354462D01*
X53458537Y-24277313D01*
X53459698Y-24220714D01*
X53459542Y-24216647D01*
X53358143Y-24216647D01*
X53357524Y-24281550D01*
X53354686Y-24324514D01*
X53348160Y-24352622D01*
X53336477Y-24372953D01*
X53322517Y-24388288D01*
X53275635Y-24417890D01*
X53225299Y-24420419D01*
X53177724Y-24395705D01*
X53174021Y-24392356D01*
X53158217Y-24374935D01*
X53148307Y-24354209D01*
X53142942Y-24323362D01*
X53140772Y-24275577D01*
X53140429Y-24222748D01*
X53141173Y-24156381D01*
X53144252Y-24112106D01*
X53150939Y-24083009D01*
X53162504Y-24062173D01*
X53171987Y-24051107D01*
X53216040Y-24023198D01*
X53266776Y-24019843D01*
X53315204Y-24041159D01*
X53324550Y-24049073D01*
X53340460Y-24066647D01*
X53350390Y-24087587D01*
X53355722Y-24118782D01*
X53357837Y-24167122D01*
X53358143Y-24216647D01*
X53459542Y-24216647D01*
X53456190Y-24129568D01*
X53444274Y-24061086D01*
X53421865Y-24009600D01*
X53386876Y-23969443D01*
X53359625Y-23948861D01*
X53310093Y-23926625D01*
X53252684Y-23916304D01*
X53199318Y-23919067D01*
X53169457Y-23930212D01*
X53157739Y-23933383D01*
X53149963Y-23921557D01*
X53144535Y-23889866D01*
X53140429Y-23841593D01*
X53135933Y-23787829D01*
X53129687Y-23755482D01*
X53118324Y-23736985D01*
X53098472Y-23724770D01*
X53086000Y-23719362D01*
X53038829Y-23699601D01*
X53038883Y-24036358D01*
G37*
X53038883Y-24036358D02*
X53039067Y-24144837D01*
X53039781Y-24228287D01*
X53041325Y-24290704D01*
X53043999Y-24336085D01*
X53048106Y-24368429D01*
X53053945Y-24391733D01*
X53061818Y-24409995D01*
X53067779Y-24420418D01*
X53117145Y-24476945D01*
X53179736Y-24512377D01*
X53248987Y-24525090D01*
X53318332Y-24513463D01*
X53359625Y-24492568D01*
X53402975Y-24456422D01*
X53432519Y-24412276D01*
X53450345Y-24354462D01*
X53458537Y-24277313D01*
X53459698Y-24220714D01*
X53459542Y-24216647D01*
X53358143Y-24216647D01*
X53357524Y-24281550D01*
X53354686Y-24324514D01*
X53348160Y-24352622D01*
X53336477Y-24372953D01*
X53322517Y-24388288D01*
X53275635Y-24417890D01*
X53225299Y-24420419D01*
X53177724Y-24395705D01*
X53174021Y-24392356D01*
X53158217Y-24374935D01*
X53148307Y-24354209D01*
X53142942Y-24323362D01*
X53140772Y-24275577D01*
X53140429Y-24222748D01*
X53141173Y-24156381D01*
X53144252Y-24112106D01*
X53150939Y-24083009D01*
X53162504Y-24062173D01*
X53171987Y-24051107D01*
X53216040Y-24023198D01*
X53266776Y-24019843D01*
X53315204Y-24041159D01*
X53324550Y-24049073D01*
X53340460Y-24066647D01*
X53350390Y-24087587D01*
X53355722Y-24118782D01*
X53357837Y-24167122D01*
X53358143Y-24216647D01*
X53459542Y-24216647D01*
X53456190Y-24129568D01*
X53444274Y-24061086D01*
X53421865Y-24009600D01*
X53386876Y-23969443D01*
X53359625Y-23948861D01*
X53310093Y-23926625D01*
X53252684Y-23916304D01*
X53199318Y-23919067D01*
X53169457Y-23930212D01*
X53157739Y-23933383D01*
X53149963Y-23921557D01*
X53144535Y-23889866D01*
X53140429Y-23841593D01*
X53135933Y-23787829D01*
X53129687Y-23755482D01*
X53118324Y-23736985D01*
X53098472Y-23724770D01*
X53086000Y-23719362D01*
X53038829Y-23699601D01*
X53038883Y-24036358D01*
G36*
X53699074Y-23920755D02*
G01*
X53633142Y-23945084D01*
X53579727Y-23988117D01*
X53558836Y-24018409D01*
X53536061Y-24073994D01*
X53536534Y-24114186D01*
X53560438Y-24141217D01*
X53569283Y-24145813D01*
X53607470Y-24160144D01*
X53626972Y-24156472D01*
X53633578Y-24132407D01*
X53633914Y-24119114D01*
X53646008Y-24070210D01*
X53677529Y-24035999D01*
X53721341Y-24019476D01*
X53770305Y-24023634D01*
X53810106Y-24045227D01*
X53823550Y-24057544D01*
X53833079Y-24072487D01*
X53839515Y-24095075D01*
X53843683Y-24130328D01*
X53846403Y-24183266D01*
X53848498Y-24258907D01*
X53849040Y-24282857D01*
X53851019Y-24364790D01*
X53853269Y-24422455D01*
X53856643Y-24460608D01*
X53861994Y-24484004D01*
X53870176Y-24497398D01*
X53882041Y-24505545D01*
X53889638Y-24509144D01*
X53921898Y-24521452D01*
X53940889Y-24525514D01*
X53947164Y-24511948D01*
X53950994Y-24470934D01*
X53952400Y-24401999D01*
X53951402Y-24304669D01*
X53951092Y-24289657D01*
X53948899Y-24200859D01*
X53946307Y-24136019D01*
X53942618Y-24090067D01*
X53937136Y-24057935D01*
X53929165Y-24034553D01*
X53918007Y-24014852D01*
X53912170Y-24006410D01*
X53878704Y-23969057D01*
X53841273Y-23940003D01*
X53836691Y-23937467D01*
X53769574Y-23917443D01*
X53699074Y-23920755D01*
G37*
X53699074Y-23920755D02*
X53633142Y-23945084D01*
X53579727Y-23988117D01*
X53558836Y-24018409D01*
X53536061Y-24073994D01*
X53536534Y-24114186D01*
X53560438Y-24141217D01*
X53569283Y-24145813D01*
X53607470Y-24160144D01*
X53626972Y-24156472D01*
X53633578Y-24132407D01*
X53633914Y-24119114D01*
X53646008Y-24070210D01*
X53677529Y-24035999D01*
X53721341Y-24019476D01*
X53770305Y-24023634D01*
X53810106Y-24045227D01*
X53823550Y-24057544D01*
X53833079Y-24072487D01*
X53839515Y-24095075D01*
X53843683Y-24130328D01*
X53846403Y-24183266D01*
X53848498Y-24258907D01*
X53849040Y-24282857D01*
X53851019Y-24364790D01*
X53853269Y-24422455D01*
X53856643Y-24460608D01*
X53861994Y-24484004D01*
X53870176Y-24497398D01*
X53882041Y-24505545D01*
X53889638Y-24509144D01*
X53921898Y-24521452D01*
X53940889Y-24525514D01*
X53947164Y-24511948D01*
X53950994Y-24470934D01*
X53952400Y-24401999D01*
X53951402Y-24304669D01*
X53951092Y-24289657D01*
X53948899Y-24200859D01*
X53946307Y-24136019D01*
X53942618Y-24090067D01*
X53937136Y-24057935D01*
X53929165Y-24034553D01*
X53918007Y-24014852D01*
X53912170Y-24006410D01*
X53878704Y-23969057D01*
X53841273Y-23940003D01*
X53836691Y-23937467D01*
X53769574Y-23917443D01*
X53699074Y-23920755D01*
G36*
X54189256Y-23921968D02*
G01*
X54132384Y-23943087D01*
X54131733Y-23943493D01*
X54096560Y-23969380D01*
X54070593Y-23999633D01*
X54052330Y-24039058D01*
X54040268Y-24092462D01*
X54032904Y-24164651D01*
X54028736Y-24260432D01*
X54028371Y-24274078D01*
X54023124Y-24479842D01*
X54067284Y-24502678D01*
X54099237Y-24518110D01*
X54118530Y-24525423D01*
X54119422Y-24525514D01*
X54122761Y-24512022D01*
X54125413Y-24475626D01*
X54127044Y-24422452D01*
X54127400Y-24379393D01*
X54127408Y-24309641D01*
X54130597Y-24265837D01*
X54141712Y-24244944D01*
X54165499Y-24243925D01*
X54206704Y-24259741D01*
X54268914Y-24288815D01*
X54314659Y-24312963D01*
X54338187Y-24333913D01*
X54345104Y-24356747D01*
X54345114Y-24357877D01*
X54333701Y-24397212D01*
X54299908Y-24418462D01*
X54248191Y-24421539D01*
X54210939Y-24421006D01*
X54191297Y-24431735D01*
X54179048Y-24457505D01*
X54171998Y-24490337D01*
X54182158Y-24508966D01*
X54185983Y-24511632D01*
X54221999Y-24522340D01*
X54272434Y-24523856D01*
X54324374Y-24516759D01*
X54361178Y-24503788D01*
X54412062Y-24460585D01*
X54440986Y-24400446D01*
X54446714Y-24353462D01*
X54442343Y-24311082D01*
X54426525Y-24276488D01*
X54395203Y-24245763D01*
X54344322Y-24214990D01*
X54269824Y-24180252D01*
X54265286Y-24178288D01*
X54198179Y-24147287D01*
X54156768Y-24121862D01*
X54139019Y-24099014D01*
X54142893Y-24075745D01*
X54166357Y-24049056D01*
X54173373Y-24042914D01*
X54220370Y-24019100D01*
X54269067Y-24020103D01*
X54311478Y-24043451D01*
X54339616Y-24086675D01*
X54342231Y-24095160D01*
X54367692Y-24136308D01*
X54399999Y-24156128D01*
X54446714Y-24175770D01*
X54446714Y-24124950D01*
X54432504Y-24051082D01*
X54390325Y-23983327D01*
X54368376Y-23960661D01*
X54318483Y-23931569D01*
X54255033Y-23918400D01*
X54189256Y-23921968D01*
G37*
X54189256Y-23921968D02*
X54132384Y-23943087D01*
X54131733Y-23943493D01*
X54096560Y-23969380D01*
X54070593Y-23999633D01*
X54052330Y-24039058D01*
X54040268Y-24092462D01*
X54032904Y-24164651D01*
X54028736Y-24260432D01*
X54028371Y-24274078D01*
X54023124Y-24479842D01*
X54067284Y-24502678D01*
X54099237Y-24518110D01*
X54118530Y-24525423D01*
X54119422Y-24525514D01*
X54122761Y-24512022D01*
X54125413Y-24475626D01*
X54127044Y-24422452D01*
X54127400Y-24379393D01*
X54127408Y-24309641D01*
X54130597Y-24265837D01*
X54141712Y-24244944D01*
X54165499Y-24243925D01*
X54206704Y-24259741D01*
X54268914Y-24288815D01*
X54314659Y-24312963D01*
X54338187Y-24333913D01*
X54345104Y-24356747D01*
X54345114Y-24357877D01*
X54333701Y-24397212D01*
X54299908Y-24418462D01*
X54248191Y-24421539D01*
X54210939Y-24421006D01*
X54191297Y-24431735D01*
X54179048Y-24457505D01*
X54171998Y-24490337D01*
X54182158Y-24508966D01*
X54185983Y-24511632D01*
X54221999Y-24522340D01*
X54272434Y-24523856D01*
X54324374Y-24516759D01*
X54361178Y-24503788D01*
X54412062Y-24460585D01*
X54440986Y-24400446D01*
X54446714Y-24353462D01*
X54442343Y-24311082D01*
X54426525Y-24276488D01*
X54395203Y-24245763D01*
X54344322Y-24214990D01*
X54269824Y-24180252D01*
X54265286Y-24178288D01*
X54198179Y-24147287D01*
X54156768Y-24121862D01*
X54139019Y-24099014D01*
X54142893Y-24075745D01*
X54166357Y-24049056D01*
X54173373Y-24042914D01*
X54220370Y-24019100D01*
X54269067Y-24020103D01*
X54311478Y-24043451D01*
X54339616Y-24086675D01*
X54342231Y-24095160D01*
X54367692Y-24136308D01*
X54399999Y-24156128D01*
X54446714Y-24175770D01*
X54446714Y-24124950D01*
X54432504Y-24051082D01*
X54390325Y-23983327D01*
X54368376Y-23960661D01*
X54318483Y-23931569D01*
X54255033Y-23918400D01*
X54189256Y-23921968D01*
G36*
X54853114Y-23822289D02*
G01*
X54848861Y-23881613D01*
X54843975Y-23916572D01*
X54837205Y-23931820D01*
X54827298Y-23932015D01*
X54824086Y-23930195D01*
X54781356Y-23917015D01*
X54725773Y-23917785D01*
X54669263Y-23931333D01*
X54633918Y-23948861D01*
X54597679Y-23976861D01*
X54571187Y-24008549D01*
X54553001Y-24048813D01*
X54541678Y-24102543D01*
X54535778Y-24174626D01*
X54533857Y-24269951D01*
X54533823Y-24288237D01*
X54533800Y-24493646D01*
X54579509Y-24509580D01*
X54611973Y-24520420D01*
X54629785Y-24525468D01*
X54630309Y-24525514D01*
X54632063Y-24511828D01*
X54633556Y-24474076D01*
X54634674Y-24417224D01*
X54635303Y-24346234D01*
X54635400Y-24303073D01*
X54635602Y-24217973D01*
X54636642Y-24156981D01*
X54639169Y-24115177D01*
X54643836Y-24087642D01*
X54651293Y-24069456D01*
X54662189Y-24055698D01*
X54668993Y-24049073D01*
X54715728Y-24022375D01*
X54766728Y-24020375D01*
X54812999Y-24042955D01*
X54821556Y-24051107D01*
X54834107Y-24066436D01*
X54842812Y-24084618D01*
X54848369Y-24110909D01*
X54851474Y-24150562D01*
X54852824Y-24208832D01*
X54853114Y-24289173D01*
X54853114Y-24493646D01*
X54898823Y-24509580D01*
X54931287Y-24520420D01*
X54949099Y-24525468D01*
X54949623Y-24525514D01*
X54950963Y-24511623D01*
X54952172Y-24472439D01*
X54953199Y-24411700D01*
X54953998Y-24333141D01*
X54954519Y-24240498D01*
X54954714Y-24137509D01*
X54954714Y-23740342D01*
X54907543Y-23720444D01*
X54860371Y-23700547D01*
X54853114Y-23822289D01*
G37*
X54853114Y-23822289D02*
X54848861Y-23881613D01*
X54843975Y-23916572D01*
X54837205Y-23931820D01*
X54827298Y-23932015D01*
X54824086Y-23930195D01*
X54781356Y-23917015D01*
X54725773Y-23917785D01*
X54669263Y-23931333D01*
X54633918Y-23948861D01*
X54597679Y-23976861D01*
X54571187Y-24008549D01*
X54553001Y-24048813D01*
X54541678Y-24102543D01*
X54535778Y-24174626D01*
X54533857Y-24269951D01*
X54533823Y-24288237D01*
X54533800Y-24493646D01*
X54579509Y-24509580D01*
X54611973Y-24520420D01*
X54629785Y-24525468D01*
X54630309Y-24525514D01*
X54632063Y-24511828D01*
X54633556Y-24474076D01*
X54634674Y-24417224D01*
X54635303Y-24346234D01*
X54635400Y-24303073D01*
X54635602Y-24217973D01*
X54636642Y-24156981D01*
X54639169Y-24115177D01*
X54643836Y-24087642D01*
X54651293Y-24069456D01*
X54662189Y-24055698D01*
X54668993Y-24049073D01*
X54715728Y-24022375D01*
X54766728Y-24020375D01*
X54812999Y-24042955D01*
X54821556Y-24051107D01*
X54834107Y-24066436D01*
X54842812Y-24084618D01*
X54848369Y-24110909D01*
X54851474Y-24150562D01*
X54852824Y-24208832D01*
X54853114Y-24289173D01*
X54853114Y-24493646D01*
X54898823Y-24509580D01*
X54931287Y-24520420D01*
X54949099Y-24525468D01*
X54949623Y-24525514D01*
X54950963Y-24511623D01*
X54952172Y-24472439D01*
X54953199Y-24411700D01*
X54953998Y-24333141D01*
X54954519Y-24240498D01*
X54954714Y-24137509D01*
X54954714Y-23740342D01*
X54907543Y-23720444D01*
X54860371Y-23700547D01*
X54853114Y-23822289D01*
G36*
X56060697Y-23902239D02*
G01*
X56003473Y-23940735D01*
X55959251Y-23996335D01*
X55932833Y-24067086D01*
X55927490Y-24119162D01*
X55928097Y-24140893D01*
X55933178Y-24157531D01*
X55947145Y-24172437D01*
X55974411Y-24188973D01*
X56019388Y-24210498D01*
X56086489Y-24240374D01*
X56086829Y-24240524D01*
X56148593Y-24268813D01*
X56199241Y-24293933D01*
X56233596Y-24313179D01*
X56246482Y-24323848D01*
X56246486Y-24323934D01*
X56235128Y-24347166D01*
X56208569Y-24372774D01*
X56178077Y-24391221D01*
X56162630Y-24394886D01*
X56120485Y-24382212D01*
X56084192Y-24350471D01*
X56066483Y-24315572D01*
X56049448Y-24289845D01*
X56016078Y-24260546D01*
X55976851Y-24235235D01*
X55942244Y-24221471D01*
X55935007Y-24220714D01*
X55926861Y-24233160D01*
X55926370Y-24264972D01*
X55932357Y-24307866D01*
X55943643Y-24353558D01*
X55959050Y-24393761D01*
X55959829Y-24395322D01*
X56006196Y-24460062D01*
X56066289Y-24504097D01*
X56134535Y-24525711D01*
X56205362Y-24523185D01*
X56273196Y-24494804D01*
X56276212Y-24492808D01*
X56329573Y-24444448D01*
X56364660Y-24381352D01*
X56384078Y-24298387D01*
X56386684Y-24275078D01*
X56391299Y-24165055D01*
X56385767Y-24113748D01*
X56246486Y-24113748D01*
X56244676Y-24145753D01*
X56234778Y-24155093D01*
X56210102Y-24148105D01*
X56171205Y-24131587D01*
X56127725Y-24110881D01*
X56126644Y-24110333D01*
X56089791Y-24090949D01*
X56075000Y-24078013D01*
X56078647Y-24064451D01*
X56094005Y-24046632D01*
X56133077Y-24020845D01*
X56175154Y-24018950D01*
X56212897Y-24037717D01*
X56238966Y-24073915D01*
X56246486Y-24113748D01*
X56385767Y-24113748D01*
X56381806Y-24077027D01*
X56357450Y-24007212D01*
X56323544Y-23958302D01*
X56262347Y-23908878D01*
X56194937Y-23884359D01*
X56126120Y-23882797D01*
X56060697Y-23902239D01*
G37*
X56060697Y-23902239D02*
X56003473Y-23940735D01*
X55959251Y-23996335D01*
X55932833Y-24067086D01*
X55927490Y-24119162D01*
X55928097Y-24140893D01*
X55933178Y-24157531D01*
X55947145Y-24172437D01*
X55974411Y-24188973D01*
X56019388Y-24210498D01*
X56086489Y-24240374D01*
X56086829Y-24240524D01*
X56148593Y-24268813D01*
X56199241Y-24293933D01*
X56233596Y-24313179D01*
X56246482Y-24323848D01*
X56246486Y-24323934D01*
X56235128Y-24347166D01*
X56208569Y-24372774D01*
X56178077Y-24391221D01*
X56162630Y-24394886D01*
X56120485Y-24382212D01*
X56084192Y-24350471D01*
X56066483Y-24315572D01*
X56049448Y-24289845D01*
X56016078Y-24260546D01*
X55976851Y-24235235D01*
X55942244Y-24221471D01*
X55935007Y-24220714D01*
X55926861Y-24233160D01*
X55926370Y-24264972D01*
X55932357Y-24307866D01*
X55943643Y-24353558D01*
X55959050Y-24393761D01*
X55959829Y-24395322D01*
X56006196Y-24460062D01*
X56066289Y-24504097D01*
X56134535Y-24525711D01*
X56205362Y-24523185D01*
X56273196Y-24494804D01*
X56276212Y-24492808D01*
X56329573Y-24444448D01*
X56364660Y-24381352D01*
X56384078Y-24298387D01*
X56386684Y-24275078D01*
X56391299Y-24165055D01*
X56385767Y-24113748D01*
X56246486Y-24113748D01*
X56244676Y-24145753D01*
X56234778Y-24155093D01*
X56210102Y-24148105D01*
X56171205Y-24131587D01*
X56127725Y-24110881D01*
X56126644Y-24110333D01*
X56089791Y-24090949D01*
X56075000Y-24078013D01*
X56078647Y-24064451D01*
X56094005Y-24046632D01*
X56133077Y-24020845D01*
X56175154Y-24018950D01*
X56212897Y-24037717D01*
X56238966Y-24073915D01*
X56246486Y-24113748D01*
X56385767Y-24113748D01*
X56381806Y-24077027D01*
X56357450Y-24007212D01*
X56323544Y-23958302D01*
X56262347Y-23908878D01*
X56194937Y-23884359D01*
X56126120Y-23882797D01*
X56060697Y-23902239D01*
G36*
X57187885Y-23892962D02*
G01*
X57119855Y-23928733D01*
X57069649Y-23986301D01*
X57051815Y-24023312D01*
X57037937Y-24078882D01*
X57030833Y-24149096D01*
X57030160Y-24225727D01*
X57035573Y-24300552D01*
X57046730Y-24365342D01*
X57063286Y-24411873D01*
X57068374Y-24419887D01*
X57128645Y-24479707D01*
X57200231Y-24515535D01*
X57277908Y-24526020D01*
X57356452Y-24509810D01*
X57378311Y-24500092D01*
X57420878Y-24470143D01*
X57458237Y-24430433D01*
X57461768Y-24425397D01*
X57476119Y-24401124D01*
X57485606Y-24375178D01*
X57491210Y-24341022D01*
X57493914Y-24292119D01*
X57494701Y-24221935D01*
X57494714Y-24206200D01*
X57494678Y-24201192D01*
X57349571Y-24201192D01*
X57348727Y-24267430D01*
X57345404Y-24311386D01*
X57338417Y-24339779D01*
X57326584Y-24359325D01*
X57320543Y-24365857D01*
X57285814Y-24390680D01*
X57252097Y-24389548D01*
X57218005Y-24368016D01*
X57197671Y-24345029D01*
X57185629Y-24311478D01*
X57178866Y-24258569D01*
X57178402Y-24252399D01*
X57177248Y-24156513D01*
X57189312Y-24085299D01*
X57214430Y-24039194D01*
X57252440Y-24018635D01*
X57266008Y-24017514D01*
X57301636Y-24023152D01*
X57326006Y-24042686D01*
X57340907Y-24080042D01*
X57348125Y-24139150D01*
X57349571Y-24201192D01*
X57494678Y-24201192D01*
X57494174Y-24131413D01*
X57491904Y-24079159D01*
X57486932Y-24042949D01*
X57478287Y-24016299D01*
X57464995Y-23992722D01*
X57462057Y-23988338D01*
X57412687Y-23929249D01*
X57358891Y-23894947D01*
X57293398Y-23881331D01*
X57271158Y-23880665D01*
X57187885Y-23892962D01*
G37*
X57187885Y-23892962D02*
X57119855Y-23928733D01*
X57069649Y-23986301D01*
X57051815Y-24023312D01*
X57037937Y-24078882D01*
X57030833Y-24149096D01*
X57030160Y-24225727D01*
X57035573Y-24300552D01*
X57046730Y-24365342D01*
X57063286Y-24411873D01*
X57068374Y-24419887D01*
X57128645Y-24479707D01*
X57200231Y-24515535D01*
X57277908Y-24526020D01*
X57356452Y-24509810D01*
X57378311Y-24500092D01*
X57420878Y-24470143D01*
X57458237Y-24430433D01*
X57461768Y-24425397D01*
X57476119Y-24401124D01*
X57485606Y-24375178D01*
X57491210Y-24341022D01*
X57493914Y-24292119D01*
X57494701Y-24221935D01*
X57494714Y-24206200D01*
X57494678Y-24201192D01*
X57349571Y-24201192D01*
X57348727Y-24267430D01*
X57345404Y-24311386D01*
X57338417Y-24339779D01*
X57326584Y-24359325D01*
X57320543Y-24365857D01*
X57285814Y-24390680D01*
X57252097Y-24389548D01*
X57218005Y-24368016D01*
X57197671Y-24345029D01*
X57185629Y-24311478D01*
X57178866Y-24258569D01*
X57178402Y-24252399D01*
X57177248Y-24156513D01*
X57189312Y-24085299D01*
X57214430Y-24039194D01*
X57252440Y-24018635D01*
X57266008Y-24017514D01*
X57301636Y-24023152D01*
X57326006Y-24042686D01*
X57340907Y-24080042D01*
X57348125Y-24139150D01*
X57349571Y-24201192D01*
X57494678Y-24201192D01*
X57494174Y-24131413D01*
X57491904Y-24079159D01*
X57486932Y-24042949D01*
X57478287Y-24016299D01*
X57464995Y-23992722D01*
X57462057Y-23988338D01*
X57412687Y-23929249D01*
X57358891Y-23894947D01*
X57293398Y-23881331D01*
X57271158Y-23880665D01*
X57187885Y-23892962D01*
G36*
X55512907Y-23898780D02*
G01*
X55466328Y-23925723D01*
X55433943Y-23952466D01*
X55410258Y-23980484D01*
X55393941Y-24014748D01*
X55383661Y-24060227D01*
X55378086Y-24121892D01*
X55375884Y-24204711D01*
X55375629Y-24264246D01*
X55375629Y-24483391D01*
X55437314Y-24511044D01*
X55499000Y-24538697D01*
X55506257Y-24298670D01*
X55509256Y-24209028D01*
X55512402Y-24143962D01*
X55516299Y-24099026D01*
X55521553Y-24069770D01*
X55528769Y-24051748D01*
X55538550Y-24040511D01*
X55541688Y-24038079D01*
X55589239Y-24019083D01*
X55637303Y-24026600D01*
X55665914Y-24046543D01*
X55677553Y-24060675D01*
X55685609Y-24079220D01*
X55690729Y-24107334D01*
X55693559Y-24150173D01*
X55694744Y-24212895D01*
X55694943Y-24278261D01*
X55694982Y-24360268D01*
X55696386Y-24418316D01*
X55701086Y-24457465D01*
X55711013Y-24482780D01*
X55728097Y-24499323D01*
X55754268Y-24512156D01*
X55789225Y-24525491D01*
X55827404Y-24540007D01*
X55822859Y-24282389D01*
X55821029Y-24189519D01*
X55818888Y-24120889D01*
X55815819Y-24071711D01*
X55811206Y-24037198D01*
X55804432Y-24012562D01*
X55794881Y-23993016D01*
X55783366Y-23975770D01*
X55727810Y-23920680D01*
X55660020Y-23888822D01*
X55586287Y-23881191D01*
X55512907Y-23898780D01*
G37*
X55512907Y-23898780D02*
X55466328Y-23925723D01*
X55433943Y-23952466D01*
X55410258Y-23980484D01*
X55393941Y-24014748D01*
X55383661Y-24060227D01*
X55378086Y-24121892D01*
X55375884Y-24204711D01*
X55375629Y-24264246D01*
X55375629Y-24483391D01*
X55437314Y-24511044D01*
X55499000Y-24538697D01*
X55506257Y-24298670D01*
X55509256Y-24209028D01*
X55512402Y-24143962D01*
X55516299Y-24099026D01*
X55521553Y-24069770D01*
X55528769Y-24051748D01*
X55538550Y-24040511D01*
X55541688Y-24038079D01*
X55589239Y-24019083D01*
X55637303Y-24026600D01*
X55665914Y-24046543D01*
X55677553Y-24060675D01*
X55685609Y-24079220D01*
X55690729Y-24107334D01*
X55693559Y-24150173D01*
X55694744Y-24212895D01*
X55694943Y-24278261D01*
X55694982Y-24360268D01*
X55696386Y-24418316D01*
X55701086Y-24457465D01*
X55711013Y-24482780D01*
X55728097Y-24499323D01*
X55754268Y-24512156D01*
X55789225Y-24525491D01*
X55827404Y-24540007D01*
X55822859Y-24282389D01*
X55821029Y-24189519D01*
X55818888Y-24120889D01*
X55815819Y-24071711D01*
X55811206Y-24037198D01*
X55804432Y-24012562D01*
X55794881Y-23993016D01*
X55783366Y-23975770D01*
X55727810Y-23920680D01*
X55660020Y-23888822D01*
X55586287Y-23881191D01*
X55512907Y-23898780D01*
G36*
X56629256Y-23890918D02*
G01*
X56573799Y-23918568D01*
X56524852Y-23969480D01*
X56511371Y-23988338D01*
X56496686Y-24013015D01*
X56487158Y-24039816D01*
X56481707Y-24075587D01*
X56479253Y-24127169D01*
X56478714Y-24195267D01*
X56481148Y-24288588D01*
X56489606Y-24358657D01*
X56505826Y-24410931D01*
X56531546Y-24450869D01*
X56568503Y-24483929D01*
X56571218Y-24485886D01*
X56607640Y-24505908D01*
X56651498Y-24515815D01*
X56707276Y-24518257D01*
X56797952Y-24518257D01*
X56797990Y-24606283D01*
X56798834Y-24655308D01*
X56803976Y-24684065D01*
X56817413Y-24701311D01*
X56843142Y-24715808D01*
X56849321Y-24718769D01*
X56878236Y-24732648D01*
X56900624Y-24741414D01*
X56917271Y-24742171D01*
X56928964Y-24732023D01*
X56936490Y-24708073D01*
X56940634Y-24667426D01*
X56942185Y-24607186D01*
X56941929Y-24524455D01*
X56940651Y-24416339D01*
X56940252Y-24384000D01*
X56938815Y-24272524D01*
X56937528Y-24199603D01*
X56798029Y-24199603D01*
X56797245Y-24261499D01*
X56793760Y-24301997D01*
X56785876Y-24328708D01*
X56771895Y-24349244D01*
X56762403Y-24359260D01*
X56723596Y-24388567D01*
X56689237Y-24390952D01*
X56653784Y-24366750D01*
X56652886Y-24365857D01*
X56638461Y-24347153D01*
X56629687Y-24321732D01*
X56625261Y-24282584D01*
X56623882Y-24222697D01*
X56623857Y-24209430D01*
X56627188Y-24126901D01*
X56638031Y-24069691D01*
X56657660Y-24034766D01*
X56687350Y-24019094D01*
X56704509Y-24017514D01*
X56745234Y-24024926D01*
X56773168Y-24049330D01*
X56789983Y-24093980D01*
X56797350Y-24162130D01*
X56798029Y-24199603D01*
X56937528Y-24199603D01*
X56937292Y-24186245D01*
X56935323Y-24121333D01*
X56932550Y-24073958D01*
X56928612Y-24040290D01*
X56923151Y-24016498D01*
X56915808Y-23998753D01*
X56906223Y-23983224D01*
X56902113Y-23977381D01*
X56847595Y-23922185D01*
X56778664Y-23890890D01*
X56698928Y-23882165D01*
X56629256Y-23890918D01*
G37*
X56629256Y-23890918D02*
X56573799Y-23918568D01*
X56524852Y-23969480D01*
X56511371Y-23988338D01*
X56496686Y-24013015D01*
X56487158Y-24039816D01*
X56481707Y-24075587D01*
X56479253Y-24127169D01*
X56478714Y-24195267D01*
X56481148Y-24288588D01*
X56489606Y-24358657D01*
X56505826Y-24410931D01*
X56531546Y-24450869D01*
X56568503Y-24483929D01*
X56571218Y-24485886D01*
X56607640Y-24505908D01*
X56651498Y-24515815D01*
X56707276Y-24518257D01*
X56797952Y-24518257D01*
X56797990Y-24606283D01*
X56798834Y-24655308D01*
X56803976Y-24684065D01*
X56817413Y-24701311D01*
X56843142Y-24715808D01*
X56849321Y-24718769D01*
X56878236Y-24732648D01*
X56900624Y-24741414D01*
X56917271Y-24742171D01*
X56928964Y-24732023D01*
X56936490Y-24708073D01*
X56940634Y-24667426D01*
X56942185Y-24607186D01*
X56941929Y-24524455D01*
X56940651Y-24416339D01*
X56940252Y-24384000D01*
X56938815Y-24272524D01*
X56937528Y-24199603D01*
X56798029Y-24199603D01*
X56797245Y-24261499D01*
X56793760Y-24301997D01*
X56785876Y-24328708D01*
X56771895Y-24349244D01*
X56762403Y-24359260D01*
X56723596Y-24388567D01*
X56689237Y-24390952D01*
X56653784Y-24366750D01*
X56652886Y-24365857D01*
X56638461Y-24347153D01*
X56629687Y-24321732D01*
X56625261Y-24282584D01*
X56623882Y-24222697D01*
X56623857Y-24209430D01*
X56627188Y-24126901D01*
X56638031Y-24069691D01*
X56657660Y-24034766D01*
X56687350Y-24019094D01*
X56704509Y-24017514D01*
X56745234Y-24024926D01*
X56773168Y-24049330D01*
X56789983Y-24093980D01*
X56797350Y-24162130D01*
X56798029Y-24199603D01*
X56937528Y-24199603D01*
X56937292Y-24186245D01*
X56935323Y-24121333D01*
X56932550Y-24073958D01*
X56928612Y-24040290D01*
X56923151Y-24016498D01*
X56915808Y-23998753D01*
X56906223Y-23983224D01*
X56902113Y-23977381D01*
X56847595Y-23922185D01*
X56778664Y-23890890D01*
X56698928Y-23882165D01*
X56629256Y-23890918D01*
D13*
X61976000Y-35115500D02*
X61976000Y-33337500D01*
X61976000Y-46037500D02*
X61976000Y-44259500D01*
X60198000Y-46037500D02*
X61976000Y-46037500D01*
X49276000Y-46037500D02*
X51054000Y-46037500D01*
X49276000Y-44259500D02*
X49276000Y-46037500D01*
X49276000Y-33337500D02*
X49276000Y-35115500D01*
X51054000Y-33337500D02*
X49276000Y-33337500D01*
X61976000Y-33337500D02*
X60198000Y-33337500D01*
X54768800Y-92265500D02*
X54768800Y-90487500D01*
X54768800Y-103187500D02*
X54768800Y-101409500D01*
X52990800Y-103187500D02*
X54768800Y-103187500D01*
X42068800Y-103187500D02*
X43846800Y-103187500D01*
X42068800Y-101409500D02*
X42068800Y-103187500D01*
X42068800Y-90487500D02*
X42068800Y-92265500D01*
X43846800Y-90487500D02*
X42068800Y-90487500D01*
X54768800Y-90487500D02*
X52990800Y-90487500D01*
D10*
X124651000Y-41560800D02*
X124651000Y-40036800D01*
X124270000Y-40036800D02*
X124270000Y-41560800D01*
X124143000Y-41560800D02*
X124143000Y-40036800D01*
X124016000Y-41560800D02*
X124016000Y-40036800D01*
X124524000Y-40036800D02*
X124524000Y-41560800D01*
X124778000Y-40036800D02*
X119698000Y-40036800D01*
X119698000Y-40036800D02*
X119698000Y-41560800D01*
X124778000Y-41560800D02*
X124778000Y-40036800D01*
X119698000Y-41560800D02*
X124778000Y-41560800D01*
X124397000Y-41560800D02*
X124397000Y-40036800D01*
X75184000Y-56769000D02*
X73660000Y-56769000D01*
X73660000Y-57150000D02*
X75184000Y-57150000D01*
X75184000Y-57277000D02*
X73660000Y-57277000D01*
X75184000Y-57404000D02*
X73660000Y-57404000D01*
X73660000Y-56896000D02*
X75184000Y-56896000D01*
X73660000Y-56642000D02*
X73660000Y-61722000D01*
X73660000Y-61722000D02*
X75184000Y-61722000D01*
X75184000Y-56642000D02*
X73660000Y-56642000D01*
X75184000Y-61722000D02*
X75184000Y-56642000D01*
X75184000Y-57023000D02*
X73660000Y-57023000D01*
X104807000Y-45370800D02*
X104807000Y-43846800D01*
X104426000Y-43846800D02*
X104426000Y-45370800D01*
X104299000Y-45370800D02*
X104299000Y-43846800D01*
X104172000Y-45370800D02*
X104172000Y-43846800D01*
X104680000Y-43846800D02*
X104680000Y-45370800D01*
X104934000Y-43846800D02*
X99854000Y-43846800D01*
X99854000Y-43846800D02*
X99854000Y-45370800D01*
X104934000Y-45370800D02*
X104934000Y-43846800D01*
X99854000Y-45370800D02*
X104934000Y-45370800D01*
X104553000Y-45370800D02*
X104553000Y-43846800D01*
X142907000Y-45370800D02*
X142907000Y-43846800D01*
X142526000Y-43846800D02*
X142526000Y-45370800D01*
X142399000Y-45370800D02*
X142399000Y-43846800D01*
X142272000Y-45370800D02*
X142272000Y-43846800D01*
X142780000Y-43846800D02*
X142780000Y-45370800D01*
X143034000Y-43846800D02*
X137954000Y-43846800D01*
X137954000Y-43846800D02*
X137954000Y-45370800D01*
X143034000Y-45370800D02*
X143034000Y-43846800D01*
X137954000Y-45370800D02*
X143034000Y-45370800D01*
X142653000Y-45370800D02*
X142653000Y-43846800D01*
X161957000Y-49180800D02*
X161957000Y-47656800D01*
X161576000Y-47656800D02*
X161576000Y-49180800D01*
X161449000Y-49180800D02*
X161449000Y-47656800D01*
X161322000Y-49180800D02*
X161322000Y-47656800D01*
X161830000Y-47656800D02*
X161830000Y-49180800D01*
X162084000Y-47656800D02*
X157004000Y-47656800D01*
X157004000Y-47656800D02*
X157004000Y-49180800D01*
X162084000Y-49180800D02*
X162084000Y-47656800D01*
X157004000Y-49180800D02*
X162084000Y-49180800D01*
X161703000Y-49180800D02*
X161703000Y-47656800D01*
X94424500Y-112681000D02*
X92900500Y-112681000D01*
X92900500Y-113062000D02*
X94424500Y-113062000D01*
X94424500Y-113189000D02*
X92900500Y-113189000D01*
X94424500Y-113316000D02*
X92900500Y-113316000D01*
X92900500Y-112808000D02*
X94424500Y-112808000D01*
X92900500Y-112554000D02*
X92900500Y-117634000D01*
X92900500Y-117634000D02*
X94424500Y-117634000D01*
X94424500Y-112554000D02*
X92900500Y-112554000D01*
X94424500Y-117634000D02*
X94424500Y-112554000D01*
X94424500Y-112935000D02*
X92900500Y-112935000D01*
X151892000Y-109601000D02*
X150368000Y-109601000D01*
X150368000Y-109982000D02*
X151892000Y-109982000D01*
X151892000Y-110109000D02*
X150368000Y-110109000D01*
X151892000Y-110236000D02*
X150368000Y-110236000D01*
X150368000Y-109728000D02*
X151892000Y-109728000D01*
X150368000Y-109474000D02*
X150368000Y-114554000D01*
X150368000Y-114554000D02*
X151892000Y-114554000D01*
X151892000Y-109474000D02*
X150368000Y-109474000D01*
X151892000Y-114554000D02*
X151892000Y-109474000D01*
X151892000Y-109855000D02*
X150368000Y-109855000D01*
X132334000Y-105283000D02*
X130810000Y-105283000D01*
X130810000Y-105664000D02*
X132334000Y-105664000D01*
X132334000Y-105791000D02*
X130810000Y-105791000D01*
X132334000Y-105918000D02*
X130810000Y-105918000D01*
X130810000Y-105410000D02*
X132334000Y-105410000D01*
X130810000Y-105156000D02*
X130810000Y-110236000D01*
X130810000Y-110236000D02*
X132334000Y-110236000D01*
X132334000Y-105156000D02*
X130810000Y-105156000D01*
X132334000Y-110236000D02*
X132334000Y-105156000D01*
X132334000Y-105537000D02*
X130810000Y-105537000D01*
X73787000Y-74580800D02*
X72263000Y-74580800D01*
X72263000Y-74961800D02*
X73787000Y-74961800D01*
X73787000Y-75088800D02*
X72263000Y-75088800D01*
X73787000Y-75215800D02*
X72263000Y-75215800D01*
X72263000Y-74707800D02*
X73787000Y-74707800D01*
X72263000Y-74453800D02*
X72263000Y-79533800D01*
X72263000Y-79533800D02*
X73787000Y-79533800D01*
X73787000Y-74453800D02*
X72263000Y-74453800D01*
X73787000Y-79533800D02*
X73787000Y-74453800D01*
X73787000Y-74834800D02*
X72263000Y-74834800D01*
X75374500Y-112681000D02*
X73850500Y-112681000D01*
X73850500Y-113062000D02*
X75374500Y-113062000D01*
X75374500Y-113189000D02*
X73850500Y-113189000D01*
X75374500Y-113316000D02*
X73850500Y-113316000D01*
X73850500Y-112808000D02*
X75374500Y-112808000D01*
X73850500Y-112554000D02*
X73850500Y-117634000D01*
X73850500Y-117634000D02*
X75374500Y-117634000D01*
X75374500Y-112554000D02*
X73850500Y-112554000D01*
X75374500Y-117634000D02*
X75374500Y-112554000D01*
X75374500Y-112935000D02*
X73850500Y-112935000D01*
X123857000Y-79660800D02*
X123857000Y-78136800D01*
X123476000Y-78136800D02*
X123476000Y-79660800D01*
X123349000Y-79660800D02*
X123349000Y-78136800D01*
X123222000Y-79660800D02*
X123222000Y-78136800D01*
X123730000Y-78136800D02*
X123730000Y-79660800D01*
X123984000Y-78136800D02*
X118904000Y-78136800D01*
X118904000Y-78136800D02*
X118904000Y-79660800D01*
X123984000Y-79660800D02*
X123984000Y-78136800D01*
X118904000Y-79660800D02*
X123984000Y-79660800D01*
X123603000Y-79660800D02*
X123603000Y-78136800D01*
X62103000Y-50292000D02*
X62103000Y-48768000D01*
X61722000Y-48768000D02*
X61722000Y-50292000D01*
X61595000Y-50292000D02*
X61595000Y-48768000D01*
X61468000Y-50292000D02*
X61468000Y-48768000D01*
X61976000Y-48768000D02*
X61976000Y-50292000D01*
X62230000Y-48768000D02*
X57150000Y-48768000D01*
X57150000Y-48768000D02*
X57150000Y-50292000D01*
X62230000Y-50292000D02*
X62230000Y-48768000D01*
X57150000Y-50292000D02*
X62230000Y-50292000D01*
X61849000Y-50292000D02*
X61849000Y-48768000D01*
X73787000Y-93630800D02*
X72263000Y-93630800D01*
X72263000Y-94011800D02*
X73787000Y-94011800D01*
X73787000Y-94138800D02*
X72263000Y-94138800D01*
X73787000Y-94265800D02*
X72263000Y-94265800D01*
X72263000Y-93757800D02*
X73787000Y-93757800D01*
X72263000Y-93503800D02*
X72263000Y-98583800D01*
X72263000Y-98583800D02*
X73787000Y-98583800D01*
X73787000Y-93503800D02*
X72263000Y-93503800D01*
X73787000Y-98583800D02*
X73787000Y-93503800D01*
X73787000Y-93884800D02*
X72263000Y-93884800D01*
X62738000Y-68230800D02*
X62738000Y-66706800D01*
X62357000Y-66706800D02*
X62357000Y-68230800D01*
X62230000Y-68230800D02*
X62230000Y-66706800D01*
X62103000Y-68230800D02*
X62103000Y-66706800D01*
X62611000Y-66706800D02*
X62611000Y-68230800D01*
X62865000Y-66706800D02*
X57785000Y-66706800D01*
X57785000Y-66706800D02*
X57785000Y-68230800D01*
X62865000Y-68230800D02*
X62865000Y-66706800D01*
X57785000Y-68230800D02*
X62865000Y-68230800D01*
X62484000Y-68230800D02*
X62484000Y-66706800D01*
X189673794Y-137030596D02*
X190317864Y-135649383D01*
X189972561Y-135488366D02*
X189328490Y-136869579D01*
X189213389Y-136815906D02*
X189857459Y-135434693D01*
X189098288Y-136762234D02*
X189742358Y-135381021D01*
X190202763Y-135595711D02*
X189558692Y-136976924D01*
X190432965Y-135703056D02*
X185828921Y-133556155D01*
X185828921Y-133556155D02*
X185184851Y-134937368D01*
X189788895Y-137084269D02*
X190432965Y-135703056D01*
X185184851Y-134937368D02*
X189788895Y-137084269D01*
X189443591Y-136923251D02*
X190087662Y-135542038D01*
X188652794Y-138977596D02*
X189296864Y-137596383D01*
X188951561Y-137435366D02*
X188307490Y-138816579D01*
X188192389Y-138762906D02*
X188836459Y-137381693D01*
X188077288Y-138709234D02*
X188721358Y-137328021D01*
X189181763Y-137542711D02*
X188537692Y-138923924D01*
X189411965Y-137650056D02*
X184807921Y-135503155D01*
X184807921Y-135503155D02*
X184163851Y-136884368D01*
X188767895Y-139031269D02*
X189411965Y-137650056D01*
X184163851Y-136884368D02*
X188767895Y-139031269D01*
X188422591Y-138870251D02*
X189066662Y-137489038D01*
X162316292Y-120711326D02*
X160935079Y-120067256D01*
X160774062Y-120412559D02*
X162155275Y-121056630D01*
X162101602Y-121171731D02*
X160720389Y-120527661D01*
X162047930Y-121286832D02*
X160666717Y-120642762D01*
X160881407Y-120182357D02*
X162262620Y-120826428D01*
X160988752Y-119952155D02*
X158841851Y-124556199D01*
X158841851Y-124556199D02*
X160223064Y-125200269D01*
X162369965Y-120596225D02*
X160988752Y-119952155D01*
X160223064Y-125200269D02*
X162369965Y-120596225D01*
X162208947Y-120941529D02*
X160827734Y-120297458D01*
X113474000Y-109665000D02*
X111950000Y-109665000D01*
X111950000Y-110046000D02*
X113474000Y-110046000D01*
X113474000Y-110173000D02*
X111950000Y-110173000D01*
X113474000Y-110300000D02*
X111950000Y-110300000D01*
X111950000Y-109792000D02*
X113474000Y-109792000D01*
X111950000Y-109538000D02*
X111950000Y-114618000D01*
X111950000Y-114618000D02*
X113474000Y-114618000D01*
X113474000Y-109538000D02*
X111950000Y-109538000D01*
X113474000Y-114618000D02*
X113474000Y-109538000D01*
X113474000Y-109919000D02*
X111950000Y-109919000D01*
X84963000Y-87280800D02*
X84963000Y-85756800D01*
X84582000Y-85756800D02*
X84582000Y-87280800D01*
X84455000Y-87280800D02*
X84455000Y-85756800D01*
X84328000Y-87280800D02*
X84328000Y-85756800D01*
X84836000Y-85756800D02*
X84836000Y-87280800D01*
X85090000Y-85756800D02*
X80010000Y-85756800D01*
X80010000Y-85756800D02*
X80010000Y-87280800D01*
X85090000Y-87280800D02*
X85090000Y-85756800D01*
X80010000Y-87280800D02*
X85090000Y-87280800D01*
X84709000Y-87280800D02*
X84709000Y-85756800D01*
X161957000Y-106331000D02*
X161957000Y-104807000D01*
X161576000Y-104807000D02*
X161576000Y-106331000D01*
X161449000Y-106331000D02*
X161449000Y-104807000D01*
X161322000Y-106331000D02*
X161322000Y-104807000D01*
X161830000Y-104807000D02*
X161830000Y-106331000D01*
X162084000Y-104807000D02*
X157004000Y-104807000D01*
X157004000Y-104807000D02*
X157004000Y-106331000D01*
X162084000Y-106331000D02*
X162084000Y-104807000D01*
X157004000Y-106331000D02*
X162084000Y-106331000D01*
X161703000Y-106331000D02*
X161703000Y-104807000D01*
X123857000Y-98710800D02*
X123857000Y-97186800D01*
X123476000Y-97186800D02*
X123476000Y-98710800D01*
X123349000Y-98710800D02*
X123349000Y-97186800D01*
X123222000Y-98710800D02*
X123222000Y-97186800D01*
X123730000Y-97186800D02*
X123730000Y-98710800D01*
X123984000Y-97186800D02*
X118904000Y-97186800D01*
X118904000Y-97186800D02*
X118904000Y-98710800D01*
X123984000Y-98710800D02*
X123984000Y-97186800D01*
X118904000Y-98710800D02*
X123984000Y-98710800D01*
X123603000Y-98710800D02*
X123603000Y-97186800D01*
X124206000Y-60579000D02*
X124206000Y-59055000D01*
X123825000Y-59055000D02*
X123825000Y-60579000D01*
X123698000Y-60579000D02*
X123698000Y-59055000D01*
X123571000Y-60579000D02*
X123571000Y-59055000D01*
X124079000Y-59055000D02*
X124079000Y-60579000D01*
X124333000Y-59055000D02*
X119253000Y-59055000D01*
X119253000Y-59055000D02*
X119253000Y-60579000D01*
X124333000Y-60579000D02*
X124333000Y-59055000D01*
X119253000Y-60579000D02*
X124333000Y-60579000D01*
X123952000Y-60579000D02*
X123952000Y-59055000D01*
X142907000Y-83470800D02*
X142907000Y-81946800D01*
X142526000Y-81946800D02*
X142526000Y-83470800D01*
X142399000Y-83470800D02*
X142399000Y-81946800D01*
X142272000Y-83470800D02*
X142272000Y-81946800D01*
X142780000Y-81946800D02*
X142780000Y-83470800D01*
X143034000Y-81946800D02*
X137954000Y-81946800D01*
X137954000Y-81946800D02*
X137954000Y-83470800D01*
X143034000Y-83470800D02*
X143034000Y-81946800D01*
X137954000Y-83470800D02*
X143034000Y-83470800D01*
X142653000Y-83470800D02*
X142653000Y-81946800D01*
X161957000Y-87280800D02*
X161957000Y-85756800D01*
X161576000Y-85756800D02*
X161576000Y-87280800D01*
X161449000Y-87280800D02*
X161449000Y-85756800D01*
X161322000Y-87280800D02*
X161322000Y-85756800D01*
X161830000Y-85756800D02*
X161830000Y-87280800D01*
X162084000Y-85756800D02*
X157004000Y-85756800D01*
X157004000Y-85756800D02*
X157004000Y-87280800D01*
X162084000Y-87280800D02*
X162084000Y-85756800D01*
X157004000Y-87280800D02*
X162084000Y-87280800D01*
X161703000Y-87280800D02*
X161703000Y-85756800D01*
X85756800Y-68230800D02*
X85756800Y-66706800D01*
X85375800Y-66706800D02*
X85375800Y-68230800D01*
X85248800Y-68230800D02*
X85248800Y-66706800D01*
X85121800Y-68230800D02*
X85121800Y-66706800D01*
X85629800Y-66706800D02*
X85629800Y-68230800D01*
X85883800Y-66706800D02*
X80803800Y-66706800D01*
X80803800Y-66706800D02*
X80803800Y-68230800D01*
X85883800Y-68230800D02*
X85883800Y-66706800D01*
X80803800Y-68230800D02*
X85883800Y-68230800D01*
X85502800Y-68230800D02*
X85502800Y-66706800D01*
X143701000Y-64420800D02*
X143701000Y-62896800D01*
X143320000Y-62896800D02*
X143320000Y-64420800D01*
X143193000Y-64420800D02*
X143193000Y-62896800D01*
X143066000Y-64420800D02*
X143066000Y-62896800D01*
X143574000Y-62896800D02*
X143574000Y-64420800D01*
X143828000Y-62896800D02*
X138748000Y-62896800D01*
X138748000Y-62896800D02*
X138748000Y-64420800D01*
X143828000Y-64420800D02*
X143828000Y-62896800D01*
X138748000Y-64420800D02*
X143828000Y-64420800D01*
X143447000Y-64420800D02*
X143447000Y-62896800D01*
X104807000Y-83470800D02*
X104807000Y-81946800D01*
X104426000Y-81946800D02*
X104426000Y-83470800D01*
X104299000Y-83470800D02*
X104299000Y-81946800D01*
X104172000Y-83470800D02*
X104172000Y-81946800D01*
X104680000Y-81946800D02*
X104680000Y-83470800D01*
X104934000Y-81946800D02*
X99854000Y-81946800D01*
X99854000Y-81946800D02*
X99854000Y-83470800D01*
X104934000Y-83470800D02*
X104934000Y-81946800D01*
X99854000Y-83470800D02*
X104934000Y-83470800D01*
X104553000Y-83470800D02*
X104553000Y-81946800D01*
X160845000Y-67437000D02*
X160845000Y-65913000D01*
X160464000Y-65913000D02*
X160464000Y-67437000D01*
X160337000Y-67437000D02*
X160337000Y-65913000D01*
X160210000Y-67437000D02*
X160210000Y-65913000D01*
X160718000Y-65913000D02*
X160718000Y-67437000D01*
X160972000Y-65913000D02*
X155892000Y-65913000D01*
X155892000Y-65913000D02*
X155892000Y-67437000D01*
X160972000Y-67437000D02*
X160972000Y-65913000D01*
X155892000Y-67437000D02*
X160972000Y-67437000D01*
X160591000Y-67437000D02*
X160591000Y-65913000D01*
X142907000Y-102521000D02*
X142907000Y-100997000D01*
X142526000Y-100997000D02*
X142526000Y-102521000D01*
X142399000Y-102521000D02*
X142399000Y-100997000D01*
X142272000Y-102521000D02*
X142272000Y-100997000D01*
X142780000Y-100997000D02*
X142780000Y-102521000D01*
X143034000Y-100997000D02*
X137954000Y-100997000D01*
X137954000Y-100997000D02*
X137954000Y-102521000D01*
X143034000Y-102521000D02*
X143034000Y-100997000D01*
X137954000Y-102521000D02*
X143034000Y-102521000D01*
X142653000Y-102521000D02*
X142653000Y-100997000D01*
X104807000Y-64420800D02*
X104807000Y-62896800D01*
X104426000Y-62896800D02*
X104426000Y-64420800D01*
X104299000Y-64420800D02*
X104299000Y-62896800D01*
X104172000Y-64420800D02*
X104172000Y-62896800D01*
X104680000Y-62896800D02*
X104680000Y-64420800D01*
X104934000Y-62896800D02*
X99854000Y-62896800D01*
X99854000Y-62896800D02*
X99854000Y-64420800D01*
X104934000Y-64420800D02*
X104934000Y-62896800D01*
X99854000Y-64420800D02*
X104934000Y-64420800D01*
X104553000Y-64420800D02*
X104553000Y-62896800D01*
X104807000Y-102521000D02*
X104807000Y-100997000D01*
X104426000Y-100997000D02*
X104426000Y-102521000D01*
X104299000Y-102521000D02*
X104299000Y-100997000D01*
X104172000Y-102521000D02*
X104172000Y-100997000D01*
X104680000Y-100997000D02*
X104680000Y-102521000D01*
X104934000Y-100997000D02*
X99854000Y-100997000D01*
X99854000Y-100997000D02*
X99854000Y-102521000D01*
X104934000Y-102521000D02*
X104934000Y-100997000D01*
X99854000Y-102521000D02*
X104934000Y-102521000D01*
X104553000Y-102521000D02*
X104553000Y-100997000D01*
X84963000Y-106331000D02*
X84963000Y-104807000D01*
X84582000Y-104807000D02*
X84582000Y-106331000D01*
X84455000Y-106331000D02*
X84455000Y-104807000D01*
X84328000Y-106331000D02*
X84328000Y-104807000D01*
X84836000Y-104807000D02*
X84836000Y-106331000D01*
X85090000Y-104807000D02*
X80010000Y-104807000D01*
X80010000Y-104807000D02*
X80010000Y-106331000D01*
X85090000Y-106331000D02*
X85090000Y-104807000D01*
X80010000Y-106331000D02*
X85090000Y-106331000D01*
X84709000Y-106331000D02*
X84709000Y-104807000D01*
D13*
X59531200Y-73215500D02*
X59531200Y-71437500D01*
X59531200Y-84137500D02*
X59531200Y-82359500D01*
X57753200Y-84137500D02*
X59531200Y-84137500D01*
X46831200Y-84137500D02*
X48609200Y-84137500D01*
X46831200Y-82359500D02*
X46831200Y-84137500D01*
X46831200Y-71437500D02*
X46831200Y-73215500D01*
X48609200Y-71437500D02*
X46831200Y-71437500D01*
X59531200Y-71437500D02*
X57753200Y-71437500D01*
D10*
X185650292Y-122071326D02*
X184269079Y-121427256D01*
X184108062Y-121772559D02*
X185489275Y-122416630D01*
X185435602Y-122531731D02*
X184054389Y-121887661D01*
X185381930Y-122646832D02*
X184000717Y-122002762D01*
X184215407Y-121542357D02*
X185596620Y-122186428D01*
X184322752Y-121312155D02*
X182175851Y-125916199D01*
X182175851Y-125916199D02*
X183557064Y-126560269D01*
X185703965Y-121956225D02*
X184322752Y-121312155D01*
X183557064Y-126560269D02*
X185703965Y-121956225D01*
X185542947Y-122301529D02*
X184161734Y-121657458D01*
X154052000Y-19311500D02*
X160152000Y-19311500D01*
X154052000Y-31411500D02*
X160152000Y-31411500D01*
X154052000Y-19311500D02*
X154052000Y-31411500D01*
X160152000Y-19311500D02*
X160152000Y-31411500D01*
X154302000Y-19311500D02*
X154302000Y-17311500D01*
X159902000Y-19311500D02*
X159902000Y-17311500D01*
X154302000Y-17311500D02*
X159902000Y-17311500D01*
X46863000Y-51993800D02*
X46863000Y-50469800D01*
X46482000Y-50469800D02*
X46482000Y-51993800D01*
X46355000Y-51993800D02*
X46355000Y-50469800D01*
X46228000Y-51993800D02*
X46228000Y-50469800D01*
X46736000Y-50469800D02*
X46736000Y-51993800D01*
X46990000Y-50469800D02*
X41910000Y-50469800D01*
X41910000Y-50469800D02*
X41910000Y-51993800D01*
X46990000Y-51993800D02*
X46990000Y-50469800D01*
X41910000Y-51993800D02*
X46990000Y-51993800D01*
X46609000Y-51993800D02*
X46609000Y-50469800D01*
D14*
X59102190Y-43314880D02*
X59102190Y-42314880D01*
X58530761Y-43314880D02*
X58959333Y-42743452D01*
X58530761Y-42314880D02*
X59102190Y-42886309D01*
X58340285Y-43410119D02*
X57578380Y-43410119D01*
X57006952Y-42791071D02*
X56864095Y-42838690D01*
X56816476Y-42886309D01*
X56768857Y-42981547D01*
X56768857Y-43124404D01*
X56816476Y-43219642D01*
X56864095Y-43267261D01*
X56959333Y-43314880D01*
X57340285Y-43314880D01*
X57340285Y-42314880D01*
X57006952Y-42314880D01*
X56911714Y-42362500D01*
X56864095Y-42410119D01*
X56816476Y-42505357D01*
X56816476Y-42600595D01*
X56864095Y-42695833D01*
X56911714Y-42743452D01*
X57006952Y-42791071D01*
X57340285Y-42791071D01*
X56340285Y-43314880D02*
X56340285Y-42314880D01*
X55768857Y-43314880D02*
X56197428Y-42743452D01*
X55768857Y-42314880D02*
X56340285Y-42886309D01*
X55387904Y-43267261D02*
X55245047Y-43314880D01*
X55006952Y-43314880D01*
X54911714Y-43267261D01*
X54864095Y-43219642D01*
X54816476Y-43124404D01*
X54816476Y-43029166D01*
X54864095Y-42933928D01*
X54911714Y-42886309D01*
X55006952Y-42838690D01*
X55197428Y-42791071D01*
X55292666Y-42743452D01*
X55340285Y-42695833D01*
X55387904Y-42600595D01*
X55387904Y-42505357D01*
X55340285Y-42410119D01*
X55292666Y-42362500D01*
X55197428Y-42314880D01*
X54959333Y-42314880D01*
X54816476Y-42362500D01*
X54387904Y-43314880D02*
X54387904Y-42314880D01*
X54006952Y-42314880D01*
X53911714Y-42362500D01*
X53864095Y-42410119D01*
X53816476Y-42505357D01*
X53816476Y-42648214D01*
X53864095Y-42743452D01*
X53911714Y-42791071D01*
X54006952Y-42838690D01*
X54387904Y-42838690D01*
X53626000Y-43410119D02*
X52864095Y-43410119D01*
X52102190Y-43314880D02*
X52673619Y-43314880D01*
X52387904Y-43314880D02*
X52387904Y-42314880D01*
X52483142Y-42457738D01*
X52578380Y-42552976D01*
X52673619Y-42600595D01*
D15*
X59631085Y-100587023D02*
X59631085Y-99317023D01*
X58760228Y-100587023D02*
X59413371Y-99861309D01*
X58760228Y-99317023D02*
X59631085Y-100042738D01*
X58469942Y-100707976D02*
X57308800Y-100707976D01*
X57018514Y-100526547D02*
X56800800Y-100587023D01*
X56437942Y-100587023D01*
X56292800Y-100526547D01*
X56220228Y-100466071D01*
X56147657Y-100345119D01*
X56147657Y-100224166D01*
X56220228Y-100103214D01*
X56292800Y-100042738D01*
X56437942Y-99982261D01*
X56728228Y-99921785D01*
X56873371Y-99861309D01*
X56945942Y-99800833D01*
X57018514Y-99679880D01*
X57018514Y-99558928D01*
X56945942Y-99437976D01*
X56873371Y-99377500D01*
X56728228Y-99317023D01*
X56365371Y-99317023D01*
X56147657Y-99377500D01*
X55494514Y-100587023D02*
X55494514Y-99317023D01*
X55494514Y-99921785D02*
X54623657Y-99921785D01*
X54623657Y-100587023D02*
X54623657Y-99317023D01*
X53897942Y-100587023D02*
X53897942Y-99317023D01*
X52664228Y-99921785D02*
X53172228Y-99921785D01*
X53172228Y-100587023D02*
X53172228Y-99317023D01*
X52446514Y-99317023D01*
X52083657Y-99317023D02*
X51212800Y-99317023D01*
X51648228Y-100587023D02*
X51648228Y-99317023D01*
X51067657Y-100707976D02*
X49906514Y-100707976D01*
X48672800Y-100587023D02*
X49180800Y-99982261D01*
X49543657Y-100587023D02*
X49543657Y-99317023D01*
X48963085Y-99317023D01*
X48817942Y-99377500D01*
X48745371Y-99437976D01*
X48672800Y-99558928D01*
X48672800Y-99740357D01*
X48745371Y-99861309D01*
X48817942Y-99921785D01*
X48963085Y-99982261D01*
X49543657Y-99982261D01*
X48019657Y-99921785D02*
X47511657Y-99921785D01*
X47293942Y-100587023D02*
X48019657Y-100587023D01*
X48019657Y-99317023D01*
X47293942Y-99317023D01*
X46858514Y-99317023D02*
X46350514Y-100587023D01*
X45842514Y-99317023D01*
X45697371Y-100707976D02*
X44536228Y-100707976D01*
X44245942Y-99437976D02*
X44173371Y-99377500D01*
X44028228Y-99317023D01*
X43665371Y-99317023D01*
X43520228Y-99377500D01*
X43447657Y-99437976D01*
X43375085Y-99558928D01*
X43375085Y-99679880D01*
X43447657Y-99861309D01*
X44318514Y-100587023D01*
X43375085Y-100587023D01*
X42721942Y-100466071D02*
X42649371Y-100526547D01*
X42721942Y-100587023D01*
X42794514Y-100526547D01*
X42721942Y-100466071D01*
X42721942Y-100587023D01*
X42141371Y-99317023D02*
X41125371Y-99317023D01*
X41778514Y-100587023D01*
X39819085Y-99317023D02*
X40544800Y-99317023D01*
X40617371Y-99921785D01*
X40544800Y-99861309D01*
X40399657Y-99800833D01*
X40036800Y-99800833D01*
X39891657Y-99861309D01*
X39819085Y-99921785D01*
X39746514Y-100042738D01*
X39746514Y-100345119D01*
X39819085Y-100466071D01*
X39891657Y-100526547D01*
X40036800Y-100587023D01*
X40399657Y-100587023D01*
X40544800Y-100526547D01*
X40617371Y-100466071D01*
X39456228Y-100707976D02*
X38295085Y-100707976D01*
X37133942Y-100587023D02*
X38004800Y-100587023D01*
X37569371Y-100587023D02*
X37569371Y-99317023D01*
X37714514Y-99498452D01*
X37859657Y-99619404D01*
X38004800Y-99679880D01*
X65082914Y-81537023D02*
X65082914Y-80267023D01*
X64212057Y-81537023D02*
X64865200Y-80811309D01*
X64212057Y-80267023D02*
X65082914Y-80992738D01*
X63921771Y-81657976D02*
X62760628Y-81657976D01*
X62397771Y-80871785D02*
X61889771Y-80871785D01*
X61672057Y-81537023D02*
X62397771Y-81537023D01*
X62397771Y-80267023D01*
X61672057Y-80267023D01*
X61018914Y-81537023D02*
X61018914Y-80267023D01*
X60148057Y-81537023D01*
X60148057Y-80267023D01*
X59640057Y-80267023D02*
X58769200Y-80267023D01*
X59204628Y-81537023D02*
X59204628Y-80267023D01*
X58261200Y-80871785D02*
X57753200Y-80871785D01*
X57535485Y-81537023D02*
X58261200Y-81537023D01*
X58261200Y-80267023D01*
X57535485Y-80267023D01*
X56011485Y-81537023D02*
X56519485Y-80932261D01*
X56882342Y-81537023D02*
X56882342Y-80267023D01*
X56301771Y-80267023D01*
X56156628Y-80327500D01*
X56084057Y-80387976D01*
X56011485Y-80508928D01*
X56011485Y-80690357D01*
X56084057Y-80811309D01*
X56156628Y-80871785D01*
X56301771Y-80932261D01*
X56882342Y-80932261D01*
X55721200Y-81657976D02*
X54560057Y-81657976D01*
X54197200Y-81537023D02*
X54197200Y-80690357D01*
X54197200Y-80932261D02*
X54124628Y-80811309D01*
X54052057Y-80750833D01*
X53906914Y-80690357D01*
X53761771Y-80690357D01*
X52673200Y-81476547D02*
X52818342Y-81537023D01*
X53108628Y-81537023D01*
X53253771Y-81476547D01*
X53326342Y-81355595D01*
X53326342Y-80871785D01*
X53253771Y-80750833D01*
X53108628Y-80690357D01*
X52818342Y-80690357D01*
X52673200Y-80750833D01*
X52600628Y-80871785D01*
X52600628Y-80992738D01*
X53326342Y-81113690D01*
X52092628Y-80690357D02*
X51729771Y-81537023D01*
X51366914Y-80690357D01*
X51149200Y-81657976D02*
X49988057Y-81657976D01*
X49697771Y-80387976D02*
X49625200Y-80327500D01*
X49480057Y-80267023D01*
X49117200Y-80267023D01*
X48972057Y-80327500D01*
X48899485Y-80387976D01*
X48826914Y-80508928D01*
X48826914Y-80629880D01*
X48899485Y-80811309D01*
X49770342Y-81537023D01*
X48826914Y-81537023D01*
X48173771Y-81416071D02*
X48101200Y-81476547D01*
X48173771Y-81537023D01*
X48246342Y-81476547D01*
X48173771Y-81416071D01*
X48173771Y-81537023D01*
X47520628Y-80387976D02*
X47448057Y-80327500D01*
X47302914Y-80267023D01*
X46940057Y-80267023D01*
X46794914Y-80327500D01*
X46722342Y-80387976D01*
X46649771Y-80508928D01*
X46649771Y-80629880D01*
X46722342Y-80811309D01*
X47593200Y-81537023D01*
X46649771Y-81537023D01*
X45270914Y-80267023D02*
X45996628Y-80267023D01*
X46069200Y-80871785D01*
X45996628Y-80811309D01*
X45851485Y-80750833D01*
X45488628Y-80750833D01*
X45343485Y-80811309D01*
X45270914Y-80871785D01*
X45198342Y-80992738D01*
X45198342Y-81295119D01*
X45270914Y-81416071D01*
X45343485Y-81476547D01*
X45488628Y-81537023D01*
X45851485Y-81537023D01*
X45996628Y-81476547D01*
X46069200Y-81416071D01*
X43892057Y-80690357D02*
X43892057Y-81537023D01*
X44545200Y-80690357D02*
X44545200Y-81355595D01*
X44472628Y-81476547D01*
X44327485Y-81537023D01*
X44109771Y-81537023D01*
X43964628Y-81476547D01*
X43892057Y-81416071D01*
X43529200Y-81657976D02*
X42368057Y-81657976D01*
X41206914Y-81537023D02*
X42077771Y-81537023D01*
X41642342Y-81537023D02*
X41642342Y-80267023D01*
X41787485Y-80448452D01*
X41932628Y-80569404D01*
X42077771Y-80629880D01*
M02*
