M48
; DRILL file {KiCad (5.1.5)-3} date 6/21/2020 6:11:29 PM
; FORMAT={-:-/ absolute / metric / decimal}
; #@! TF.CreationDate,2020-06-21T18:11:29+05:30
; #@! TF.GenerationSoftware,Kicad,Pcbnew,(5.1.5)-3
; #@! TF.FileFunction,Plated,1,2,PTH
FMAT,2
METRIC
T1C0.400
T2C0.762
T3C1.000
T4C1.016
T5C1.500
T6C1.524
T7C4.700
%
G90
G05
T1
X53.213Y-51.562
X70.993Y-49.073
X70.993Y-94.107
X71.721Y-49.821
X71.755Y-63.373
X72.39Y-65.532
X72.449Y-47.752
X73.025Y-64.643
X74.676Y-120.777
X76.2Y-54.991
X79.121Y-70.104
X80.645Y-49.53
X81.327Y-45.767
X92.984Y-70.032
X96.879Y-65.257
X100.774Y-57.277
X100.838Y-61.15
X104.093Y-48.18
X114.554Y-66.167
X152.527Y-62.357
X153.289Y-70.358
X153.543Y-92.71
X155.575Y-100.838
X156.845Y-22.479
X156.845Y-25.527
X157.099Y-30.607
X159.131Y-110.49
T2
X172.242Y-132.758
X173.888Y-132.824
X174.909Y-127.039
X176.018Y-128.257
T3
X74.422Y-55.282
X74.422Y-63.082
X74.612Y-111.194
X74.612Y-118.994
X158.958Y-126.111
X162.254Y-119.042
X117.893Y-59.817
X125.693Y-59.817
X117.544Y-97.949
X125.344Y-97.949
X183.253Y-135.619
X190.323Y-138.915
X73.025Y-92.144
X73.025Y-99.944
X73.025Y-73.094
X73.025Y-80.894
X40.55Y-51.232
X48.35Y-51.232
X98.494Y-63.659
X106.294Y-63.659
X136.594Y-101.759
X144.394Y-101.759
X56.425Y-67.469
X64.225Y-67.469
X79.444Y-67.469
X87.244Y-67.469
X151.13Y-108.114
X151.13Y-115.914
X98.494Y-82.709
X106.294Y-82.709
X55.79Y-49.53
X63.59Y-49.53
X184.274Y-133.672
X191.344Y-136.968
X78.65Y-105.569
X86.45Y-105.569
X155.644Y-86.519
X163.444Y-86.519
X118.338Y-40.799
X126.138Y-40.799
X155.644Y-48.419
X163.444Y-48.419
X137.388Y-63.659
X145.188Y-63.659
X117.544Y-78.899
X125.344Y-78.899
X78.65Y-86.519
X86.45Y-86.519
X154.532Y-66.675
X162.332Y-66.675
X112.712Y-108.178
X112.712Y-115.978
X182.292Y-127.471
X185.588Y-120.402
X98.494Y-44.609
X106.294Y-44.609
X93.662Y-111.194
X93.662Y-118.994
X136.594Y-44.609
X144.394Y-44.609
X98.494Y-101.759
X106.294Y-101.759
X131.572Y-103.796
X131.572Y-111.596
X155.644Y-105.569
X163.444Y-105.569
X136.594Y-82.709
X144.394Y-82.709
T4
X76.505Y-22.327
X76.505Y-24.867
X76.505Y-27.407
X76.505Y-29.947
X76.505Y-32.487
X76.505Y-35.027
X76.505Y-37.567
X76.505Y-40.107
X76.505Y-42.647
X76.505Y-45.187
X76.505Y-47.727
X76.505Y-50.267
X91.745Y-22.327
X91.745Y-24.867
X91.745Y-27.407
X91.745Y-29.947
X91.745Y-32.487
X91.745Y-35.027
X91.745Y-37.567
X91.745Y-40.107
X91.745Y-42.647
X91.745Y-45.187
X91.745Y-47.727
X91.745Y-50.267
T5
X56.515Y-56.197
X57.785Y-53.657
X57.825Y-54.237
X57.825Y-54.737
X62.825Y-54.237
X62.825Y-54.737
X62.865Y-53.657
X64.135Y-56.197
X118.364Y-105.664
X119.634Y-103.124
X119.674Y-103.704
X119.674Y-104.204
X124.674Y-103.704
X124.674Y-104.204
X124.714Y-103.124
X125.984Y-105.664
X172.245Y-115.96
X174.05Y-115.19
X174.261Y-114.737
X174.47Y-114.195
X178.581Y-117.304
X178.792Y-116.85
X179.074Y-116.342
X179.151Y-119.18
X99.378Y-71.438
X100.648Y-68.897
X100.688Y-69.477
X100.688Y-69.977
X105.688Y-69.477
X105.688Y-69.977
X105.728Y-68.897
X106.998Y-71.438
X99.378Y-52.387
X100.648Y-49.847
X100.688Y-50.427
X100.688Y-50.927
X105.688Y-50.427
X105.688Y-50.927
X105.728Y-49.847
X106.998Y-52.387
X156.528Y-94.297
X157.798Y-91.757
X157.838Y-92.337
X157.838Y-92.837
X162.838Y-92.337
X162.838Y-92.837
X162.878Y-91.757
X164.148Y-94.297
X118.428Y-29.527
X119.698Y-26.987
X119.738Y-27.567
X119.738Y-28.067
X124.738Y-27.567
X124.738Y-28.067
X124.778Y-26.987
X126.048Y-29.527
X137.478Y-52.387
X138.748Y-49.847
X138.788Y-50.427
X138.788Y-50.927
X143.788Y-50.427
X143.788Y-50.927
X143.828Y-49.847
X145.098Y-52.387
X61.277Y-113.348
X62.547Y-110.808
X62.587Y-111.388
X62.587Y-111.888
X67.587Y-111.388
X67.587Y-111.888
X67.627Y-110.808
X68.897Y-113.348
X80.328Y-113.348
X81.597Y-110.808
X81.638Y-111.388
X81.638Y-111.888
X86.638Y-111.388
X86.638Y-111.888
X86.677Y-110.808
X87.947Y-113.348
X162.047Y-137.829
X162.125Y-140.668
X162.406Y-140.159
X162.618Y-139.706
X166.729Y-142.815
X166.938Y-142.272
X167.149Y-141.819
X168.953Y-141.049
X118.428Y-67.627
X119.698Y-65.087
X119.738Y-65.668
X119.738Y-66.168
X124.738Y-65.668
X124.738Y-66.168
X124.778Y-65.087
X126.048Y-67.627
X118.428Y-48.578
X119.698Y-46.038
X119.738Y-46.617
X119.738Y-47.117
X124.738Y-46.617
X124.738Y-47.117
X124.778Y-46.038
X126.048Y-48.578
X181.472Y-141.288
X183.277Y-140.518
X183.488Y-140.065
X183.697Y-139.523
X187.808Y-142.632
X188.019Y-142.178
X188.301Y-141.67
X188.378Y-144.508
X118.428Y-86.677
X119.698Y-84.138
X119.738Y-84.718
X119.738Y-85.218
X124.738Y-84.718
X124.738Y-85.218
X124.778Y-84.138
X126.048Y-86.677
X80.328Y-75.248
X81.597Y-72.707
X81.638Y-73.287
X81.638Y-73.787
X86.638Y-73.287
X86.638Y-73.787
X86.677Y-72.707
X87.947Y-75.248
X156.528Y-75.248
X157.798Y-72.707
X157.838Y-73.287
X157.838Y-73.787
X162.838Y-73.287
X162.838Y-73.787
X162.878Y-72.707
X164.148Y-75.248
X61.277Y-37.148
X62.547Y-34.608
X62.587Y-35.188
X62.587Y-35.688
X67.587Y-35.188
X67.587Y-35.688
X67.627Y-34.608
X68.897Y-37.148
X99.378Y-33.337
X100.648Y-30.797
X100.688Y-31.377
X100.688Y-31.877
X105.688Y-31.377
X105.688Y-31.877
X105.728Y-30.797
X106.998Y-33.337
X156.528Y-37.148
X157.798Y-34.608
X157.838Y-35.188
X157.838Y-35.688
X162.838Y-35.188
X162.838Y-35.688
X162.878Y-34.608
X164.148Y-37.148
X137.478Y-71.438
X138.748Y-68.897
X138.788Y-69.477
X138.788Y-69.977
X143.788Y-69.477
X143.788Y-69.977
X143.828Y-68.897
X145.098Y-71.438
X80.328Y-56.197
X81.597Y-53.657
X81.638Y-54.237
X81.638Y-54.737
X86.638Y-54.237
X86.638Y-54.737
X86.677Y-53.657
X87.947Y-56.197
X80.328Y-94.297
X81.597Y-91.757
X81.638Y-92.337
X81.638Y-92.837
X86.638Y-92.337
X86.638Y-92.837
X86.677Y-91.757
X87.947Y-94.297
X80.328Y-37.148
X81.597Y-34.608
X81.638Y-35.188
X81.638Y-35.688
X86.638Y-35.188
X86.638Y-35.688
X86.677Y-34.608
X87.947Y-37.148
X137.478Y-33.337
X138.748Y-30.797
X138.788Y-31.377
X138.788Y-31.877
X143.788Y-31.377
X143.788Y-31.877
X143.828Y-30.797
X145.098Y-33.337
X42.24Y-37.16
X43.51Y-34.62
X43.55Y-35.2
X43.55Y-35.7
X48.55Y-35.2
X48.55Y-35.7
X48.59Y-34.62
X49.86Y-37.16
X189.522Y-124.023
X191.327Y-123.253
X191.538Y-122.8
X191.747Y-122.258
X195.858Y-125.367
X196.069Y-124.913
X196.351Y-124.405
X196.428Y-127.243
X156.528Y-56.197
X157.798Y-53.657
X157.838Y-54.237
X157.838Y-54.737
X162.838Y-54.237
X162.838Y-54.737
X162.878Y-53.657
X164.148Y-56.197
X99.378Y-90.487
X100.648Y-87.947
X100.688Y-88.527
X100.688Y-89.027
X105.688Y-88.527
X105.688Y-89.027
X105.728Y-87.947
X106.998Y-90.487
X137.414Y-109.474
X138.684Y-106.934
X138.724Y-107.514
X138.724Y-108.014
X143.724Y-107.514
X143.724Y-108.014
X143.764Y-106.934
X145.034Y-109.474
X137.478Y-90.487
X138.748Y-87.947
X138.788Y-88.527
X138.788Y-89.027
X143.788Y-88.527
X143.788Y-89.027
X143.828Y-87.947
X145.098Y-90.487
X99.378Y-109.538
X100.648Y-106.998
X100.688Y-107.578
X100.688Y-108.078
X105.688Y-107.578
X105.688Y-108.078
X105.728Y-106.998
X106.998Y-109.538
T6
X171.304Y-133.043
X173.181Y-132.472
X173.634Y-132.684
X174.143Y-132.965
X174.524Y-126.137
X175.294Y-127.941
X175.747Y-128.152
X176.289Y-128.361
T7
X40.132Y-60.452
X167.386Y-107.823
X40.132Y-20.574
X112.522Y-20.574
X166.624Y-20.574
X113.22Y-60.642
X112.586Y-123.444
X179.554Y-132.907
X40.894Y-114.808
T5
G00X50.681Y-73.287
M15
G01X50.641Y-72.708
M16
G05
G00X56.992Y-75.247
M15
G01X56.18Y-73.788
M16
G05
G00X45.919Y-92.337
M15
G01X45.879Y-91.758
M16
G05
G00X52.229Y-94.298
M15
G01X51.419Y-92.837
M16
G05
G00X54.945Y-73.788
M15
G01X54.133Y-75.247
M16
G05
G00X60.484Y-72.708
M15
G01X60.444Y-73.287
M16
G05
G00X51.816Y-37.148
M15
G01X52.626Y-35.687
M16
G05
G00X53.126Y-35.187
M15
G01X53.086Y-34.608
M16
G05
G00X58.126Y-35.187
M15
G01X58.166Y-34.608
M16
G05
G00X59.436Y-37.148
M15
G01X58.626Y-35.687
M16
G05
G00X50.182Y-92.838
M15
G01X49.37Y-94.297
M16
G05
G00X55.721Y-91.758
M15
G01X55.681Y-92.337
M16
G05
T0
M30
