G04 #@! TF.GenerationSoftware,KiCad,Pcbnew,(5.1.5)-3*
G04 #@! TF.CreationDate,2020-06-21T18:11:26+05:30*
G04 #@! TF.ProjectId,ergocape,6572676f-6361-4706-952e-6b696361645f,rev?*
G04 #@! TF.SameCoordinates,Original*
G04 #@! TF.FileFunction,OtherDrawing,Comment*
%FSLAX46Y46*%
G04 Gerber Fmt 4.6, Leading zero omitted, Abs format (unit mm)*
G04 Created by KiCad (PCBNEW (5.1.5)-3) date 2020-06-21 18:11:26*
%MOMM*%
%LPD*%
G04 APERTURE LIST*
%ADD10C,0.152400*%
%ADD11C,0.304800*%
%ADD12C,0.150000*%
G04 APERTURE END LIST*
D10*
X170091633Y-107394383D02*
X187126594Y-115337916D01*
X154097222Y-141694508D02*
X170091633Y-107394383D01*
X171132183Y-149638041D02*
X154097222Y-141694508D01*
X187126594Y-115337916D02*
X171132183Y-149638041D01*
X74485500Y-68135500D02*
X74485500Y-49339500D01*
X46164500Y-68135500D02*
X74485500Y-68135500D01*
X46164500Y-49339500D02*
X46164500Y-68135500D01*
X74485500Y-49339500D02*
X46164500Y-49339500D01*
X74549000Y-49085500D02*
X74549000Y-30289500D01*
X36703000Y-49085500D02*
X74549000Y-49085500D01*
X36703000Y-30289500D02*
X36703000Y-49085500D01*
X74549000Y-30289500D02*
X36703000Y-30289500D01*
X74486820Y-106235500D02*
X74486820Y-87439500D01*
X22350780Y-106235500D02*
X74486820Y-106235500D01*
X22350780Y-87439500D02*
X22350780Y-106235500D01*
X74486820Y-87439500D02*
X22350780Y-87439500D01*
X74739500Y-49085500D02*
X74739500Y-30289500D01*
X93535500Y-49085500D02*
X74739500Y-49085500D01*
X93535500Y-30289500D02*
X93535500Y-49085500D01*
X74739500Y-30289500D02*
X93535500Y-30289500D01*
X171362661Y-149745926D02*
X179306194Y-132710965D01*
X188397622Y-157689459D02*
X171362661Y-149745926D01*
X196341155Y-140654498D02*
X188397622Y-157689459D01*
X179306194Y-132710965D02*
X196341155Y-140654498D01*
X93790000Y-45275500D02*
X93790000Y-26479500D01*
X112586000Y-45275500D02*
X93790000Y-45275500D01*
X112586000Y-26479500D02*
X112586000Y-45275500D01*
X93790000Y-26479500D02*
X112586000Y-26479500D01*
X112840000Y-41465500D02*
X112840000Y-22669500D01*
X131636000Y-41465500D02*
X112840000Y-41465500D01*
X131636000Y-22669500D02*
X131636000Y-41465500D01*
X112840000Y-22669500D02*
X131636000Y-22669500D01*
X131890000Y-45275500D02*
X131890000Y-26479500D01*
X150686000Y-45275500D02*
X131890000Y-45275500D01*
X150686000Y-26479500D02*
X150686000Y-45275500D01*
X131890000Y-26479500D02*
X150686000Y-26479500D01*
X150940000Y-49085500D02*
X150940000Y-30289500D01*
X169736000Y-49085500D02*
X150940000Y-49085500D01*
X169736000Y-30289500D02*
X169736000Y-49085500D01*
X150940000Y-30289500D02*
X169736000Y-30289500D01*
X74739500Y-87185500D02*
X74739500Y-68389500D01*
X93535500Y-87185500D02*
X74739500Y-87185500D01*
X93535500Y-68389500D02*
X93535500Y-87185500D01*
X74739500Y-68389500D02*
X93535500Y-68389500D01*
X74739500Y-125286000D02*
X74739500Y-106490000D01*
X93535500Y-125286000D02*
X74739500Y-125286000D01*
X93535500Y-106490000D02*
X93535500Y-125286000D01*
X74739500Y-106490000D02*
X93535500Y-106490000D01*
X150940000Y-106235500D02*
X150940000Y-87439500D01*
X169736000Y-106235500D02*
X150940000Y-106235500D01*
X169736000Y-87439500D02*
X169736000Y-106235500D01*
X150940000Y-87439500D02*
X169736000Y-87439500D01*
X112776000Y-117602000D02*
X112776000Y-98806000D01*
X131572000Y-117602000D02*
X112776000Y-117602000D01*
X131572000Y-98806000D02*
X131572000Y-117602000D01*
X112776000Y-98806000D02*
X131572000Y-98806000D01*
X131826000Y-121412000D02*
X131826000Y-102616000D01*
X150622000Y-121412000D02*
X131826000Y-121412000D01*
X150622000Y-102616000D02*
X150622000Y-121412000D01*
X131826000Y-102616000D02*
X150622000Y-102616000D01*
X112840000Y-98615500D02*
X112840000Y-79819500D01*
X131636000Y-98615500D02*
X112840000Y-98615500D01*
X131636000Y-79819500D02*
X131636000Y-98615500D01*
X112840000Y-79819500D02*
X131636000Y-79819500D01*
X41400780Y-87185500D02*
X41400780Y-68389500D01*
X74486820Y-87185500D02*
X41400780Y-87185500D01*
X74486820Y-68389500D02*
X74486820Y-87185500D01*
X41400780Y-68389500D02*
X74486820Y-68389500D01*
X55689500Y-125286000D02*
X55689500Y-106490000D01*
X74485500Y-125286000D02*
X55689500Y-125286000D01*
X74485500Y-106490000D02*
X74485500Y-125286000D01*
X55689500Y-106490000D02*
X74485500Y-106490000D01*
X112840000Y-79565500D02*
X112840000Y-60769500D01*
X131636000Y-79565500D02*
X112840000Y-79565500D01*
X131636000Y-60769500D02*
X131636000Y-79565500D01*
X112840000Y-60769500D02*
X131636000Y-60769500D01*
X112840000Y-60515500D02*
X112840000Y-41719500D01*
X131636000Y-60515500D02*
X112840000Y-60515500D01*
X131636000Y-41719500D02*
X131636000Y-60515500D01*
X112840000Y-41719500D02*
X131636000Y-41719500D01*
X74486720Y-87185500D02*
X74486720Y-68389500D01*
X31875680Y-87185500D02*
X74486720Y-87185500D01*
X31875680Y-68389500D02*
X31875680Y-87185500D01*
X74486720Y-68389500D02*
X31875680Y-68389500D01*
X55689500Y-49085500D02*
X55689500Y-30289500D01*
X74485500Y-49085500D02*
X55689500Y-49085500D01*
X74485500Y-30289500D02*
X74485500Y-49085500D01*
X55689500Y-30289500D02*
X74485500Y-30289500D01*
X131890000Y-83375500D02*
X131890000Y-64579500D01*
X150686000Y-83375500D02*
X131890000Y-83375500D01*
X150686000Y-64579500D02*
X150686000Y-83375500D01*
X131890000Y-64579500D02*
X150686000Y-64579500D01*
X150940000Y-87185500D02*
X150940000Y-68389500D01*
X169736000Y-87185500D02*
X150940000Y-87185500D01*
X169736000Y-68389500D02*
X169736000Y-87185500D01*
X150940000Y-68389500D02*
X169736000Y-68389500D01*
X74739500Y-68135500D02*
X74739500Y-49339500D01*
X93535500Y-68135500D02*
X74739500Y-68135500D01*
X93535500Y-49339500D02*
X93535500Y-68135500D01*
X74739500Y-49339500D02*
X93535500Y-49339500D01*
X131890000Y-64325500D02*
X131890000Y-45529500D01*
X150686000Y-64325500D02*
X131890000Y-64325500D01*
X150686000Y-45529500D02*
X150686000Y-64325500D01*
X131890000Y-45529500D02*
X150686000Y-45529500D01*
X93790000Y-83375500D02*
X93790000Y-64579500D01*
X112586000Y-83375500D02*
X93790000Y-83375500D01*
X112586000Y-64579500D02*
X112586000Y-83375500D01*
X93790000Y-64579500D02*
X112586000Y-64579500D01*
X31875680Y-106235500D02*
X31875680Y-87439500D01*
X74486720Y-106235500D02*
X31875680Y-106235500D01*
X74486720Y-87439500D02*
X74486720Y-106235500D01*
X31875680Y-87439500D02*
X74486720Y-87439500D01*
X150940000Y-68135500D02*
X150940000Y-49339500D01*
X169736000Y-68135500D02*
X150940000Y-68135500D01*
X169736000Y-49339500D02*
X169736000Y-68135500D01*
X150940000Y-49339500D02*
X169736000Y-49339500D01*
X179412661Y-132480926D02*
X187356194Y-115445965D01*
X196447622Y-140424459D02*
X179412661Y-132480926D01*
X204391155Y-123389498D02*
X196447622Y-140424459D01*
X187356194Y-115445965D02*
X204391155Y-123389498D01*
X131890000Y-102425500D02*
X131890000Y-83629500D01*
X150686000Y-102425500D02*
X131890000Y-102425500D01*
X150686000Y-83629500D02*
X150686000Y-102425500D01*
X131890000Y-83629500D02*
X150686000Y-83629500D01*
X93790000Y-64325500D02*
X93790000Y-45529500D01*
X112586000Y-64325500D02*
X93790000Y-64325500D01*
X112586000Y-45529500D02*
X112586000Y-64325500D01*
X93790000Y-45529500D02*
X112586000Y-45529500D01*
X93790000Y-121476000D02*
X93790000Y-102680000D01*
X112586000Y-121476000D02*
X93790000Y-121476000D01*
X112586000Y-102680000D02*
X112586000Y-121476000D01*
X93790000Y-102680000D02*
X112586000Y-102680000D01*
X93790000Y-102425500D02*
X93790000Y-83629500D01*
X112586000Y-102425500D02*
X93790000Y-102425500D01*
X112586000Y-83629500D02*
X112586000Y-102425500D01*
X93790000Y-83629500D02*
X112586000Y-83629500D01*
X74739500Y-106235500D02*
X74739500Y-87439500D01*
X93535500Y-106235500D02*
X74739500Y-106235500D01*
X93535500Y-87439500D02*
X93535500Y-106235500D01*
X74739500Y-87439500D02*
X93535500Y-87439500D01*
X162135662Y-124417926D02*
X170079195Y-107382965D01*
X179170623Y-132361459D02*
X162135662Y-124417926D01*
X187114156Y-115326498D02*
X179170623Y-132361459D01*
X170079195Y-107382965D02*
X187114156Y-115326498D01*
X179063155Y-132591498D02*
X171119622Y-149626459D01*
X162028194Y-124647965D02*
X179063155Y-132591498D01*
X154084661Y-141682926D02*
X162028194Y-124647965D01*
X171119622Y-149626459D02*
X154084661Y-141682926D01*
X36652200Y-49098200D02*
X36652200Y-30302200D01*
X55448200Y-49098200D02*
X36652200Y-49098200D01*
X55448200Y-30302200D02*
X55448200Y-49098200D01*
X36652200Y-30302200D02*
X55448200Y-30302200D01*
D11*
X167704070Y-113587770D02*
X167668968Y-113491328D01*
X167664536Y-113329114D01*
X167817886Y-113000254D01*
X167944998Y-112899380D01*
X168041440Y-112864278D01*
X168203654Y-112859846D01*
X168335198Y-112921186D01*
X168501844Y-113078968D01*
X168923069Y-114236273D01*
X169321779Y-113381236D01*
X169466265Y-112727948D02*
X169562707Y-112692846D01*
X169597809Y-112789288D01*
X169501367Y-112824390D01*
X169466265Y-112727948D01*
X169597809Y-112789288D01*
X168645976Y-111224409D02*
X168707316Y-111092865D01*
X168834428Y-110991990D01*
X168930870Y-110956888D01*
X169093084Y-110952456D01*
X169386842Y-111009364D01*
X169715703Y-111162714D01*
X169948121Y-111351167D01*
X170048995Y-111478279D01*
X170084097Y-111574721D01*
X170088529Y-111736935D01*
X170027189Y-111868479D01*
X169900077Y-111969353D01*
X169803635Y-112004455D01*
X169641421Y-112008887D01*
X169347662Y-111951979D01*
X169018802Y-111798629D01*
X168786384Y-111610177D01*
X168685510Y-111483065D01*
X168650408Y-111386623D01*
X168645976Y-111224409D01*
X169259376Y-109908968D02*
X169320716Y-109777424D01*
X169447828Y-109676549D01*
X169544270Y-109641447D01*
X169706484Y-109637015D01*
X170000243Y-109693923D01*
X170329103Y-109847273D01*
X170561521Y-110035726D01*
X170662395Y-110162838D01*
X170697497Y-110259280D01*
X170701929Y-110421494D01*
X170640589Y-110553038D01*
X170513477Y-110653912D01*
X170417035Y-110689014D01*
X170254821Y-110693446D01*
X169961063Y-110636538D01*
X169632202Y-110483188D01*
X169399784Y-110294736D01*
X169298910Y-110167624D01*
X169263808Y-110071182D01*
X169259376Y-109908968D01*
X170486531Y-108479356D02*
X171407339Y-108908737D01*
X170210501Y-109071305D02*
X170933993Y-109408675D01*
X171096207Y-109404243D01*
X171223319Y-109303369D01*
X171315329Y-109106053D01*
X171310897Y-108943839D01*
X171275795Y-108847397D01*
D12*
X156768666Y-32963880D02*
X156768666Y-33678166D01*
X156721047Y-33821023D01*
X156625809Y-33916261D01*
X156482952Y-33963880D01*
X156387714Y-33963880D01*
X157197238Y-33059119D02*
X157244857Y-33011500D01*
X157340095Y-32963880D01*
X157578190Y-32963880D01*
X157673428Y-33011500D01*
X157721047Y-33059119D01*
X157768666Y-33154357D01*
X157768666Y-33249595D01*
X157721047Y-33392452D01*
X157149619Y-33963880D01*
X157768666Y-33963880D01*
D11*
X67926857Y-47253071D02*
X67999428Y-47180500D01*
X68144571Y-47107928D01*
X68507428Y-47107928D01*
X68652571Y-47180500D01*
X68725142Y-47253071D01*
X68797714Y-47398214D01*
X68797714Y-47543357D01*
X68725142Y-47761071D01*
X67854285Y-48631928D01*
X68797714Y-48631928D01*
X69450857Y-48486785D02*
X69523428Y-48559357D01*
X69450857Y-48631928D01*
X69378285Y-48559357D01*
X69450857Y-48486785D01*
X69450857Y-48631928D01*
X70466857Y-47107928D02*
X70612000Y-47107928D01*
X70757142Y-47180500D01*
X70829714Y-47253071D01*
X70902285Y-47398214D01*
X70974857Y-47688500D01*
X70974857Y-48051357D01*
X70902285Y-48341642D01*
X70829714Y-48486785D01*
X70757142Y-48559357D01*
X70612000Y-48631928D01*
X70466857Y-48631928D01*
X70321714Y-48559357D01*
X70249142Y-48486785D01*
X70176571Y-48341642D01*
X70104000Y-48051357D01*
X70104000Y-47688500D01*
X70176571Y-47398214D01*
X70249142Y-47253071D01*
X70321714Y-47180500D01*
X70466857Y-47107928D01*
X71918285Y-47107928D02*
X72063428Y-47107928D01*
X72208571Y-47180500D01*
X72281142Y-47253071D01*
X72353714Y-47398214D01*
X72426285Y-47688500D01*
X72426285Y-48051357D01*
X72353714Y-48341642D01*
X72281142Y-48486785D01*
X72208571Y-48559357D01*
X72063428Y-48631928D01*
X71918285Y-48631928D01*
X71773142Y-48559357D01*
X71700571Y-48486785D01*
X71628000Y-48341642D01*
X71555428Y-48051357D01*
X71555428Y-47688500D01*
X71628000Y-47398214D01*
X71700571Y-47253071D01*
X71773142Y-47180500D01*
X71918285Y-47107928D01*
X73732571Y-47615928D02*
X73732571Y-48631928D01*
X73079428Y-47615928D02*
X73079428Y-48414214D01*
X73152000Y-48559357D01*
X73297142Y-48631928D01*
X73514857Y-48631928D01*
X73660000Y-48559357D01*
X73732571Y-48486785D01*
X67864677Y-104403071D02*
X67937248Y-104330500D01*
X68082391Y-104257928D01*
X68445248Y-104257928D01*
X68590391Y-104330500D01*
X68662962Y-104403071D01*
X68735534Y-104548214D01*
X68735534Y-104693357D01*
X68662962Y-104911071D01*
X67792105Y-105781928D01*
X68735534Y-105781928D01*
X69388677Y-105636785D02*
X69461248Y-105709357D01*
X69388677Y-105781928D01*
X69316105Y-105709357D01*
X69388677Y-105636785D01*
X69388677Y-105781928D01*
X69969248Y-104257928D02*
X70985248Y-104257928D01*
X70332105Y-105781928D01*
X72291534Y-104257928D02*
X71565820Y-104257928D01*
X71493248Y-104983642D01*
X71565820Y-104911071D01*
X71710962Y-104838500D01*
X72073820Y-104838500D01*
X72218962Y-104911071D01*
X72291534Y-104983642D01*
X72364105Y-105128785D01*
X72364105Y-105491642D01*
X72291534Y-105636785D01*
X72218962Y-105709357D01*
X72073820Y-105781928D01*
X71710962Y-105781928D01*
X71565820Y-105709357D01*
X71493248Y-105636785D01*
X73670391Y-104765928D02*
X73670391Y-105781928D01*
X73017248Y-104765928D02*
X73017248Y-105564214D01*
X73089820Y-105709357D01*
X73234962Y-105781928D01*
X73452677Y-105781928D01*
X73597820Y-105709357D01*
X73670391Y-105636785D01*
X43015494Y-86731928D02*
X42144637Y-86731928D01*
X42580065Y-86731928D02*
X42580065Y-85207928D01*
X42434922Y-85425642D01*
X42289780Y-85570785D01*
X42144637Y-85643357D01*
X43668637Y-86586785D02*
X43741208Y-86659357D01*
X43668637Y-86731928D01*
X43596065Y-86659357D01*
X43668637Y-86586785D01*
X43668637Y-86731928D01*
X44249208Y-85207928D02*
X45265208Y-85207928D01*
X44612065Y-86731928D01*
X46571494Y-85207928D02*
X45845780Y-85207928D01*
X45773208Y-85933642D01*
X45845780Y-85861071D01*
X45990922Y-85788500D01*
X46353780Y-85788500D01*
X46498922Y-85861071D01*
X46571494Y-85933642D01*
X46644065Y-86078785D01*
X46644065Y-86441642D01*
X46571494Y-86586785D01*
X46498922Y-86659357D01*
X46353780Y-86731928D01*
X45990922Y-86731928D01*
X45845780Y-86659357D01*
X45773208Y-86586785D01*
X47950351Y-85715928D02*
X47950351Y-86731928D01*
X47297208Y-85715928D02*
X47297208Y-86514214D01*
X47369780Y-86659357D01*
X47514922Y-86731928D01*
X47732637Y-86731928D01*
X47877780Y-86659357D01*
X47950351Y-86586785D01*
X67864577Y-85353071D02*
X67937148Y-85280500D01*
X68082291Y-85207928D01*
X68445148Y-85207928D01*
X68590291Y-85280500D01*
X68662862Y-85353071D01*
X68735434Y-85498214D01*
X68735434Y-85643357D01*
X68662862Y-85861071D01*
X67792005Y-86731928D01*
X68735434Y-86731928D01*
X69388577Y-86586785D02*
X69461148Y-86659357D01*
X69388577Y-86731928D01*
X69316005Y-86659357D01*
X69388577Y-86586785D01*
X69388577Y-86731928D01*
X70041720Y-85353071D02*
X70114291Y-85280500D01*
X70259434Y-85207928D01*
X70622291Y-85207928D01*
X70767434Y-85280500D01*
X70840005Y-85353071D01*
X70912577Y-85498214D01*
X70912577Y-85643357D01*
X70840005Y-85861071D01*
X69969148Y-86731928D01*
X70912577Y-86731928D01*
X72291434Y-85207928D02*
X71565720Y-85207928D01*
X71493148Y-85933642D01*
X71565720Y-85861071D01*
X71710862Y-85788500D01*
X72073720Y-85788500D01*
X72218862Y-85861071D01*
X72291434Y-85933642D01*
X72364005Y-86078785D01*
X72364005Y-86441642D01*
X72291434Y-86586785D01*
X72218862Y-86659357D01*
X72073720Y-86731928D01*
X71710862Y-86731928D01*
X71565720Y-86659357D01*
X71493148Y-86586785D01*
X73670291Y-85715928D02*
X73670291Y-86731928D01*
X73017148Y-85715928D02*
X73017148Y-86514214D01*
X73089720Y-86659357D01*
X73234862Y-86731928D01*
X73452577Y-86731928D01*
X73597720Y-86659357D01*
X73670291Y-86586785D01*
X32619537Y-104403071D02*
X32692108Y-104330500D01*
X32837251Y-104257928D01*
X33200108Y-104257928D01*
X33345251Y-104330500D01*
X33417822Y-104403071D01*
X33490394Y-104548214D01*
X33490394Y-104693357D01*
X33417822Y-104911071D01*
X32546965Y-105781928D01*
X33490394Y-105781928D01*
X34143537Y-105636785D02*
X34216108Y-105709357D01*
X34143537Y-105781928D01*
X34070965Y-105709357D01*
X34143537Y-105636785D01*
X34143537Y-105781928D01*
X34796680Y-104403071D02*
X34869251Y-104330500D01*
X35014394Y-104257928D01*
X35377251Y-104257928D01*
X35522394Y-104330500D01*
X35594965Y-104403071D01*
X35667537Y-104548214D01*
X35667537Y-104693357D01*
X35594965Y-104911071D01*
X34724108Y-105781928D01*
X35667537Y-105781928D01*
X37046394Y-104257928D02*
X36320680Y-104257928D01*
X36248108Y-104983642D01*
X36320680Y-104911071D01*
X36465822Y-104838500D01*
X36828680Y-104838500D01*
X36973822Y-104911071D01*
X37046394Y-104983642D01*
X37118965Y-105128785D01*
X37118965Y-105491642D01*
X37046394Y-105636785D01*
X36973822Y-105709357D01*
X36828680Y-105781928D01*
X36465822Y-105781928D01*
X36320680Y-105709357D01*
X36248108Y-105636785D01*
X38425251Y-104765928D02*
X38425251Y-105781928D01*
X37772108Y-104765928D02*
X37772108Y-105564214D01*
X37844680Y-105709357D01*
X37989822Y-105781928D01*
X38207537Y-105781928D01*
X38352680Y-105709357D01*
X38425251Y-105636785D01*
D12*
X156768666Y-32963880D02*
X156768666Y-33678166D01*
X156721047Y-33821023D01*
X156625809Y-33916261D01*
X156482952Y-33963880D01*
X156387714Y-33963880D01*
X157768666Y-33963880D02*
X157197238Y-33963880D01*
X157482952Y-33963880D02*
X157482952Y-32963880D01*
X157387714Y-33106738D01*
X157292476Y-33201976D01*
X157197238Y-33249595D01*
M02*
