<svg version="1.1" xmlns="http://www.w3.org/2000/svg" xmlns:xlink="http://www.w3.org/1999/xlink" stroke-linecap="round" stroke-linejoin="round" stroke-width="0" fill-rule="evenodd" width="153.60171499999998mm" height="123.760357mm" viewBox="37032.342 -138914.057 153601.715 123760.357" id="cz5SLML-5rjP1Q3Xohcz"><g transform="translate(0,-154067.75699999998) scale(1,-1)" fill="currentColor" stroke="currentColor"><path d="M 124651 -41560.8 124651 -40036.8 M 124270 -40036.8 124270 -41560.8 M 124143 -41560.8 124143 -40036.8 M 124016 -41560.8 124016 -40036.8 M 124524 -40036.8 124524 -41560.8 M 124778 -40036.8 119698 -40036.8 119698 -41560.8 M 124778 -41560.8 124778 -40036.8 M 119698 -41560.8 124778 -41560.8 M 124397 -41560.8 124397 -40036.8" fill="none" stroke-width="150"/><path d="M 54125.09 -19213.348 54046.546 -19213.778 53989.702 -19214.942 53950.895 -19217.207 53926.462 -19220.94 53912.738 -19226.506 53906.06 -19234.273 53902.764 -19244.605 53902.444 -19245.943 53897.438 -19270.079 53888.171 -19317.701 53875.608 -19383.741 53860.713 -19463.128 53844.449 -19550.796 53843.881 -19553.875 53827.59 -19639.789 53812.348 -19715.696 53799.139 -19777.045 53788.946 -19819.282 53782.752 -19837.855 53782.457 -19838.184 53764.212 -19847.253 53726.595 -19862.367 53677.729 -19880.262 53677.457 -19880.358 53615.907 -19903.493 53543.343 -19932.965 53474.943 -19962.597 53471.706 -19964.062 53360.298 -20014.626 53113.601 -19846.16 53037.923 -19794.803 52969.369 -19748.889 52911.912 -19711.03 52869.524 -19683.837 52846.175 -19669.921 52843.958 -19668.889 52826.99 -19673.484 52795.299 -19695.655 52747.648 -19736.447 52682.802 -19796.905 52616.603 -19861.227 52552.786 -19924.612 52495.671 -19982.451 52448.695 -20031.175 52415.297 -20067.21 52398.915 -20086.984 52398.306 -20088.002 52396.495 -20101.572 52403.317 -20123.733 52420.46 -20157.478 52449.607 -20205.8 52492.445 -20271.692 52549.552 -20356.517 52600.234 -20431.177 52645.539 -20498.14 52682.85 -20553.516 52709.548 -20593.42 52723.015 -20613.962 52723.863 -20615.356 52722.219 -20635.038 52709.755 -20673.293 52688.952 -20722.889 52681.538 -20738.728 52649.186 -20809.29 52614.672 -20889.353 52586.635 -20958.629 52566.432 -21010.045 52550.385 -21049.119 52541.112 -21069.541 52539.959 -21071.114 52522.904 -21073.721 52482.702 -21080.863 52424.698 -21091.523 52354.237 -21104.685 52276.665 -21119.333 52197.328 -21134.449 52121.569 -21149.018 52054.736 -21162.022 52002.172 -21172.445 51969.224 -21179.27 51961.143 -21181.199 51952.795 -21185.962 51946.494 -21196.718 51941.955 -21217.098 51938.896 -21250.734 51937.033 -21301.255 51936.082 -21372.292 51935.76 -21467.476 51935.743 -21506.492 51935.743 -21823.799 52011.943 -21838.839 52054.337 -21846.995 52117.6 -21858.899 52194.038 -21873.116 52275.957 -21888.21 52298.6 -21892.355 52374.194 -21907.053 52440.047 -21921.505 52490.634 -21934.375 52520.426 -21944.322 52525.388 -21947.287 52537.574 -21968.283 52555.047 -22008.967 52574.423 -22061.322 52578.266 -22072.6 52603.661 -22142.523 52635.183 -22221.418 52666.031 -22292.266 52666.183 -22292.595 52717.553 -22403.733 52548.601 -22652.253 52379.648 -22900.772 52596.571 -23118.058 52662.181 -23182.726 52722.021 -23239.733 52772.733 -23286.033 52810.954 -23318.584 52833.325 -23334.343 52836.534 -23335.343 52855.374 -23327.469 52893.82 -23305.578 52947.67 -23272.267 53012.724 -23230.131 53083.06 -23182.943 53154.445 -23134.81 53218.092 -23092.928 53269.959 -23059.871 53306.005 -23038.218 53322.133 -23030.543 53341.811 -23037.037 53379.125 -23054.15 53426.379 -23078.326 53431.388 -23081.013 53495.023 -23112.927 53538.659 -23128.579 53565.798 -23128.745 53579.943 -23114.204 53580.025 -23114 53587.095 -23096.779 53603.958 -23055.899 53629.305 -22994.525 53661.829 -22915.819 53700.222 -22822.947 53743.178 -22719.072 53784.778 -22618.502 53830.496 -22507.516 53872.474 -22404.703 53909.452 -22313.215 53940.173 -22236.201 53963.378 -22176.815 53977.81 -22138.209 53982.257 -22123.8 53971.104 -22107.272 53941.931 -22080.93 53903.029 -22051.887 53792.243 -21960.039 53705.649 -21854.759 53644.284 -21738.266 53609.185 -21612.776 53601.392 -21480.507 53607.057 -21419.457 53637.922 -21292.795 53691.08 -21180.941 53763.233 -21085.001 53851.083 -21006.076 53951.335 -20945.27 54060.69 -20903.687 54175.853 -20882.428 54293.525 -20882.599 54410.41 -20905.301 54523.211 -20951.638 54628.631 -21022.713 54672.632 -21062.911 54757.021 -21166.129 54815.778 -21278.925 54849.296 -21398.01 54857.965 -21520.095 54842.177 -21641.893 54802.322 -21760.116 54738.793 -21871.475 54651.979 -21972.684 54554.971 -22051.887 54514.563 -22082.162 54486.018 -22108.219 54475.743 -22123.825 54481.123 -22140.843 54496.425 -22181.5 54520.388 -22242.642 54551.756 -22321.119 54589.268 -22413.78 54631.667 -22517.472 54673.337 -22618.526 54719.31 -22729.607 54761.893 -22832.541 54799.779 -22924.165 54831.66 -23001.316 54856.229 -23060.831 54872.18 -23099.544 54878.09 -23114 54892.052 -23128.685 54919.06 -23128.642 54962.587 -23113.099 55026.11 -23081.284 55026.612 -23081.013 55074.44 -23056.323 55113.103 -23038.338 55134.905 -23030.614 55135.867 -23030.543 55152.279 -23038.378 55188.513 -23060.165 55240.526 -23093.328 55304.275 -23135.291 55374.94 -23182.943 55446.884 -23231.191 55511.726 -23273.151 55565.265 -23306.227 55603.303 -23327.821 55621.467 -23335.343 55638.192 -23325.457 55671.82 -23297.826 55718.99 -23255.495 55776.342 -23201.505 55840.516 -23138.899 55861.503 -23117.983 56078.501 -22900.623 55913.332 -22658.22 55863.136 -22583.781 55819.081 -22516.972 55783.638 -22461.665 55759.281 -22421.729 55748.478 -22401.036 55748.162 -22399.563 55753.857 -22380.058 55769.174 -22340.822 55791.463 -22288.43 55807.107 -22253.355 55836.359 -22186.201 55863.906 -22118.358 55885.263 -22061.034 55891.065 -22043.572 55907.548 -21996.938 55923.66 -21960.905 55932.51 -21947.287 55952.04 -21938.952 55994.666 -21927.137 56054.855 -21913.181 56127.078 -21898.422 56159.4 -21892.355 56241.478 -21877.273 56320.205 -21862.669 56387.891 -21849.98 56436.84 -21840.642 56446.057 -21838.839 56522.257 -21823.799 56522.257 -21506.492 56522.086 -21402.154 56521.384 -21323.213 56519.866 -21266.038 56517.251 -21226.999 56513.254 -21202.465 56507.591 -21188.805 56499.98 -21182.389 56496.857 -21181.199 56478.022 -21176.98 56436.412 -21168.562 56377.37 -21156.961 56306.243 -21143.195 56228.375 -21128.28 56149.113 -21113.232 56073.802 -21099.069 56007.787 -21086.806 55956.413 -21077.461 55925.025 -21072.05 55918.041 -21071.114 55911.715 -21058.596 55897.71 -21025.246 55878.645 -20977.377 55871.366 -20958.629 55842.004 -20886.195 55807.429 -20806.17 55776.463 -20738.728 55753.677 -20687.159 55738.518 -20644.785 55733.458 -20618.834 55734.264 -20615.356 55744.959 -20598.936 55769.38 -20562.417 55804.905 -20509.687 55848.913 -20444.635 55898.783 -20371.151 55908.644 -20356.645 55966.508 -20270.704 56009.044 -20205.261 56037.946 -20157.304 56054.91 -20123.82 56061.633 -20101.795 56059.81 -20088.217 56059.764 -20088.131 56045.414 -20070.297 56013.677 -20035.817 55967.99 -19988.268 55911.796 -19931.222 55848.532 -19868.255 55841.398 -19861.227 55761.67 -19784.02 55700.143 -19727.33 55655.579 -19690.11 55626.743 -19671.315 55614.042 -19668.889 55595.506 -19679.471 55557.039 -19703.916 55502.614 -19739.612 55436.202 -19783.947 55361.775 -19834.311 55344.399 -19846.16 55097.703 -20014.626 54986.294 -19964.062 54918.543 -19934.595 54845.817 -19904.959 54783.297 -19881.33 54780.543 -19880.358 54731.64 -19862.457 54693.943 -19847.32 54675.575 -19838.21 54675.544 -19838.184 54669.715 -19821.717 54659.808 -19781.219 54646.805 -19721.242 54631.691 -19646.34 54615.448 -19561.064 54614.119 -19553.875 54597.825 -19466.014 54582.867 -19386.26 54570.209 -19319.681 54560.814 -19271.347 54555.646 -19246.325 54555.556 -19245.943 54552.411 -19235.299 54546.296 -19227.262 54533.547 -19221.467 54510.5 -19217.547 54473.491 -19215.135 54418.856 -19213.865 54342.933 -19213.371 54242.056 -19213.286 54229 -19213.286 54125.09 -19213.348 54125.09 -19213.348"/><path d="M 54125.09 -19213.348 54046.546 -19213.778 53989.702 -19214.942 53950.895 -19217.207 53926.462 -19220.94 53912.738 -19226.506 53906.06 -19234.273 53902.764 -19244.605 53902.444 -19245.943 53897.438 -19270.079 53888.171 -19317.701 53875.608 -19383.741 53860.713 -19463.128 53844.449 -19550.796 53843.881 -19553.875 53827.59 -19639.789 53812.348 -19715.696 53799.139 -19777.045 53788.946 -19819.282 53782.752 -19837.855 53782.457 -19838.184 53764.212 -19847.253 53726.595 -19862.367 53677.729 -19880.262 53677.457 -19880.358 53615.907 -19903.493 53543.343 -19932.965 53474.943 -19962.597 53471.706 -19964.062 53360.298 -20014.626 53113.601 -19846.16 53037.923 -19794.803 52969.369 -19748.889 52911.912 -19711.03 52869.524 -19683.837 52846.175 -19669.921 52843.958 -19668.889 52826.99 -19673.484 52795.299 -19695.655 52747.648 -19736.447 52682.802 -19796.905 52616.603 -19861.227 52552.786 -19924.612 52495.671 -19982.451 52448.695 -20031.175 52415.297 -20067.21 52398.915 -20086.984 52398.306 -20088.002 52396.495 -20101.572 52403.317 -20123.733 52420.46 -20157.478 52449.607 -20205.8 52492.445 -20271.692 52549.552 -20356.517 52600.234 -20431.177 52645.539 -20498.14 52682.85 -20553.516 52709.548 -20593.42 52723.015 -20613.962 52723.863 -20615.356 52722.219 -20635.038 52709.755 -20673.293 52688.952 -20722.889 52681.538 -20738.728 52649.186 -20809.29 52614.672 -20889.353 52586.635 -20958.629 52566.432 -21010.045 52550.385 -21049.119 52541.112 -21069.541 52539.959 -21071.114 52522.904 -21073.721 52482.702 -21080.863 52424.698 -21091.523 52354.237 -21104.685 52276.665 -21119.333 52197.328 -21134.449 52121.569 -21149.018 52054.736 -21162.022 52002.172 -21172.445 51969.224 -21179.27 51961.143 -21181.199 51952.795 -21185.962 51946.494 -21196.718 51941.955 -21217.098 51938.896 -21250.734 51937.033 -21301.255 51936.082 -21372.292 51935.76 -21467.476 51935.743 -21506.492 51935.743 -21823.799 52011.943 -21838.839 52054.337 -21846.995 52117.6 -21858.899 52194.038 -21873.116 52275.957 -21888.21 52298.6 -21892.355 52374.194 -21907.053 52440.047 -21921.505 52490.634 -21934.375 52520.426 -21944.322 52525.388 -21947.287 52537.574 -21968.283 52555.047 -22008.967 52574.423 -22061.322 52578.266 -22072.6 52603.661 -22142.523 52635.183 -22221.418 52666.031 -22292.266 52666.183 -22292.595 52717.553 -22403.733 52548.601 -22652.253 52379.648 -22900.772 52596.571 -23118.058 52662.181 -23182.726 52722.021 -23239.733 52772.733 -23286.033 52810.954 -23318.584 52833.325 -23334.343 52836.534 -23335.343 52855.374 -23327.469 52893.82 -23305.578 52947.67 -23272.267 53012.724 -23230.131 53083.06 -23182.943 53154.445 -23134.81 53218.092 -23092.928 53269.959 -23059.871 53306.005 -23038.218 53322.133 -23030.543 53341.811 -23037.037 53379.125 -23054.15 53426.379 -23078.326 53431.388 -23081.013 53495.023 -23112.927 53538.659 -23128.579 53565.798 -23128.745 53579.943 -23114.204 53580.025 -23114 53587.095 -23096.779 53603.958 -23055.899 53629.305 -22994.525 53661.829 -22915.819 53700.222 -22822.947 53743.178 -22719.072 53784.778 -22618.502 53830.496 -22507.516 53872.474 -22404.703 53909.452 -22313.215 53940.173 -22236.201 53963.378 -22176.815 53977.81 -22138.209 53982.257 -22123.8 53971.104 -22107.272 53941.931 -22080.93 53903.029 -22051.887 53792.243 -21960.039 53705.649 -21854.759 53644.284 -21738.266 53609.185 -21612.776 53601.392 -21480.507 53607.057 -21419.457 53637.922 -21292.795 53691.08 -21180.941 53763.233 -21085.001 53851.083 -21006.076 53951.335 -20945.27 54060.69 -20903.687 54175.853 -20882.428 54293.525 -20882.599 54410.41 -20905.301 54523.211 -20951.638 54628.631 -21022.713 54672.632 -21062.911 54757.021 -21166.129 54815.778 -21278.925 54849.296 -21398.01 54857.965 -21520.095 54842.177 -21641.893 54802.322 -21760.116 54738.793 -21871.475 54651.979 -21972.684 54554.971 -22051.887 54514.563 -22082.162 54486.018 -22108.219 54475.743 -22123.825 54481.123 -22140.843 54496.425 -22181.5 54520.388 -22242.642 54551.756 -22321.119 54589.268 -22413.78 54631.667 -22517.472 54673.337 -22618.526 54719.31 -22729.607 54761.893 -22832.541 54799.779 -22924.165 54831.66 -23001.316 54856.229 -23060.831 54872.18 -23099.544 54878.09 -23114 54892.052 -23128.685 54919.06 -23128.642 54962.587 -23113.099 55026.11 -23081.284 55026.612 -23081.013 55074.44 -23056.323 55113.103 -23038.338 55134.905 -23030.614 55135.867 -23030.543 55152.279 -23038.378 55188.513 -23060.165 55240.526 -23093.328 55304.275 -23135.291 55374.94 -23182.943 55446.884 -23231.191 55511.726 -23273.151 55565.265 -23306.227 55603.303 -23327.821 55621.467 -23335.343 55638.192 -23325.457 55671.82 -23297.826 55718.99 -23255.495 55776.342 -23201.505 55840.516 -23138.899 55861.503 -23117.983 56078.501 -22900.623 55913.332 -22658.22 55863.136 -22583.781 55819.081 -22516.972 55783.638 -22461.665 55759.281 -22421.729 55748.478 -22401.036 55748.162 -22399.563 55753.857 -22380.058 55769.174 -22340.822 55791.463 -22288.43 55807.107 -22253.355 55836.359 -22186.201 55863.906 -22118.358 55885.263 -22061.034 55891.065 -22043.572 55907.548 -21996.938 55923.66 -21960.905 55932.51 -21947.287 55952.04 -21938.952 55994.666 -21927.137 56054.855 -21913.181 56127.078 -21898.422 56159.4 -21892.355 56241.478 -21877.273 56320.205 -21862.669 56387.891 -21849.98 56436.84 -21840.642 56446.057 -21838.839 56522.257 -21823.799 56522.257 -21506.492 56522.086 -21402.154 56521.384 -21323.213 56519.866 -21266.038 56517.251 -21226.999 56513.254 -21202.465 56507.591 -21188.805 56499.98 -21182.389 56496.857 -21181.199 56478.022 -21176.98 56436.412 -21168.562 56377.37 -21156.961 56306.243 -21143.195 56228.375 -21128.28 56149.113 -21113.232 56073.802 -21099.069 56007.787 -21086.806 55956.413 -21077.461 55925.025 -21072.05 55918.041 -21071.114 55911.715 -21058.596 55897.71 -21025.246 55878.645 -20977.377 55871.366 -20958.629 55842.004 -20886.195 55807.429 -20806.17 55776.463 -20738.728 55753.677 -20687.159 55738.518 -20644.785 55733.458 -20618.834 55734.264 -20615.356 55744.959 -20598.936 55769.38 -20562.417 55804.905 -20509.687 55848.913 -20444.635 55898.783 -20371.151 55908.644 -20356.645 55966.508 -20270.704 56009.044 -20205.261 56037.946 -20157.304 56054.91 -20123.82 56061.633 -20101.795 56059.81 -20088.217 56059.764 -20088.131 56045.414 -20070.297 56013.677 -20035.817 55967.99 -19988.268 55911.796 -19931.222 55848.532 -19868.255 55841.398 -19861.227 55761.67 -19784.02 55700.143 -19727.33 55655.579 -19690.11 55626.743 -19671.315 55614.042 -19668.889 55595.506 -19679.471 55557.039 -19703.916 55502.614 -19739.612 55436.202 -19783.947 55361.775 -19834.311 55344.399 -19846.16 55097.703 -20014.626 54986.294 -19964.062 54918.543 -19934.595 54845.817 -19904.959 54783.297 -19881.33 54780.543 -19880.358 54731.64 -19862.457 54693.943 -19847.32 54675.575 -19838.21 54675.544 -19838.184 54669.715 -19821.717 54659.808 -19781.219 54646.805 -19721.242 54631.691 -19646.34 54615.448 -19561.064 54614.119 -19553.875 54597.825 -19466.014 54582.867 -19386.26 54570.209 -19319.681 54560.814 -19271.347 54555.646 -19246.325 54555.556 -19245.943 54552.411 -19235.299 54546.296 -19227.262 54533.547 -19221.467 54510.5 -19217.547 54473.491 -19215.135 54418.856 -19213.865 54342.933 -19213.371 54242.056 -19213.286 54229 -19213.286 54125.09 -19213.348" fill="none" stroke-width="10"/><path d="M 51075.405 -23937.966 51017.979 -23975.497 50990.281 -24009.096 50968.338 -24070.064 50966.595 -24118.308 50970.543 -24182.816 51119.314 -24247.934 51191.651 -24281.202 51238.916 -24307.964 51263.493 -24331.144 51267.763 -24353.667 51254.111 -24378.455 51239.057 -24394.886 51195.254 -24421.235 51147.611 -24423.081 51103.855 -24402.546 51071.711 -24361.752 51065.962 -24347.347 51038.424 -24302.356 51006.742 -24283.182 50963.286 -24266.779 50963.286 -24328.966 50967.128 -24371.283 50982.177 -24406.969 51013.72 -24447.943 51018.408 -24453.267 51053.494 -24489.72 51083.653 -24509.283 51121.385 -24518.283 51152.665 -24521.23 51208.615 -24521.965 51248.445 -24512.66 51273.292 -24498.846 51312.344 -24468.467 51339.375 -24435.613 51356.483 -24394.294 51365.762 -24338.521 51369.307 -24262.305 51369.59 -24223.622 51368.628 -24177.247 51280.993 -24177.247 51279.977 -24202.126 51277.444 -24206.2 51260.726 -24200.665 51224.751 -24186.017 51176.669 -24165.19 51166.614 -24160.714 51105.848 -24129.814 51072.368 -24102.657 51065.01 -24077.22 51082.609 -24051.481 51097.144 -24040.109 51149.59 -24017.364 51198.678 -24021.122 51239.773 -24048.884 51268.242 -24098.152 51277.369 -24137.257 51280.993 -24177.247 51368.628 -24177.247 51367.715 -24133.249 51360.804 -24066.384 51347.116 -24017.695 51324.904 -23981.849 51292.426 -23953.513 51278.267 -23944.355 51213.947 -23920.507 51143.527 -23919.006 51075.405 -23937.966 51075.405 -23937.966"/><path d="M 51075.405 -23937.966 51017.979 -23975.497 50990.281 -24009.096 50968.338 -24070.064 50966.595 -24118.308 50970.543 -24182.816 51119.314 -24247.934 51191.651 -24281.202 51238.916 -24307.964 51263.493 -24331.144 51267.763 -24353.667 51254.111 -24378.455 51239.057 -24394.886 51195.254 -24421.235 51147.611 -24423.081 51103.855 -24402.546 51071.711 -24361.752 51065.962 -24347.347 51038.424 -24302.356 51006.742 -24283.182 50963.286 -24266.779 50963.286 -24328.966 50967.128 -24371.283 50982.177 -24406.969 51013.72 -24447.943 51018.408 -24453.267 51053.494 -24489.72 51083.653 -24509.283 51121.385 -24518.283 51152.665 -24521.23 51208.615 -24521.965 51248.445 -24512.66 51273.292 -24498.846 51312.344 -24468.467 51339.375 -24435.613 51356.483 -24394.294 51365.762 -24338.521 51369.307 -24262.305 51369.59 -24223.622 51368.628 -24177.247 51280.993 -24177.247 51279.977 -24202.126 51277.444 -24206.2 51260.726 -24200.665 51224.751 -24186.017 51176.669 -24165.19 51166.614 -24160.714 51105.848 -24129.814 51072.368 -24102.657 51065.01 -24077.22 51082.609 -24051.481 51097.144 -24040.109 51149.59 -24017.364 51198.678 -24021.122 51239.773 -24048.884 51268.242 -24098.152 51277.369 -24137.257 51280.993 -24177.247 51368.628 -24177.247 51367.715 -24133.249 51360.804 -24066.384 51347.116 -24017.695 51324.904 -23981.849 51292.426 -23953.513 51278.267 -23944.355 51213.947 -23920.507 51143.527 -23919.006 51075.405 -23937.966" fill="none" stroke-width="10"/><path d="M 51576.4 -23929.752 51559.052 -23937.334 51517.644 -23970.128 51482.235 -24017.547 51460.336 -24068.151 51456.771 -24093.098 51468.721 -24127.927 51494.933 -24146.357 51523.036 -24157.516 51535.905 -24159.572 51542.171 -24144.649 51554.544 -24112.175 51559.972 -24097.502 51590.41 -24046.744 51634.48 -24021.427 51690.99 -24022.206 51695.175 -24023.203 51725.345 -24037.507 51747.524 -24065.393 51762.673 -24110.287 51771.75 -24175.615 51775.714 -24264.804 51776.086 -24312.261 51776.27 -24387.071 51777.478 -24438.069 51780.691 -24470.471 51786.891 -24489.495 51797.06 -24500.356 51812.181 -24508.272 51813.054 -24508.67 51842.172 -24520.981 51856.597 -24525.514 51858.814 -24511.809 51860.711 -24473.925 51862.153 -24416.715 51863.002 -24345.027 51863.171 -24292.565 51862.308 -24191.047 51858.93 -24114.032 51851.858 -24057.023 51839.912 -24015.526 51821.91 -23985.043 51796.673 -23961.08 51771.753 -23944.355 51711.829 -23922.097 51642.089 -23917.076 51576.4 -23929.752 51576.4 -23929.752"/><path d="M 51576.4 -23929.752 51559.052 -23937.334 51517.644 -23970.128 51482.235 -24017.547 51460.336 -24068.151 51456.771 -24093.098 51468.721 -24127.927 51494.933 -24146.357 51523.036 -24157.516 51535.905 -24159.572 51542.171 -24144.649 51554.544 -24112.175 51559.972 -24097.502 51590.41 -24046.744 51634.48 -24021.427 51690.99 -24022.206 51695.175 -24023.203 51725.345 -24037.507 51747.524 -24065.393 51762.673 -24110.287 51771.75 -24175.615 51775.714 -24264.804 51776.086 -24312.261 51776.27 -24387.071 51777.478 -24438.069 51780.691 -24470.471 51786.891 -24489.495 51797.06 -24500.356 51812.181 -24508.272 51813.054 -24508.67 51842.172 -24520.981 51856.597 -24525.514 51858.814 -24511.809 51860.711 -24473.925 51862.153 -24416.715 51863.002 -24345.027 51863.171 -24292.565 51862.308 -24191.047 51858.93 -24114.032 51851.858 -24057.023 51839.912 -24015.526 51821.91 -23985.043 51796.673 -23961.08 51771.753 -23944.355 51711.829 -23922.097 51642.089 -23917.076 51576.4 -23929.752" fill="none" stroke-width="10"/><path d="M 52084.124 -23927.335 52042.333 -23946.344 52009.531 -23969.378 51985.497 -23995.133 51968.903 -24028.358 51958.423 -24073.8 51952.729 -24136.207 51950.493 -24220.327 51950.257 -24275.721 51950.257 -24491.826 51987.226 -24508.67 52016.344 -24520.981 52030.769 -24525.514 52033.528 -24512.025 52035.718 -24475.653 52037.058 -24422.542 52037.343 -24380.372 52038.566 -24319.447 52041.864 -24271.115 52046.679 -24241.518 52050.504 -24235.229 52076.217 -24241.652 52116.582 -24258.125 52163.321 -24280.458 52208.155 -24304.457 52242.807 -24325.93 52258.998 -24340.685 52259.062 -24340.845 52257.67 -24368.152 52245.182 -24394.219 52223.257 -24415.392 52191.257 -24422.474 52163.908 -24421.649 52125.174 -24421.042 52104.842 -24430.116 52092.631 -24454.092 52091.091 -24458.613 52085.797 -24492.806 52099.953 -24513.568 52136.852 -24523.462 52176.711 -24525.292 52248.438 -24511.727 52285.568 -24492.355 52331.424 -24446.845 52355.744 -24390.983 52357.927 -24331.957 52337.371 -24276.953 52306.451 -24242.486 52275.58 -24223.189 52227.058 -24198.759 52170.515 -24173.985 52161.09 -24170.199 52098.981 -24142.791 52063.178 -24118.634 52051.663 -24094.619 52062.42 -24067.635 52080.886 -24046.543 52124.531 -24020.572 52172.554 -24018.624 52216.594 -24038.637 52248.291 -24078.551 52252.451 -24088.848 52276.673 -24126.724 52312.035 -24154.842 52356.657 -24177.917 52356.657 -24112.485 52354.031 -24072.506 52342.77 -24040.997 52317.801 -24007.378 52293.831 -23981.484 52256.559 -23944.817 52227.599 -23925.121 52196.495 -23917.22 52161.287 -23915.914 52084.124 -23927.335 52084.124 -23927.335"/><path d="M 52084.124 -23927.335 52042.333 -23946.344 52009.531 -23969.378 51985.497 -23995.133 51968.903 -24028.358 51958.423 -24073.8 51952.729 -24136.207 51950.493 -24220.327 51950.257 -24275.721 51950.257 -24491.826 51987.226 -24508.67 52016.344 -24520.981 52030.769 -24525.514 52033.528 -24512.025 52035.718 -24475.653 52037.058 -24422.542 52037.343 -24380.372 52038.566 -24319.447 52041.864 -24271.115 52046.679 -24241.518 52050.504 -24235.229 52076.217 -24241.652 52116.582 -24258.125 52163.321 -24280.458 52208.155 -24304.457 52242.807 -24325.93 52258.998 -24340.685 52259.062 -24340.845 52257.67 -24368.152 52245.182 -24394.219 52223.257 -24415.392 52191.257 -24422.474 52163.908 -24421.649 52125.174 -24421.042 52104.842 -24430.116 52092.631 -24454.092 52091.091 -24458.613 52085.797 -24492.806 52099.953 -24513.568 52136.852 -24523.462 52176.711 -24525.292 52248.438 -24511.727 52285.568 -24492.355 52331.424 -24446.845 52355.744 -24390.983 52357.927 -24331.957 52337.371 -24276.953 52306.451 -24242.486 52275.58 -24223.189 52227.058 -24198.759 52170.515 -24173.985 52161.09 -24170.199 52098.981 -24142.791 52063.178 -24118.634 52051.663 -24094.619 52062.42 -24067.635 52080.886 -24046.543 52124.531 -24020.572 52172.554 -24018.624 52216.594 -24038.637 52248.291 -24078.551 52252.451 -24088.848 52276.673 -24126.724 52312.035 -24154.842 52356.657 -24177.917 52356.657 -24112.485 52354.031 -24072.506 52342.77 -24040.997 52317.801 -24007.378 52293.831 -23981.484 52256.559 -23944.817 52227.599 -23925.121 52196.495 -23917.22 52161.287 -23915.914 52084.124 -23927.335" fill="none" stroke-width="10"/><path d="M 52449.167 -23929.663 52446.952 -23967.85 52445.216 -24025.886 52444.101 -24099.18 52443.743 -24176.055 52443.743 -24436.196 52489.674 -24482.127 52521.325 -24510.429 52549.11 -24521.893 52587.085 -24521.168 52602.16 -24519.321 52649.274 -24513.948 52688.244 -24510.869 52697.743 -24510.585 52729.767 -24512.445 52775.568 -24517.114 52793.326 -24519.321 52836.943 -24522.735 52866.255 -24515.32 52895.32 -24492.427 52905.812 -24482.127 52951.743 -24436.196 52951.743 -23949.602 52914.774 -23932.758 52882.941 -23920.282 52864.317 -23915.914 52859.542 -23929.718 52855.079 -23968.286 52851.225 -24027.356 52848.278 -24102.663 52846.857 -24166.286 52842.886 -24416.657 52808.241 -24421.556 52776.732 -24418.131 52761.292 -24407.041 52756.977 -24386.308 52753.292 -24342.145 52750.531 -24280.146 52748.988 -24205.909 52748.765 -24167.706 52748.543 -23947.783 52702.834 -23931.849 52670.482 -23921.015 52652.885 -23915.962 52652.377 -23915.914 52650.612 -23929.648 52648.671 -23967.73 52646.718 -24025.482 52644.916 -24098.227 52643.657 -24166.286 52639.686 -24416.657 52552.6 -24416.657 52548.604 -24188.24 52544.608 -23959.822 52502.153 -23937.868 52470.808 -23922.793 52452.256 -23915.951 52451.721 -23915.914 52449.167 -23929.663 52449.167 -23929.663"/><path d="M 52449.167 -23929.663 52446.952 -23967.85 52445.216 -24025.886 52444.101 -24099.18 52443.743 -24176.055 52443.743 -24436.196 52489.674 -24482.127 52521.325 -24510.429 52549.11 -24521.893 52587.085 -24521.168 52602.16 -24519.321 52649.274 -24513.948 52688.244 -24510.869 52697.743 -24510.585 52729.767 -24512.445 52775.568 -24517.114 52793.326 -24519.321 52836.943 -24522.735 52866.255 -24515.32 52895.32 -24492.427 52905.812 -24482.127 52951.743 -24436.196 52951.743 -23949.602 52914.774 -23932.758 52882.941 -23920.282 52864.317 -23915.914 52859.542 -23929.718 52855.079 -23968.286 52851.225 -24027.356 52848.278 -24102.663 52846.857 -24166.286 52842.886 -24416.657 52808.241 -24421.556 52776.732 -24418.131 52761.292 -24407.041 52756.977 -24386.308 52753.292 -24342.145 52750.531 -24280.146 52748.988 -24205.909 52748.765 -24167.706 52748.543 -23947.783 52702.834 -23931.849 52670.482 -23921.015 52652.885 -23915.962 52652.377 -23915.914 52650.612 -23929.648 52648.671 -23967.73 52646.718 -24025.482 52644.916 -24098.227 52643.657 -24166.286 52639.686 -24416.657 52552.6 -24416.657 52548.604 -24188.24 52544.608 -23959.822 52502.153 -23937.868 52470.808 -23922.793 52452.256 -23915.951 52451.721 -23915.914 52449.167 -23929.663" fill="none" stroke-width="10"/><path d="M 53038.883 -24036.358 53039.067 -24144.837 53039.781 -24228.287 53041.325 -24290.704 53043.999 -24336.085 53048.106 -24368.429 53053.945 -24391.733 53061.818 -24409.995 53067.779 -24420.418 53117.145 -24476.945 53179.736 -24512.377 53248.987 -24525.09 53318.332 -24513.463 53359.625 -24492.568 53402.975 -24456.422 53432.519 -24412.276 53450.345 -24354.462 53458.537 -24277.313 53459.698 -24220.714 53459.542 -24216.647 53358.143 -24216.647 53357.524 -24281.55 53354.686 -24324.514 53348.16 -24352.622 53336.477 -24372.953 53322.517 -24388.288 53275.635 -24417.89 53225.299 -24420.419 53177.724 -24395.705 53174.021 -24392.356 53158.217 -24374.935 53148.307 -24354.209 53142.942 -24323.362 53140.772 -24275.577 53140.429 -24222.748 53141.173 -24156.381 53144.252 -24112.106 53150.939 -24083.009 53162.504 -24062.173 53171.987 -24051.107 53216.04 -24023.198 53266.776 -24019.843 53315.204 -24041.159 53324.55 -24049.073 53340.46 -24066.647 53350.39 -24087.587 53355.722 -24118.782 53357.837 -24167.122 53358.143 -24216.647 53459.542 -24216.647 53456.19 -24129.568 53444.274 -24061.086 53421.865 -24009.6 53386.876 -23969.443 53359.625 -23948.861 53310.093 -23926.625 53252.684 -23916.304 53199.318 -23919.067 53169.457 -23930.212 53157.739 -23933.383 53149.963 -23921.557 53144.535 -23889.866 53140.429 -23841.593 53135.933 -23787.829 53129.687 -23755.482 53118.324 -23736.985 53098.472 -23724.77 53086 -23719.362 53038.829 -23699.601 53038.883 -24036.358 53038.883 -24036.358"/><path d="M 53038.883 -24036.358 53039.067 -24144.837 53039.781 -24228.287 53041.325 -24290.704 53043.999 -24336.085 53048.106 -24368.429 53053.945 -24391.733 53061.818 -24409.995 53067.779 -24420.418 53117.145 -24476.945 53179.736 -24512.377 53248.987 -24525.09 53318.332 -24513.463 53359.625 -24492.568 53402.975 -24456.422 53432.519 -24412.276 53450.345 -24354.462 53458.537 -24277.313 53459.698 -24220.714 53459.542 -24216.647 53358.143 -24216.647 53357.524 -24281.55 53354.686 -24324.514 53348.16 -24352.622 53336.477 -24372.953 53322.517 -24388.288 53275.635 -24417.89 53225.299 -24420.419 53177.724 -24395.705 53174.021 -24392.356 53158.217 -24374.935 53148.307 -24354.209 53142.942 -24323.362 53140.772 -24275.577 53140.429 -24222.748 53141.173 -24156.381 53144.252 -24112.106 53150.939 -24083.009 53162.504 -24062.173 53171.987 -24051.107 53216.04 -24023.198 53266.776 -24019.843 53315.204 -24041.159 53324.55 -24049.073 53340.46 -24066.647 53350.39 -24087.587 53355.722 -24118.782 53357.837 -24167.122 53358.143 -24216.647 53459.542 -24216.647 53456.19 -24129.568 53444.274 -24061.086 53421.865 -24009.6 53386.876 -23969.443 53359.625 -23948.861 53310.093 -23926.625 53252.684 -23916.304 53199.318 -23919.067 53169.457 -23930.212 53157.739 -23933.383 53149.963 -23921.557 53144.535 -23889.866 53140.429 -23841.593 53135.933 -23787.829 53129.687 -23755.482 53118.324 -23736.985 53098.472 -23724.77 53086 -23719.362 53038.829 -23699.601 53038.883 -24036.358" fill="none" stroke-width="10"/><path d="M 53699.074 -23920.755 53633.142 -23945.084 53579.727 -23988.117 53558.836 -24018.409 53536.061 -24073.994 53536.534 -24114.186 53560.438 -24141.217 53569.283 -24145.813 53607.47 -24160.144 53626.972 -24156.472 53633.578 -24132.407 53633.914 -24119.114 53646.008 -24070.21 53677.529 -24035.999 53721.341 -24019.476 53770.305 -24023.634 53810.106 -24045.227 53823.55 -24057.544 53833.079 -24072.487 53839.515 -24095.075 53843.683 -24130.328 53846.403 -24183.266 53848.498 -24258.907 53849.04 -24282.857 53851.019 -24364.79 53853.269 -24422.455 53856.643 -24460.608 53861.994 -24484.004 53870.176 -24497.398 53882.041 -24505.545 53889.638 -24509.144 53921.898 -24521.452 53940.889 -24525.514 53947.164 -24511.948 53950.994 -24470.934 53952.4 -24401.999 53951.402 -24304.669 53951.092 -24289.657 53948.899 -24200.859 53946.307 -24136.019 53942.618 -24090.067 53937.136 -24057.935 53929.165 -24034.553 53918.007 -24014.852 53912.17 -24006.41 53878.704 -23969.057 53841.273 -23940.003 53836.691 -23937.467 53769.574 -23917.443 53699.074 -23920.755 53699.074 -23920.755"/><path d="M 53699.074 -23920.755 53633.142 -23945.084 53579.727 -23988.117 53558.836 -24018.409 53536.061 -24073.994 53536.534 -24114.186 53560.438 -24141.217 53569.283 -24145.813 53607.47 -24160.144 53626.972 -24156.472 53633.578 -24132.407 53633.914 -24119.114 53646.008 -24070.21 53677.529 -24035.999 53721.341 -24019.476 53770.305 -24023.634 53810.106 -24045.227 53823.55 -24057.544 53833.079 -24072.487 53839.515 -24095.075 53843.683 -24130.328 53846.403 -24183.266 53848.498 -24258.907 53849.04 -24282.857 53851.019 -24364.79 53853.269 -24422.455 53856.643 -24460.608 53861.994 -24484.004 53870.176 -24497.398 53882.041 -24505.545 53889.638 -24509.144 53921.898 -24521.452 53940.889 -24525.514 53947.164 -24511.948 53950.994 -24470.934 53952.4 -24401.999 53951.402 -24304.669 53951.092 -24289.657 53948.899 -24200.859 53946.307 -24136.019 53942.618 -24090.067 53937.136 -24057.935 53929.165 -24034.553 53918.007 -24014.852 53912.17 -24006.41 53878.704 -23969.057 53841.273 -23940.003 53836.691 -23937.467 53769.574 -23917.443 53699.074 -23920.755" fill="none" stroke-width="10"/><path d="M 54189.256 -23921.968 54132.384 -23943.087 54131.733 -23943.493 54096.56 -23969.38 54070.593 -23999.633 54052.33 -24039.058 54040.268 -24092.462 54032.904 -24164.651 54028.736 -24260.432 54028.371 -24274.078 54023.124 -24479.842 54067.284 -24502.678 54099.237 -24518.11 54118.53 -24525.423 54119.422 -24525.514 54122.761 -24512.022 54125.413 -24475.626 54127.044 -24422.452 54127.4 -24379.393 54127.408 -24309.641 54130.597 -24265.837 54141.712 -24244.944 54165.499 -24243.925 54206.704 -24259.741 54268.914 -24288.815 54314.659 -24312.963 54338.187 -24333.913 54345.104 -24356.747 54345.114 -24357.877 54333.701 -24397.212 54299.908 -24418.462 54248.191 -24421.539 54210.939 -24421.006 54191.297 -24431.735 54179.048 -24457.505 54171.998 -24490.337 54182.158 -24508.966 54185.983 -24511.632 54221.999 -24522.34 54272.434 -24523.856 54324.374 -24516.759 54361.178 -24503.788 54412.062 -24460.585 54440.986 -24400.446 54446.714 -24353.462 54442.343 -24311.082 54426.525 -24276.488 54395.203 -24245.763 54344.322 -24214.99 54269.824 -24180.252 54265.286 -24178.288 54198.179 -24147.287 54156.768 -24121.862 54139.019 -24099.014 54142.893 -24075.745 54166.357 -24049.056 54173.373 -24042.914 54220.37 -24019.1 54269.067 -24020.103 54311.478 -24043.451 54339.616 -24086.675 54342.231 -24095.16 54367.692 -24136.308 54399.999 -24156.128 54446.714 -24175.77 54446.714 -24124.95 54432.504 -24051.082 54390.325 -23983.327 54368.376 -23960.661 54318.483 -23931.569 54255.033 -23918.4 54189.256 -23921.968 54189.256 -23921.968"/><path d="M 54189.256 -23921.968 54132.384 -23943.087 54131.733 -23943.493 54096.56 -23969.38 54070.593 -23999.633 54052.33 -24039.058 54040.268 -24092.462 54032.904 -24164.651 54028.736 -24260.432 54028.371 -24274.078 54023.124 -24479.842 54067.284 -24502.678 54099.237 -24518.11 54118.53 -24525.423 54119.422 -24525.514 54122.761 -24512.022 54125.413 -24475.626 54127.044 -24422.452 54127.4 -24379.393 54127.408 -24309.641 54130.597 -24265.837 54141.712 -24244.944 54165.499 -24243.925 54206.704 -24259.741 54268.914 -24288.815 54314.659 -24312.963 54338.187 -24333.913 54345.104 -24356.747 54345.114 -24357.877 54333.701 -24397.212 54299.908 -24418.462 54248.191 -24421.539 54210.939 -24421.006 54191.297 -24431.735 54179.048 -24457.505 54171.998 -24490.337 54182.158 -24508.966 54185.983 -24511.632 54221.999 -24522.34 54272.434 -24523.856 54324.374 -24516.759 54361.178 -24503.788 54412.062 -24460.585 54440.986 -24400.446 54446.714 -24353.462 54442.343 -24311.082 54426.525 -24276.488 54395.203 -24245.763 54344.322 -24214.99 54269.824 -24180.252 54265.286 -24178.288 54198.179 -24147.287 54156.768 -24121.862 54139.019 -24099.014 54142.893 -24075.745 54166.357 -24049.056 54173.373 -24042.914 54220.37 -24019.1 54269.067 -24020.103 54311.478 -24043.451 54339.616 -24086.675 54342.231 -24095.16 54367.692 -24136.308 54399.999 -24156.128 54446.714 -24175.77 54446.714 -24124.95 54432.504 -24051.082 54390.325 -23983.327 54368.376 -23960.661 54318.483 -23931.569 54255.033 -23918.4 54189.256 -23921.968" fill="none" stroke-width="10"/><path d="M 54853.114 -23822.289 54848.861 -23881.613 54843.975 -23916.572 54837.205 -23931.82 54827.298 -23932.015 54824.086 -23930.195 54781.356 -23917.015 54725.773 -23917.785 54669.263 -23931.333 54633.918 -23948.861 54597.679 -23976.861 54571.187 -24008.549 54553.001 -24048.813 54541.678 -24102.543 54535.778 -24174.626 54533.857 -24269.951 54533.823 -24288.237 54533.8 -24493.646 54579.509 -24509.58 54611.973 -24520.42 54629.785 -24525.468 54630.309 -24525.514 54632.063 -24511.828 54633.556 -24474.076 54634.674 -24417.224 54635.303 -24346.234 54635.4 -24303.073 54635.602 -24217.973 54636.642 -24156.981 54639.169 -24115.177 54643.836 -24087.642 54651.293 -24069.456 54662.189 -24055.698 54668.993 -24049.073 54715.728 -24022.375 54766.728 -24020.375 54812.999 -24042.955 54821.556 -24051.107 54834.107 -24066.436 54842.812 -24084.618 54848.369 -24110.909 54851.474 -24150.562 54852.824 -24208.832 54853.114 -24289.173 54853.114 -24493.646 54898.823 -24509.58 54931.287 -24520.42 54949.099 -24525.468 54949.623 -24525.514 54950.963 -24511.623 54952.172 -24472.439 54953.199 -24411.7 54953.998 -24333.141 54954.519 -24240.498 54954.714 -24137.509 54954.714 -23740.342 54907.543 -23720.444 54860.371 -23700.547 54853.114 -23822.289 54853.114 -23822.289"/><path d="M 54853.114 -23822.289 54848.861 -23881.613 54843.975 -23916.572 54837.205 -23931.82 54827.298 -23932.015 54824.086 -23930.195 54781.356 -23917.015 54725.773 -23917.785 54669.263 -23931.333 54633.918 -23948.861 54597.679 -23976.861 54571.187 -24008.549 54553.001 -24048.813 54541.678 -24102.543 54535.778 -24174.626 54533.857 -24269.951 54533.823 -24288.237 54533.8 -24493.646 54579.509 -24509.58 54611.973 -24520.42 54629.785 -24525.468 54630.309 -24525.514 54632.063 -24511.828 54633.556 -24474.076 54634.674 -24417.224 54635.303 -24346.234 54635.4 -24303.073 54635.602 -24217.973 54636.642 -24156.981 54639.169 -24115.177 54643.836 -24087.642 54651.293 -24069.456 54662.189 -24055.698 54668.993 -24049.073 54715.728 -24022.375 54766.728 -24020.375 54812.999 -24042.955 54821.556 -24051.107 54834.107 -24066.436 54842.812 -24084.618 54848.369 -24110.909 54851.474 -24150.562 54852.824 -24208.832 54853.114 -24289.173 54853.114 -24493.646 54898.823 -24509.58 54931.287 -24520.42 54949.099 -24525.468 54949.623 -24525.514 54950.963 -24511.623 54952.172 -24472.439 54953.199 -24411.7 54953.998 -24333.141 54954.519 -24240.498 54954.714 -24137.509 54954.714 -23740.342 54907.543 -23720.444 54860.371 -23700.547 54853.114 -23822.289" fill="none" stroke-width="10"/><path d="M 56060.697 -23902.239 56003.473 -23940.735 55959.251 -23996.335 55932.833 -24067.086 55927.49 -24119.162 55928.097 -24140.893 55933.178 -24157.531 55947.145 -24172.437 55974.411 -24188.973 56019.388 -24210.498 56086.489 -24240.374 56086.829 -24240.524 56148.593 -24268.813 56199.241 -24293.933 56233.596 -24313.179 56246.482 -24323.848 56246.486 -24323.934 56235.128 -24347.166 56208.569 -24372.774 56178.077 -24391.221 56162.63 -24394.886 56120.485 -24382.212 56084.192 -24350.471 56066.483 -24315.572 56049.448 -24289.845 56016.078 -24260.546 55976.851 -24235.235 55942.244 -24221.471 55935.007 -24220.714 55926.861 -24233.16 55926.37 -24264.972 55932.357 -24307.866 55943.643 -24353.558 55959.05 -24393.761 55959.829 -24395.322 56006.196 -24460.062 56066.289 -24504.097 56134.535 -24525.711 56205.362 -24523.185 56273.196 -24494.804 56276.212 -24492.808 56329.573 -24444.448 56364.66 -24381.352 56384.078 -24298.387 56386.684 -24275.078 56391.299 -24165.055 56385.767 -24113.748 56246.486 -24113.748 56244.676 -24145.753 56234.778 -24155.093 56210.102 -24148.105 56171.205 -24131.587 56127.725 -24110.881 56126.644 -24110.333 56089.791 -24090.949 56075 -24078.013 56078.647 -24064.451 56094.005 -24046.632 56133.077 -24020.845 56175.154 -24018.95 56212.897 -24037.717 56238.966 -24073.915 56246.486 -24113.748 56385.767 -24113.748 56381.806 -24077.027 56357.45 -24007.212 56323.544 -23958.302 56262.347 -23908.878 56194.937 -23884.359 56126.12 -23882.797 56060.697 -23902.239 56060.697 -23902.239"/><path d="M 56060.697 -23902.239 56003.473 -23940.735 55959.251 -23996.335 55932.833 -24067.086 55927.49 -24119.162 55928.097 -24140.893 55933.178 -24157.531 55947.145 -24172.437 55974.411 -24188.973 56019.388 -24210.498 56086.489 -24240.374 56086.829 -24240.524 56148.593 -24268.813 56199.241 -24293.933 56233.596 -24313.179 56246.482 -24323.848 56246.486 -24323.934 56235.128 -24347.166 56208.569 -24372.774 56178.077 -24391.221 56162.63 -24394.886 56120.485 -24382.212 56084.192 -24350.471 56066.483 -24315.572 56049.448 -24289.845 56016.078 -24260.546 55976.851 -24235.235 55942.244 -24221.471 55935.007 -24220.714 55926.861 -24233.16 55926.37 -24264.972 55932.357 -24307.866 55943.643 -24353.558 55959.05 -24393.761 55959.829 -24395.322 56006.196 -24460.062 56066.289 -24504.097 56134.535 -24525.711 56205.362 -24523.185 56273.196 -24494.804 56276.212 -24492.808 56329.573 -24444.448 56364.66 -24381.352 56384.078 -24298.387 56386.684 -24275.078 56391.299 -24165.055 56385.767 -24113.748 56246.486 -24113.748 56244.676 -24145.753 56234.778 -24155.093 56210.102 -24148.105 56171.205 -24131.587 56127.725 -24110.881 56126.644 -24110.333 56089.791 -24090.949 56075 -24078.013 56078.647 -24064.451 56094.005 -24046.632 56133.077 -24020.845 56175.154 -24018.95 56212.897 -24037.717 56238.966 -24073.915 56246.486 -24113.748 56385.767 -24113.748 56381.806 -24077.027 56357.45 -24007.212 56323.544 -23958.302 56262.347 -23908.878 56194.937 -23884.359 56126.12 -23882.797 56060.697 -23902.239" fill="none" stroke-width="10"/><path d="M 57187.885 -23892.962 57119.855 -23928.733 57069.649 -23986.301 57051.815 -24023.312 57037.937 -24078.882 57030.833 -24149.096 57030.16 -24225.727 57035.573 -24300.552 57046.73 -24365.342 57063.286 -24411.873 57068.374 -24419.887 57128.645 -24479.707 57200.231 -24515.535 57277.908 -24526.02 57356.452 -24509.81 57378.311 -24500.092 57420.878 -24470.143 57458.237 -24430.433 57461.768 -24425.397 57476.119 -24401.124 57485.606 -24375.178 57491.21 -24341.022 57493.914 -24292.119 57494.701 -24221.935 57494.714 -24206.2 57494.678 -24201.192 57349.571 -24201.192 57348.727 -24267.43 57345.404 -24311.386 57338.417 -24339.779 57326.584 -24359.325 57320.543 -24365.857 57285.814 -24390.68 57252.097 -24389.548 57218.005 -24368.016 57197.671 -24345.029 57185.629 -24311.478 57178.866 -24258.569 57178.402 -24252.399 57177.248 -24156.513 57189.312 -24085.299 57214.43 -24039.194 57252.44 -24018.635 57266.008 -24017.514 57301.636 -24023.152 57326.006 -24042.686 57340.907 -24080.042 57348.125 -24139.15 57349.571 -24201.192 57494.678 -24201.192 57494.174 -24131.413 57491.904 -24079.159 57486.932 -24042.949 57478.287 -24016.299 57464.995 -23992.722 57462.057 -23988.338 57412.687 -23929.249 57358.891 -23894.947 57293.398 -23881.331 57271.158 -23880.665 57187.885 -23892.962 57187.885 -23892.962"/><path d="M 57187.885 -23892.962 57119.855 -23928.733 57069.649 -23986.301 57051.815 -24023.312 57037.937 -24078.882 57030.833 -24149.096 57030.16 -24225.727 57035.573 -24300.552 57046.73 -24365.342 57063.286 -24411.873 57068.374 -24419.887 57128.645 -24479.707 57200.231 -24515.535 57277.908 -24526.02 57356.452 -24509.81 57378.311 -24500.092 57420.878 -24470.143 57458.237 -24430.433 57461.768 -24425.397 57476.119 -24401.124 57485.606 -24375.178 57491.21 -24341.022 57493.914 -24292.119 57494.701 -24221.935 57494.714 -24206.2 57494.678 -24201.192 57349.571 -24201.192 57348.727 -24267.43 57345.404 -24311.386 57338.417 -24339.779 57326.584 -24359.325 57320.543 -24365.857 57285.814 -24390.68 57252.097 -24389.548 57218.005 -24368.016 57197.671 -24345.029 57185.629 -24311.478 57178.866 -24258.569 57178.402 -24252.399 57177.248 -24156.513 57189.312 -24085.299 57214.43 -24039.194 57252.44 -24018.635 57266.008 -24017.514 57301.636 -24023.152 57326.006 -24042.686 57340.907 -24080.042 57348.125 -24139.15 57349.571 -24201.192 57494.678 -24201.192 57494.174 -24131.413 57491.904 -24079.159 57486.932 -24042.949 57478.287 -24016.299 57464.995 -23992.722 57462.057 -23988.338 57412.687 -23929.249 57358.891 -23894.947 57293.398 -23881.331 57271.158 -23880.665 57187.885 -23892.962" fill="none" stroke-width="10"/><path d="M 55512.907 -23898.78 55466.328 -23925.723 55433.943 -23952.466 55410.258 -23980.484 55393.941 -24014.748 55383.661 -24060.227 55378.086 -24121.892 55375.884 -24204.711 55375.629 -24264.246 55375.629 -24483.391 55437.314 -24511.044 55499 -24538.697 55506.257 -24298.67 55509.256 -24209.028 55512.402 -24143.962 55516.299 -24099.026 55521.553 -24069.77 55528.769 -24051.748 55538.55 -24040.511 55541.688 -24038.079 55589.239 -24019.083 55637.303 -24026.6 55665.914 -24046.543 55677.553 -24060.675 55685.609 -24079.22 55690.729 -24107.334 55693.559 -24150.173 55694.744 -24212.895 55694.943 -24278.261 55694.982 -24360.268 55696.386 -24418.316 55701.086 -24457.465 55711.013 -24482.78 55728.097 -24499.323 55754.268 -24512.156 55789.225 -24525.491 55827.404 -24540.007 55822.859 -24282.389 55821.029 -24189.519 55818.888 -24120.889 55815.819 -24071.711 55811.206 -24037.198 55804.432 -24012.562 55794.881 -23993.016 55783.366 -23975.77 55727.81 -23920.68 55660.02 -23888.822 55586.287 -23881.191 55512.907 -23898.78 55512.907 -23898.78"/><path d="M 55512.907 -23898.78 55466.328 -23925.723 55433.943 -23952.466 55410.258 -23980.484 55393.941 -24014.748 55383.661 -24060.227 55378.086 -24121.892 55375.884 -24204.711 55375.629 -24264.246 55375.629 -24483.391 55437.314 -24511.044 55499 -24538.697 55506.257 -24298.67 55509.256 -24209.028 55512.402 -24143.962 55516.299 -24099.026 55521.553 -24069.77 55528.769 -24051.748 55538.55 -24040.511 55541.688 -24038.079 55589.239 -24019.083 55637.303 -24026.6 55665.914 -24046.543 55677.553 -24060.675 55685.609 -24079.22 55690.729 -24107.334 55693.559 -24150.173 55694.744 -24212.895 55694.943 -24278.261 55694.982 -24360.268 55696.386 -24418.316 55701.086 -24457.465 55711.013 -24482.78 55728.097 -24499.323 55754.268 -24512.156 55789.225 -24525.491 55827.404 -24540.007 55822.859 -24282.389 55821.029 -24189.519 55818.888 -24120.889 55815.819 -24071.711 55811.206 -24037.198 55804.432 -24012.562 55794.881 -23993.016 55783.366 -23975.77 55727.81 -23920.68 55660.02 -23888.822 55586.287 -23881.191 55512.907 -23898.78" fill="none" stroke-width="10"/><path d="M 56629.256 -23890.918 56573.799 -23918.568 56524.852 -23969.48 56511.371 -23988.338 56496.686 -24013.015 56487.158 -24039.816 56481.707 -24075.587 56479.253 -24127.169 56478.714 -24195.267 56481.148 -24288.588 56489.606 -24358.657 56505.826 -24410.931 56531.546 -24450.869 56568.503 -24483.929 56571.218 -24485.886 56607.64 -24505.908 56651.498 -24515.815 56707.276 -24518.257 56797.952 -24518.257 56797.99 -24606.283 56798.834 -24655.308 56803.976 -24684.065 56817.413 -24701.311 56843.142 -24715.808 56849.321 -24718.769 56878.236 -24732.648 56900.624 -24741.414 56917.271 -24742.171 56928.964 -24732.023 56936.49 -24708.073 56940.634 -24667.426 56942.185 -24607.186 56941.929 -24524.455 56940.651 -24416.339 56940.252 -24384 56938.815 -24272.524 56937.528 -24199.603 56798.029 -24199.603 56797.245 -24261.499 56793.76 -24301.997 56785.876 -24328.708 56771.895 -24349.244 56762.403 -24359.26 56723.596 -24388.567 56689.237 -24390.952 56653.784 -24366.75 56652.886 -24365.857 56638.461 -24347.153 56629.687 -24321.732 56625.261 -24282.584 56623.882 -24222.697 56623.857 -24209.43 56627.188 -24126.901 56638.031 -24069.691 56657.66 -24034.766 56687.35 -24019.094 56704.509 -24017.514 56745.234 -24024.926 56773.168 -24049.33 56789.983 -24093.98 56797.35 -24162.13 56798.029 -24199.603 56937.528 -24199.603 56937.292 -24186.245 56935.323 -24121.333 56932.55 -24073.958 56928.612 -24040.29 56923.151 -24016.498 56915.808 -23998.753 56906.223 -23983.224 56902.113 -23977.381 56847.595 -23922.185 56778.664 -23890.89 56698.928 -23882.165 56629.256 -23890.918 56629.256 -23890.918"/><path d="M 56629.256 -23890.918 56573.799 -23918.568 56524.852 -23969.48 56511.371 -23988.338 56496.686 -24013.015 56487.158 -24039.816 56481.707 -24075.587 56479.253 -24127.169 56478.714 -24195.267 56481.148 -24288.588 56489.606 -24358.657 56505.826 -24410.931 56531.546 -24450.869 56568.503 -24483.929 56571.218 -24485.886 56607.64 -24505.908 56651.498 -24515.815 56707.276 -24518.257 56797.952 -24518.257 56797.99 -24606.283 56798.834 -24655.308 56803.976 -24684.065 56817.413 -24701.311 56843.142 -24715.808 56849.321 -24718.769 56878.236 -24732.648 56900.624 -24741.414 56917.271 -24742.171 56928.964 -24732.023 56936.49 -24708.073 56940.634 -24667.426 56942.185 -24607.186 56941.929 -24524.455 56940.651 -24416.339 56940.252 -24384 56938.815 -24272.524 56937.528 -24199.603 56798.029 -24199.603 56797.245 -24261.499 56793.76 -24301.997 56785.876 -24328.708 56771.895 -24349.244 56762.403 -24359.26 56723.596 -24388.567 56689.237 -24390.952 56653.784 -24366.75 56652.886 -24365.857 56638.461 -24347.153 56629.687 -24321.732 56625.261 -24282.584 56623.882 -24222.697 56623.857 -24209.43 56627.188 -24126.901 56638.031 -24069.691 56657.66 -24034.766 56687.35 -24019.094 56704.509 -24017.514 56745.234 -24024.926 56773.168 -24049.33 56789.983 -24093.98 56797.35 -24162.13 56798.029 -24199.603 56937.528 -24199.603 56937.292 -24186.245 56935.323 -24121.333 56932.55 -24073.958 56928.612 -24040.29 56923.151 -24016.498 56915.808 -23998.753 56906.223 -23983.224 56902.113 -23977.381 56847.595 -23922.185 56778.664 -23890.89 56698.928 -23882.165 56629.256 -23890.918" fill="none" stroke-width="10"/><path d="M 80518 -16002 80518 -17272 M 88138 -16002 80518 -16002 M 88138 -17272 88138 -16002 M 75438 -17272 93218 -17272 M 75438 -50292 75438 -17272 M 93218 -50292 75438 -50292 M 93218 -17272 93218 -50292" fill="none" stroke-width="127"/><path d="M 75311 -54991 73787 -54991 M 73787 -55372 75311 -55372 M 75311 -55499 73787 -55499 M 75311 -55626 73787 -55626 M 73787 -55118 75311 -55118 M 73787 -54864 73787 -59944 75311 -59944 M 75311 -54864 73787 -54864 M 75311 -59944 75311 -54864 M 75311 -55245 73787 -55245 M 104807 -45370.8 104807 -43846.8 M 104426 -43846.8 104426 -45370.8 M 104299 -45370.8 104299 -43846.8 M 104172 -45370.8 104172 -43846.8 M 104680 -43846.8 104680 -45370.8 M 104934 -43846.8 99854 -43846.8 99854 -45370.8 M 104934 -45370.8 104934 -43846.8 M 99854 -45370.8 104934 -45370.8 M 104553 -45370.8 104553 -43846.8 M 142907 -45370.8 142907 -43846.8 M 142526 -43846.8 142526 -45370.8 M 142399 -45370.8 142399 -43846.8 M 142272 -45370.8 142272 -43846.8 M 142780 -43846.8 142780 -45370.8 M 143034 -43846.8 137954 -43846.8 137954 -45370.8 M 143034 -45370.8 143034 -43846.8 M 137954 -45370.8 143034 -45370.8 M 142653 -45370.8 142653 -43846.8 M 161957 -49180.8 161957 -47656.8 M 161576 -47656.8 161576 -49180.8 M 161449 -49180.8 161449 -47656.8 M 161322 -49180.8 161322 -47656.8 M 161830 -47656.8 161830 -49180.8 M 162084 -47656.8 157004 -47656.8 157004 -49180.8 M 162084 -49180.8 162084 -47656.8 M 157004 -49180.8 162084 -49180.8 M 161703 -49180.8 161703 -47656.8 M 94424.5 -112681 92900.5 -112681 M 92900.5 -113062 94424.5 -113062 M 94424.5 -113189 92900.5 -113189 M 94424.5 -113316 92900.5 -113316 M 92900.5 -112808 94424.5 -112808 M 92900.5 -112554 92900.5 -117634 94424.5 -117634 M 94424.5 -112554 92900.5 -112554 M 94424.5 -117634 94424.5 -112554 M 94424.5 -112935 92900.5 -112935 M 151892 -109601 150368 -109601 M 150368 -109982 151892 -109982 M 151892 -110109 150368 -110109 M 151892 -110236 150368 -110236 M 150368 -109728 151892 -109728 M 150368 -109474 150368 -114554 151892 -114554 M 151892 -109474 150368 -109474 M 151892 -114554 151892 -109474 M 151892 -109855 150368 -109855 M 132334 -105283 130810 -105283 M 130810 -105664 132334 -105664 M 132334 -105791 130810 -105791 M 132334 -105918 130810 -105918 M 130810 -105410 132334 -105410 M 130810 -105156 130810 -110236 132334 -110236 M 132334 -105156 130810 -105156 M 132334 -110236 132334 -105156 M 132334 -105537 130810 -105537 M 73787 -74580.8 72263 -74580.8 M 72263 -74961.8 73787 -74961.8 M 73787 -75088.8 72263 -75088.8 M 73787 -75215.8 72263 -75215.8 M 72263 -74707.8 73787 -74707.8 M 72263 -74453.8 72263 -79533.8 73787 -79533.8 M 73787 -74453.8 72263 -74453.8 M 73787 -79533.8 73787 -74453.8 M 73787 -74834.8 72263 -74834.8 M 75374.5 -112681 73850.5 -112681 M 73850.5 -113062 75374.5 -113062 M 75374.5 -113189 73850.5 -113189 M 75374.5 -113316 73850.5 -113316 M 73850.5 -112808 75374.5 -112808 M 73850.5 -112554 73850.5 -117634 75374.5 -117634 M 75374.5 -112554 73850.5 -112554 M 75374.5 -117634 75374.5 -112554 M 75374.5 -112935 73850.5 -112935 M 123857 -79660.8 123857 -78136.8 M 123476 -78136.8 123476 -79660.8 M 123349 -79660.8 123349 -78136.8 M 123222 -79660.8 123222 -78136.8 M 123730 -78136.8 123730 -79660.8 M 123984 -78136.8 118904 -78136.8 118904 -79660.8 M 123984 -79660.8 123984 -78136.8 M 118904 -79660.8 123984 -79660.8 M 123603 -79660.8 123603 -78136.8 M 62103 -50292 62103 -48768 M 61722 -48768 61722 -50292 M 61595 -50292 61595 -48768 M 61468 -50292 61468 -48768 M 61976 -48768 61976 -50292 M 62230 -48768 57150 -48768 57150 -50292 M 62230 -50292 62230 -48768 M 57150 -50292 62230 -50292 M 61849 -50292 61849 -48768 M 73787 -93630.8 72263 -93630.8 M 72263 -94011.8 73787 -94011.8 M 73787 -94138.8 72263 -94138.8 M 73787 -94265.8 72263 -94265.8 M 72263 -93757.8 73787 -93757.8 M 72263 -93503.8 72263 -98583.8 73787 -98583.8 M 73787 -93503.8 72263 -93503.8 M 73787 -98583.8 73787 -93503.8 M 73787 -93884.8 72263 -93884.8 M 62738 -68230.8 62738 -66706.8 M 62357 -66706.8 62357 -68230.8 M 62230 -68230.8 62230 -66706.8 M 62103 -68230.8 62103 -66706.8 M 62611 -66706.8 62611 -68230.8 M 62865 -66706.8 57785 -66706.8 57785 -68230.8 M 62865 -68230.8 62865 -66706.8 M 57785 -68230.8 62865 -68230.8 M 62484 -68230.8 62484 -66706.8 M 189799.886 -136286.384 190443.956 -134905.171 M 190098.653 -134744.154 189454.582 -136125.367 M 189339.481 -136071.694 189983.551 -134690.481 M 189224.38 -136018.022 189868.45 -134636.809 M 190328.855 -134851.499 189684.784 -136232.712 M 190559.057 -134958.844 185955.013 -132811.943 185310.943 -134193.156 M 189914.987 -136340.057 190559.057 -134958.844 M 185310.943 -134193.156 189914.987 -136340.057 M 189569.683 -136179.039 190213.754 -134797.826 M 188549.886 -138785.384 189193.956 -137404.171 M 188848.653 -137243.154 188204.582 -138624.367 M 188089.481 -138570.694 188733.551 -137189.481 M 187974.38 -138517.022 188618.45 -137135.809 M 189078.855 -137350.499 188434.784 -138731.712 M 189309.057 -137457.844 184705.013 -135310.943 184060.943 -136692.156 M 188664.987 -138839.057 189309.057 -137457.844 M 184060.943 -136692.156 188664.987 -138839.057 M 188319.683 -138678.039 188963.754 -137296.826 M 162213.384 -120519.114 160832.171 -119875.044 M 160671.154 -120220.347 162052.367 -120864.418 M 161998.694 -120979.519 160617.481 -120335.449 M 161945.022 -121094.62 160563.809 -120450.55 M 160778.499 -119990.145 162159.712 -120634.216 M 160885.844 -119759.943 158738.943 -124363.987 160120.156 -125008.057 M 162267.057 -120404.013 160885.844 -119759.943 M 160120.156 -125008.057 162267.057 -120404.013 M 162106.039 -120749.317 160724.826 -120105.246 M 113474 -109665 111950 -109665 M 111950 -110046 113474 -110046 M 113474 -110173 111950 -110173 M 113474 -110300 111950 -110300 M 111950 -109792 113474 -109792 M 111950 -109538 111950 -114618 113474 -114618 M 113474 -109538 111950 -109538 M 113474 -114618 113474 -109538 M 113474 -109919 111950 -109919 M 84963 -87280.8 84963 -85756.8 M 84582 -85756.8 84582 -87280.8 M 84455 -87280.8 84455 -85756.8 M 84328 -87280.8 84328 -85756.8 M 84836 -85756.8 84836 -87280.8 M 85090 -85756.8 80010 -85756.8 80010 -87280.8 M 85090 -87280.8 85090 -85756.8 M 80010 -87280.8 85090 -87280.8 M 84709 -87280.8 84709 -85756.8 M 161957 -106331 161957 -104807 M 161576 -104807 161576 -106331 M 161449 -106331 161449 -104807 M 161322 -106331 161322 -104807 M 161830 -104807 161830 -106331 M 162084 -104807 157004 -104807 157004 -106331 M 162084 -106331 162084 -104807 M 157004 -106331 162084 -106331 M 161703 -106331 161703 -104807 M 123857 -98710.8 123857 -97186.8 M 123476 -97186.8 123476 -98710.8 M 123349 -98710.8 123349 -97186.8 M 123222 -98710.8 123222 -97186.8 M 123730 -97186.8 123730 -98710.8 M 123984 -97186.8 118904 -97186.8 118904 -98710.8 M 123984 -98710.8 123984 -97186.8 M 118904 -98710.8 123984 -98710.8 M 123603 -98710.8 123603 -97186.8 M 124206 -60579 124206 -59055 M 123825 -59055 123825 -60579 M 123698 -60579 123698 -59055 M 123571 -60579 123571 -59055 M 124079 -59055 124079 -60579 M 124333 -59055 119253 -59055 119253 -60579 M 124333 -60579 124333 -59055 M 119253 -60579 124333 -60579 M 123952 -60579 123952 -59055 M 142907 -83470.8 142907 -81946.8 M 142526 -81946.8 142526 -83470.8 M 142399 -83470.8 142399 -81946.8 M 142272 -83470.8 142272 -81946.8 M 142780 -81946.8 142780 -83470.8 M 143034 -81946.8 137954 -81946.8 137954 -83470.8 M 143034 -83470.8 143034 -81946.8 M 137954 -83470.8 143034 -83470.8 M 142653 -83470.8 142653 -81946.8 M 161957 -87280.8 161957 -85756.8 M 161576 -85756.8 161576 -87280.8 M 161449 -87280.8 161449 -85756.8 M 161322 -87280.8 161322 -85756.8 M 161830 -85756.8 161830 -87280.8 M 162084 -85756.8 157004 -85756.8 157004 -87280.8 M 162084 -87280.8 162084 -85756.8 M 157004 -87280.8 162084 -87280.8 M 161703 -87280.8 161703 -85756.8 M 85756.8 -68230.8 85756.8 -66706.8 M 85375.8 -66706.8 85375.8 -68230.8 M 85248.8 -68230.8 85248.8 -66706.8 M 85121.8 -68230.8 85121.8 -66706.8 M 85629.8 -66706.8 85629.8 -68230.8 M 85883.8 -66706.8 80803.8 -66706.8 80803.8 -68230.8 M 85883.8 -68230.8 85883.8 -66706.8 M 80803.8 -68230.8 85883.8 -68230.8 M 85502.8 -68230.8 85502.8 -66706.8 M 143701 -64420.8 143701 -62896.8 M 143320 -62896.8 143320 -64420.8 M 143193 -64420.8 143193 -62896.8 M 143066 -64420.8 143066 -62896.8 M 143574 -62896.8 143574 -64420.8 M 143828 -62896.8 138748 -62896.8 138748 -64420.8 M 143828 -64420.8 143828 -62896.8 M 138748 -64420.8 143828 -64420.8 M 143447 -64420.8 143447 -62896.8 M 104807 -83470.8 104807 -81946.8 M 104426 -81946.8 104426 -83470.8 M 104299 -83470.8 104299 -81946.8 M 104172 -83470.8 104172 -81946.8 M 104680 -81946.8 104680 -83470.8 M 104934 -81946.8 99854 -81946.8 99854 -83470.8 M 104934 -83470.8 104934 -81946.8 M 99854 -83470.8 104934 -83470.8 M 104553 -83470.8 104553 -81946.8 M 160845 -67437 160845 -65913 M 160464 -65913 160464 -67437 M 160337 -67437 160337 -65913 M 160210 -67437 160210 -65913 M 160718 -65913 160718 -67437 M 160972 -65913 155892 -65913 155892 -67437 M 160972 -67437 160972 -65913 M 155892 -67437 160972 -67437 M 160591 -67437 160591 -65913 M 142907 -102521 142907 -100997 M 142526 -100997 142526 -102521 M 142399 -102521 142399 -100997 M 142272 -102521 142272 -100997 M 142780 -100997 142780 -102521 M 143034 -100997 137954 -100997 137954 -102521 M 143034 -102521 143034 -100997 M 137954 -102521 143034 -102521 M 142653 -102521 142653 -100997 M 104807 -64420.8 104807 -62896.8 M 104426 -62896.8 104426 -64420.8 M 104299 -64420.8 104299 -62896.8 M 104172 -64420.8 104172 -62896.8 M 104680 -62896.8 104680 -64420.8 M 104934 -62896.8 99854 -62896.8 99854 -64420.8 M 104934 -64420.8 104934 -62896.8 M 99854 -64420.8 104934 -64420.8 M 104553 -64420.8 104553 -62896.8 M 104807 -102521 104807 -100997 M 104426 -100997 104426 -102521 M 104299 -102521 104299 -100997 M 104172 -102521 104172 -100997 M 104680 -100997 104680 -102521 M 104934 -100997 99854 -100997 99854 -102521 M 104934 -102521 104934 -100997 M 99854 -102521 104934 -102521 M 104553 -102521 104553 -100997 M 84963 -106331 84963 -104807 M 84582 -104807 84582 -106331 M 84455 -106331 84455 -104807 M 84328 -106331 84328 -104807 M 84836 -104807 84836 -106331 M 85090 -104807 80010 -104807 80010 -106331 M 85090 -106331 85090 -104807 M 80010 -106331 85090 -106331 M 84709 -106331 84709 -104807" fill="none" stroke-width="150"/><path d="M 59531.2 -73215.5 59531.2 -71437.5 M 59531.2 -84137.5 59531.2 -82359.5 M 57753.2 -84137.5 59531.2 -84137.5 M 46831.2 -84137.5 48609.2 -84137.5 M 46831.2 -82359.5 46831.2 -84137.5 M 46831.2 -71437.5 46831.2 -73215.5 M 48609.2 -71437.5 46831.2 -71437.5 M 59531.2 -71437.5 57753.2 -71437.5 M 54768.8 -92265.5 54768.8 -90487.5 M 54768.8 -103187.5 54768.8 -101409.5 M 52990.8 -103187.5 54768.8 -103187.5 M 42068.8 -103187.5 43846.8 -103187.5 M 42068.8 -101409.5 42068.8 -103187.5 M 42068.8 -90487.5 42068.8 -92265.5 M 43846.8 -90487.5 42068.8 -90487.5 M 54768.8 -90487.5 52990.8 -90487.5" fill="none" stroke-width="381"/><path d="M 185547.384 -121879.114 184166.171 -121235.044 M 184005.154 -121580.347 185386.367 -122224.418 M 185332.694 -122339.519 183951.481 -121695.449 M 185279.022 -122454.62 183897.809 -121810.55 M 184112.499 -121350.145 185493.712 -121994.216 M 184219.844 -121119.943 182072.943 -125723.987 183454.156 -126368.057 M 185601.057 -121764.013 184219.844 -121119.943 M 183454.156 -126368.057 185601.057 -121764.013 M 185440.039 -122109.317 184058.826 -121465.246 M 153112 -17228.7 159212 -17228.7 M 153112 -29328.7 159212 -29328.7 M 153112 -17228.7 153112 -29328.7 M 159212 -17228.7 159212 -29328.7 M 153362 -17228.7 153362 -15228.7 M 158962 -17228.7 158962 -15228.7 M 153362 -15228.7 158962 -15228.7 M 46863 -51993.8 46863 -50469.8 M 46482 -50469.8 46482 -51993.8 M 46355 -51993.8 46355 -50469.8 M 46228 -51993.8 46228 -50469.8 M 46736 -50469.8 46736 -51993.8 M 46990 -50469.8 41910 -50469.8 41910 -51993.8 M 46990 -51993.8 46990 -50469.8 M 41910 -51993.8 46990 -51993.8 M 46609 -51993.8 46609 -50469.8 M 79938.476 -21534.38 80271.809 -21058.19 M 80509.904 -21534.38 80509.904 -20534.38 80128.952 -20534.38 80033.714 -20582 79986.095 -20629.619 79938.476 -20724.857 79938.476 -20867.714 79986.095 -20962.952 80033.714 -21010.571 80128.952 -21058.19 80509.904 -21058.19 M 79557.523 -21248.666 79081.333 -21248.666 M 79652.761 -21534.38 79319.428 -20534.38 78986.095 -21534.38 M 78748 -20534.38 78509.904 -21534.38 78319.428 -20820.095 78128.952 -21534.38 77890.857 -20534.38" fill="none" stroke-width="150"/><path d="M 65082.914 -81537.023 65082.914 -80267.023 M 64212.057 -81537.023 64865.2 -80811.309 M 64212.057 -80267.023 65082.914 -80992.738 M 63921.771 -81657.976 62760.628 -81657.976 M 62397.771 -80871.785 61889.771 -80871.785 M 61672.057 -81537.023 62397.771 -81537.023 62397.771 -80267.023 61672.057 -80267.023 M 61018.914 -81537.023 61018.914 -80267.023 60148.057 -81537.023 60148.057 -80267.023 M 59640.057 -80267.023 58769.2 -80267.023 M 59204.628 -81537.023 59204.628 -80267.023 M 58261.2 -80871.785 57753.2 -80871.785 M 57535.485 -81537.023 58261.2 -81537.023 58261.2 -80267.023 57535.485 -80267.023 M 56011.485 -81537.023 56519.485 -80932.261 M 56882.342 -81537.023 56882.342 -80267.023 56301.771 -80267.023 56156.628 -80327.5 56084.057 -80387.976 56011.485 -80508.928 56011.485 -80690.357 56084.057 -80811.309 56156.628 -80871.785 56301.771 -80932.261 56882.342 -80932.261 M 55721.2 -81657.976 54560.057 -81657.976 M 54197.2 -81537.023 54197.2 -80690.357 M 54197.2 -80932.261 54124.628 -80811.309 54052.057 -80750.833 53906.914 -80690.357 53761.771 -80690.357 M 52673.2 -81476.547 52818.342 -81537.023 53108.628 -81537.023 53253.771 -81476.547 53326.342 -81355.595 53326.342 -80871.785 53253.771 -80750.833 53108.628 -80690.357 52818.342 -80690.357 52673.2 -80750.833 52600.628 -80871.785 52600.628 -80992.738 53326.342 -81113.69 M 52092.628 -80690.357 51729.771 -81537.023 51366.914 -80690.357 M 51149.2 -81657.976 49988.057 -81657.976 M 49697.771 -80387.976 49625.2 -80327.5 49480.057 -80267.023 49117.2 -80267.023 48972.057 -80327.5 48899.485 -80387.976 48826.914 -80508.928 48826.914 -80629.88 48899.485 -80811.309 49770.342 -81537.023 48826.914 -81537.023 M 48173.771 -81416.071 48101.2 -81476.547 48173.771 -81537.023 48246.342 -81476.547 48173.771 -81416.071 48173.771 -81537.023 M 47520.628 -80387.976 47448.057 -80327.5 47302.914 -80267.023 46940.057 -80267.023 46794.914 -80327.5 46722.342 -80387.976 46649.771 -80508.928 46649.771 -80629.88 46722.342 -80811.309 47593.2 -81537.023 46649.771 -81537.023 M 45270.914 -80267.023 45996.628 -80267.023 46069.2 -80871.785 45996.628 -80811.309 45851.485 -80750.833 45488.628 -80750.833 45343.485 -80811.309 45270.914 -80871.785 45198.342 -80992.738 45198.342 -81295.119 45270.914 -81416.071 45343.485 -81476.547 45488.628 -81537.023 45851.485 -81537.023 45996.628 -81476.547 46069.2 -81416.071 M 43892.057 -80690.357 43892.057 -81537.023 M 44545.2 -80690.357 44545.2 -81355.595 44472.628 -81476.547 44327.485 -81537.023 44109.771 -81537.023 43964.628 -81476.547 43892.057 -81416.071 M 43529.2 -81657.976 42368.057 -81657.976 M 41206.914 -81537.023 42077.771 -81537.023 M 41642.342 -81537.023 41642.342 -80267.023 41787.485 -80448.452 41932.628 -80569.404 42077.771 -80629.88 M 59631.085 -100587.023 59631.085 -99317.023 M 58760.228 -100587.023 59413.371 -99861.309 M 58760.228 -99317.023 59631.085 -100042.738 M 58469.942 -100707.976 57308.8 -100707.976 M 57018.514 -100526.547 56800.8 -100587.023 56437.942 -100587.023 56292.8 -100526.547 56220.228 -100466.071 56147.657 -100345.119 56147.657 -100224.166 56220.228 -100103.214 56292.8 -100042.738 56437.942 -99982.261 56728.228 -99921.785 56873.371 -99861.309 56945.942 -99800.833 57018.514 -99679.88 57018.514 -99558.928 56945.942 -99437.976 56873.371 -99377.5 56728.228 -99317.023 56365.371 -99317.023 56147.657 -99377.5 M 55494.514 -100587.023 55494.514 -99317.023 M 55494.514 -99921.785 54623.657 -99921.785 M 54623.657 -100587.023 54623.657 -99317.023 M 53897.942 -100587.023 53897.942 -99317.023 M 52664.228 -99921.785 53172.228 -99921.785 M 53172.228 -100587.023 53172.228 -99317.023 52446.514 -99317.023 M 52083.657 -99317.023 51212.8 -99317.023 M 51648.228 -100587.023 51648.228 -99317.023 M 51067.657 -100707.976 49906.514 -100707.976 M 48672.8 -100587.023 49180.8 -99982.261 M 49543.657 -100587.023 49543.657 -99317.023 48963.085 -99317.023 48817.942 -99377.5 48745.371 -99437.976 48672.8 -99558.928 48672.8 -99740.357 48745.371 -99861.309 48817.942 -99921.785 48963.085 -99982.261 49543.657 -99982.261 M 48019.657 -99921.785 47511.657 -99921.785 M 47293.942 -100587.023 48019.657 -100587.023 48019.657 -99317.023 47293.942 -99317.023 M 46858.514 -99317.023 46350.514 -100587.023 45842.514 -99317.023 M 45697.371 -100707.976 44536.228 -100707.976 M 44245.942 -99437.976 44173.371 -99377.5 44028.228 -99317.023 43665.371 -99317.023 43520.228 -99377.5 43447.657 -99437.976 43375.085 -99558.928 43375.085 -99679.88 43447.657 -99861.309 44318.514 -100587.023 43375.085 -100587.023 M 42721.942 -100466.071 42649.371 -100526.547 42721.942 -100587.023 42794.514 -100526.547 42721.942 -100466.071 42721.942 -100587.023 M 42141.371 -99317.023 41125.371 -99317.023 41778.514 -100587.023 M 39819.085 -99317.023 40544.8 -99317.023 40617.371 -99921.785 40544.8 -99861.309 40399.657 -99800.833 40036.8 -99800.833 39891.657 -99861.309 39819.085 -99921.785 39746.514 -100042.738 39746.514 -100345.119 39819.085 -100466.071 39891.657 -100526.547 40036.8 -100587.023 40399.657 -100587.023 40544.8 -100526.547 40617.371 -100466.071 M 39456.228 -100707.976 38295.085 -100707.976 M 37133.942 -100587.023 38004.8 -100587.023 M 37569.371 -100587.023 37569.371 -99317.023 37714.514 -99498.452 37859.657 -99619.404 38004.8 -99679.88" fill="none" stroke-width="203.2"/></g></svg>