<svg version="1.1" xmlns="http://www.w3.org/2000/svg" xmlns:xlink="http://www.w3.org/1999/xlink" stroke-linecap="round" stroke-linejoin="round" stroke-width="0" fill-rule="evenodd" width="183.23404444140002mm" height="140.7660150188mm" viewBox="22352 -158038.0150188 183234.0444414 140766.0150188" id="IP-LEdrpBmPOBWuj0NTF"><g transform="translate(0,-175310.0150188) scale(1,-1)" fill="currentColor" stroke="currentColor"><path d="M 31750 -68326 36576 -68326 36576 -51943 36576 -48895 36580 -19558 A 2286 2286 0 0 0 38866 -17272 L 39370 -17272 127000 -17272 136906 -17272 147574 -17272 157988 -17272 168402 -17272 A 2032 2032 0 0 0 170434 -19304 L 170434 -105410 204385.82 -121337.275 204852.769 -121558.611 A 1270.0004414 1270.0004414 0 0 0 205452.98 -123263.66 L 189577.98 -157304.74 A 1270.0000188 1270.0000188 0 0 0 187885.708 -157923.909 L 153585.583 -141929.498 153355.381 -141822.153 143510 -127000 137160 -127000 55880 -127000 55118 -127000 53848 -126238 50800 -124460 22860 -109220 22352 -108966 22352 -106426 22352 -98044 22352 -87503 22352 -87376 31750 -87376 31750 -68326" fill="none" stroke-width="200"/></g></svg>