<svg version="1.1" xmlns="http://www.w3.org/2000/svg" xmlns:xlink="http://www.w3.org/1999/xlink" stroke-linecap="round" stroke-linejoin="round" stroke-width="0" fill-rule="evenodd" width="168.94414799999998mm" height="129.360448mm" viewBox="32213.6 -154366.748 168944.148 129360.448" id="AvL9Lu4QnUOCGxCncqyc"><g transform="translate(0,-179373.04799999998) scale(1,-1)" fill="currentColor" stroke="currentColor"><path d="M 77152.5 -46672.5 77152.5 -32702.5 M 91122.5 -46672.5 77152.5 -46672.5 M 91122.5 -32702.5 91122.5 -46672.5 M 77152.5 -32702.5 91122.5 -32702.5 M 67310 -65722.5 67310 -51752.5 M 53340 -65722.5 67310 -65722.5 M 53340 -51752.5 53340 -65722.5 M 67310 -51752.5 53340 -51752.5 M 174466.452 -148386.571 180370.429 -135725.452 M 187127.571 -154290.548 174466.452 -148386.571 M 193031.548 -141629.429 187127.571 -154290.548 M 180370.429 -135725.452 193031.548 -141629.429 M 96203 -42862.5 96203 -28892.5 M 110173 -42862.5 96203 -42862.5 M 110173 -28892.5 110173 -42862.5 M 96203 -28892.5 110173 -28892.5 M 115253 -39052.5 115253 -25082.5 M 129223 -39052.5 115253 -39052.5 M 129223 -25082.5 129223 -39052.5 M 115253 -25082.5 129223 -25082.5 M 134303 -42862.5 134303 -28892.5 M 148273 -42862.5 134303 -42862.5 M 148273 -28892.5 148273 -42862.5 M 134303 -28892.5 148273 -28892.5 M 153353 -46672.5 153353 -32702.5 M 167323 -46672.5 153353 -46672.5 M 167323 -32702.5 167323 -46672.5 M 153353 -32702.5 167323 -32702.5 M 77152.5 -84772.5 77152.5 -70802.5 M 91122.5 -84772.5 77152.5 -84772.5 M 91122.5 -70802.5 91122.5 -84772.5 M 77152.5 -70802.5 91122.5 -70802.5 M 77152.5 -122873 77152.5 -108903 M 91122.5 -122873 77152.5 -122873 M 91122.5 -108903 91122.5 -122873 M 77152.5 -108903 91122.5 -108903 M 153353 -103822.5 153353 -89852.5 M 167323 -103822.5 153353 -103822.5 M 167323 -89852.5 167323 -103822.5 M 153353 -89852.5 167323 -89852.5 M 115189 -115189 115189 -101219 M 129159 -115189 115189 -115189 M 129159 -101219 129159 -115189 M 115189 -101219 129159 -101219 M 134239 -118999 134239 -105029 M 148209 -118999 134239 -118999 M 148209 -105029 148209 -118999 M 134239 -105029 148209 -105029 M 115253 -96202.5 115253 -82232.5 M 129223 -96202.5 115253 -96202.5 M 129223 -82232.5 129223 -96202.5 M 115253 -82232.5 129223 -82232.5 M 50958.8 -84772.5 50958.8 -70802.5 M 64928.8 -84772.5 50958.8 -84772.5 M 64928.8 -70802.5 64928.8 -84772.5 M 50958.8 -70802.5 64928.8 -70802.5 M 58102.5 -122873 58102.5 -108903 M 72072.5 -122873 58102.5 -122873 M 72072.5 -108903 72072.5 -122873 M 58102.5 -108903 72072.5 -108903 M 115253 -77152.5 115253 -63182.5 M 129223 -77152.5 115253 -77152.5 M 129223 -63182.5 129223 -77152.5 M 115253 -63182.5 129223 -63182.5 M 115253 -58102.5 115253 -44132.5 M 129223 -58102.5 115253 -58102.5 M 129223 -44132.5 129223 -58102.5 M 115253 -44132.5 129223 -44132.5 M 60166.2 -72910.7 60166.2 -70802.5 M 61791.8 -72910.7 60166.2 -72910.7 M 61791.8 -72097.9 61791.8 -72910.7 M 68446.6 -72097.9 61791.8 -72097.9 M 68446.6 -75501.5 68446.6 -72097.9 M 69310.2 -75501.5 68446.6 -75501.5 M 69310.2 -78295.5 69310.2 -75501.5 M 68446.6 -78295.5 69310.2 -78295.5 M 68446.6 -84391.5 68446.6 -78295.5 M 67405.2 -84391.5 68446.6 -84391.5 M 67405.2 -85559.9 67405.2 -84391.5 M 62833.2 -85559.9 67405.2 -85559.9 M 62833.2 -84391.5 62833.2 -85559.9 M 61791.8 -84391.5 62833.2 -84391.5 M 61791.8 -83604.1 61791.8 -84391.5 M 60166.2 -83604.1 61791.8 -83604.1 M 60166.2 -84772.5 60166.2 -83604.1 M 46196.2 -84772.5 60166.2 -84772.5 M 46196.2 -83604.1 46196.2 -84772.5 M 44570.6 -83604.1 46196.2 -83604.1 M 44570.6 -84391.5 44570.6 -83604.1 M 43529.2 -84391.5 44570.6 -84391.5 M 43529.2 -85559.9 43529.2 -84391.5 M 38957.2 -85559.9 43529.2 -85559.9 M 38957.2 -84391.5 38957.2 -85559.9 M 37915.8 -84391.5 38957.2 -84391.5 M 37915.8 -78295.5 37915.8 -84391.5 M 37052.2 -78295.5 37915.8 -78295.5 M 37052.2 -75501.5 37052.2 -78295.5 M 37915.8 -75501.5 37052.2 -75501.5 M 37915.8 -72097.9 37915.8 -75501.5 M 44570.6 -72097.9 37915.8 -72097.9 M 44570.6 -72910.7 44570.6 -72097.9 M 46196.2 -72910.7 44570.6 -72910.7 M 46196.2 -70802.5 46196.2 -72910.7 M 60166.2 -70802.5 46196.2 -70802.5 M 58102.5 -46672.5 58102.5 -32702.5 M 72072.5 -46672.5 58102.5 -46672.5 M 72072.5 -32702.5 72072.5 -46672.5 M 58102.5 -32702.5 72072.5 -32702.5 M 134303 -80962.5 134303 -66992.5 M 148273 -80962.5 134303 -80962.5 M 148273 -66992.5 148273 -80962.5 M 134303 -66992.5 148273 -66992.5 M 153353 -84772.5 153353 -70802.5 M 167323 -84772.5 153353 -84772.5 M 167323 -70802.5 167323 -84772.5 M 153353 -70802.5 167323 -70802.5 M 77152.5 -65722.5 77152.5 -51752.5 M 91122.5 -65722.5 77152.5 -65722.5 M 91122.5 -51752.5 91122.5 -65722.5 M 77152.5 -51752.5 91122.5 -51752.5 M 134303 -61912.5 134303 -47942.5 M 148273 -61912.5 134303 -61912.5 M 148273 -47942.5 148273 -61912.5 M 134303 -47942.5 148273 -47942.5 M 96203 -80962.5 96203 -66992.5 M 110173 -80962.5 96203 -80962.5 M 110173 -66992.5 110173 -80962.5 M 96203 -66992.5 110173 -66992.5 M 46196.2 -91960.7 46196.2 -89852.5 M 44570.6 -91960.7 46196.2 -91960.7 M 44570.6 -91147.9 44570.6 -91960.7 M 37915.8 -91147.9 44570.6 -91147.9 M 37915.8 -94551.5 37915.8 -91147.9 M 37052.2 -94551.5 37915.8 -94551.5 M 37052.2 -97345.5 37052.2 -94551.5 M 37915.8 -97345.5 37052.2 -97345.5 M 37915.8 -103441.5 37915.8 -97345.5 M 38957.2 -103441.5 37915.8 -103441.5 M 38957.2 -104609.9 38957.2 -103441.5 M 43529.2 -104609.9 38957.2 -104609.9 M 43529.2 -103441.5 43529.2 -104609.9 M 44570.6 -103441.5 43529.2 -103441.5 M 44570.6 -102654.1 44570.6 -103441.5 M 46196.2 -102654.1 44570.6 -102654.1 M 46196.2 -103822.5 46196.2 -102654.1 M 60166.2 -103822.5 46196.2 -103822.5 M 60166.2 -102654.1 60166.2 -103822.5 M 61791.8 -102654.1 60166.2 -102654.1 M 61791.8 -103441.5 61791.8 -102654.1 M 62833.2 -103441.5 61791.8 -103441.5 M 62833.2 -104609.9 62833.2 -103441.5 M 67405.2 -104609.9 62833.2 -104609.9 M 67405.2 -103441.5 67405.2 -104609.9 M 68446.6 -103441.5 67405.2 -103441.5 M 68446.6 -97345.5 68446.6 -103441.5 M 69310.2 -97345.5 68446.6 -97345.5 M 69310.2 -94551.5 69310.2 -97345.5 M 68446.6 -94551.5 69310.2 -94551.5 M 68446.6 -91147.9 68446.6 -94551.5 M 61791.8 -91147.9 68446.6 -91147.9 M 61791.8 -91960.7 61791.8 -91147.9 M 60166.2 -91960.7 61791.8 -91960.7 M 60166.2 -89852.5 60166.2 -91960.7 M 46196.2 -89852.5 60166.2 -89852.5 M 55403.8 -91960.7 55403.8 -89852.5 M 57029.4 -91960.7 55403.8 -91960.7 M 57029.4 -91147.9 57029.4 -91960.7 M 63684.2 -91147.9 57029.4 -91147.9 M 63684.2 -94551.5 63684.2 -91147.9 M 64547.8 -94551.5 63684.2 -94551.5 M 64547.8 -97345.5 64547.8 -94551.5 M 63684.2 -97345.5 64547.8 -97345.5 M 63684.2 -103441.5 63684.2 -97345.5 M 62642.8 -103441.5 63684.2 -103441.5 M 62642.8 -104609.9 62642.8 -103441.5 M 58070.8 -104609.9 62642.8 -104609.9 M 58070.8 -103441.5 58070.8 -104609.9 M 57029.4 -103441.5 58070.8 -103441.5 M 57029.4 -102654.1 57029.4 -103441.5 M 55403.8 -102654.1 57029.4 -102654.1 M 55403.8 -103822.5 55403.8 -102654.1 M 41433.8 -103822.5 55403.8 -103822.5 M 41433.8 -102654.1 41433.8 -103822.5 M 39808.2 -102654.1 41433.8 -102654.1 M 39808.2 -103441.5 39808.2 -102654.1 M 38766.8 -103441.5 39808.2 -103441.5 M 38766.8 -104609.9 38766.8 -103441.5 M 34194.8 -104609.9 38766.8 -104609.9 M 34194.8 -103441.5 34194.8 -104609.9 M 33153.4 -103441.5 34194.8 -103441.5 M 33153.4 -97345.5 33153.4 -103441.5 M 32289.8 -97345.5 33153.4 -97345.5 M 32289.8 -94551.5 32289.8 -97345.5 M 33153.4 -94551.5 32289.8 -94551.5 M 33153.4 -91147.9 33153.4 -94551.5 M 39808.2 -91147.9 33153.4 -91147.9 M 39808.2 -91960.7 39808.2 -91147.9 M 41433.8 -91960.7 39808.2 -91960.7 M 41433.8 -89852.5 41433.8 -91960.7 M 55403.8 -89852.5 41433.8 -89852.5 M 153353 -65722.5 153353 -51752.5 M 167323 -65722.5 153353 -65722.5 M 167323 -51752.5 167323 -65722.5 M 153353 -51752.5 167323 -51752.5 M 182516.452 -131121.571 188420.429 -118460.452 M 195177.571 -137025.548 182516.452 -131121.571 M 201081.548 -124364.429 195177.571 -137025.548 M 188420.429 -118460.452 201081.548 -124364.429 M 134303 -100012.5 134303 -86042.5 M 148273 -100012.5 134303 -100012.5 M 148273 -86042.5 148273 -100012.5 M 134303 -86042.5 148273 -86042.5 M 96203 -61912.5 96203 -47942.5 M 110173 -61912.5 96203 -61912.5 M 110173 -47942.5 110173 -61912.5 M 96203 -47942.5 110173 -47942.5 M 96203 -119063 96203 -105093 M 110173 -119063 96203 -119063 M 110173 -105093 110173 -119063 M 96203 -105093 110173 -105093 M 96203 -100012.5 96203 -86042.5 M 110173 -100012.5 96203 -100012.5 M 110173 -86042.5 110173 -100012.5 M 96203 -86042.5 110173 -86042.5 M 77152.5 -103822.5 77152.5 -89852.5 M 91122.5 -103822.5 77152.5 -103822.5 M 91122.5 -89852.5 91122.5 -103822.5 M 77152.5 -89852.5 91122.5 -89852.5 M 165239.452 -123058.571 171143.429 -110397.452 M 177900.571 -128962.548 165239.452 -123058.571 M 183804.548 -116301.429 177900.571 -128962.548 M 171143.429 -110397.452 183804.548 -116301.429 M 175753.548 -133566.429 169849.571 -146227.548 M 163092.429 -127662.452 175753.548 -133566.429 M 157188.452 -140323.571 163092.429 -127662.452 M 169849.571 -146227.548 157188.452 -140323.571 M 177880.87 -124054.465 179791.548 -124945.429 M 178567.879 -122581.171 177880.87 -124054.465 M 179304.526 -122924.675 178567.879 -122581.171 M 182116.966 -116893.378 179304.526 -122924.675 M 179032.256 -115454.954 182116.966 -116893.378 M 179397.23 -114672.267 179032.256 -115454.954 M 176865.006 -113491.472 179397.23 -114672.267 M 176500.032 -114274.159 176865.006 -113491.472 M 170975.18 -111697.878 176500.032 -114274.159 M 170535.066 -112641.707 170975.18 -111697.878 M 169476.136 -112147.92 170535.066 -112641.707 M 167543.925 -116291.559 169476.136 -112147.92 M 168602.855 -116785.346 167543.925 -116291.559 M 168162.74 -117729.175 168602.855 -116785.346 M 168876.367 -118061.945 168162.74 -117729.175 M 168189.359 -119535.239 168876.367 -118061.945 M 167130.429 -119041.452 168189.359 -119535.239 M 161226.452 -131702.571 167130.429 -119041.452 M 162285.382 -132196.359 161226.452 -131702.571 M 161598.373 -133669.652 162285.382 -132196.359 M 160884.747 -133336.883 161598.373 -133669.652 M 160444.632 -134280.712 160884.747 -133336.883 M 159385.702 -133786.925 160444.632 -134280.712 M 157453.491 -137930.564 159385.702 -133786.925 M 158512.421 -138424.351 157453.491 -137930.564 M 158072.307 -139368.18 158512.421 -138424.351 M 163597.159 -141944.461 158072.307 -139368.18 M 163232.186 -142727.148 163597.159 -141944.461 M 165764.41 -143907.944 163232.186 -142727.148 M 166129.383 -143125.256 165764.41 -143907.944 M 169214.092 -144563.68 166129.383 -143125.256 M 172026.532 -138532.383 169214.092 -144563.68 M 171289.885 -138188.879 172026.532 -138532.383 M 171976.893 -136715.585 171289.885 -138188.879 M 173887.571 -137606.548 171976.893 -136715.585 M 179791.548 -124945.429 173887.571 -137606.548 M 48641 -34810.7 48641 -32702.5 M 47015.4 -34810.7 48641 -34810.7 M 47015.4 -33997.9 47015.4 -34810.7 M 40360.6 -33997.9 47015.4 -33997.9 M 40360.6 -37401.5 40360.6 -33997.9 M 39497 -37401.5 40360.6 -37401.5 M 39497 -40195.5 39497 -37401.5 M 40360.6 -40195.5 39497 -40195.5 M 40360.6 -46291.5 40360.6 -40195.5 M 41402 -46291.5 40360.6 -46291.5 M 41402 -47459.9 41402 -46291.5 M 45974 -47459.9 41402 -47459.9 M 45974 -46291.5 45974 -47459.9 M 47015.4 -46291.5 45974 -46291.5 M 47015.4 -45504.1 47015.4 -46291.5 M 48641 -45504.1 47015.4 -45504.1 M 48641 -46672.5 48641 -45504.1 M 62611 -46672.5 48641 -46672.5 M 62611 -45504.1 62611 -46672.5 M 64236.6 -45504.1 62611 -45504.1 M 64236.6 -46291.5 64236.6 -45504.1 M 65278 -46291.5 64236.6 -46291.5 M 65278 -47459.9 65278 -46291.5 M 69850 -47459.9 65278 -47459.9 M 69850 -46291.5 69850 -47459.9 M 70891.4 -46291.5 69850 -46291.5 M 70891.4 -40195.5 70891.4 -46291.5 M 71755 -40195.5 70891.4 -40195.5 M 71755 -37401.5 71755 -40195.5 M 70891.4 -37401.5 71755 -37401.5 M 70891.4 -33997.9 70891.4 -37401.5 M 64236.6 -33997.9 70891.4 -33997.9 M 64236.6 -34810.7 64236.6 -33997.9 M 62611 -34810.7 64236.6 -34810.7 M 62611 -32702.5 62611 -34810.7 M 48641 -32702.5 62611 -32702.5 M 39065.2 -46685.2 39065.2 -32715.2 M 53035.2 -46685.2 39065.2 -46685.2 M 53035.2 -32715.2 53035.2 -46685.2 M 39065.2 -32715.2 53035.2 -32715.2" fill="none" stroke-width="152.4"/></g></svg>