<svg version="1.1" xmlns="http://www.w3.org/2000/svg" xmlns:xlink="http://www.w3.org/1999/xlink" stroke-linecap="round" stroke-linejoin="round" stroke-width="0" fill-rule="evenodd" width="182.089867mm" height="134.980147mm" viewBox="22274.58 -157573.447 182089.867 134980.147" id="RoXwFub63YTlaGLVXM-A"><g transform="translate(0,-180166.74699999997) scale(1,-1)" fill="currentColor" stroke="currentColor"><path d="M 74739.5 -49085.5 74739.5 -30289.5 M 93535.5 -49085.5 74739.5 -49085.5 M 93535.5 -30289.5 93535.5 -49085.5 M 74739.5 -30289.5 93535.5 -30289.5 M 74485.5 -68135.5 74485.5 -49339.5 M 46164.5 -68135.5 74485.5 -68135.5 M 46164.5 -49339.5 46164.5 -68135.5 M 74485.5 -49339.5 46164.5 -49339.5 M 171259.753 -149553.714 179203.286 -132518.753 M 188294.714 -157497.247 171259.753 -149553.714 M 196238.247 -140462.286 188294.714 -157497.247 M 179203.286 -132518.753 196238.247 -140462.286 M 93790 -45275.5 93790 -26479.5 M 112586 -45275.5 93790 -45275.5 M 112586 -26479.5 112586 -45275.5 M 93790 -26479.5 112586 -26479.5 M 112840 -41465.5 112840 -22669.5 M 131636 -41465.5 112840 -41465.5 M 131636 -22669.5 131636 -41465.5 M 112840 -22669.5 131636 -22669.5 M 131890 -45275.5 131890 -26479.5 M 150686 -45275.5 131890 -45275.5 M 150686 -26479.5 150686 -45275.5 M 131890 -26479.5 150686 -26479.5 M 150940 -49085.5 150940 -30289.5 M 169736 -49085.5 150940 -49085.5 M 169736 -30289.5 169736 -49085.5 M 150940 -30289.5 169736 -30289.5 M 74739.5 -87185.5 74739.5 -68389.5 M 93535.5 -87185.5 74739.5 -87185.5 M 93535.5 -68389.5 93535.5 -87185.5 M 74739.5 -68389.5 93535.5 -68389.5 M 74739.5 -125286 74739.5 -106490 M 93535.5 -125286 74739.5 -125286 M 93535.5 -106490 93535.5 -125286 M 74739.5 -106490 93535.5 -106490 M 150940 -106235.5 150940 -87439.5 M 169736 -106235.5 150940 -106235.5 M 169736 -87439.5 169736 -106235.5 M 150940 -87439.5 169736 -87439.5 M 112776 -117602 112776 -98806 M 131572 -117602 112776 -117602 M 131572 -98806 131572 -117602 M 112776 -98806 131572 -98806 M 131826 -121412 131826 -102616 M 150622 -121412 131826 -121412 M 150622 -102616 150622 -121412 M 131826 -102616 150622 -102616 M 112840 -98615.5 112840 -79819.5 M 131636 -98615.5 112840 -98615.5 M 131636 -79819.5 131636 -98615.5 M 112840 -79819.5 131636 -79819.5 M 41400.78 -87185.5 41400.78 -68389.5 M 74486.82 -87185.5 41400.78 -87185.5 M 74486.82 -68389.5 74486.82 -87185.5 M 41400.78 -68389.5 74486.82 -68389.5 M 55689.5 -125286 55689.5 -106490 M 74485.5 -125286 55689.5 -125286 M 74485.5 -106490 74485.5 -125286 M 55689.5 -106490 74485.5 -106490 M 112840 -79565.5 112840 -60769.5 M 131636 -79565.5 112840 -79565.5 M 131636 -60769.5 131636 -79565.5 M 112840 -60769.5 131636 -60769.5 M 112840 -60515.5 112840 -41719.5 M 131636 -60515.5 112840 -60515.5 M 131636 -41719.5 131636 -60515.5 M 112840 -41719.5 131636 -41719.5 M 74486.72 -87185.5 74486.72 -68389.5 M 31875.68 -87185.5 74486.72 -87185.5 M 31875.68 -68389.5 31875.68 -87185.5 M 74486.72 -68389.5 31875.68 -68389.5 M 55689.5 -49085.5 55689.5 -30289.5 M 74485.5 -49085.5 55689.5 -49085.5 M 74485.5 -30289.5 74485.5 -49085.5 M 55689.5 -30289.5 74485.5 -30289.5 M 131890 -83375.5 131890 -64579.5 M 150686 -83375.5 131890 -83375.5 M 150686 -64579.5 150686 -83375.5 M 131890 -64579.5 150686 -64579.5 M 150940 -87185.5 150940 -68389.5 M 169736 -87185.5 150940 -87185.5 M 169736 -68389.5 169736 -87185.5 M 150940 -68389.5 169736 -68389.5 M 74739.5 -68135.5 74739.5 -49339.5 M 93535.5 -68135.5 74739.5 -68135.5 M 93535.5 -49339.5 93535.5 -68135.5 M 74739.5 -49339.5 93535.5 -49339.5 M 131890 -64325.5 131890 -45529.5 M 150686 -64325.5 131890 -64325.5 M 150686 -45529.5 150686 -64325.5 M 131890 -45529.5 150686 -45529.5 M 93790 -83375.5 93790 -64579.5 M 112586 -83375.5 93790 -83375.5 M 112586 -64579.5 112586 -83375.5 M 93790 -64579.5 112586 -64579.5 M 31875.68 -106235.5 31875.68 -87439.5 M 74486.72 -106235.5 31875.68 -106235.5 M 74486.72 -87439.5 74486.72 -106235.5 M 31875.68 -87439.5 74486.72 -87439.5 M 74486.82 -106235.5 74486.82 -87439.5 M 22350.78 -106235.5 74486.82 -106235.5 M 22350.78 -87439.5 22350.78 -106235.5 M 74486.82 -87439.5 22350.78 -87439.5 M 150940 -68135.5 150940 -49339.5 M 169736 -68135.5 150940 -68135.5 M 169736 -49339.5 169736 -68135.5 M 150940 -49339.5 169736 -49339.5 M 179309.753 -132288.714 187253.286 -115253.753 M 196344.714 -140232.247 179309.753 -132288.714 M 204288.247 -123197.286 196344.714 -140232.247 M 187253.286 -115253.753 204288.247 -123197.286 M 131890 -102425.5 131890 -83629.5 M 150686 -102425.5 131890 -102425.5 M 150686 -83629.5 150686 -102425.5 M 131890 -83629.5 150686 -83629.5 M 93790 -64325.5 93790 -45529.5 M 112586 -64325.5 93790 -64325.5 M 112586 -45529.5 112586 -64325.5 M 93790 -45529.5 112586 -45529.5 M 93790 -121476 93790 -102680 M 112586 -121476 93790 -121476 M 112586 -102680 112586 -121476 M 93790 -102680 112586 -102680 M 93790 -102425.5 93790 -83629.5 M 112586 -102425.5 93790 -102425.5 M 112586 -83629.5 112586 -102425.5 M 93790 -83629.5 112586 -83629.5 M 74739.5 -106235.5 74739.5 -87439.5 M 93535.5 -106235.5 74739.5 -106235.5 M 93535.5 -87439.5 93535.5 -106235.5 M 74739.5 -87439.5 93535.5 -87439.5 M 162032.753 -124225.714 169976.286 -107190.753 M 179067.714 -132169.247 162032.753 -124225.714 M 187011.247 -115134.286 179067.714 -132169.247 M 169976.286 -107190.753 187011.247 -115134.286 M 178960.247 -132399.286 171016.714 -149434.247 M 161925.286 -124455.753 178960.247 -132399.286 M 153981.753 -141490.714 161925.286 -124455.753 M 171016.714 -149434.247 153981.753 -141490.714 M 169988.725 -107202.171 187023.686 -115145.704 M 153994.314 -141502.296 169988.725 -107202.171 M 171029.275 -149445.829 153994.314 -141502.296 M 187023.686 -115145.704 171029.275 -149445.829 M 36703 -49085.5 36703 -30289.5 M 74549 -49085.5 36703 -49085.5 M 74549 -30289.5 74549 -49085.5 M 36703 -30289.5 74549 -30289.5 M 36652.2 -49098.2 36652.2 -30302.2 M 55448.2 -49098.2 36652.2 -49098.2 M 55448.2 -30302.2 55448.2 -49098.2 M 36652.2 -30302.2 55448.2 -30302.2" fill="none" stroke-width="152.4"/><path d="M 43015.494 -86731.928 42144.637 -86731.928 M 42580.065 -86731.928 42580.065 -85207.928 42434.922 -85425.642 42289.78 -85570.785 42144.637 -85643.357 M 43668.637 -86586.785 43741.208 -86659.357 43668.637 -86731.928 43596.065 -86659.357 43668.637 -86586.785 43668.637 -86731.928 M 44249.208 -85207.928 45265.208 -85207.928 44612.065 -86731.928 M 46571.494 -85207.928 45845.78 -85207.928 45773.208 -85933.642 45845.78 -85861.071 45990.922 -85788.5 46353.78 -85788.5 46498.922 -85861.071 46571.494 -85933.642 46644.065 -86078.785 46644.065 -86441.642 46571.494 -86586.785 46498.922 -86659.357 46353.78 -86731.928 45990.922 -86731.928 45845.78 -86659.357 45773.208 -86586.785 M 47950.351 -85715.928 47950.351 -86731.928 M 47297.208 -85715.928 47297.208 -86514.214 47369.78 -86659.357 47514.922 -86731.928 47732.637 -86731.928 47877.78 -86659.357 47950.351 -86586.785 M 67864.577 -85353.071 67937.148 -85280.5 68082.291 -85207.928 68445.148 -85207.928 68590.291 -85280.5 68662.862 -85353.071 68735.434 -85498.214 68735.434 -85643.357 68662.862 -85861.071 67792.005 -86731.928 68735.434 -86731.928 M 69388.577 -86586.785 69461.148 -86659.357 69388.577 -86731.928 69316.005 -86659.357 69388.577 -86586.785 69388.577 -86731.928 M 70041.72 -85353.071 70114.291 -85280.5 70259.434 -85207.928 70622.291 -85207.928 70767.434 -85280.5 70840.005 -85353.071 70912.577 -85498.214 70912.577 -85643.357 70840.005 -85861.071 69969.148 -86731.928 70912.577 -86731.928 M 72291.434 -85207.928 71565.72 -85207.928 71493.148 -85933.642 71565.72 -85861.071 71710.862 -85788.5 72073.72 -85788.5 72218.862 -85861.071 72291.434 -85933.642 72364.005 -86078.785 72364.005 -86441.642 72291.434 -86586.785 72218.862 -86659.357 72073.72 -86731.928 71710.862 -86731.928 71565.72 -86659.357 71493.148 -86586.785 M 73670.291 -85715.928 73670.291 -86731.928 M 73017.148 -85715.928 73017.148 -86514.214 73089.72 -86659.357 73234.862 -86731.928 73452.577 -86731.928 73597.72 -86659.357 73670.291 -86586.785 M 32619.537 -104403.071 32692.108 -104330.5 32837.251 -104257.928 33200.108 -104257.928 33345.251 -104330.5 33417.822 -104403.071 33490.394 -104548.214 33490.394 -104693.357 33417.822 -104911.071 32546.965 -105781.928 33490.394 -105781.928 M 34143.537 -105636.785 34216.108 -105709.357 34143.537 -105781.928 34070.965 -105709.357 34143.537 -105636.785 34143.537 -105781.928 M 34796.68 -104403.071 34869.251 -104330.5 35014.394 -104257.928 35377.251 -104257.928 35522.394 -104330.5 35594.965 -104403.071 35667.537 -104548.214 35667.537 -104693.357 35594.965 -104911.071 34724.108 -105781.928 35667.537 -105781.928 M 37046.394 -104257.928 36320.68 -104257.928 36248.108 -104983.642 36320.68 -104911.071 36465.822 -104838.5 36828.68 -104838.5 36973.822 -104911.071 37046.394 -104983.642 37118.965 -105128.785 37118.965 -105491.642 37046.394 -105636.785 36973.822 -105709.357 36828.68 -105781.928 36465.822 -105781.928 36320.68 -105709.357 36248.108 -105636.785 M 38425.251 -104765.928 38425.251 -105781.928 M 37772.108 -104765.928 37772.108 -105564.214 37844.68 -105709.357 37989.822 -105781.928 38207.537 -105781.928 38352.68 -105709.357 38425.251 -105636.785 M 67864.677 -104403.071 67937.248 -104330.5 68082.391 -104257.928 68445.248 -104257.928 68590.391 -104330.5 68662.962 -104403.071 68735.534 -104548.214 68735.534 -104693.357 68662.962 -104911.071 67792.105 -105781.928 68735.534 -105781.928 M 69388.677 -105636.785 69461.248 -105709.357 69388.677 -105781.928 69316.105 -105709.357 69388.677 -105636.785 69388.677 -105781.928 M 69969.248 -104257.928 70985.248 -104257.928 70332.105 -105781.928 M 72291.534 -104257.928 71565.82 -104257.928 71493.248 -104983.642 71565.82 -104911.071 71710.962 -104838.5 72073.82 -104838.5 72218.962 -104911.071 72291.534 -104983.642 72364.105 -105128.785 72364.105 -105491.642 72291.534 -105636.785 72218.962 -105709.357 72073.82 -105781.928 71710.962 -105781.928 71565.82 -105709.357 71493.248 -105636.785 M 73670.391 -104765.928 73670.391 -105781.928 M 73017.248 -104765.928 73017.248 -105564.214 73089.82 -105709.357 73234.962 -105781.928 73452.677 -105781.928 73597.82 -105709.357 73670.391 -105636.785 M 167601.162 -113395.558 167566.06 -113299.116 167561.628 -113136.902 167714.978 -112808.042 167842.09 -112707.168 167938.532 -112672.066 168100.746 -112667.634 168232.29 -112728.974 168398.936 -112886.756 168820.161 -114044.061 169218.871 -113189.024 M 169363.357 -112535.736 169459.799 -112500.634 169494.901 -112597.076 169398.459 -112632.178 169363.357 -112535.736 169494.901 -112597.076 M 168543.068 -111032.197 168604.408 -110900.653 168731.52 -110799.778 168827.962 -110764.676 168990.176 -110760.244 169283.934 -110817.152 169612.795 -110970.502 169845.213 -111158.955 169946.087 -111286.067 169981.189 -111382.509 169985.621 -111544.723 169924.281 -111676.267 169797.169 -111777.141 169700.727 -111812.243 169538.513 -111816.675 169244.754 -111759.767 168915.894 -111606.417 168683.476 -111417.965 168582.602 -111290.853 168547.5 -111194.411 168543.068 -111032.197 M 169156.468 -109716.756 169217.808 -109585.212 169344.92 -109484.337 169441.362 -109449.235 169603.576 -109444.803 169897.335 -109501.711 170226.195 -109655.061 170458.613 -109843.514 170559.487 -109970.626 170594.589 -110067.068 170599.021 -110229.282 170537.681 -110360.826 170410.569 -110461.7 170314.127 -110496.802 170151.913 -110501.234 169858.155 -110444.326 169529.294 -110290.976 169296.876 -110102.524 169196.002 -109975.412 169160.9 -109878.97 169156.468 -109716.756 M 170383.623 -108287.144 171304.431 -108716.525 M 170107.593 -108879.093 170831.085 -109216.463 170993.299 -109212.031 171120.411 -109111.157 171212.421 -108913.841 171207.989 -108751.627 171172.887 -108655.185" fill="none" stroke-width="304.8"/><path d="M 155828.666 -30881.08 155828.666 -31595.366 155781.047 -31738.223 155685.809 -31833.461 155542.952 -31881.08 155447.714 -31881.08 M 156828.666 -31881.08 156257.238 -31881.08 M 156542.952 -31881.08 156542.952 -30881.08 156447.714 -31023.938 156352.476 -31119.176 156257.238 -31166.795 M 155828.666 -30881.08 155828.666 -31595.366 155781.047 -31738.223 155685.809 -31833.461 155542.952 -31881.08 155447.714 -31881.08 M 156257.238 -30976.319 156304.857 -30928.7 156400.095 -30881.08 156638.19 -30881.08 156733.428 -30928.7 156781.047 -30976.319 156828.666 -31071.557 156828.666 -31166.795 156781.047 -31309.652 156209.619 -31881.08 156828.666 -31881.08" fill="none" stroke-width="150"/><path d="M 37446.857 -47253.071 37519.428 -47180.5 37664.571 -47107.928 38027.428 -47107.928 38172.571 -47180.5 38245.142 -47253.071 38317.714 -47398.214 38317.714 -47543.357 38245.142 -47761.071 37374.285 -48631.928 38317.714 -48631.928 M 38970.857 -48486.785 39043.428 -48559.357 38970.857 -48631.928 38898.285 -48559.357 38970.857 -48486.785 38970.857 -48631.928 M 39986.857 -47107.928 40132 -47107.928 40277.142 -47180.5 40349.714 -47253.071 40422.285 -47398.214 40494.857 -47688.5 40494.857 -48051.357 40422.285 -48341.642 40349.714 -48486.785 40277.142 -48559.357 40132 -48631.928 39986.857 -48631.928 39841.714 -48559.357 39769.142 -48486.785 39696.571 -48341.642 39624 -48051.357 39624 -47688.5 39696.571 -47398.214 39769.142 -47253.071 39841.714 -47180.5 39986.857 -47107.928 M 41438.285 -47107.928 41583.428 -47107.928 41728.571 -47180.5 41801.142 -47253.071 41873.714 -47398.214 41946.285 -47688.5 41946.285 -48051.357 41873.714 -48341.642 41801.142 -48486.785 41728.571 -48559.357 41583.428 -48631.928 41438.285 -48631.928 41293.142 -48559.357 41220.571 -48486.785 41148 -48341.642 41075.428 -48051.357 41075.428 -47688.5 41148 -47398.214 41220.571 -47253.071 41293.142 -47180.5 41438.285 -47107.928 M 43252.571 -47615.928 43252.571 -48631.928 M 42599.428 -47615.928 42599.428 -48414.214 42672 -48559.357 42817.142 -48631.928 43034.857 -48631.928 43180 -48559.357 43252.571 -48486.785" fill="none" stroke-width="304.8"/></g></svg>