<svg version="1.1" xmlns="http://www.w3.org/2000/svg" xmlns:xlink="http://www.w3.org/1999/xlink" stroke-linecap="round" stroke-linejoin="round" stroke-width="0" fill-rule="evenodd" width="6.24805in" height="4.96545in" viewBox="1510.8 -5711.25 6248.05 4965.45" id="rxDCq8NAFGwAVcmLrAY2"><defs><circle cx="0" cy="0" r="7.85" id="rxDCq8NAFGwAVcmLrAY2_pad-1"/><circle cx="0" cy="0" r="19.7" id="rxDCq8NAFGwAVcmLrAY2_pad-2"/><circle cx="0" cy="0" r="20" id="rxDCq8NAFGwAVcmLrAY2_pad-3"/><circle cx="0" cy="0" r="29.55" id="rxDCq8NAFGwAVcmLrAY2_pad-4"/><circle cx="0" cy="0" r="30" id="rxDCq8NAFGwAVcmLrAY2_pad-5"/><circle cx="0" cy="0" r="49.2" id="rxDCq8NAFGwAVcmLrAY2_pad-6"/></defs><g transform="translate(0,-6457.05) scale(1,-1)" fill="currentColor" stroke="currentColor"><use xlink:href="#rxDCq8NAFGwAVcmLrAY2_pad-1" x="2471.1" y="-1681.1"/><use xlink:href="#rxDCq8NAFGwAVcmLrAY2_pad-1" x="2770" y="-1880"/><use xlink:href="#rxDCq8NAFGwAVcmLrAY2_pad-1" x="2815" y="-1855"/><use xlink:href="#rxDCq8NAFGwAVcmLrAY2_pad-1" x="2830" y="-2018.4"/><use xlink:href="#rxDCq8NAFGwAVcmLrAY2_pad-1" x="2835" y="-2240"/><use xlink:href="#rxDCq8NAFGwAVcmLrAY2_pad-1" x="2955" y="-2780"/><use xlink:href="#rxDCq8NAFGwAVcmLrAY2_pad-1" x="3055" y="-2525"/><use xlink:href="#rxDCq8NAFGwAVcmLrAY2_pad-1" x="3120" y="-2450"/><use xlink:href="#rxDCq8NAFGwAVcmLrAY2_pad-1" x="3205" y="-2370"/><use xlink:href="#rxDCq8NAFGwAVcmLrAY2_pad-1" x="3330" y="-1890"/><use xlink:href="#rxDCq8NAFGwAVcmLrAY2_pad-1" x="3425" y="-1845"/><use xlink:href="#rxDCq8NAFGwAVcmLrAY2_pad-1" x="3505" y="-2555"/><use xlink:href="#rxDCq8NAFGwAVcmLrAY2_pad-1" x="3510.2" y="-3639.2"/><use xlink:href="#rxDCq8NAFGwAVcmLrAY2_pad-1" x="3606" y="-2757.2"/><use xlink:href="#rxDCq8NAFGwAVcmLrAY2_pad-1" x="4385" y="-1860"/><use xlink:href="#rxDCq8NAFGwAVcmLrAY2_pad-1" x="6145" y="-805"/><use xlink:href="#rxDCq8NAFGwAVcmLrAY2_pad-1" x="6145" y="-922.4"/><use xlink:href="#rxDCq8NAFGwAVcmLrAY2_pad-1" x="6155" y="-1125"/><use xlink:href="#rxDCq8NAFGwAVcmLrAY2_pad-2" x="4627.7" y="-3106.3"/><use xlink:href="#rxDCq8NAFGwAVcmLrAY2_pad-2" x="4934.8" y="-3106.3"/><use xlink:href="#rxDCq8NAFGwAVcmLrAY2_pad-2" x="3877.7" y="-2506.3"/><use xlink:href="#rxDCq8NAFGwAVcmLrAY2_pad-2" x="4184.8" y="-2506.3"/><use xlink:href="#rxDCq8NAFGwAVcmLrAY2_pad-2" x="2937.5" y="-4377.7"/><use xlink:href="#rxDCq8NAFGwAVcmLrAY2_pad-2" x="2937.5" y="-4684.8"/><use xlink:href="#rxDCq8NAFGwAVcmLrAY2_pad-2" x="5377.7" y="-4006.3"/><use xlink:href="#rxDCq8NAFGwAVcmLrAY2_pad-2" x="5684.8" y="-4006.3"/><use xlink:href="#rxDCq8NAFGwAVcmLrAY2_pad-2" x="2935" y="-2106.5"/><use xlink:href="#rxDCq8NAFGwAVcmLrAY2_pad-2" x="2935" y="-2413.5"/><use xlink:href="#rxDCq8NAFGwAVcmLrAY2_pad-2" x="2875" y="-3627.7"/><use xlink:href="#rxDCq8NAFGwAVcmLrAY2_pad-2" x="2875" y="-3934.8"/><use xlink:href="#rxDCq8NAFGwAVcmLrAY2_pad-2" x="5377.7" y="-3256.3"/><use xlink:href="#rxDCq8NAFGwAVcmLrAY2_pad-2" x="5684.8" y="-3256.3"/><use xlink:href="#rxDCq8NAFGwAVcmLrAY2_pad-2" x="6083.9" y="-2625"/><use xlink:href="#rxDCq8NAFGwAVcmLrAY2_pad-2" x="6391" y="-2625"/><use xlink:href="#rxDCq8NAFGwAVcmLrAY2_pad-2" x="2196.5" y="-1950"/><use xlink:href="#rxDCq8NAFGwAVcmLrAY2_pad-2" x="2503.5" y="-1950"/><use xlink:href="#rxDCq8NAFGwAVcmLrAY2_pad-2" x="3096.5" y="-4156.3"/><use xlink:href="#rxDCq8NAFGwAVcmLrAY2_pad-2" x="3403.5" y="-4156.3"/><use xlink:href="#rxDCq8NAFGwAVcmLrAY2_pad-2" x="5377.7" y="-1756.3"/><use xlink:href="#rxDCq8NAFGwAVcmLrAY2_pad-2" x="5684.8" y="-1756.3"/><use xlink:href="#rxDCq8NAFGwAVcmLrAY2_pad-2" x="7259.9" y="-5233.4"/><use xlink:href="#rxDCq8NAFGwAVcmLrAY2_pad-2" x="7538.2" y="-5363.2"/><use xlink:href="#rxDCq8NAFGwAVcmLrAY2_pad-2" x="3127.7" y="-2656.3"/><use xlink:href="#rxDCq8NAFGwAVcmLrAY2_pad-2" x="3434.8" y="-2656.3"/><use xlink:href="#rxDCq8NAFGwAVcmLrAY2_pad-2" x="3877.7" y="-3256.3"/><use xlink:href="#rxDCq8NAFGwAVcmLrAY2_pad-2" x="4184.8" y="-3256.3"/><use xlink:href="#rxDCq8NAFGwAVcmLrAY2_pad-2" x="3877.7" y="-1756.3"/><use xlink:href="#rxDCq8NAFGwAVcmLrAY2_pad-2" x="4184.8" y="-1756.3"/><use xlink:href="#rxDCq8NAFGwAVcmLrAY2_pad-2" x="2221.5" y="-2656.3"/><use xlink:href="#rxDCq8NAFGwAVcmLrAY2_pad-2" x="2528.5" y="-2656.3"/><use xlink:href="#rxDCq8NAFGwAVcmLrAY2_pad-2" x="7172.8" y="-5011"/><use xlink:href="#rxDCq8NAFGwAVcmLrAY2_pad-2" x="7302.6" y="-4732.7"/><use xlink:href="#rxDCq8NAFGwAVcmLrAY2_pad-2" x="3687.5" y="-4377.7"/><use xlink:href="#rxDCq8NAFGwAVcmLrAY2_pad-2" x="3687.5" y="-4684.8"/><use xlink:href="#rxDCq8NAFGwAVcmLrAY2_pad-2" x="6254.1" y="-4957.4"/><use xlink:href="#rxDCq8NAFGwAVcmLrAY2_pad-2" x="6383.9" y="-4679.1"/><use xlink:href="#rxDCq8NAFGwAVcmLrAY2_pad-2" x="6127.7" y="-1906.3"/><use xlink:href="#rxDCq8NAFGwAVcmLrAY2_pad-2" x="6434.8" y="-1906.3"/><use xlink:href="#rxDCq8NAFGwAVcmLrAY2_pad-2" x="7210.6" y="-5331.8"/><use xlink:href="#rxDCq8NAFGwAVcmLrAY2_pad-2" x="7489" y="-5461.5"/><use xlink:href="#rxDCq8NAFGwAVcmLrAY2_pad-2" x="3877.7" y="-4006.3"/><use xlink:href="#rxDCq8NAFGwAVcmLrAY2_pad-2" x="4184.8" y="-4006.3"/><use xlink:href="#rxDCq8NAFGwAVcmLrAY2_pad-2" x="4659" y="-1606.3"/><use xlink:href="#rxDCq8NAFGwAVcmLrAY2_pad-2" x="4966.1" y="-1606.3"/><use xlink:href="#rxDCq8NAFGwAVcmLrAY2_pad-2" x="5950" y="-4256.5"/><use xlink:href="#rxDCq8NAFGwAVcmLrAY2_pad-2" x="5950" y="-4563.5"/><use xlink:href="#rxDCq8NAFGwAVcmLrAY2_pad-2" x="3096.5" y="-3406.3"/><use xlink:href="#rxDCq8NAFGwAVcmLrAY2_pad-2" x="3403.5" y="-3406.3"/><use xlink:href="#rxDCq8NAFGwAVcmLrAY2_pad-2" x="5409" y="-2506.3"/><use xlink:href="#rxDCq8NAFGwAVcmLrAY2_pad-2" x="5716.1" y="-2506.3"/><use xlink:href="#rxDCq8NAFGwAVcmLrAY2_pad-2" x="4437.5" y="-4259"/><use xlink:href="#rxDCq8NAFGwAVcmLrAY2_pad-2" x="4437.5" y="-4566.1"/><use xlink:href="#rxDCq8NAFGwAVcmLrAY2_pad-2" x="5180" y="-4086.5"/><use xlink:href="#rxDCq8NAFGwAVcmLrAY2_pad-2" x="5180" y="-4393.5"/><use xlink:href="#rxDCq8NAFGwAVcmLrAY2_pad-2" x="4641.5" y="-2355"/><use xlink:href="#rxDCq8NAFGwAVcmLrAY2_pad-2" x="4948.5" y="-2355"/><use xlink:href="#rxDCq8NAFGwAVcmLrAY2_pad-2" x="6127.7" y="-4156.3"/><use xlink:href="#rxDCq8NAFGwAVcmLrAY2_pad-2" x="6434.8" y="-4156.3"/><use xlink:href="#rxDCq8NAFGwAVcmLrAY2_pad-2" x="4627.7" y="-3856.3"/><use xlink:href="#rxDCq8NAFGwAVcmLrAY2_pad-2" x="4934.8" y="-3856.3"/><use xlink:href="#rxDCq8NAFGwAVcmLrAY2_pad-2" x="2875" y="-2877.7"/><use xlink:href="#rxDCq8NAFGwAVcmLrAY2_pad-2" x="2875" y="-3184.8"/><use xlink:href="#rxDCq8NAFGwAVcmLrAY2_pad-2" x="6127.7" y="-3406.3"/><use xlink:href="#rxDCq8NAFGwAVcmLrAY2_pad-2" x="6434.8" y="-3406.3"/><use xlink:href="#rxDCq8NAFGwAVcmLrAY2_pad-2" x="1596.5" y="-2017"/><use xlink:href="#rxDCq8NAFGwAVcmLrAY2_pad-2" x="1903.5" y="-2017"/><use xlink:href="#rxDCq8NAFGwAVcmLrAY2_pad-3" x="3020" y="-830"/><use xlink:href="#rxDCq8NAFGwAVcmLrAY2_pad-3" x="3020" y="-930"/><use xlink:href="#rxDCq8NAFGwAVcmLrAY2_pad-3" x="3020" y="-1030"/><use xlink:href="#rxDCq8NAFGwAVcmLrAY2_pad-3" x="3020" y="-1130"/><use xlink:href="#rxDCq8NAFGwAVcmLrAY2_pad-3" x="3020" y="-1230"/><use xlink:href="#rxDCq8NAFGwAVcmLrAY2_pad-3" x="3020" y="-1330"/><use xlink:href="#rxDCq8NAFGwAVcmLrAY2_pad-3" x="3020" y="-1430"/><use xlink:href="#rxDCq8NAFGwAVcmLrAY2_pad-3" x="3020" y="-1530"/><use xlink:href="#rxDCq8NAFGwAVcmLrAY2_pad-3" x="3020" y="-1630"/><use xlink:href="#rxDCq8NAFGwAVcmLrAY2_pad-3" x="3020" y="-1730"/><use xlink:href="#rxDCq8NAFGwAVcmLrAY2_pad-3" x="3020" y="-1830"/><use xlink:href="#rxDCq8NAFGwAVcmLrAY2_pad-3" x="3020" y="-1930"/><use xlink:href="#rxDCq8NAFGwAVcmLrAY2_pad-3" x="3620" y="-830"/><use xlink:href="#rxDCq8NAFGwAVcmLrAY2_pad-3" x="3620" y="-930"/><use xlink:href="#rxDCq8NAFGwAVcmLrAY2_pad-3" x="3620" y="-1030"/><use xlink:href="#rxDCq8NAFGwAVcmLrAY2_pad-3" x="3620" y="-1130"/><use xlink:href="#rxDCq8NAFGwAVcmLrAY2_pad-3" x="3620" y="-1230"/><use xlink:href="#rxDCq8NAFGwAVcmLrAY2_pad-3" x="3620" y="-1330"/><use xlink:href="#rxDCq8NAFGwAVcmLrAY2_pad-3" x="3620" y="-1430"/><use xlink:href="#rxDCq8NAFGwAVcmLrAY2_pad-3" x="3620" y="-1530"/><use xlink:href="#rxDCq8NAFGwAVcmLrAY2_pad-3" x="3620" y="-1630"/><use xlink:href="#rxDCq8NAFGwAVcmLrAY2_pad-3" x="3620" y="-1730"/><use xlink:href="#rxDCq8NAFGwAVcmLrAY2_pad-3" x="3620" y="-1830"/><use xlink:href="#rxDCq8NAFGwAVcmLrAY2_pad-3" x="3620" y="-1930"/><use xlink:href="#rxDCq8NAFGwAVcmLrAY2_pad-4" x="2412.5" y="-1462.5"/><use xlink:href="#rxDCq8NAFGwAVcmLrAY2_pad-4" x="2462.5" y="-1362.5"/><use xlink:href="#rxDCq8NAFGwAVcmLrAY2_pad-4" x="2464.1" y="-1385.3"/><use xlink:href="#rxDCq8NAFGwAVcmLrAY2_pad-4" x="2464.1" y="-1405"/><use xlink:href="#rxDCq8NAFGwAVcmLrAY2_pad-4" x="2660.9" y="-1385.3"/><use xlink:href="#rxDCq8NAFGwAVcmLrAY2_pad-4" x="2660.9" y="-1405"/><use xlink:href="#rxDCq8NAFGwAVcmLrAY2_pad-4" x="2662.5" y="-1362.5"/><use xlink:href="#rxDCq8NAFGwAVcmLrAY2_pad-4" x="2712.5" y="-1462.5"/><use xlink:href="#rxDCq8NAFGwAVcmLrAY2_pad-4" x="6162.5" y="-1462.5"/><use xlink:href="#rxDCq8NAFGwAVcmLrAY2_pad-4" x="6212.5" y="-1362.5"/><use xlink:href="#rxDCq8NAFGwAVcmLrAY2_pad-4" x="6214.1" y="-1385.3"/><use xlink:href="#rxDCq8NAFGwAVcmLrAY2_pad-4" x="6214.1" y="-1405"/><use xlink:href="#rxDCq8NAFGwAVcmLrAY2_pad-4" x="6410.9" y="-1385.3"/><use xlink:href="#rxDCq8NAFGwAVcmLrAY2_pad-4" x="6410.9" y="-1405"/><use xlink:href="#rxDCq8NAFGwAVcmLrAY2_pad-4" x="6412.5" y="-1362.5"/><use xlink:href="#rxDCq8NAFGwAVcmLrAY2_pad-4" x="6462.5" y="-1462.5"/><use xlink:href="#rxDCq8NAFGwAVcmLrAY2_pad-4" x="3912.5" y="-2812.5"/><use xlink:href="#rxDCq8NAFGwAVcmLrAY2_pad-4" x="3962.5" y="-2712.5"/><use xlink:href="#rxDCq8NAFGwAVcmLrAY2_pad-4" x="3964.1" y="-2735.3"/><use xlink:href="#rxDCq8NAFGwAVcmLrAY2_pad-4" x="3964.1" y="-2755"/><use xlink:href="#rxDCq8NAFGwAVcmLrAY2_pad-4" x="4160.9" y="-2735.3"/><use xlink:href="#rxDCq8NAFGwAVcmLrAY2_pad-4" x="4160.9" y="-2755"/><use xlink:href="#rxDCq8NAFGwAVcmLrAY2_pad-4" x="4162.5" y="-2712.5"/><use xlink:href="#rxDCq8NAFGwAVcmLrAY2_pad-4" x="4212.5" y="-2812.5"/><use xlink:href="#rxDCq8NAFGwAVcmLrAY2_pad-4" x="6777.3" y="-4557.8"/><use xlink:href="#rxDCq8NAFGwAVcmLrAY2_pad-4" x="6848.3" y="-4527.5"/><use xlink:href="#rxDCq8NAFGwAVcmLrAY2_pad-4" x="6856.6" y="-4509.6"/><use xlink:href="#rxDCq8NAFGwAVcmLrAY2_pad-4" x="6864.8" y="-4488.3"/><use xlink:href="#rxDCq8NAFGwAVcmLrAY2_pad-4" x="7026.7" y="-4610.7"/><use xlink:href="#rxDCq8NAFGwAVcmLrAY2_pad-4" x="7035" y="-4592.8"/><use xlink:href="#rxDCq8NAFGwAVcmLrAY2_pad-4" x="7046.1" y="-4572.8"/><use xlink:href="#rxDCq8NAFGwAVcmLrAY2_pad-4" x="7049.2" y="-4684.6"/><use xlink:href="#rxDCq8NAFGwAVcmLrAY2_pad-4" x="4662.5" y="-1912.5"/><use xlink:href="#rxDCq8NAFGwAVcmLrAY2_pad-4" x="4712.5" y="-1812.5"/><use xlink:href="#rxDCq8NAFGwAVcmLrAY2_pad-4" x="4714.1" y="-1835.3"/><use xlink:href="#rxDCq8NAFGwAVcmLrAY2_pad-4" x="4714.1" y="-1855"/><use xlink:href="#rxDCq8NAFGwAVcmLrAY2_pad-4" x="4910.9" y="-1835.3"/><use xlink:href="#rxDCq8NAFGwAVcmLrAY2_pad-4" x="4910.9" y="-1855"/><use xlink:href="#rxDCq8NAFGwAVcmLrAY2_pad-4" x="4912.5" y="-1812.5"/><use xlink:href="#rxDCq8NAFGwAVcmLrAY2_pad-4" x="4962.5" y="-1912.5"/><use xlink:href="#rxDCq8NAFGwAVcmLrAY2_pad-4" x="5412.5" y="-1312.5"/><use xlink:href="#rxDCq8NAFGwAVcmLrAY2_pad-4" x="5462.5" y="-1212.5"/><use xlink:href="#rxDCq8NAFGwAVcmLrAY2_pad-4" x="5464.1" y="-1235.3"/><use xlink:href="#rxDCq8NAFGwAVcmLrAY2_pad-4" x="5464.1" y="-1255"/><use xlink:href="#rxDCq8NAFGwAVcmLrAY2_pad-4" x="5660.9" y="-1235.3"/><use xlink:href="#rxDCq8NAFGwAVcmLrAY2_pad-4" x="5660.9" y="-1255"/><use xlink:href="#rxDCq8NAFGwAVcmLrAY2_pad-4" x="5662.5" y="-1212.5"/><use xlink:href="#rxDCq8NAFGwAVcmLrAY2_pad-4" x="5712.5" y="-1312.5"/><use xlink:href="#rxDCq8NAFGwAVcmLrAY2_pad-4" x="4660" y="-4160"/><use xlink:href="#rxDCq8NAFGwAVcmLrAY2_pad-4" x="4710" y="-4060"/><use xlink:href="#rxDCq8NAFGwAVcmLrAY2_pad-4" x="4711.6" y="-4082.8"/><use xlink:href="#rxDCq8NAFGwAVcmLrAY2_pad-4" x="4711.6" y="-4102.5"/><use xlink:href="#rxDCq8NAFGwAVcmLrAY2_pad-4" x="4908.4" y="-4082.8"/><use xlink:href="#rxDCq8NAFGwAVcmLrAY2_pad-4" x="4908.4" y="-4102.5"/><use xlink:href="#rxDCq8NAFGwAVcmLrAY2_pad-4" x="4910" y="-4060"/><use xlink:href="#rxDCq8NAFGwAVcmLrAY2_pad-4" x="4960" y="-4160"/><use xlink:href="#rxDCq8NAFGwAVcmLrAY2_pad-4" x="3912.5" y="-2062.5"/><use xlink:href="#rxDCq8NAFGwAVcmLrAY2_pad-4" x="3962.5" y="-1962.5"/><use xlink:href="#rxDCq8NAFGwAVcmLrAY2_pad-4" x="3964.1" y="-1985.3"/><use xlink:href="#rxDCq8NAFGwAVcmLrAY2_pad-4" x="3964.1" y="-2005"/><use xlink:href="#rxDCq8NAFGwAVcmLrAY2_pad-4" x="4160.9" y="-1985.3"/><use xlink:href="#rxDCq8NAFGwAVcmLrAY2_pad-4" x="4160.9" y="-2005"/><use xlink:href="#rxDCq8NAFGwAVcmLrAY2_pad-4" x="4162.5" y="-1962.5"/><use xlink:href="#rxDCq8NAFGwAVcmLrAY2_pad-4" x="4212.5" y="-2062.5"/><use xlink:href="#rxDCq8NAFGwAVcmLrAY2_pad-4" x="3162.5" y="-1462.5"/><use xlink:href="#rxDCq8NAFGwAVcmLrAY2_pad-4" x="3212.5" y="-1362.5"/><use xlink:href="#rxDCq8NAFGwAVcmLrAY2_pad-4" x="3214.1" y="-1385.3"/><use xlink:href="#rxDCq8NAFGwAVcmLrAY2_pad-4" x="3214.1" y="-1405"/><use xlink:href="#rxDCq8NAFGwAVcmLrAY2_pad-4" x="3410.9" y="-1385.3"/><use xlink:href="#rxDCq8NAFGwAVcmLrAY2_pad-4" x="3410.9" y="-1405"/><use xlink:href="#rxDCq8NAFGwAVcmLrAY2_pad-4" x="3412.5" y="-1362.5"/><use xlink:href="#rxDCq8NAFGwAVcmLrAY2_pad-4" x="3462.5" y="-1462.5"/><use xlink:href="#rxDCq8NAFGwAVcmLrAY2_pad-4" x="6162.5" y="-3712.5"/><use xlink:href="#rxDCq8NAFGwAVcmLrAY2_pad-4" x="6212.5" y="-3612.5"/><use xlink:href="#rxDCq8NAFGwAVcmLrAY2_pad-4" x="6214.1" y="-3635.3"/><use xlink:href="#rxDCq8NAFGwAVcmLrAY2_pad-4" x="6214.1" y="-3655"/><use xlink:href="#rxDCq8NAFGwAVcmLrAY2_pad-4" x="6410.9" y="-3635.3"/><use xlink:href="#rxDCq8NAFGwAVcmLrAY2_pad-4" x="6410.9" y="-3655"/><use xlink:href="#rxDCq8NAFGwAVcmLrAY2_pad-4" x="6412.5" y="-3612.5"/><use xlink:href="#rxDCq8NAFGwAVcmLrAY2_pad-4" x="6462.5" y="-3712.5"/><use xlink:href="#rxDCq8NAFGwAVcmLrAY2_pad-4" x="3912.5" y="-1312.5"/><use xlink:href="#rxDCq8NAFGwAVcmLrAY2_pad-4" x="3962.5" y="-1212.5"/><use xlink:href="#rxDCq8NAFGwAVcmLrAY2_pad-4" x="3964.1" y="-1235.3"/><use xlink:href="#rxDCq8NAFGwAVcmLrAY2_pad-4" x="3964.1" y="-1255"/><use xlink:href="#rxDCq8NAFGwAVcmLrAY2_pad-4" x="4160.9" y="-1235.3"/><use xlink:href="#rxDCq8NAFGwAVcmLrAY2_pad-4" x="4160.9" y="-1255"/><use xlink:href="#rxDCq8NAFGwAVcmLrAY2_pad-4" x="4162.5" y="-1212.5"/><use xlink:href="#rxDCq8NAFGwAVcmLrAY2_pad-4" x="4212.5" y="-1312.5"/><use xlink:href="#rxDCq8NAFGwAVcmLrAY2_pad-4" x="3162.5" y="-2212.5"/><use xlink:href="#rxDCq8NAFGwAVcmLrAY2_pad-4" x="3212.5" y="-2112.5"/><use xlink:href="#rxDCq8NAFGwAVcmLrAY2_pad-4" x="3214.1" y="-2135.3"/><use xlink:href="#rxDCq8NAFGwAVcmLrAY2_pad-4" x="3214.1" y="-2155"/><use xlink:href="#rxDCq8NAFGwAVcmLrAY2_pad-4" x="3410.9" y="-2135.3"/><use xlink:href="#rxDCq8NAFGwAVcmLrAY2_pad-4" x="3410.9" y="-2155"/><use xlink:href="#rxDCq8NAFGwAVcmLrAY2_pad-4" x="3412.5" y="-2112.5"/><use xlink:href="#rxDCq8NAFGwAVcmLrAY2_pad-4" x="3462.5" y="-2212.5"/><use xlink:href="#rxDCq8NAFGwAVcmLrAY2_pad-4" x="2412.5" y="-4462.5"/><use xlink:href="#rxDCq8NAFGwAVcmLrAY2_pad-4" x="2462.5" y="-4362.5"/><use xlink:href="#rxDCq8NAFGwAVcmLrAY2_pad-4" x="2464.1" y="-4385.4"/><use xlink:href="#rxDCq8NAFGwAVcmLrAY2_pad-4" x="2464.1" y="-4405"/><use xlink:href="#rxDCq8NAFGwAVcmLrAY2_pad-4" x="2660.9" y="-4385.4"/><use xlink:href="#rxDCq8NAFGwAVcmLrAY2_pad-4" x="2660.9" y="-4405"/><use xlink:href="#rxDCq8NAFGwAVcmLrAY2_pad-4" x="2662.5" y="-4362.5"/><use xlink:href="#rxDCq8NAFGwAVcmLrAY2_pad-4" x="2712.5" y="-4462.5"/><use xlink:href="#rxDCq8NAFGwAVcmLrAY2_pad-4" x="3162.5" y="-4462.5"/><use xlink:href="#rxDCq8NAFGwAVcmLrAY2_pad-4" x="3212.5" y="-4362.5"/><use xlink:href="#rxDCq8NAFGwAVcmLrAY2_pad-4" x="3214.1" y="-4385.4"/><use xlink:href="#rxDCq8NAFGwAVcmLrAY2_pad-4" x="3214.1" y="-4405"/><use xlink:href="#rxDCq8NAFGwAVcmLrAY2_pad-4" x="3410.9" y="-4385.4"/><use xlink:href="#rxDCq8NAFGwAVcmLrAY2_pad-4" x="3410.9" y="-4405"/><use xlink:href="#rxDCq8NAFGwAVcmLrAY2_pad-4" x="3412.5" y="-4362.5"/><use xlink:href="#rxDCq8NAFGwAVcmLrAY2_pad-4" x="3462.5" y="-4462.5"/><use xlink:href="#rxDCq8NAFGwAVcmLrAY2_pad-4" x="3912.5" y="-4312.5"/><use xlink:href="#rxDCq8NAFGwAVcmLrAY2_pad-4" x="3962.5" y="-4212.5"/><use xlink:href="#rxDCq8NAFGwAVcmLrAY2_pad-4" x="3964.1" y="-4235.4"/><use xlink:href="#rxDCq8NAFGwAVcmLrAY2_pad-4" x="3964.1" y="-4255"/><use xlink:href="#rxDCq8NAFGwAVcmLrAY2_pad-4" x="4160.9" y="-4235.4"/><use xlink:href="#rxDCq8NAFGwAVcmLrAY2_pad-4" x="4160.9" y="-4255"/><use xlink:href="#rxDCq8NAFGwAVcmLrAY2_pad-4" x="4162.5" y="-4212.5"/><use xlink:href="#rxDCq8NAFGwAVcmLrAY2_pad-4" x="4212.5" y="-4312.5"/><use xlink:href="#rxDCq8NAFGwAVcmLrAY2_pad-4" x="6375.8" y="-5418.8"/><use xlink:href="#rxDCq8NAFGwAVcmLrAY2_pad-4" x="6378.8" y="-5530.5"/><use xlink:href="#rxDCq8NAFGwAVcmLrAY2_pad-4" x="6389.9" y="-5510.5"/><use xlink:href="#rxDCq8NAFGwAVcmLrAY2_pad-4" x="6398.2" y="-5492.7"/><use xlink:href="#rxDCq8NAFGwAVcmLrAY2_pad-4" x="6560.1" y="-5615.1"/><use xlink:href="#rxDCq8NAFGwAVcmLrAY2_pad-4" x="6568.3" y="-5593.7"/><use xlink:href="#rxDCq8NAFGwAVcmLrAY2_pad-4" x="6576.6" y="-5575.9"/><use xlink:href="#rxDCq8NAFGwAVcmLrAY2_pad-4" x="6647.7" y="-5545.6"/><use xlink:href="#rxDCq8NAFGwAVcmLrAY2_pad-4" x="7140.5" y="-5555"/><use xlink:href="#rxDCq8NAFGwAVcmLrAY2_pad-4" x="7211.6" y="-5524.7"/><use xlink:href="#rxDCq8NAFGwAVcmLrAY2_pad-4" x="7219.9" y="-5506.8"/><use xlink:href="#rxDCq8NAFGwAVcmLrAY2_pad-4" x="7228.1" y="-5485.5"/><use xlink:href="#rxDCq8NAFGwAVcmLrAY2_pad-4" x="7390" y="-5607.8"/><use xlink:href="#rxDCq8NAFGwAVcmLrAY2_pad-4" x="7398.3" y="-5590"/><use xlink:href="#rxDCq8NAFGwAVcmLrAY2_pad-4" x="7409.4" y="-5570"/><use xlink:href="#rxDCq8NAFGwAVcmLrAY2_pad-4" x="7412.4" y="-5681.7"/><use xlink:href="#rxDCq8NAFGwAVcmLrAY2_pad-4" x="5410" y="-4310"/><use xlink:href="#rxDCq8NAFGwAVcmLrAY2_pad-4" x="5460" y="-4210"/><use xlink:href="#rxDCq8NAFGwAVcmLrAY2_pad-4" x="5461.6" y="-4232.8"/><use xlink:href="#rxDCq8NAFGwAVcmLrAY2_pad-4" x="5461.6" y="-4252.5"/><use xlink:href="#rxDCq8NAFGwAVcmLrAY2_pad-4" x="5658.4" y="-4232.8"/><use xlink:href="#rxDCq8NAFGwAVcmLrAY2_pad-4" x="5658.4" y="-4252.5"/><use xlink:href="#rxDCq8NAFGwAVcmLrAY2_pad-4" x="5660" y="-4210"/><use xlink:href="#rxDCq8NAFGwAVcmLrAY2_pad-4" x="5710" y="-4310"/><use xlink:href="#rxDCq8NAFGwAVcmLrAY2_pad-4" x="4662.5" y="-1162.5"/><use xlink:href="#rxDCq8NAFGwAVcmLrAY2_pad-4" x="4712.5" y="-1062.5"/><use xlink:href="#rxDCq8NAFGwAVcmLrAY2_pad-4" x="4714.1" y="-1085.3"/><use xlink:href="#rxDCq8NAFGwAVcmLrAY2_pad-4" x="4714.1" y="-1105"/><use xlink:href="#rxDCq8NAFGwAVcmLrAY2_pad-4" x="4910.9" y="-1085.3"/><use xlink:href="#rxDCq8NAFGwAVcmLrAY2_pad-4" x="4910.9" y="-1105"/><use xlink:href="#rxDCq8NAFGwAVcmLrAY2_pad-4" x="4912.5" y="-1062.5"/><use xlink:href="#rxDCq8NAFGwAVcmLrAY2_pad-4" x="4962.5" y="-1162.5"/><use xlink:href="#rxDCq8NAFGwAVcmLrAY2_pad-4" x="2225" y="-2212.5"/><use xlink:href="#rxDCq8NAFGwAVcmLrAY2_pad-4" x="2275" y="-2112.5"/><use xlink:href="#rxDCq8NAFGwAVcmLrAY2_pad-4" x="2276.6" y="-2135.3"/><use xlink:href="#rxDCq8NAFGwAVcmLrAY2_pad-4" x="2276.6" y="-2155"/><use xlink:href="#rxDCq8NAFGwAVcmLrAY2_pad-4" x="2473.4" y="-2135.3"/><use xlink:href="#rxDCq8NAFGwAVcmLrAY2_pad-4" x="2473.4" y="-2155"/><use xlink:href="#rxDCq8NAFGwAVcmLrAY2_pad-4" x="2475" y="-2112.5"/><use xlink:href="#rxDCq8NAFGwAVcmLrAY2_pad-4" x="2525" y="-2212.5"/><use xlink:href="#rxDCq8NAFGwAVcmLrAY2_pad-4" x="3912.5" y="-3562.5"/><use xlink:href="#rxDCq8NAFGwAVcmLrAY2_pad-4" x="3962.5" y="-3462.5"/><use xlink:href="#rxDCq8NAFGwAVcmLrAY2_pad-4" x="3964.1" y="-3485.3"/><use xlink:href="#rxDCq8NAFGwAVcmLrAY2_pad-4" x="3964.1" y="-3505"/><use xlink:href="#rxDCq8NAFGwAVcmLrAY2_pad-4" x="4160.9" y="-3485.3"/><use xlink:href="#rxDCq8NAFGwAVcmLrAY2_pad-4" x="4160.9" y="-3505"/><use xlink:href="#rxDCq8NAFGwAVcmLrAY2_pad-4" x="4162.5" y="-3462.5"/><use xlink:href="#rxDCq8NAFGwAVcmLrAY2_pad-4" x="4212.5" y="-3562.5"/><use xlink:href="#rxDCq8NAFGwAVcmLrAY2_pad-4" x="4662.5" y="-2662.5"/><use xlink:href="#rxDCq8NAFGwAVcmLrAY2_pad-4" x="4712.5" y="-2562.5"/><use xlink:href="#rxDCq8NAFGwAVcmLrAY2_pad-4" x="4714.1" y="-2585.3"/><use xlink:href="#rxDCq8NAFGwAVcmLrAY2_pad-4" x="4714.1" y="-2605"/><use xlink:href="#rxDCq8NAFGwAVcmLrAY2_pad-4" x="4910.9" y="-2585.3"/><use xlink:href="#rxDCq8NAFGwAVcmLrAY2_pad-4" x="4910.9" y="-2605"/><use xlink:href="#rxDCq8NAFGwAVcmLrAY2_pad-4" x="4912.5" y="-2562.5"/><use xlink:href="#rxDCq8NAFGwAVcmLrAY2_pad-4" x="4962.5" y="-2662.5"/><use xlink:href="#rxDCq8NAFGwAVcmLrAY2_pad-4" x="5412.5" y="-2812.5"/><use xlink:href="#rxDCq8NAFGwAVcmLrAY2_pad-4" x="5462.5" y="-2712.5"/><use xlink:href="#rxDCq8NAFGwAVcmLrAY2_pad-4" x="5464.1" y="-2735.3"/><use xlink:href="#rxDCq8NAFGwAVcmLrAY2_pad-4" x="5464.1" y="-2755"/><use xlink:href="#rxDCq8NAFGwAVcmLrAY2_pad-4" x="5660.9" y="-2735.3"/><use xlink:href="#rxDCq8NAFGwAVcmLrAY2_pad-4" x="5660.9" y="-2755"/><use xlink:href="#rxDCq8NAFGwAVcmLrAY2_pad-4" x="5662.5" y="-2712.5"/><use xlink:href="#rxDCq8NAFGwAVcmLrAY2_pad-4" x="5712.5" y="-2812.5"/><use xlink:href="#rxDCq8NAFGwAVcmLrAY2_pad-4" x="3162.5" y="-3712.5"/><use xlink:href="#rxDCq8NAFGwAVcmLrAY2_pad-4" x="3212.5" y="-3612.5"/><use xlink:href="#rxDCq8NAFGwAVcmLrAY2_pad-4" x="3214.1" y="-3635.3"/><use xlink:href="#rxDCq8NAFGwAVcmLrAY2_pad-4" x="3214.1" y="-3655"/><use xlink:href="#rxDCq8NAFGwAVcmLrAY2_pad-4" x="3410.9" y="-3635.3"/><use xlink:href="#rxDCq8NAFGwAVcmLrAY2_pad-4" x="3410.9" y="-3655"/><use xlink:href="#rxDCq8NAFGwAVcmLrAY2_pad-4" x="3412.5" y="-3612.5"/><use xlink:href="#rxDCq8NAFGwAVcmLrAY2_pad-4" x="3462.5" y="-3712.5"/><use xlink:href="#rxDCq8NAFGwAVcmLrAY2_pad-4" x="1663" y="-1463"/><use xlink:href="#rxDCq8NAFGwAVcmLrAY2_pad-4" x="1713" y="-1363"/><use xlink:href="#rxDCq8NAFGwAVcmLrAY2_pad-4" x="1714.6" y="-1385.8"/><use xlink:href="#rxDCq8NAFGwAVcmLrAY2_pad-4" x="1714.6" y="-1405.5"/><use xlink:href="#rxDCq8NAFGwAVcmLrAY2_pad-4" x="1911.4" y="-1385.8"/><use xlink:href="#rxDCq8NAFGwAVcmLrAY2_pad-4" x="1911.4" y="-1405.5"/><use xlink:href="#rxDCq8NAFGwAVcmLrAY2_pad-4" x="1913" y="-1363"/><use xlink:href="#rxDCq8NAFGwAVcmLrAY2_pad-4" x="1963" y="-1463"/><use xlink:href="#rxDCq8NAFGwAVcmLrAY2_pad-4" x="6162.5" y="-2962.5"/><use xlink:href="#rxDCq8NAFGwAVcmLrAY2_pad-4" x="6212.5" y="-2862.5"/><use xlink:href="#rxDCq8NAFGwAVcmLrAY2_pad-4" x="6214.1" y="-2885.3"/><use xlink:href="#rxDCq8NAFGwAVcmLrAY2_pad-4" x="6214.1" y="-2905"/><use xlink:href="#rxDCq8NAFGwAVcmLrAY2_pad-4" x="6410.9" y="-2885.3"/><use xlink:href="#rxDCq8NAFGwAVcmLrAY2_pad-4" x="6410.9" y="-2905"/><use xlink:href="#rxDCq8NAFGwAVcmLrAY2_pad-4" x="6412.5" y="-2862.5"/><use xlink:href="#rxDCq8NAFGwAVcmLrAY2_pad-4" x="6462.5" y="-2962.5"/><use xlink:href="#rxDCq8NAFGwAVcmLrAY2_pad-4" x="5412.5" y="-2062.5"/><use xlink:href="#rxDCq8NAFGwAVcmLrAY2_pad-4" x="5462.5" y="-1962.5"/><use xlink:href="#rxDCq8NAFGwAVcmLrAY2_pad-4" x="5464.1" y="-1985.3"/><use xlink:href="#rxDCq8NAFGwAVcmLrAY2_pad-4" x="5464.1" y="-2005"/><use xlink:href="#rxDCq8NAFGwAVcmLrAY2_pad-4" x="5660.9" y="-1985.3"/><use xlink:href="#rxDCq8NAFGwAVcmLrAY2_pad-4" x="5660.9" y="-2005"/><use xlink:href="#rxDCq8NAFGwAVcmLrAY2_pad-4" x="5662.5" y="-1962.5"/><use xlink:href="#rxDCq8NAFGwAVcmLrAY2_pad-4" x="5712.5" y="-2062.5"/><use xlink:href="#rxDCq8NAFGwAVcmLrAY2_pad-4" x="7457.5" y="-4875.2"/><use xlink:href="#rxDCq8NAFGwAVcmLrAY2_pad-4" x="7528.5" y="-4844.9"/><use xlink:href="#rxDCq8NAFGwAVcmLrAY2_pad-4" x="7536.8" y="-4827.1"/><use xlink:href="#rxDCq8NAFGwAVcmLrAY2_pad-4" x="7545" y="-4805.7"/><use xlink:href="#rxDCq8NAFGwAVcmLrAY2_pad-4" x="7706.9" y="-4928.1"/><use xlink:href="#rxDCq8NAFGwAVcmLrAY2_pad-4" x="7715.2" y="-4910.3"/><use xlink:href="#rxDCq8NAFGwAVcmLrAY2_pad-4" x="7726.3" y="-4890.3"/><use xlink:href="#rxDCq8NAFGwAVcmLrAY2_pad-4" x="7729.3" y="-5002"/><use xlink:href="#rxDCq8NAFGwAVcmLrAY2_pad-4" x="3162.5" y="-2962.5"/><use xlink:href="#rxDCq8NAFGwAVcmLrAY2_pad-4" x="3212.5" y="-2862.5"/><use xlink:href="#rxDCq8NAFGwAVcmLrAY2_pad-4" x="3214.1" y="-2885.3"/><use xlink:href="#rxDCq8NAFGwAVcmLrAY2_pad-4" x="3214.1" y="-2905"/><use xlink:href="#rxDCq8NAFGwAVcmLrAY2_pad-4" x="3410.9" y="-2885.3"/><use xlink:href="#rxDCq8NAFGwAVcmLrAY2_pad-4" x="3410.9" y="-2905"/><use xlink:href="#rxDCq8NAFGwAVcmLrAY2_pad-4" x="3412.5" y="-2862.5"/><use xlink:href="#rxDCq8NAFGwAVcmLrAY2_pad-4" x="3462.5" y="-2962.5"/><use xlink:href="#rxDCq8NAFGwAVcmLrAY2_pad-4" x="4662.5" y="-3412.5"/><use xlink:href="#rxDCq8NAFGwAVcmLrAY2_pad-4" x="4712.5" y="-3312.5"/><use xlink:href="#rxDCq8NAFGwAVcmLrAY2_pad-4" x="4714.1" y="-3335.3"/><use xlink:href="#rxDCq8NAFGwAVcmLrAY2_pad-4" x="4714.1" y="-3355"/><use xlink:href="#rxDCq8NAFGwAVcmLrAY2_pad-4" x="4910.9" y="-3335.3"/><use xlink:href="#rxDCq8NAFGwAVcmLrAY2_pad-4" x="4910.9" y="-3355"/><use xlink:href="#rxDCq8NAFGwAVcmLrAY2_pad-4" x="4912.5" y="-3312.5"/><use xlink:href="#rxDCq8NAFGwAVcmLrAY2_pad-4" x="4962.5" y="-3412.5"/><use xlink:href="#rxDCq8NAFGwAVcmLrAY2_pad-4" x="6162.5" y="-2212.5"/><use xlink:href="#rxDCq8NAFGwAVcmLrAY2_pad-4" x="6212.5" y="-2112.5"/><use xlink:href="#rxDCq8NAFGwAVcmLrAY2_pad-4" x="6214.1" y="-2135.3"/><use xlink:href="#rxDCq8NAFGwAVcmLrAY2_pad-4" x="6214.1" y="-2155"/><use xlink:href="#rxDCq8NAFGwAVcmLrAY2_pad-4" x="6410.9" y="-2135.3"/><use xlink:href="#rxDCq8NAFGwAVcmLrAY2_pad-4" x="6410.9" y="-2155"/><use xlink:href="#rxDCq8NAFGwAVcmLrAY2_pad-4" x="6412.5" y="-2112.5"/><use xlink:href="#rxDCq8NAFGwAVcmLrAY2_pad-4" x="6462.5" y="-2212.5"/><use xlink:href="#rxDCq8NAFGwAVcmLrAY2_pad-4" x="5412.5" y="-3562.5"/><use xlink:href="#rxDCq8NAFGwAVcmLrAY2_pad-4" x="5462.5" y="-3462.5"/><use xlink:href="#rxDCq8NAFGwAVcmLrAY2_pad-4" x="5464.1" y="-3485.3"/><use xlink:href="#rxDCq8NAFGwAVcmLrAY2_pad-4" x="5464.1" y="-3505"/><use xlink:href="#rxDCq8NAFGwAVcmLrAY2_pad-4" x="5660.9" y="-3485.3"/><use xlink:href="#rxDCq8NAFGwAVcmLrAY2_pad-4" x="5660.9" y="-3505"/><use xlink:href="#rxDCq8NAFGwAVcmLrAY2_pad-4" x="5662.5" y="-3462.5"/><use xlink:href="#rxDCq8NAFGwAVcmLrAY2_pad-4" x="5712.5" y="-3562.5"/><use xlink:href="#rxDCq8NAFGwAVcmLrAY2_pad-5" x="6740.2" y="-5230.3"/><use xlink:href="#rxDCq8NAFGwAVcmLrAY2_pad-5" x="6814.1" y="-5207.9"/><use xlink:href="#rxDCq8NAFGwAVcmLrAY2_pad-5" x="6831.9" y="-5216.2"/><use xlink:href="#rxDCq8NAFGwAVcmLrAY2_pad-5" x="6852" y="-5227.3"/><use xlink:href="#rxDCq8NAFGwAVcmLrAY2_pad-5" x="6867" y="-4958.4"/><use xlink:href="#rxDCq8NAFGwAVcmLrAY2_pad-5" x="6897.3" y="-5029.5"/><use xlink:href="#rxDCq8NAFGwAVcmLrAY2_pad-5" x="6915.1" y="-5037.8"/><use xlink:href="#rxDCq8NAFGwAVcmLrAY2_pad-5" x="6936.5" y="-5046"/><use xlink:href="#rxDCq8NAFGwAVcmLrAY2_pad-6" x="1560" y="-2380"/><use xlink:href="#rxDCq8NAFGwAVcmLrAY2_pad-6" x="4430" y="-805"/><use xlink:href="#rxDCq8NAFGwAVcmLrAY2_pad-6" x="7065" y="-5225"/><use xlink:href="#rxDCq8NAFGwAVcmLrAY2_pad-6" x="5957.5" y="-4790"/><use xlink:href="#rxDCq8NAFGwAVcmLrAY2_pad-6" x="1570" y="-795"/><use xlink:href="#rxDCq8NAFGwAVcmLrAY2_pad-6" x="6580" y="-2687.5"/><use xlink:href="#rxDCq8NAFGwAVcmLrAY2_pad-6" x="1600" y="-4532.5"/><use xlink:href="#rxDCq8NAFGwAVcmLrAY2_pad-6" x="4432.5" y="-4875"/><use xlink:href="#rxDCq8NAFGwAVcmLrAY2_pad-6" x="4457.5" y="-2387.5"/><use xlink:href="#rxDCq8NAFGwAVcmLrAY2_pad-6" x="6582.5" y="-807.5"/><path d="M 1995.3 -2885.3 1993.8 -2862.5 M 2243.8 -2962.5 2211.8 -2905 M 1807.8 -3635.3 1806.3 -3612.5 M 2056.3 -3712.5 2024.3 -3655 M 1975.7 -3655 1943.7 -3712.5 M 2193.7 -3612.5 2192.2 -3635.3 M 2071.9 -1405 2040 -1462.5 M 2090 -1362.5 2091.6 -1385.3 M 2290 -1362.5 2288.4 -1385.3 M 2308.1 -1405 2340 -1462.5 M 2163.2 -2905 2131.2 -2962.5 M 2381.2 -2862.5 2379.7 -2885.3" fill="none" stroke-width="59.1"/></g></svg>