<svg version="1.1" xmlns="http://www.w3.org/2000/svg" xmlns:xlink="http://www.w3.org/1999/xlink" stroke-linecap="round" stroke-linejoin="round" stroke-width="0" fill-rule="evenodd" width="167.33828mm" height="127.88158mm" viewBox="32975.6 -153522.88 167338.28 127881.58" id="gUauHgqXTXm_9pdzl937"><g transform="translate(0,-179164.18) scale(1,-1)" fill="currentColor" stroke="currentColor"><path d="M 77787.5 -46037.5 77787.5 -33337.5 M 90487.5 -46037.5 77787.5 -46037.5 M 90487.5 -33337.5 90487.5 -46037.5 M 77787.5 -33337.5 90487.5 -33337.5 M 66675 -65087.5 66675 -52387.5 M 53975 -65087.5 66675 -65087.5 M 53975 -52387.5 53975 -65087.5 M 66675 -52387.5 53975 -52387.5 M 175310.32 -148079.428 180677.572 -136569.32 M 186820.428 -153446.68 175310.32 -148079.428 M 192187.68 -141936.572 186820.428 -153446.68 M 180677.572 -136569.32 192187.68 -141936.572 M 96838 -42227.5 96838 -29527.5 M 109538 -42227.5 96838 -42227.5 M 109538 -29527.5 109538 -42227.5 M 96838 -29527.5 109538 -29527.5 M 115888 -38417.5 115888 -25717.5 M 128588 -38417.5 115888 -38417.5 M 128588 -25717.5 128588 -38417.5 M 115888 -25717.5 128588 -25717.5 M 134938 -42227.5 134938 -29527.5 M 147638 -42227.5 134938 -42227.5 M 147638 -29527.5 147638 -42227.5 M 134938 -29527.5 147638 -29527.5 M 153988 -46037.5 153988 -33337.5 M 166688 -46037.5 153988 -46037.5 M 166688 -33337.5 166688 -46037.5 M 153988 -33337.5 166688 -33337.5 M 77787.5 -84137.5 77787.5 -71437.5 M 90487.5 -84137.5 77787.5 -84137.5 M 90487.5 -71437.5 90487.5 -84137.5 M 77787.5 -71437.5 90487.5 -71437.5 M 77787.5 -122238 77787.5 -109538 M 90487.5 -122238 77787.5 -122238 M 90487.5 -109538 90487.5 -122238 M 77787.5 -109538 90487.5 -109538 M 153988 -103187.5 153988 -90487.5 M 166688 -103187.5 153988 -103187.5 M 166688 -90487.5 166688 -103187.5 M 153988 -90487.5 166688 -90487.5 M 115824 -114554 115824 -101854 M 128524 -114554 115824 -114554 M 128524 -101854 128524 -114554 M 115824 -101854 128524 -101854 M 134874 -118364 134874 -105664 M 147574 -118364 134874 -118364 M 147574 -105664 147574 -118364 M 134874 -105664 147574 -105664 M 115888 -95567.5 115888 -82867.5 M 128588 -95567.5 115888 -95567.5 M 128588 -82867.5 128588 -95567.5 M 115888 -82867.5 128588 -82867.5 M 51593.8 -84137.5 51593.8 -71437.5 M 64293.8 -84137.5 51593.8 -84137.5 M 64293.8 -71437.5 64293.8 -84137.5 M 51593.8 -71437.5 64293.8 -71437.5 M 58737.5 -122238 58737.5 -109538 M 71437.5 -122238 58737.5 -122238 M 71437.5 -109538 71437.5 -122238 M 58737.5 -109538 71437.5 -109538 M 115888 -76517.5 115888 -63817.5 M 128588 -76517.5 115888 -76517.5 M 128588 -63817.5 128588 -76517.5 M 115888 -63817.5 128588 -63817.5 M 115888 -57467.5 115888 -44767.5 M 128588 -57467.5 115888 -57467.5 M 128588 -44767.5 128588 -57467.5 M 115888 -44767.5 128588 -44767.5 M 37814.2 -87947.5 37814.2 -70167.5 M 68548.2 -87947.5 37814.2 -87947.5 M 68548.2 -70167.5 68548.2 -87947.5 M 61690.2 -70167.5 68548.2 -70167.5 M 61690.2 -85407.5 61690.2 -70167.5 M 44672.2 -85407.5 61690.2 -85407.5 M 44672.2 -70167.5 44672.2 -85407.5 M 37814.2 -70167.5 44672.2 -70167.5 M 59531.2 -84137.5 59531.2 -71437.5 M 46831.2 -84137.5 59531.2 -84137.5 M 46831.2 -71437.5 46831.2 -84137.5 M 59531.2 -71437.5 46831.2 -71437.5 M 58737.5 -46037.5 58737.5 -33337.5 M 71437.5 -46037.5 58737.5 -46037.5 M 71437.5 -33337.5 71437.5 -46037.5 M 58737.5 -33337.5 71437.5 -33337.5 M 134938 -80327.5 134938 -67627.5 M 147638 -80327.5 134938 -80327.5 M 147638 -67627.5 147638 -80327.5 M 134938 -67627.5 147638 -67627.5 M 153988 -84137.5 153988 -71437.5 M 166688 -84137.5 153988 -84137.5 M 166688 -71437.5 166688 -84137.5 M 153988 -71437.5 166688 -71437.5 M 77787.5 -65087.5 77787.5 -52387.5 M 90487.5 -65087.5 77787.5 -65087.5 M 90487.5 -52387.5 90487.5 -65087.5 M 77787.5 -52387.5 90487.5 -52387.5 M 134938 -61277.5 134938 -48577.5 M 147638 -61277.5 134938 -61277.5 M 147638 -48577.5 147638 -61277.5 M 134938 -48577.5 147638 -48577.5 M 96838 -80327.5 96838 -67627.5 M 109538 -80327.5 96838 -80327.5 M 109538 -67627.5 109538 -80327.5 M 96838 -67627.5 109538 -67627.5 M 68548.2 -106997.5 68548.2 -89217.5 M 37814.2 -106997.5 68548.2 -106997.5 M 37814.2 -89217.5 37814.2 -106997.5 M 44672.2 -89217.5 37814.2 -89217.5 M 44672.2 -104457.5 44672.2 -89217.5 M 61690.2 -104457.5 44672.2 -104457.5 M 61690.2 -89217.5 61690.2 -104457.5 M 68548.2 -89217.5 61690.2 -89217.5 M 46831.2 -103187.5 46831.2 -90487.5 M 59531.2 -103187.5 46831.2 -103187.5 M 59531.2 -90487.5 59531.2 -103187.5 M 46831.2 -90487.5 59531.2 -90487.5 M 33051.8 -106997.5 33051.8 -89217.5 M 63785.8 -106997.5 33051.8 -106997.5 M 63785.8 -89217.5 63785.8 -106997.5 M 56927.8 -89217.5 63785.8 -89217.5 M 56927.8 -104457.5 56927.8 -89217.5 M 39909.8 -104457.5 56927.8 -104457.5 M 39909.8 -89217.5 39909.8 -104457.5 M 33051.8 -89217.5 39909.8 -89217.5 M 54768.8 -103187.5 54768.8 -90487.5 M 42068.8 -103187.5 54768.8 -103187.5 M 42068.8 -90487.5 42068.8 -103187.5 M 54768.8 -90487.5 42068.8 -90487.5 M 153988 -65087.5 153988 -52387.5 M 166688 -65087.5 153988 -65087.5 M 166688 -52387.5 166688 -65087.5 M 153988 -52387.5 166688 -52387.5 M 183360.32 -130814.428 188727.572 -119304.32 M 194870.428 -136181.68 183360.32 -130814.428 M 200237.68 -124671.572 194870.428 -136181.68 M 188727.572 -119304.32 200237.68 -124671.572 M 134938 -99377.5 134938 -86677.5 M 147638 -99377.5 134938 -99377.5 M 147638 -86677.5 147638 -99377.5 M 134938 -86677.5 147638 -86677.5 M 96838 -61277.5 96838 -48577.5 M 109538 -61277.5 96838 -61277.5 M 109538 -48577.5 109538 -61277.5 M 96838 -48577.5 109538 -48577.5 M 96838 -118428 96838 -105728 M 109538 -118428 96838 -118428 M 109538 -105728 109538 -118428 M 96838 -105728 109538 -105728 M 96838 -99377.5 96838 -86677.5 M 109538 -99377.5 96838 -99377.5 M 109538 -86677.5 109538 -99377.5 M 96838 -86677.5 109538 -86677.5 M 77787.5 -103187.5 77787.5 -90487.5 M 90487.5 -103187.5 77787.5 -103187.5 M 90487.5 -90487.5 90487.5 -103187.5 M 77787.5 -90487.5 90487.5 -90487.5 M 166083.32 -122751.428 171450.572 -111241.32 M 177593.428 -128118.68 166083.32 -122751.428 M 182960.68 -116608.572 177593.428 -128118.68 M 171450.572 -111241.32 182960.68 -116608.572 M 174909.68 -133873.572 169542.428 -145383.68 M 163399.572 -128506.32 174909.68 -133873.572 M 158032.32 -140016.428 163399.572 -128506.32 M 169542.428 -145383.68 158032.32 -140016.428 M 154806.538 -137957.43 170920.691 -145471.583 M 167795.288 -110102.967 154806.538 -137957.43 M 183909.44 -117617.119 167795.288 -110102.967 M 181011.124 -123832.578 183909.44 -117617.119 M 167198.993 -117391.876 181011.124 -123832.578 M 160006.876 -132815.422 167198.993 -117391.876 M 173819.007 -139256.124 160006.876 -132815.422 M 170920.691 -145471.583 173819.007 -139256.124 M 167437.572 -119885.32 178947.68 -125252.572 M 162070.32 -131395.428 167437.572 -119885.32 M 173580.428 -136762.68 162070.32 -131395.428 M 178947.68 -125252.572 173580.428 -136762.68 M 70993 -49847.5 70993 -32067.5 M 40259 -49847.5 70993 -49847.5 M 40259 -32067.5 40259 -49847.5 M 47117 -32067.5 40259 -32067.5 M 47117 -47307.5 47117 -32067.5 M 64135 -47307.5 47117 -47307.5 M 64135 -32067.5 64135 -47307.5 M 70993 -32067.5 64135 -32067.5 M 49276 -46037.5 49276 -33337.5 M 61976 -46037.5 49276 -46037.5 M 61976 -33337.5 61976 -46037.5 M 49276 -33337.5 61976 -33337.5 M 39700.2 -46050.2 39700.2 -33350.2 M 52400.2 -46050.2 39700.2 -46050.2 M 52400.2 -33350.2 52400.2 -46050.2 M 39700.2 -33350.2 52400.2 -33350.2" fill="none" stroke-width="152.4"/></g></svg>