M48
; DRILL file {KiCad (5.1.5)-3} date 1/18/2020 12:56:59 PM
; FORMAT={-:-/ absolute / inch / decimal}
; #@! TF.CreationDate,2020-01-18T12:56:59+05:30
; #@! TF.GenerationSoftware,Kicad,Pcbnew,(5.1.5)-3
; #@! TF.FileFunction,Plated,1,2,PTH
FMAT,2
INCH
T1C0.0157
T2C0.0300
T3C0.0394
T4C0.0400
T5C0.0591
T6C0.0600
T7C0.1850
%
G90
G05
T1
X2.4711Y-1.6811
X2.679Y-3.6825
X2.77Y-1.88
X2.815Y-1.855
X2.83Y-2.0184
X2.835Y-2.24
X2.955Y-2.78
X3.055Y-2.525
X3.12Y-2.45
X3.205Y-2.37
X3.33Y-1.89
X3.425Y-1.845
X3.505Y-2.555
X3.5102Y-3.6392
X3.606Y-2.7572
X4.385Y-1.86
X6.13Y-3.92
X6.145Y-0.805
X6.145Y-0.9224
X6.155Y-1.125
X6.5579Y-4.9584
T2
X6.7771Y-5.2191
X6.8419Y-5.2217
X6.8821Y-4.994
X6.9258Y-5.0419
T3
X4.6277Y-3.8563
X4.9348Y-3.8563
X2.9375Y-4.3777
X2.9375Y-4.6848
X5.409Y-2.5063
X5.7161Y-2.5063
X3.0965Y-3.4063
X3.4035Y-3.4063
X1.5965Y-2.017
X1.9035Y-2.017
X3.6875Y-4.3777
X3.6875Y-4.6848
X7.2106Y-5.3318
X7.489Y-5.4615
X2.1965Y-1.95
X2.5035Y-1.95
X6.1277Y-4.1563
X6.4348Y-4.1563
X3.8777Y-4.0063
X4.1848Y-4.0063
X5.95Y-4.2565
X5.95Y-4.5635
X2.935Y-2.1065
X2.935Y-2.4135
X2.2215Y-2.6563
X2.5285Y-2.6563
X7.2599Y-5.2334
X7.5382Y-5.3632
X7.1728Y-5.011
X7.3026Y-4.7327
X4.6277Y-3.1063
X4.9348Y-3.1063
X3.0965Y-4.1563
X3.4035Y-4.1563
X6.1277Y-1.9063
X6.4348Y-1.9063
X4.659Y-1.6063
X4.9661Y-1.6063
X4.6415Y-2.355
X4.9485Y-2.355
X3.1277Y-2.6563
X3.4348Y-2.6563
X5.3777Y-3.2563
X5.6848Y-3.2563
X5.3777Y-4.0063
X5.6848Y-4.0063
X2.875Y-2.8777
X2.875Y-3.1848
X3.8777Y-2.5063
X4.1848Y-2.5063
X4.4375Y-4.259
X4.4375Y-4.5661
X6.1277Y-3.4063
X6.4348Y-3.4063
X5.3777Y-1.7563
X5.6848Y-1.7563
X6.0839Y-2.625
X6.391Y-2.625
X6.2541Y-4.9574
X6.3839Y-4.6791
X5.18Y-4.0865
X5.18Y-4.3935
X3.8777Y-1.7563
X4.1848Y-1.7563
X3.8777Y-3.2563
X4.1848Y-3.2563
X2.875Y-3.6277
X2.875Y-3.9348
T4
X3.02Y-0.83
X3.02Y-0.93
X3.02Y-1.03
X3.02Y-1.13
X3.02Y-1.23
X3.02Y-1.33
X3.02Y-1.43
X3.02Y-1.53
X3.02Y-1.63
X3.02Y-1.73
X3.02Y-1.83
X3.02Y-1.93
X3.62Y-0.83
X3.62Y-0.93
X3.62Y-1.03
X3.62Y-1.13
X3.62Y-1.23
X3.62Y-1.33
X3.62Y-1.43
X3.62Y-1.53
X3.62Y-1.63
X3.62Y-1.73
X3.62Y-1.83
X3.62Y-1.93
T5
X5.4125Y-1.3125
X5.4625Y-1.2125
X5.4641Y-1.2353
X5.4641Y-1.255
X5.6609Y-1.2353
X5.6609Y-1.255
X5.6625Y-1.2125
X5.7125Y-1.3125
X7.1405Y-5.555
X7.2116Y-5.5247
X7.2199Y-5.5068
X7.2281Y-5.4855
X7.39Y-5.6078
X7.3983Y-5.59
X7.4094Y-5.57
X7.4124Y-5.6817
X5.4125Y-2.0625
X5.4625Y-1.9625
X5.4641Y-1.9853
X5.4641Y-2.005
X5.6609Y-1.9853
X5.6609Y-2.005
X5.6625Y-1.9625
X5.7125Y-2.0625
X6.3758Y-5.4188
X6.3788Y-5.5305
X6.3899Y-5.5105
X6.3982Y-5.4927
X6.5601Y-5.6151
X6.5683Y-5.5937
X6.5766Y-5.5759
X6.6477Y-5.5456
X4.6625Y-1.9125
X4.7125Y-1.8125
X4.7141Y-1.8353
X4.7141Y-1.855
X4.9109Y-1.8353
X4.9109Y-1.855
X4.9125Y-1.8125
X4.9625Y-1.9125
X5.41Y-4.31
X5.46Y-4.21
X5.4616Y-4.2328
X5.4616Y-4.2525
X5.6584Y-4.2328
X5.6584Y-4.2525
X5.66Y-4.21
X5.71Y-4.31
X3.1625Y-2.9625
X3.2125Y-2.8625
X3.2141Y-2.8853
X3.2141Y-2.905
X3.4109Y-2.8853
X3.4109Y-2.905
X3.4125Y-2.8625
X3.4625Y-2.9625
X3.1625Y-3.7125
X3.2125Y-3.6125
X3.2141Y-3.6353
X3.2141Y-3.655
X3.4109Y-3.6353
X3.4109Y-3.655
X3.4125Y-3.6125
X3.4625Y-3.7125
X7.4575Y-4.8752
X7.5285Y-4.8449
X7.5368Y-4.8271
X7.545Y-4.8057
X7.7069Y-4.9281
X7.7152Y-4.9103
X7.7263Y-4.8903
X7.7293Y-5.002
X6.7773Y-4.5578
X6.8483Y-4.5275
X6.8566Y-4.5096
X6.8648Y-4.4883
X7.0267Y-4.6107
X7.035Y-4.5928
X7.0461Y-4.5728
X7.0492Y-4.6846
X2.4125Y-4.4625
X2.4625Y-4.3625
X2.4641Y-4.3854
X2.4641Y-4.405
X2.6609Y-4.3854
X2.6609Y-4.405
X2.6625Y-4.3625
X2.7125Y-4.4625
X3.9125Y-1.3125
X3.9625Y-1.2125
X3.9641Y-1.2353
X3.9641Y-1.255
X4.1609Y-1.2353
X4.1609Y-1.255
X4.1625Y-1.2125
X4.2125Y-1.3125
X3.1625Y-2.2125
X3.2125Y-2.1125
X3.2141Y-2.1353
X3.2141Y-2.155
X3.4109Y-2.1353
X3.4109Y-2.155
X3.4125Y-2.1125
X3.4625Y-2.2125
X3.9125Y-3.5625
X3.9625Y-3.4625
X3.9641Y-3.4853
X3.9641Y-3.505
X4.1609Y-3.4853
X4.1609Y-3.505
X4.1625Y-3.4625
X4.2125Y-3.5625
X3.1625Y-4.4625
X3.2125Y-4.3625
X3.2141Y-4.3854
X3.2141Y-4.405
X3.4109Y-4.3854
X3.4109Y-4.405
X3.4125Y-4.3625
X3.4625Y-4.4625
X4.66Y-4.16
X4.71Y-4.06
X4.7116Y-4.0828
X4.7116Y-4.1025
X4.9084Y-4.0828
X4.9084Y-4.1025
X4.91Y-4.06
X4.96Y-4.16
X3.1625Y-1.4625
X3.2125Y-1.3625
X3.2141Y-1.3853
X3.2141Y-1.405
X3.4109Y-1.3853
X3.4109Y-1.405
X3.4125Y-1.3625
X3.4625Y-1.4625
X2.225Y-2.2125
X2.275Y-2.1125
X2.2766Y-2.1353
X2.2766Y-2.155
X2.4734Y-2.1353
X2.4734Y-2.155
X2.475Y-2.1125
X2.525Y-2.2125
X3.9125Y-4.3125
X3.9625Y-4.2125
X3.9641Y-4.2354
X3.9641Y-4.255
X4.1609Y-4.2354
X4.1609Y-4.255
X4.1625Y-4.2125
X4.2125Y-4.3125
X6.1625Y-2.9625
X6.2125Y-2.8625
X6.2141Y-2.8853
X6.2141Y-2.905
X6.4109Y-2.8853
X6.4109Y-2.905
X6.4125Y-2.8625
X6.4625Y-2.9625
X4.6625Y-1.1625
X4.7125Y-1.0625
X4.7141Y-1.0853
X4.7141Y-1.105
X4.9109Y-1.0853
X4.9109Y-1.105
X4.9125Y-1.0625
X4.9625Y-1.1625
X4.6625Y-2.6625
X4.7125Y-2.5625
X4.7141Y-2.5853
X4.7141Y-2.605
X4.9109Y-2.5853
X4.9109Y-2.605
X4.9125Y-2.5625
X4.9625Y-2.6625
X2.4125Y-1.4625
X2.4625Y-1.3625
X2.4641Y-1.3853
X2.4641Y-1.405
X2.6609Y-1.3853
X2.6609Y-1.405
X2.6625Y-1.3625
X2.7125Y-1.4625
X4.6625Y-3.4125
X4.7125Y-3.3125
X4.7141Y-3.3353
X4.7141Y-3.355
X4.9109Y-3.3353
X4.9109Y-3.355
X4.9125Y-3.3125
X4.9625Y-3.4125
X1.663Y-1.463
X1.713Y-1.363
X1.7146Y-1.3858
X1.7146Y-1.4055
X1.9114Y-1.3858
X1.9114Y-1.4055
X1.913Y-1.363
X1.963Y-1.463
X3.9125Y-2.0625
X3.9625Y-1.9625
X3.9641Y-1.9853
X3.9641Y-2.005
X4.1609Y-1.9853
X4.1609Y-2.005
X4.1625Y-1.9625
X4.2125Y-2.0625
X3.9125Y-2.8125
X3.9625Y-2.7125
X3.9641Y-2.7353
X3.9641Y-2.755
X4.1609Y-2.7353
X4.1609Y-2.755
X4.1625Y-2.7125
X4.2125Y-2.8125
X6.1625Y-1.4625
X6.2125Y-1.3625
X6.2141Y-1.3853
X6.2141Y-1.405
X6.4109Y-1.3853
X6.4109Y-1.405
X6.4125Y-1.3625
X6.4625Y-1.4625
X6.1625Y-3.7125
X6.2125Y-3.6125
X6.2141Y-3.6353
X6.2141Y-3.655
X6.4109Y-3.6353
X6.4109Y-3.655
X6.4125Y-3.6125
X6.4625Y-3.7125
X6.1625Y-2.2125
X6.2125Y-2.1125
X6.2141Y-2.1353
X6.2141Y-2.155
X6.4109Y-2.1353
X6.4109Y-2.155
X6.4125Y-2.1125
X6.4625Y-2.2125
X5.4125Y-2.8125
X5.4625Y-2.7125
X5.4641Y-2.7353
X5.4641Y-2.755
X5.6609Y-2.7353
X5.6609Y-2.755
X5.6625Y-2.7125
X5.7125Y-2.8125
X5.4125Y-3.5625
X5.4625Y-3.4625
X5.4641Y-3.4853
X5.4641Y-3.505
X5.6609Y-3.4853
X5.6609Y-3.505
X5.6625Y-3.4625
X5.7125Y-3.5625
T6
X6.7402Y-5.2303
X6.8141Y-5.2079
X6.8319Y-5.2162
X6.852Y-5.2273
X6.867Y-4.9584
X6.8973Y-5.0295
X6.9151Y-5.0378
X6.9365Y-5.046
T7
X6.56Y-0.81
X1.58Y-0.81
X4.43Y-0.81
X7.065Y-5.225
X1.58Y-2.38
X6.59Y-4.245
X4.4575Y-2.3875
X1.61Y-4.52
X4.4325Y-4.86
T5
G00X1.9953Y-2.8853
M15
G01X1.9938Y-2.8625
M16
G05
G00X2.2438Y-2.9625
M15
G01X2.2118Y-2.905
M16
G05
G00X1.8078Y-3.6353
M15
G01X1.8063Y-3.6125
M16
G05
G00X2.0562Y-3.7125
M15
G01X2.0244Y-3.655
M16
G05
G00X2.0719Y-1.405
M15
G01X2.04Y-1.4625
M16
G05
G00X2.09Y-1.3625
M15
G01X2.0916Y-1.3853
M16
G05
G00X2.29Y-1.3625
M15
G01X2.2884Y-1.3853
M16
G05
G00X2.3081Y-1.405
M15
G01X2.34Y-1.4625
M16
G05
G00X1.9757Y-3.655
M15
G01X1.9437Y-3.7125
M16
G05
G00X2.1937Y-3.6125
M15
G01X2.1922Y-3.6353
M16
G05
G00X2.1632Y-2.905
M15
G01X2.1312Y-2.9625
M16
G05
G00X2.3812Y-2.8625
M15
G01X2.3797Y-2.8853
M16
G05
T0
M30
