G04 #@! TF.GenerationSoftware,KiCad,Pcbnew,(5.1.5)-3*
G04 #@! TF.CreationDate,2020-01-18T12:56:56+05:30*
G04 #@! TF.ProjectId,ergocape,6572676f-6361-4706-952e-6b696361645f,rev?*
G04 #@! TF.SameCoordinates,Original*
G04 #@! TF.FileFunction,Other,Comment*
%FSLAX46Y46*%
G04 Gerber Fmt 4.6, Leading zero omitted, Abs format (unit mm)*
G04 Created by KiCad (PCBNEW (5.1.5)-3) date 2020-01-18 12:56:56*
%MOMM*%
%LPD*%
G04 APERTURE LIST*
%ADD10C,0.152400*%
G04 APERTURE END LIST*
D10*
X33051800Y-106997500D02*
X33051800Y-89217500D01*
X63785800Y-106997500D02*
X33051800Y-106997500D01*
X63785800Y-89217500D02*
X63785800Y-106997500D01*
X56927800Y-89217500D02*
X63785800Y-89217500D01*
X56927800Y-104457500D02*
X56927800Y-89217500D01*
X39909800Y-104457500D02*
X56927800Y-104457500D01*
X39909800Y-89217500D02*
X39909800Y-104457500D01*
X33051800Y-89217500D02*
X39909800Y-89217500D01*
X54768800Y-103187500D02*
X54768800Y-90487500D01*
X42068800Y-103187500D02*
X54768800Y-103187500D01*
X42068800Y-90487500D02*
X42068800Y-103187500D01*
X54768800Y-90487500D02*
X42068800Y-90487500D01*
X77787500Y-46037500D02*
X77787500Y-33337500D01*
X90487500Y-46037500D02*
X77787500Y-46037500D01*
X90487500Y-33337500D02*
X90487500Y-46037500D01*
X77787500Y-33337500D02*
X90487500Y-33337500D01*
X66675000Y-65087500D02*
X66675000Y-52387500D01*
X53975000Y-65087500D02*
X66675000Y-65087500D01*
X53975000Y-52387500D02*
X53975000Y-65087500D01*
X66675000Y-52387500D02*
X53975000Y-52387500D01*
X175310320Y-148079428D02*
X180677572Y-136569320D01*
X186820428Y-153446680D02*
X175310320Y-148079428D01*
X192187680Y-141936572D02*
X186820428Y-153446680D01*
X180677572Y-136569320D02*
X192187680Y-141936572D01*
X96838000Y-42227500D02*
X96838000Y-29527500D01*
X109538000Y-42227500D02*
X96838000Y-42227500D01*
X109538000Y-29527500D02*
X109538000Y-42227500D01*
X96838000Y-29527500D02*
X109538000Y-29527500D01*
X115888000Y-38417500D02*
X115888000Y-25717500D01*
X128588000Y-38417500D02*
X115888000Y-38417500D01*
X128588000Y-25717500D02*
X128588000Y-38417500D01*
X115888000Y-25717500D02*
X128588000Y-25717500D01*
X134938000Y-42227500D02*
X134938000Y-29527500D01*
X147638000Y-42227500D02*
X134938000Y-42227500D01*
X147638000Y-29527500D02*
X147638000Y-42227500D01*
X134938000Y-29527500D02*
X147638000Y-29527500D01*
X153988000Y-46037500D02*
X153988000Y-33337500D01*
X166688000Y-46037500D02*
X153988000Y-46037500D01*
X166688000Y-33337500D02*
X166688000Y-46037500D01*
X153988000Y-33337500D02*
X166688000Y-33337500D01*
X77787500Y-84137500D02*
X77787500Y-71437500D01*
X90487500Y-84137500D02*
X77787500Y-84137500D01*
X90487500Y-71437500D02*
X90487500Y-84137500D01*
X77787500Y-71437500D02*
X90487500Y-71437500D01*
X77787500Y-122238000D02*
X77787500Y-109538000D01*
X90487500Y-122238000D02*
X77787500Y-122238000D01*
X90487500Y-109538000D02*
X90487500Y-122238000D01*
X77787500Y-109538000D02*
X90487500Y-109538000D01*
X153988000Y-103187500D02*
X153988000Y-90487500D01*
X166688000Y-103187500D02*
X153988000Y-103187500D01*
X166688000Y-90487500D02*
X166688000Y-103187500D01*
X153988000Y-90487500D02*
X166688000Y-90487500D01*
X115824000Y-114554000D02*
X115824000Y-101854000D01*
X128524000Y-114554000D02*
X115824000Y-114554000D01*
X128524000Y-101854000D02*
X128524000Y-114554000D01*
X115824000Y-101854000D02*
X128524000Y-101854000D01*
X134874000Y-118364000D02*
X134874000Y-105664000D01*
X147574000Y-118364000D02*
X134874000Y-118364000D01*
X147574000Y-105664000D02*
X147574000Y-118364000D01*
X134874000Y-105664000D02*
X147574000Y-105664000D01*
X115888000Y-95567500D02*
X115888000Y-82867500D01*
X128588000Y-95567500D02*
X115888000Y-95567500D01*
X128588000Y-82867500D02*
X128588000Y-95567500D01*
X115888000Y-82867500D02*
X128588000Y-82867500D01*
X51593800Y-84137500D02*
X51593800Y-71437500D01*
X64293800Y-84137500D02*
X51593800Y-84137500D01*
X64293800Y-71437500D02*
X64293800Y-84137500D01*
X51593800Y-71437500D02*
X64293800Y-71437500D01*
X58737500Y-122238000D02*
X58737500Y-109538000D01*
X71437500Y-122238000D02*
X58737500Y-122238000D01*
X71437500Y-109538000D02*
X71437500Y-122238000D01*
X58737500Y-109538000D02*
X71437500Y-109538000D01*
X115888000Y-76517500D02*
X115888000Y-63817500D01*
X128588000Y-76517500D02*
X115888000Y-76517500D01*
X128588000Y-63817500D02*
X128588000Y-76517500D01*
X115888000Y-63817500D02*
X128588000Y-63817500D01*
X115888000Y-57467500D02*
X115888000Y-44767500D01*
X128588000Y-57467500D02*
X115888000Y-57467500D01*
X128588000Y-44767500D02*
X128588000Y-57467500D01*
X115888000Y-44767500D02*
X128588000Y-44767500D01*
X37814200Y-87947500D02*
X37814200Y-70167500D01*
X68548200Y-87947500D02*
X37814200Y-87947500D01*
X68548200Y-70167500D02*
X68548200Y-87947500D01*
X61690200Y-70167500D02*
X68548200Y-70167500D01*
X61690200Y-85407500D02*
X61690200Y-70167500D01*
X44672200Y-85407500D02*
X61690200Y-85407500D01*
X44672200Y-70167500D02*
X44672200Y-85407500D01*
X37814200Y-70167500D02*
X44672200Y-70167500D01*
X59531200Y-84137500D02*
X59531200Y-71437500D01*
X46831200Y-84137500D02*
X59531200Y-84137500D01*
X46831200Y-71437500D02*
X46831200Y-84137500D01*
X59531200Y-71437500D02*
X46831200Y-71437500D01*
X58737500Y-46037500D02*
X58737500Y-33337500D01*
X71437500Y-46037500D02*
X58737500Y-46037500D01*
X71437500Y-33337500D02*
X71437500Y-46037500D01*
X58737500Y-33337500D02*
X71437500Y-33337500D01*
X134938000Y-80327500D02*
X134938000Y-67627500D01*
X147638000Y-80327500D02*
X134938000Y-80327500D01*
X147638000Y-67627500D02*
X147638000Y-80327500D01*
X134938000Y-67627500D02*
X147638000Y-67627500D01*
X153988000Y-84137500D02*
X153988000Y-71437500D01*
X166688000Y-84137500D02*
X153988000Y-84137500D01*
X166688000Y-71437500D02*
X166688000Y-84137500D01*
X153988000Y-71437500D02*
X166688000Y-71437500D01*
X77787500Y-65087500D02*
X77787500Y-52387500D01*
X90487500Y-65087500D02*
X77787500Y-65087500D01*
X90487500Y-52387500D02*
X90487500Y-65087500D01*
X77787500Y-52387500D02*
X90487500Y-52387500D01*
X134938000Y-61277500D02*
X134938000Y-48577500D01*
X147638000Y-61277500D02*
X134938000Y-61277500D01*
X147638000Y-48577500D02*
X147638000Y-61277500D01*
X134938000Y-48577500D02*
X147638000Y-48577500D01*
X96838000Y-80327500D02*
X96838000Y-67627500D01*
X109538000Y-80327500D02*
X96838000Y-80327500D01*
X109538000Y-67627500D02*
X109538000Y-80327500D01*
X96838000Y-67627500D02*
X109538000Y-67627500D01*
X68548200Y-106997500D02*
X68548200Y-89217500D01*
X37814200Y-106997500D02*
X68548200Y-106997500D01*
X37814200Y-89217500D02*
X37814200Y-106997500D01*
X44672200Y-89217500D02*
X37814200Y-89217500D01*
X44672200Y-104457500D02*
X44672200Y-89217500D01*
X61690200Y-104457500D02*
X44672200Y-104457500D01*
X61690200Y-89217500D02*
X61690200Y-104457500D01*
X68548200Y-89217500D02*
X61690200Y-89217500D01*
X46831200Y-103187500D02*
X46831200Y-90487500D01*
X59531200Y-103187500D02*
X46831200Y-103187500D01*
X59531200Y-90487500D02*
X59531200Y-103187500D01*
X46831200Y-90487500D02*
X59531200Y-90487500D01*
X153988000Y-65087500D02*
X153988000Y-52387500D01*
X166688000Y-65087500D02*
X153988000Y-65087500D01*
X166688000Y-52387500D02*
X166688000Y-65087500D01*
X153988000Y-52387500D02*
X166688000Y-52387500D01*
X183360320Y-130814428D02*
X188727572Y-119304320D01*
X194870428Y-136181680D02*
X183360320Y-130814428D01*
X200237680Y-124671572D02*
X194870428Y-136181680D01*
X188727572Y-119304320D02*
X200237680Y-124671572D01*
X134938000Y-99377500D02*
X134938000Y-86677500D01*
X147638000Y-99377500D02*
X134938000Y-99377500D01*
X147638000Y-86677500D02*
X147638000Y-99377500D01*
X134938000Y-86677500D02*
X147638000Y-86677500D01*
X96838000Y-61277500D02*
X96838000Y-48577500D01*
X109538000Y-61277500D02*
X96838000Y-61277500D01*
X109538000Y-48577500D02*
X109538000Y-61277500D01*
X96838000Y-48577500D02*
X109538000Y-48577500D01*
X96838000Y-118428000D02*
X96838000Y-105728000D01*
X109538000Y-118428000D02*
X96838000Y-118428000D01*
X109538000Y-105728000D02*
X109538000Y-118428000D01*
X96838000Y-105728000D02*
X109538000Y-105728000D01*
X96838000Y-99377500D02*
X96838000Y-86677500D01*
X109538000Y-99377500D02*
X96838000Y-99377500D01*
X109538000Y-86677500D02*
X109538000Y-99377500D01*
X96838000Y-86677500D02*
X109538000Y-86677500D01*
X77787500Y-103187500D02*
X77787500Y-90487500D01*
X90487500Y-103187500D02*
X77787500Y-103187500D01*
X90487500Y-90487500D02*
X90487500Y-103187500D01*
X77787500Y-90487500D02*
X90487500Y-90487500D01*
X166083320Y-122751428D02*
X171450572Y-111241320D01*
X177593428Y-128118680D02*
X166083320Y-122751428D01*
X182960680Y-116608572D02*
X177593428Y-128118680D01*
X171450572Y-111241320D02*
X182960680Y-116608572D01*
X174909680Y-133873572D02*
X169542428Y-145383680D01*
X163399572Y-128506320D02*
X174909680Y-133873572D01*
X158032320Y-140016428D02*
X163399572Y-128506320D01*
X169542428Y-145383680D02*
X158032320Y-140016428D01*
X154806538Y-137957430D02*
X170920691Y-145471583D01*
X167795288Y-110102967D02*
X154806538Y-137957430D01*
X183909440Y-117617119D02*
X167795288Y-110102967D01*
X181011124Y-123832578D02*
X183909440Y-117617119D01*
X167198993Y-117391876D02*
X181011124Y-123832578D01*
X160006876Y-132815422D02*
X167198993Y-117391876D01*
X173819007Y-139256124D02*
X160006876Y-132815422D01*
X170920691Y-145471583D02*
X173819007Y-139256124D01*
X167437572Y-119885320D02*
X178947680Y-125252572D01*
X162070320Y-131395428D02*
X167437572Y-119885320D01*
X173580428Y-136762680D02*
X162070320Y-131395428D01*
X178947680Y-125252572D02*
X173580428Y-136762680D01*
X70993000Y-49847500D02*
X70993000Y-32067500D01*
X40259000Y-49847500D02*
X70993000Y-49847500D01*
X40259000Y-32067500D02*
X40259000Y-49847500D01*
X47117000Y-32067500D02*
X40259000Y-32067500D01*
X47117000Y-47307500D02*
X47117000Y-32067500D01*
X64135000Y-47307500D02*
X47117000Y-47307500D01*
X64135000Y-32067500D02*
X64135000Y-47307500D01*
X70993000Y-32067500D02*
X64135000Y-32067500D01*
X49276000Y-46037500D02*
X49276000Y-33337500D01*
X61976000Y-46037500D02*
X49276000Y-46037500D01*
X61976000Y-33337500D02*
X61976000Y-46037500D01*
X49276000Y-33337500D02*
X61976000Y-33337500D01*
X39700200Y-46050200D02*
X39700200Y-33350200D01*
X52400200Y-46050200D02*
X39700200Y-46050200D01*
X52400200Y-33350200D02*
X52400200Y-46050200D01*
X39700200Y-33350200D02*
X52400200Y-33350200D01*
M02*
