G04 #@! TF.GenerationSoftware,KiCad,Pcbnew,(5.1.5)-3*
G04 #@! TF.CreationDate,2020-03-17T18:41:25+05:30*
G04 #@! TF.ProjectId,ergocape,6572676f-6361-4706-952e-6b696361645f,rev?*
G04 #@! TF.SameCoordinates,Original*
G04 #@! TF.FileFunction,Legend,Bot*
G04 #@! TF.FilePolarity,Positive*
%FSLAX46Y46*%
G04 Gerber Fmt 4.6, Leading zero omitted, Abs format (unit mm)*
G04 Created by KiCad (PCBNEW (5.1.5)-3) date 2020-03-17 18:41:25*
%MOMM*%
%LPD*%
G04 APERTURE LIST*
%ADD10C,0.150000*%
%ADD11C,0.010000*%
G04 APERTURE END LIST*
D10*
X64895761Y-26439761D02*
X64991000Y-26487380D01*
X65181476Y-26487380D01*
X65276714Y-26439761D01*
X65324333Y-26392142D01*
X65371952Y-26296904D01*
X65371952Y-26011190D01*
X65324333Y-25915952D01*
X65276714Y-25868333D01*
X65181476Y-25820714D01*
X64991000Y-25820714D01*
X64895761Y-25868333D01*
X64467190Y-26487380D02*
X64467190Y-25820714D01*
X64467190Y-26011190D02*
X64419571Y-25915952D01*
X64371952Y-25868333D01*
X64276714Y-25820714D01*
X64181476Y-25820714D01*
X63467190Y-26439761D02*
X63562428Y-26487380D01*
X63752904Y-26487380D01*
X63848142Y-26439761D01*
X63895761Y-26344523D01*
X63895761Y-25963571D01*
X63848142Y-25868333D01*
X63752904Y-25820714D01*
X63562428Y-25820714D01*
X63467190Y-25868333D01*
X63419571Y-25963571D01*
X63419571Y-26058809D01*
X63895761Y-26154047D01*
X62562428Y-26487380D02*
X62562428Y-25963571D01*
X62610047Y-25868333D01*
X62705285Y-25820714D01*
X62895761Y-25820714D01*
X62991000Y-25868333D01*
X62562428Y-26439761D02*
X62657666Y-26487380D01*
X62895761Y-26487380D01*
X62991000Y-26439761D01*
X63038619Y-26344523D01*
X63038619Y-26249285D01*
X62991000Y-26154047D01*
X62895761Y-26106428D01*
X62657666Y-26106428D01*
X62562428Y-26058809D01*
X62229095Y-25820714D02*
X61848142Y-25820714D01*
X62086238Y-25487380D02*
X62086238Y-26344523D01*
X62038619Y-26439761D01*
X61943380Y-26487380D01*
X61848142Y-26487380D01*
X61133857Y-26439761D02*
X61229095Y-26487380D01*
X61419571Y-26487380D01*
X61514809Y-26439761D01*
X61562428Y-26344523D01*
X61562428Y-25963571D01*
X61514809Y-25868333D01*
X61419571Y-25820714D01*
X61229095Y-25820714D01*
X61133857Y-25868333D01*
X61086238Y-25963571D01*
X61086238Y-26058809D01*
X61562428Y-26154047D01*
X60229095Y-26487380D02*
X60229095Y-25487380D01*
X60229095Y-26439761D02*
X60324333Y-26487380D01*
X60514809Y-26487380D01*
X60610047Y-26439761D01*
X60657666Y-26392142D01*
X60705285Y-26296904D01*
X60705285Y-26011190D01*
X60657666Y-25915952D01*
X60610047Y-25868333D01*
X60514809Y-25820714D01*
X60324333Y-25820714D01*
X60229095Y-25868333D01*
X58991000Y-26487380D02*
X58991000Y-25487380D01*
X58991000Y-25868333D02*
X58895761Y-25820714D01*
X58705285Y-25820714D01*
X58610047Y-25868333D01*
X58562428Y-25915952D01*
X58514809Y-26011190D01*
X58514809Y-26296904D01*
X58562428Y-26392142D01*
X58610047Y-26439761D01*
X58705285Y-26487380D01*
X58895761Y-26487380D01*
X58991000Y-26439761D01*
X58181476Y-25820714D02*
X57943380Y-26487380D01*
X57705285Y-25820714D02*
X57943380Y-26487380D01*
X58038619Y-26725476D01*
X58086238Y-26773095D01*
X58181476Y-26820714D01*
X56133857Y-25820714D02*
X56133857Y-26487380D01*
X56562428Y-25820714D02*
X56562428Y-26344523D01*
X56514809Y-26439761D01*
X56419571Y-26487380D01*
X56276714Y-26487380D01*
X56181476Y-26439761D01*
X56133857Y-26392142D01*
X54943380Y-25439761D02*
X55800523Y-26725476D01*
X54610047Y-26487380D02*
X54610047Y-25487380D01*
X54610047Y-25963571D02*
X54038619Y-25963571D01*
X54038619Y-26487380D02*
X54038619Y-25487380D01*
X53133857Y-26487380D02*
X53133857Y-25963571D01*
X53181476Y-25868333D01*
X53276714Y-25820714D01*
X53467190Y-25820714D01*
X53562428Y-25868333D01*
X53133857Y-26439761D02*
X53229095Y-26487380D01*
X53467190Y-26487380D01*
X53562428Y-26439761D01*
X53610047Y-26344523D01*
X53610047Y-26249285D01*
X53562428Y-26154047D01*
X53467190Y-26106428D01*
X53229095Y-26106428D01*
X53133857Y-26058809D01*
X52657666Y-26487380D02*
X52657666Y-25820714D01*
X52657666Y-26011190D02*
X52610047Y-25915952D01*
X52562428Y-25868333D01*
X52467190Y-25820714D01*
X52371952Y-25820714D01*
X52086238Y-26439761D02*
X51991000Y-26487380D01*
X51800523Y-26487380D01*
X51705285Y-26439761D01*
X51657666Y-26344523D01*
X51657666Y-26296904D01*
X51705285Y-26201666D01*
X51800523Y-26154047D01*
X51943380Y-26154047D01*
X52038619Y-26106428D01*
X52086238Y-26011190D01*
X52086238Y-25963571D01*
X52038619Y-25868333D01*
X51943380Y-25820714D01*
X51800523Y-25820714D01*
X51705285Y-25868333D01*
X51229095Y-26487380D02*
X51229095Y-25487380D01*
X50800523Y-26487380D02*
X50800523Y-25963571D01*
X50848142Y-25868333D01*
X50943380Y-25820714D01*
X51086238Y-25820714D01*
X51181476Y-25868333D01*
X51229095Y-25915952D01*
X50324333Y-26487380D02*
X50324333Y-25820714D01*
X50324333Y-25487380D02*
X50371952Y-25535000D01*
X50324333Y-25582619D01*
X50276714Y-25535000D01*
X50324333Y-25487380D01*
X50324333Y-25582619D01*
X49991000Y-25820714D02*
X49610047Y-25820714D01*
X49848142Y-25487380D02*
X49848142Y-26344523D01*
X49800523Y-26439761D01*
X49705285Y-26487380D01*
X49610047Y-26487380D01*
X48848142Y-25820714D02*
X48848142Y-26630238D01*
X48895761Y-26725476D01*
X48943380Y-26773095D01*
X49038619Y-26820714D01*
X49181476Y-26820714D01*
X49276714Y-26773095D01*
X48848142Y-26439761D02*
X48943380Y-26487380D01*
X49133857Y-26487380D01*
X49229095Y-26439761D01*
X49276714Y-26392142D01*
X49324333Y-26296904D01*
X49324333Y-26011190D01*
X49276714Y-25915952D01*
X49229095Y-25868333D01*
X49133857Y-25820714D01*
X48943380Y-25820714D01*
X48848142Y-25868333D01*
X48229095Y-26487380D02*
X48324333Y-26439761D01*
X48371952Y-26392142D01*
X48419571Y-26296904D01*
X48419571Y-26011190D01*
X48371952Y-25915952D01*
X48324333Y-25868333D01*
X48229095Y-25820714D01*
X48086238Y-25820714D01*
X47991000Y-25868333D01*
X47943380Y-25915952D01*
X47895761Y-26011190D01*
X47895761Y-26296904D01*
X47943380Y-26392142D01*
X47991000Y-26439761D01*
X48086238Y-26487380D01*
X48229095Y-26487380D01*
X47086238Y-26439761D02*
X47181476Y-26487380D01*
X47371952Y-26487380D01*
X47467190Y-26439761D01*
X47514809Y-26344523D01*
X47514809Y-25963571D01*
X47467190Y-25868333D01*
X47371952Y-25820714D01*
X47181476Y-25820714D01*
X47086238Y-25868333D01*
X47038619Y-25963571D01*
X47038619Y-26058809D01*
X47514809Y-26154047D01*
X46467190Y-26487380D02*
X46562428Y-26439761D01*
X46610047Y-26344523D01*
X46610047Y-25487380D01*
X46038619Y-26487380D02*
X45848142Y-26487380D01*
X45752904Y-26439761D01*
X45705285Y-26392142D01*
X45610047Y-26249285D01*
X45562428Y-26058809D01*
X45562428Y-25677857D01*
X45610047Y-25582619D01*
X45657666Y-25535000D01*
X45752904Y-25487380D01*
X45943380Y-25487380D01*
X46038619Y-25535000D01*
X46086238Y-25582619D01*
X46133857Y-25677857D01*
X46133857Y-25915952D01*
X46086238Y-26011190D01*
X46038619Y-26058809D01*
X45943380Y-26106428D01*
X45752904Y-26106428D01*
X45657666Y-26058809D01*
X45610047Y-26011190D01*
X45562428Y-25915952D01*
X44705285Y-25487380D02*
X44895761Y-25487380D01*
X44991000Y-25535000D01*
X45038619Y-25582619D01*
X45133857Y-25725476D01*
X45181476Y-25915952D01*
X45181476Y-26296904D01*
X45133857Y-26392142D01*
X45086238Y-26439761D01*
X44991000Y-26487380D01*
X44800523Y-26487380D01*
X44705285Y-26439761D01*
X44657666Y-26392142D01*
X44610047Y-26296904D01*
X44610047Y-26058809D01*
X44657666Y-25963571D01*
X44705285Y-25915952D01*
X44800523Y-25868333D01*
X44991000Y-25868333D01*
X45086238Y-25915952D01*
X45133857Y-25963571D01*
X45181476Y-26058809D01*
X105131761Y-19327761D02*
X105227000Y-19375380D01*
X105417476Y-19375380D01*
X105512714Y-19327761D01*
X105560333Y-19280142D01*
X105607952Y-19184904D01*
X105607952Y-18899190D01*
X105560333Y-18803952D01*
X105512714Y-18756333D01*
X105417476Y-18708714D01*
X105227000Y-18708714D01*
X105131761Y-18756333D01*
X104274619Y-19375380D02*
X104274619Y-18851571D01*
X104322238Y-18756333D01*
X104417476Y-18708714D01*
X104607952Y-18708714D01*
X104703190Y-18756333D01*
X104274619Y-19327761D02*
X104369857Y-19375380D01*
X104607952Y-19375380D01*
X104703190Y-19327761D01*
X104750809Y-19232523D01*
X104750809Y-19137285D01*
X104703190Y-19042047D01*
X104607952Y-18994428D01*
X104369857Y-18994428D01*
X104274619Y-18946809D01*
X103798428Y-18708714D02*
X103798428Y-19708714D01*
X103798428Y-18756333D02*
X103703190Y-18708714D01*
X103512714Y-18708714D01*
X103417476Y-18756333D01*
X103369857Y-18803952D01*
X103322238Y-18899190D01*
X103322238Y-19184904D01*
X103369857Y-19280142D01*
X103417476Y-19327761D01*
X103512714Y-19375380D01*
X103703190Y-19375380D01*
X103798428Y-19327761D01*
X103036523Y-18708714D02*
X102655571Y-18708714D01*
X102893666Y-18375380D02*
X102893666Y-19232523D01*
X102846047Y-19327761D01*
X102750809Y-19375380D01*
X102655571Y-19375380D01*
X102322238Y-18708714D02*
X102322238Y-19375380D01*
X102322238Y-18803952D02*
X102274619Y-18756333D01*
X102179380Y-18708714D01*
X102036523Y-18708714D01*
X101941285Y-18756333D01*
X101893666Y-18851571D01*
X101893666Y-19375380D01*
X101512714Y-18375380D02*
X100893666Y-18375380D01*
X101227000Y-18756333D01*
X101084142Y-18756333D01*
X100988904Y-18803952D01*
X100941285Y-18851571D01*
X100893666Y-18946809D01*
X100893666Y-19184904D01*
X100941285Y-19280142D01*
X100988904Y-19327761D01*
X101084142Y-19375380D01*
X101369857Y-19375380D01*
X101465095Y-19327761D01*
X101512714Y-19280142D01*
X100465095Y-19375380D02*
X100465095Y-18708714D01*
X100465095Y-18803952D02*
X100417476Y-18756333D01*
X100322238Y-18708714D01*
X100179380Y-18708714D01*
X100084142Y-18756333D01*
X100036523Y-18851571D01*
X100036523Y-19375380D01*
X100036523Y-18851571D02*
X99988904Y-18756333D01*
X99893666Y-18708714D01*
X99750809Y-18708714D01*
X99655571Y-18756333D01*
X99607952Y-18851571D01*
X99607952Y-19375380D01*
X98941285Y-18375380D02*
X98846047Y-18375380D01*
X98750809Y-18423000D01*
X98703190Y-18470619D01*
X98655571Y-18565857D01*
X98607952Y-18756333D01*
X98607952Y-18994428D01*
X98655571Y-19184904D01*
X98703190Y-19280142D01*
X98750809Y-19327761D01*
X98846047Y-19375380D01*
X98941285Y-19375380D01*
X99036523Y-19327761D01*
X99084142Y-19280142D01*
X99131761Y-19184904D01*
X99179380Y-18994428D01*
X99179380Y-18756333D01*
X99131761Y-18565857D01*
X99084142Y-18470619D01*
X99036523Y-18423000D01*
X98941285Y-18375380D01*
X153074190Y-18835714D02*
X153074190Y-19502380D01*
X153502761Y-18835714D02*
X153502761Y-19359523D01*
X153455142Y-19454761D01*
X153359904Y-19502380D01*
X153217047Y-19502380D01*
X153121809Y-19454761D01*
X153074190Y-19407142D01*
X151883714Y-18454761D02*
X152740857Y-19740476D01*
X151550380Y-19502380D02*
X151550380Y-18502380D01*
X151312285Y-18502380D01*
X151169428Y-18550000D01*
X151074190Y-18645238D01*
X151026571Y-18740476D01*
X150978952Y-18930952D01*
X150978952Y-19073809D01*
X151026571Y-19264285D01*
X151074190Y-19359523D01*
X151169428Y-19454761D01*
X151312285Y-19502380D01*
X151550380Y-19502380D01*
X150169428Y-19454761D02*
X150264666Y-19502380D01*
X150455142Y-19502380D01*
X150550380Y-19454761D01*
X150598000Y-19359523D01*
X150598000Y-18978571D01*
X150550380Y-18883333D01*
X150455142Y-18835714D01*
X150264666Y-18835714D01*
X150169428Y-18883333D01*
X150121809Y-18978571D01*
X150121809Y-19073809D01*
X150598000Y-19169047D01*
X149550380Y-19502380D02*
X149645619Y-19454761D01*
X149693238Y-19359523D01*
X149693238Y-18502380D01*
X149312285Y-18835714D02*
X148931333Y-18835714D01*
X149169428Y-18502380D02*
X149169428Y-19359523D01*
X149121809Y-19454761D01*
X149026571Y-19502380D01*
X148931333Y-19502380D01*
X148169428Y-19502380D02*
X148169428Y-18978571D01*
X148217047Y-18883333D01*
X148312285Y-18835714D01*
X148502761Y-18835714D01*
X148598000Y-18883333D01*
X148169428Y-19454761D02*
X148264666Y-19502380D01*
X148502761Y-19502380D01*
X148598000Y-19454761D01*
X148645619Y-19359523D01*
X148645619Y-19264285D01*
X148598000Y-19169047D01*
X148502761Y-19121428D01*
X148264666Y-19121428D01*
X148169428Y-19073809D01*
X147931333Y-19597619D02*
X147169428Y-19597619D01*
X147074190Y-18502380D02*
X146502761Y-18502380D01*
X146788476Y-19502380D02*
X146788476Y-18502380D01*
X146264666Y-18835714D02*
X146074190Y-19502380D01*
X145883714Y-19026190D01*
X145693238Y-19502380D01*
X145502761Y-18835714D01*
X144978952Y-19502380D02*
X145074190Y-19454761D01*
X145121809Y-19407142D01*
X145169428Y-19311904D01*
X145169428Y-19026190D01*
X145121809Y-18930952D01*
X145074190Y-18883333D01*
X144978952Y-18835714D01*
X144836095Y-18835714D01*
X144740857Y-18883333D01*
X144693238Y-18930952D01*
X144645619Y-19026190D01*
X144645619Y-19311904D01*
X144693238Y-19407142D01*
X144740857Y-19454761D01*
X144836095Y-19502380D01*
X144978952Y-19502380D01*
X138866285Y-18502380D02*
X138866285Y-18692857D01*
X138485333Y-18502380D02*
X138485333Y-18692857D01*
X138199619Y-18502380D02*
X137628190Y-18502380D01*
X137913904Y-19502380D02*
X137913904Y-18502380D01*
X136866285Y-19502380D02*
X136866285Y-18978571D01*
X136913904Y-18883333D01*
X137009142Y-18835714D01*
X137199619Y-18835714D01*
X137294857Y-18883333D01*
X136866285Y-19454761D02*
X136961523Y-19502380D01*
X137199619Y-19502380D01*
X137294857Y-19454761D01*
X137342476Y-19359523D01*
X137342476Y-19264285D01*
X137294857Y-19169047D01*
X137199619Y-19121428D01*
X136961523Y-19121428D01*
X136866285Y-19073809D01*
X136485333Y-18835714D02*
X135961523Y-18835714D01*
X136485333Y-19502380D01*
X135961523Y-19502380D01*
X135675809Y-18835714D02*
X135152000Y-18835714D01*
X135675809Y-19502380D01*
X135152000Y-19502380D01*
X134818666Y-18502380D02*
X134818666Y-18692857D01*
X134437714Y-18502380D02*
X134437714Y-18692857D01*
X127650238Y-18835714D02*
X127650238Y-19502380D01*
X128078809Y-18835714D02*
X128078809Y-19359523D01*
X128031190Y-19454761D01*
X127935952Y-19502380D01*
X127793095Y-19502380D01*
X127697857Y-19454761D01*
X127650238Y-19407142D01*
X126459761Y-18454761D02*
X127316904Y-19740476D01*
X126174047Y-19454761D02*
X126031190Y-19502380D01*
X125793095Y-19502380D01*
X125697857Y-19454761D01*
X125650238Y-19407142D01*
X125602619Y-19311904D01*
X125602619Y-19216666D01*
X125650238Y-19121428D01*
X125697857Y-19073809D01*
X125793095Y-19026190D01*
X125983571Y-18978571D01*
X126078809Y-18930952D01*
X126126428Y-18883333D01*
X126174047Y-18788095D01*
X126174047Y-18692857D01*
X126126428Y-18597619D01*
X126078809Y-18550000D01*
X125983571Y-18502380D01*
X125745476Y-18502380D01*
X125602619Y-18550000D01*
X124793095Y-19454761D02*
X124888333Y-19502380D01*
X125078809Y-19502380D01*
X125174047Y-19454761D01*
X125221666Y-19359523D01*
X125221666Y-18978571D01*
X125174047Y-18883333D01*
X125078809Y-18835714D01*
X124888333Y-18835714D01*
X124793095Y-18883333D01*
X124745476Y-18978571D01*
X124745476Y-19073809D01*
X125221666Y-19169047D01*
X124316904Y-18835714D02*
X124316904Y-19502380D01*
X124316904Y-18930952D02*
X124269285Y-18883333D01*
X124174047Y-18835714D01*
X124031190Y-18835714D01*
X123935952Y-18883333D01*
X123888333Y-18978571D01*
X123888333Y-19502380D01*
X123269285Y-19502380D02*
X123364523Y-19454761D01*
X123412142Y-19407142D01*
X123459761Y-19311904D01*
X123459761Y-19026190D01*
X123412142Y-18930952D01*
X123364523Y-18883333D01*
X123269285Y-18835714D01*
X123126428Y-18835714D01*
X123031190Y-18883333D01*
X122983571Y-18930952D01*
X122935952Y-19026190D01*
X122935952Y-19311904D01*
X122983571Y-19407142D01*
X123031190Y-19454761D01*
X123126428Y-19502380D01*
X123269285Y-19502380D01*
X122507380Y-19502380D02*
X122507380Y-18835714D01*
X122507380Y-19026190D02*
X122459761Y-18930952D01*
X122412142Y-18883333D01*
X122316904Y-18835714D01*
X122221666Y-18835714D01*
X122126428Y-19597619D02*
X121364523Y-19597619D01*
X120602619Y-18550000D02*
X120697857Y-18502380D01*
X120840714Y-18502380D01*
X120983571Y-18550000D01*
X121078809Y-18645238D01*
X121126428Y-18740476D01*
X121174047Y-18930952D01*
X121174047Y-19073809D01*
X121126428Y-19264285D01*
X121078809Y-19359523D01*
X120983571Y-19454761D01*
X120840714Y-19502380D01*
X120745476Y-19502380D01*
X120602619Y-19454761D01*
X120555000Y-19407142D01*
X120555000Y-19073809D01*
X120745476Y-19073809D01*
X119983571Y-19502380D02*
X120078809Y-19454761D01*
X120126428Y-19407142D01*
X120174047Y-19311904D01*
X120174047Y-19026190D01*
X120126428Y-18930952D01*
X120078809Y-18883333D01*
X119983571Y-18835714D01*
X119840714Y-18835714D01*
X119745476Y-18883333D01*
X119697857Y-18930952D01*
X119650238Y-19026190D01*
X119650238Y-19311904D01*
X119697857Y-19407142D01*
X119745476Y-19454761D01*
X119840714Y-19502380D01*
X119983571Y-19502380D01*
X119078809Y-19502380D02*
X119174047Y-19454761D01*
X119221666Y-19407142D01*
X119269285Y-19311904D01*
X119269285Y-19026190D01*
X119221666Y-18930952D01*
X119174047Y-18883333D01*
X119078809Y-18835714D01*
X118935952Y-18835714D01*
X118840714Y-18883333D01*
X118793095Y-18930952D01*
X118745476Y-19026190D01*
X118745476Y-19311904D01*
X118793095Y-19407142D01*
X118840714Y-19454761D01*
X118935952Y-19502380D01*
X119078809Y-19502380D01*
X118316904Y-19502380D02*
X118316904Y-18502380D01*
X118316904Y-18883333D02*
X118221666Y-18835714D01*
X118031190Y-18835714D01*
X117935952Y-18883333D01*
X117888333Y-18930952D01*
X117840714Y-19026190D01*
X117840714Y-19311904D01*
X117888333Y-19407142D01*
X117935952Y-19454761D01*
X118031190Y-19502380D01*
X118221666Y-19502380D01*
X118316904Y-19454761D01*
X117031190Y-19454761D02*
X117126428Y-19502380D01*
X117316904Y-19502380D01*
X117412142Y-19454761D01*
X117459761Y-19359523D01*
X117459761Y-18978571D01*
X117412142Y-18883333D01*
X117316904Y-18835714D01*
X117126428Y-18835714D01*
X117031190Y-18883333D01*
X116983571Y-18978571D01*
X116983571Y-19073809D01*
X117459761Y-19169047D01*
D11*
G36*
X58857114Y-24174505D02*
G01*
X58782461Y-24211727D01*
X58716569Y-24280261D01*
X58698423Y-24305648D01*
X58678655Y-24338866D01*
X58665828Y-24374945D01*
X58658490Y-24423098D01*
X58655187Y-24492536D01*
X58654462Y-24584206D01*
X58657737Y-24709830D01*
X58669123Y-24804154D01*
X58690959Y-24874523D01*
X58725581Y-24928286D01*
X58775330Y-24972788D01*
X58778986Y-24975423D01*
X58828015Y-25002377D01*
X58887055Y-25015712D01*
X58962141Y-25019000D01*
X59084205Y-25019000D01*
X59084256Y-25137497D01*
X59085392Y-25203492D01*
X59092314Y-25242202D01*
X59110402Y-25265419D01*
X59145038Y-25284933D01*
X59153355Y-25288920D01*
X59192280Y-25307603D01*
X59222417Y-25319403D01*
X59244826Y-25320422D01*
X59260567Y-25306761D01*
X59270698Y-25274522D01*
X59276277Y-25219804D01*
X59278365Y-25138711D01*
X59278019Y-25027344D01*
X59276300Y-24881802D01*
X59275763Y-24838269D01*
X59273828Y-24688205D01*
X59272096Y-24590042D01*
X59084308Y-24590042D01*
X59083252Y-24673364D01*
X59078562Y-24727880D01*
X59067949Y-24763837D01*
X59049128Y-24791482D01*
X59036350Y-24804965D01*
X58984110Y-24844417D01*
X58937858Y-24847628D01*
X58890133Y-24815049D01*
X58888923Y-24813846D01*
X58869506Y-24788668D01*
X58857693Y-24754447D01*
X58851735Y-24701748D01*
X58849880Y-24621131D01*
X58849846Y-24603271D01*
X58854330Y-24492175D01*
X58868926Y-24415161D01*
X58895350Y-24368147D01*
X58935317Y-24347050D01*
X58958416Y-24344923D01*
X59013238Y-24354900D01*
X59050842Y-24387752D01*
X59073477Y-24447857D01*
X59083394Y-24539598D01*
X59084308Y-24590042D01*
X59272096Y-24590042D01*
X59271778Y-24572060D01*
X59269127Y-24484679D01*
X59265394Y-24420905D01*
X59260093Y-24375582D01*
X59252742Y-24343555D01*
X59242857Y-24319668D01*
X59229954Y-24298764D01*
X59224421Y-24290898D01*
X59151031Y-24216595D01*
X59058240Y-24174467D01*
X58950904Y-24162722D01*
X58857114Y-24174505D01*
G37*
X58857114Y-24174505D02*
X58782461Y-24211727D01*
X58716569Y-24280261D01*
X58698423Y-24305648D01*
X58678655Y-24338866D01*
X58665828Y-24374945D01*
X58658490Y-24423098D01*
X58655187Y-24492536D01*
X58654462Y-24584206D01*
X58657737Y-24709830D01*
X58669123Y-24804154D01*
X58690959Y-24874523D01*
X58725581Y-24928286D01*
X58775330Y-24972788D01*
X58778986Y-24975423D01*
X58828015Y-25002377D01*
X58887055Y-25015712D01*
X58962141Y-25019000D01*
X59084205Y-25019000D01*
X59084256Y-25137497D01*
X59085392Y-25203492D01*
X59092314Y-25242202D01*
X59110402Y-25265419D01*
X59145038Y-25284933D01*
X59153355Y-25288920D01*
X59192280Y-25307603D01*
X59222417Y-25319403D01*
X59244826Y-25320422D01*
X59260567Y-25306761D01*
X59270698Y-25274522D01*
X59276277Y-25219804D01*
X59278365Y-25138711D01*
X59278019Y-25027344D01*
X59276300Y-24881802D01*
X59275763Y-24838269D01*
X59273828Y-24688205D01*
X59272096Y-24590042D01*
X59084308Y-24590042D01*
X59083252Y-24673364D01*
X59078562Y-24727880D01*
X59067949Y-24763837D01*
X59049128Y-24791482D01*
X59036350Y-24804965D01*
X58984110Y-24844417D01*
X58937858Y-24847628D01*
X58890133Y-24815049D01*
X58888923Y-24813846D01*
X58869506Y-24788668D01*
X58857693Y-24754447D01*
X58851735Y-24701748D01*
X58849880Y-24621131D01*
X58849846Y-24603271D01*
X58854330Y-24492175D01*
X58868926Y-24415161D01*
X58895350Y-24368147D01*
X58935317Y-24347050D01*
X58958416Y-24344923D01*
X59013238Y-24354900D01*
X59050842Y-24387752D01*
X59073477Y-24447857D01*
X59083394Y-24539598D01*
X59084308Y-24590042D01*
X59272096Y-24590042D01*
X59271778Y-24572060D01*
X59269127Y-24484679D01*
X59265394Y-24420905D01*
X59260093Y-24375582D01*
X59252742Y-24343555D01*
X59242857Y-24319668D01*
X59229954Y-24298764D01*
X59224421Y-24290898D01*
X59151031Y-24216595D01*
X59058240Y-24174467D01*
X58950904Y-24162722D01*
X58857114Y-24174505D01*
G36*
X57354336Y-24185089D02*
G01*
X57291633Y-24221358D01*
X57248039Y-24257358D01*
X57216155Y-24295075D01*
X57194190Y-24341199D01*
X57180351Y-24402421D01*
X57172847Y-24485431D01*
X57169883Y-24596919D01*
X57169539Y-24677062D01*
X57169539Y-24972065D01*
X57335615Y-25046515D01*
X57345385Y-24723402D01*
X57349421Y-24602729D01*
X57353656Y-24515141D01*
X57358903Y-24454650D01*
X57365975Y-24415268D01*
X57375689Y-24391007D01*
X57388856Y-24375880D01*
X57393081Y-24372606D01*
X57457091Y-24347034D01*
X57521792Y-24357153D01*
X57560308Y-24384000D01*
X57575975Y-24403024D01*
X57586820Y-24427988D01*
X57593712Y-24465834D01*
X57597521Y-24523502D01*
X57599117Y-24607935D01*
X57599385Y-24695928D01*
X57599437Y-24806323D01*
X57601328Y-24884463D01*
X57607655Y-24937165D01*
X57621017Y-24971242D01*
X57644015Y-24993511D01*
X57679246Y-25010787D01*
X57726303Y-25028738D01*
X57777697Y-25048278D01*
X57771579Y-24701485D01*
X57769116Y-24576468D01*
X57766233Y-24484082D01*
X57762102Y-24417881D01*
X57755893Y-24371420D01*
X57746774Y-24338256D01*
X57733917Y-24311944D01*
X57718416Y-24288729D01*
X57643629Y-24214569D01*
X57552372Y-24171684D01*
X57453117Y-24161412D01*
X57354336Y-24185089D01*
G37*
X57354336Y-24185089D02*
X57291633Y-24221358D01*
X57248039Y-24257358D01*
X57216155Y-24295075D01*
X57194190Y-24341199D01*
X57180351Y-24402421D01*
X57172847Y-24485431D01*
X57169883Y-24596919D01*
X57169539Y-24677062D01*
X57169539Y-24972065D01*
X57335615Y-25046515D01*
X57345385Y-24723402D01*
X57349421Y-24602729D01*
X57353656Y-24515141D01*
X57358903Y-24454650D01*
X57365975Y-24415268D01*
X57375689Y-24391007D01*
X57388856Y-24375880D01*
X57393081Y-24372606D01*
X57457091Y-24347034D01*
X57521792Y-24357153D01*
X57560308Y-24384000D01*
X57575975Y-24403024D01*
X57586820Y-24427988D01*
X57593712Y-24465834D01*
X57597521Y-24523502D01*
X57599117Y-24607935D01*
X57599385Y-24695928D01*
X57599437Y-24806323D01*
X57601328Y-24884463D01*
X57607655Y-24937165D01*
X57621017Y-24971242D01*
X57644015Y-24993511D01*
X57679246Y-25010787D01*
X57726303Y-25028738D01*
X57777697Y-25048278D01*
X57771579Y-24701485D01*
X57769116Y-24576468D01*
X57766233Y-24484082D01*
X57762102Y-24417881D01*
X57755893Y-24371420D01*
X57746774Y-24338256D01*
X57733917Y-24311944D01*
X57718416Y-24288729D01*
X57643629Y-24214569D01*
X57552372Y-24171684D01*
X57453117Y-24161412D01*
X57354336Y-24185089D01*
G36*
X59609114Y-24177256D02*
G01*
X59517536Y-24225409D01*
X59449951Y-24302905D01*
X59425943Y-24352727D01*
X59407262Y-24427533D01*
X59397699Y-24522052D01*
X59396792Y-24625210D01*
X59404079Y-24725935D01*
X59419097Y-24813153D01*
X59441385Y-24875791D01*
X59448235Y-24886579D01*
X59529368Y-24967105D01*
X59625734Y-25015336D01*
X59730299Y-25029450D01*
X59836032Y-25007629D01*
X59865457Y-24994547D01*
X59922759Y-24954231D01*
X59973050Y-24900775D01*
X59977803Y-24893995D01*
X59997122Y-24861321D01*
X60009892Y-24826394D01*
X60017436Y-24780414D01*
X60021076Y-24714584D01*
X60022135Y-24620105D01*
X60022154Y-24598923D01*
X60022106Y-24592182D01*
X59826769Y-24592182D01*
X59825632Y-24681349D01*
X59821159Y-24740520D01*
X59811754Y-24778741D01*
X59795824Y-24805053D01*
X59787692Y-24813846D01*
X59740942Y-24847261D01*
X59695553Y-24845737D01*
X59649660Y-24816752D01*
X59622288Y-24785809D01*
X59606077Y-24740643D01*
X59596974Y-24669420D01*
X59596349Y-24661114D01*
X59594796Y-24532037D01*
X59611035Y-24436172D01*
X59644848Y-24374107D01*
X59696016Y-24346432D01*
X59714280Y-24344923D01*
X59762240Y-24352513D01*
X59795047Y-24378808D01*
X59815105Y-24429095D01*
X59824822Y-24508664D01*
X59826769Y-24592182D01*
X60022106Y-24592182D01*
X60021426Y-24498249D01*
X60018371Y-24427906D01*
X60011678Y-24379163D01*
X60000040Y-24343288D01*
X59982147Y-24311548D01*
X59978192Y-24305648D01*
X59911733Y-24226104D01*
X59839315Y-24179929D01*
X59751151Y-24161599D01*
X59721213Y-24160703D01*
X59609114Y-24177256D01*
G37*
X59609114Y-24177256D02*
X59517536Y-24225409D01*
X59449951Y-24302905D01*
X59425943Y-24352727D01*
X59407262Y-24427533D01*
X59397699Y-24522052D01*
X59396792Y-24625210D01*
X59404079Y-24725935D01*
X59419097Y-24813153D01*
X59441385Y-24875791D01*
X59448235Y-24886579D01*
X59529368Y-24967105D01*
X59625734Y-25015336D01*
X59730299Y-25029450D01*
X59836032Y-25007629D01*
X59865457Y-24994547D01*
X59922759Y-24954231D01*
X59973050Y-24900775D01*
X59977803Y-24893995D01*
X59997122Y-24861321D01*
X60009892Y-24826394D01*
X60017436Y-24780414D01*
X60021076Y-24714584D01*
X60022135Y-24620105D01*
X60022154Y-24598923D01*
X60022106Y-24592182D01*
X59826769Y-24592182D01*
X59825632Y-24681349D01*
X59821159Y-24740520D01*
X59811754Y-24778741D01*
X59795824Y-24805053D01*
X59787692Y-24813846D01*
X59740942Y-24847261D01*
X59695553Y-24845737D01*
X59649660Y-24816752D01*
X59622288Y-24785809D01*
X59606077Y-24740643D01*
X59596974Y-24669420D01*
X59596349Y-24661114D01*
X59594796Y-24532037D01*
X59611035Y-24436172D01*
X59644848Y-24374107D01*
X59696016Y-24346432D01*
X59714280Y-24344923D01*
X59762240Y-24352513D01*
X59795047Y-24378808D01*
X59815105Y-24429095D01*
X59824822Y-24508664D01*
X59826769Y-24592182D01*
X60022106Y-24592182D01*
X60021426Y-24498249D01*
X60018371Y-24427906D01*
X60011678Y-24379163D01*
X60000040Y-24343288D01*
X59982147Y-24311548D01*
X59978192Y-24305648D01*
X59911733Y-24226104D01*
X59839315Y-24179929D01*
X59751151Y-24161599D01*
X59721213Y-24160703D01*
X59609114Y-24177256D01*
G36*
X58091746Y-24189745D02*
G01*
X58014714Y-24241567D01*
X57955184Y-24316412D01*
X57919622Y-24411654D01*
X57912429Y-24481756D01*
X57913246Y-24511009D01*
X57920086Y-24533407D01*
X57938888Y-24553474D01*
X57975592Y-24575733D01*
X58036138Y-24604709D01*
X58126466Y-24644927D01*
X58126923Y-24645129D01*
X58210067Y-24683210D01*
X58278247Y-24717025D01*
X58324495Y-24742933D01*
X58341842Y-24757295D01*
X58341846Y-24757411D01*
X58326557Y-24788685D01*
X58290804Y-24823157D01*
X58249758Y-24847990D01*
X58228963Y-24852923D01*
X58172230Y-24835862D01*
X58123373Y-24793133D01*
X58099535Y-24746155D01*
X58076603Y-24711522D01*
X58031682Y-24672081D01*
X57978877Y-24638009D01*
X57932290Y-24619480D01*
X57922548Y-24618462D01*
X57911582Y-24635215D01*
X57910921Y-24678039D01*
X57918980Y-24735781D01*
X57934173Y-24797289D01*
X57954914Y-24851409D01*
X57955962Y-24853510D01*
X58018379Y-24940660D01*
X58099274Y-24999939D01*
X58191144Y-25029034D01*
X58286487Y-25025634D01*
X58377802Y-24987428D01*
X58381862Y-24984741D01*
X58453694Y-24919642D01*
X58500927Y-24834705D01*
X58527066Y-24723021D01*
X58530574Y-24691643D01*
X58536787Y-24543536D01*
X58529339Y-24474468D01*
X58341846Y-24474468D01*
X58339410Y-24517552D01*
X58326086Y-24530126D01*
X58292868Y-24520719D01*
X58240506Y-24498483D01*
X58181976Y-24470610D01*
X58180521Y-24469872D01*
X58130911Y-24443777D01*
X58111000Y-24426363D01*
X58115910Y-24408107D01*
X58136584Y-24384120D01*
X58189181Y-24349406D01*
X58245823Y-24346856D01*
X58296631Y-24372119D01*
X58331724Y-24420847D01*
X58341846Y-24474468D01*
X58529339Y-24474468D01*
X58524008Y-24425036D01*
X58491222Y-24331055D01*
X58445579Y-24265215D01*
X58363198Y-24198681D01*
X58272454Y-24165676D01*
X58179815Y-24163573D01*
X58091746Y-24189745D01*
G37*
X58091746Y-24189745D02*
X58014714Y-24241567D01*
X57955184Y-24316412D01*
X57919622Y-24411654D01*
X57912429Y-24481756D01*
X57913246Y-24511009D01*
X57920086Y-24533407D01*
X57938888Y-24553474D01*
X57975592Y-24575733D01*
X58036138Y-24604709D01*
X58126466Y-24644927D01*
X58126923Y-24645129D01*
X58210067Y-24683210D01*
X58278247Y-24717025D01*
X58324495Y-24742933D01*
X58341842Y-24757295D01*
X58341846Y-24757411D01*
X58326557Y-24788685D01*
X58290804Y-24823157D01*
X58249758Y-24847990D01*
X58228963Y-24852923D01*
X58172230Y-24835862D01*
X58123373Y-24793133D01*
X58099535Y-24746155D01*
X58076603Y-24711522D01*
X58031682Y-24672081D01*
X57978877Y-24638009D01*
X57932290Y-24619480D01*
X57922548Y-24618462D01*
X57911582Y-24635215D01*
X57910921Y-24678039D01*
X57918980Y-24735781D01*
X57934173Y-24797289D01*
X57954914Y-24851409D01*
X57955962Y-24853510D01*
X58018379Y-24940660D01*
X58099274Y-24999939D01*
X58191144Y-25029034D01*
X58286487Y-25025634D01*
X58377802Y-24987428D01*
X58381862Y-24984741D01*
X58453694Y-24919642D01*
X58500927Y-24834705D01*
X58527066Y-24723021D01*
X58530574Y-24691643D01*
X58536787Y-24543536D01*
X58529339Y-24474468D01*
X58341846Y-24474468D01*
X58339410Y-24517552D01*
X58326086Y-24530126D01*
X58292868Y-24520719D01*
X58240506Y-24498483D01*
X58181976Y-24470610D01*
X58180521Y-24469872D01*
X58130911Y-24443777D01*
X58111000Y-24426363D01*
X58115910Y-24408107D01*
X58136584Y-24384120D01*
X58189181Y-24349406D01*
X58245823Y-24346856D01*
X58296631Y-24372119D01*
X58331724Y-24420847D01*
X58341846Y-24474468D01*
X58529339Y-24474468D01*
X58524008Y-24425036D01*
X58491222Y-24331055D01*
X58445579Y-24265215D01*
X58363198Y-24198681D01*
X58272454Y-24165676D01*
X58179815Y-24163573D01*
X58091746Y-24189745D01*
G36*
X56466154Y-24082120D02*
G01*
X56460428Y-24161980D01*
X56453851Y-24209039D01*
X56444738Y-24229566D01*
X56431402Y-24229829D01*
X56427077Y-24227378D01*
X56369556Y-24209636D01*
X56294732Y-24210672D01*
X56218661Y-24228910D01*
X56171082Y-24252505D01*
X56122298Y-24290198D01*
X56086636Y-24332855D01*
X56062155Y-24387057D01*
X56046913Y-24459384D01*
X56038970Y-24556419D01*
X56036384Y-24684742D01*
X56036338Y-24709358D01*
X56036308Y-24985870D01*
X56097839Y-25007320D01*
X56141541Y-25021912D01*
X56165518Y-25028706D01*
X56166223Y-25028769D01*
X56168585Y-25010345D01*
X56170594Y-24959526D01*
X56172099Y-24882993D01*
X56172947Y-24787430D01*
X56173077Y-24729329D01*
X56173349Y-24614771D01*
X56174748Y-24532667D01*
X56178151Y-24476393D01*
X56184433Y-24439326D01*
X56194471Y-24414844D01*
X56209139Y-24396325D01*
X56218298Y-24387406D01*
X56281211Y-24351466D01*
X56349864Y-24348775D01*
X56412152Y-24379170D01*
X56423671Y-24390144D01*
X56440567Y-24410779D01*
X56452286Y-24435256D01*
X56459767Y-24470647D01*
X56463946Y-24524026D01*
X56465763Y-24602466D01*
X56466154Y-24710617D01*
X56466154Y-24985870D01*
X56527685Y-25007320D01*
X56571387Y-25021912D01*
X56595364Y-25028706D01*
X56596070Y-25028769D01*
X56597874Y-25010069D01*
X56599500Y-24957322D01*
X56600883Y-24875557D01*
X56601958Y-24769805D01*
X56602660Y-24645094D01*
X56602923Y-24506455D01*
X56602923Y-23971806D01*
X56475923Y-23918236D01*
X56466154Y-24082120D01*
G37*
X56466154Y-24082120D02*
X56460428Y-24161980D01*
X56453851Y-24209039D01*
X56444738Y-24229566D01*
X56431402Y-24229829D01*
X56427077Y-24227378D01*
X56369556Y-24209636D01*
X56294732Y-24210672D01*
X56218661Y-24228910D01*
X56171082Y-24252505D01*
X56122298Y-24290198D01*
X56086636Y-24332855D01*
X56062155Y-24387057D01*
X56046913Y-24459384D01*
X56038970Y-24556419D01*
X56036384Y-24684742D01*
X56036338Y-24709358D01*
X56036308Y-24985870D01*
X56097839Y-25007320D01*
X56141541Y-25021912D01*
X56165518Y-25028706D01*
X56166223Y-25028769D01*
X56168585Y-25010345D01*
X56170594Y-24959526D01*
X56172099Y-24882993D01*
X56172947Y-24787430D01*
X56173077Y-24729329D01*
X56173349Y-24614771D01*
X56174748Y-24532667D01*
X56178151Y-24476393D01*
X56184433Y-24439326D01*
X56194471Y-24414844D01*
X56209139Y-24396325D01*
X56218298Y-24387406D01*
X56281211Y-24351466D01*
X56349864Y-24348775D01*
X56412152Y-24379170D01*
X56423671Y-24390144D01*
X56440567Y-24410779D01*
X56452286Y-24435256D01*
X56459767Y-24470647D01*
X56463946Y-24524026D01*
X56465763Y-24602466D01*
X56466154Y-24710617D01*
X56466154Y-24985870D01*
X56527685Y-25007320D01*
X56571387Y-25021912D01*
X56595364Y-25028706D01*
X56596070Y-25028769D01*
X56597874Y-25010069D01*
X56599500Y-24957322D01*
X56600883Y-24875557D01*
X56601958Y-24769805D01*
X56602660Y-24645094D01*
X56602923Y-24506455D01*
X56602923Y-23971806D01*
X56475923Y-23918236D01*
X56466154Y-24082120D01*
G36*
X55572499Y-24216303D02*
G01*
X55495940Y-24244733D01*
X55495064Y-24245279D01*
X55447715Y-24280127D01*
X55412759Y-24320852D01*
X55388175Y-24373925D01*
X55371938Y-24445814D01*
X55362025Y-24542992D01*
X55356414Y-24671928D01*
X55355923Y-24690298D01*
X55348859Y-24967287D01*
X55408305Y-24998028D01*
X55451319Y-25018802D01*
X55477290Y-25028646D01*
X55478491Y-25028769D01*
X55482986Y-25010606D01*
X55486556Y-24961612D01*
X55488752Y-24890031D01*
X55489231Y-24832068D01*
X55489242Y-24738170D01*
X55493534Y-24679203D01*
X55508497Y-24651079D01*
X55540518Y-24649706D01*
X55595986Y-24670998D01*
X55679731Y-24710136D01*
X55741311Y-24742643D01*
X55772983Y-24770845D01*
X55782294Y-24801582D01*
X55782308Y-24803104D01*
X55766943Y-24856054D01*
X55721453Y-24884660D01*
X55651834Y-24888803D01*
X55601687Y-24888084D01*
X55575246Y-24902527D01*
X55558757Y-24937218D01*
X55549267Y-24981416D01*
X55562943Y-25006493D01*
X55568093Y-25010082D01*
X55616575Y-25024496D01*
X55684469Y-25026537D01*
X55754388Y-25016983D01*
X55803932Y-24999522D01*
X55872430Y-24941364D01*
X55911366Y-24860408D01*
X55919077Y-24797160D01*
X55913193Y-24740111D01*
X55891899Y-24693542D01*
X55849735Y-24652181D01*
X55781241Y-24610755D01*
X55680956Y-24563993D01*
X55674846Y-24561350D01*
X55584510Y-24519617D01*
X55528765Y-24485391D01*
X55504871Y-24454635D01*
X55510087Y-24423311D01*
X55541672Y-24387383D01*
X55551117Y-24379116D01*
X55614383Y-24347058D01*
X55679936Y-24348407D01*
X55737028Y-24379838D01*
X55774907Y-24438024D01*
X55778426Y-24449446D01*
X55812700Y-24504837D01*
X55856191Y-24531518D01*
X55919077Y-24557960D01*
X55919077Y-24489548D01*
X55899948Y-24390110D01*
X55843169Y-24298902D01*
X55813622Y-24268389D01*
X55746458Y-24229228D01*
X55661044Y-24211500D01*
X55572499Y-24216303D01*
G37*
X55572499Y-24216303D02*
X55495940Y-24244733D01*
X55495064Y-24245279D01*
X55447715Y-24280127D01*
X55412759Y-24320852D01*
X55388175Y-24373925D01*
X55371938Y-24445814D01*
X55362025Y-24542992D01*
X55356414Y-24671928D01*
X55355923Y-24690298D01*
X55348859Y-24967287D01*
X55408305Y-24998028D01*
X55451319Y-25018802D01*
X55477290Y-25028646D01*
X55478491Y-25028769D01*
X55482986Y-25010606D01*
X55486556Y-24961612D01*
X55488752Y-24890031D01*
X55489231Y-24832068D01*
X55489242Y-24738170D01*
X55493534Y-24679203D01*
X55508497Y-24651079D01*
X55540518Y-24649706D01*
X55595986Y-24670998D01*
X55679731Y-24710136D01*
X55741311Y-24742643D01*
X55772983Y-24770845D01*
X55782294Y-24801582D01*
X55782308Y-24803104D01*
X55766943Y-24856054D01*
X55721453Y-24884660D01*
X55651834Y-24888803D01*
X55601687Y-24888084D01*
X55575246Y-24902527D01*
X55558757Y-24937218D01*
X55549267Y-24981416D01*
X55562943Y-25006493D01*
X55568093Y-25010082D01*
X55616575Y-25024496D01*
X55684469Y-25026537D01*
X55754388Y-25016983D01*
X55803932Y-24999522D01*
X55872430Y-24941364D01*
X55911366Y-24860408D01*
X55919077Y-24797160D01*
X55913193Y-24740111D01*
X55891899Y-24693542D01*
X55849735Y-24652181D01*
X55781241Y-24610755D01*
X55680956Y-24563993D01*
X55674846Y-24561350D01*
X55584510Y-24519617D01*
X55528765Y-24485391D01*
X55504871Y-24454635D01*
X55510087Y-24423311D01*
X55541672Y-24387383D01*
X55551117Y-24379116D01*
X55614383Y-24347058D01*
X55679936Y-24348407D01*
X55737028Y-24379838D01*
X55774907Y-24438024D01*
X55778426Y-24449446D01*
X55812700Y-24504837D01*
X55856191Y-24531518D01*
X55919077Y-24557960D01*
X55919077Y-24489548D01*
X55899948Y-24390110D01*
X55843169Y-24298902D01*
X55813622Y-24268389D01*
X55746458Y-24229228D01*
X55661044Y-24211500D01*
X55572499Y-24216303D01*
G36*
X54912638Y-24214670D02*
G01*
X54823883Y-24247421D01*
X54751978Y-24305350D01*
X54723856Y-24346128D01*
X54693198Y-24420954D01*
X54693835Y-24475058D01*
X54726013Y-24511446D01*
X54737919Y-24517633D01*
X54789325Y-24536925D01*
X54815578Y-24531982D01*
X54824470Y-24499587D01*
X54824923Y-24481692D01*
X54841203Y-24415859D01*
X54883635Y-24369807D01*
X54942612Y-24347564D01*
X55008525Y-24353161D01*
X55062105Y-24382229D01*
X55080202Y-24398810D01*
X55093029Y-24418925D01*
X55101694Y-24449332D01*
X55107304Y-24496788D01*
X55110965Y-24568050D01*
X55113785Y-24669875D01*
X55114516Y-24702115D01*
X55117180Y-24812410D01*
X55120208Y-24890036D01*
X55124750Y-24941396D01*
X55131954Y-24972890D01*
X55142967Y-24990920D01*
X55158940Y-25001888D01*
X55169166Y-25006733D01*
X55212594Y-25023301D01*
X55238158Y-25028769D01*
X55246605Y-25010507D01*
X55251761Y-24955296D01*
X55253654Y-24862499D01*
X55252311Y-24731478D01*
X55251893Y-24711269D01*
X55248942Y-24591733D01*
X55245452Y-24504449D01*
X55240486Y-24442591D01*
X55233107Y-24399336D01*
X55222376Y-24367860D01*
X55207355Y-24341339D01*
X55199498Y-24329975D01*
X55154447Y-24279692D01*
X55104060Y-24240581D01*
X55097892Y-24237167D01*
X55007542Y-24210212D01*
X54912638Y-24214670D01*
G37*
X54912638Y-24214670D02*
X54823883Y-24247421D01*
X54751978Y-24305350D01*
X54723856Y-24346128D01*
X54693198Y-24420954D01*
X54693835Y-24475058D01*
X54726013Y-24511446D01*
X54737919Y-24517633D01*
X54789325Y-24536925D01*
X54815578Y-24531982D01*
X54824470Y-24499587D01*
X54824923Y-24481692D01*
X54841203Y-24415859D01*
X54883635Y-24369807D01*
X54942612Y-24347564D01*
X55008525Y-24353161D01*
X55062105Y-24382229D01*
X55080202Y-24398810D01*
X55093029Y-24418925D01*
X55101694Y-24449332D01*
X55107304Y-24496788D01*
X55110965Y-24568050D01*
X55113785Y-24669875D01*
X55114516Y-24702115D01*
X55117180Y-24812410D01*
X55120208Y-24890036D01*
X55124750Y-24941396D01*
X55131954Y-24972890D01*
X55142967Y-24990920D01*
X55158940Y-25001888D01*
X55169166Y-25006733D01*
X55212594Y-25023301D01*
X55238158Y-25028769D01*
X55246605Y-25010507D01*
X55251761Y-24955296D01*
X55253654Y-24862499D01*
X55252311Y-24731478D01*
X55251893Y-24711269D01*
X55248942Y-24591733D01*
X55245452Y-24504449D01*
X55240486Y-24442591D01*
X55233107Y-24399336D01*
X55222376Y-24367860D01*
X55207355Y-24341339D01*
X55199498Y-24329975D01*
X55154447Y-24279692D01*
X55104060Y-24240581D01*
X55097892Y-24237167D01*
X55007542Y-24210212D01*
X54912638Y-24214670D01*
G36*
X54023919Y-24370289D02*
G01*
X54024167Y-24516320D01*
X54025128Y-24628655D01*
X54027206Y-24712678D01*
X54030807Y-24773769D01*
X54036335Y-24817309D01*
X54044196Y-24848679D01*
X54054793Y-24873262D01*
X54062818Y-24887294D01*
X54129272Y-24963388D01*
X54213530Y-25011084D01*
X54306751Y-25028199D01*
X54400100Y-25012546D01*
X54455688Y-24984418D01*
X54514043Y-24935760D01*
X54553814Y-24876333D01*
X54577810Y-24798507D01*
X54588839Y-24694652D01*
X54590401Y-24618462D01*
X54590191Y-24612986D01*
X54453692Y-24612986D01*
X54452859Y-24700355D01*
X54449039Y-24758192D01*
X54440254Y-24796029D01*
X54424526Y-24823398D01*
X54405734Y-24844042D01*
X54342625Y-24883890D01*
X54274863Y-24887295D01*
X54210821Y-24854025D01*
X54205836Y-24849517D01*
X54184561Y-24826067D01*
X54171221Y-24798166D01*
X54163999Y-24756641D01*
X54161077Y-24692316D01*
X54160615Y-24621200D01*
X54161617Y-24531858D01*
X54165762Y-24472258D01*
X54174764Y-24433089D01*
X54190333Y-24405040D01*
X54203098Y-24390144D01*
X54262400Y-24352575D01*
X54330699Y-24348057D01*
X54395890Y-24376753D01*
X54408472Y-24387406D01*
X54429889Y-24411063D01*
X54443256Y-24439251D01*
X54450434Y-24481245D01*
X54453281Y-24546319D01*
X54453692Y-24612986D01*
X54590191Y-24612986D01*
X54585678Y-24495765D01*
X54569638Y-24403577D01*
X54539472Y-24334269D01*
X54492371Y-24280211D01*
X54455688Y-24252505D01*
X54389010Y-24222572D01*
X54311728Y-24208678D01*
X54239890Y-24212397D01*
X54199692Y-24227400D01*
X54183918Y-24231670D01*
X54173450Y-24215750D01*
X54166144Y-24173089D01*
X54160615Y-24108106D01*
X54154563Y-24035732D01*
X54146156Y-23992187D01*
X54130859Y-23967287D01*
X54104136Y-23950845D01*
X54087346Y-23943564D01*
X54023846Y-23916963D01*
X54023919Y-24370289D01*
G37*
X54023919Y-24370289D02*
X54024167Y-24516320D01*
X54025128Y-24628655D01*
X54027206Y-24712678D01*
X54030807Y-24773769D01*
X54036335Y-24817309D01*
X54044196Y-24848679D01*
X54054793Y-24873262D01*
X54062818Y-24887294D01*
X54129272Y-24963388D01*
X54213530Y-25011084D01*
X54306751Y-25028199D01*
X54400100Y-25012546D01*
X54455688Y-24984418D01*
X54514043Y-24935760D01*
X54553814Y-24876333D01*
X54577810Y-24798507D01*
X54588839Y-24694652D01*
X54590401Y-24618462D01*
X54590191Y-24612986D01*
X54453692Y-24612986D01*
X54452859Y-24700355D01*
X54449039Y-24758192D01*
X54440254Y-24796029D01*
X54424526Y-24823398D01*
X54405734Y-24844042D01*
X54342625Y-24883890D01*
X54274863Y-24887295D01*
X54210821Y-24854025D01*
X54205836Y-24849517D01*
X54184561Y-24826067D01*
X54171221Y-24798166D01*
X54163999Y-24756641D01*
X54161077Y-24692316D01*
X54160615Y-24621200D01*
X54161617Y-24531858D01*
X54165762Y-24472258D01*
X54174764Y-24433089D01*
X54190333Y-24405040D01*
X54203098Y-24390144D01*
X54262400Y-24352575D01*
X54330699Y-24348057D01*
X54395890Y-24376753D01*
X54408472Y-24387406D01*
X54429889Y-24411063D01*
X54443256Y-24439251D01*
X54450434Y-24481245D01*
X54453281Y-24546319D01*
X54453692Y-24612986D01*
X54590191Y-24612986D01*
X54585678Y-24495765D01*
X54569638Y-24403577D01*
X54539472Y-24334269D01*
X54492371Y-24280211D01*
X54455688Y-24252505D01*
X54389010Y-24222572D01*
X54311728Y-24208678D01*
X54239890Y-24212397D01*
X54199692Y-24227400D01*
X54183918Y-24231670D01*
X54173450Y-24215750D01*
X54166144Y-24173089D01*
X54160615Y-24108106D01*
X54154563Y-24035732D01*
X54146156Y-23992187D01*
X54130859Y-23967287D01*
X54104136Y-23950845D01*
X54087346Y-23943564D01*
X54023846Y-23916963D01*
X54023919Y-24370289D01*
G36*
X53230071Y-24226662D02*
G01*
X53227089Y-24278068D01*
X53224753Y-24356192D01*
X53223251Y-24454857D01*
X53222769Y-24558343D01*
X53222769Y-24908533D01*
X53284599Y-24970363D01*
X53327207Y-25008462D01*
X53364610Y-25023895D01*
X53415730Y-25022918D01*
X53436022Y-25020433D01*
X53499446Y-25013200D01*
X53551905Y-25009055D01*
X53564692Y-25008672D01*
X53607801Y-25011176D01*
X53669456Y-25017462D01*
X53693362Y-25020433D01*
X53752078Y-25025028D01*
X53791536Y-25015046D01*
X53830662Y-24984228D01*
X53844785Y-24970363D01*
X53906615Y-24908533D01*
X53906615Y-24253503D01*
X53856850Y-24230829D01*
X53813998Y-24214034D01*
X53788927Y-24208154D01*
X53782499Y-24226736D01*
X53776491Y-24278655D01*
X53771303Y-24358172D01*
X53767336Y-24459546D01*
X53765423Y-24545192D01*
X53760077Y-24882231D01*
X53713440Y-24888825D01*
X53671024Y-24884214D01*
X53650240Y-24869287D01*
X53644430Y-24841377D01*
X53639470Y-24781925D01*
X53635754Y-24698466D01*
X53633676Y-24598532D01*
X53633376Y-24547104D01*
X53633077Y-24251054D01*
X53571546Y-24229604D01*
X53527996Y-24215020D01*
X53504306Y-24208219D01*
X53503623Y-24208154D01*
X53501246Y-24226642D01*
X53498634Y-24277906D01*
X53496005Y-24355649D01*
X53493579Y-24453574D01*
X53491885Y-24545192D01*
X53486539Y-24882231D01*
X53369308Y-24882231D01*
X53363928Y-24574746D01*
X53358549Y-24267261D01*
X53301399Y-24237707D01*
X53259203Y-24217413D01*
X53234230Y-24208204D01*
X53233509Y-24208154D01*
X53230071Y-24226662D01*
G37*
X53230071Y-24226662D02*
X53227089Y-24278068D01*
X53224753Y-24356192D01*
X53223251Y-24454857D01*
X53222769Y-24558343D01*
X53222769Y-24908533D01*
X53284599Y-24970363D01*
X53327207Y-25008462D01*
X53364610Y-25023895D01*
X53415730Y-25022918D01*
X53436022Y-25020433D01*
X53499446Y-25013200D01*
X53551905Y-25009055D01*
X53564692Y-25008672D01*
X53607801Y-25011176D01*
X53669456Y-25017462D01*
X53693362Y-25020433D01*
X53752078Y-25025028D01*
X53791536Y-25015046D01*
X53830662Y-24984228D01*
X53844785Y-24970363D01*
X53906615Y-24908533D01*
X53906615Y-24253503D01*
X53856850Y-24230829D01*
X53813998Y-24214034D01*
X53788927Y-24208154D01*
X53782499Y-24226736D01*
X53776491Y-24278655D01*
X53771303Y-24358172D01*
X53767336Y-24459546D01*
X53765423Y-24545192D01*
X53760077Y-24882231D01*
X53713440Y-24888825D01*
X53671024Y-24884214D01*
X53650240Y-24869287D01*
X53644430Y-24841377D01*
X53639470Y-24781925D01*
X53635754Y-24698466D01*
X53633676Y-24598532D01*
X53633376Y-24547104D01*
X53633077Y-24251054D01*
X53571546Y-24229604D01*
X53527996Y-24215020D01*
X53504306Y-24208219D01*
X53503623Y-24208154D01*
X53501246Y-24226642D01*
X53498634Y-24277906D01*
X53496005Y-24355649D01*
X53493579Y-24453574D01*
X53491885Y-24545192D01*
X53486539Y-24882231D01*
X53369308Y-24882231D01*
X53363928Y-24574746D01*
X53358549Y-24267261D01*
X53301399Y-24237707D01*
X53259203Y-24217413D01*
X53234230Y-24208204D01*
X53233509Y-24208154D01*
X53230071Y-24226662D01*
G36*
X52738667Y-24223528D02*
G01*
X52682410Y-24249117D01*
X52638253Y-24280124D01*
X52605899Y-24314795D01*
X52583562Y-24359520D01*
X52569454Y-24420692D01*
X52561789Y-24504701D01*
X52558780Y-24617940D01*
X52558462Y-24692509D01*
X52558462Y-24983420D01*
X52608227Y-25006095D01*
X52647424Y-25022667D01*
X52666843Y-25028769D01*
X52670558Y-25010610D01*
X52673505Y-24961648D01*
X52675309Y-24890153D01*
X52675692Y-24833385D01*
X52677339Y-24751371D01*
X52681778Y-24686309D01*
X52688260Y-24646467D01*
X52693410Y-24638000D01*
X52728023Y-24646646D01*
X52782360Y-24668823D01*
X52845278Y-24698886D01*
X52905632Y-24731192D01*
X52952279Y-24760098D01*
X52974074Y-24779961D01*
X52974161Y-24780175D01*
X52972286Y-24816935D01*
X52955475Y-24852026D01*
X52925961Y-24880528D01*
X52882884Y-24890061D01*
X52846068Y-24888950D01*
X52793926Y-24888133D01*
X52766556Y-24900349D01*
X52750118Y-24932624D01*
X52748045Y-24938710D01*
X52740919Y-24984739D01*
X52759976Y-25012687D01*
X52809647Y-25026007D01*
X52863303Y-25028470D01*
X52959858Y-25010210D01*
X53009841Y-24984131D01*
X53071571Y-24922868D01*
X53104310Y-24847670D01*
X53107247Y-24768211D01*
X53079576Y-24694167D01*
X53037953Y-24647769D01*
X52996396Y-24621793D01*
X52931078Y-24588907D01*
X52854962Y-24555557D01*
X52842274Y-24550461D01*
X52758667Y-24513565D01*
X52710470Y-24481046D01*
X52694970Y-24448718D01*
X52709450Y-24412394D01*
X52734308Y-24384000D01*
X52793061Y-24349039D01*
X52857707Y-24346417D01*
X52916992Y-24373358D01*
X52959661Y-24427088D01*
X52965261Y-24440950D01*
X52997867Y-24491936D01*
X53045470Y-24529787D01*
X53105539Y-24560850D01*
X53105539Y-24472768D01*
X53102003Y-24418951D01*
X53086844Y-24376534D01*
X53053232Y-24331279D01*
X53020965Y-24296420D01*
X52970791Y-24247062D01*
X52931807Y-24220547D01*
X52889936Y-24209911D01*
X52842540Y-24208154D01*
X52738667Y-24223528D01*
G37*
X52738667Y-24223528D02*
X52682410Y-24249117D01*
X52638253Y-24280124D01*
X52605899Y-24314795D01*
X52583562Y-24359520D01*
X52569454Y-24420692D01*
X52561789Y-24504701D01*
X52558780Y-24617940D01*
X52558462Y-24692509D01*
X52558462Y-24983420D01*
X52608227Y-25006095D01*
X52647424Y-25022667D01*
X52666843Y-25028769D01*
X52670558Y-25010610D01*
X52673505Y-24961648D01*
X52675309Y-24890153D01*
X52675692Y-24833385D01*
X52677339Y-24751371D01*
X52681778Y-24686309D01*
X52688260Y-24646467D01*
X52693410Y-24638000D01*
X52728023Y-24646646D01*
X52782360Y-24668823D01*
X52845278Y-24698886D01*
X52905632Y-24731192D01*
X52952279Y-24760098D01*
X52974074Y-24779961D01*
X52974161Y-24780175D01*
X52972286Y-24816935D01*
X52955475Y-24852026D01*
X52925961Y-24880528D01*
X52882884Y-24890061D01*
X52846068Y-24888950D01*
X52793926Y-24888133D01*
X52766556Y-24900349D01*
X52750118Y-24932624D01*
X52748045Y-24938710D01*
X52740919Y-24984739D01*
X52759976Y-25012687D01*
X52809647Y-25026007D01*
X52863303Y-25028470D01*
X52959858Y-25010210D01*
X53009841Y-24984131D01*
X53071571Y-24922868D01*
X53104310Y-24847670D01*
X53107247Y-24768211D01*
X53079576Y-24694167D01*
X53037953Y-24647769D01*
X52996396Y-24621793D01*
X52931078Y-24588907D01*
X52854962Y-24555557D01*
X52842274Y-24550461D01*
X52758667Y-24513565D01*
X52710470Y-24481046D01*
X52694970Y-24448718D01*
X52709450Y-24412394D01*
X52734308Y-24384000D01*
X52793061Y-24349039D01*
X52857707Y-24346417D01*
X52916992Y-24373358D01*
X52959661Y-24427088D01*
X52965261Y-24440950D01*
X52997867Y-24491936D01*
X53045470Y-24529787D01*
X53105539Y-24560850D01*
X53105539Y-24472768D01*
X53102003Y-24418951D01*
X53086844Y-24376534D01*
X53053232Y-24331279D01*
X53020965Y-24296420D01*
X52970791Y-24247062D01*
X52931807Y-24220547D01*
X52889936Y-24209911D01*
X52842540Y-24208154D01*
X52738667Y-24223528D01*
G36*
X52055193Y-24226782D02*
G01*
X52031839Y-24236988D01*
X51976098Y-24281134D01*
X51928431Y-24344967D01*
X51898952Y-24413087D01*
X51894154Y-24446670D01*
X51910240Y-24493556D01*
X51945525Y-24518365D01*
X51983356Y-24533387D01*
X52000679Y-24536155D01*
X52009114Y-24516066D01*
X52025770Y-24472351D01*
X52033077Y-24452598D01*
X52074052Y-24384271D01*
X52133378Y-24350191D01*
X52209448Y-24351239D01*
X52215082Y-24352581D01*
X52255695Y-24371836D01*
X52285552Y-24409375D01*
X52305945Y-24469809D01*
X52318164Y-24557751D01*
X52323500Y-24677813D01*
X52324000Y-24741698D01*
X52324248Y-24842403D01*
X52325874Y-24911054D01*
X52330199Y-24954673D01*
X52338546Y-24980282D01*
X52352235Y-24994903D01*
X52372589Y-25005558D01*
X52373766Y-25006095D01*
X52412962Y-25022667D01*
X52432381Y-25028769D01*
X52435365Y-25010319D01*
X52437919Y-24959323D01*
X52439860Y-24882308D01*
X52441003Y-24785805D01*
X52441231Y-24715184D01*
X52440068Y-24578525D01*
X52435521Y-24474851D01*
X52426001Y-24398108D01*
X52409919Y-24342246D01*
X52385687Y-24301212D01*
X52351714Y-24268954D01*
X52318167Y-24246440D01*
X52237501Y-24216476D01*
X52143619Y-24209718D01*
X52055193Y-24226782D01*
G37*
X52055193Y-24226782D02*
X52031839Y-24236988D01*
X51976098Y-24281134D01*
X51928431Y-24344967D01*
X51898952Y-24413087D01*
X51894154Y-24446670D01*
X51910240Y-24493556D01*
X51945525Y-24518365D01*
X51983356Y-24533387D01*
X52000679Y-24536155D01*
X52009114Y-24516066D01*
X52025770Y-24472351D01*
X52033077Y-24452598D01*
X52074052Y-24384271D01*
X52133378Y-24350191D01*
X52209448Y-24351239D01*
X52215082Y-24352581D01*
X52255695Y-24371836D01*
X52285552Y-24409375D01*
X52305945Y-24469809D01*
X52318164Y-24557751D01*
X52323500Y-24677813D01*
X52324000Y-24741698D01*
X52324248Y-24842403D01*
X52325874Y-24911054D01*
X52330199Y-24954673D01*
X52338546Y-24980282D01*
X52352235Y-24994903D01*
X52372589Y-25005558D01*
X52373766Y-25006095D01*
X52412962Y-25022667D01*
X52432381Y-25028769D01*
X52435365Y-25010319D01*
X52437919Y-24959323D01*
X52439860Y-24882308D01*
X52441003Y-24785805D01*
X52441231Y-24715184D01*
X52440068Y-24578525D01*
X52435521Y-24474851D01*
X52426001Y-24398108D01*
X52409919Y-24342246D01*
X52385687Y-24301212D01*
X52351714Y-24268954D01*
X52318167Y-24246440D01*
X52237501Y-24216476D01*
X52143619Y-24209718D01*
X52055193Y-24226782D01*
G36*
X51380776Y-24237838D02*
G01*
X51303472Y-24288361D01*
X51266186Y-24333590D01*
X51236647Y-24415663D01*
X51234301Y-24480607D01*
X51239615Y-24567445D01*
X51439885Y-24655103D01*
X51537261Y-24699887D01*
X51600887Y-24735913D01*
X51633971Y-24767117D01*
X51639720Y-24797436D01*
X51621342Y-24830805D01*
X51601077Y-24852923D01*
X51542111Y-24888393D01*
X51477976Y-24890879D01*
X51419074Y-24863235D01*
X51375803Y-24808320D01*
X51368064Y-24788928D01*
X51330994Y-24728364D01*
X51288346Y-24702552D01*
X51229846Y-24680471D01*
X51229846Y-24764184D01*
X51235018Y-24821150D01*
X51255277Y-24869189D01*
X51297738Y-24924346D01*
X51304049Y-24931514D01*
X51351280Y-24980585D01*
X51391879Y-25006920D01*
X51442672Y-25019035D01*
X51484780Y-25023003D01*
X51560098Y-25023991D01*
X51613714Y-25011466D01*
X51647162Y-24992869D01*
X51699732Y-24951975D01*
X51736121Y-24907748D01*
X51759150Y-24852126D01*
X51771641Y-24777047D01*
X51776413Y-24674449D01*
X51776794Y-24622376D01*
X51775499Y-24559948D01*
X51657529Y-24559948D01*
X51656161Y-24593438D01*
X51652751Y-24598923D01*
X51630247Y-24591472D01*
X51581818Y-24571753D01*
X51517092Y-24543718D01*
X51503557Y-24537692D01*
X51421756Y-24496096D01*
X51376688Y-24459538D01*
X51366783Y-24425296D01*
X51390474Y-24390648D01*
X51410040Y-24375339D01*
X51480640Y-24344721D01*
X51546720Y-24349780D01*
X51602041Y-24387151D01*
X51640364Y-24453473D01*
X51652651Y-24506116D01*
X51657529Y-24559948D01*
X51775499Y-24559948D01*
X51774270Y-24500720D01*
X51764968Y-24410710D01*
X51746540Y-24345167D01*
X51716640Y-24296912D01*
X51672920Y-24258767D01*
X51653859Y-24246440D01*
X51567274Y-24214336D01*
X51472478Y-24212316D01*
X51380776Y-24237838D01*
G37*
X51380776Y-24237838D02*
X51303472Y-24288361D01*
X51266186Y-24333590D01*
X51236647Y-24415663D01*
X51234301Y-24480607D01*
X51239615Y-24567445D01*
X51439885Y-24655103D01*
X51537261Y-24699887D01*
X51600887Y-24735913D01*
X51633971Y-24767117D01*
X51639720Y-24797436D01*
X51621342Y-24830805D01*
X51601077Y-24852923D01*
X51542111Y-24888393D01*
X51477976Y-24890879D01*
X51419074Y-24863235D01*
X51375803Y-24808320D01*
X51368064Y-24788928D01*
X51330994Y-24728364D01*
X51288346Y-24702552D01*
X51229846Y-24680471D01*
X51229846Y-24764184D01*
X51235018Y-24821150D01*
X51255277Y-24869189D01*
X51297738Y-24924346D01*
X51304049Y-24931514D01*
X51351280Y-24980585D01*
X51391879Y-25006920D01*
X51442672Y-25019035D01*
X51484780Y-25023003D01*
X51560098Y-25023991D01*
X51613714Y-25011466D01*
X51647162Y-24992869D01*
X51699732Y-24951975D01*
X51736121Y-24907748D01*
X51759150Y-24852126D01*
X51771641Y-24777047D01*
X51776413Y-24674449D01*
X51776794Y-24622376D01*
X51775499Y-24559948D01*
X51657529Y-24559948D01*
X51656161Y-24593438D01*
X51652751Y-24598923D01*
X51630247Y-24591472D01*
X51581818Y-24571753D01*
X51517092Y-24543718D01*
X51503557Y-24537692D01*
X51421756Y-24496096D01*
X51376688Y-24459538D01*
X51366783Y-24425296D01*
X51390474Y-24390648D01*
X51410040Y-24375339D01*
X51480640Y-24344721D01*
X51546720Y-24349780D01*
X51602041Y-24387151D01*
X51640364Y-24453473D01*
X51652651Y-24506116D01*
X51657529Y-24559948D01*
X51775499Y-24559948D01*
X51774270Y-24500720D01*
X51764968Y-24410710D01*
X51746540Y-24345167D01*
X51716640Y-24296912D01*
X51672920Y-24258767D01*
X51653859Y-24246440D01*
X51567274Y-24214336D01*
X51472478Y-24212316D01*
X51380776Y-24237838D01*
G36*
X55486122Y-17877776D02*
G01*
X55380388Y-17878355D01*
X55303868Y-17879922D01*
X55251628Y-17882972D01*
X55218737Y-17887996D01*
X55200263Y-17895489D01*
X55191273Y-17905944D01*
X55186837Y-17919853D01*
X55186406Y-17921654D01*
X55179667Y-17954145D01*
X55167192Y-18018252D01*
X55150281Y-18107151D01*
X55130229Y-18214019D01*
X55108336Y-18332033D01*
X55107571Y-18336178D01*
X55085641Y-18451831D01*
X55065123Y-18554014D01*
X55047341Y-18636598D01*
X55033619Y-18693456D01*
X55025282Y-18718458D01*
X55024884Y-18718901D01*
X55000323Y-18731110D01*
X54949685Y-18751456D01*
X54883905Y-18775545D01*
X54883539Y-18775674D01*
X54800683Y-18806818D01*
X54703000Y-18846491D01*
X54610923Y-18886381D01*
X54606566Y-18888353D01*
X54456593Y-18956420D01*
X54124502Y-18729639D01*
X54022626Y-18660504D01*
X53930343Y-18598697D01*
X53852997Y-18547733D01*
X53795936Y-18511127D01*
X53764505Y-18492394D01*
X53761521Y-18491004D01*
X53738679Y-18497190D01*
X53696018Y-18527035D01*
X53631872Y-18581947D01*
X53544579Y-18663334D01*
X53455465Y-18749922D01*
X53369559Y-18835247D01*
X53292673Y-18913108D01*
X53229436Y-18978697D01*
X53184477Y-19027205D01*
X53162424Y-19053825D01*
X53161604Y-19055195D01*
X53159166Y-19073463D01*
X53168350Y-19103295D01*
X53191426Y-19148721D01*
X53230663Y-19213770D01*
X53288330Y-19302470D01*
X53365205Y-19416657D01*
X53433430Y-19517162D01*
X53494418Y-19607303D01*
X53544644Y-19681849D01*
X53580584Y-19735565D01*
X53598713Y-19763218D01*
X53599854Y-19765095D01*
X53597641Y-19791590D01*
X53580862Y-19843086D01*
X53552858Y-19909851D01*
X53542878Y-19931172D01*
X53499328Y-20026159D01*
X53452866Y-20133937D01*
X53415123Y-20227192D01*
X53387927Y-20296406D01*
X53366325Y-20349006D01*
X53353842Y-20376497D01*
X53352291Y-20378616D01*
X53329332Y-20382124D01*
X53275214Y-20391738D01*
X53197132Y-20406089D01*
X53102281Y-20423807D01*
X52997857Y-20443525D01*
X52891056Y-20463874D01*
X52789074Y-20483486D01*
X52699106Y-20500991D01*
X52628347Y-20515022D01*
X52583994Y-20524209D01*
X52573115Y-20526807D01*
X52561878Y-20533218D01*
X52553395Y-20547697D01*
X52547286Y-20575133D01*
X52543168Y-20620411D01*
X52540659Y-20688420D01*
X52539379Y-20784047D01*
X52538946Y-20912180D01*
X52538923Y-20964701D01*
X52538923Y-21391845D01*
X52641500Y-21412091D01*
X52698569Y-21423070D01*
X52783731Y-21439095D01*
X52886628Y-21458233D01*
X52996904Y-21478551D01*
X53027385Y-21484132D01*
X53129145Y-21503917D01*
X53217795Y-21523373D01*
X53285892Y-21540697D01*
X53325996Y-21554088D01*
X53332677Y-21558079D01*
X53349081Y-21586342D01*
X53372601Y-21641109D01*
X53398684Y-21711588D01*
X53403858Y-21726769D01*
X53438044Y-21820896D01*
X53480477Y-21927101D01*
X53522003Y-22022473D01*
X53522208Y-22022916D01*
X53591360Y-22172525D01*
X53136488Y-22841617D01*
X53428500Y-23134116D01*
X53516820Y-23221170D01*
X53597375Y-23297909D01*
X53665640Y-23360237D01*
X53717092Y-23404056D01*
X53747206Y-23425270D01*
X53751526Y-23426616D01*
X53776889Y-23416016D01*
X53828642Y-23386547D01*
X53901132Y-23341705D01*
X53988706Y-23284984D01*
X54083388Y-23221462D01*
X54179484Y-23156668D01*
X54265163Y-23100287D01*
X54334984Y-23055788D01*
X54383506Y-23026639D01*
X54405218Y-23016308D01*
X54431707Y-23025050D01*
X54481938Y-23048087D01*
X54545549Y-23080631D01*
X54552292Y-23084249D01*
X54637954Y-23127210D01*
X54696694Y-23148279D01*
X54733228Y-23148503D01*
X54752269Y-23128928D01*
X54752380Y-23128654D01*
X54761898Y-23105472D01*
X54784597Y-23050441D01*
X54818718Y-22967822D01*
X54862500Y-22861872D01*
X54914184Y-22736852D01*
X54972008Y-22597020D01*
X55028009Y-22461637D01*
X55089553Y-22312234D01*
X55146061Y-22173832D01*
X55195839Y-22050673D01*
X55237194Y-21947002D01*
X55268432Y-21867059D01*
X55287859Y-21815088D01*
X55293846Y-21795692D01*
X55278832Y-21773443D01*
X55239561Y-21737982D01*
X55187193Y-21698887D01*
X55038059Y-21575245D01*
X54921489Y-21433522D01*
X54838882Y-21276704D01*
X54791634Y-21107775D01*
X54781143Y-20929722D01*
X54788769Y-20847539D01*
X54830318Y-20677031D01*
X54901877Y-20526459D01*
X54999005Y-20397309D01*
X55117266Y-20291064D01*
X55252220Y-20209210D01*
X55399429Y-20153232D01*
X55554456Y-20124615D01*
X55712861Y-20124844D01*
X55870206Y-20155405D01*
X56022054Y-20217782D01*
X56163965Y-20313460D01*
X56223197Y-20367572D01*
X56336797Y-20506520D01*
X56415894Y-20658361D01*
X56461014Y-20818667D01*
X56472684Y-20983012D01*
X56451431Y-21146971D01*
X56397780Y-21306118D01*
X56312260Y-21456025D01*
X56195395Y-21592267D01*
X56064807Y-21698887D01*
X56010412Y-21739642D01*
X55971986Y-21774718D01*
X55958154Y-21795726D01*
X55965397Y-21818635D01*
X55985995Y-21873365D01*
X56018254Y-21955672D01*
X56060479Y-22061315D01*
X56110977Y-22186050D01*
X56168052Y-22325636D01*
X56224146Y-22461670D01*
X56286033Y-22611201D01*
X56343356Y-22749767D01*
X56394356Y-22873107D01*
X56437273Y-22976964D01*
X56470347Y-23057080D01*
X56491819Y-23109195D01*
X56499775Y-23128654D01*
X56518571Y-23148423D01*
X56554926Y-23148365D01*
X56613521Y-23127441D01*
X56699032Y-23084613D01*
X56699708Y-23084249D01*
X56764093Y-23051012D01*
X56816139Y-23026802D01*
X56845488Y-23016404D01*
X56846783Y-23016308D01*
X56868876Y-23026855D01*
X56917652Y-23056184D01*
X56987669Y-23100827D01*
X57073486Y-23157314D01*
X57168612Y-23221462D01*
X57265460Y-23286411D01*
X57352747Y-23342896D01*
X57424819Y-23387421D01*
X57476023Y-23416490D01*
X57500474Y-23426616D01*
X57522990Y-23413307D01*
X57568258Y-23376112D01*
X57631756Y-23319128D01*
X57708961Y-23246449D01*
X57795349Y-23162171D01*
X57823601Y-23134016D01*
X58115713Y-22841416D01*
X57893369Y-22515104D01*
X57825798Y-22414897D01*
X57766493Y-22324963D01*
X57718783Y-22250510D01*
X57685993Y-22196751D01*
X57671452Y-22168894D01*
X57671026Y-22166912D01*
X57678692Y-22140655D01*
X57699311Y-22087837D01*
X57729315Y-22017310D01*
X57750375Y-21970093D01*
X57789752Y-21879694D01*
X57826835Y-21788366D01*
X57855585Y-21711200D01*
X57863395Y-21687692D01*
X57885583Y-21624916D01*
X57907273Y-21576411D01*
X57919187Y-21558079D01*
X57945477Y-21546859D01*
X58002858Y-21530954D01*
X58083882Y-21512167D01*
X58181105Y-21492299D01*
X58224615Y-21484132D01*
X58335104Y-21463829D01*
X58441084Y-21444170D01*
X58532199Y-21427088D01*
X58598092Y-21414518D01*
X58610500Y-21412091D01*
X58713077Y-21391845D01*
X58713077Y-20964701D01*
X58712847Y-20824246D01*
X58711901Y-20717979D01*
X58709859Y-20641013D01*
X58706338Y-20588460D01*
X58700957Y-20555433D01*
X58693334Y-20537045D01*
X58683088Y-20528408D01*
X58678885Y-20526807D01*
X58653530Y-20521127D01*
X58597516Y-20509795D01*
X58518036Y-20494179D01*
X58422288Y-20475647D01*
X58317467Y-20455569D01*
X58210768Y-20435312D01*
X58109387Y-20416246D01*
X58020521Y-20399739D01*
X57951363Y-20387159D01*
X57909111Y-20379875D01*
X57899710Y-20378616D01*
X57891193Y-20361763D01*
X57872340Y-20316870D01*
X57846676Y-20252430D01*
X57836877Y-20227192D01*
X57797352Y-20129686D01*
X57750808Y-20021959D01*
X57709123Y-19931172D01*
X57678450Y-19861753D01*
X57658044Y-19804710D01*
X57651232Y-19769777D01*
X57652318Y-19765095D01*
X57666715Y-19742991D01*
X57699588Y-19693831D01*
X57747410Y-19622848D01*
X57806652Y-19535278D01*
X57873785Y-19436357D01*
X57887059Y-19416830D01*
X57964954Y-19301140D01*
X58022213Y-19213044D01*
X58061119Y-19148486D01*
X58083956Y-19103411D01*
X58093006Y-19073763D01*
X58090552Y-19055485D01*
X58090489Y-19055369D01*
X58071173Y-19031361D01*
X58028449Y-18984947D01*
X57966949Y-18920937D01*
X57891302Y-18844145D01*
X57806139Y-18759382D01*
X57796535Y-18749922D01*
X57689210Y-18645989D01*
X57606385Y-18569675D01*
X57546395Y-18519571D01*
X57507577Y-18494270D01*
X57490480Y-18491004D01*
X57465527Y-18505250D01*
X57413745Y-18538156D01*
X57340480Y-18586208D01*
X57251080Y-18645890D01*
X57150889Y-18713688D01*
X57127499Y-18729639D01*
X56795407Y-18956420D01*
X56645435Y-18888353D01*
X56554230Y-18848685D01*
X56456331Y-18808791D01*
X56372169Y-18776983D01*
X56368462Y-18775674D01*
X56302631Y-18751576D01*
X56251884Y-18731200D01*
X56227158Y-18718936D01*
X56227116Y-18718901D01*
X56219271Y-18696734D01*
X56205934Y-18642217D01*
X56188430Y-18561480D01*
X56168083Y-18460650D01*
X56146218Y-18345856D01*
X56144429Y-18336178D01*
X56122496Y-18217904D01*
X56102360Y-18110542D01*
X56085320Y-18020917D01*
X56072672Y-17955851D01*
X56065716Y-17922168D01*
X56065594Y-17921654D01*
X56061361Y-17907325D01*
X56053129Y-17896507D01*
X56035967Y-17888706D01*
X56004942Y-17883429D01*
X55955122Y-17880182D01*
X55881576Y-17878472D01*
X55779371Y-17877807D01*
X55643575Y-17877693D01*
X55626000Y-17877692D01*
X55486122Y-17877776D01*
G37*
X55486122Y-17877776D02*
X55380388Y-17878355D01*
X55303868Y-17879922D01*
X55251628Y-17882972D01*
X55218737Y-17887996D01*
X55200263Y-17895489D01*
X55191273Y-17905944D01*
X55186837Y-17919853D01*
X55186406Y-17921654D01*
X55179667Y-17954145D01*
X55167192Y-18018252D01*
X55150281Y-18107151D01*
X55130229Y-18214019D01*
X55108336Y-18332033D01*
X55107571Y-18336178D01*
X55085641Y-18451831D01*
X55065123Y-18554014D01*
X55047341Y-18636598D01*
X55033619Y-18693456D01*
X55025282Y-18718458D01*
X55024884Y-18718901D01*
X55000323Y-18731110D01*
X54949685Y-18751456D01*
X54883905Y-18775545D01*
X54883539Y-18775674D01*
X54800683Y-18806818D01*
X54703000Y-18846491D01*
X54610923Y-18886381D01*
X54606566Y-18888353D01*
X54456593Y-18956420D01*
X54124502Y-18729639D01*
X54022626Y-18660504D01*
X53930343Y-18598697D01*
X53852997Y-18547733D01*
X53795936Y-18511127D01*
X53764505Y-18492394D01*
X53761521Y-18491004D01*
X53738679Y-18497190D01*
X53696018Y-18527035D01*
X53631872Y-18581947D01*
X53544579Y-18663334D01*
X53455465Y-18749922D01*
X53369559Y-18835247D01*
X53292673Y-18913108D01*
X53229436Y-18978697D01*
X53184477Y-19027205D01*
X53162424Y-19053825D01*
X53161604Y-19055195D01*
X53159166Y-19073463D01*
X53168350Y-19103295D01*
X53191426Y-19148721D01*
X53230663Y-19213770D01*
X53288330Y-19302470D01*
X53365205Y-19416657D01*
X53433430Y-19517162D01*
X53494418Y-19607303D01*
X53544644Y-19681849D01*
X53580584Y-19735565D01*
X53598713Y-19763218D01*
X53599854Y-19765095D01*
X53597641Y-19791590D01*
X53580862Y-19843086D01*
X53552858Y-19909851D01*
X53542878Y-19931172D01*
X53499328Y-20026159D01*
X53452866Y-20133937D01*
X53415123Y-20227192D01*
X53387927Y-20296406D01*
X53366325Y-20349006D01*
X53353842Y-20376497D01*
X53352291Y-20378616D01*
X53329332Y-20382124D01*
X53275214Y-20391738D01*
X53197132Y-20406089D01*
X53102281Y-20423807D01*
X52997857Y-20443525D01*
X52891056Y-20463874D01*
X52789074Y-20483486D01*
X52699106Y-20500991D01*
X52628347Y-20515022D01*
X52583994Y-20524209D01*
X52573115Y-20526807D01*
X52561878Y-20533218D01*
X52553395Y-20547697D01*
X52547286Y-20575133D01*
X52543168Y-20620411D01*
X52540659Y-20688420D01*
X52539379Y-20784047D01*
X52538946Y-20912180D01*
X52538923Y-20964701D01*
X52538923Y-21391845D01*
X52641500Y-21412091D01*
X52698569Y-21423070D01*
X52783731Y-21439095D01*
X52886628Y-21458233D01*
X52996904Y-21478551D01*
X53027385Y-21484132D01*
X53129145Y-21503917D01*
X53217795Y-21523373D01*
X53285892Y-21540697D01*
X53325996Y-21554088D01*
X53332677Y-21558079D01*
X53349081Y-21586342D01*
X53372601Y-21641109D01*
X53398684Y-21711588D01*
X53403858Y-21726769D01*
X53438044Y-21820896D01*
X53480477Y-21927101D01*
X53522003Y-22022473D01*
X53522208Y-22022916D01*
X53591360Y-22172525D01*
X53136488Y-22841617D01*
X53428500Y-23134116D01*
X53516820Y-23221170D01*
X53597375Y-23297909D01*
X53665640Y-23360237D01*
X53717092Y-23404056D01*
X53747206Y-23425270D01*
X53751526Y-23426616D01*
X53776889Y-23416016D01*
X53828642Y-23386547D01*
X53901132Y-23341705D01*
X53988706Y-23284984D01*
X54083388Y-23221462D01*
X54179484Y-23156668D01*
X54265163Y-23100287D01*
X54334984Y-23055788D01*
X54383506Y-23026639D01*
X54405218Y-23016308D01*
X54431707Y-23025050D01*
X54481938Y-23048087D01*
X54545549Y-23080631D01*
X54552292Y-23084249D01*
X54637954Y-23127210D01*
X54696694Y-23148279D01*
X54733228Y-23148503D01*
X54752269Y-23128928D01*
X54752380Y-23128654D01*
X54761898Y-23105472D01*
X54784597Y-23050441D01*
X54818718Y-22967822D01*
X54862500Y-22861872D01*
X54914184Y-22736852D01*
X54972008Y-22597020D01*
X55028009Y-22461637D01*
X55089553Y-22312234D01*
X55146061Y-22173832D01*
X55195839Y-22050673D01*
X55237194Y-21947002D01*
X55268432Y-21867059D01*
X55287859Y-21815088D01*
X55293846Y-21795692D01*
X55278832Y-21773443D01*
X55239561Y-21737982D01*
X55187193Y-21698887D01*
X55038059Y-21575245D01*
X54921489Y-21433522D01*
X54838882Y-21276704D01*
X54791634Y-21107775D01*
X54781143Y-20929722D01*
X54788769Y-20847539D01*
X54830318Y-20677031D01*
X54901877Y-20526459D01*
X54999005Y-20397309D01*
X55117266Y-20291064D01*
X55252220Y-20209210D01*
X55399429Y-20153232D01*
X55554456Y-20124615D01*
X55712861Y-20124844D01*
X55870206Y-20155405D01*
X56022054Y-20217782D01*
X56163965Y-20313460D01*
X56223197Y-20367572D01*
X56336797Y-20506520D01*
X56415894Y-20658361D01*
X56461014Y-20818667D01*
X56472684Y-20983012D01*
X56451431Y-21146971D01*
X56397780Y-21306118D01*
X56312260Y-21456025D01*
X56195395Y-21592267D01*
X56064807Y-21698887D01*
X56010412Y-21739642D01*
X55971986Y-21774718D01*
X55958154Y-21795726D01*
X55965397Y-21818635D01*
X55985995Y-21873365D01*
X56018254Y-21955672D01*
X56060479Y-22061315D01*
X56110977Y-22186050D01*
X56168052Y-22325636D01*
X56224146Y-22461670D01*
X56286033Y-22611201D01*
X56343356Y-22749767D01*
X56394356Y-22873107D01*
X56437273Y-22976964D01*
X56470347Y-23057080D01*
X56491819Y-23109195D01*
X56499775Y-23128654D01*
X56518571Y-23148423D01*
X56554926Y-23148365D01*
X56613521Y-23127441D01*
X56699032Y-23084613D01*
X56699708Y-23084249D01*
X56764093Y-23051012D01*
X56816139Y-23026802D01*
X56845488Y-23016404D01*
X56846783Y-23016308D01*
X56868876Y-23026855D01*
X56917652Y-23056184D01*
X56987669Y-23100827D01*
X57073486Y-23157314D01*
X57168612Y-23221462D01*
X57265460Y-23286411D01*
X57352747Y-23342896D01*
X57424819Y-23387421D01*
X57476023Y-23416490D01*
X57500474Y-23426616D01*
X57522990Y-23413307D01*
X57568258Y-23376112D01*
X57631756Y-23319128D01*
X57708961Y-23246449D01*
X57795349Y-23162171D01*
X57823601Y-23134016D01*
X58115713Y-22841416D01*
X57893369Y-22515104D01*
X57825798Y-22414897D01*
X57766493Y-22324963D01*
X57718783Y-22250510D01*
X57685993Y-22196751D01*
X57671452Y-22168894D01*
X57671026Y-22166912D01*
X57678692Y-22140655D01*
X57699311Y-22087837D01*
X57729315Y-22017310D01*
X57750375Y-21970093D01*
X57789752Y-21879694D01*
X57826835Y-21788366D01*
X57855585Y-21711200D01*
X57863395Y-21687692D01*
X57885583Y-21624916D01*
X57907273Y-21576411D01*
X57919187Y-21558079D01*
X57945477Y-21546859D01*
X58002858Y-21530954D01*
X58083882Y-21512167D01*
X58181105Y-21492299D01*
X58224615Y-21484132D01*
X58335104Y-21463829D01*
X58441084Y-21444170D01*
X58532199Y-21427088D01*
X58598092Y-21414518D01*
X58610500Y-21412091D01*
X58713077Y-21391845D01*
X58713077Y-20964701D01*
X58712847Y-20824246D01*
X58711901Y-20717979D01*
X58709859Y-20641013D01*
X58706338Y-20588460D01*
X58700957Y-20555433D01*
X58693334Y-20537045D01*
X58683088Y-20528408D01*
X58678885Y-20526807D01*
X58653530Y-20521127D01*
X58597516Y-20509795D01*
X58518036Y-20494179D01*
X58422288Y-20475647D01*
X58317467Y-20455569D01*
X58210768Y-20435312D01*
X58109387Y-20416246D01*
X58020521Y-20399739D01*
X57951363Y-20387159D01*
X57909111Y-20379875D01*
X57899710Y-20378616D01*
X57891193Y-20361763D01*
X57872340Y-20316870D01*
X57846676Y-20252430D01*
X57836877Y-20227192D01*
X57797352Y-20129686D01*
X57750808Y-20021959D01*
X57709123Y-19931172D01*
X57678450Y-19861753D01*
X57658044Y-19804710D01*
X57651232Y-19769777D01*
X57652318Y-19765095D01*
X57666715Y-19742991D01*
X57699588Y-19693831D01*
X57747410Y-19622848D01*
X57806652Y-19535278D01*
X57873785Y-19436357D01*
X57887059Y-19416830D01*
X57964954Y-19301140D01*
X58022213Y-19213044D01*
X58061119Y-19148486D01*
X58083956Y-19103411D01*
X58093006Y-19073763D01*
X58090552Y-19055485D01*
X58090489Y-19055369D01*
X58071173Y-19031361D01*
X58028449Y-18984947D01*
X57966949Y-18920937D01*
X57891302Y-18844145D01*
X57806139Y-18759382D01*
X57796535Y-18749922D01*
X57689210Y-18645989D01*
X57606385Y-18569675D01*
X57546395Y-18519571D01*
X57507577Y-18494270D01*
X57490480Y-18491004D01*
X57465527Y-18505250D01*
X57413745Y-18538156D01*
X57340480Y-18586208D01*
X57251080Y-18645890D01*
X57150889Y-18713688D01*
X57127499Y-18729639D01*
X56795407Y-18956420D01*
X56645435Y-18888353D01*
X56554230Y-18848685D01*
X56456331Y-18808791D01*
X56372169Y-18776983D01*
X56368462Y-18775674D01*
X56302631Y-18751576D01*
X56251884Y-18731200D01*
X56227158Y-18718936D01*
X56227116Y-18718901D01*
X56219271Y-18696734D01*
X56205934Y-18642217D01*
X56188430Y-18561480D01*
X56168083Y-18460650D01*
X56146218Y-18345856D01*
X56144429Y-18336178D01*
X56122496Y-18217904D01*
X56102360Y-18110542D01*
X56085320Y-18020917D01*
X56072672Y-17955851D01*
X56065716Y-17922168D01*
X56065594Y-17921654D01*
X56061361Y-17907325D01*
X56053129Y-17896507D01*
X56035967Y-17888706D01*
X56004942Y-17883429D01*
X55955122Y-17880182D01*
X55881576Y-17878472D01*
X55779371Y-17877807D01*
X55643575Y-17877693D01*
X55626000Y-17877692D01*
X55486122Y-17877776D01*
D10*
X59102190Y-41092380D02*
X59102190Y-40092380D01*
X58530761Y-41092380D02*
X58959333Y-40520952D01*
X58530761Y-40092380D02*
X59102190Y-40663809D01*
X58340285Y-41187619D02*
X57578380Y-41187619D01*
X57006952Y-40568571D02*
X56864095Y-40616190D01*
X56816476Y-40663809D01*
X56768857Y-40759047D01*
X56768857Y-40901904D01*
X56816476Y-40997142D01*
X56864095Y-41044761D01*
X56959333Y-41092380D01*
X57340285Y-41092380D01*
X57340285Y-40092380D01*
X57006952Y-40092380D01*
X56911714Y-40140000D01*
X56864095Y-40187619D01*
X56816476Y-40282857D01*
X56816476Y-40378095D01*
X56864095Y-40473333D01*
X56911714Y-40520952D01*
X57006952Y-40568571D01*
X57340285Y-40568571D01*
X56340285Y-41092380D02*
X56340285Y-40092380D01*
X55768857Y-41092380D02*
X56197428Y-40520952D01*
X55768857Y-40092380D02*
X56340285Y-40663809D01*
X55387904Y-41044761D02*
X55245047Y-41092380D01*
X55006952Y-41092380D01*
X54911714Y-41044761D01*
X54864095Y-40997142D01*
X54816476Y-40901904D01*
X54816476Y-40806666D01*
X54864095Y-40711428D01*
X54911714Y-40663809D01*
X55006952Y-40616190D01*
X55197428Y-40568571D01*
X55292666Y-40520952D01*
X55340285Y-40473333D01*
X55387904Y-40378095D01*
X55387904Y-40282857D01*
X55340285Y-40187619D01*
X55292666Y-40140000D01*
X55197428Y-40092380D01*
X54959333Y-40092380D01*
X54816476Y-40140000D01*
X54387904Y-41092380D02*
X54387904Y-40092380D01*
X54006952Y-40092380D01*
X53911714Y-40140000D01*
X53864095Y-40187619D01*
X53816476Y-40282857D01*
X53816476Y-40425714D01*
X53864095Y-40520952D01*
X53911714Y-40568571D01*
X54006952Y-40616190D01*
X54387904Y-40616190D01*
X53626000Y-41187619D02*
X52864095Y-41187619D01*
X52102190Y-41092380D02*
X52673619Y-41092380D01*
X52387904Y-41092380D02*
X52387904Y-40092380D01*
X52483142Y-40235238D01*
X52578380Y-40330476D01*
X52673619Y-40378095D01*
X60874698Y-77922380D02*
X60874698Y-76922380D01*
X60303270Y-77922380D02*
X60731841Y-77350952D01*
X60303270Y-76922380D02*
X60874698Y-77493809D01*
X60112794Y-78017619D02*
X59350889Y-78017619D01*
X59112794Y-77398571D02*
X58779460Y-77398571D01*
X58636603Y-77922380D02*
X59112794Y-77922380D01*
X59112794Y-76922380D01*
X58636603Y-76922380D01*
X58208032Y-77922380D02*
X58208032Y-76922380D01*
X57636603Y-77922380D01*
X57636603Y-76922380D01*
X57303270Y-76922380D02*
X56731841Y-76922380D01*
X57017555Y-77922380D02*
X57017555Y-76922380D01*
X56398508Y-77398571D02*
X56065175Y-77398571D01*
X55922317Y-77922380D02*
X56398508Y-77922380D01*
X56398508Y-76922380D01*
X55922317Y-76922380D01*
X54922317Y-77922380D02*
X55255651Y-77446190D01*
X55493746Y-77922380D02*
X55493746Y-76922380D01*
X55112794Y-76922380D01*
X55017555Y-76970000D01*
X54969936Y-77017619D01*
X54922317Y-77112857D01*
X54922317Y-77255714D01*
X54969936Y-77350952D01*
X55017555Y-77398571D01*
X55112794Y-77446190D01*
X55493746Y-77446190D01*
X54731841Y-78017619D02*
X53969936Y-78017619D01*
X53731841Y-77922380D02*
X53731841Y-77255714D01*
X53731841Y-77446190D02*
X53684222Y-77350952D01*
X53636603Y-77303333D01*
X53541365Y-77255714D01*
X53446127Y-77255714D01*
X52731841Y-77874761D02*
X52827079Y-77922380D01*
X53017555Y-77922380D01*
X53112794Y-77874761D01*
X53160413Y-77779523D01*
X53160413Y-77398571D01*
X53112794Y-77303333D01*
X53017555Y-77255714D01*
X52827079Y-77255714D01*
X52731841Y-77303333D01*
X52684222Y-77398571D01*
X52684222Y-77493809D01*
X53160413Y-77589047D01*
X52350889Y-77255714D02*
X52112794Y-77922380D01*
X51874698Y-77255714D01*
X51731841Y-78017619D02*
X50969936Y-78017619D01*
X50779460Y-77017619D02*
X50731841Y-76970000D01*
X50636603Y-76922380D01*
X50398508Y-76922380D01*
X50303270Y-76970000D01*
X50255651Y-77017619D01*
X50208032Y-77112857D01*
X50208032Y-77208095D01*
X50255651Y-77350952D01*
X50827079Y-77922380D01*
X50208032Y-77922380D01*
X49779460Y-77827142D02*
X49731841Y-77874761D01*
X49779460Y-77922380D01*
X49827079Y-77874761D01*
X49779460Y-77827142D01*
X49779460Y-77922380D01*
X49350889Y-77017619D02*
X49303270Y-76970000D01*
X49208032Y-76922380D01*
X48969936Y-76922380D01*
X48874698Y-76970000D01*
X48827079Y-77017619D01*
X48779460Y-77112857D01*
X48779460Y-77208095D01*
X48827079Y-77350952D01*
X49398508Y-77922380D01*
X48779460Y-77922380D01*
X47874698Y-76922380D02*
X48350889Y-76922380D01*
X48398508Y-77398571D01*
X48350889Y-77350952D01*
X48255651Y-77303333D01*
X48017555Y-77303333D01*
X47922317Y-77350952D01*
X47874698Y-77398571D01*
X47827079Y-77493809D01*
X47827079Y-77731904D01*
X47874698Y-77827142D01*
X47922317Y-77874761D01*
X48017555Y-77922380D01*
X48255651Y-77922380D01*
X48350889Y-77874761D01*
X48398508Y-77827142D01*
X46969936Y-77255714D02*
X46969936Y-77922380D01*
X47398508Y-77255714D02*
X47398508Y-77779523D01*
X47350889Y-77874761D01*
X47255651Y-77922380D01*
X47112794Y-77922380D01*
X47017555Y-77874761D01*
X46969936Y-77827142D01*
X46731841Y-78017619D02*
X45969936Y-78017619D01*
X45208032Y-77922380D02*
X45779460Y-77922380D01*
X45493746Y-77922380D02*
X45493746Y-76922380D01*
X45588984Y-77065238D01*
X45684222Y-77160476D01*
X45779460Y-77208095D01*
X55617142Y-96210380D02*
X55617142Y-95210380D01*
X55045714Y-96210380D02*
X55474285Y-95638952D01*
X55045714Y-95210380D02*
X55617142Y-95781809D01*
X54855238Y-96305619D02*
X54093333Y-96305619D01*
X53902857Y-96162761D02*
X53760000Y-96210380D01*
X53521904Y-96210380D01*
X53426666Y-96162761D01*
X53379047Y-96115142D01*
X53331428Y-96019904D01*
X53331428Y-95924666D01*
X53379047Y-95829428D01*
X53426666Y-95781809D01*
X53521904Y-95734190D01*
X53712380Y-95686571D01*
X53807619Y-95638952D01*
X53855238Y-95591333D01*
X53902857Y-95496095D01*
X53902857Y-95400857D01*
X53855238Y-95305619D01*
X53807619Y-95258000D01*
X53712380Y-95210380D01*
X53474285Y-95210380D01*
X53331428Y-95258000D01*
X52902857Y-96210380D02*
X52902857Y-95210380D01*
X52902857Y-95686571D02*
X52331428Y-95686571D01*
X52331428Y-96210380D02*
X52331428Y-95210380D01*
X51855238Y-96210380D02*
X51855238Y-95210380D01*
X51045714Y-95686571D02*
X51379047Y-95686571D01*
X51379047Y-96210380D02*
X51379047Y-95210380D01*
X50902857Y-95210380D01*
X50664761Y-95210380D02*
X50093333Y-95210380D01*
X50379047Y-96210380D02*
X50379047Y-95210380D01*
X49998095Y-96305619D02*
X49236190Y-96305619D01*
X48426666Y-96210380D02*
X48760000Y-95734190D01*
X48998095Y-96210380D02*
X48998095Y-95210380D01*
X48617142Y-95210380D01*
X48521904Y-95258000D01*
X48474285Y-95305619D01*
X48426666Y-95400857D01*
X48426666Y-95543714D01*
X48474285Y-95638952D01*
X48521904Y-95686571D01*
X48617142Y-95734190D01*
X48998095Y-95734190D01*
X47998095Y-95686571D02*
X47664761Y-95686571D01*
X47521904Y-96210380D02*
X47998095Y-96210380D01*
X47998095Y-95210380D01*
X47521904Y-95210380D01*
X47236190Y-95210380D02*
X46902857Y-96210380D01*
X46569523Y-95210380D01*
X46474285Y-96305619D02*
X45712380Y-96305619D01*
X45521904Y-95305619D02*
X45474285Y-95258000D01*
X45379047Y-95210380D01*
X45140952Y-95210380D01*
X45045714Y-95258000D01*
X44998095Y-95305619D01*
X44950476Y-95400857D01*
X44950476Y-95496095D01*
X44998095Y-95638952D01*
X45569523Y-96210380D01*
X44950476Y-96210380D01*
X44521904Y-96115142D02*
X44474285Y-96162761D01*
X44521904Y-96210380D01*
X44569523Y-96162761D01*
X44521904Y-96115142D01*
X44521904Y-96210380D01*
X44140952Y-95210380D02*
X43474285Y-95210380D01*
X43902857Y-96210380D01*
X42617142Y-95210380D02*
X43093333Y-95210380D01*
X43140952Y-95686571D01*
X43093333Y-95638952D01*
X42998095Y-95591333D01*
X42760000Y-95591333D01*
X42664761Y-95638952D01*
X42617142Y-95686571D01*
X42569523Y-95781809D01*
X42569523Y-96019904D01*
X42617142Y-96115142D01*
X42664761Y-96162761D01*
X42760000Y-96210380D01*
X42998095Y-96210380D01*
X43093333Y-96162761D01*
X43140952Y-96115142D01*
X42379047Y-96305619D02*
X41617142Y-96305619D01*
X40855238Y-96210380D02*
X41426666Y-96210380D01*
X41140952Y-96210380D02*
X41140952Y-95210380D01*
X41236190Y-95353238D01*
X41331428Y-95448476D01*
X41426666Y-95496095D01*
X62616171Y-59801880D02*
X62616171Y-58801880D01*
X62044742Y-59801880D02*
X62473314Y-59230452D01*
X62044742Y-58801880D02*
X62616171Y-59373309D01*
X61854266Y-59897119D02*
X61092361Y-59897119D01*
X60997123Y-58801880D02*
X60425695Y-58801880D01*
X60711409Y-59801880D02*
X60711409Y-58801880D01*
X60139980Y-59516166D02*
X59663790Y-59516166D01*
X60235219Y-59801880D02*
X59901885Y-58801880D01*
X59568552Y-59801880D01*
X58901885Y-59278071D02*
X58759028Y-59325690D01*
X58711409Y-59373309D01*
X58663790Y-59468547D01*
X58663790Y-59611404D01*
X58711409Y-59706642D01*
X58759028Y-59754261D01*
X58854266Y-59801880D01*
X59235219Y-59801880D01*
X59235219Y-58801880D01*
X58901885Y-58801880D01*
X58806647Y-58849500D01*
X58759028Y-58897119D01*
X58711409Y-58992357D01*
X58711409Y-59087595D01*
X58759028Y-59182833D01*
X58806647Y-59230452D01*
X58901885Y-59278071D01*
X59235219Y-59278071D01*
X57711409Y-59801880D02*
X58282838Y-59801880D01*
X57997123Y-59801880D02*
X57997123Y-58801880D01*
X58092361Y-58944738D01*
X58187600Y-59039976D01*
X58282838Y-59087595D01*
M02*
