G04 #@! TF.GenerationSoftware,KiCad,Pcbnew,(5.1.5)-3*
G04 #@! TF.CreationDate,2020-03-17T18:41:25+05:30*
G04 #@! TF.ProjectId,ergocape,6572676f-6361-4706-952e-6b696361645f,rev?*
G04 #@! TF.SameCoordinates,Original*
G04 #@! TF.FileFunction,Legend,Top*
G04 #@! TF.FilePolarity,Positive*
%FSLAX46Y46*%
G04 Gerber Fmt 4.6, Leading zero omitted, Abs format (unit mm)*
G04 Created by KiCad (PCBNEW (5.1.5)-3) date 2020-03-17 18:41:25*
%MOMM*%
%LPD*%
G04 APERTURE LIST*
%ADD10C,0.150000*%
%ADD11C,0.010000*%
G04 APERTURE END LIST*
D10*
X45086238Y-26439761D02*
X44991000Y-26487380D01*
X44800523Y-26487380D01*
X44705285Y-26439761D01*
X44657666Y-26392142D01*
X44610047Y-26296904D01*
X44610047Y-26011190D01*
X44657666Y-25915952D01*
X44705285Y-25868333D01*
X44800523Y-25820714D01*
X44991000Y-25820714D01*
X45086238Y-25868333D01*
X45514809Y-26487380D02*
X45514809Y-25820714D01*
X45514809Y-26011190D02*
X45562428Y-25915952D01*
X45610047Y-25868333D01*
X45705285Y-25820714D01*
X45800523Y-25820714D01*
X46514809Y-26439761D02*
X46419571Y-26487380D01*
X46229095Y-26487380D01*
X46133857Y-26439761D01*
X46086238Y-26344523D01*
X46086238Y-25963571D01*
X46133857Y-25868333D01*
X46229095Y-25820714D01*
X46419571Y-25820714D01*
X46514809Y-25868333D01*
X46562428Y-25963571D01*
X46562428Y-26058809D01*
X46086238Y-26154047D01*
X47419571Y-26487380D02*
X47419571Y-25963571D01*
X47371952Y-25868333D01*
X47276714Y-25820714D01*
X47086238Y-25820714D01*
X46991000Y-25868333D01*
X47419571Y-26439761D02*
X47324333Y-26487380D01*
X47086238Y-26487380D01*
X46991000Y-26439761D01*
X46943380Y-26344523D01*
X46943380Y-26249285D01*
X46991000Y-26154047D01*
X47086238Y-26106428D01*
X47324333Y-26106428D01*
X47419571Y-26058809D01*
X47752904Y-25820714D02*
X48133857Y-25820714D01*
X47895761Y-25487380D02*
X47895761Y-26344523D01*
X47943380Y-26439761D01*
X48038619Y-26487380D01*
X48133857Y-26487380D01*
X48848142Y-26439761D02*
X48752904Y-26487380D01*
X48562428Y-26487380D01*
X48467190Y-26439761D01*
X48419571Y-26344523D01*
X48419571Y-25963571D01*
X48467190Y-25868333D01*
X48562428Y-25820714D01*
X48752904Y-25820714D01*
X48848142Y-25868333D01*
X48895761Y-25963571D01*
X48895761Y-26058809D01*
X48419571Y-26154047D01*
X49752904Y-26487380D02*
X49752904Y-25487380D01*
X49752904Y-26439761D02*
X49657666Y-26487380D01*
X49467190Y-26487380D01*
X49371952Y-26439761D01*
X49324333Y-26392142D01*
X49276714Y-26296904D01*
X49276714Y-26011190D01*
X49324333Y-25915952D01*
X49371952Y-25868333D01*
X49467190Y-25820714D01*
X49657666Y-25820714D01*
X49752904Y-25868333D01*
X50991000Y-26487380D02*
X50991000Y-25487380D01*
X50991000Y-25868333D02*
X51086238Y-25820714D01*
X51276714Y-25820714D01*
X51371952Y-25868333D01*
X51419571Y-25915952D01*
X51467190Y-26011190D01*
X51467190Y-26296904D01*
X51419571Y-26392142D01*
X51371952Y-26439761D01*
X51276714Y-26487380D01*
X51086238Y-26487380D01*
X50991000Y-26439761D01*
X51800523Y-25820714D02*
X52038619Y-26487380D01*
X52276714Y-25820714D02*
X52038619Y-26487380D01*
X51943380Y-26725476D01*
X51895761Y-26773095D01*
X51800523Y-26820714D01*
X53848142Y-25820714D02*
X53848142Y-26487380D01*
X53419571Y-25820714D02*
X53419571Y-26344523D01*
X53467190Y-26439761D01*
X53562428Y-26487380D01*
X53705285Y-26487380D01*
X53800523Y-26439761D01*
X53848142Y-26392142D01*
X55038619Y-25439761D02*
X54181476Y-26725476D01*
X55371952Y-26487380D02*
X55371952Y-25487380D01*
X55371952Y-25963571D02*
X55943380Y-25963571D01*
X55943380Y-26487380D02*
X55943380Y-25487380D01*
X56848142Y-26487380D02*
X56848142Y-25963571D01*
X56800523Y-25868333D01*
X56705285Y-25820714D01*
X56514809Y-25820714D01*
X56419571Y-25868333D01*
X56848142Y-26439761D02*
X56752904Y-26487380D01*
X56514809Y-26487380D01*
X56419571Y-26439761D01*
X56371952Y-26344523D01*
X56371952Y-26249285D01*
X56419571Y-26154047D01*
X56514809Y-26106428D01*
X56752904Y-26106428D01*
X56848142Y-26058809D01*
X57324333Y-26487380D02*
X57324333Y-25820714D01*
X57324333Y-26011190D02*
X57371952Y-25915952D01*
X57419571Y-25868333D01*
X57514809Y-25820714D01*
X57610047Y-25820714D01*
X57895761Y-26439761D02*
X57990999Y-26487380D01*
X58181476Y-26487380D01*
X58276714Y-26439761D01*
X58324333Y-26344523D01*
X58324333Y-26296904D01*
X58276714Y-26201666D01*
X58181476Y-26154047D01*
X58038619Y-26154047D01*
X57943380Y-26106428D01*
X57895761Y-26011190D01*
X57895761Y-25963571D01*
X57943380Y-25868333D01*
X58038619Y-25820714D01*
X58181476Y-25820714D01*
X58276714Y-25868333D01*
X58752904Y-26487380D02*
X58752904Y-25487380D01*
X59181476Y-26487380D02*
X59181476Y-25963571D01*
X59133857Y-25868333D01*
X59038619Y-25820714D01*
X58895761Y-25820714D01*
X58800523Y-25868333D01*
X58752904Y-25915952D01*
X59657666Y-26487380D02*
X59657666Y-25820714D01*
X59657666Y-25487380D02*
X59610047Y-25535000D01*
X59657666Y-25582619D01*
X59705285Y-25535000D01*
X59657666Y-25487380D01*
X59657666Y-25582619D01*
X59990999Y-25820714D02*
X60371952Y-25820714D01*
X60133857Y-25487380D02*
X60133857Y-26344523D01*
X60181476Y-26439761D01*
X60276714Y-26487380D01*
X60371952Y-26487380D01*
X61133857Y-25820714D02*
X61133857Y-26630238D01*
X61086238Y-26725476D01*
X61038619Y-26773095D01*
X60943380Y-26820714D01*
X60800523Y-26820714D01*
X60705285Y-26773095D01*
X61133857Y-26439761D02*
X61038619Y-26487380D01*
X60848142Y-26487380D01*
X60752904Y-26439761D01*
X60705285Y-26392142D01*
X60657666Y-26296904D01*
X60657666Y-26011190D01*
X60705285Y-25915952D01*
X60752904Y-25868333D01*
X60848142Y-25820714D01*
X61038619Y-25820714D01*
X61133857Y-25868333D01*
X61752904Y-26487380D02*
X61657666Y-26439761D01*
X61610047Y-26392142D01*
X61562428Y-26296904D01*
X61562428Y-26011190D01*
X61610047Y-25915952D01*
X61657666Y-25868333D01*
X61752904Y-25820714D01*
X61895761Y-25820714D01*
X61990999Y-25868333D01*
X62038619Y-25915952D01*
X62086238Y-26011190D01*
X62086238Y-26296904D01*
X62038619Y-26392142D01*
X61990999Y-26439761D01*
X61895761Y-26487380D01*
X61752904Y-26487380D01*
X62895761Y-26439761D02*
X62800523Y-26487380D01*
X62610047Y-26487380D01*
X62514809Y-26439761D01*
X62467190Y-26344523D01*
X62467190Y-25963571D01*
X62514809Y-25868333D01*
X62610047Y-25820714D01*
X62800523Y-25820714D01*
X62895761Y-25868333D01*
X62943380Y-25963571D01*
X62943380Y-26058809D01*
X62467190Y-26154047D01*
X63514809Y-26487380D02*
X63419571Y-26439761D01*
X63371952Y-26344523D01*
X63371952Y-25487380D01*
X63943380Y-26487380D02*
X64133857Y-26487380D01*
X64229095Y-26439761D01*
X64276714Y-26392142D01*
X64371952Y-26249285D01*
X64419571Y-26058809D01*
X64419571Y-25677857D01*
X64371952Y-25582619D01*
X64324333Y-25535000D01*
X64229095Y-25487380D01*
X64038619Y-25487380D01*
X63943380Y-25535000D01*
X63895761Y-25582619D01*
X63848142Y-25677857D01*
X63848142Y-25915952D01*
X63895761Y-26011190D01*
X63943380Y-26058809D01*
X64038619Y-26106428D01*
X64229095Y-26106428D01*
X64324333Y-26058809D01*
X64371952Y-26011190D01*
X64419571Y-25915952D01*
X65276714Y-25487380D02*
X65086238Y-25487380D01*
X64990999Y-25535000D01*
X64943380Y-25582619D01*
X64848142Y-25725476D01*
X64800523Y-25915952D01*
X64800523Y-26296904D01*
X64848142Y-26392142D01*
X64895761Y-26439761D01*
X64990999Y-26487380D01*
X65181476Y-26487380D01*
X65276714Y-26439761D01*
X65324333Y-26392142D01*
X65371952Y-26296904D01*
X65371952Y-26058809D01*
X65324333Y-25963571D01*
X65276714Y-25915952D01*
X65181476Y-25868333D01*
X64990999Y-25868333D01*
X64895761Y-25915952D01*
X64848142Y-25963571D01*
X64800523Y-26058809D01*
X98322238Y-19327761D02*
X98227000Y-19375380D01*
X98036523Y-19375380D01*
X97941285Y-19327761D01*
X97893666Y-19280142D01*
X97846047Y-19184904D01*
X97846047Y-18899190D01*
X97893666Y-18803952D01*
X97941285Y-18756333D01*
X98036523Y-18708714D01*
X98227000Y-18708714D01*
X98322238Y-18756333D01*
X99179380Y-19375380D02*
X99179380Y-18851571D01*
X99131761Y-18756333D01*
X99036523Y-18708714D01*
X98846047Y-18708714D01*
X98750809Y-18756333D01*
X99179380Y-19327761D02*
X99084142Y-19375380D01*
X98846047Y-19375380D01*
X98750809Y-19327761D01*
X98703190Y-19232523D01*
X98703190Y-19137285D01*
X98750809Y-19042047D01*
X98846047Y-18994428D01*
X99084142Y-18994428D01*
X99179380Y-18946809D01*
X99655571Y-18708714D02*
X99655571Y-19708714D01*
X99655571Y-18756333D02*
X99750809Y-18708714D01*
X99941285Y-18708714D01*
X100036523Y-18756333D01*
X100084142Y-18803952D01*
X100131761Y-18899190D01*
X100131761Y-19184904D01*
X100084142Y-19280142D01*
X100036523Y-19327761D01*
X99941285Y-19375380D01*
X99750809Y-19375380D01*
X99655571Y-19327761D01*
X100417476Y-18708714D02*
X100798428Y-18708714D01*
X100560333Y-18375380D02*
X100560333Y-19232523D01*
X100607952Y-19327761D01*
X100703190Y-19375380D01*
X100798428Y-19375380D01*
X101131761Y-18708714D02*
X101131761Y-19375380D01*
X101131761Y-18803952D02*
X101179380Y-18756333D01*
X101274619Y-18708714D01*
X101417476Y-18708714D01*
X101512714Y-18756333D01*
X101560333Y-18851571D01*
X101560333Y-19375380D01*
X101941285Y-18375380D02*
X102560333Y-18375380D01*
X102227000Y-18756333D01*
X102369857Y-18756333D01*
X102465095Y-18803952D01*
X102512714Y-18851571D01*
X102560333Y-18946809D01*
X102560333Y-19184904D01*
X102512714Y-19280142D01*
X102465095Y-19327761D01*
X102369857Y-19375380D01*
X102084142Y-19375380D01*
X101988904Y-19327761D01*
X101941285Y-19280142D01*
X102988904Y-19375380D02*
X102988904Y-18708714D01*
X102988904Y-18803952D02*
X103036523Y-18756333D01*
X103131761Y-18708714D01*
X103274619Y-18708714D01*
X103369857Y-18756333D01*
X103417476Y-18851571D01*
X103417476Y-19375380D01*
X103417476Y-18851571D02*
X103465095Y-18756333D01*
X103560333Y-18708714D01*
X103703190Y-18708714D01*
X103798428Y-18756333D01*
X103846047Y-18851571D01*
X103846047Y-19375380D01*
X104512714Y-18375380D02*
X104607952Y-18375380D01*
X104703190Y-18423000D01*
X104750809Y-18470619D01*
X104798428Y-18565857D01*
X104846047Y-18756333D01*
X104846047Y-18994428D01*
X104798428Y-19184904D01*
X104750809Y-19280142D01*
X104703190Y-19327761D01*
X104607952Y-19375380D01*
X104512714Y-19375380D01*
X104417476Y-19327761D01*
X104369857Y-19280142D01*
X104322238Y-19184904D01*
X104274619Y-18994428D01*
X104274619Y-18756333D01*
X104322238Y-18565857D01*
X104369857Y-18470619D01*
X104417476Y-18423000D01*
X104512714Y-18375380D01*
X144867809Y-18835714D02*
X144867809Y-19502380D01*
X144439238Y-18835714D02*
X144439238Y-19359523D01*
X144486857Y-19454761D01*
X144582095Y-19502380D01*
X144724952Y-19502380D01*
X144820190Y-19454761D01*
X144867809Y-19407142D01*
X146058285Y-18454761D02*
X145201142Y-19740476D01*
X146391619Y-19502380D02*
X146391619Y-18502380D01*
X146629714Y-18502380D01*
X146772571Y-18550000D01*
X146867809Y-18645238D01*
X146915428Y-18740476D01*
X146963047Y-18930952D01*
X146963047Y-19073809D01*
X146915428Y-19264285D01*
X146867809Y-19359523D01*
X146772571Y-19454761D01*
X146629714Y-19502380D01*
X146391619Y-19502380D01*
X147772571Y-19454761D02*
X147677333Y-19502380D01*
X147486857Y-19502380D01*
X147391619Y-19454761D01*
X147344000Y-19359523D01*
X147344000Y-18978571D01*
X147391619Y-18883333D01*
X147486857Y-18835714D01*
X147677333Y-18835714D01*
X147772571Y-18883333D01*
X147820190Y-18978571D01*
X147820190Y-19073809D01*
X147344000Y-19169047D01*
X148391619Y-19502380D02*
X148296380Y-19454761D01*
X148248761Y-19359523D01*
X148248761Y-18502380D01*
X148629714Y-18835714D02*
X149010666Y-18835714D01*
X148772571Y-18502380D02*
X148772571Y-19359523D01*
X148820190Y-19454761D01*
X148915428Y-19502380D01*
X149010666Y-19502380D01*
X149772571Y-19502380D02*
X149772571Y-18978571D01*
X149724952Y-18883333D01*
X149629714Y-18835714D01*
X149439238Y-18835714D01*
X149344000Y-18883333D01*
X149772571Y-19454761D02*
X149677333Y-19502380D01*
X149439238Y-19502380D01*
X149344000Y-19454761D01*
X149296380Y-19359523D01*
X149296380Y-19264285D01*
X149344000Y-19169047D01*
X149439238Y-19121428D01*
X149677333Y-19121428D01*
X149772571Y-19073809D01*
X150010666Y-19597619D02*
X150772571Y-19597619D01*
X150867809Y-18502380D02*
X151439238Y-18502380D01*
X151153523Y-19502380D02*
X151153523Y-18502380D01*
X151677333Y-18835714D02*
X151867809Y-19502380D01*
X152058285Y-19026190D01*
X152248761Y-19502380D01*
X152439238Y-18835714D01*
X152963047Y-19502380D02*
X152867809Y-19454761D01*
X152820190Y-19407142D01*
X152772571Y-19311904D01*
X152772571Y-19026190D01*
X152820190Y-18930952D01*
X152867809Y-18883333D01*
X152963047Y-18835714D01*
X153105904Y-18835714D01*
X153201142Y-18883333D01*
X153248761Y-18930952D01*
X153296380Y-19026190D01*
X153296380Y-19311904D01*
X153248761Y-19407142D01*
X153201142Y-19454761D01*
X153105904Y-19502380D01*
X152963047Y-19502380D01*
X133802714Y-18502380D02*
X133802714Y-18692857D01*
X134183666Y-18502380D02*
X134183666Y-18692857D01*
X134469380Y-18502380D02*
X135040809Y-18502380D01*
X134755095Y-19502380D02*
X134755095Y-18502380D01*
X135802714Y-19502380D02*
X135802714Y-18978571D01*
X135755095Y-18883333D01*
X135659857Y-18835714D01*
X135469380Y-18835714D01*
X135374142Y-18883333D01*
X135802714Y-19454761D02*
X135707476Y-19502380D01*
X135469380Y-19502380D01*
X135374142Y-19454761D01*
X135326523Y-19359523D01*
X135326523Y-19264285D01*
X135374142Y-19169047D01*
X135469380Y-19121428D01*
X135707476Y-19121428D01*
X135802714Y-19073809D01*
X136183666Y-18835714D02*
X136707476Y-18835714D01*
X136183666Y-19502380D01*
X136707476Y-19502380D01*
X136993190Y-18835714D02*
X137517000Y-18835714D01*
X136993190Y-19502380D01*
X137517000Y-19502380D01*
X137850333Y-18502380D02*
X137850333Y-18692857D01*
X138231285Y-18502380D02*
X138231285Y-18692857D01*
X117459761Y-18835714D02*
X117459761Y-19502380D01*
X117031190Y-18835714D02*
X117031190Y-19359523D01*
X117078809Y-19454761D01*
X117174047Y-19502380D01*
X117316904Y-19502380D01*
X117412142Y-19454761D01*
X117459761Y-19407142D01*
X118650238Y-18454761D02*
X117793095Y-19740476D01*
X118935952Y-19454761D02*
X119078809Y-19502380D01*
X119316904Y-19502380D01*
X119412142Y-19454761D01*
X119459761Y-19407142D01*
X119507380Y-19311904D01*
X119507380Y-19216666D01*
X119459761Y-19121428D01*
X119412142Y-19073809D01*
X119316904Y-19026190D01*
X119126428Y-18978571D01*
X119031190Y-18930952D01*
X118983571Y-18883333D01*
X118935952Y-18788095D01*
X118935952Y-18692857D01*
X118983571Y-18597619D01*
X119031190Y-18550000D01*
X119126428Y-18502380D01*
X119364523Y-18502380D01*
X119507380Y-18550000D01*
X120316904Y-19454761D02*
X120221666Y-19502380D01*
X120031190Y-19502380D01*
X119935952Y-19454761D01*
X119888333Y-19359523D01*
X119888333Y-18978571D01*
X119935952Y-18883333D01*
X120031190Y-18835714D01*
X120221666Y-18835714D01*
X120316904Y-18883333D01*
X120364523Y-18978571D01*
X120364523Y-19073809D01*
X119888333Y-19169047D01*
X120793095Y-18835714D02*
X120793095Y-19502380D01*
X120793095Y-18930952D02*
X120840714Y-18883333D01*
X120935952Y-18835714D01*
X121078809Y-18835714D01*
X121174047Y-18883333D01*
X121221666Y-18978571D01*
X121221666Y-19502380D01*
X121840714Y-19502380D02*
X121745476Y-19454761D01*
X121697857Y-19407142D01*
X121650238Y-19311904D01*
X121650238Y-19026190D01*
X121697857Y-18930952D01*
X121745476Y-18883333D01*
X121840714Y-18835714D01*
X121983571Y-18835714D01*
X122078809Y-18883333D01*
X122126428Y-18930952D01*
X122174047Y-19026190D01*
X122174047Y-19311904D01*
X122126428Y-19407142D01*
X122078809Y-19454761D01*
X121983571Y-19502380D01*
X121840714Y-19502380D01*
X122602619Y-19502380D02*
X122602619Y-18835714D01*
X122602619Y-19026190D02*
X122650238Y-18930952D01*
X122697857Y-18883333D01*
X122793095Y-18835714D01*
X122888333Y-18835714D01*
X122983571Y-19597619D02*
X123745476Y-19597619D01*
X124507380Y-18550000D02*
X124412142Y-18502380D01*
X124269285Y-18502380D01*
X124126428Y-18550000D01*
X124031190Y-18645238D01*
X123983571Y-18740476D01*
X123935952Y-18930952D01*
X123935952Y-19073809D01*
X123983571Y-19264285D01*
X124031190Y-19359523D01*
X124126428Y-19454761D01*
X124269285Y-19502380D01*
X124364523Y-19502380D01*
X124507380Y-19454761D01*
X124555000Y-19407142D01*
X124555000Y-19073809D01*
X124364523Y-19073809D01*
X125126428Y-19502380D02*
X125031190Y-19454761D01*
X124983571Y-19407142D01*
X124935952Y-19311904D01*
X124935952Y-19026190D01*
X124983571Y-18930952D01*
X125031190Y-18883333D01*
X125126428Y-18835714D01*
X125269285Y-18835714D01*
X125364523Y-18883333D01*
X125412142Y-18930952D01*
X125459761Y-19026190D01*
X125459761Y-19311904D01*
X125412142Y-19407142D01*
X125364523Y-19454761D01*
X125269285Y-19502380D01*
X125126428Y-19502380D01*
X126031190Y-19502380D02*
X125935952Y-19454761D01*
X125888333Y-19407142D01*
X125840714Y-19311904D01*
X125840714Y-19026190D01*
X125888333Y-18930952D01*
X125935952Y-18883333D01*
X126031190Y-18835714D01*
X126174047Y-18835714D01*
X126269285Y-18883333D01*
X126316904Y-18930952D01*
X126364523Y-19026190D01*
X126364523Y-19311904D01*
X126316904Y-19407142D01*
X126269285Y-19454761D01*
X126174047Y-19502380D01*
X126031190Y-19502380D01*
X126793095Y-19502380D02*
X126793095Y-18502380D01*
X126793095Y-18883333D02*
X126888333Y-18835714D01*
X127078809Y-18835714D01*
X127174047Y-18883333D01*
X127221666Y-18930952D01*
X127269285Y-19026190D01*
X127269285Y-19311904D01*
X127221666Y-19407142D01*
X127174047Y-19454761D01*
X127078809Y-19502380D01*
X126888333Y-19502380D01*
X126793095Y-19454761D01*
X128078809Y-19454761D02*
X127983571Y-19502380D01*
X127793095Y-19502380D01*
X127697857Y-19454761D01*
X127650238Y-19359523D01*
X127650238Y-18978571D01*
X127697857Y-18883333D01*
X127793095Y-18835714D01*
X127983571Y-18835714D01*
X128078809Y-18883333D01*
X128126428Y-18978571D01*
X128126428Y-19073809D01*
X127650238Y-19169047D01*
D11*
G36*
X55765878Y-17877776D02*
G01*
X55871612Y-17878355D01*
X55948132Y-17879922D01*
X56000372Y-17882972D01*
X56033263Y-17887996D01*
X56051737Y-17895489D01*
X56060727Y-17905944D01*
X56065163Y-17919853D01*
X56065594Y-17921654D01*
X56072333Y-17954145D01*
X56084808Y-18018252D01*
X56101719Y-18107151D01*
X56121771Y-18214019D01*
X56143664Y-18332033D01*
X56144429Y-18336178D01*
X56166359Y-18451831D01*
X56186877Y-18554014D01*
X56204659Y-18636598D01*
X56218381Y-18693456D01*
X56226718Y-18718458D01*
X56227116Y-18718901D01*
X56251677Y-18731110D01*
X56302315Y-18751456D01*
X56368095Y-18775545D01*
X56368461Y-18775674D01*
X56451317Y-18806818D01*
X56549000Y-18846491D01*
X56641077Y-18886381D01*
X56645434Y-18888353D01*
X56795407Y-18956420D01*
X57127498Y-18729639D01*
X57229374Y-18660504D01*
X57321657Y-18598697D01*
X57399003Y-18547733D01*
X57456064Y-18511127D01*
X57487495Y-18492394D01*
X57490479Y-18491004D01*
X57513321Y-18497190D01*
X57555982Y-18527035D01*
X57620128Y-18581947D01*
X57707421Y-18663334D01*
X57796535Y-18749922D01*
X57882441Y-18835247D01*
X57959327Y-18913108D01*
X58022564Y-18978697D01*
X58067523Y-19027205D01*
X58089576Y-19053825D01*
X58090396Y-19055195D01*
X58092834Y-19073463D01*
X58083650Y-19103295D01*
X58060574Y-19148721D01*
X58021337Y-19213770D01*
X57963670Y-19302470D01*
X57886795Y-19416657D01*
X57818570Y-19517162D01*
X57757582Y-19607303D01*
X57707356Y-19681849D01*
X57671416Y-19735565D01*
X57653287Y-19763218D01*
X57652146Y-19765095D01*
X57654359Y-19791590D01*
X57671138Y-19843086D01*
X57699142Y-19909851D01*
X57709122Y-19931172D01*
X57752672Y-20026159D01*
X57799134Y-20133937D01*
X57836877Y-20227192D01*
X57864073Y-20296406D01*
X57885675Y-20349006D01*
X57898158Y-20376497D01*
X57899709Y-20378616D01*
X57922668Y-20382124D01*
X57976786Y-20391738D01*
X58054868Y-20406089D01*
X58149719Y-20423807D01*
X58254143Y-20443525D01*
X58360944Y-20463874D01*
X58462926Y-20483486D01*
X58552894Y-20500991D01*
X58623653Y-20515022D01*
X58668006Y-20524209D01*
X58678885Y-20526807D01*
X58690122Y-20533218D01*
X58698605Y-20547697D01*
X58704714Y-20575133D01*
X58708832Y-20620411D01*
X58711341Y-20688420D01*
X58712621Y-20784047D01*
X58713054Y-20912180D01*
X58713077Y-20964701D01*
X58713077Y-21391845D01*
X58610500Y-21412091D01*
X58553431Y-21423070D01*
X58468269Y-21439095D01*
X58365372Y-21458233D01*
X58255096Y-21478551D01*
X58224615Y-21484132D01*
X58122855Y-21503917D01*
X58034205Y-21523373D01*
X57966108Y-21540697D01*
X57926004Y-21554088D01*
X57919323Y-21558079D01*
X57902919Y-21586342D01*
X57879399Y-21641109D01*
X57853316Y-21711588D01*
X57848142Y-21726769D01*
X57813956Y-21820896D01*
X57771523Y-21927101D01*
X57729997Y-22022473D01*
X57729792Y-22022916D01*
X57660640Y-22172525D01*
X58115512Y-22841617D01*
X57823500Y-23134116D01*
X57735180Y-23221170D01*
X57654625Y-23297909D01*
X57586360Y-23360237D01*
X57534908Y-23404056D01*
X57504794Y-23425270D01*
X57500474Y-23426616D01*
X57475111Y-23416016D01*
X57423358Y-23386547D01*
X57350868Y-23341705D01*
X57263294Y-23284984D01*
X57168612Y-23221462D01*
X57072516Y-23156668D01*
X56986837Y-23100287D01*
X56917016Y-23055788D01*
X56868494Y-23026639D01*
X56846782Y-23016308D01*
X56820293Y-23025050D01*
X56770062Y-23048087D01*
X56706451Y-23080631D01*
X56699708Y-23084249D01*
X56614046Y-23127210D01*
X56555306Y-23148279D01*
X56518772Y-23148503D01*
X56499731Y-23128928D01*
X56499620Y-23128654D01*
X56490102Y-23105472D01*
X56467403Y-23050441D01*
X56433282Y-22967822D01*
X56389500Y-22861872D01*
X56337816Y-22736852D01*
X56279992Y-22597020D01*
X56223991Y-22461637D01*
X56162447Y-22312234D01*
X56105939Y-22173832D01*
X56056161Y-22050673D01*
X56014806Y-21947002D01*
X55983568Y-21867059D01*
X55964141Y-21815088D01*
X55958154Y-21795692D01*
X55973168Y-21773443D01*
X56012439Y-21737982D01*
X56064807Y-21698887D01*
X56213941Y-21575245D01*
X56330511Y-21433522D01*
X56413118Y-21276704D01*
X56460366Y-21107775D01*
X56470857Y-20929722D01*
X56463231Y-20847539D01*
X56421682Y-20677031D01*
X56350123Y-20526459D01*
X56252995Y-20397309D01*
X56134734Y-20291064D01*
X55999780Y-20209210D01*
X55852571Y-20153232D01*
X55697544Y-20124615D01*
X55539139Y-20124844D01*
X55381794Y-20155405D01*
X55229946Y-20217782D01*
X55088035Y-20313460D01*
X55028803Y-20367572D01*
X54915203Y-20506520D01*
X54836106Y-20658361D01*
X54790986Y-20818667D01*
X54779316Y-20983012D01*
X54800569Y-21146971D01*
X54854220Y-21306118D01*
X54939740Y-21456025D01*
X55056605Y-21592267D01*
X55187193Y-21698887D01*
X55241588Y-21739642D01*
X55280014Y-21774718D01*
X55293846Y-21795726D01*
X55286603Y-21818635D01*
X55266005Y-21873365D01*
X55233746Y-21955672D01*
X55191521Y-22061315D01*
X55141023Y-22186050D01*
X55083948Y-22325636D01*
X55027854Y-22461670D01*
X54965967Y-22611201D01*
X54908644Y-22749767D01*
X54857644Y-22873107D01*
X54814727Y-22976964D01*
X54781653Y-23057080D01*
X54760181Y-23109195D01*
X54752225Y-23128654D01*
X54733429Y-23148423D01*
X54697074Y-23148365D01*
X54638479Y-23127441D01*
X54552968Y-23084613D01*
X54552292Y-23084249D01*
X54487907Y-23051012D01*
X54435861Y-23026802D01*
X54406512Y-23016404D01*
X54405217Y-23016308D01*
X54383124Y-23026855D01*
X54334348Y-23056184D01*
X54264331Y-23100827D01*
X54178514Y-23157314D01*
X54083388Y-23221462D01*
X53986540Y-23286411D01*
X53899253Y-23342896D01*
X53827181Y-23387421D01*
X53775977Y-23416490D01*
X53751526Y-23426616D01*
X53729010Y-23413307D01*
X53683742Y-23376112D01*
X53620244Y-23319128D01*
X53543039Y-23246449D01*
X53456651Y-23162171D01*
X53428399Y-23134016D01*
X53136287Y-22841416D01*
X53358631Y-22515104D01*
X53426202Y-22414897D01*
X53485507Y-22324963D01*
X53533217Y-22250510D01*
X53566007Y-22196751D01*
X53580548Y-22168894D01*
X53580974Y-22166912D01*
X53573308Y-22140655D01*
X53552689Y-22087837D01*
X53522685Y-22017310D01*
X53501625Y-21970093D01*
X53462248Y-21879694D01*
X53425165Y-21788366D01*
X53396415Y-21711200D01*
X53388605Y-21687692D01*
X53366417Y-21624916D01*
X53344727Y-21576411D01*
X53332813Y-21558079D01*
X53306523Y-21546859D01*
X53249142Y-21530954D01*
X53168118Y-21512167D01*
X53070895Y-21492299D01*
X53027385Y-21484132D01*
X52916896Y-21463829D01*
X52810916Y-21444170D01*
X52719801Y-21427088D01*
X52653908Y-21414518D01*
X52641500Y-21412091D01*
X52538923Y-21391845D01*
X52538923Y-20964701D01*
X52539153Y-20824246D01*
X52540099Y-20717979D01*
X52542141Y-20641013D01*
X52545662Y-20588460D01*
X52551043Y-20555433D01*
X52558666Y-20537045D01*
X52568912Y-20528408D01*
X52573115Y-20526807D01*
X52598470Y-20521127D01*
X52654484Y-20509795D01*
X52733964Y-20494179D01*
X52829712Y-20475647D01*
X52934533Y-20455569D01*
X53041232Y-20435312D01*
X53142613Y-20416246D01*
X53231479Y-20399739D01*
X53300637Y-20387159D01*
X53342889Y-20379875D01*
X53352290Y-20378616D01*
X53360807Y-20361763D01*
X53379660Y-20316870D01*
X53405324Y-20252430D01*
X53415123Y-20227192D01*
X53454648Y-20129686D01*
X53501192Y-20021959D01*
X53542877Y-19931172D01*
X53573550Y-19861753D01*
X53593956Y-19804710D01*
X53600768Y-19769777D01*
X53599682Y-19765095D01*
X53585285Y-19742991D01*
X53552412Y-19693831D01*
X53504590Y-19622848D01*
X53445348Y-19535278D01*
X53378215Y-19436357D01*
X53364941Y-19416830D01*
X53287046Y-19301140D01*
X53229787Y-19213044D01*
X53190881Y-19148486D01*
X53168044Y-19103411D01*
X53158994Y-19073763D01*
X53161448Y-19055485D01*
X53161511Y-19055369D01*
X53180827Y-19031361D01*
X53223551Y-18984947D01*
X53285051Y-18920937D01*
X53360698Y-18844145D01*
X53445861Y-18759382D01*
X53455465Y-18749922D01*
X53562790Y-18645989D01*
X53645615Y-18569675D01*
X53705605Y-18519571D01*
X53744423Y-18494270D01*
X53761520Y-18491004D01*
X53786473Y-18505250D01*
X53838255Y-18538156D01*
X53911520Y-18586208D01*
X54000920Y-18645890D01*
X54101111Y-18713688D01*
X54124501Y-18729639D01*
X54456593Y-18956420D01*
X54606565Y-18888353D01*
X54697770Y-18848685D01*
X54795669Y-18808791D01*
X54879831Y-18776983D01*
X54883538Y-18775674D01*
X54949369Y-18751576D01*
X55000116Y-18731200D01*
X55024842Y-18718936D01*
X55024884Y-18718901D01*
X55032729Y-18696734D01*
X55046066Y-18642217D01*
X55063570Y-18561480D01*
X55083917Y-18460650D01*
X55105782Y-18345856D01*
X55107571Y-18336178D01*
X55129504Y-18217904D01*
X55149640Y-18110542D01*
X55166680Y-18020917D01*
X55179328Y-17955851D01*
X55186284Y-17922168D01*
X55186406Y-17921654D01*
X55190639Y-17907325D01*
X55198871Y-17896507D01*
X55216033Y-17888706D01*
X55247058Y-17883429D01*
X55296878Y-17880182D01*
X55370424Y-17878472D01*
X55472629Y-17877807D01*
X55608425Y-17877693D01*
X55626000Y-17877692D01*
X55765878Y-17877776D01*
G37*
X55765878Y-17877776D02*
X55871612Y-17878355D01*
X55948132Y-17879922D01*
X56000372Y-17882972D01*
X56033263Y-17887996D01*
X56051737Y-17895489D01*
X56060727Y-17905944D01*
X56065163Y-17919853D01*
X56065594Y-17921654D01*
X56072333Y-17954145D01*
X56084808Y-18018252D01*
X56101719Y-18107151D01*
X56121771Y-18214019D01*
X56143664Y-18332033D01*
X56144429Y-18336178D01*
X56166359Y-18451831D01*
X56186877Y-18554014D01*
X56204659Y-18636598D01*
X56218381Y-18693456D01*
X56226718Y-18718458D01*
X56227116Y-18718901D01*
X56251677Y-18731110D01*
X56302315Y-18751456D01*
X56368095Y-18775545D01*
X56368461Y-18775674D01*
X56451317Y-18806818D01*
X56549000Y-18846491D01*
X56641077Y-18886381D01*
X56645434Y-18888353D01*
X56795407Y-18956420D01*
X57127498Y-18729639D01*
X57229374Y-18660504D01*
X57321657Y-18598697D01*
X57399003Y-18547733D01*
X57456064Y-18511127D01*
X57487495Y-18492394D01*
X57490479Y-18491004D01*
X57513321Y-18497190D01*
X57555982Y-18527035D01*
X57620128Y-18581947D01*
X57707421Y-18663334D01*
X57796535Y-18749922D01*
X57882441Y-18835247D01*
X57959327Y-18913108D01*
X58022564Y-18978697D01*
X58067523Y-19027205D01*
X58089576Y-19053825D01*
X58090396Y-19055195D01*
X58092834Y-19073463D01*
X58083650Y-19103295D01*
X58060574Y-19148721D01*
X58021337Y-19213770D01*
X57963670Y-19302470D01*
X57886795Y-19416657D01*
X57818570Y-19517162D01*
X57757582Y-19607303D01*
X57707356Y-19681849D01*
X57671416Y-19735565D01*
X57653287Y-19763218D01*
X57652146Y-19765095D01*
X57654359Y-19791590D01*
X57671138Y-19843086D01*
X57699142Y-19909851D01*
X57709122Y-19931172D01*
X57752672Y-20026159D01*
X57799134Y-20133937D01*
X57836877Y-20227192D01*
X57864073Y-20296406D01*
X57885675Y-20349006D01*
X57898158Y-20376497D01*
X57899709Y-20378616D01*
X57922668Y-20382124D01*
X57976786Y-20391738D01*
X58054868Y-20406089D01*
X58149719Y-20423807D01*
X58254143Y-20443525D01*
X58360944Y-20463874D01*
X58462926Y-20483486D01*
X58552894Y-20500991D01*
X58623653Y-20515022D01*
X58668006Y-20524209D01*
X58678885Y-20526807D01*
X58690122Y-20533218D01*
X58698605Y-20547697D01*
X58704714Y-20575133D01*
X58708832Y-20620411D01*
X58711341Y-20688420D01*
X58712621Y-20784047D01*
X58713054Y-20912180D01*
X58713077Y-20964701D01*
X58713077Y-21391845D01*
X58610500Y-21412091D01*
X58553431Y-21423070D01*
X58468269Y-21439095D01*
X58365372Y-21458233D01*
X58255096Y-21478551D01*
X58224615Y-21484132D01*
X58122855Y-21503917D01*
X58034205Y-21523373D01*
X57966108Y-21540697D01*
X57926004Y-21554088D01*
X57919323Y-21558079D01*
X57902919Y-21586342D01*
X57879399Y-21641109D01*
X57853316Y-21711588D01*
X57848142Y-21726769D01*
X57813956Y-21820896D01*
X57771523Y-21927101D01*
X57729997Y-22022473D01*
X57729792Y-22022916D01*
X57660640Y-22172525D01*
X58115512Y-22841617D01*
X57823500Y-23134116D01*
X57735180Y-23221170D01*
X57654625Y-23297909D01*
X57586360Y-23360237D01*
X57534908Y-23404056D01*
X57504794Y-23425270D01*
X57500474Y-23426616D01*
X57475111Y-23416016D01*
X57423358Y-23386547D01*
X57350868Y-23341705D01*
X57263294Y-23284984D01*
X57168612Y-23221462D01*
X57072516Y-23156668D01*
X56986837Y-23100287D01*
X56917016Y-23055788D01*
X56868494Y-23026639D01*
X56846782Y-23016308D01*
X56820293Y-23025050D01*
X56770062Y-23048087D01*
X56706451Y-23080631D01*
X56699708Y-23084249D01*
X56614046Y-23127210D01*
X56555306Y-23148279D01*
X56518772Y-23148503D01*
X56499731Y-23128928D01*
X56499620Y-23128654D01*
X56490102Y-23105472D01*
X56467403Y-23050441D01*
X56433282Y-22967822D01*
X56389500Y-22861872D01*
X56337816Y-22736852D01*
X56279992Y-22597020D01*
X56223991Y-22461637D01*
X56162447Y-22312234D01*
X56105939Y-22173832D01*
X56056161Y-22050673D01*
X56014806Y-21947002D01*
X55983568Y-21867059D01*
X55964141Y-21815088D01*
X55958154Y-21795692D01*
X55973168Y-21773443D01*
X56012439Y-21737982D01*
X56064807Y-21698887D01*
X56213941Y-21575245D01*
X56330511Y-21433522D01*
X56413118Y-21276704D01*
X56460366Y-21107775D01*
X56470857Y-20929722D01*
X56463231Y-20847539D01*
X56421682Y-20677031D01*
X56350123Y-20526459D01*
X56252995Y-20397309D01*
X56134734Y-20291064D01*
X55999780Y-20209210D01*
X55852571Y-20153232D01*
X55697544Y-20124615D01*
X55539139Y-20124844D01*
X55381794Y-20155405D01*
X55229946Y-20217782D01*
X55088035Y-20313460D01*
X55028803Y-20367572D01*
X54915203Y-20506520D01*
X54836106Y-20658361D01*
X54790986Y-20818667D01*
X54779316Y-20983012D01*
X54800569Y-21146971D01*
X54854220Y-21306118D01*
X54939740Y-21456025D01*
X55056605Y-21592267D01*
X55187193Y-21698887D01*
X55241588Y-21739642D01*
X55280014Y-21774718D01*
X55293846Y-21795726D01*
X55286603Y-21818635D01*
X55266005Y-21873365D01*
X55233746Y-21955672D01*
X55191521Y-22061315D01*
X55141023Y-22186050D01*
X55083948Y-22325636D01*
X55027854Y-22461670D01*
X54965967Y-22611201D01*
X54908644Y-22749767D01*
X54857644Y-22873107D01*
X54814727Y-22976964D01*
X54781653Y-23057080D01*
X54760181Y-23109195D01*
X54752225Y-23128654D01*
X54733429Y-23148423D01*
X54697074Y-23148365D01*
X54638479Y-23127441D01*
X54552968Y-23084613D01*
X54552292Y-23084249D01*
X54487907Y-23051012D01*
X54435861Y-23026802D01*
X54406512Y-23016404D01*
X54405217Y-23016308D01*
X54383124Y-23026855D01*
X54334348Y-23056184D01*
X54264331Y-23100827D01*
X54178514Y-23157314D01*
X54083388Y-23221462D01*
X53986540Y-23286411D01*
X53899253Y-23342896D01*
X53827181Y-23387421D01*
X53775977Y-23416490D01*
X53751526Y-23426616D01*
X53729010Y-23413307D01*
X53683742Y-23376112D01*
X53620244Y-23319128D01*
X53543039Y-23246449D01*
X53456651Y-23162171D01*
X53428399Y-23134016D01*
X53136287Y-22841416D01*
X53358631Y-22515104D01*
X53426202Y-22414897D01*
X53485507Y-22324963D01*
X53533217Y-22250510D01*
X53566007Y-22196751D01*
X53580548Y-22168894D01*
X53580974Y-22166912D01*
X53573308Y-22140655D01*
X53552689Y-22087837D01*
X53522685Y-22017310D01*
X53501625Y-21970093D01*
X53462248Y-21879694D01*
X53425165Y-21788366D01*
X53396415Y-21711200D01*
X53388605Y-21687692D01*
X53366417Y-21624916D01*
X53344727Y-21576411D01*
X53332813Y-21558079D01*
X53306523Y-21546859D01*
X53249142Y-21530954D01*
X53168118Y-21512167D01*
X53070895Y-21492299D01*
X53027385Y-21484132D01*
X52916896Y-21463829D01*
X52810916Y-21444170D01*
X52719801Y-21427088D01*
X52653908Y-21414518D01*
X52641500Y-21412091D01*
X52538923Y-21391845D01*
X52538923Y-20964701D01*
X52539153Y-20824246D01*
X52540099Y-20717979D01*
X52542141Y-20641013D01*
X52545662Y-20588460D01*
X52551043Y-20555433D01*
X52558666Y-20537045D01*
X52568912Y-20528408D01*
X52573115Y-20526807D01*
X52598470Y-20521127D01*
X52654484Y-20509795D01*
X52733964Y-20494179D01*
X52829712Y-20475647D01*
X52934533Y-20455569D01*
X53041232Y-20435312D01*
X53142613Y-20416246D01*
X53231479Y-20399739D01*
X53300637Y-20387159D01*
X53342889Y-20379875D01*
X53352290Y-20378616D01*
X53360807Y-20361763D01*
X53379660Y-20316870D01*
X53405324Y-20252430D01*
X53415123Y-20227192D01*
X53454648Y-20129686D01*
X53501192Y-20021959D01*
X53542877Y-19931172D01*
X53573550Y-19861753D01*
X53593956Y-19804710D01*
X53600768Y-19769777D01*
X53599682Y-19765095D01*
X53585285Y-19742991D01*
X53552412Y-19693831D01*
X53504590Y-19622848D01*
X53445348Y-19535278D01*
X53378215Y-19436357D01*
X53364941Y-19416830D01*
X53287046Y-19301140D01*
X53229787Y-19213044D01*
X53190881Y-19148486D01*
X53168044Y-19103411D01*
X53158994Y-19073763D01*
X53161448Y-19055485D01*
X53161511Y-19055369D01*
X53180827Y-19031361D01*
X53223551Y-18984947D01*
X53285051Y-18920937D01*
X53360698Y-18844145D01*
X53445861Y-18759382D01*
X53455465Y-18749922D01*
X53562790Y-18645989D01*
X53645615Y-18569675D01*
X53705605Y-18519571D01*
X53744423Y-18494270D01*
X53761520Y-18491004D01*
X53786473Y-18505250D01*
X53838255Y-18538156D01*
X53911520Y-18586208D01*
X54000920Y-18645890D01*
X54101111Y-18713688D01*
X54124501Y-18729639D01*
X54456593Y-18956420D01*
X54606565Y-18888353D01*
X54697770Y-18848685D01*
X54795669Y-18808791D01*
X54879831Y-18776983D01*
X54883538Y-18775674D01*
X54949369Y-18751576D01*
X55000116Y-18731200D01*
X55024842Y-18718936D01*
X55024884Y-18718901D01*
X55032729Y-18696734D01*
X55046066Y-18642217D01*
X55063570Y-18561480D01*
X55083917Y-18460650D01*
X55105782Y-18345856D01*
X55107571Y-18336178D01*
X55129504Y-18217904D01*
X55149640Y-18110542D01*
X55166680Y-18020917D01*
X55179328Y-17955851D01*
X55186284Y-17922168D01*
X55186406Y-17921654D01*
X55190639Y-17907325D01*
X55198871Y-17896507D01*
X55216033Y-17888706D01*
X55247058Y-17883429D01*
X55296878Y-17880182D01*
X55370424Y-17878472D01*
X55472629Y-17877807D01*
X55608425Y-17877693D01*
X55626000Y-17877692D01*
X55765878Y-17877776D01*
G36*
X59871224Y-24237838D02*
G01*
X59948528Y-24288361D01*
X59985814Y-24333590D01*
X60015353Y-24415663D01*
X60017699Y-24480607D01*
X60012385Y-24567445D01*
X59812115Y-24655103D01*
X59714739Y-24699887D01*
X59651113Y-24735913D01*
X59618029Y-24767117D01*
X59612280Y-24797436D01*
X59630658Y-24830805D01*
X59650923Y-24852923D01*
X59709889Y-24888393D01*
X59774024Y-24890879D01*
X59832926Y-24863235D01*
X59876197Y-24808320D01*
X59883936Y-24788928D01*
X59921006Y-24728364D01*
X59963654Y-24702552D01*
X60022154Y-24680471D01*
X60022154Y-24764184D01*
X60016982Y-24821150D01*
X59996723Y-24869189D01*
X59954262Y-24924346D01*
X59947951Y-24931514D01*
X59900720Y-24980585D01*
X59860121Y-25006920D01*
X59809328Y-25019035D01*
X59767220Y-25023003D01*
X59691902Y-25023991D01*
X59638286Y-25011466D01*
X59604838Y-24992869D01*
X59552268Y-24951975D01*
X59515879Y-24907748D01*
X59492850Y-24852126D01*
X59480359Y-24777047D01*
X59475587Y-24674449D01*
X59475206Y-24622376D01*
X59476501Y-24559948D01*
X59594471Y-24559948D01*
X59595839Y-24593438D01*
X59599249Y-24598923D01*
X59621753Y-24591472D01*
X59670182Y-24571753D01*
X59734908Y-24543718D01*
X59748443Y-24537692D01*
X59830244Y-24496096D01*
X59875312Y-24459538D01*
X59885217Y-24425296D01*
X59861526Y-24390648D01*
X59841960Y-24375339D01*
X59771360Y-24344721D01*
X59705280Y-24349780D01*
X59649959Y-24387151D01*
X59611636Y-24453473D01*
X59599349Y-24506116D01*
X59594471Y-24559948D01*
X59476501Y-24559948D01*
X59477730Y-24500720D01*
X59487032Y-24410710D01*
X59505460Y-24345167D01*
X59535360Y-24296912D01*
X59579080Y-24258767D01*
X59598141Y-24246440D01*
X59684726Y-24214336D01*
X59779522Y-24212316D01*
X59871224Y-24237838D01*
G37*
X59871224Y-24237838D02*
X59948528Y-24288361D01*
X59985814Y-24333590D01*
X60015353Y-24415663D01*
X60017699Y-24480607D01*
X60012385Y-24567445D01*
X59812115Y-24655103D01*
X59714739Y-24699887D01*
X59651113Y-24735913D01*
X59618029Y-24767117D01*
X59612280Y-24797436D01*
X59630658Y-24830805D01*
X59650923Y-24852923D01*
X59709889Y-24888393D01*
X59774024Y-24890879D01*
X59832926Y-24863235D01*
X59876197Y-24808320D01*
X59883936Y-24788928D01*
X59921006Y-24728364D01*
X59963654Y-24702552D01*
X60022154Y-24680471D01*
X60022154Y-24764184D01*
X60016982Y-24821150D01*
X59996723Y-24869189D01*
X59954262Y-24924346D01*
X59947951Y-24931514D01*
X59900720Y-24980585D01*
X59860121Y-25006920D01*
X59809328Y-25019035D01*
X59767220Y-25023003D01*
X59691902Y-25023991D01*
X59638286Y-25011466D01*
X59604838Y-24992869D01*
X59552268Y-24951975D01*
X59515879Y-24907748D01*
X59492850Y-24852126D01*
X59480359Y-24777047D01*
X59475587Y-24674449D01*
X59475206Y-24622376D01*
X59476501Y-24559948D01*
X59594471Y-24559948D01*
X59595839Y-24593438D01*
X59599249Y-24598923D01*
X59621753Y-24591472D01*
X59670182Y-24571753D01*
X59734908Y-24543718D01*
X59748443Y-24537692D01*
X59830244Y-24496096D01*
X59875312Y-24459538D01*
X59885217Y-24425296D01*
X59861526Y-24390648D01*
X59841960Y-24375339D01*
X59771360Y-24344721D01*
X59705280Y-24349780D01*
X59649959Y-24387151D01*
X59611636Y-24453473D01*
X59599349Y-24506116D01*
X59594471Y-24559948D01*
X59476501Y-24559948D01*
X59477730Y-24500720D01*
X59487032Y-24410710D01*
X59505460Y-24345167D01*
X59535360Y-24296912D01*
X59579080Y-24258767D01*
X59598141Y-24246440D01*
X59684726Y-24214336D01*
X59779522Y-24212316D01*
X59871224Y-24237838D01*
G36*
X59196807Y-24226782D02*
G01*
X59220161Y-24236988D01*
X59275902Y-24281134D01*
X59323569Y-24344967D01*
X59353048Y-24413087D01*
X59357846Y-24446670D01*
X59341760Y-24493556D01*
X59306475Y-24518365D01*
X59268644Y-24533387D01*
X59251321Y-24536155D01*
X59242886Y-24516066D01*
X59226230Y-24472351D01*
X59218923Y-24452598D01*
X59177948Y-24384271D01*
X59118622Y-24350191D01*
X59042552Y-24351239D01*
X59036918Y-24352581D01*
X58996305Y-24371836D01*
X58966448Y-24409375D01*
X58946055Y-24469809D01*
X58933836Y-24557751D01*
X58928500Y-24677813D01*
X58928000Y-24741698D01*
X58927752Y-24842403D01*
X58926126Y-24911054D01*
X58921801Y-24954673D01*
X58913454Y-24980282D01*
X58899765Y-24994903D01*
X58879411Y-25005558D01*
X58878234Y-25006095D01*
X58839038Y-25022667D01*
X58819619Y-25028769D01*
X58816635Y-25010319D01*
X58814081Y-24959323D01*
X58812140Y-24882308D01*
X58810997Y-24785805D01*
X58810769Y-24715184D01*
X58811932Y-24578525D01*
X58816479Y-24474851D01*
X58825999Y-24398108D01*
X58842081Y-24342246D01*
X58866313Y-24301212D01*
X58900286Y-24268954D01*
X58933833Y-24246440D01*
X59014499Y-24216476D01*
X59108381Y-24209718D01*
X59196807Y-24226782D01*
G37*
X59196807Y-24226782D02*
X59220161Y-24236988D01*
X59275902Y-24281134D01*
X59323569Y-24344967D01*
X59353048Y-24413087D01*
X59357846Y-24446670D01*
X59341760Y-24493556D01*
X59306475Y-24518365D01*
X59268644Y-24533387D01*
X59251321Y-24536155D01*
X59242886Y-24516066D01*
X59226230Y-24472351D01*
X59218923Y-24452598D01*
X59177948Y-24384271D01*
X59118622Y-24350191D01*
X59042552Y-24351239D01*
X59036918Y-24352581D01*
X58996305Y-24371836D01*
X58966448Y-24409375D01*
X58946055Y-24469809D01*
X58933836Y-24557751D01*
X58928500Y-24677813D01*
X58928000Y-24741698D01*
X58927752Y-24842403D01*
X58926126Y-24911054D01*
X58921801Y-24954673D01*
X58913454Y-24980282D01*
X58899765Y-24994903D01*
X58879411Y-25005558D01*
X58878234Y-25006095D01*
X58839038Y-25022667D01*
X58819619Y-25028769D01*
X58816635Y-25010319D01*
X58814081Y-24959323D01*
X58812140Y-24882308D01*
X58810997Y-24785805D01*
X58810769Y-24715184D01*
X58811932Y-24578525D01*
X58816479Y-24474851D01*
X58825999Y-24398108D01*
X58842081Y-24342246D01*
X58866313Y-24301212D01*
X58900286Y-24268954D01*
X58933833Y-24246440D01*
X59014499Y-24216476D01*
X59108381Y-24209718D01*
X59196807Y-24226782D01*
G36*
X58513333Y-24223528D02*
G01*
X58569590Y-24249117D01*
X58613747Y-24280124D01*
X58646101Y-24314795D01*
X58668438Y-24359520D01*
X58682546Y-24420692D01*
X58690211Y-24504701D01*
X58693220Y-24617940D01*
X58693538Y-24692509D01*
X58693538Y-24983420D01*
X58643773Y-25006095D01*
X58604576Y-25022667D01*
X58585157Y-25028769D01*
X58581442Y-25010610D01*
X58578495Y-24961648D01*
X58576691Y-24890153D01*
X58576308Y-24833385D01*
X58574661Y-24751371D01*
X58570222Y-24686309D01*
X58563740Y-24646467D01*
X58558590Y-24638000D01*
X58523977Y-24646646D01*
X58469640Y-24668823D01*
X58406722Y-24698886D01*
X58346368Y-24731192D01*
X58299721Y-24760098D01*
X58277926Y-24779961D01*
X58277839Y-24780175D01*
X58279714Y-24816935D01*
X58296525Y-24852026D01*
X58326039Y-24880528D01*
X58369116Y-24890061D01*
X58405932Y-24888950D01*
X58458074Y-24888133D01*
X58485444Y-24900349D01*
X58501882Y-24932624D01*
X58503955Y-24938710D01*
X58511081Y-24984739D01*
X58492024Y-25012687D01*
X58442353Y-25026007D01*
X58388697Y-25028470D01*
X58292142Y-25010210D01*
X58242159Y-24984131D01*
X58180429Y-24922868D01*
X58147690Y-24847670D01*
X58144753Y-24768211D01*
X58172424Y-24694167D01*
X58214047Y-24647769D01*
X58255604Y-24621793D01*
X58320922Y-24588907D01*
X58397038Y-24555557D01*
X58409726Y-24550461D01*
X58493333Y-24513565D01*
X58541530Y-24481046D01*
X58557030Y-24448718D01*
X58542550Y-24412394D01*
X58517692Y-24384000D01*
X58458939Y-24349039D01*
X58394293Y-24346417D01*
X58335008Y-24373358D01*
X58292339Y-24427088D01*
X58286739Y-24440950D01*
X58254133Y-24491936D01*
X58206530Y-24529787D01*
X58146461Y-24560850D01*
X58146461Y-24472768D01*
X58149997Y-24418951D01*
X58165156Y-24376534D01*
X58198768Y-24331279D01*
X58231035Y-24296420D01*
X58281209Y-24247062D01*
X58320193Y-24220547D01*
X58362064Y-24209911D01*
X58409460Y-24208154D01*
X58513333Y-24223528D01*
G37*
X58513333Y-24223528D02*
X58569590Y-24249117D01*
X58613747Y-24280124D01*
X58646101Y-24314795D01*
X58668438Y-24359520D01*
X58682546Y-24420692D01*
X58690211Y-24504701D01*
X58693220Y-24617940D01*
X58693538Y-24692509D01*
X58693538Y-24983420D01*
X58643773Y-25006095D01*
X58604576Y-25022667D01*
X58585157Y-25028769D01*
X58581442Y-25010610D01*
X58578495Y-24961648D01*
X58576691Y-24890153D01*
X58576308Y-24833385D01*
X58574661Y-24751371D01*
X58570222Y-24686309D01*
X58563740Y-24646467D01*
X58558590Y-24638000D01*
X58523977Y-24646646D01*
X58469640Y-24668823D01*
X58406722Y-24698886D01*
X58346368Y-24731192D01*
X58299721Y-24760098D01*
X58277926Y-24779961D01*
X58277839Y-24780175D01*
X58279714Y-24816935D01*
X58296525Y-24852026D01*
X58326039Y-24880528D01*
X58369116Y-24890061D01*
X58405932Y-24888950D01*
X58458074Y-24888133D01*
X58485444Y-24900349D01*
X58501882Y-24932624D01*
X58503955Y-24938710D01*
X58511081Y-24984739D01*
X58492024Y-25012687D01*
X58442353Y-25026007D01*
X58388697Y-25028470D01*
X58292142Y-25010210D01*
X58242159Y-24984131D01*
X58180429Y-24922868D01*
X58147690Y-24847670D01*
X58144753Y-24768211D01*
X58172424Y-24694167D01*
X58214047Y-24647769D01*
X58255604Y-24621793D01*
X58320922Y-24588907D01*
X58397038Y-24555557D01*
X58409726Y-24550461D01*
X58493333Y-24513565D01*
X58541530Y-24481046D01*
X58557030Y-24448718D01*
X58542550Y-24412394D01*
X58517692Y-24384000D01*
X58458939Y-24349039D01*
X58394293Y-24346417D01*
X58335008Y-24373358D01*
X58292339Y-24427088D01*
X58286739Y-24440950D01*
X58254133Y-24491936D01*
X58206530Y-24529787D01*
X58146461Y-24560850D01*
X58146461Y-24472768D01*
X58149997Y-24418951D01*
X58165156Y-24376534D01*
X58198768Y-24331279D01*
X58231035Y-24296420D01*
X58281209Y-24247062D01*
X58320193Y-24220547D01*
X58362064Y-24209911D01*
X58409460Y-24208154D01*
X58513333Y-24223528D01*
G36*
X58021929Y-24226662D02*
G01*
X58024911Y-24278068D01*
X58027247Y-24356192D01*
X58028749Y-24454857D01*
X58029231Y-24558343D01*
X58029231Y-24908533D01*
X57967401Y-24970363D01*
X57924793Y-25008462D01*
X57887390Y-25023895D01*
X57836270Y-25022918D01*
X57815978Y-25020433D01*
X57752554Y-25013200D01*
X57700095Y-25009055D01*
X57687308Y-25008672D01*
X57644199Y-25011176D01*
X57582544Y-25017462D01*
X57558638Y-25020433D01*
X57499922Y-25025028D01*
X57460464Y-25015046D01*
X57421338Y-24984228D01*
X57407215Y-24970363D01*
X57345385Y-24908533D01*
X57345385Y-24253503D01*
X57395150Y-24230829D01*
X57438002Y-24214034D01*
X57463073Y-24208154D01*
X57469501Y-24226736D01*
X57475509Y-24278655D01*
X57480697Y-24358172D01*
X57484664Y-24459546D01*
X57486577Y-24545192D01*
X57491923Y-24882231D01*
X57538560Y-24888825D01*
X57580976Y-24884214D01*
X57601760Y-24869287D01*
X57607570Y-24841377D01*
X57612530Y-24781925D01*
X57616246Y-24698466D01*
X57618324Y-24598532D01*
X57618624Y-24547104D01*
X57618923Y-24251054D01*
X57680454Y-24229604D01*
X57724004Y-24215020D01*
X57747694Y-24208219D01*
X57748377Y-24208154D01*
X57750754Y-24226642D01*
X57753366Y-24277906D01*
X57755995Y-24355649D01*
X57758421Y-24453574D01*
X57760115Y-24545192D01*
X57765461Y-24882231D01*
X57882692Y-24882231D01*
X57888072Y-24574746D01*
X57893451Y-24267261D01*
X57950601Y-24237707D01*
X57992797Y-24217413D01*
X58017770Y-24208204D01*
X58018491Y-24208154D01*
X58021929Y-24226662D01*
G37*
X58021929Y-24226662D02*
X58024911Y-24278068D01*
X58027247Y-24356192D01*
X58028749Y-24454857D01*
X58029231Y-24558343D01*
X58029231Y-24908533D01*
X57967401Y-24970363D01*
X57924793Y-25008462D01*
X57887390Y-25023895D01*
X57836270Y-25022918D01*
X57815978Y-25020433D01*
X57752554Y-25013200D01*
X57700095Y-25009055D01*
X57687308Y-25008672D01*
X57644199Y-25011176D01*
X57582544Y-25017462D01*
X57558638Y-25020433D01*
X57499922Y-25025028D01*
X57460464Y-25015046D01*
X57421338Y-24984228D01*
X57407215Y-24970363D01*
X57345385Y-24908533D01*
X57345385Y-24253503D01*
X57395150Y-24230829D01*
X57438002Y-24214034D01*
X57463073Y-24208154D01*
X57469501Y-24226736D01*
X57475509Y-24278655D01*
X57480697Y-24358172D01*
X57484664Y-24459546D01*
X57486577Y-24545192D01*
X57491923Y-24882231D01*
X57538560Y-24888825D01*
X57580976Y-24884214D01*
X57601760Y-24869287D01*
X57607570Y-24841377D01*
X57612530Y-24781925D01*
X57616246Y-24698466D01*
X57618324Y-24598532D01*
X57618624Y-24547104D01*
X57618923Y-24251054D01*
X57680454Y-24229604D01*
X57724004Y-24215020D01*
X57747694Y-24208219D01*
X57748377Y-24208154D01*
X57750754Y-24226642D01*
X57753366Y-24277906D01*
X57755995Y-24355649D01*
X57758421Y-24453574D01*
X57760115Y-24545192D01*
X57765461Y-24882231D01*
X57882692Y-24882231D01*
X57888072Y-24574746D01*
X57893451Y-24267261D01*
X57950601Y-24237707D01*
X57992797Y-24217413D01*
X58017770Y-24208204D01*
X58018491Y-24208154D01*
X58021929Y-24226662D01*
G36*
X57228081Y-24370289D02*
G01*
X57227833Y-24516320D01*
X57226872Y-24628655D01*
X57224794Y-24712678D01*
X57221193Y-24773769D01*
X57215665Y-24817309D01*
X57207804Y-24848679D01*
X57197207Y-24873262D01*
X57189182Y-24887294D01*
X57122728Y-24963388D01*
X57038470Y-25011084D01*
X56945249Y-25028199D01*
X56851900Y-25012546D01*
X56796312Y-24984418D01*
X56737957Y-24935760D01*
X56698186Y-24876333D01*
X56674190Y-24798507D01*
X56663161Y-24694652D01*
X56661599Y-24618462D01*
X56661809Y-24612986D01*
X56798308Y-24612986D01*
X56799141Y-24700355D01*
X56802961Y-24758192D01*
X56811746Y-24796029D01*
X56827474Y-24823398D01*
X56846266Y-24844042D01*
X56909375Y-24883890D01*
X56977137Y-24887295D01*
X57041179Y-24854025D01*
X57046164Y-24849517D01*
X57067439Y-24826067D01*
X57080779Y-24798166D01*
X57088001Y-24756641D01*
X57090923Y-24692316D01*
X57091385Y-24621200D01*
X57090383Y-24531858D01*
X57086238Y-24472258D01*
X57077236Y-24433089D01*
X57061667Y-24405040D01*
X57048902Y-24390144D01*
X56989600Y-24352575D01*
X56921301Y-24348057D01*
X56856110Y-24376753D01*
X56843528Y-24387406D01*
X56822111Y-24411063D01*
X56808744Y-24439251D01*
X56801566Y-24481245D01*
X56798719Y-24546319D01*
X56798308Y-24612986D01*
X56661809Y-24612986D01*
X56666322Y-24495765D01*
X56682362Y-24403577D01*
X56712528Y-24334269D01*
X56759629Y-24280211D01*
X56796312Y-24252505D01*
X56862990Y-24222572D01*
X56940272Y-24208678D01*
X57012110Y-24212397D01*
X57052308Y-24227400D01*
X57068082Y-24231670D01*
X57078550Y-24215750D01*
X57085856Y-24173089D01*
X57091385Y-24108106D01*
X57097437Y-24035732D01*
X57105844Y-23992187D01*
X57121141Y-23967287D01*
X57147864Y-23950845D01*
X57164654Y-23943564D01*
X57228154Y-23916963D01*
X57228081Y-24370289D01*
G37*
X57228081Y-24370289D02*
X57227833Y-24516320D01*
X57226872Y-24628655D01*
X57224794Y-24712678D01*
X57221193Y-24773769D01*
X57215665Y-24817309D01*
X57207804Y-24848679D01*
X57197207Y-24873262D01*
X57189182Y-24887294D01*
X57122728Y-24963388D01*
X57038470Y-25011084D01*
X56945249Y-25028199D01*
X56851900Y-25012546D01*
X56796312Y-24984418D01*
X56737957Y-24935760D01*
X56698186Y-24876333D01*
X56674190Y-24798507D01*
X56663161Y-24694652D01*
X56661599Y-24618462D01*
X56661809Y-24612986D01*
X56798308Y-24612986D01*
X56799141Y-24700355D01*
X56802961Y-24758192D01*
X56811746Y-24796029D01*
X56827474Y-24823398D01*
X56846266Y-24844042D01*
X56909375Y-24883890D01*
X56977137Y-24887295D01*
X57041179Y-24854025D01*
X57046164Y-24849517D01*
X57067439Y-24826067D01*
X57080779Y-24798166D01*
X57088001Y-24756641D01*
X57090923Y-24692316D01*
X57091385Y-24621200D01*
X57090383Y-24531858D01*
X57086238Y-24472258D01*
X57077236Y-24433089D01*
X57061667Y-24405040D01*
X57048902Y-24390144D01*
X56989600Y-24352575D01*
X56921301Y-24348057D01*
X56856110Y-24376753D01*
X56843528Y-24387406D01*
X56822111Y-24411063D01*
X56808744Y-24439251D01*
X56801566Y-24481245D01*
X56798719Y-24546319D01*
X56798308Y-24612986D01*
X56661809Y-24612986D01*
X56666322Y-24495765D01*
X56682362Y-24403577D01*
X56712528Y-24334269D01*
X56759629Y-24280211D01*
X56796312Y-24252505D01*
X56862990Y-24222572D01*
X56940272Y-24208678D01*
X57012110Y-24212397D01*
X57052308Y-24227400D01*
X57068082Y-24231670D01*
X57078550Y-24215750D01*
X57085856Y-24173089D01*
X57091385Y-24108106D01*
X57097437Y-24035732D01*
X57105844Y-23992187D01*
X57121141Y-23967287D01*
X57147864Y-23950845D01*
X57164654Y-23943564D01*
X57228154Y-23916963D01*
X57228081Y-24370289D01*
G36*
X56339362Y-24214670D02*
G01*
X56428117Y-24247421D01*
X56500022Y-24305350D01*
X56528144Y-24346128D01*
X56558802Y-24420954D01*
X56558165Y-24475058D01*
X56525987Y-24511446D01*
X56514081Y-24517633D01*
X56462675Y-24536925D01*
X56436422Y-24531982D01*
X56427530Y-24499587D01*
X56427077Y-24481692D01*
X56410797Y-24415859D01*
X56368365Y-24369807D01*
X56309388Y-24347564D01*
X56243475Y-24353161D01*
X56189895Y-24382229D01*
X56171798Y-24398810D01*
X56158971Y-24418925D01*
X56150306Y-24449332D01*
X56144696Y-24496788D01*
X56141035Y-24568050D01*
X56138215Y-24669875D01*
X56137484Y-24702115D01*
X56134820Y-24812410D01*
X56131792Y-24890036D01*
X56127250Y-24941396D01*
X56120046Y-24972890D01*
X56109033Y-24990920D01*
X56093060Y-25001888D01*
X56082834Y-25006733D01*
X56039406Y-25023301D01*
X56013842Y-25028769D01*
X56005395Y-25010507D01*
X56000239Y-24955296D01*
X55998346Y-24862499D01*
X55999689Y-24731478D01*
X56000107Y-24711269D01*
X56003058Y-24591733D01*
X56006548Y-24504449D01*
X56011514Y-24442591D01*
X56018893Y-24399336D01*
X56029624Y-24367860D01*
X56044645Y-24341339D01*
X56052502Y-24329975D01*
X56097553Y-24279692D01*
X56147940Y-24240581D01*
X56154108Y-24237167D01*
X56244458Y-24210212D01*
X56339362Y-24214670D01*
G37*
X56339362Y-24214670D02*
X56428117Y-24247421D01*
X56500022Y-24305350D01*
X56528144Y-24346128D01*
X56558802Y-24420954D01*
X56558165Y-24475058D01*
X56525987Y-24511446D01*
X56514081Y-24517633D01*
X56462675Y-24536925D01*
X56436422Y-24531982D01*
X56427530Y-24499587D01*
X56427077Y-24481692D01*
X56410797Y-24415859D01*
X56368365Y-24369807D01*
X56309388Y-24347564D01*
X56243475Y-24353161D01*
X56189895Y-24382229D01*
X56171798Y-24398810D01*
X56158971Y-24418925D01*
X56150306Y-24449332D01*
X56144696Y-24496788D01*
X56141035Y-24568050D01*
X56138215Y-24669875D01*
X56137484Y-24702115D01*
X56134820Y-24812410D01*
X56131792Y-24890036D01*
X56127250Y-24941396D01*
X56120046Y-24972890D01*
X56109033Y-24990920D01*
X56093060Y-25001888D01*
X56082834Y-25006733D01*
X56039406Y-25023301D01*
X56013842Y-25028769D01*
X56005395Y-25010507D01*
X56000239Y-24955296D01*
X55998346Y-24862499D01*
X55999689Y-24731478D01*
X56000107Y-24711269D01*
X56003058Y-24591733D01*
X56006548Y-24504449D01*
X56011514Y-24442591D01*
X56018893Y-24399336D01*
X56029624Y-24367860D01*
X56044645Y-24341339D01*
X56052502Y-24329975D01*
X56097553Y-24279692D01*
X56147940Y-24240581D01*
X56154108Y-24237167D01*
X56244458Y-24210212D01*
X56339362Y-24214670D01*
G36*
X55679501Y-24216303D02*
G01*
X55756060Y-24244733D01*
X55756936Y-24245279D01*
X55804285Y-24280127D01*
X55839241Y-24320852D01*
X55863825Y-24373925D01*
X55880062Y-24445814D01*
X55889975Y-24542992D01*
X55895586Y-24671928D01*
X55896077Y-24690298D01*
X55903141Y-24967287D01*
X55843695Y-24998028D01*
X55800681Y-25018802D01*
X55774710Y-25028646D01*
X55773509Y-25028769D01*
X55769014Y-25010606D01*
X55765444Y-24961612D01*
X55763248Y-24890031D01*
X55762769Y-24832068D01*
X55762758Y-24738170D01*
X55758466Y-24679203D01*
X55743503Y-24651079D01*
X55711482Y-24649706D01*
X55656014Y-24670998D01*
X55572269Y-24710136D01*
X55510689Y-24742643D01*
X55479017Y-24770845D01*
X55469706Y-24801582D01*
X55469692Y-24803104D01*
X55485057Y-24856054D01*
X55530547Y-24884660D01*
X55600166Y-24888803D01*
X55650313Y-24888084D01*
X55676754Y-24902527D01*
X55693243Y-24937218D01*
X55702733Y-24981416D01*
X55689057Y-25006493D01*
X55683907Y-25010082D01*
X55635425Y-25024496D01*
X55567531Y-25026537D01*
X55497612Y-25016983D01*
X55448068Y-24999522D01*
X55379570Y-24941364D01*
X55340634Y-24860408D01*
X55332923Y-24797160D01*
X55338807Y-24740111D01*
X55360101Y-24693542D01*
X55402265Y-24652181D01*
X55470759Y-24610755D01*
X55571044Y-24563993D01*
X55577154Y-24561350D01*
X55667490Y-24519617D01*
X55723235Y-24485391D01*
X55747129Y-24454635D01*
X55741913Y-24423311D01*
X55710328Y-24387383D01*
X55700883Y-24379116D01*
X55637617Y-24347058D01*
X55572064Y-24348407D01*
X55514972Y-24379838D01*
X55477093Y-24438024D01*
X55473574Y-24449446D01*
X55439300Y-24504837D01*
X55395809Y-24531518D01*
X55332923Y-24557960D01*
X55332923Y-24489548D01*
X55352052Y-24390110D01*
X55408831Y-24298902D01*
X55438378Y-24268389D01*
X55505542Y-24229228D01*
X55590956Y-24211500D01*
X55679501Y-24216303D01*
G37*
X55679501Y-24216303D02*
X55756060Y-24244733D01*
X55756936Y-24245279D01*
X55804285Y-24280127D01*
X55839241Y-24320852D01*
X55863825Y-24373925D01*
X55880062Y-24445814D01*
X55889975Y-24542992D01*
X55895586Y-24671928D01*
X55896077Y-24690298D01*
X55903141Y-24967287D01*
X55843695Y-24998028D01*
X55800681Y-25018802D01*
X55774710Y-25028646D01*
X55773509Y-25028769D01*
X55769014Y-25010606D01*
X55765444Y-24961612D01*
X55763248Y-24890031D01*
X55762769Y-24832068D01*
X55762758Y-24738170D01*
X55758466Y-24679203D01*
X55743503Y-24651079D01*
X55711482Y-24649706D01*
X55656014Y-24670998D01*
X55572269Y-24710136D01*
X55510689Y-24742643D01*
X55479017Y-24770845D01*
X55469706Y-24801582D01*
X55469692Y-24803104D01*
X55485057Y-24856054D01*
X55530547Y-24884660D01*
X55600166Y-24888803D01*
X55650313Y-24888084D01*
X55676754Y-24902527D01*
X55693243Y-24937218D01*
X55702733Y-24981416D01*
X55689057Y-25006493D01*
X55683907Y-25010082D01*
X55635425Y-25024496D01*
X55567531Y-25026537D01*
X55497612Y-25016983D01*
X55448068Y-24999522D01*
X55379570Y-24941364D01*
X55340634Y-24860408D01*
X55332923Y-24797160D01*
X55338807Y-24740111D01*
X55360101Y-24693542D01*
X55402265Y-24652181D01*
X55470759Y-24610755D01*
X55571044Y-24563993D01*
X55577154Y-24561350D01*
X55667490Y-24519617D01*
X55723235Y-24485391D01*
X55747129Y-24454635D01*
X55741913Y-24423311D01*
X55710328Y-24387383D01*
X55700883Y-24379116D01*
X55637617Y-24347058D01*
X55572064Y-24348407D01*
X55514972Y-24379838D01*
X55477093Y-24438024D01*
X55473574Y-24449446D01*
X55439300Y-24504837D01*
X55395809Y-24531518D01*
X55332923Y-24557960D01*
X55332923Y-24489548D01*
X55352052Y-24390110D01*
X55408831Y-24298902D01*
X55438378Y-24268389D01*
X55505542Y-24229228D01*
X55590956Y-24211500D01*
X55679501Y-24216303D01*
G36*
X54785846Y-24082120D02*
G01*
X54791572Y-24161980D01*
X54798149Y-24209039D01*
X54807262Y-24229566D01*
X54820598Y-24229829D01*
X54824923Y-24227378D01*
X54882444Y-24209636D01*
X54957268Y-24210672D01*
X55033339Y-24228910D01*
X55080918Y-24252505D01*
X55129702Y-24290198D01*
X55165364Y-24332855D01*
X55189845Y-24387057D01*
X55205087Y-24459384D01*
X55213030Y-24556419D01*
X55215616Y-24684742D01*
X55215662Y-24709358D01*
X55215692Y-24985870D01*
X55154161Y-25007320D01*
X55110459Y-25021912D01*
X55086482Y-25028706D01*
X55085777Y-25028769D01*
X55083415Y-25010345D01*
X55081406Y-24959526D01*
X55079901Y-24882993D01*
X55079053Y-24787430D01*
X55078923Y-24729329D01*
X55078651Y-24614771D01*
X55077252Y-24532667D01*
X55073849Y-24476393D01*
X55067567Y-24439326D01*
X55057529Y-24414844D01*
X55042861Y-24396325D01*
X55033702Y-24387406D01*
X54970789Y-24351466D01*
X54902136Y-24348775D01*
X54839848Y-24379170D01*
X54828329Y-24390144D01*
X54811433Y-24410779D01*
X54799714Y-24435256D01*
X54792233Y-24470647D01*
X54788054Y-24524026D01*
X54786237Y-24602466D01*
X54785846Y-24710617D01*
X54785846Y-24985870D01*
X54724315Y-25007320D01*
X54680613Y-25021912D01*
X54656636Y-25028706D01*
X54655930Y-25028769D01*
X54654126Y-25010069D01*
X54652500Y-24957322D01*
X54651117Y-24875557D01*
X54650042Y-24769805D01*
X54649340Y-24645094D01*
X54649077Y-24506455D01*
X54649077Y-23971806D01*
X54776077Y-23918236D01*
X54785846Y-24082120D01*
G37*
X54785846Y-24082120D02*
X54791572Y-24161980D01*
X54798149Y-24209039D01*
X54807262Y-24229566D01*
X54820598Y-24229829D01*
X54824923Y-24227378D01*
X54882444Y-24209636D01*
X54957268Y-24210672D01*
X55033339Y-24228910D01*
X55080918Y-24252505D01*
X55129702Y-24290198D01*
X55165364Y-24332855D01*
X55189845Y-24387057D01*
X55205087Y-24459384D01*
X55213030Y-24556419D01*
X55215616Y-24684742D01*
X55215662Y-24709358D01*
X55215692Y-24985870D01*
X55154161Y-25007320D01*
X55110459Y-25021912D01*
X55086482Y-25028706D01*
X55085777Y-25028769D01*
X55083415Y-25010345D01*
X55081406Y-24959526D01*
X55079901Y-24882993D01*
X55079053Y-24787430D01*
X55078923Y-24729329D01*
X55078651Y-24614771D01*
X55077252Y-24532667D01*
X55073849Y-24476393D01*
X55067567Y-24439326D01*
X55057529Y-24414844D01*
X55042861Y-24396325D01*
X55033702Y-24387406D01*
X54970789Y-24351466D01*
X54902136Y-24348775D01*
X54839848Y-24379170D01*
X54828329Y-24390144D01*
X54811433Y-24410779D01*
X54799714Y-24435256D01*
X54792233Y-24470647D01*
X54788054Y-24524026D01*
X54786237Y-24602466D01*
X54785846Y-24710617D01*
X54785846Y-24985870D01*
X54724315Y-25007320D01*
X54680613Y-25021912D01*
X54656636Y-25028706D01*
X54655930Y-25028769D01*
X54654126Y-25010069D01*
X54652500Y-24957322D01*
X54651117Y-24875557D01*
X54650042Y-24769805D01*
X54649340Y-24645094D01*
X54649077Y-24506455D01*
X54649077Y-23971806D01*
X54776077Y-23918236D01*
X54785846Y-24082120D01*
G36*
X53160254Y-24189745D02*
G01*
X53237286Y-24241567D01*
X53296816Y-24316412D01*
X53332378Y-24411654D01*
X53339571Y-24481756D01*
X53338754Y-24511009D01*
X53331914Y-24533407D01*
X53313112Y-24553474D01*
X53276408Y-24575733D01*
X53215862Y-24604709D01*
X53125534Y-24644927D01*
X53125077Y-24645129D01*
X53041933Y-24683210D01*
X52973753Y-24717025D01*
X52927505Y-24742933D01*
X52910158Y-24757295D01*
X52910154Y-24757411D01*
X52925443Y-24788685D01*
X52961196Y-24823157D01*
X53002242Y-24847990D01*
X53023037Y-24852923D01*
X53079770Y-24835862D01*
X53128627Y-24793133D01*
X53152465Y-24746155D01*
X53175397Y-24711522D01*
X53220318Y-24672081D01*
X53273123Y-24638009D01*
X53319710Y-24619480D01*
X53329452Y-24618462D01*
X53340418Y-24635215D01*
X53341079Y-24678039D01*
X53333020Y-24735781D01*
X53317827Y-24797289D01*
X53297086Y-24851409D01*
X53296038Y-24853510D01*
X53233621Y-24940660D01*
X53152726Y-24999939D01*
X53060856Y-25029034D01*
X52965513Y-25025634D01*
X52874198Y-24987428D01*
X52870138Y-24984741D01*
X52798306Y-24919642D01*
X52751073Y-24834705D01*
X52724934Y-24723021D01*
X52721426Y-24691643D01*
X52715213Y-24543536D01*
X52722661Y-24474468D01*
X52910154Y-24474468D01*
X52912590Y-24517552D01*
X52925914Y-24530126D01*
X52959132Y-24520719D01*
X53011494Y-24498483D01*
X53070024Y-24470610D01*
X53071479Y-24469872D01*
X53121089Y-24443777D01*
X53141000Y-24426363D01*
X53136090Y-24408107D01*
X53115416Y-24384120D01*
X53062819Y-24349406D01*
X53006177Y-24346856D01*
X52955369Y-24372119D01*
X52920276Y-24420847D01*
X52910154Y-24474468D01*
X52722661Y-24474468D01*
X52727992Y-24425036D01*
X52760778Y-24331055D01*
X52806421Y-24265215D01*
X52888802Y-24198681D01*
X52979546Y-24165676D01*
X53072185Y-24163573D01*
X53160254Y-24189745D01*
G37*
X53160254Y-24189745D02*
X53237286Y-24241567D01*
X53296816Y-24316412D01*
X53332378Y-24411654D01*
X53339571Y-24481756D01*
X53338754Y-24511009D01*
X53331914Y-24533407D01*
X53313112Y-24553474D01*
X53276408Y-24575733D01*
X53215862Y-24604709D01*
X53125534Y-24644927D01*
X53125077Y-24645129D01*
X53041933Y-24683210D01*
X52973753Y-24717025D01*
X52927505Y-24742933D01*
X52910158Y-24757295D01*
X52910154Y-24757411D01*
X52925443Y-24788685D01*
X52961196Y-24823157D01*
X53002242Y-24847990D01*
X53023037Y-24852923D01*
X53079770Y-24835862D01*
X53128627Y-24793133D01*
X53152465Y-24746155D01*
X53175397Y-24711522D01*
X53220318Y-24672081D01*
X53273123Y-24638009D01*
X53319710Y-24619480D01*
X53329452Y-24618462D01*
X53340418Y-24635215D01*
X53341079Y-24678039D01*
X53333020Y-24735781D01*
X53317827Y-24797289D01*
X53297086Y-24851409D01*
X53296038Y-24853510D01*
X53233621Y-24940660D01*
X53152726Y-24999939D01*
X53060856Y-25029034D01*
X52965513Y-25025634D01*
X52874198Y-24987428D01*
X52870138Y-24984741D01*
X52798306Y-24919642D01*
X52751073Y-24834705D01*
X52724934Y-24723021D01*
X52721426Y-24691643D01*
X52715213Y-24543536D01*
X52722661Y-24474468D01*
X52910154Y-24474468D01*
X52912590Y-24517552D01*
X52925914Y-24530126D01*
X52959132Y-24520719D01*
X53011494Y-24498483D01*
X53070024Y-24470610D01*
X53071479Y-24469872D01*
X53121089Y-24443777D01*
X53141000Y-24426363D01*
X53136090Y-24408107D01*
X53115416Y-24384120D01*
X53062819Y-24349406D01*
X53006177Y-24346856D01*
X52955369Y-24372119D01*
X52920276Y-24420847D01*
X52910154Y-24474468D01*
X52722661Y-24474468D01*
X52727992Y-24425036D01*
X52760778Y-24331055D01*
X52806421Y-24265215D01*
X52888802Y-24198681D01*
X52979546Y-24165676D01*
X53072185Y-24163573D01*
X53160254Y-24189745D01*
G36*
X51642886Y-24177256D02*
G01*
X51734464Y-24225409D01*
X51802049Y-24302905D01*
X51826057Y-24352727D01*
X51844738Y-24427533D01*
X51854301Y-24522052D01*
X51855208Y-24625210D01*
X51847921Y-24725935D01*
X51832903Y-24813153D01*
X51810615Y-24875791D01*
X51803765Y-24886579D01*
X51722632Y-24967105D01*
X51626266Y-25015336D01*
X51521701Y-25029450D01*
X51415968Y-25007629D01*
X51386543Y-24994547D01*
X51329241Y-24954231D01*
X51278950Y-24900775D01*
X51274197Y-24893995D01*
X51254878Y-24861321D01*
X51242108Y-24826394D01*
X51234564Y-24780414D01*
X51230924Y-24714584D01*
X51229865Y-24620105D01*
X51229846Y-24598923D01*
X51229894Y-24592182D01*
X51425231Y-24592182D01*
X51426368Y-24681349D01*
X51430841Y-24740520D01*
X51440246Y-24778741D01*
X51456176Y-24805053D01*
X51464308Y-24813846D01*
X51511058Y-24847261D01*
X51556447Y-24845737D01*
X51602340Y-24816752D01*
X51629712Y-24785809D01*
X51645923Y-24740643D01*
X51655026Y-24669420D01*
X51655651Y-24661114D01*
X51657204Y-24532037D01*
X51640965Y-24436172D01*
X51607152Y-24374107D01*
X51555984Y-24346432D01*
X51537720Y-24344923D01*
X51489760Y-24352513D01*
X51456953Y-24378808D01*
X51436895Y-24429095D01*
X51427178Y-24508664D01*
X51425231Y-24592182D01*
X51229894Y-24592182D01*
X51230574Y-24498249D01*
X51233629Y-24427906D01*
X51240322Y-24379163D01*
X51251960Y-24343288D01*
X51269853Y-24311548D01*
X51273808Y-24305648D01*
X51340267Y-24226104D01*
X51412685Y-24179929D01*
X51500849Y-24161599D01*
X51530787Y-24160703D01*
X51642886Y-24177256D01*
G37*
X51642886Y-24177256D02*
X51734464Y-24225409D01*
X51802049Y-24302905D01*
X51826057Y-24352727D01*
X51844738Y-24427533D01*
X51854301Y-24522052D01*
X51855208Y-24625210D01*
X51847921Y-24725935D01*
X51832903Y-24813153D01*
X51810615Y-24875791D01*
X51803765Y-24886579D01*
X51722632Y-24967105D01*
X51626266Y-25015336D01*
X51521701Y-25029450D01*
X51415968Y-25007629D01*
X51386543Y-24994547D01*
X51329241Y-24954231D01*
X51278950Y-24900775D01*
X51274197Y-24893995D01*
X51254878Y-24861321D01*
X51242108Y-24826394D01*
X51234564Y-24780414D01*
X51230924Y-24714584D01*
X51229865Y-24620105D01*
X51229846Y-24598923D01*
X51229894Y-24592182D01*
X51425231Y-24592182D01*
X51426368Y-24681349D01*
X51430841Y-24740520D01*
X51440246Y-24778741D01*
X51456176Y-24805053D01*
X51464308Y-24813846D01*
X51511058Y-24847261D01*
X51556447Y-24845737D01*
X51602340Y-24816752D01*
X51629712Y-24785809D01*
X51645923Y-24740643D01*
X51655026Y-24669420D01*
X51655651Y-24661114D01*
X51657204Y-24532037D01*
X51640965Y-24436172D01*
X51607152Y-24374107D01*
X51555984Y-24346432D01*
X51537720Y-24344923D01*
X51489760Y-24352513D01*
X51456953Y-24378808D01*
X51436895Y-24429095D01*
X51427178Y-24508664D01*
X51425231Y-24592182D01*
X51229894Y-24592182D01*
X51230574Y-24498249D01*
X51233629Y-24427906D01*
X51240322Y-24379163D01*
X51251960Y-24343288D01*
X51269853Y-24311548D01*
X51273808Y-24305648D01*
X51340267Y-24226104D01*
X51412685Y-24179929D01*
X51500849Y-24161599D01*
X51530787Y-24160703D01*
X51642886Y-24177256D01*
G36*
X53897664Y-24185089D02*
G01*
X53960367Y-24221358D01*
X54003961Y-24257358D01*
X54035845Y-24295075D01*
X54057810Y-24341199D01*
X54071649Y-24402421D01*
X54079153Y-24485431D01*
X54082117Y-24596919D01*
X54082461Y-24677062D01*
X54082461Y-24972065D01*
X53916385Y-25046515D01*
X53906615Y-24723402D01*
X53902579Y-24602729D01*
X53898344Y-24515141D01*
X53893097Y-24454650D01*
X53886025Y-24415268D01*
X53876311Y-24391007D01*
X53863144Y-24375880D01*
X53858919Y-24372606D01*
X53794909Y-24347034D01*
X53730208Y-24357153D01*
X53691692Y-24384000D01*
X53676025Y-24403024D01*
X53665180Y-24427988D01*
X53658288Y-24465834D01*
X53654479Y-24523502D01*
X53652883Y-24607935D01*
X53652615Y-24695928D01*
X53652563Y-24806323D01*
X53650672Y-24884463D01*
X53644345Y-24937165D01*
X53630983Y-24971242D01*
X53607985Y-24993511D01*
X53572754Y-25010787D01*
X53525697Y-25028738D01*
X53474303Y-25048278D01*
X53480421Y-24701485D01*
X53482884Y-24576468D01*
X53485767Y-24484082D01*
X53489898Y-24417881D01*
X53496107Y-24371420D01*
X53505226Y-24338256D01*
X53518083Y-24311944D01*
X53533584Y-24288729D01*
X53608371Y-24214569D01*
X53699628Y-24171684D01*
X53798883Y-24161412D01*
X53897664Y-24185089D01*
G37*
X53897664Y-24185089D02*
X53960367Y-24221358D01*
X54003961Y-24257358D01*
X54035845Y-24295075D01*
X54057810Y-24341199D01*
X54071649Y-24402421D01*
X54079153Y-24485431D01*
X54082117Y-24596919D01*
X54082461Y-24677062D01*
X54082461Y-24972065D01*
X53916385Y-25046515D01*
X53906615Y-24723402D01*
X53902579Y-24602729D01*
X53898344Y-24515141D01*
X53893097Y-24454650D01*
X53886025Y-24415268D01*
X53876311Y-24391007D01*
X53863144Y-24375880D01*
X53858919Y-24372606D01*
X53794909Y-24347034D01*
X53730208Y-24357153D01*
X53691692Y-24384000D01*
X53676025Y-24403024D01*
X53665180Y-24427988D01*
X53658288Y-24465834D01*
X53654479Y-24523502D01*
X53652883Y-24607935D01*
X53652615Y-24695928D01*
X53652563Y-24806323D01*
X53650672Y-24884463D01*
X53644345Y-24937165D01*
X53630983Y-24971242D01*
X53607985Y-24993511D01*
X53572754Y-25010787D01*
X53525697Y-25028738D01*
X53474303Y-25048278D01*
X53480421Y-24701485D01*
X53482884Y-24576468D01*
X53485767Y-24484082D01*
X53489898Y-24417881D01*
X53496107Y-24371420D01*
X53505226Y-24338256D01*
X53518083Y-24311944D01*
X53533584Y-24288729D01*
X53608371Y-24214569D01*
X53699628Y-24171684D01*
X53798883Y-24161412D01*
X53897664Y-24185089D01*
G36*
X52394886Y-24174505D02*
G01*
X52469539Y-24211727D01*
X52535431Y-24280261D01*
X52553577Y-24305648D01*
X52573345Y-24338866D01*
X52586172Y-24374945D01*
X52593510Y-24423098D01*
X52596813Y-24492536D01*
X52597538Y-24584206D01*
X52594263Y-24709830D01*
X52582877Y-24804154D01*
X52561041Y-24874523D01*
X52526419Y-24928286D01*
X52476670Y-24972788D01*
X52473014Y-24975423D01*
X52423985Y-25002377D01*
X52364945Y-25015712D01*
X52289859Y-25019000D01*
X52167795Y-25019000D01*
X52167744Y-25137497D01*
X52166608Y-25203492D01*
X52159686Y-25242202D01*
X52141598Y-25265419D01*
X52106962Y-25284933D01*
X52098645Y-25288920D01*
X52059720Y-25307603D01*
X52029583Y-25319403D01*
X52007174Y-25320422D01*
X51991433Y-25306761D01*
X51981302Y-25274522D01*
X51975723Y-25219804D01*
X51973635Y-25138711D01*
X51973981Y-25027344D01*
X51975700Y-24881802D01*
X51976237Y-24838269D01*
X51978172Y-24688205D01*
X51979904Y-24590042D01*
X52167692Y-24590042D01*
X52168748Y-24673364D01*
X52173438Y-24727880D01*
X52184051Y-24763837D01*
X52202872Y-24791482D01*
X52215650Y-24804965D01*
X52267890Y-24844417D01*
X52314142Y-24847628D01*
X52361867Y-24815049D01*
X52363077Y-24813846D01*
X52382494Y-24788668D01*
X52394307Y-24754447D01*
X52400265Y-24701748D01*
X52402120Y-24621131D01*
X52402154Y-24603271D01*
X52397670Y-24492175D01*
X52383074Y-24415161D01*
X52356650Y-24368147D01*
X52316683Y-24347050D01*
X52293584Y-24344923D01*
X52238762Y-24354900D01*
X52201158Y-24387752D01*
X52178523Y-24447857D01*
X52168606Y-24539598D01*
X52167692Y-24590042D01*
X51979904Y-24590042D01*
X51980222Y-24572060D01*
X51982873Y-24484679D01*
X51986606Y-24420905D01*
X51991907Y-24375582D01*
X51999258Y-24343555D01*
X52009143Y-24319668D01*
X52022046Y-24298764D01*
X52027579Y-24290898D01*
X52100969Y-24216595D01*
X52193760Y-24174467D01*
X52301096Y-24162722D01*
X52394886Y-24174505D01*
G37*
X52394886Y-24174505D02*
X52469539Y-24211727D01*
X52535431Y-24280261D01*
X52553577Y-24305648D01*
X52573345Y-24338866D01*
X52586172Y-24374945D01*
X52593510Y-24423098D01*
X52596813Y-24492536D01*
X52597538Y-24584206D01*
X52594263Y-24709830D01*
X52582877Y-24804154D01*
X52561041Y-24874523D01*
X52526419Y-24928286D01*
X52476670Y-24972788D01*
X52473014Y-24975423D01*
X52423985Y-25002377D01*
X52364945Y-25015712D01*
X52289859Y-25019000D01*
X52167795Y-25019000D01*
X52167744Y-25137497D01*
X52166608Y-25203492D01*
X52159686Y-25242202D01*
X52141598Y-25265419D01*
X52106962Y-25284933D01*
X52098645Y-25288920D01*
X52059720Y-25307603D01*
X52029583Y-25319403D01*
X52007174Y-25320422D01*
X51991433Y-25306761D01*
X51981302Y-25274522D01*
X51975723Y-25219804D01*
X51973635Y-25138711D01*
X51973981Y-25027344D01*
X51975700Y-24881802D01*
X51976237Y-24838269D01*
X51978172Y-24688205D01*
X51979904Y-24590042D01*
X52167692Y-24590042D01*
X52168748Y-24673364D01*
X52173438Y-24727880D01*
X52184051Y-24763837D01*
X52202872Y-24791482D01*
X52215650Y-24804965D01*
X52267890Y-24844417D01*
X52314142Y-24847628D01*
X52361867Y-24815049D01*
X52363077Y-24813846D01*
X52382494Y-24788668D01*
X52394307Y-24754447D01*
X52400265Y-24701748D01*
X52402120Y-24621131D01*
X52402154Y-24603271D01*
X52397670Y-24492175D01*
X52383074Y-24415161D01*
X52356650Y-24368147D01*
X52316683Y-24347050D01*
X52293584Y-24344923D01*
X52238762Y-24354900D01*
X52201158Y-24387752D01*
X52178523Y-24447857D01*
X52168606Y-24539598D01*
X52167692Y-24590042D01*
X51979904Y-24590042D01*
X51980222Y-24572060D01*
X51982873Y-24484679D01*
X51986606Y-24420905D01*
X51991907Y-24375582D01*
X51999258Y-24343555D01*
X52009143Y-24319668D01*
X52022046Y-24298764D01*
X52027579Y-24290898D01*
X52100969Y-24216595D01*
X52193760Y-24174467D01*
X52301096Y-24162722D01*
X52394886Y-24174505D01*
D10*
X165862095Y-21026380D02*
X165862095Y-20026380D01*
X165862095Y-20502571D02*
X166433523Y-20502571D01*
X166433523Y-21026380D02*
X166433523Y-20026380D01*
X167433523Y-21026380D02*
X166862095Y-21026380D01*
X167147809Y-21026380D02*
X167147809Y-20026380D01*
X167052571Y-20169238D01*
X166957333Y-20264476D01*
X166862095Y-20312095D01*
X111760095Y-123642380D02*
X111760095Y-122642380D01*
X111760095Y-123118571D02*
X112331523Y-123118571D01*
X112331523Y-123642380D02*
X112331523Y-122642380D01*
X112760095Y-122737619D02*
X112807714Y-122690000D01*
X112902952Y-122642380D01*
X113141047Y-122642380D01*
X113236285Y-122690000D01*
X113283904Y-122737619D01*
X113331523Y-122832857D01*
X113331523Y-122928095D01*
X113283904Y-123070952D01*
X112712476Y-123642380D01*
X113331523Y-123642380D01*
X40132095Y-115260380D02*
X40132095Y-114260380D01*
X40132095Y-114736571D02*
X40703523Y-114736571D01*
X40703523Y-115260380D02*
X40703523Y-114260380D01*
X41084476Y-114260380D02*
X41703523Y-114260380D01*
X41370190Y-114641333D01*
X41513047Y-114641333D01*
X41608285Y-114688952D01*
X41655904Y-114736571D01*
X41703523Y-114831809D01*
X41703523Y-115069904D01*
X41655904Y-115165142D01*
X41608285Y-115212761D01*
X41513047Y-115260380D01*
X41227333Y-115260380D01*
X41132095Y-115212761D01*
X41084476Y-115165142D01*
X112458095Y-61158380D02*
X112458095Y-60158380D01*
X112458095Y-60634571D02*
X113029523Y-60634571D01*
X113029523Y-61158380D02*
X113029523Y-60158380D01*
X113981904Y-60158380D02*
X113505714Y-60158380D01*
X113458095Y-60634571D01*
X113505714Y-60586952D01*
X113600952Y-60539333D01*
X113839047Y-60539333D01*
X113934285Y-60586952D01*
X113981904Y-60634571D01*
X114029523Y-60729809D01*
X114029523Y-60967904D01*
X113981904Y-61063142D01*
X113934285Y-61110761D01*
X113839047Y-61158380D01*
X113600952Y-61158380D01*
X113505714Y-61110761D01*
X113458095Y-61063142D01*
X178792003Y-133294380D02*
X178792003Y-132294380D01*
X178792003Y-132770571D02*
X179363431Y-132770571D01*
X179363431Y-133294380D02*
X179363431Y-132294380D01*
X179982479Y-132722952D02*
X179887241Y-132675333D01*
X179839622Y-132627714D01*
X179792003Y-132532476D01*
X179792003Y-132484857D01*
X179839622Y-132389619D01*
X179887241Y-132342000D01*
X179982479Y-132294380D01*
X180172955Y-132294380D01*
X180268193Y-132342000D01*
X180315812Y-132389619D01*
X180363431Y-132484857D01*
X180363431Y-132532476D01*
X180315812Y-132627714D01*
X180268193Y-132675333D01*
X180172955Y-132722952D01*
X179982479Y-132722952D01*
X179887241Y-132770571D01*
X179839622Y-132818190D01*
X179792003Y-132913428D01*
X179792003Y-133103904D01*
X179839622Y-133199142D01*
X179887241Y-133246761D01*
X179982479Y-133294380D01*
X180172955Y-133294380D01*
X180268193Y-133246761D01*
X180315812Y-133199142D01*
X180363431Y-133103904D01*
X180363431Y-132913428D01*
X180315812Y-132818190D01*
X180268193Y-132770571D01*
X180172955Y-132722952D01*
X111760095Y-21026380D02*
X111760095Y-20026380D01*
X111760095Y-20502571D02*
X112331523Y-20502571D01*
X112331523Y-21026380D02*
X112331523Y-20026380D01*
X112855333Y-21026380D02*
X113045809Y-21026380D01*
X113141047Y-20978761D01*
X113188666Y-20931142D01*
X113283904Y-20788285D01*
X113331523Y-20597809D01*
X113331523Y-20216857D01*
X113283904Y-20121619D01*
X113236285Y-20074000D01*
X113141047Y-20026380D01*
X112950571Y-20026380D01*
X112855333Y-20074000D01*
X112807714Y-20121619D01*
X112760095Y-20216857D01*
X112760095Y-20454952D01*
X112807714Y-20550190D01*
X112855333Y-20597809D01*
X112950571Y-20645428D01*
X113141047Y-20645428D01*
X113236285Y-20597809D01*
X113283904Y-20550190D01*
X113331523Y-20454952D01*
X38893904Y-60904380D02*
X38893904Y-59904380D01*
X38893904Y-60380571D02*
X39465333Y-60380571D01*
X39465333Y-60904380D02*
X39465333Y-59904380D01*
X40465333Y-60904380D02*
X39893904Y-60904380D01*
X40179619Y-60904380D02*
X40179619Y-59904380D01*
X40084380Y-60047238D01*
X39989142Y-60142476D01*
X39893904Y-60190095D01*
X41084380Y-59904380D02*
X41179619Y-59904380D01*
X41274857Y-59952000D01*
X41322476Y-59999619D01*
X41370095Y-60094857D01*
X41417714Y-60285333D01*
X41417714Y-60523428D01*
X41370095Y-60713904D01*
X41322476Y-60809142D01*
X41274857Y-60856761D01*
X41179619Y-60904380D01*
X41084380Y-60904380D01*
X40989142Y-60856761D01*
X40941523Y-60809142D01*
X40893904Y-60713904D01*
X40846285Y-60523428D01*
X40846285Y-60285333D01*
X40893904Y-60094857D01*
X40941523Y-59999619D01*
X40989142Y-59952000D01*
X41084380Y-59904380D01*
X38893904Y-21026380D02*
X38893904Y-20026380D01*
X38893904Y-20502571D02*
X39465333Y-20502571D01*
X39465333Y-21026380D02*
X39465333Y-20026380D01*
X40465333Y-21026380D02*
X39893904Y-21026380D01*
X40179619Y-21026380D02*
X40179619Y-20026380D01*
X40084380Y-20169238D01*
X39989142Y-20264476D01*
X39893904Y-20312095D01*
X41417714Y-21026380D02*
X40846285Y-21026380D01*
X41132000Y-21026380D02*
X41132000Y-20026380D01*
X41036761Y-20169238D01*
X40941523Y-20264476D01*
X40846285Y-20312095D01*
X166147904Y-108148380D02*
X166147904Y-107148380D01*
X166147904Y-107624571D02*
X166719333Y-107624571D01*
X166719333Y-108148380D02*
X166719333Y-107148380D01*
X167719333Y-108148380D02*
X167147904Y-108148380D01*
X167433619Y-108148380D02*
X167433619Y-107148380D01*
X167338380Y-107291238D01*
X167243142Y-107386476D01*
X167147904Y-107434095D01*
X168100285Y-107243619D02*
X168147904Y-107196000D01*
X168243142Y-107148380D01*
X168481238Y-107148380D01*
X168576476Y-107196000D01*
X168624095Y-107243619D01*
X168671714Y-107338857D01*
X168671714Y-107434095D01*
X168624095Y-107576952D01*
X168052666Y-108148380D01*
X168671714Y-108148380D01*
X83155852Y-40751880D02*
X83155852Y-39751880D01*
X83727280Y-40751880D02*
X83298709Y-40180452D01*
X83727280Y-39751880D02*
X83155852Y-40323309D01*
X83917757Y-40847119D02*
X84679661Y-40847119D01*
X85441566Y-40751880D02*
X84870138Y-40751880D01*
X85155852Y-40751880D02*
X85155852Y-39751880D01*
X85060614Y-39894738D01*
X84965376Y-39989976D01*
X84870138Y-40037595D01*
X102206352Y-36941880D02*
X102206352Y-35941880D01*
X102777780Y-36941880D02*
X102349209Y-36370452D01*
X102777780Y-35941880D02*
X102206352Y-36513309D01*
X102968257Y-37037119D02*
X103730161Y-37037119D01*
X103920638Y-36037119D02*
X103968257Y-35989500D01*
X104063495Y-35941880D01*
X104301590Y-35941880D01*
X104396828Y-35989500D01*
X104444447Y-36037119D01*
X104492066Y-36132357D01*
X104492066Y-36227595D01*
X104444447Y-36370452D01*
X103873019Y-36941880D01*
X104492066Y-36941880D01*
X121256352Y-33131880D02*
X121256352Y-32131880D01*
X121827780Y-33131880D02*
X121399209Y-32560452D01*
X121827780Y-32131880D02*
X121256352Y-32703309D01*
X122018257Y-33227119D02*
X122780161Y-33227119D01*
X122923019Y-32131880D02*
X123542066Y-32131880D01*
X123208733Y-32512833D01*
X123351590Y-32512833D01*
X123446828Y-32560452D01*
X123494447Y-32608071D01*
X123542066Y-32703309D01*
X123542066Y-32941404D01*
X123494447Y-33036642D01*
X123446828Y-33084261D01*
X123351590Y-33131880D01*
X123065876Y-33131880D01*
X122970638Y-33084261D01*
X122923019Y-33036642D01*
X140306352Y-36941880D02*
X140306352Y-35941880D01*
X140877780Y-36941880D02*
X140449209Y-36370452D01*
X140877780Y-35941880D02*
X140306352Y-36513309D01*
X141068257Y-37037119D02*
X141830161Y-37037119D01*
X142496828Y-36275214D02*
X142496828Y-36941880D01*
X142258733Y-35894261D02*
X142020638Y-36608547D01*
X142639685Y-36608547D01*
X159356352Y-40751880D02*
X159356352Y-39751880D01*
X159927780Y-40751880D02*
X159499209Y-40180452D01*
X159927780Y-39751880D02*
X159356352Y-40323309D01*
X160118257Y-40847119D02*
X160880161Y-40847119D01*
X161594447Y-39751880D02*
X161118257Y-39751880D01*
X161070638Y-40228071D01*
X161118257Y-40180452D01*
X161213495Y-40132833D01*
X161451590Y-40132833D01*
X161546828Y-40180452D01*
X161594447Y-40228071D01*
X161642066Y-40323309D01*
X161642066Y-40561404D01*
X161594447Y-40656642D01*
X161546828Y-40704261D01*
X161451590Y-40751880D01*
X161213495Y-40751880D01*
X161118257Y-40704261D01*
X161070638Y-40656642D01*
X82727280Y-78851880D02*
X82727280Y-77851880D01*
X83298709Y-78851880D02*
X82870138Y-78280452D01*
X83298709Y-77851880D02*
X82727280Y-78423309D01*
X83489185Y-78947119D02*
X84251090Y-78947119D01*
X84441566Y-78566166D02*
X84917757Y-78566166D01*
X84346328Y-78851880D02*
X84679661Y-77851880D01*
X85012995Y-78851880D01*
X85870138Y-78851880D02*
X85298709Y-78851880D01*
X85584423Y-78851880D02*
X85584423Y-77851880D01*
X85489185Y-77994738D01*
X85393947Y-78089976D01*
X85298709Y-78137595D01*
X81941566Y-116952380D02*
X81941566Y-115952380D01*
X82512995Y-116952380D02*
X82084423Y-116380952D01*
X82512995Y-115952380D02*
X81941566Y-116523809D01*
X82703471Y-117047619D02*
X83465376Y-117047619D01*
X83655852Y-116666666D02*
X84132042Y-116666666D01*
X83560614Y-116952380D02*
X83893947Y-115952380D01*
X84227280Y-116952380D01*
X85036804Y-116952380D02*
X84560614Y-116952380D01*
X84560614Y-115952380D01*
X85227280Y-115952380D02*
X85798709Y-115952380D01*
X85512995Y-116952380D02*
X85512995Y-115952380D01*
X86655852Y-116952380D02*
X86084423Y-116952380D01*
X86370138Y-116952380D02*
X86370138Y-115952380D01*
X86274900Y-116095238D01*
X86179661Y-116190476D01*
X86084423Y-116238095D01*
X158856352Y-97901880D02*
X158856352Y-96901880D01*
X159427780Y-97901880D02*
X158999209Y-97330452D01*
X159427780Y-96901880D02*
X158856352Y-97473309D01*
X159618257Y-97997119D02*
X160380161Y-97997119D01*
X160951590Y-97378071D02*
X161094447Y-97425690D01*
X161142066Y-97473309D01*
X161189685Y-97568547D01*
X161189685Y-97711404D01*
X161142066Y-97806642D01*
X161094447Y-97854261D01*
X160999209Y-97901880D01*
X160618257Y-97901880D01*
X160618257Y-96901880D01*
X160951590Y-96901880D01*
X161046828Y-96949500D01*
X161094447Y-96997119D01*
X161142066Y-97092357D01*
X161142066Y-97187595D01*
X161094447Y-97282833D01*
X161046828Y-97330452D01*
X160951590Y-97378071D01*
X160618257Y-97378071D01*
X162142066Y-97901880D02*
X161570638Y-97901880D01*
X161856352Y-97901880D02*
X161856352Y-96901880D01*
X161761114Y-97044738D01*
X161665876Y-97139976D01*
X161570638Y-97187595D01*
X118025685Y-109268380D02*
X118025685Y-108268380D01*
X118597114Y-109268380D02*
X118168542Y-108696952D01*
X118597114Y-108268380D02*
X118025685Y-108839809D01*
X118787590Y-109363619D02*
X119549495Y-109363619D01*
X120120923Y-108744571D02*
X120263780Y-108792190D01*
X120311400Y-108839809D01*
X120359019Y-108935047D01*
X120359019Y-109077904D01*
X120311400Y-109173142D01*
X120263780Y-109220761D01*
X120168542Y-109268380D01*
X119787590Y-109268380D01*
X119787590Y-108268380D01*
X120120923Y-108268380D01*
X120216161Y-108316000D01*
X120263780Y-108363619D01*
X120311400Y-108458857D01*
X120311400Y-108554095D01*
X120263780Y-108649333D01*
X120216161Y-108696952D01*
X120120923Y-108744571D01*
X119787590Y-108744571D01*
X120978066Y-108268380D02*
X121168542Y-108268380D01*
X121263780Y-108316000D01*
X121359019Y-108411238D01*
X121406638Y-108601714D01*
X121406638Y-108935047D01*
X121359019Y-109125523D01*
X121263780Y-109220761D01*
X121168542Y-109268380D01*
X120978066Y-109268380D01*
X120882828Y-109220761D01*
X120787590Y-109125523D01*
X120739971Y-108935047D01*
X120739971Y-108601714D01*
X120787590Y-108411238D01*
X120882828Y-108316000D01*
X120978066Y-108268380D01*
X121692352Y-108268380D02*
X122263780Y-108268380D01*
X121978066Y-109268380D02*
X121978066Y-108268380D01*
X122359019Y-109363619D02*
X123120923Y-109363619D01*
X123882828Y-109268380D02*
X123311400Y-109268380D01*
X123597114Y-109268380D02*
X123597114Y-108268380D01*
X123501876Y-108411238D01*
X123406638Y-108506476D01*
X123311400Y-108554095D01*
X124311400Y-108268380D02*
X124311400Y-109077904D01*
X124359019Y-109173142D01*
X124406638Y-109220761D01*
X124501876Y-109268380D01*
X124692352Y-109268380D01*
X124787590Y-109220761D01*
X124835209Y-109173142D01*
X124882828Y-109077904D01*
X124882828Y-108268380D01*
X125120923Y-109363619D02*
X125882828Y-109363619D01*
X126644733Y-109268380D02*
X126073304Y-109268380D01*
X126359019Y-109268380D02*
X126359019Y-108268380D01*
X126263780Y-108411238D01*
X126168542Y-108506476D01*
X126073304Y-108554095D01*
X137075685Y-113078380D02*
X137075685Y-112078380D01*
X137647114Y-113078380D02*
X137218542Y-112506952D01*
X137647114Y-112078380D02*
X137075685Y-112649809D01*
X137837590Y-113173619D02*
X138599495Y-113173619D01*
X139170923Y-112554571D02*
X139313780Y-112602190D01*
X139361400Y-112649809D01*
X139409019Y-112745047D01*
X139409019Y-112887904D01*
X139361400Y-112983142D01*
X139313780Y-113030761D01*
X139218542Y-113078380D01*
X138837590Y-113078380D01*
X138837590Y-112078380D01*
X139170923Y-112078380D01*
X139266161Y-112126000D01*
X139313780Y-112173619D01*
X139361400Y-112268857D01*
X139361400Y-112364095D01*
X139313780Y-112459333D01*
X139266161Y-112506952D01*
X139170923Y-112554571D01*
X138837590Y-112554571D01*
X140028066Y-112078380D02*
X140218542Y-112078380D01*
X140313780Y-112126000D01*
X140409019Y-112221238D01*
X140456638Y-112411714D01*
X140456638Y-112745047D01*
X140409019Y-112935523D01*
X140313780Y-113030761D01*
X140218542Y-113078380D01*
X140028066Y-113078380D01*
X139932828Y-113030761D01*
X139837590Y-112935523D01*
X139789971Y-112745047D01*
X139789971Y-112411714D01*
X139837590Y-112221238D01*
X139932828Y-112126000D01*
X140028066Y-112078380D01*
X140742352Y-112078380D02*
X141313780Y-112078380D01*
X141028066Y-113078380D02*
X141028066Y-112078380D01*
X141409019Y-113173619D02*
X142170923Y-113173619D01*
X142932828Y-113078380D02*
X142361400Y-113078380D01*
X142647114Y-113078380D02*
X142647114Y-112078380D01*
X142551876Y-112221238D01*
X142456638Y-112316476D01*
X142361400Y-112364095D01*
X143361400Y-112078380D02*
X143361400Y-112887904D01*
X143409019Y-112983142D01*
X143456638Y-113030761D01*
X143551876Y-113078380D01*
X143742352Y-113078380D01*
X143837590Y-113030761D01*
X143885209Y-112983142D01*
X143932828Y-112887904D01*
X143932828Y-112078380D01*
X144170923Y-113173619D02*
X144932828Y-113173619D01*
X145123304Y-112173619D02*
X145170923Y-112126000D01*
X145266161Y-112078380D01*
X145504257Y-112078380D01*
X145599495Y-112126000D01*
X145647114Y-112173619D01*
X145694733Y-112268857D01*
X145694733Y-112364095D01*
X145647114Y-112506952D01*
X145075685Y-113078380D01*
X145694733Y-113078380D01*
X120756352Y-90281880D02*
X120756352Y-89281880D01*
X121327780Y-90281880D02*
X120899209Y-89710452D01*
X121327780Y-89281880D02*
X120756352Y-89853309D01*
X121518257Y-90377119D02*
X122280161Y-90377119D01*
X123089685Y-90186642D02*
X123042066Y-90234261D01*
X122899209Y-90281880D01*
X122803971Y-90281880D01*
X122661114Y-90234261D01*
X122565876Y-90139023D01*
X122518257Y-90043785D01*
X122470638Y-89853309D01*
X122470638Y-89710452D01*
X122518257Y-89519976D01*
X122565876Y-89424738D01*
X122661114Y-89329500D01*
X122803971Y-89281880D01*
X122899209Y-89281880D01*
X123042066Y-89329500D01*
X123089685Y-89377119D01*
X124042066Y-90281880D02*
X123470638Y-90281880D01*
X123756352Y-90281880D02*
X123756352Y-89281880D01*
X123661114Y-89424738D01*
X123565876Y-89519976D01*
X123470638Y-89567595D01*
X62320138Y-116952380D02*
X62320138Y-115952380D01*
X62891566Y-116952380D02*
X62462995Y-116380952D01*
X62891566Y-115952380D02*
X62320138Y-116523809D01*
X63082042Y-117047619D02*
X63843947Y-117047619D01*
X64653471Y-116857142D02*
X64605852Y-116904761D01*
X64462995Y-116952380D01*
X64367757Y-116952380D01*
X64224900Y-116904761D01*
X64129661Y-116809523D01*
X64082042Y-116714285D01*
X64034423Y-116523809D01*
X64034423Y-116380952D01*
X64082042Y-116190476D01*
X64129661Y-116095238D01*
X64224900Y-116000000D01*
X64367757Y-115952380D01*
X64462995Y-115952380D01*
X64605852Y-116000000D01*
X64653471Y-116047619D01*
X64939185Y-115952380D02*
X65510614Y-115952380D01*
X65224900Y-116952380D02*
X65224900Y-115952380D01*
X66415376Y-116952380D02*
X66082042Y-116476190D01*
X65843947Y-116952380D02*
X65843947Y-115952380D01*
X66224900Y-115952380D01*
X66320138Y-116000000D01*
X66367757Y-116047619D01*
X66415376Y-116142857D01*
X66415376Y-116285714D01*
X66367757Y-116380952D01*
X66320138Y-116428571D01*
X66224900Y-116476190D01*
X65843947Y-116476190D01*
X67320138Y-116952380D02*
X66843947Y-116952380D01*
X66843947Y-115952380D01*
X68177280Y-116952380D02*
X67605852Y-116952380D01*
X67891566Y-116952380D02*
X67891566Y-115952380D01*
X67796328Y-116095238D01*
X67701090Y-116190476D01*
X67605852Y-116238095D01*
X120756352Y-71231880D02*
X120756352Y-70231880D01*
X121327780Y-71231880D02*
X120899209Y-70660452D01*
X121327780Y-70231880D02*
X120756352Y-70803309D01*
X121518257Y-71327119D02*
X122280161Y-71327119D01*
X122518257Y-71231880D02*
X122518257Y-70231880D01*
X122756352Y-70231880D01*
X122899209Y-70279500D01*
X122994447Y-70374738D01*
X123042066Y-70469976D01*
X123089685Y-70660452D01*
X123089685Y-70803309D01*
X123042066Y-70993785D01*
X122994447Y-71089023D01*
X122899209Y-71184261D01*
X122756352Y-71231880D01*
X122518257Y-71231880D01*
X124042066Y-71231880D02*
X123470638Y-71231880D01*
X123756352Y-71231880D02*
X123756352Y-70231880D01*
X123661114Y-70374738D01*
X123565876Y-70469976D01*
X123470638Y-70517595D01*
X120803971Y-52181880D02*
X120803971Y-51181880D01*
X121375400Y-52181880D02*
X120946828Y-51610452D01*
X121375400Y-51181880D02*
X120803971Y-51753309D01*
X121565876Y-52277119D02*
X122327780Y-52277119D01*
X122565876Y-51658071D02*
X122899209Y-51658071D01*
X123042066Y-52181880D02*
X122565876Y-52181880D01*
X122565876Y-51181880D01*
X123042066Y-51181880D01*
X123994447Y-52181880D02*
X123423019Y-52181880D01*
X123708733Y-52181880D02*
X123708733Y-51181880D01*
X123613495Y-51324738D01*
X123518257Y-51419976D01*
X123423019Y-51467595D01*
X139877780Y-75041880D02*
X139877780Y-74041880D01*
X140449209Y-75041880D02*
X140020638Y-74470452D01*
X140449209Y-74041880D02*
X139877780Y-74613309D01*
X140639685Y-75137119D02*
X141401590Y-75137119D01*
X141973019Y-74518071D02*
X141639685Y-74518071D01*
X141639685Y-75041880D02*
X141639685Y-74041880D01*
X142115876Y-74041880D01*
X143020638Y-75041880D02*
X142449209Y-75041880D01*
X142734923Y-75041880D02*
X142734923Y-74041880D01*
X142639685Y-74184738D01*
X142544447Y-74279976D01*
X142449209Y-74327595D01*
X158856352Y-78851880D02*
X158856352Y-77851880D01*
X159427780Y-78851880D02*
X158999209Y-78280452D01*
X159427780Y-77851880D02*
X158856352Y-78423309D01*
X159618257Y-78947119D02*
X160380161Y-78947119D01*
X161142066Y-77899500D02*
X161046828Y-77851880D01*
X160903971Y-77851880D01*
X160761114Y-77899500D01*
X160665876Y-77994738D01*
X160618257Y-78089976D01*
X160570638Y-78280452D01*
X160570638Y-78423309D01*
X160618257Y-78613785D01*
X160665876Y-78709023D01*
X160761114Y-78804261D01*
X160903971Y-78851880D01*
X160999209Y-78851880D01*
X161142066Y-78804261D01*
X161189685Y-78756642D01*
X161189685Y-78423309D01*
X160999209Y-78423309D01*
X162142066Y-78851880D02*
X161570638Y-78851880D01*
X161856352Y-78851880D02*
X161856352Y-77851880D01*
X161761114Y-77994738D01*
X161665876Y-78089976D01*
X161570638Y-78137595D01*
X82632042Y-59801880D02*
X82632042Y-58801880D01*
X83203471Y-59801880D02*
X82774900Y-59230452D01*
X83203471Y-58801880D02*
X82632042Y-59373309D01*
X83393947Y-59897119D02*
X84155852Y-59897119D01*
X85060614Y-59897119D02*
X84965376Y-59849500D01*
X84870138Y-59754261D01*
X84727280Y-59611404D01*
X84632042Y-59563785D01*
X84536804Y-59563785D01*
X84584423Y-59801880D02*
X84489185Y-59754261D01*
X84393947Y-59659023D01*
X84346328Y-59468547D01*
X84346328Y-59135214D01*
X84393947Y-58944738D01*
X84489185Y-58849500D01*
X84584423Y-58801880D01*
X84774900Y-58801880D01*
X84870138Y-58849500D01*
X84965376Y-58944738D01*
X85012995Y-59135214D01*
X85012995Y-59468547D01*
X84965376Y-59659023D01*
X84870138Y-59754261D01*
X84774900Y-59801880D01*
X84584423Y-59801880D01*
X85965376Y-59801880D02*
X85393947Y-59801880D01*
X85679661Y-59801880D02*
X85679661Y-58801880D01*
X85584423Y-58944738D01*
X85489185Y-59039976D01*
X85393947Y-59087595D01*
X139806352Y-55991880D02*
X139806352Y-54991880D01*
X140377780Y-55991880D02*
X139949209Y-55420452D01*
X140377780Y-54991880D02*
X139806352Y-55563309D01*
X140568257Y-56087119D02*
X141330161Y-56087119D01*
X142139685Y-55991880D02*
X141806352Y-55515690D01*
X141568257Y-55991880D02*
X141568257Y-54991880D01*
X141949209Y-54991880D01*
X142044447Y-55039500D01*
X142092066Y-55087119D01*
X142139685Y-55182357D01*
X142139685Y-55325214D01*
X142092066Y-55420452D01*
X142044447Y-55468071D01*
X141949209Y-55515690D01*
X141568257Y-55515690D01*
X143092066Y-55991880D02*
X142520638Y-55991880D01*
X142806352Y-55991880D02*
X142806352Y-54991880D01*
X142711114Y-55134738D01*
X142615876Y-55229976D01*
X142520638Y-55277595D01*
X101730161Y-75041880D02*
X101730161Y-74041880D01*
X102301590Y-75041880D02*
X101873019Y-74470452D01*
X102301590Y-74041880D02*
X101730161Y-74613309D01*
X102492066Y-75137119D02*
X103253971Y-75137119D01*
X103444447Y-74994261D02*
X103587304Y-75041880D01*
X103825400Y-75041880D01*
X103920638Y-74994261D01*
X103968257Y-74946642D01*
X104015876Y-74851404D01*
X104015876Y-74756166D01*
X103968257Y-74660928D01*
X103920638Y-74613309D01*
X103825400Y-74565690D01*
X103634923Y-74518071D01*
X103539685Y-74470452D01*
X103492066Y-74422833D01*
X103444447Y-74327595D01*
X103444447Y-74232357D01*
X103492066Y-74137119D01*
X103539685Y-74089500D01*
X103634923Y-74041880D01*
X103873019Y-74041880D01*
X104015876Y-74089500D01*
X104968257Y-75041880D02*
X104396828Y-75041880D01*
X104682542Y-75041880D02*
X104682542Y-74041880D01*
X104587304Y-74184738D01*
X104492066Y-74279976D01*
X104396828Y-74327595D01*
X158975400Y-59801880D02*
X158975400Y-58801880D01*
X159546828Y-59801880D02*
X159118257Y-59230452D01*
X159546828Y-58801880D02*
X158975400Y-59373309D01*
X159737304Y-59897119D02*
X160499209Y-59897119D01*
X160594447Y-58801880D02*
X161165876Y-58801880D01*
X160880161Y-59801880D02*
X160880161Y-58801880D01*
X162023019Y-59801880D02*
X161451590Y-59801880D01*
X161737304Y-59801880D02*
X161737304Y-58801880D01*
X161642066Y-58944738D01*
X161546828Y-59039976D01*
X161451590Y-59087595D01*
X188145585Y-127358024D02*
X188568203Y-126451716D01*
X188663475Y-127599520D02*
X188516553Y-126900508D01*
X189086093Y-126693212D02*
X188326707Y-126969606D01*
X188795856Y-127766334D02*
X189486376Y-128088329D01*
X190035558Y-127135955D02*
X190553449Y-127377451D01*
X189871885Y-128163011D02*
X190294504Y-127256703D01*
X190432933Y-128424632D02*
X190855551Y-127518324D01*
X190654304Y-127949899D02*
X191172195Y-128191395D01*
X190950823Y-128666128D02*
X191373441Y-127759820D01*
X191126361Y-128853066D02*
X191816882Y-129175061D01*
X192547651Y-129410741D02*
X192029761Y-129169245D01*
X192288706Y-129289993D02*
X192711324Y-128383685D01*
X192564635Y-128472908D01*
X192438071Y-128518974D01*
X192331631Y-128521882D01*
X193358687Y-128685555D02*
X193016567Y-129419233D01*
X193019476Y-129525673D01*
X193042508Y-129588955D01*
X193108699Y-129672362D01*
X193281329Y-129752861D01*
X193387769Y-129749953D01*
X193451051Y-129726920D01*
X193534458Y-129660729D01*
X193876577Y-128927052D01*
X193629497Y-130020298D02*
X194320017Y-130342293D01*
X195050787Y-130577973D02*
X194532897Y-130336476D01*
X194791842Y-130457224D02*
X195214460Y-129550917D01*
X195067771Y-129640140D01*
X194941207Y-129686206D01*
X194834767Y-129689114D01*
X180095585Y-144623024D02*
X180518203Y-143716716D01*
X180613475Y-144864520D02*
X180466553Y-144165508D01*
X181036093Y-143958212D02*
X180276707Y-144234606D01*
X180745856Y-145031334D02*
X181436376Y-145353329D01*
X181985558Y-144400955D02*
X182503449Y-144642451D01*
X181821885Y-145428011D02*
X182244504Y-144521703D01*
X182382933Y-145689632D02*
X182805551Y-144783324D01*
X182604304Y-145214899D02*
X183122195Y-145456395D01*
X182900823Y-145931128D02*
X183323441Y-145024820D01*
X183076361Y-146118066D02*
X183766882Y-146440061D01*
X184497651Y-146675741D02*
X183979761Y-146434245D01*
X184238706Y-146554993D02*
X184661324Y-145648685D01*
X184514635Y-145737908D01*
X184388071Y-145783974D01*
X184281631Y-145786882D01*
X185308687Y-145950555D02*
X184966567Y-146684233D01*
X184969476Y-146790673D01*
X184992508Y-146853955D01*
X185058699Y-146937362D01*
X185231329Y-147017861D01*
X185337769Y-147014953D01*
X185401051Y-146991920D01*
X185484458Y-146925729D01*
X185826577Y-146192052D01*
X185579497Y-147285298D02*
X186270017Y-147607293D01*
X186865266Y-146781484D02*
X186928548Y-146758451D01*
X187034988Y-146755543D01*
X187250775Y-146856166D01*
X187316965Y-146939573D01*
X187339998Y-147002855D01*
X187342906Y-147109295D01*
X187302657Y-147195610D01*
X187199126Y-147304958D01*
X186439739Y-147581352D01*
X187000787Y-147842973D01*
X168476905Y-132738723D02*
X167570597Y-132316105D01*
X168718401Y-132220833D02*
X168019388Y-132367754D01*
X167812093Y-131798214D02*
X168088487Y-132557601D01*
X168885214Y-132088452D02*
X169207209Y-131397932D01*
X168254836Y-130848749D02*
X168496332Y-130330859D01*
X169281892Y-131012422D02*
X168375584Y-130589804D01*
X169543513Y-130451375D02*
X168637205Y-130028756D01*
X169068780Y-130230003D02*
X169310276Y-129712113D01*
X169785009Y-129933484D02*
X168878701Y-129510866D01*
X169079948Y-129079291D02*
X169813625Y-129421411D01*
X169920065Y-129418502D01*
X169983347Y-129395470D01*
X170066754Y-129329279D01*
X170147253Y-129156649D01*
X170144345Y-129050210D01*
X170121312Y-128986927D01*
X170055122Y-128903520D01*
X169321444Y-128561401D01*
X170428998Y-128552444D02*
X169522691Y-128129826D01*
X170310926Y-128129593D01*
X169804436Y-127525621D01*
X170710744Y-127948239D01*
X170578131Y-126993190D02*
X170681662Y-126883842D01*
X170744945Y-126860809D01*
X170851384Y-126857901D01*
X170980857Y-126918275D01*
X171047047Y-127001682D01*
X171070080Y-127064964D01*
X171072988Y-127171404D01*
X170911991Y-127516664D01*
X170005683Y-127094045D01*
X170146556Y-126791943D01*
X170229963Y-126725753D01*
X170293245Y-126702720D01*
X170399684Y-126699812D01*
X170486000Y-126740061D01*
X170552190Y-126823468D01*
X170575223Y-126886750D01*
X170578131Y-126993190D01*
X170437258Y-127295292D01*
X171320301Y-126866393D02*
X171642296Y-126175873D01*
X170816486Y-125580624D02*
X170793454Y-125517342D01*
X170790545Y-125410902D01*
X170891169Y-125195115D01*
X170974576Y-125128925D01*
X171037858Y-125105892D01*
X171144298Y-125102984D01*
X171230613Y-125143233D01*
X171339961Y-125246764D01*
X171616355Y-126006151D01*
X171877975Y-125445103D01*
X171152790Y-124634067D02*
X171886467Y-124976187D01*
X171992907Y-124973279D01*
X172056189Y-124950246D01*
X172139596Y-124884055D01*
X172220095Y-124711425D01*
X172217187Y-124604986D01*
X172194154Y-124541703D01*
X172127964Y-124458297D01*
X171394286Y-124116177D01*
X172723212Y-123632488D02*
X172481716Y-124150378D01*
X172602464Y-123891433D02*
X171696156Y-123468814D01*
X171785379Y-123615503D01*
X171831445Y-123742068D01*
X171834353Y-123848507D01*
X139877780Y-94091880D02*
X139877780Y-93091880D01*
X140449209Y-94091880D02*
X140020638Y-93520452D01*
X140449209Y-93091880D02*
X139877780Y-93663309D01*
X140639685Y-94187119D02*
X141401590Y-94187119D01*
X141496828Y-93091880D02*
X141830161Y-94091880D01*
X142163495Y-93091880D01*
X143020638Y-94091880D02*
X142449209Y-94091880D01*
X142734923Y-94091880D02*
X142734923Y-93091880D01*
X142639685Y-93234738D01*
X142544447Y-93329976D01*
X142449209Y-93377595D01*
X101634923Y-55991880D02*
X101634923Y-54991880D01*
X102206352Y-55991880D02*
X101777780Y-55420452D01*
X102206352Y-54991880D02*
X101634923Y-55563309D01*
X102396828Y-56087119D02*
X103158733Y-56087119D01*
X103301590Y-54991880D02*
X103539685Y-55991880D01*
X103730161Y-55277595D01*
X103920638Y-55991880D01*
X104158733Y-54991880D01*
X105063495Y-55991880D02*
X104492066Y-55991880D01*
X104777780Y-55991880D02*
X104777780Y-54991880D01*
X104682542Y-55134738D01*
X104587304Y-55229976D01*
X104492066Y-55277595D01*
X100873019Y-113142380D02*
X100873019Y-112142380D01*
X101444447Y-113142380D02*
X101015876Y-112570952D01*
X101444447Y-112142380D02*
X100873019Y-112713809D01*
X101634923Y-113237619D02*
X102396828Y-113237619D01*
X102539685Y-112142380D02*
X102777780Y-113142380D01*
X102968257Y-112428095D01*
X103158733Y-113142380D01*
X103396828Y-112142380D01*
X103777780Y-113142380D02*
X103777780Y-112142380D01*
X104253971Y-113142380D02*
X104253971Y-112142380D01*
X104825400Y-113142380D01*
X104825400Y-112142380D01*
X105825400Y-113142380D02*
X105253971Y-113142380D01*
X105539685Y-113142380D02*
X105539685Y-112142380D01*
X105444447Y-112285238D01*
X105349209Y-112380476D01*
X105253971Y-112428095D01*
X101730161Y-94091880D02*
X101730161Y-93091880D01*
X102301590Y-94091880D02*
X101873019Y-93520452D01*
X102301590Y-93091880D02*
X101730161Y-93663309D01*
X102492066Y-94187119D02*
X103253971Y-94187119D01*
X103396828Y-93091880D02*
X104063495Y-94091880D01*
X104063495Y-93091880D02*
X103396828Y-94091880D01*
X104968257Y-94091880D02*
X104396828Y-94091880D01*
X104682542Y-94091880D02*
X104682542Y-93091880D01*
X104587304Y-93234738D01*
X104492066Y-93329976D01*
X104396828Y-93377595D01*
X82679661Y-97901880D02*
X82679661Y-96901880D01*
X83251090Y-97901880D02*
X82822519Y-97330452D01*
X83251090Y-96901880D02*
X82679661Y-97473309D01*
X83441566Y-97997119D02*
X84203471Y-97997119D01*
X84346328Y-96901880D02*
X85012995Y-96901880D01*
X84346328Y-97901880D01*
X85012995Y-97901880D01*
X85917757Y-97901880D02*
X85346328Y-97901880D01*
X85632042Y-97901880D02*
X85632042Y-96901880D01*
X85536804Y-97044738D01*
X85441566Y-97139976D01*
X85346328Y-97187595D01*
M02*
