G04 #@! TF.GenerationSoftware,KiCad,Pcbnew,(5.1.5)-3*
G04 #@! TF.CreationDate,2020-01-18T12:44:19+05:30*
G04 #@! TF.ProjectId,ergocape,6572676f-6361-4706-952e-6b696361645f,rev?*
G04 #@! TF.SameCoordinates,Original*
G04 #@! TF.FileFunction,Legend,Top*
G04 #@! TF.FilePolarity,Positive*
%FSLAX46Y46*%
G04 Gerber Fmt 4.6, Leading zero omitted, Abs format (unit mm)*
G04 Created by KiCad (PCBNEW (5.1.5)-3) date 2020-01-18 12:44:19*
%MOMM*%
%LPD*%
G04 APERTURE LIST*
%ADD10C,0.150000*%
%ADD11C,0.010000*%
G04 APERTURE END LIST*
D10*
X53991523Y-20185571D02*
X53658190Y-20185571D01*
X53658190Y-20709380D02*
X53658190Y-19709380D01*
X54134380Y-19709380D01*
X54658190Y-20709380D02*
X54562952Y-20661761D01*
X54515333Y-20614142D01*
X54467714Y-20518904D01*
X54467714Y-20233190D01*
X54515333Y-20137952D01*
X54562952Y-20090333D01*
X54658190Y-20042714D01*
X54801047Y-20042714D01*
X54896285Y-20090333D01*
X54943904Y-20137952D01*
X54991523Y-20233190D01*
X54991523Y-20518904D01*
X54943904Y-20614142D01*
X54896285Y-20661761D01*
X54801047Y-20709380D01*
X54658190Y-20709380D01*
X55420095Y-20709380D02*
X55420095Y-20042714D01*
X55420095Y-20233190D02*
X55467714Y-20137952D01*
X55515333Y-20090333D01*
X55610571Y-20042714D01*
X55705809Y-20042714D01*
X56658190Y-20042714D02*
X57039142Y-20042714D01*
X56801047Y-19709380D02*
X56801047Y-20566523D01*
X56848666Y-20661761D01*
X56943904Y-20709380D01*
X57039142Y-20709380D01*
X57372476Y-20709380D02*
X57372476Y-19709380D01*
X57801047Y-20709380D02*
X57801047Y-20185571D01*
X57753428Y-20090333D01*
X57658190Y-20042714D01*
X57515333Y-20042714D01*
X57420095Y-20090333D01*
X57372476Y-20137952D01*
X58658190Y-20661761D02*
X58562952Y-20709380D01*
X58372476Y-20709380D01*
X58277238Y-20661761D01*
X58229619Y-20566523D01*
X58229619Y-20185571D01*
X58277238Y-20090333D01*
X58372476Y-20042714D01*
X58562952Y-20042714D01*
X58658190Y-20090333D01*
X58705809Y-20185571D01*
X58705809Y-20280809D01*
X58229619Y-20376047D01*
X60039142Y-20709380D02*
X59943904Y-20661761D01*
X59896285Y-20566523D01*
X59896285Y-19709380D01*
X60562952Y-20709380D02*
X60467714Y-20661761D01*
X60420095Y-20614142D01*
X60372476Y-20518904D01*
X60372476Y-20233190D01*
X60420095Y-20137952D01*
X60467714Y-20090333D01*
X60562952Y-20042714D01*
X60705809Y-20042714D01*
X60801047Y-20090333D01*
X60848666Y-20137952D01*
X60896285Y-20233190D01*
X60896285Y-20518904D01*
X60848666Y-20614142D01*
X60801047Y-20661761D01*
X60705809Y-20709380D01*
X60562952Y-20709380D01*
X61229619Y-20042714D02*
X61467714Y-20709380D01*
X61705809Y-20042714D01*
X62467714Y-20661761D02*
X62372476Y-20709380D01*
X62182000Y-20709380D01*
X62086761Y-20661761D01*
X62039142Y-20566523D01*
X62039142Y-20185571D01*
X62086761Y-20090333D01*
X62182000Y-20042714D01*
X62372476Y-20042714D01*
X62467714Y-20090333D01*
X62515333Y-20185571D01*
X62515333Y-20280809D01*
X62039142Y-20376047D01*
X63848666Y-20709380D02*
X63753428Y-20661761D01*
X63705809Y-20614142D01*
X63658190Y-20518904D01*
X63658190Y-20233190D01*
X63705809Y-20137952D01*
X63753428Y-20090333D01*
X63848666Y-20042714D01*
X63991523Y-20042714D01*
X64086761Y-20090333D01*
X64134380Y-20137952D01*
X64182000Y-20233190D01*
X64182000Y-20518904D01*
X64134380Y-20614142D01*
X64086761Y-20661761D01*
X63991523Y-20709380D01*
X63848666Y-20709380D01*
X64467714Y-20042714D02*
X64848666Y-20042714D01*
X64610571Y-20709380D02*
X64610571Y-19852238D01*
X64658190Y-19757000D01*
X64753428Y-19709380D01*
X64848666Y-19709380D01*
X56372476Y-22359380D02*
X56372476Y-21359380D01*
X56943904Y-22359380D02*
X56515333Y-21787952D01*
X56943904Y-21359380D02*
X56372476Y-21930809D01*
X57753428Y-22311761D02*
X57658190Y-22359380D01*
X57467714Y-22359380D01*
X57372476Y-22311761D01*
X57324857Y-22216523D01*
X57324857Y-21835571D01*
X57372476Y-21740333D01*
X57467714Y-21692714D01*
X57658190Y-21692714D01*
X57753428Y-21740333D01*
X57801047Y-21835571D01*
X57801047Y-21930809D01*
X57324857Y-22026047D01*
X58134380Y-21692714D02*
X58372476Y-22359380D01*
X58610571Y-21692714D02*
X58372476Y-22359380D01*
X58277238Y-22597476D01*
X58229619Y-22645095D01*
X58134380Y-22692714D01*
X59420095Y-22311761D02*
X59324857Y-22359380D01*
X59134380Y-22359380D01*
X59039142Y-22311761D01*
X58991523Y-22264142D01*
X58943904Y-22168904D01*
X58943904Y-21883190D01*
X58991523Y-21787952D01*
X59039142Y-21740333D01*
X59134380Y-21692714D01*
X59324857Y-21692714D01*
X59420095Y-21740333D01*
X60277238Y-22359380D02*
X60277238Y-21835571D01*
X60229619Y-21740333D01*
X60134380Y-21692714D01*
X59943904Y-21692714D01*
X59848666Y-21740333D01*
X60277238Y-22311761D02*
X60182000Y-22359380D01*
X59943904Y-22359380D01*
X59848666Y-22311761D01*
X59801047Y-22216523D01*
X59801047Y-22121285D01*
X59848666Y-22026047D01*
X59943904Y-21978428D01*
X60182000Y-21978428D01*
X60277238Y-21930809D01*
X60753428Y-21692714D02*
X60753428Y-22692714D01*
X60753428Y-21740333D02*
X60848666Y-21692714D01*
X61039142Y-21692714D01*
X61134380Y-21740333D01*
X61182000Y-21787952D01*
X61229619Y-21883190D01*
X61229619Y-22168904D01*
X61182000Y-22264142D01*
X61134380Y-22311761D01*
X61039142Y-22359380D01*
X60848666Y-22359380D01*
X60753428Y-22311761D01*
X61610571Y-22311761D02*
X61705809Y-22359380D01*
X61896285Y-22359380D01*
X61991523Y-22311761D01*
X62039142Y-22216523D01*
X62039142Y-22168904D01*
X61991523Y-22073666D01*
X61896285Y-22026047D01*
X61753428Y-22026047D01*
X61658190Y-21978428D01*
X61610571Y-21883190D01*
X61610571Y-21835571D01*
X61658190Y-21740333D01*
X61753428Y-21692714D01*
X61896285Y-21692714D01*
X61991523Y-21740333D01*
D11*
G36*
X49633910Y-18832348D02*
G01*
X49712454Y-18832778D01*
X49769298Y-18833942D01*
X49808105Y-18836207D01*
X49832538Y-18839940D01*
X49846262Y-18845506D01*
X49852940Y-18853273D01*
X49856236Y-18863605D01*
X49856556Y-18864943D01*
X49861562Y-18889079D01*
X49870829Y-18936701D01*
X49883392Y-19002741D01*
X49898287Y-19082128D01*
X49914551Y-19169796D01*
X49915119Y-19172875D01*
X49931410Y-19258789D01*
X49946652Y-19334696D01*
X49959861Y-19396045D01*
X49970054Y-19438282D01*
X49976248Y-19456855D01*
X49976543Y-19457184D01*
X49994788Y-19466253D01*
X50032405Y-19481367D01*
X50081271Y-19499262D01*
X50081543Y-19499358D01*
X50143093Y-19522493D01*
X50215657Y-19551965D01*
X50284057Y-19581597D01*
X50287294Y-19583062D01*
X50398702Y-19633626D01*
X50645399Y-19465160D01*
X50721077Y-19413803D01*
X50789631Y-19367889D01*
X50847088Y-19330030D01*
X50889476Y-19302837D01*
X50912825Y-19288921D01*
X50915042Y-19287889D01*
X50932010Y-19292484D01*
X50963701Y-19314655D01*
X51011352Y-19355447D01*
X51076198Y-19415905D01*
X51142397Y-19480227D01*
X51206214Y-19543612D01*
X51263329Y-19601451D01*
X51310305Y-19650175D01*
X51343703Y-19686210D01*
X51360085Y-19705984D01*
X51360694Y-19707002D01*
X51362505Y-19720572D01*
X51355683Y-19742733D01*
X51338540Y-19776478D01*
X51309393Y-19824800D01*
X51266555Y-19890692D01*
X51209448Y-19975517D01*
X51158766Y-20050177D01*
X51113461Y-20117140D01*
X51076150Y-20172516D01*
X51049452Y-20212420D01*
X51035985Y-20232962D01*
X51035137Y-20234356D01*
X51036781Y-20254038D01*
X51049245Y-20292293D01*
X51070048Y-20341889D01*
X51077462Y-20357728D01*
X51109814Y-20428290D01*
X51144328Y-20508353D01*
X51172365Y-20577629D01*
X51192568Y-20629045D01*
X51208615Y-20668119D01*
X51217888Y-20688541D01*
X51219041Y-20690114D01*
X51236096Y-20692721D01*
X51276298Y-20699863D01*
X51334302Y-20710523D01*
X51404763Y-20723685D01*
X51482335Y-20738333D01*
X51561672Y-20753449D01*
X51637431Y-20768018D01*
X51704264Y-20781022D01*
X51756828Y-20791445D01*
X51789776Y-20798270D01*
X51797857Y-20800199D01*
X51806205Y-20804962D01*
X51812506Y-20815718D01*
X51817045Y-20836098D01*
X51820104Y-20869734D01*
X51821967Y-20920255D01*
X51822918Y-20991292D01*
X51823240Y-21086476D01*
X51823257Y-21125492D01*
X51823257Y-21442799D01*
X51747057Y-21457839D01*
X51704663Y-21465995D01*
X51641400Y-21477899D01*
X51564962Y-21492116D01*
X51483043Y-21507210D01*
X51460400Y-21511355D01*
X51384806Y-21526053D01*
X51318953Y-21540505D01*
X51268366Y-21553375D01*
X51238574Y-21563322D01*
X51233612Y-21566287D01*
X51221426Y-21587283D01*
X51203953Y-21627967D01*
X51184577Y-21680322D01*
X51180734Y-21691600D01*
X51155339Y-21761523D01*
X51123817Y-21840418D01*
X51092969Y-21911266D01*
X51092817Y-21911595D01*
X51041447Y-22022733D01*
X51210399Y-22271253D01*
X51379352Y-22519772D01*
X51162429Y-22737058D01*
X51096819Y-22801726D01*
X51036979Y-22858733D01*
X50986267Y-22905033D01*
X50948046Y-22937584D01*
X50925675Y-22953343D01*
X50922466Y-22954343D01*
X50903626Y-22946469D01*
X50865180Y-22924578D01*
X50811330Y-22891267D01*
X50746276Y-22849131D01*
X50675940Y-22801943D01*
X50604555Y-22753810D01*
X50540908Y-22711928D01*
X50489041Y-22678871D01*
X50452995Y-22657218D01*
X50436867Y-22649543D01*
X50417189Y-22656037D01*
X50379875Y-22673150D01*
X50332621Y-22697326D01*
X50327612Y-22700013D01*
X50263977Y-22731927D01*
X50220341Y-22747579D01*
X50193202Y-22747745D01*
X50179057Y-22733204D01*
X50178975Y-22733000D01*
X50171905Y-22715779D01*
X50155042Y-22674899D01*
X50129695Y-22613525D01*
X50097171Y-22534819D01*
X50058778Y-22441947D01*
X50015822Y-22338072D01*
X49974222Y-22237502D01*
X49928504Y-22126516D01*
X49886526Y-22023703D01*
X49849548Y-21932215D01*
X49818827Y-21855201D01*
X49795622Y-21795815D01*
X49781190Y-21757209D01*
X49776743Y-21742800D01*
X49787896Y-21726272D01*
X49817069Y-21699930D01*
X49855971Y-21670887D01*
X49966757Y-21579039D01*
X50053351Y-21473759D01*
X50114716Y-21357266D01*
X50149815Y-21231776D01*
X50157608Y-21099507D01*
X50151943Y-21038457D01*
X50121078Y-20911795D01*
X50067920Y-20799941D01*
X49995767Y-20704001D01*
X49907917Y-20625076D01*
X49807665Y-20564270D01*
X49698310Y-20522687D01*
X49583147Y-20501428D01*
X49465475Y-20501599D01*
X49348590Y-20524301D01*
X49235789Y-20570638D01*
X49130369Y-20641713D01*
X49086368Y-20681911D01*
X49001979Y-20785129D01*
X48943222Y-20897925D01*
X48909704Y-21017010D01*
X48901035Y-21139095D01*
X48916823Y-21260893D01*
X48956678Y-21379116D01*
X49020207Y-21490475D01*
X49107021Y-21591684D01*
X49204029Y-21670887D01*
X49244437Y-21701162D01*
X49272982Y-21727219D01*
X49283257Y-21742825D01*
X49277877Y-21759843D01*
X49262575Y-21800500D01*
X49238612Y-21861642D01*
X49207244Y-21940119D01*
X49169732Y-22032780D01*
X49127333Y-22136472D01*
X49085663Y-22237526D01*
X49039690Y-22348607D01*
X48997107Y-22451541D01*
X48959221Y-22543165D01*
X48927340Y-22620316D01*
X48902771Y-22679831D01*
X48886820Y-22718544D01*
X48880910Y-22733000D01*
X48866948Y-22747685D01*
X48839940Y-22747642D01*
X48796413Y-22732099D01*
X48732890Y-22700284D01*
X48732388Y-22700013D01*
X48684560Y-22675323D01*
X48645897Y-22657338D01*
X48624095Y-22649614D01*
X48623133Y-22649543D01*
X48606721Y-22657378D01*
X48570487Y-22679165D01*
X48518474Y-22712328D01*
X48454725Y-22754291D01*
X48384060Y-22801943D01*
X48312116Y-22850191D01*
X48247274Y-22892151D01*
X48193735Y-22925227D01*
X48155697Y-22946821D01*
X48137533Y-22954343D01*
X48120808Y-22944457D01*
X48087180Y-22916826D01*
X48040010Y-22874495D01*
X47982658Y-22820505D01*
X47918484Y-22757899D01*
X47897497Y-22736983D01*
X47680499Y-22519623D01*
X47845668Y-22277220D01*
X47895864Y-22202781D01*
X47939919Y-22135972D01*
X47975362Y-22080665D01*
X47999719Y-22040729D01*
X48010522Y-22020036D01*
X48010838Y-22018563D01*
X48005143Y-21999058D01*
X47989826Y-21959822D01*
X47967537Y-21907430D01*
X47951893Y-21872355D01*
X47922641Y-21805201D01*
X47895094Y-21737358D01*
X47873737Y-21680034D01*
X47867935Y-21662572D01*
X47851452Y-21615938D01*
X47835340Y-21579905D01*
X47826490Y-21566287D01*
X47806960Y-21557952D01*
X47764334Y-21546137D01*
X47704145Y-21532181D01*
X47631922Y-21517422D01*
X47599600Y-21511355D01*
X47517522Y-21496273D01*
X47438795Y-21481669D01*
X47371109Y-21468980D01*
X47322160Y-21459642D01*
X47312943Y-21457839D01*
X47236743Y-21442799D01*
X47236743Y-21125492D01*
X47236914Y-21021154D01*
X47237616Y-20942213D01*
X47239134Y-20885038D01*
X47241749Y-20845999D01*
X47245746Y-20821465D01*
X47251409Y-20807805D01*
X47259020Y-20801389D01*
X47262143Y-20800199D01*
X47280978Y-20795980D01*
X47322588Y-20787562D01*
X47381630Y-20775961D01*
X47452757Y-20762195D01*
X47530625Y-20747280D01*
X47609887Y-20732232D01*
X47685198Y-20718069D01*
X47751213Y-20705806D01*
X47802587Y-20696461D01*
X47833975Y-20691050D01*
X47840959Y-20690114D01*
X47847285Y-20677596D01*
X47861290Y-20644246D01*
X47880355Y-20596377D01*
X47887634Y-20577629D01*
X47916996Y-20505195D01*
X47951571Y-20425170D01*
X47982537Y-20357728D01*
X48005323Y-20306159D01*
X48020482Y-20263785D01*
X48025542Y-20237834D01*
X48024736Y-20234356D01*
X48014041Y-20217936D01*
X47989620Y-20181417D01*
X47954095Y-20128687D01*
X47910087Y-20063635D01*
X47860217Y-19990151D01*
X47850356Y-19975645D01*
X47792492Y-19889704D01*
X47749956Y-19824261D01*
X47721054Y-19776304D01*
X47704090Y-19742820D01*
X47697367Y-19720795D01*
X47699190Y-19707217D01*
X47699236Y-19707131D01*
X47713586Y-19689297D01*
X47745323Y-19654817D01*
X47791010Y-19607268D01*
X47847204Y-19550222D01*
X47910468Y-19487255D01*
X47917602Y-19480227D01*
X47997330Y-19403020D01*
X48058857Y-19346330D01*
X48103421Y-19309110D01*
X48132257Y-19290315D01*
X48144958Y-19287889D01*
X48163494Y-19298471D01*
X48201961Y-19322916D01*
X48256386Y-19358612D01*
X48322798Y-19402947D01*
X48397225Y-19453311D01*
X48414601Y-19465160D01*
X48661297Y-19633626D01*
X48772706Y-19583062D01*
X48840457Y-19553595D01*
X48913183Y-19523959D01*
X48975703Y-19500330D01*
X48978457Y-19499358D01*
X49027360Y-19481457D01*
X49065057Y-19466320D01*
X49083425Y-19457210D01*
X49083456Y-19457184D01*
X49089285Y-19440717D01*
X49099192Y-19400219D01*
X49112195Y-19340242D01*
X49127309Y-19265340D01*
X49143552Y-19180064D01*
X49144881Y-19172875D01*
X49161175Y-19085014D01*
X49176133Y-19005260D01*
X49188791Y-18938681D01*
X49198186Y-18890347D01*
X49203354Y-18865325D01*
X49203444Y-18864943D01*
X49206589Y-18854299D01*
X49212704Y-18846262D01*
X49225453Y-18840467D01*
X49248500Y-18836547D01*
X49285509Y-18834135D01*
X49340144Y-18832865D01*
X49416067Y-18832371D01*
X49516944Y-18832286D01*
X49530000Y-18832286D01*
X49633910Y-18832348D01*
G37*
X49633910Y-18832348D02*
X49712454Y-18832778D01*
X49769298Y-18833942D01*
X49808105Y-18836207D01*
X49832538Y-18839940D01*
X49846262Y-18845506D01*
X49852940Y-18853273D01*
X49856236Y-18863605D01*
X49856556Y-18864943D01*
X49861562Y-18889079D01*
X49870829Y-18936701D01*
X49883392Y-19002741D01*
X49898287Y-19082128D01*
X49914551Y-19169796D01*
X49915119Y-19172875D01*
X49931410Y-19258789D01*
X49946652Y-19334696D01*
X49959861Y-19396045D01*
X49970054Y-19438282D01*
X49976248Y-19456855D01*
X49976543Y-19457184D01*
X49994788Y-19466253D01*
X50032405Y-19481367D01*
X50081271Y-19499262D01*
X50081543Y-19499358D01*
X50143093Y-19522493D01*
X50215657Y-19551965D01*
X50284057Y-19581597D01*
X50287294Y-19583062D01*
X50398702Y-19633626D01*
X50645399Y-19465160D01*
X50721077Y-19413803D01*
X50789631Y-19367889D01*
X50847088Y-19330030D01*
X50889476Y-19302837D01*
X50912825Y-19288921D01*
X50915042Y-19287889D01*
X50932010Y-19292484D01*
X50963701Y-19314655D01*
X51011352Y-19355447D01*
X51076198Y-19415905D01*
X51142397Y-19480227D01*
X51206214Y-19543612D01*
X51263329Y-19601451D01*
X51310305Y-19650175D01*
X51343703Y-19686210D01*
X51360085Y-19705984D01*
X51360694Y-19707002D01*
X51362505Y-19720572D01*
X51355683Y-19742733D01*
X51338540Y-19776478D01*
X51309393Y-19824800D01*
X51266555Y-19890692D01*
X51209448Y-19975517D01*
X51158766Y-20050177D01*
X51113461Y-20117140D01*
X51076150Y-20172516D01*
X51049452Y-20212420D01*
X51035985Y-20232962D01*
X51035137Y-20234356D01*
X51036781Y-20254038D01*
X51049245Y-20292293D01*
X51070048Y-20341889D01*
X51077462Y-20357728D01*
X51109814Y-20428290D01*
X51144328Y-20508353D01*
X51172365Y-20577629D01*
X51192568Y-20629045D01*
X51208615Y-20668119D01*
X51217888Y-20688541D01*
X51219041Y-20690114D01*
X51236096Y-20692721D01*
X51276298Y-20699863D01*
X51334302Y-20710523D01*
X51404763Y-20723685D01*
X51482335Y-20738333D01*
X51561672Y-20753449D01*
X51637431Y-20768018D01*
X51704264Y-20781022D01*
X51756828Y-20791445D01*
X51789776Y-20798270D01*
X51797857Y-20800199D01*
X51806205Y-20804962D01*
X51812506Y-20815718D01*
X51817045Y-20836098D01*
X51820104Y-20869734D01*
X51821967Y-20920255D01*
X51822918Y-20991292D01*
X51823240Y-21086476D01*
X51823257Y-21125492D01*
X51823257Y-21442799D01*
X51747057Y-21457839D01*
X51704663Y-21465995D01*
X51641400Y-21477899D01*
X51564962Y-21492116D01*
X51483043Y-21507210D01*
X51460400Y-21511355D01*
X51384806Y-21526053D01*
X51318953Y-21540505D01*
X51268366Y-21553375D01*
X51238574Y-21563322D01*
X51233612Y-21566287D01*
X51221426Y-21587283D01*
X51203953Y-21627967D01*
X51184577Y-21680322D01*
X51180734Y-21691600D01*
X51155339Y-21761523D01*
X51123817Y-21840418D01*
X51092969Y-21911266D01*
X51092817Y-21911595D01*
X51041447Y-22022733D01*
X51210399Y-22271253D01*
X51379352Y-22519772D01*
X51162429Y-22737058D01*
X51096819Y-22801726D01*
X51036979Y-22858733D01*
X50986267Y-22905033D01*
X50948046Y-22937584D01*
X50925675Y-22953343D01*
X50922466Y-22954343D01*
X50903626Y-22946469D01*
X50865180Y-22924578D01*
X50811330Y-22891267D01*
X50746276Y-22849131D01*
X50675940Y-22801943D01*
X50604555Y-22753810D01*
X50540908Y-22711928D01*
X50489041Y-22678871D01*
X50452995Y-22657218D01*
X50436867Y-22649543D01*
X50417189Y-22656037D01*
X50379875Y-22673150D01*
X50332621Y-22697326D01*
X50327612Y-22700013D01*
X50263977Y-22731927D01*
X50220341Y-22747579D01*
X50193202Y-22747745D01*
X50179057Y-22733204D01*
X50178975Y-22733000D01*
X50171905Y-22715779D01*
X50155042Y-22674899D01*
X50129695Y-22613525D01*
X50097171Y-22534819D01*
X50058778Y-22441947D01*
X50015822Y-22338072D01*
X49974222Y-22237502D01*
X49928504Y-22126516D01*
X49886526Y-22023703D01*
X49849548Y-21932215D01*
X49818827Y-21855201D01*
X49795622Y-21795815D01*
X49781190Y-21757209D01*
X49776743Y-21742800D01*
X49787896Y-21726272D01*
X49817069Y-21699930D01*
X49855971Y-21670887D01*
X49966757Y-21579039D01*
X50053351Y-21473759D01*
X50114716Y-21357266D01*
X50149815Y-21231776D01*
X50157608Y-21099507D01*
X50151943Y-21038457D01*
X50121078Y-20911795D01*
X50067920Y-20799941D01*
X49995767Y-20704001D01*
X49907917Y-20625076D01*
X49807665Y-20564270D01*
X49698310Y-20522687D01*
X49583147Y-20501428D01*
X49465475Y-20501599D01*
X49348590Y-20524301D01*
X49235789Y-20570638D01*
X49130369Y-20641713D01*
X49086368Y-20681911D01*
X49001979Y-20785129D01*
X48943222Y-20897925D01*
X48909704Y-21017010D01*
X48901035Y-21139095D01*
X48916823Y-21260893D01*
X48956678Y-21379116D01*
X49020207Y-21490475D01*
X49107021Y-21591684D01*
X49204029Y-21670887D01*
X49244437Y-21701162D01*
X49272982Y-21727219D01*
X49283257Y-21742825D01*
X49277877Y-21759843D01*
X49262575Y-21800500D01*
X49238612Y-21861642D01*
X49207244Y-21940119D01*
X49169732Y-22032780D01*
X49127333Y-22136472D01*
X49085663Y-22237526D01*
X49039690Y-22348607D01*
X48997107Y-22451541D01*
X48959221Y-22543165D01*
X48927340Y-22620316D01*
X48902771Y-22679831D01*
X48886820Y-22718544D01*
X48880910Y-22733000D01*
X48866948Y-22747685D01*
X48839940Y-22747642D01*
X48796413Y-22732099D01*
X48732890Y-22700284D01*
X48732388Y-22700013D01*
X48684560Y-22675323D01*
X48645897Y-22657338D01*
X48624095Y-22649614D01*
X48623133Y-22649543D01*
X48606721Y-22657378D01*
X48570487Y-22679165D01*
X48518474Y-22712328D01*
X48454725Y-22754291D01*
X48384060Y-22801943D01*
X48312116Y-22850191D01*
X48247274Y-22892151D01*
X48193735Y-22925227D01*
X48155697Y-22946821D01*
X48137533Y-22954343D01*
X48120808Y-22944457D01*
X48087180Y-22916826D01*
X48040010Y-22874495D01*
X47982658Y-22820505D01*
X47918484Y-22757899D01*
X47897497Y-22736983D01*
X47680499Y-22519623D01*
X47845668Y-22277220D01*
X47895864Y-22202781D01*
X47939919Y-22135972D01*
X47975362Y-22080665D01*
X47999719Y-22040729D01*
X48010522Y-22020036D01*
X48010838Y-22018563D01*
X48005143Y-21999058D01*
X47989826Y-21959822D01*
X47967537Y-21907430D01*
X47951893Y-21872355D01*
X47922641Y-21805201D01*
X47895094Y-21737358D01*
X47873737Y-21680034D01*
X47867935Y-21662572D01*
X47851452Y-21615938D01*
X47835340Y-21579905D01*
X47826490Y-21566287D01*
X47806960Y-21557952D01*
X47764334Y-21546137D01*
X47704145Y-21532181D01*
X47631922Y-21517422D01*
X47599600Y-21511355D01*
X47517522Y-21496273D01*
X47438795Y-21481669D01*
X47371109Y-21468980D01*
X47322160Y-21459642D01*
X47312943Y-21457839D01*
X47236743Y-21442799D01*
X47236743Y-21125492D01*
X47236914Y-21021154D01*
X47237616Y-20942213D01*
X47239134Y-20885038D01*
X47241749Y-20845999D01*
X47245746Y-20821465D01*
X47251409Y-20807805D01*
X47259020Y-20801389D01*
X47262143Y-20800199D01*
X47280978Y-20795980D01*
X47322588Y-20787562D01*
X47381630Y-20775961D01*
X47452757Y-20762195D01*
X47530625Y-20747280D01*
X47609887Y-20732232D01*
X47685198Y-20718069D01*
X47751213Y-20705806D01*
X47802587Y-20696461D01*
X47833975Y-20691050D01*
X47840959Y-20690114D01*
X47847285Y-20677596D01*
X47861290Y-20644246D01*
X47880355Y-20596377D01*
X47887634Y-20577629D01*
X47916996Y-20505195D01*
X47951571Y-20425170D01*
X47982537Y-20357728D01*
X48005323Y-20306159D01*
X48020482Y-20263785D01*
X48025542Y-20237834D01*
X48024736Y-20234356D01*
X48014041Y-20217936D01*
X47989620Y-20181417D01*
X47954095Y-20128687D01*
X47910087Y-20063635D01*
X47860217Y-19990151D01*
X47850356Y-19975645D01*
X47792492Y-19889704D01*
X47749956Y-19824261D01*
X47721054Y-19776304D01*
X47704090Y-19742820D01*
X47697367Y-19720795D01*
X47699190Y-19707217D01*
X47699236Y-19707131D01*
X47713586Y-19689297D01*
X47745323Y-19654817D01*
X47791010Y-19607268D01*
X47847204Y-19550222D01*
X47910468Y-19487255D01*
X47917602Y-19480227D01*
X47997330Y-19403020D01*
X48058857Y-19346330D01*
X48103421Y-19309110D01*
X48132257Y-19290315D01*
X48144958Y-19287889D01*
X48163494Y-19298471D01*
X48201961Y-19322916D01*
X48256386Y-19358612D01*
X48322798Y-19402947D01*
X48397225Y-19453311D01*
X48414601Y-19465160D01*
X48661297Y-19633626D01*
X48772706Y-19583062D01*
X48840457Y-19553595D01*
X48913183Y-19523959D01*
X48975703Y-19500330D01*
X48978457Y-19499358D01*
X49027360Y-19481457D01*
X49065057Y-19466320D01*
X49083425Y-19457210D01*
X49083456Y-19457184D01*
X49089285Y-19440717D01*
X49099192Y-19400219D01*
X49112195Y-19340242D01*
X49127309Y-19265340D01*
X49143552Y-19180064D01*
X49144881Y-19172875D01*
X49161175Y-19085014D01*
X49176133Y-19005260D01*
X49188791Y-18938681D01*
X49198186Y-18890347D01*
X49203354Y-18865325D01*
X49203444Y-18864943D01*
X49206589Y-18854299D01*
X49212704Y-18846262D01*
X49225453Y-18840467D01*
X49248500Y-18836547D01*
X49285509Y-18834135D01*
X49340144Y-18832865D01*
X49416067Y-18832371D01*
X49516944Y-18832286D01*
X49530000Y-18832286D01*
X49633910Y-18832348D01*
G36*
X52683595Y-23556966D02*
G01*
X52741021Y-23594497D01*
X52768719Y-23628096D01*
X52790662Y-23689064D01*
X52792405Y-23737308D01*
X52788457Y-23801816D01*
X52639686Y-23866934D01*
X52567349Y-23900202D01*
X52520084Y-23926964D01*
X52495507Y-23950144D01*
X52491237Y-23972667D01*
X52504889Y-23997455D01*
X52519943Y-24013886D01*
X52563746Y-24040235D01*
X52611389Y-24042081D01*
X52655145Y-24021546D01*
X52687289Y-23980752D01*
X52693038Y-23966347D01*
X52720576Y-23921356D01*
X52752258Y-23902182D01*
X52795714Y-23885779D01*
X52795714Y-23947966D01*
X52791872Y-23990283D01*
X52776823Y-24025969D01*
X52745280Y-24066943D01*
X52740592Y-24072267D01*
X52705506Y-24108720D01*
X52675347Y-24128283D01*
X52637615Y-24137283D01*
X52606335Y-24140230D01*
X52550385Y-24140965D01*
X52510555Y-24131660D01*
X52485708Y-24117846D01*
X52446656Y-24087467D01*
X52419625Y-24054613D01*
X52402517Y-24013294D01*
X52393238Y-23957521D01*
X52389693Y-23881305D01*
X52389410Y-23842622D01*
X52390372Y-23796247D01*
X52478007Y-23796247D01*
X52479023Y-23821126D01*
X52481556Y-23825200D01*
X52498274Y-23819665D01*
X52534249Y-23805017D01*
X52582331Y-23784190D01*
X52592386Y-23779714D01*
X52653152Y-23748814D01*
X52686632Y-23721657D01*
X52693990Y-23696220D01*
X52676391Y-23670481D01*
X52661856Y-23659109D01*
X52609410Y-23636364D01*
X52560322Y-23640122D01*
X52519227Y-23667884D01*
X52490758Y-23717152D01*
X52481631Y-23756257D01*
X52478007Y-23796247D01*
X52390372Y-23796247D01*
X52391285Y-23752249D01*
X52398196Y-23685384D01*
X52411884Y-23636695D01*
X52434096Y-23600849D01*
X52466574Y-23572513D01*
X52480733Y-23563355D01*
X52545053Y-23539507D01*
X52615473Y-23538006D01*
X52683595Y-23556966D01*
G37*
X52683595Y-23556966D02*
X52741021Y-23594497D01*
X52768719Y-23628096D01*
X52790662Y-23689064D01*
X52792405Y-23737308D01*
X52788457Y-23801816D01*
X52639686Y-23866934D01*
X52567349Y-23900202D01*
X52520084Y-23926964D01*
X52495507Y-23950144D01*
X52491237Y-23972667D01*
X52504889Y-23997455D01*
X52519943Y-24013886D01*
X52563746Y-24040235D01*
X52611389Y-24042081D01*
X52655145Y-24021546D01*
X52687289Y-23980752D01*
X52693038Y-23966347D01*
X52720576Y-23921356D01*
X52752258Y-23902182D01*
X52795714Y-23885779D01*
X52795714Y-23947966D01*
X52791872Y-23990283D01*
X52776823Y-24025969D01*
X52745280Y-24066943D01*
X52740592Y-24072267D01*
X52705506Y-24108720D01*
X52675347Y-24128283D01*
X52637615Y-24137283D01*
X52606335Y-24140230D01*
X52550385Y-24140965D01*
X52510555Y-24131660D01*
X52485708Y-24117846D01*
X52446656Y-24087467D01*
X52419625Y-24054613D01*
X52402517Y-24013294D01*
X52393238Y-23957521D01*
X52389693Y-23881305D01*
X52389410Y-23842622D01*
X52390372Y-23796247D01*
X52478007Y-23796247D01*
X52479023Y-23821126D01*
X52481556Y-23825200D01*
X52498274Y-23819665D01*
X52534249Y-23805017D01*
X52582331Y-23784190D01*
X52592386Y-23779714D01*
X52653152Y-23748814D01*
X52686632Y-23721657D01*
X52693990Y-23696220D01*
X52676391Y-23670481D01*
X52661856Y-23659109D01*
X52609410Y-23636364D01*
X52560322Y-23640122D01*
X52519227Y-23667884D01*
X52490758Y-23717152D01*
X52481631Y-23756257D01*
X52478007Y-23796247D01*
X52390372Y-23796247D01*
X52391285Y-23752249D01*
X52398196Y-23685384D01*
X52411884Y-23636695D01*
X52434096Y-23600849D01*
X52466574Y-23572513D01*
X52480733Y-23563355D01*
X52545053Y-23539507D01*
X52615473Y-23538006D01*
X52683595Y-23556966D01*
G36*
X52182600Y-23548752D02*
G01*
X52199948Y-23556334D01*
X52241356Y-23589128D01*
X52276765Y-23636547D01*
X52298664Y-23687151D01*
X52302229Y-23712098D01*
X52290279Y-23746927D01*
X52264067Y-23765357D01*
X52235964Y-23776516D01*
X52223095Y-23778572D01*
X52216829Y-23763649D01*
X52204456Y-23731175D01*
X52199028Y-23716502D01*
X52168590Y-23665744D01*
X52124520Y-23640427D01*
X52068010Y-23641206D01*
X52063825Y-23642203D01*
X52033655Y-23656507D01*
X52011476Y-23684393D01*
X51996327Y-23729287D01*
X51987250Y-23794615D01*
X51983286Y-23883804D01*
X51982914Y-23931261D01*
X51982730Y-24006071D01*
X51981522Y-24057069D01*
X51978309Y-24089471D01*
X51972109Y-24108495D01*
X51961940Y-24119356D01*
X51946819Y-24127272D01*
X51945946Y-24127670D01*
X51916828Y-24139981D01*
X51902403Y-24144514D01*
X51900186Y-24130809D01*
X51898289Y-24092925D01*
X51896847Y-24035715D01*
X51895998Y-23964027D01*
X51895829Y-23911565D01*
X51896692Y-23810047D01*
X51900070Y-23733032D01*
X51907142Y-23676023D01*
X51919088Y-23634526D01*
X51937090Y-23604043D01*
X51962327Y-23580080D01*
X51987247Y-23563355D01*
X52047171Y-23541097D01*
X52116911Y-23536076D01*
X52182600Y-23548752D01*
G37*
X52182600Y-23548752D02*
X52199948Y-23556334D01*
X52241356Y-23589128D01*
X52276765Y-23636547D01*
X52298664Y-23687151D01*
X52302229Y-23712098D01*
X52290279Y-23746927D01*
X52264067Y-23765357D01*
X52235964Y-23776516D01*
X52223095Y-23778572D01*
X52216829Y-23763649D01*
X52204456Y-23731175D01*
X52199028Y-23716502D01*
X52168590Y-23665744D01*
X52124520Y-23640427D01*
X52068010Y-23641206D01*
X52063825Y-23642203D01*
X52033655Y-23656507D01*
X52011476Y-23684393D01*
X51996327Y-23729287D01*
X51987250Y-23794615D01*
X51983286Y-23883804D01*
X51982914Y-23931261D01*
X51982730Y-24006071D01*
X51981522Y-24057069D01*
X51978309Y-24089471D01*
X51972109Y-24108495D01*
X51961940Y-24119356D01*
X51946819Y-24127272D01*
X51945946Y-24127670D01*
X51916828Y-24139981D01*
X51902403Y-24144514D01*
X51900186Y-24130809D01*
X51898289Y-24092925D01*
X51896847Y-24035715D01*
X51895998Y-23964027D01*
X51895829Y-23911565D01*
X51896692Y-23810047D01*
X51900070Y-23733032D01*
X51907142Y-23676023D01*
X51919088Y-23634526D01*
X51937090Y-23604043D01*
X51962327Y-23580080D01*
X51987247Y-23563355D01*
X52047171Y-23541097D01*
X52116911Y-23536076D01*
X52182600Y-23548752D01*
G36*
X51674876Y-23546335D02*
G01*
X51716667Y-23565344D01*
X51749469Y-23588378D01*
X51773503Y-23614133D01*
X51790097Y-23647358D01*
X51800577Y-23692800D01*
X51806271Y-23755207D01*
X51808507Y-23839327D01*
X51808743Y-23894721D01*
X51808743Y-24110826D01*
X51771774Y-24127670D01*
X51742656Y-24139981D01*
X51728231Y-24144514D01*
X51725472Y-24131025D01*
X51723282Y-24094653D01*
X51721942Y-24041542D01*
X51721657Y-23999372D01*
X51720434Y-23938447D01*
X51717136Y-23890115D01*
X51712321Y-23860518D01*
X51708496Y-23854229D01*
X51682783Y-23860652D01*
X51642418Y-23877125D01*
X51595679Y-23899458D01*
X51550845Y-23923457D01*
X51516193Y-23944930D01*
X51500002Y-23959685D01*
X51499938Y-23959845D01*
X51501330Y-23987152D01*
X51513818Y-24013219D01*
X51535743Y-24034392D01*
X51567743Y-24041474D01*
X51595092Y-24040649D01*
X51633826Y-24040042D01*
X51654158Y-24049116D01*
X51666369Y-24073092D01*
X51667909Y-24077613D01*
X51673203Y-24111806D01*
X51659047Y-24132568D01*
X51622148Y-24142462D01*
X51582289Y-24144292D01*
X51510562Y-24130727D01*
X51473432Y-24111355D01*
X51427576Y-24065845D01*
X51403256Y-24009983D01*
X51401073Y-23950957D01*
X51421629Y-23895953D01*
X51452549Y-23861486D01*
X51483420Y-23842189D01*
X51531942Y-23817759D01*
X51588485Y-23792985D01*
X51597910Y-23789199D01*
X51660019Y-23761791D01*
X51695822Y-23737634D01*
X51707337Y-23713619D01*
X51696580Y-23686635D01*
X51678114Y-23665543D01*
X51634469Y-23639572D01*
X51586446Y-23637624D01*
X51542406Y-23657637D01*
X51510709Y-23697551D01*
X51506549Y-23707848D01*
X51482327Y-23745724D01*
X51446965Y-23773842D01*
X51402343Y-23796917D01*
X51402343Y-23731485D01*
X51404969Y-23691506D01*
X51416230Y-23659997D01*
X51441199Y-23626378D01*
X51465169Y-23600484D01*
X51502441Y-23563817D01*
X51531401Y-23544121D01*
X51562505Y-23536220D01*
X51597713Y-23534914D01*
X51674876Y-23546335D01*
G37*
X51674876Y-23546335D02*
X51716667Y-23565344D01*
X51749469Y-23588378D01*
X51773503Y-23614133D01*
X51790097Y-23647358D01*
X51800577Y-23692800D01*
X51806271Y-23755207D01*
X51808507Y-23839327D01*
X51808743Y-23894721D01*
X51808743Y-24110826D01*
X51771774Y-24127670D01*
X51742656Y-24139981D01*
X51728231Y-24144514D01*
X51725472Y-24131025D01*
X51723282Y-24094653D01*
X51721942Y-24041542D01*
X51721657Y-23999372D01*
X51720434Y-23938447D01*
X51717136Y-23890115D01*
X51712321Y-23860518D01*
X51708496Y-23854229D01*
X51682783Y-23860652D01*
X51642418Y-23877125D01*
X51595679Y-23899458D01*
X51550845Y-23923457D01*
X51516193Y-23944930D01*
X51500002Y-23959685D01*
X51499938Y-23959845D01*
X51501330Y-23987152D01*
X51513818Y-24013219D01*
X51535743Y-24034392D01*
X51567743Y-24041474D01*
X51595092Y-24040649D01*
X51633826Y-24040042D01*
X51654158Y-24049116D01*
X51666369Y-24073092D01*
X51667909Y-24077613D01*
X51673203Y-24111806D01*
X51659047Y-24132568D01*
X51622148Y-24142462D01*
X51582289Y-24144292D01*
X51510562Y-24130727D01*
X51473432Y-24111355D01*
X51427576Y-24065845D01*
X51403256Y-24009983D01*
X51401073Y-23950957D01*
X51421629Y-23895953D01*
X51452549Y-23861486D01*
X51483420Y-23842189D01*
X51531942Y-23817759D01*
X51588485Y-23792985D01*
X51597910Y-23789199D01*
X51660019Y-23761791D01*
X51695822Y-23737634D01*
X51707337Y-23713619D01*
X51696580Y-23686635D01*
X51678114Y-23665543D01*
X51634469Y-23639572D01*
X51586446Y-23637624D01*
X51542406Y-23657637D01*
X51510709Y-23697551D01*
X51506549Y-23707848D01*
X51482327Y-23745724D01*
X51446965Y-23773842D01*
X51402343Y-23796917D01*
X51402343Y-23731485D01*
X51404969Y-23691506D01*
X51416230Y-23659997D01*
X51441199Y-23626378D01*
X51465169Y-23600484D01*
X51502441Y-23563817D01*
X51531401Y-23544121D01*
X51562505Y-23536220D01*
X51597713Y-23534914D01*
X51674876Y-23546335D01*
G36*
X51309833Y-23548663D02*
G01*
X51312048Y-23586850D01*
X51313784Y-23644886D01*
X51314899Y-23718180D01*
X51315257Y-23795055D01*
X51315257Y-24055196D01*
X51269326Y-24101127D01*
X51237675Y-24129429D01*
X51209890Y-24140893D01*
X51171915Y-24140168D01*
X51156840Y-24138321D01*
X51109726Y-24132948D01*
X51070756Y-24129869D01*
X51061257Y-24129585D01*
X51029233Y-24131445D01*
X50983432Y-24136114D01*
X50965674Y-24138321D01*
X50922057Y-24141735D01*
X50892745Y-24134320D01*
X50863680Y-24111427D01*
X50853188Y-24101127D01*
X50807257Y-24055196D01*
X50807257Y-23568602D01*
X50844226Y-23551758D01*
X50876059Y-23539282D01*
X50894683Y-23534914D01*
X50899458Y-23548718D01*
X50903921Y-23587286D01*
X50907775Y-23646356D01*
X50910722Y-23721663D01*
X50912143Y-23785286D01*
X50916114Y-24035657D01*
X50950759Y-24040556D01*
X50982268Y-24037131D01*
X50997708Y-24026041D01*
X51002023Y-24005308D01*
X51005708Y-23961145D01*
X51008469Y-23899146D01*
X51010012Y-23824909D01*
X51010235Y-23786706D01*
X51010457Y-23566783D01*
X51056166Y-23550849D01*
X51088518Y-23540015D01*
X51106115Y-23534962D01*
X51106623Y-23534914D01*
X51108388Y-23548648D01*
X51110329Y-23586730D01*
X51112282Y-23644482D01*
X51114084Y-23717227D01*
X51115343Y-23785286D01*
X51119314Y-24035657D01*
X51206400Y-24035657D01*
X51210396Y-23807240D01*
X51214392Y-23578822D01*
X51256847Y-23556868D01*
X51288192Y-23541793D01*
X51306744Y-23534951D01*
X51307279Y-23534914D01*
X51309833Y-23548663D01*
G37*
X51309833Y-23548663D02*
X51312048Y-23586850D01*
X51313784Y-23644886D01*
X51314899Y-23718180D01*
X51315257Y-23795055D01*
X51315257Y-24055196D01*
X51269326Y-24101127D01*
X51237675Y-24129429D01*
X51209890Y-24140893D01*
X51171915Y-24140168D01*
X51156840Y-24138321D01*
X51109726Y-24132948D01*
X51070756Y-24129869D01*
X51061257Y-24129585D01*
X51029233Y-24131445D01*
X50983432Y-24136114D01*
X50965674Y-24138321D01*
X50922057Y-24141735D01*
X50892745Y-24134320D01*
X50863680Y-24111427D01*
X50853188Y-24101127D01*
X50807257Y-24055196D01*
X50807257Y-23568602D01*
X50844226Y-23551758D01*
X50876059Y-23539282D01*
X50894683Y-23534914D01*
X50899458Y-23548718D01*
X50903921Y-23587286D01*
X50907775Y-23646356D01*
X50910722Y-23721663D01*
X50912143Y-23785286D01*
X50916114Y-24035657D01*
X50950759Y-24040556D01*
X50982268Y-24037131D01*
X50997708Y-24026041D01*
X51002023Y-24005308D01*
X51005708Y-23961145D01*
X51008469Y-23899146D01*
X51010012Y-23824909D01*
X51010235Y-23786706D01*
X51010457Y-23566783D01*
X51056166Y-23550849D01*
X51088518Y-23540015D01*
X51106115Y-23534962D01*
X51106623Y-23534914D01*
X51108388Y-23548648D01*
X51110329Y-23586730D01*
X51112282Y-23644482D01*
X51114084Y-23717227D01*
X51115343Y-23785286D01*
X51119314Y-24035657D01*
X51206400Y-24035657D01*
X51210396Y-23807240D01*
X51214392Y-23578822D01*
X51256847Y-23556868D01*
X51288192Y-23541793D01*
X51306744Y-23534951D01*
X51307279Y-23534914D01*
X51309833Y-23548663D01*
G36*
X50720117Y-23655358D02*
G01*
X50719933Y-23763837D01*
X50719219Y-23847287D01*
X50717675Y-23909704D01*
X50715001Y-23955085D01*
X50710894Y-23987429D01*
X50705055Y-24010733D01*
X50697182Y-24028995D01*
X50691221Y-24039418D01*
X50641855Y-24095945D01*
X50579264Y-24131377D01*
X50510013Y-24144090D01*
X50440668Y-24132463D01*
X50399375Y-24111568D01*
X50356025Y-24075422D01*
X50326481Y-24031276D01*
X50308655Y-23973462D01*
X50300463Y-23896313D01*
X50299302Y-23839714D01*
X50299458Y-23835647D01*
X50400857Y-23835647D01*
X50401476Y-23900550D01*
X50404314Y-23943514D01*
X50410840Y-23971622D01*
X50422523Y-23991953D01*
X50436483Y-24007288D01*
X50483365Y-24036890D01*
X50533701Y-24039419D01*
X50581276Y-24014705D01*
X50584979Y-24011356D01*
X50600783Y-23993935D01*
X50610693Y-23973209D01*
X50616058Y-23942362D01*
X50618228Y-23894577D01*
X50618571Y-23841748D01*
X50617827Y-23775381D01*
X50614748Y-23731106D01*
X50608061Y-23702009D01*
X50596496Y-23681173D01*
X50587013Y-23670107D01*
X50542960Y-23642198D01*
X50492224Y-23638843D01*
X50443796Y-23660159D01*
X50434450Y-23668073D01*
X50418540Y-23685647D01*
X50408610Y-23706587D01*
X50403278Y-23737782D01*
X50401163Y-23786122D01*
X50400857Y-23835647D01*
X50299458Y-23835647D01*
X50302810Y-23748568D01*
X50314726Y-23680086D01*
X50337135Y-23628600D01*
X50372124Y-23588443D01*
X50399375Y-23567861D01*
X50448907Y-23545625D01*
X50506316Y-23535304D01*
X50559682Y-23538067D01*
X50589543Y-23549212D01*
X50601261Y-23552383D01*
X50609037Y-23540557D01*
X50614465Y-23508866D01*
X50618571Y-23460593D01*
X50623067Y-23406829D01*
X50629313Y-23374482D01*
X50640676Y-23355985D01*
X50660528Y-23343770D01*
X50673000Y-23338362D01*
X50720171Y-23318601D01*
X50720117Y-23655358D01*
G37*
X50720117Y-23655358D02*
X50719933Y-23763837D01*
X50719219Y-23847287D01*
X50717675Y-23909704D01*
X50715001Y-23955085D01*
X50710894Y-23987429D01*
X50705055Y-24010733D01*
X50697182Y-24028995D01*
X50691221Y-24039418D01*
X50641855Y-24095945D01*
X50579264Y-24131377D01*
X50510013Y-24144090D01*
X50440668Y-24132463D01*
X50399375Y-24111568D01*
X50356025Y-24075422D01*
X50326481Y-24031276D01*
X50308655Y-23973462D01*
X50300463Y-23896313D01*
X50299302Y-23839714D01*
X50299458Y-23835647D01*
X50400857Y-23835647D01*
X50401476Y-23900550D01*
X50404314Y-23943514D01*
X50410840Y-23971622D01*
X50422523Y-23991953D01*
X50436483Y-24007288D01*
X50483365Y-24036890D01*
X50533701Y-24039419D01*
X50581276Y-24014705D01*
X50584979Y-24011356D01*
X50600783Y-23993935D01*
X50610693Y-23973209D01*
X50616058Y-23942362D01*
X50618228Y-23894577D01*
X50618571Y-23841748D01*
X50617827Y-23775381D01*
X50614748Y-23731106D01*
X50608061Y-23702009D01*
X50596496Y-23681173D01*
X50587013Y-23670107D01*
X50542960Y-23642198D01*
X50492224Y-23638843D01*
X50443796Y-23660159D01*
X50434450Y-23668073D01*
X50418540Y-23685647D01*
X50408610Y-23706587D01*
X50403278Y-23737782D01*
X50401163Y-23786122D01*
X50400857Y-23835647D01*
X50299458Y-23835647D01*
X50302810Y-23748568D01*
X50314726Y-23680086D01*
X50337135Y-23628600D01*
X50372124Y-23588443D01*
X50399375Y-23567861D01*
X50448907Y-23545625D01*
X50506316Y-23535304D01*
X50559682Y-23538067D01*
X50589543Y-23549212D01*
X50601261Y-23552383D01*
X50609037Y-23540557D01*
X50614465Y-23508866D01*
X50618571Y-23460593D01*
X50623067Y-23406829D01*
X50629313Y-23374482D01*
X50640676Y-23355985D01*
X50660528Y-23343770D01*
X50673000Y-23338362D01*
X50720171Y-23318601D01*
X50720117Y-23655358D01*
G36*
X50059926Y-23539755D02*
G01*
X50125858Y-23564084D01*
X50179273Y-23607117D01*
X50200164Y-23637409D01*
X50222939Y-23692994D01*
X50222466Y-23733186D01*
X50198562Y-23760217D01*
X50189717Y-23764813D01*
X50151530Y-23779144D01*
X50132028Y-23775472D01*
X50125422Y-23751407D01*
X50125086Y-23738114D01*
X50112992Y-23689210D01*
X50081471Y-23654999D01*
X50037659Y-23638476D01*
X49988695Y-23642634D01*
X49948894Y-23664227D01*
X49935450Y-23676544D01*
X49925921Y-23691487D01*
X49919485Y-23714075D01*
X49915317Y-23749328D01*
X49912597Y-23802266D01*
X49910502Y-23877907D01*
X49909960Y-23901857D01*
X49907981Y-23983790D01*
X49905731Y-24041455D01*
X49902357Y-24079608D01*
X49897006Y-24103004D01*
X49888824Y-24116398D01*
X49876959Y-24124545D01*
X49869362Y-24128144D01*
X49837102Y-24140452D01*
X49818111Y-24144514D01*
X49811836Y-24130948D01*
X49808006Y-24089934D01*
X49806600Y-24020999D01*
X49807598Y-23923669D01*
X49807908Y-23908657D01*
X49810101Y-23819859D01*
X49812693Y-23755019D01*
X49816382Y-23709067D01*
X49821864Y-23676935D01*
X49829835Y-23653553D01*
X49840993Y-23633852D01*
X49846830Y-23625410D01*
X49880296Y-23588057D01*
X49917727Y-23559003D01*
X49922309Y-23556467D01*
X49989426Y-23536443D01*
X50059926Y-23539755D01*
G37*
X50059926Y-23539755D02*
X50125858Y-23564084D01*
X50179273Y-23607117D01*
X50200164Y-23637409D01*
X50222939Y-23692994D01*
X50222466Y-23733186D01*
X50198562Y-23760217D01*
X50189717Y-23764813D01*
X50151530Y-23779144D01*
X50132028Y-23775472D01*
X50125422Y-23751407D01*
X50125086Y-23738114D01*
X50112992Y-23689210D01*
X50081471Y-23654999D01*
X50037659Y-23638476D01*
X49988695Y-23642634D01*
X49948894Y-23664227D01*
X49935450Y-23676544D01*
X49925921Y-23691487D01*
X49919485Y-23714075D01*
X49915317Y-23749328D01*
X49912597Y-23802266D01*
X49910502Y-23877907D01*
X49909960Y-23901857D01*
X49907981Y-23983790D01*
X49905731Y-24041455D01*
X49902357Y-24079608D01*
X49897006Y-24103004D01*
X49888824Y-24116398D01*
X49876959Y-24124545D01*
X49869362Y-24128144D01*
X49837102Y-24140452D01*
X49818111Y-24144514D01*
X49811836Y-24130948D01*
X49808006Y-24089934D01*
X49806600Y-24020999D01*
X49807598Y-23923669D01*
X49807908Y-23908657D01*
X49810101Y-23819859D01*
X49812693Y-23755019D01*
X49816382Y-23709067D01*
X49821864Y-23676935D01*
X49829835Y-23653553D01*
X49840993Y-23633852D01*
X49846830Y-23625410D01*
X49880296Y-23588057D01*
X49917727Y-23559003D01*
X49922309Y-23556467D01*
X49989426Y-23536443D01*
X50059926Y-23539755D01*
G36*
X49569744Y-23540968D02*
G01*
X49626616Y-23562087D01*
X49627267Y-23562493D01*
X49662440Y-23588380D01*
X49688407Y-23618633D01*
X49706670Y-23658058D01*
X49718732Y-23711462D01*
X49726096Y-23783651D01*
X49730264Y-23879432D01*
X49730629Y-23893078D01*
X49735876Y-24098842D01*
X49691716Y-24121678D01*
X49659763Y-24137110D01*
X49640470Y-24144423D01*
X49639578Y-24144514D01*
X49636239Y-24131022D01*
X49633587Y-24094626D01*
X49631956Y-24041452D01*
X49631600Y-23998393D01*
X49631592Y-23928641D01*
X49628403Y-23884837D01*
X49617288Y-23863944D01*
X49593501Y-23862925D01*
X49552296Y-23878741D01*
X49490086Y-23907815D01*
X49444341Y-23931963D01*
X49420813Y-23952913D01*
X49413896Y-23975747D01*
X49413886Y-23976877D01*
X49425299Y-24016212D01*
X49459092Y-24037462D01*
X49510809Y-24040539D01*
X49548061Y-24040006D01*
X49567703Y-24050735D01*
X49579952Y-24076505D01*
X49587002Y-24109337D01*
X49576842Y-24127966D01*
X49573017Y-24130632D01*
X49537001Y-24141340D01*
X49486566Y-24142856D01*
X49434626Y-24135759D01*
X49397822Y-24122788D01*
X49346938Y-24079585D01*
X49318014Y-24019446D01*
X49312286Y-23972462D01*
X49316657Y-23930082D01*
X49332475Y-23895488D01*
X49363797Y-23864763D01*
X49414678Y-23833990D01*
X49489176Y-23799252D01*
X49493714Y-23797288D01*
X49560821Y-23766287D01*
X49602232Y-23740862D01*
X49619981Y-23718014D01*
X49616107Y-23694745D01*
X49592643Y-23668056D01*
X49585627Y-23661914D01*
X49538630Y-23638100D01*
X49489933Y-23639103D01*
X49447522Y-23662451D01*
X49419384Y-23705675D01*
X49416769Y-23714160D01*
X49391308Y-23755308D01*
X49359001Y-23775128D01*
X49312286Y-23794770D01*
X49312286Y-23743950D01*
X49326496Y-23670082D01*
X49368675Y-23602327D01*
X49390624Y-23579661D01*
X49440517Y-23550569D01*
X49503967Y-23537400D01*
X49569744Y-23540968D01*
G37*
X49569744Y-23540968D02*
X49626616Y-23562087D01*
X49627267Y-23562493D01*
X49662440Y-23588380D01*
X49688407Y-23618633D01*
X49706670Y-23658058D01*
X49718732Y-23711462D01*
X49726096Y-23783651D01*
X49730264Y-23879432D01*
X49730629Y-23893078D01*
X49735876Y-24098842D01*
X49691716Y-24121678D01*
X49659763Y-24137110D01*
X49640470Y-24144423D01*
X49639578Y-24144514D01*
X49636239Y-24131022D01*
X49633587Y-24094626D01*
X49631956Y-24041452D01*
X49631600Y-23998393D01*
X49631592Y-23928641D01*
X49628403Y-23884837D01*
X49617288Y-23863944D01*
X49593501Y-23862925D01*
X49552296Y-23878741D01*
X49490086Y-23907815D01*
X49444341Y-23931963D01*
X49420813Y-23952913D01*
X49413896Y-23975747D01*
X49413886Y-23976877D01*
X49425299Y-24016212D01*
X49459092Y-24037462D01*
X49510809Y-24040539D01*
X49548061Y-24040006D01*
X49567703Y-24050735D01*
X49579952Y-24076505D01*
X49587002Y-24109337D01*
X49576842Y-24127966D01*
X49573017Y-24130632D01*
X49537001Y-24141340D01*
X49486566Y-24142856D01*
X49434626Y-24135759D01*
X49397822Y-24122788D01*
X49346938Y-24079585D01*
X49318014Y-24019446D01*
X49312286Y-23972462D01*
X49316657Y-23930082D01*
X49332475Y-23895488D01*
X49363797Y-23864763D01*
X49414678Y-23833990D01*
X49489176Y-23799252D01*
X49493714Y-23797288D01*
X49560821Y-23766287D01*
X49602232Y-23740862D01*
X49619981Y-23718014D01*
X49616107Y-23694745D01*
X49592643Y-23668056D01*
X49585627Y-23661914D01*
X49538630Y-23638100D01*
X49489933Y-23639103D01*
X49447522Y-23662451D01*
X49419384Y-23705675D01*
X49416769Y-23714160D01*
X49391308Y-23755308D01*
X49359001Y-23775128D01*
X49312286Y-23794770D01*
X49312286Y-23743950D01*
X49326496Y-23670082D01*
X49368675Y-23602327D01*
X49390624Y-23579661D01*
X49440517Y-23550569D01*
X49503967Y-23537400D01*
X49569744Y-23540968D01*
G36*
X48905886Y-23441289D02*
G01*
X48910139Y-23500613D01*
X48915025Y-23535572D01*
X48921795Y-23550820D01*
X48931702Y-23551015D01*
X48934914Y-23549195D01*
X48977644Y-23536015D01*
X49033227Y-23536785D01*
X49089737Y-23550333D01*
X49125082Y-23567861D01*
X49161321Y-23595861D01*
X49187813Y-23627549D01*
X49205999Y-23667813D01*
X49217322Y-23721543D01*
X49223222Y-23793626D01*
X49225143Y-23888951D01*
X49225177Y-23907237D01*
X49225200Y-24112646D01*
X49179491Y-24128580D01*
X49147027Y-24139420D01*
X49129215Y-24144468D01*
X49128691Y-24144514D01*
X49126937Y-24130828D01*
X49125444Y-24093076D01*
X49124326Y-24036224D01*
X49123697Y-23965234D01*
X49123600Y-23922073D01*
X49123398Y-23836973D01*
X49122358Y-23775981D01*
X49119831Y-23734177D01*
X49115164Y-23706642D01*
X49107707Y-23688456D01*
X49096811Y-23674698D01*
X49090007Y-23668073D01*
X49043272Y-23641375D01*
X48992272Y-23639375D01*
X48946001Y-23661955D01*
X48937444Y-23670107D01*
X48924893Y-23685436D01*
X48916188Y-23703618D01*
X48910631Y-23729909D01*
X48907526Y-23769562D01*
X48906176Y-23827832D01*
X48905886Y-23908173D01*
X48905886Y-24112646D01*
X48860177Y-24128580D01*
X48827713Y-24139420D01*
X48809901Y-24144468D01*
X48809377Y-24144514D01*
X48808037Y-24130623D01*
X48806828Y-24091439D01*
X48805801Y-24030700D01*
X48805002Y-23952141D01*
X48804481Y-23859498D01*
X48804286Y-23756509D01*
X48804286Y-23359342D01*
X48851457Y-23339444D01*
X48898629Y-23319547D01*
X48905886Y-23441289D01*
G37*
X48905886Y-23441289D02*
X48910139Y-23500613D01*
X48915025Y-23535572D01*
X48921795Y-23550820D01*
X48931702Y-23551015D01*
X48934914Y-23549195D01*
X48977644Y-23536015D01*
X49033227Y-23536785D01*
X49089737Y-23550333D01*
X49125082Y-23567861D01*
X49161321Y-23595861D01*
X49187813Y-23627549D01*
X49205999Y-23667813D01*
X49217322Y-23721543D01*
X49223222Y-23793626D01*
X49225143Y-23888951D01*
X49225177Y-23907237D01*
X49225200Y-24112646D01*
X49179491Y-24128580D01*
X49147027Y-24139420D01*
X49129215Y-24144468D01*
X49128691Y-24144514D01*
X49126937Y-24130828D01*
X49125444Y-24093076D01*
X49124326Y-24036224D01*
X49123697Y-23965234D01*
X49123600Y-23922073D01*
X49123398Y-23836973D01*
X49122358Y-23775981D01*
X49119831Y-23734177D01*
X49115164Y-23706642D01*
X49107707Y-23688456D01*
X49096811Y-23674698D01*
X49090007Y-23668073D01*
X49043272Y-23641375D01*
X48992272Y-23639375D01*
X48946001Y-23661955D01*
X48937444Y-23670107D01*
X48924893Y-23685436D01*
X48916188Y-23703618D01*
X48910631Y-23729909D01*
X48907526Y-23769562D01*
X48906176Y-23827832D01*
X48905886Y-23908173D01*
X48905886Y-24112646D01*
X48860177Y-24128580D01*
X48827713Y-24139420D01*
X48809901Y-24144468D01*
X48809377Y-24144514D01*
X48808037Y-24130623D01*
X48806828Y-24091439D01*
X48805801Y-24030700D01*
X48805002Y-23952141D01*
X48804481Y-23859498D01*
X48804286Y-23756509D01*
X48804286Y-23359342D01*
X48851457Y-23339444D01*
X48898629Y-23319547D01*
X48905886Y-23441289D01*
G36*
X47698303Y-23521239D02*
G01*
X47755527Y-23559735D01*
X47799749Y-23615335D01*
X47826167Y-23686086D01*
X47831510Y-23738162D01*
X47830903Y-23759893D01*
X47825822Y-23776531D01*
X47811855Y-23791437D01*
X47784589Y-23807973D01*
X47739612Y-23829498D01*
X47672511Y-23859374D01*
X47672171Y-23859524D01*
X47610407Y-23887813D01*
X47559759Y-23912933D01*
X47525404Y-23932179D01*
X47512518Y-23942848D01*
X47512514Y-23942934D01*
X47523872Y-23966166D01*
X47550431Y-23991774D01*
X47580923Y-24010221D01*
X47596370Y-24013886D01*
X47638515Y-24001212D01*
X47674808Y-23969471D01*
X47692517Y-23934572D01*
X47709552Y-23908845D01*
X47742922Y-23879546D01*
X47782149Y-23854235D01*
X47816756Y-23840471D01*
X47823993Y-23839714D01*
X47832139Y-23852160D01*
X47832630Y-23883972D01*
X47826643Y-23926866D01*
X47815357Y-23972558D01*
X47799950Y-24012761D01*
X47799171Y-24014322D01*
X47752804Y-24079062D01*
X47692711Y-24123097D01*
X47624465Y-24144711D01*
X47553638Y-24142185D01*
X47485804Y-24113804D01*
X47482788Y-24111808D01*
X47429427Y-24063448D01*
X47394340Y-24000352D01*
X47374922Y-23917387D01*
X47372316Y-23894078D01*
X47367701Y-23784055D01*
X47373233Y-23732748D01*
X47512514Y-23732748D01*
X47514324Y-23764753D01*
X47524222Y-23774093D01*
X47548898Y-23767105D01*
X47587795Y-23750587D01*
X47631275Y-23729881D01*
X47632356Y-23729333D01*
X47669209Y-23709949D01*
X47684000Y-23697013D01*
X47680353Y-23683451D01*
X47664995Y-23665632D01*
X47625923Y-23639845D01*
X47583846Y-23637950D01*
X47546103Y-23656717D01*
X47520034Y-23692915D01*
X47512514Y-23732748D01*
X47373233Y-23732748D01*
X47377194Y-23696027D01*
X47401550Y-23626212D01*
X47435456Y-23577302D01*
X47496653Y-23527878D01*
X47564063Y-23503359D01*
X47632880Y-23501797D01*
X47698303Y-23521239D01*
G37*
X47698303Y-23521239D02*
X47755527Y-23559735D01*
X47799749Y-23615335D01*
X47826167Y-23686086D01*
X47831510Y-23738162D01*
X47830903Y-23759893D01*
X47825822Y-23776531D01*
X47811855Y-23791437D01*
X47784589Y-23807973D01*
X47739612Y-23829498D01*
X47672511Y-23859374D01*
X47672171Y-23859524D01*
X47610407Y-23887813D01*
X47559759Y-23912933D01*
X47525404Y-23932179D01*
X47512518Y-23942848D01*
X47512514Y-23942934D01*
X47523872Y-23966166D01*
X47550431Y-23991774D01*
X47580923Y-24010221D01*
X47596370Y-24013886D01*
X47638515Y-24001212D01*
X47674808Y-23969471D01*
X47692517Y-23934572D01*
X47709552Y-23908845D01*
X47742922Y-23879546D01*
X47782149Y-23854235D01*
X47816756Y-23840471D01*
X47823993Y-23839714D01*
X47832139Y-23852160D01*
X47832630Y-23883972D01*
X47826643Y-23926866D01*
X47815357Y-23972558D01*
X47799950Y-24012761D01*
X47799171Y-24014322D01*
X47752804Y-24079062D01*
X47692711Y-24123097D01*
X47624465Y-24144711D01*
X47553638Y-24142185D01*
X47485804Y-24113804D01*
X47482788Y-24111808D01*
X47429427Y-24063448D01*
X47394340Y-24000352D01*
X47374922Y-23917387D01*
X47372316Y-23894078D01*
X47367701Y-23784055D01*
X47373233Y-23732748D01*
X47512514Y-23732748D01*
X47514324Y-23764753D01*
X47524222Y-23774093D01*
X47548898Y-23767105D01*
X47587795Y-23750587D01*
X47631275Y-23729881D01*
X47632356Y-23729333D01*
X47669209Y-23709949D01*
X47684000Y-23697013D01*
X47680353Y-23683451D01*
X47664995Y-23665632D01*
X47625923Y-23639845D01*
X47583846Y-23637950D01*
X47546103Y-23656717D01*
X47520034Y-23692915D01*
X47512514Y-23732748D01*
X47373233Y-23732748D01*
X47377194Y-23696027D01*
X47401550Y-23626212D01*
X47435456Y-23577302D01*
X47496653Y-23527878D01*
X47564063Y-23503359D01*
X47632880Y-23501797D01*
X47698303Y-23521239D01*
G36*
X46571115Y-23511962D02*
G01*
X46639145Y-23547733D01*
X46689351Y-23605301D01*
X46707185Y-23642312D01*
X46721063Y-23697882D01*
X46728167Y-23768096D01*
X46728840Y-23844727D01*
X46723427Y-23919552D01*
X46712270Y-23984342D01*
X46695714Y-24030873D01*
X46690626Y-24038887D01*
X46630355Y-24098707D01*
X46558769Y-24134535D01*
X46481092Y-24145020D01*
X46402548Y-24128810D01*
X46380689Y-24119092D01*
X46338122Y-24089143D01*
X46300763Y-24049433D01*
X46297232Y-24044397D01*
X46282881Y-24020124D01*
X46273394Y-23994178D01*
X46267790Y-23960022D01*
X46265086Y-23911119D01*
X46264299Y-23840935D01*
X46264286Y-23825200D01*
X46264322Y-23820192D01*
X46409429Y-23820192D01*
X46410273Y-23886430D01*
X46413596Y-23930386D01*
X46420583Y-23958779D01*
X46432416Y-23978325D01*
X46438457Y-23984857D01*
X46473186Y-24009680D01*
X46506903Y-24008548D01*
X46540995Y-23987016D01*
X46561329Y-23964029D01*
X46573371Y-23930478D01*
X46580134Y-23877569D01*
X46580598Y-23871399D01*
X46581752Y-23775513D01*
X46569688Y-23704299D01*
X46544570Y-23658194D01*
X46506560Y-23637635D01*
X46492992Y-23636514D01*
X46457364Y-23642152D01*
X46432994Y-23661686D01*
X46418093Y-23699042D01*
X46410875Y-23758150D01*
X46409429Y-23820192D01*
X46264322Y-23820192D01*
X46264826Y-23750413D01*
X46267096Y-23698159D01*
X46272068Y-23661949D01*
X46280713Y-23635299D01*
X46294005Y-23611722D01*
X46296943Y-23607338D01*
X46346313Y-23548249D01*
X46400109Y-23513947D01*
X46465602Y-23500331D01*
X46487842Y-23499665D01*
X46571115Y-23511962D01*
G37*
X46571115Y-23511962D02*
X46639145Y-23547733D01*
X46689351Y-23605301D01*
X46707185Y-23642312D01*
X46721063Y-23697882D01*
X46728167Y-23768096D01*
X46728840Y-23844727D01*
X46723427Y-23919552D01*
X46712270Y-23984342D01*
X46695714Y-24030873D01*
X46690626Y-24038887D01*
X46630355Y-24098707D01*
X46558769Y-24134535D01*
X46481092Y-24145020D01*
X46402548Y-24128810D01*
X46380689Y-24119092D01*
X46338122Y-24089143D01*
X46300763Y-24049433D01*
X46297232Y-24044397D01*
X46282881Y-24020124D01*
X46273394Y-23994178D01*
X46267790Y-23960022D01*
X46265086Y-23911119D01*
X46264299Y-23840935D01*
X46264286Y-23825200D01*
X46264322Y-23820192D01*
X46409429Y-23820192D01*
X46410273Y-23886430D01*
X46413596Y-23930386D01*
X46420583Y-23958779D01*
X46432416Y-23978325D01*
X46438457Y-23984857D01*
X46473186Y-24009680D01*
X46506903Y-24008548D01*
X46540995Y-23987016D01*
X46561329Y-23964029D01*
X46573371Y-23930478D01*
X46580134Y-23877569D01*
X46580598Y-23871399D01*
X46581752Y-23775513D01*
X46569688Y-23704299D01*
X46544570Y-23658194D01*
X46506560Y-23637635D01*
X46492992Y-23636514D01*
X46457364Y-23642152D01*
X46432994Y-23661686D01*
X46418093Y-23699042D01*
X46410875Y-23758150D01*
X46409429Y-23820192D01*
X46264322Y-23820192D01*
X46264826Y-23750413D01*
X46267096Y-23698159D01*
X46272068Y-23661949D01*
X46280713Y-23635299D01*
X46294005Y-23611722D01*
X46296943Y-23607338D01*
X46346313Y-23548249D01*
X46400109Y-23513947D01*
X46465602Y-23500331D01*
X46487842Y-23499665D01*
X46571115Y-23511962D01*
G36*
X48246093Y-23517780D02*
G01*
X48292672Y-23544723D01*
X48325057Y-23571466D01*
X48348742Y-23599484D01*
X48365059Y-23633748D01*
X48375339Y-23679227D01*
X48380914Y-23740892D01*
X48383116Y-23823711D01*
X48383371Y-23883246D01*
X48383371Y-24102391D01*
X48321686Y-24130044D01*
X48260000Y-24157697D01*
X48252743Y-23917670D01*
X48249744Y-23828028D01*
X48246598Y-23762962D01*
X48242701Y-23718026D01*
X48237447Y-23688770D01*
X48230231Y-23670748D01*
X48220450Y-23659511D01*
X48217312Y-23657079D01*
X48169761Y-23638083D01*
X48121697Y-23645600D01*
X48093086Y-23665543D01*
X48081447Y-23679675D01*
X48073391Y-23698220D01*
X48068271Y-23726334D01*
X48065441Y-23769173D01*
X48064256Y-23831895D01*
X48064057Y-23897261D01*
X48064018Y-23979268D01*
X48062614Y-24037316D01*
X48057914Y-24076465D01*
X48047987Y-24101780D01*
X48030903Y-24118323D01*
X48004732Y-24131156D01*
X47969775Y-24144491D01*
X47931596Y-24159007D01*
X47936141Y-23901389D01*
X47937971Y-23808519D01*
X47940112Y-23739889D01*
X47943181Y-23690711D01*
X47947794Y-23656198D01*
X47954568Y-23631562D01*
X47964119Y-23612016D01*
X47975634Y-23594770D01*
X48031190Y-23539680D01*
X48098980Y-23507822D01*
X48172713Y-23500191D01*
X48246093Y-23517780D01*
G37*
X48246093Y-23517780D02*
X48292672Y-23544723D01*
X48325057Y-23571466D01*
X48348742Y-23599484D01*
X48365059Y-23633748D01*
X48375339Y-23679227D01*
X48380914Y-23740892D01*
X48383116Y-23823711D01*
X48383371Y-23883246D01*
X48383371Y-24102391D01*
X48321686Y-24130044D01*
X48260000Y-24157697D01*
X48252743Y-23917670D01*
X48249744Y-23828028D01*
X48246598Y-23762962D01*
X48242701Y-23718026D01*
X48237447Y-23688770D01*
X48230231Y-23670748D01*
X48220450Y-23659511D01*
X48217312Y-23657079D01*
X48169761Y-23638083D01*
X48121697Y-23645600D01*
X48093086Y-23665543D01*
X48081447Y-23679675D01*
X48073391Y-23698220D01*
X48068271Y-23726334D01*
X48065441Y-23769173D01*
X48064256Y-23831895D01*
X48064057Y-23897261D01*
X48064018Y-23979268D01*
X48062614Y-24037316D01*
X48057914Y-24076465D01*
X48047987Y-24101780D01*
X48030903Y-24118323D01*
X48004732Y-24131156D01*
X47969775Y-24144491D01*
X47931596Y-24159007D01*
X47936141Y-23901389D01*
X47937971Y-23808519D01*
X47940112Y-23739889D01*
X47943181Y-23690711D01*
X47947794Y-23656198D01*
X47954568Y-23631562D01*
X47964119Y-23612016D01*
X47975634Y-23594770D01*
X48031190Y-23539680D01*
X48098980Y-23507822D01*
X48172713Y-23500191D01*
X48246093Y-23517780D01*
G36*
X47129744Y-23509918D02*
G01*
X47185201Y-23537568D01*
X47234148Y-23588480D01*
X47247629Y-23607338D01*
X47262314Y-23632015D01*
X47271842Y-23658816D01*
X47277293Y-23694587D01*
X47279747Y-23746169D01*
X47280286Y-23814267D01*
X47277852Y-23907588D01*
X47269394Y-23977657D01*
X47253174Y-24029931D01*
X47227454Y-24069869D01*
X47190497Y-24102929D01*
X47187782Y-24104886D01*
X47151360Y-24124908D01*
X47107502Y-24134815D01*
X47051724Y-24137257D01*
X46961048Y-24137257D01*
X46961010Y-24225283D01*
X46960166Y-24274308D01*
X46955024Y-24303065D01*
X46941587Y-24320311D01*
X46915858Y-24334808D01*
X46909679Y-24337769D01*
X46880764Y-24351648D01*
X46858376Y-24360414D01*
X46841729Y-24361171D01*
X46830036Y-24351023D01*
X46822510Y-24327073D01*
X46818366Y-24286426D01*
X46816815Y-24226186D01*
X46817071Y-24143455D01*
X46818349Y-24035339D01*
X46818748Y-24003000D01*
X46820185Y-23891524D01*
X46821472Y-23818603D01*
X46960971Y-23818603D01*
X46961755Y-23880499D01*
X46965240Y-23920997D01*
X46973124Y-23947708D01*
X46987105Y-23968244D01*
X46996597Y-23978260D01*
X47035404Y-24007567D01*
X47069763Y-24009952D01*
X47105216Y-23985750D01*
X47106114Y-23984857D01*
X47120539Y-23966153D01*
X47129313Y-23940732D01*
X47133739Y-23901584D01*
X47135118Y-23841697D01*
X47135143Y-23828430D01*
X47131812Y-23745901D01*
X47120969Y-23688691D01*
X47101340Y-23653766D01*
X47071650Y-23638094D01*
X47054491Y-23636514D01*
X47013766Y-23643926D01*
X46985832Y-23668330D01*
X46969017Y-23712980D01*
X46961650Y-23781130D01*
X46960971Y-23818603D01*
X46821472Y-23818603D01*
X46821708Y-23805245D01*
X46823677Y-23740333D01*
X46826450Y-23692958D01*
X46830388Y-23659290D01*
X46835849Y-23635498D01*
X46843192Y-23617753D01*
X46852777Y-23602224D01*
X46856887Y-23596381D01*
X46911405Y-23541185D01*
X46980336Y-23509890D01*
X47060072Y-23501165D01*
X47129744Y-23509918D01*
G37*
X47129744Y-23509918D02*
X47185201Y-23537568D01*
X47234148Y-23588480D01*
X47247629Y-23607338D01*
X47262314Y-23632015D01*
X47271842Y-23658816D01*
X47277293Y-23694587D01*
X47279747Y-23746169D01*
X47280286Y-23814267D01*
X47277852Y-23907588D01*
X47269394Y-23977657D01*
X47253174Y-24029931D01*
X47227454Y-24069869D01*
X47190497Y-24102929D01*
X47187782Y-24104886D01*
X47151360Y-24124908D01*
X47107502Y-24134815D01*
X47051724Y-24137257D01*
X46961048Y-24137257D01*
X46961010Y-24225283D01*
X46960166Y-24274308D01*
X46955024Y-24303065D01*
X46941587Y-24320311D01*
X46915858Y-24334808D01*
X46909679Y-24337769D01*
X46880764Y-24351648D01*
X46858376Y-24360414D01*
X46841729Y-24361171D01*
X46830036Y-24351023D01*
X46822510Y-24327073D01*
X46818366Y-24286426D01*
X46816815Y-24226186D01*
X46817071Y-24143455D01*
X46818349Y-24035339D01*
X46818748Y-24003000D01*
X46820185Y-23891524D01*
X46821472Y-23818603D01*
X46960971Y-23818603D01*
X46961755Y-23880499D01*
X46965240Y-23920997D01*
X46973124Y-23947708D01*
X46987105Y-23968244D01*
X46996597Y-23978260D01*
X47035404Y-24007567D01*
X47069763Y-24009952D01*
X47105216Y-23985750D01*
X47106114Y-23984857D01*
X47120539Y-23966153D01*
X47129313Y-23940732D01*
X47133739Y-23901584D01*
X47135118Y-23841697D01*
X47135143Y-23828430D01*
X47131812Y-23745901D01*
X47120969Y-23688691D01*
X47101340Y-23653766D01*
X47071650Y-23638094D01*
X47054491Y-23636514D01*
X47013766Y-23643926D01*
X46985832Y-23668330D01*
X46969017Y-23712980D01*
X46961650Y-23781130D01*
X46960971Y-23818603D01*
X46821472Y-23818603D01*
X46821708Y-23805245D01*
X46823677Y-23740333D01*
X46826450Y-23692958D01*
X46830388Y-23659290D01*
X46835849Y-23635498D01*
X46843192Y-23617753D01*
X46852777Y-23602224D01*
X46856887Y-23596381D01*
X46911405Y-23541185D01*
X46980336Y-23509890D01*
X47060072Y-23501165D01*
X47129744Y-23509918D01*
D10*
X82679661Y-97901880D02*
X82679661Y-96901880D01*
X83251090Y-97901880D02*
X82822519Y-97330452D01*
X83251090Y-96901880D02*
X82679661Y-97473309D01*
X83441566Y-97997119D02*
X84203471Y-97997119D01*
X84346328Y-96901880D02*
X85012995Y-96901880D01*
X84346328Y-97901880D01*
X85012995Y-97901880D01*
X85917757Y-97901880D02*
X85346328Y-97901880D01*
X85632042Y-97901880D02*
X85632042Y-96901880D01*
X85536804Y-97044738D01*
X85441566Y-97139976D01*
X85346328Y-97187595D01*
X101730161Y-94091880D02*
X101730161Y-93091880D01*
X102301590Y-94091880D02*
X101873019Y-93520452D01*
X102301590Y-93091880D02*
X101730161Y-93663309D01*
X102492066Y-94187119D02*
X103253971Y-94187119D01*
X103396828Y-93091880D02*
X104063495Y-94091880D01*
X104063495Y-93091880D02*
X103396828Y-94091880D01*
X104968257Y-94091880D02*
X104396828Y-94091880D01*
X104682542Y-94091880D02*
X104682542Y-93091880D01*
X104587304Y-93234738D01*
X104492066Y-93329976D01*
X104396828Y-93377595D01*
X100873019Y-113142380D02*
X100873019Y-112142380D01*
X101444447Y-113142380D02*
X101015876Y-112570952D01*
X101444447Y-112142380D02*
X100873019Y-112713809D01*
X101634923Y-113237619D02*
X102396828Y-113237619D01*
X102539685Y-112142380D02*
X102777780Y-113142380D01*
X102968257Y-112428095D01*
X103158733Y-113142380D01*
X103396828Y-112142380D01*
X103777780Y-113142380D02*
X103777780Y-112142380D01*
X104253971Y-113142380D02*
X104253971Y-112142380D01*
X104825400Y-113142380D01*
X104825400Y-112142380D01*
X105825400Y-113142380D02*
X105253971Y-113142380D01*
X105539685Y-113142380D02*
X105539685Y-112142380D01*
X105444447Y-112285238D01*
X105349209Y-112380476D01*
X105253971Y-112428095D01*
X101634923Y-55991880D02*
X101634923Y-54991880D01*
X102206352Y-55991880D02*
X101777780Y-55420452D01*
X102206352Y-54991880D02*
X101634923Y-55563309D01*
X102396828Y-56087119D02*
X103158733Y-56087119D01*
X103301590Y-54991880D02*
X103539685Y-55991880D01*
X103730161Y-55277595D01*
X103920638Y-55991880D01*
X104158733Y-54991880D01*
X105063495Y-55991880D02*
X104492066Y-55991880D01*
X104777780Y-55991880D02*
X104777780Y-54991880D01*
X104682542Y-55134738D01*
X104587304Y-55229976D01*
X104492066Y-55277595D01*
X139877780Y-94091880D02*
X139877780Y-93091880D01*
X140449209Y-94091880D02*
X140020638Y-93520452D01*
X140449209Y-93091880D02*
X139877780Y-93663309D01*
X140639685Y-94187119D02*
X141401590Y-94187119D01*
X141496828Y-93091880D02*
X141830161Y-94091880D01*
X142163495Y-93091880D01*
X143020638Y-94091880D02*
X142449209Y-94091880D01*
X142734923Y-94091880D02*
X142734923Y-93091880D01*
X142639685Y-93234738D01*
X142544447Y-93329976D01*
X142449209Y-93377595D01*
X179992677Y-144430812D02*
X180415295Y-143524504D01*
X180510567Y-144672308D02*
X180363645Y-143973296D01*
X180933185Y-143766000D02*
X180173799Y-144042394D01*
X180642948Y-144839122D02*
X181333468Y-145161117D01*
X181882650Y-144208743D02*
X182400541Y-144450239D01*
X181718977Y-145235799D02*
X182141596Y-144329491D01*
X182280025Y-145497420D02*
X182702643Y-144591112D01*
X182501396Y-145022687D02*
X183019287Y-145264183D01*
X182797915Y-145738916D02*
X183220533Y-144832608D01*
X182973453Y-145925854D02*
X183663974Y-146247849D01*
X184394743Y-146483529D02*
X183876853Y-146242033D01*
X184135798Y-146362781D02*
X184558416Y-145456473D01*
X184411727Y-145545696D01*
X184285163Y-145591762D01*
X184178723Y-145594670D01*
X185205779Y-145758343D02*
X184863659Y-146492021D01*
X184866568Y-146598461D01*
X184889600Y-146661743D01*
X184955791Y-146745150D01*
X185128421Y-146825649D01*
X185234861Y-146822741D01*
X185298143Y-146799708D01*
X185381550Y-146733517D01*
X185723669Y-145999840D01*
X185476589Y-147093086D02*
X186167109Y-147415081D01*
X186762358Y-146589272D02*
X186825640Y-146566239D01*
X186932080Y-146563331D01*
X187147867Y-146663954D01*
X187214057Y-146747361D01*
X187237090Y-146810643D01*
X187239998Y-146917083D01*
X187199749Y-147003398D01*
X187096218Y-147112746D01*
X186336831Y-147389140D01*
X186897879Y-147650761D01*
X188042677Y-127165812D02*
X188465295Y-126259504D01*
X188560567Y-127407308D02*
X188413645Y-126708296D01*
X188983185Y-126501000D02*
X188223799Y-126777394D01*
X188692948Y-127574122D02*
X189383468Y-127896117D01*
X189932650Y-126943743D02*
X190450541Y-127185239D01*
X189768977Y-127970799D02*
X190191596Y-127064491D01*
X190330025Y-128232420D02*
X190752643Y-127326112D01*
X190551396Y-127757687D02*
X191069287Y-127999183D01*
X190847915Y-128473916D02*
X191270533Y-127567608D01*
X191023453Y-128660854D02*
X191713974Y-128982849D01*
X192444743Y-129218529D02*
X191926853Y-128977033D01*
X192185798Y-129097781D02*
X192608416Y-128191473D01*
X192461727Y-128280696D01*
X192335163Y-128326762D01*
X192228723Y-128329670D01*
X193255779Y-128493343D02*
X192913659Y-129227021D01*
X192916568Y-129333461D01*
X192939600Y-129396743D01*
X193005791Y-129480150D01*
X193178421Y-129560649D01*
X193284861Y-129557741D01*
X193348143Y-129534708D01*
X193431550Y-129468517D01*
X193773669Y-128734840D01*
X193526589Y-129828086D02*
X194217109Y-130150081D01*
X194947879Y-130385761D02*
X194429989Y-130144264D01*
X194688934Y-130265012D02*
X195111552Y-129358705D01*
X194964863Y-129447928D01*
X194838299Y-129493994D01*
X194731859Y-129496902D01*
X158975400Y-59801880D02*
X158975400Y-58801880D01*
X159546828Y-59801880D02*
X159118257Y-59230452D01*
X159546828Y-58801880D02*
X158975400Y-59373309D01*
X159737304Y-59897119D02*
X160499209Y-59897119D01*
X160594447Y-58801880D02*
X161165876Y-58801880D01*
X160880161Y-59801880D02*
X160880161Y-58801880D01*
X162023019Y-59801880D02*
X161451590Y-59801880D01*
X161737304Y-59801880D02*
X161737304Y-58801880D01*
X161642066Y-58944738D01*
X161546828Y-59039976D01*
X161451590Y-59087595D01*
X101730161Y-75041880D02*
X101730161Y-74041880D01*
X102301590Y-75041880D02*
X101873019Y-74470452D01*
X102301590Y-74041880D02*
X101730161Y-74613309D01*
X102492066Y-75137119D02*
X103253971Y-75137119D01*
X103444447Y-74994261D02*
X103587304Y-75041880D01*
X103825400Y-75041880D01*
X103920638Y-74994261D01*
X103968257Y-74946642D01*
X104015876Y-74851404D01*
X104015876Y-74756166D01*
X103968257Y-74660928D01*
X103920638Y-74613309D01*
X103825400Y-74565690D01*
X103634923Y-74518071D01*
X103539685Y-74470452D01*
X103492066Y-74422833D01*
X103444447Y-74327595D01*
X103444447Y-74232357D01*
X103492066Y-74137119D01*
X103539685Y-74089500D01*
X103634923Y-74041880D01*
X103873019Y-74041880D01*
X104015876Y-74089500D01*
X104968257Y-75041880D02*
X104396828Y-75041880D01*
X104682542Y-75041880D02*
X104682542Y-74041880D01*
X104587304Y-74184738D01*
X104492066Y-74279976D01*
X104396828Y-74327595D01*
X139806352Y-55991880D02*
X139806352Y-54991880D01*
X140377780Y-55991880D02*
X139949209Y-55420452D01*
X140377780Y-54991880D02*
X139806352Y-55563309D01*
X140568257Y-56087119D02*
X141330161Y-56087119D01*
X142139685Y-55991880D02*
X141806352Y-55515690D01*
X141568257Y-55991880D02*
X141568257Y-54991880D01*
X141949209Y-54991880D01*
X142044447Y-55039500D01*
X142092066Y-55087119D01*
X142139685Y-55182357D01*
X142139685Y-55325214D01*
X142092066Y-55420452D01*
X142044447Y-55468071D01*
X141949209Y-55515690D01*
X141568257Y-55515690D01*
X143092066Y-55991880D02*
X142520638Y-55991880D01*
X142806352Y-55991880D02*
X142806352Y-54991880D01*
X142711114Y-55134738D01*
X142615876Y-55229976D01*
X142520638Y-55277595D01*
X82632042Y-59801880D02*
X82632042Y-58801880D01*
X83203471Y-59801880D02*
X82774900Y-59230452D01*
X83203471Y-58801880D02*
X82632042Y-59373309D01*
X83393947Y-59897119D02*
X84155852Y-59897119D01*
X85060614Y-59897119D02*
X84965376Y-59849500D01*
X84870138Y-59754261D01*
X84727280Y-59611404D01*
X84632042Y-59563785D01*
X84536804Y-59563785D01*
X84584423Y-59801880D02*
X84489185Y-59754261D01*
X84393947Y-59659023D01*
X84346328Y-59468547D01*
X84346328Y-59135214D01*
X84393947Y-58944738D01*
X84489185Y-58849500D01*
X84584423Y-58801880D01*
X84774900Y-58801880D01*
X84870138Y-58849500D01*
X84965376Y-58944738D01*
X85012995Y-59135214D01*
X85012995Y-59468547D01*
X84965376Y-59659023D01*
X84870138Y-59754261D01*
X84774900Y-59801880D01*
X84584423Y-59801880D01*
X85965376Y-59801880D02*
X85393947Y-59801880D01*
X85679661Y-59801880D02*
X85679661Y-58801880D01*
X85584423Y-58944738D01*
X85489185Y-59039976D01*
X85393947Y-59087595D01*
X158856352Y-78851880D02*
X158856352Y-77851880D01*
X159427780Y-78851880D02*
X158999209Y-78280452D01*
X159427780Y-77851880D02*
X158856352Y-78423309D01*
X159618257Y-78947119D02*
X160380161Y-78947119D01*
X161142066Y-77899500D02*
X161046828Y-77851880D01*
X160903971Y-77851880D01*
X160761114Y-77899500D01*
X160665876Y-77994738D01*
X160618257Y-78089976D01*
X160570638Y-78280452D01*
X160570638Y-78423309D01*
X160618257Y-78613785D01*
X160665876Y-78709023D01*
X160761114Y-78804261D01*
X160903971Y-78851880D01*
X160999209Y-78851880D01*
X161142066Y-78804261D01*
X161189685Y-78756642D01*
X161189685Y-78423309D01*
X160999209Y-78423309D01*
X162142066Y-78851880D02*
X161570638Y-78851880D01*
X161856352Y-78851880D02*
X161856352Y-77851880D01*
X161761114Y-77994738D01*
X161665876Y-78089976D01*
X161570638Y-78137595D01*
X139877780Y-75041880D02*
X139877780Y-74041880D01*
X140449209Y-75041880D02*
X140020638Y-74470452D01*
X140449209Y-74041880D02*
X139877780Y-74613309D01*
X140639685Y-75137119D02*
X141401590Y-75137119D01*
X141973019Y-74518071D02*
X141639685Y-74518071D01*
X141639685Y-75041880D02*
X141639685Y-74041880D01*
X142115876Y-74041880D01*
X143020638Y-75041880D02*
X142449209Y-75041880D01*
X142734923Y-75041880D02*
X142734923Y-74041880D01*
X142639685Y-74184738D01*
X142544447Y-74279976D01*
X142449209Y-74327595D01*
X120803971Y-52181880D02*
X120803971Y-51181880D01*
X121375400Y-52181880D02*
X120946828Y-51610452D01*
X121375400Y-51181880D02*
X120803971Y-51753309D01*
X121565876Y-52277119D02*
X122327780Y-52277119D01*
X122565876Y-51658071D02*
X122899209Y-51658071D01*
X123042066Y-52181880D02*
X122565876Y-52181880D01*
X122565876Y-51181880D01*
X123042066Y-51181880D01*
X123994447Y-52181880D02*
X123423019Y-52181880D01*
X123708733Y-52181880D02*
X123708733Y-51181880D01*
X123613495Y-51324738D01*
X123518257Y-51419976D01*
X123423019Y-51467595D01*
X120756352Y-71231880D02*
X120756352Y-70231880D01*
X121327780Y-71231880D02*
X120899209Y-70660452D01*
X121327780Y-70231880D02*
X120756352Y-70803309D01*
X121518257Y-71327119D02*
X122280161Y-71327119D01*
X122518257Y-71231880D02*
X122518257Y-70231880D01*
X122756352Y-70231880D01*
X122899209Y-70279500D01*
X122994447Y-70374738D01*
X123042066Y-70469976D01*
X123089685Y-70660452D01*
X123089685Y-70803309D01*
X123042066Y-70993785D01*
X122994447Y-71089023D01*
X122899209Y-71184261D01*
X122756352Y-71231880D01*
X122518257Y-71231880D01*
X124042066Y-71231880D02*
X123470638Y-71231880D01*
X123756352Y-71231880D02*
X123756352Y-70231880D01*
X123661114Y-70374738D01*
X123565876Y-70469976D01*
X123470638Y-70517595D01*
X62320138Y-116952380D02*
X62320138Y-115952380D01*
X62891566Y-116952380D02*
X62462995Y-116380952D01*
X62891566Y-115952380D02*
X62320138Y-116523809D01*
X63082042Y-117047619D02*
X63843947Y-117047619D01*
X64653471Y-116857142D02*
X64605852Y-116904761D01*
X64462995Y-116952380D01*
X64367757Y-116952380D01*
X64224900Y-116904761D01*
X64129661Y-116809523D01*
X64082042Y-116714285D01*
X64034423Y-116523809D01*
X64034423Y-116380952D01*
X64082042Y-116190476D01*
X64129661Y-116095238D01*
X64224900Y-116000000D01*
X64367757Y-115952380D01*
X64462995Y-115952380D01*
X64605852Y-116000000D01*
X64653471Y-116047619D01*
X64939185Y-115952380D02*
X65510614Y-115952380D01*
X65224900Y-116952380D02*
X65224900Y-115952380D01*
X66415376Y-116952380D02*
X66082042Y-116476190D01*
X65843947Y-116952380D02*
X65843947Y-115952380D01*
X66224900Y-115952380D01*
X66320138Y-116000000D01*
X66367757Y-116047619D01*
X66415376Y-116142857D01*
X66415376Y-116285714D01*
X66367757Y-116380952D01*
X66320138Y-116428571D01*
X66224900Y-116476190D01*
X65843947Y-116476190D01*
X67320138Y-116952380D02*
X66843947Y-116952380D01*
X66843947Y-115952380D01*
X68177280Y-116952380D02*
X67605852Y-116952380D01*
X67891566Y-116952380D02*
X67891566Y-115952380D01*
X67796328Y-116095238D01*
X67701090Y-116190476D01*
X67605852Y-116238095D01*
X120756352Y-90281880D02*
X120756352Y-89281880D01*
X121327780Y-90281880D02*
X120899209Y-89710452D01*
X121327780Y-89281880D02*
X120756352Y-89853309D01*
X121518257Y-90377119D02*
X122280161Y-90377119D01*
X123089685Y-90186642D02*
X123042066Y-90234261D01*
X122899209Y-90281880D01*
X122803971Y-90281880D01*
X122661114Y-90234261D01*
X122565876Y-90139023D01*
X122518257Y-90043785D01*
X122470638Y-89853309D01*
X122470638Y-89710452D01*
X122518257Y-89519976D01*
X122565876Y-89424738D01*
X122661114Y-89329500D01*
X122803971Y-89281880D01*
X122899209Y-89281880D01*
X123042066Y-89329500D01*
X123089685Y-89377119D01*
X124042066Y-90281880D02*
X123470638Y-90281880D01*
X123756352Y-90281880D02*
X123756352Y-89281880D01*
X123661114Y-89424738D01*
X123565876Y-89519976D01*
X123470638Y-89567595D01*
X137075685Y-113078380D02*
X137075685Y-112078380D01*
X137647114Y-113078380D02*
X137218542Y-112506952D01*
X137647114Y-112078380D02*
X137075685Y-112649809D01*
X137837590Y-113173619D02*
X138599495Y-113173619D01*
X139170923Y-112554571D02*
X139313780Y-112602190D01*
X139361400Y-112649809D01*
X139409019Y-112745047D01*
X139409019Y-112887904D01*
X139361400Y-112983142D01*
X139313780Y-113030761D01*
X139218542Y-113078380D01*
X138837590Y-113078380D01*
X138837590Y-112078380D01*
X139170923Y-112078380D01*
X139266161Y-112126000D01*
X139313780Y-112173619D01*
X139361400Y-112268857D01*
X139361400Y-112364095D01*
X139313780Y-112459333D01*
X139266161Y-112506952D01*
X139170923Y-112554571D01*
X138837590Y-112554571D01*
X140028066Y-112078380D02*
X140218542Y-112078380D01*
X140313780Y-112126000D01*
X140409019Y-112221238D01*
X140456638Y-112411714D01*
X140456638Y-112745047D01*
X140409019Y-112935523D01*
X140313780Y-113030761D01*
X140218542Y-113078380D01*
X140028066Y-113078380D01*
X139932828Y-113030761D01*
X139837590Y-112935523D01*
X139789971Y-112745047D01*
X139789971Y-112411714D01*
X139837590Y-112221238D01*
X139932828Y-112126000D01*
X140028066Y-112078380D01*
X140742352Y-112078380D02*
X141313780Y-112078380D01*
X141028066Y-113078380D02*
X141028066Y-112078380D01*
X141409019Y-113173619D02*
X142170923Y-113173619D01*
X142932828Y-113078380D02*
X142361400Y-113078380D01*
X142647114Y-113078380D02*
X142647114Y-112078380D01*
X142551876Y-112221238D01*
X142456638Y-112316476D01*
X142361400Y-112364095D01*
X143361400Y-112078380D02*
X143361400Y-112887904D01*
X143409019Y-112983142D01*
X143456638Y-113030761D01*
X143551876Y-113078380D01*
X143742352Y-113078380D01*
X143837590Y-113030761D01*
X143885209Y-112983142D01*
X143932828Y-112887904D01*
X143932828Y-112078380D01*
X144170923Y-113173619D02*
X144932828Y-113173619D01*
X145123304Y-112173619D02*
X145170923Y-112126000D01*
X145266161Y-112078380D01*
X145504257Y-112078380D01*
X145599495Y-112126000D01*
X145647114Y-112173619D01*
X145694733Y-112268857D01*
X145694733Y-112364095D01*
X145647114Y-112506952D01*
X145075685Y-113078380D01*
X145694733Y-113078380D01*
X118025685Y-109268380D02*
X118025685Y-108268380D01*
X118597114Y-109268380D02*
X118168542Y-108696952D01*
X118597114Y-108268380D02*
X118025685Y-108839809D01*
X118787590Y-109363619D02*
X119549495Y-109363619D01*
X120120923Y-108744571D02*
X120263780Y-108792190D01*
X120311400Y-108839809D01*
X120359019Y-108935047D01*
X120359019Y-109077904D01*
X120311400Y-109173142D01*
X120263780Y-109220761D01*
X120168542Y-109268380D01*
X119787590Y-109268380D01*
X119787590Y-108268380D01*
X120120923Y-108268380D01*
X120216161Y-108316000D01*
X120263780Y-108363619D01*
X120311400Y-108458857D01*
X120311400Y-108554095D01*
X120263780Y-108649333D01*
X120216161Y-108696952D01*
X120120923Y-108744571D01*
X119787590Y-108744571D01*
X120978066Y-108268380D02*
X121168542Y-108268380D01*
X121263780Y-108316000D01*
X121359019Y-108411238D01*
X121406638Y-108601714D01*
X121406638Y-108935047D01*
X121359019Y-109125523D01*
X121263780Y-109220761D01*
X121168542Y-109268380D01*
X120978066Y-109268380D01*
X120882828Y-109220761D01*
X120787590Y-109125523D01*
X120739971Y-108935047D01*
X120739971Y-108601714D01*
X120787590Y-108411238D01*
X120882828Y-108316000D01*
X120978066Y-108268380D01*
X121692352Y-108268380D02*
X122263780Y-108268380D01*
X121978066Y-109268380D02*
X121978066Y-108268380D01*
X122359019Y-109363619D02*
X123120923Y-109363619D01*
X123882828Y-109268380D02*
X123311400Y-109268380D01*
X123597114Y-109268380D02*
X123597114Y-108268380D01*
X123501876Y-108411238D01*
X123406638Y-108506476D01*
X123311400Y-108554095D01*
X124311400Y-108268380D02*
X124311400Y-109077904D01*
X124359019Y-109173142D01*
X124406638Y-109220761D01*
X124501876Y-109268380D01*
X124692352Y-109268380D01*
X124787590Y-109220761D01*
X124835209Y-109173142D01*
X124882828Y-109077904D01*
X124882828Y-108268380D01*
X125120923Y-109363619D02*
X125882828Y-109363619D01*
X126644733Y-109268380D02*
X126073304Y-109268380D01*
X126359019Y-109268380D02*
X126359019Y-108268380D01*
X126263780Y-108411238D01*
X126168542Y-108506476D01*
X126073304Y-108554095D01*
X158856352Y-97901880D02*
X158856352Y-96901880D01*
X159427780Y-97901880D02*
X158999209Y-97330452D01*
X159427780Y-96901880D02*
X158856352Y-97473309D01*
X159618257Y-97997119D02*
X160380161Y-97997119D01*
X160951590Y-97378071D02*
X161094447Y-97425690D01*
X161142066Y-97473309D01*
X161189685Y-97568547D01*
X161189685Y-97711404D01*
X161142066Y-97806642D01*
X161094447Y-97854261D01*
X160999209Y-97901880D01*
X160618257Y-97901880D01*
X160618257Y-96901880D01*
X160951590Y-96901880D01*
X161046828Y-96949500D01*
X161094447Y-96997119D01*
X161142066Y-97092357D01*
X161142066Y-97187595D01*
X161094447Y-97282833D01*
X161046828Y-97330452D01*
X160951590Y-97378071D01*
X160618257Y-97378071D01*
X162142066Y-97901880D02*
X161570638Y-97901880D01*
X161856352Y-97901880D02*
X161856352Y-96901880D01*
X161761114Y-97044738D01*
X161665876Y-97139976D01*
X161570638Y-97187595D01*
X81941566Y-116952380D02*
X81941566Y-115952380D01*
X82512995Y-116952380D02*
X82084423Y-116380952D01*
X82512995Y-115952380D02*
X81941566Y-116523809D01*
X82703471Y-117047619D02*
X83465376Y-117047619D01*
X83655852Y-116666666D02*
X84132042Y-116666666D01*
X83560614Y-116952380D02*
X83893947Y-115952380D01*
X84227280Y-116952380D01*
X85036804Y-116952380D02*
X84560614Y-116952380D01*
X84560614Y-115952380D01*
X85227280Y-115952380D02*
X85798709Y-115952380D01*
X85512995Y-116952380D02*
X85512995Y-115952380D01*
X86655852Y-116952380D02*
X86084423Y-116952380D01*
X86370138Y-116952380D02*
X86370138Y-115952380D01*
X86274900Y-116095238D01*
X86179661Y-116190476D01*
X86084423Y-116238095D01*
X82727280Y-78851880D02*
X82727280Y-77851880D01*
X83298709Y-78851880D02*
X82870138Y-78280452D01*
X83298709Y-77851880D02*
X82727280Y-78423309D01*
X83489185Y-78947119D02*
X84251090Y-78947119D01*
X84441566Y-78566166D02*
X84917757Y-78566166D01*
X84346328Y-78851880D02*
X84679661Y-77851880D01*
X85012995Y-78851880D01*
X85870138Y-78851880D02*
X85298709Y-78851880D01*
X85584423Y-78851880D02*
X85584423Y-77851880D01*
X85489185Y-77994738D01*
X85393947Y-78089976D01*
X85298709Y-78137595D01*
X159356352Y-40751880D02*
X159356352Y-39751880D01*
X159927780Y-40751880D02*
X159499209Y-40180452D01*
X159927780Y-39751880D02*
X159356352Y-40323309D01*
X160118257Y-40847119D02*
X160880161Y-40847119D01*
X161594447Y-39751880D02*
X161118257Y-39751880D01*
X161070638Y-40228071D01*
X161118257Y-40180452D01*
X161213495Y-40132833D01*
X161451590Y-40132833D01*
X161546828Y-40180452D01*
X161594447Y-40228071D01*
X161642066Y-40323309D01*
X161642066Y-40561404D01*
X161594447Y-40656642D01*
X161546828Y-40704261D01*
X161451590Y-40751880D01*
X161213495Y-40751880D01*
X161118257Y-40704261D01*
X161070638Y-40656642D01*
X140306352Y-36941880D02*
X140306352Y-35941880D01*
X140877780Y-36941880D02*
X140449209Y-36370452D01*
X140877780Y-35941880D02*
X140306352Y-36513309D01*
X141068257Y-37037119D02*
X141830161Y-37037119D01*
X142496828Y-36275214D02*
X142496828Y-36941880D01*
X142258733Y-35894261D02*
X142020638Y-36608547D01*
X142639685Y-36608547D01*
X121256352Y-33131880D02*
X121256352Y-32131880D01*
X121827780Y-33131880D02*
X121399209Y-32560452D01*
X121827780Y-32131880D02*
X121256352Y-32703309D01*
X122018257Y-33227119D02*
X122780161Y-33227119D01*
X122923019Y-32131880D02*
X123542066Y-32131880D01*
X123208733Y-32512833D01*
X123351590Y-32512833D01*
X123446828Y-32560452D01*
X123494447Y-32608071D01*
X123542066Y-32703309D01*
X123542066Y-32941404D01*
X123494447Y-33036642D01*
X123446828Y-33084261D01*
X123351590Y-33131880D01*
X123065876Y-33131880D01*
X122970638Y-33084261D01*
X122923019Y-33036642D01*
X102206352Y-36941880D02*
X102206352Y-35941880D01*
X102777780Y-36941880D02*
X102349209Y-36370452D01*
X102777780Y-35941880D02*
X102206352Y-36513309D01*
X102968257Y-37037119D02*
X103730161Y-37037119D01*
X103920638Y-36037119D02*
X103968257Y-35989500D01*
X104063495Y-35941880D01*
X104301590Y-35941880D01*
X104396828Y-35989500D01*
X104444447Y-36037119D01*
X104492066Y-36132357D01*
X104492066Y-36227595D01*
X104444447Y-36370452D01*
X103873019Y-36941880D01*
X104492066Y-36941880D01*
X83155852Y-40751880D02*
X83155852Y-39751880D01*
X83727280Y-40751880D02*
X83298709Y-40180452D01*
X83727280Y-39751880D02*
X83155852Y-40323309D01*
X83917757Y-40847119D02*
X84679661Y-40847119D01*
X85441566Y-40751880D02*
X84870138Y-40751880D01*
X85155852Y-40751880D02*
X85155852Y-39751880D01*
X85060614Y-39894738D01*
X84965376Y-39989976D01*
X84870138Y-40037595D01*
M02*
