G04 #@! TF.GenerationSoftware,KiCad,Pcbnew,(5.0.2)-1*
G04 #@! TF.CreationDate,2020-01-03T19:40:23+05:30*
G04 #@! TF.ProjectId,ergocape,6572676f-6361-4706-952e-6b696361645f,rev?*
G04 #@! TF.SameCoordinates,Original*
G04 #@! TF.FileFunction,Soldermask,Bot*
G04 #@! TF.FilePolarity,Negative*
%FSLAX46Y46*%
G04 Gerber Fmt 4.6, Leading zero omitted, Abs format (unit mm)*
G04 Created by KiCad (PCBNEW (5.0.2)-1) date 1/3/2020 7:40:23 PM*
%MOMM*%
%LPD*%
G01*
G04 APERTURE LIST*
%ADD10C,0.100000*%
G04 APERTURE END LIST*
D10*
G36*
X180049252Y-130742818D02*
X180049254Y-130742819D01*
X180049255Y-130742819D01*
X180422513Y-130897427D01*
X180422514Y-130897428D01*
X180758439Y-131121886D01*
X181044114Y-131407561D01*
X181044116Y-131407564D01*
X181268573Y-131743487D01*
X181423181Y-132116745D01*
X181502000Y-132512994D01*
X181502000Y-132917006D01*
X181423181Y-133313255D01*
X181268573Y-133686513D01*
X181268572Y-133686514D01*
X181044114Y-134022439D01*
X180758439Y-134308114D01*
X180758436Y-134308116D01*
X180422513Y-134532573D01*
X180049255Y-134687181D01*
X180049254Y-134687181D01*
X180049252Y-134687182D01*
X179653007Y-134766000D01*
X179248993Y-134766000D01*
X178852748Y-134687182D01*
X178852746Y-134687181D01*
X178852745Y-134687181D01*
X178479487Y-134532573D01*
X178143564Y-134308116D01*
X178143561Y-134308114D01*
X177857886Y-134022439D01*
X177633428Y-133686514D01*
X177633427Y-133686513D01*
X177478819Y-133313255D01*
X177400000Y-132917006D01*
X177400000Y-132512994D01*
X177478819Y-132116745D01*
X177633427Y-131743487D01*
X177857884Y-131407564D01*
X177857886Y-131407561D01*
X178143561Y-131121886D01*
X178479486Y-130897428D01*
X178479487Y-130897427D01*
X178852745Y-130742819D01*
X178852746Y-130742819D01*
X178852748Y-130742818D01*
X179248993Y-130664000D01*
X179653007Y-130664000D01*
X180049252Y-130742818D01*
X180049252Y-130742818D01*
G37*
G36*
X113183752Y-121852818D02*
X113183754Y-121852819D01*
X113183755Y-121852819D01*
X113557013Y-122007427D01*
X113557014Y-122007428D01*
X113892939Y-122231886D01*
X114178614Y-122517561D01*
X114178616Y-122517564D01*
X114403073Y-122853487D01*
X114557681Y-123226745D01*
X114557682Y-123226748D01*
X114636500Y-123622993D01*
X114636500Y-124027006D01*
X114557681Y-124423255D01*
X114403073Y-124796513D01*
X114403072Y-124796514D01*
X114178614Y-125132439D01*
X113892939Y-125418114D01*
X113892936Y-125418116D01*
X113557013Y-125642573D01*
X113183755Y-125797181D01*
X113183754Y-125797181D01*
X113183752Y-125797182D01*
X112787507Y-125876000D01*
X112383493Y-125876000D01*
X111987248Y-125797182D01*
X111987246Y-125797181D01*
X111987245Y-125797181D01*
X111613987Y-125642573D01*
X111278064Y-125418116D01*
X111278061Y-125418114D01*
X110992386Y-125132439D01*
X110767928Y-124796514D01*
X110767927Y-124796513D01*
X110613319Y-124423255D01*
X110534500Y-124027006D01*
X110534500Y-123622993D01*
X110613318Y-123226748D01*
X110613319Y-123226745D01*
X110767927Y-122853487D01*
X110992384Y-122517564D01*
X110992386Y-122517561D01*
X111278061Y-122231886D01*
X111613986Y-122007428D01*
X111613987Y-122007427D01*
X111987245Y-121852819D01*
X111987246Y-121852819D01*
X111987248Y-121852818D01*
X112383493Y-121774000D01*
X112787507Y-121774000D01*
X113183752Y-121852818D01*
X113183752Y-121852818D01*
G37*
G36*
X151918752Y-119693818D02*
X151918754Y-119693819D01*
X151918755Y-119693819D01*
X152292013Y-119848427D01*
X152292014Y-119848428D01*
X152627939Y-120072886D01*
X152913614Y-120358561D01*
X152913616Y-120358564D01*
X153138073Y-120694487D01*
X153292681Y-121067745D01*
X153292682Y-121067748D01*
X153371500Y-121463993D01*
X153371500Y-121868007D01*
X153343768Y-122007427D01*
X153292681Y-122264255D01*
X153138073Y-122637513D01*
X152916643Y-122968905D01*
X152913614Y-122973439D01*
X152627939Y-123259114D01*
X152627936Y-123259116D01*
X152292013Y-123483573D01*
X151918755Y-123638181D01*
X151918754Y-123638181D01*
X151918752Y-123638182D01*
X151522507Y-123717000D01*
X151118493Y-123717000D01*
X150722248Y-123638182D01*
X150722246Y-123638181D01*
X150722245Y-123638181D01*
X150348987Y-123483573D01*
X150013064Y-123259116D01*
X150013061Y-123259114D01*
X149727386Y-122973439D01*
X149724357Y-122968905D01*
X149502927Y-122637513D01*
X149348319Y-122264255D01*
X149297233Y-122007427D01*
X149269500Y-121868007D01*
X149269500Y-121463993D01*
X149348318Y-121067748D01*
X149348319Y-121067745D01*
X149502927Y-120694487D01*
X149727384Y-120358564D01*
X149727386Y-120358561D01*
X150013061Y-120072886D01*
X150348986Y-119848428D01*
X150348987Y-119848427D01*
X150722245Y-119693819D01*
X150722246Y-119693819D01*
X150722248Y-119693818D01*
X151118493Y-119615000D01*
X151522507Y-119615000D01*
X151918752Y-119693818D01*
X151918752Y-119693818D01*
G37*
G36*
X41238252Y-113153318D02*
X41238254Y-113153319D01*
X41238255Y-113153319D01*
X41611513Y-113307927D01*
X41611514Y-113307928D01*
X41947439Y-113532386D01*
X42233114Y-113818061D01*
X42233116Y-113818064D01*
X42457573Y-114153987D01*
X42612181Y-114527245D01*
X42691000Y-114923494D01*
X42691000Y-115327506D01*
X42612181Y-115723755D01*
X42457573Y-116097013D01*
X42457572Y-116097014D01*
X42233114Y-116432939D01*
X41947439Y-116718614D01*
X41947436Y-116718616D01*
X41611513Y-116943073D01*
X41238255Y-117097681D01*
X41238254Y-117097681D01*
X41238252Y-117097682D01*
X40842007Y-117176500D01*
X40437993Y-117176500D01*
X40041748Y-117097682D01*
X40041746Y-117097681D01*
X40041745Y-117097681D01*
X39668487Y-116943073D01*
X39332564Y-116718616D01*
X39332561Y-116718614D01*
X39046886Y-116432939D01*
X38822428Y-116097014D01*
X38822427Y-116097013D01*
X38667819Y-115723755D01*
X38589000Y-115327506D01*
X38589000Y-114923494D01*
X38667819Y-114527245D01*
X38822427Y-114153987D01*
X39046884Y-113818064D01*
X39046886Y-113818061D01*
X39332561Y-113532386D01*
X39668486Y-113307928D01*
X39668487Y-113307927D01*
X40041745Y-113153319D01*
X40041746Y-113153319D01*
X40041748Y-113153318D01*
X40437993Y-113074500D01*
X40842007Y-113074500D01*
X41238252Y-113153318D01*
X41238252Y-113153318D01*
G37*
G36*
X26252252Y-66544318D02*
X26252254Y-66544319D01*
X26252255Y-66544319D01*
X26625513Y-66698927D01*
X26625514Y-66698928D01*
X26961439Y-66923386D01*
X27247114Y-67209061D01*
X27247116Y-67209064D01*
X27471573Y-67544987D01*
X27520971Y-67664245D01*
X27626182Y-67918248D01*
X27705000Y-68314493D01*
X27705000Y-68718507D01*
X27676706Y-68860752D01*
X27626181Y-69114755D01*
X27471573Y-69488013D01*
X27250143Y-69819405D01*
X27247114Y-69823939D01*
X26961439Y-70109614D01*
X26961436Y-70109616D01*
X26625513Y-70334073D01*
X26252255Y-70488681D01*
X26252254Y-70488681D01*
X26252252Y-70488682D01*
X25856007Y-70567500D01*
X25451993Y-70567500D01*
X25055748Y-70488682D01*
X25055746Y-70488681D01*
X25055745Y-70488681D01*
X24682487Y-70334073D01*
X24346564Y-70109616D01*
X24346561Y-70109614D01*
X24060886Y-69823939D01*
X24057857Y-69819405D01*
X23836427Y-69488013D01*
X23681819Y-69114755D01*
X23631295Y-68860752D01*
X23603000Y-68718507D01*
X23603000Y-68314493D01*
X23681818Y-67918248D01*
X23787029Y-67664245D01*
X23836427Y-67544987D01*
X24060884Y-67209064D01*
X24060886Y-67209061D01*
X24346561Y-66923386D01*
X24682486Y-66698928D01*
X24682487Y-66698927D01*
X25055745Y-66544319D01*
X25055746Y-66544319D01*
X25055748Y-66544318D01*
X25451993Y-66465500D01*
X25856007Y-66465500D01*
X26252252Y-66544318D01*
X26252252Y-66544318D01*
G37*
G36*
X167730252Y-66290318D02*
X167730254Y-66290319D01*
X167730255Y-66290319D01*
X168103513Y-66444927D01*
X168252262Y-66544318D01*
X168439439Y-66669386D01*
X168725114Y-66955061D01*
X168725116Y-66955064D01*
X168949573Y-67290987D01*
X169054782Y-67544986D01*
X169104182Y-67664248D01*
X169183000Y-68060493D01*
X169183000Y-68464506D01*
X169104181Y-68860755D01*
X168949573Y-69234013D01*
X168949572Y-69234014D01*
X168725114Y-69569939D01*
X168439439Y-69855614D01*
X168439436Y-69855616D01*
X168103513Y-70080073D01*
X167730255Y-70234681D01*
X167730254Y-70234681D01*
X167730252Y-70234682D01*
X167334007Y-70313500D01*
X166929993Y-70313500D01*
X166533748Y-70234682D01*
X166533746Y-70234681D01*
X166533745Y-70234681D01*
X166160487Y-70080073D01*
X165824564Y-69855616D01*
X165824561Y-69855614D01*
X165538886Y-69569939D01*
X165314428Y-69234014D01*
X165314427Y-69234013D01*
X165159819Y-68860755D01*
X165081000Y-68464506D01*
X165081000Y-68060493D01*
X165159818Y-67664248D01*
X165209218Y-67544986D01*
X165314427Y-67290987D01*
X165538884Y-66955064D01*
X165538886Y-66955061D01*
X165824561Y-66669386D01*
X166011738Y-66544318D01*
X166160487Y-66444927D01*
X166533745Y-66290319D01*
X166533746Y-66290319D01*
X166533748Y-66290318D01*
X166929993Y-66211500D01*
X167334007Y-66211500D01*
X167730252Y-66290318D01*
X167730252Y-66290318D01*
G37*
G36*
X113818752Y-58670318D02*
X113818754Y-58670319D01*
X113818755Y-58670319D01*
X114192013Y-58824927D01*
X114192014Y-58824928D01*
X114527939Y-59049386D01*
X114813614Y-59335061D01*
X114813616Y-59335064D01*
X115038073Y-59670987D01*
X115192681Y-60044245D01*
X115271500Y-60440494D01*
X115271500Y-60844506D01*
X115192681Y-61240755D01*
X115038073Y-61614013D01*
X115038072Y-61614014D01*
X114813614Y-61949939D01*
X114527939Y-62235614D01*
X114527936Y-62235616D01*
X114192013Y-62460073D01*
X113818755Y-62614681D01*
X113818754Y-62614681D01*
X113818752Y-62614682D01*
X113422507Y-62693500D01*
X113018493Y-62693500D01*
X112622248Y-62614682D01*
X112622246Y-62614681D01*
X112622245Y-62614681D01*
X112248987Y-62460073D01*
X111913064Y-62235616D01*
X111913061Y-62235614D01*
X111627386Y-61949939D01*
X111402928Y-61614014D01*
X111402927Y-61614013D01*
X111248319Y-61240755D01*
X111169500Y-60844506D01*
X111169500Y-60440494D01*
X111248319Y-60044245D01*
X111402927Y-59670987D01*
X111627384Y-59335064D01*
X111627386Y-59335061D01*
X111913061Y-59049386D01*
X112248986Y-58824928D01*
X112248987Y-58824927D01*
X112622245Y-58670319D01*
X112622246Y-58670319D01*
X112622248Y-58670318D01*
X113018493Y-58591500D01*
X113422507Y-58591500D01*
X113818752Y-58670318D01*
X113818752Y-58670318D01*
G37*
G36*
X167793752Y-18538318D02*
X167793754Y-18538319D01*
X167793755Y-18538319D01*
X168167013Y-18692927D01*
X168167014Y-18692928D01*
X168502939Y-18917386D01*
X168788614Y-19203061D01*
X168788616Y-19203064D01*
X169013073Y-19538987D01*
X169167681Y-19912245D01*
X169246500Y-20308494D01*
X169246500Y-20712506D01*
X169167681Y-21108755D01*
X169013073Y-21482013D01*
X169013072Y-21482014D01*
X168788614Y-21817939D01*
X168502939Y-22103614D01*
X168502936Y-22103616D01*
X168167013Y-22328073D01*
X167793755Y-22482681D01*
X167793754Y-22482681D01*
X167793752Y-22482682D01*
X167397507Y-22561500D01*
X166993493Y-22561500D01*
X166597248Y-22482682D01*
X166597246Y-22482681D01*
X166597245Y-22482681D01*
X166223987Y-22328073D01*
X165888064Y-22103616D01*
X165888061Y-22103614D01*
X165602386Y-21817939D01*
X165377928Y-21482014D01*
X165377927Y-21482013D01*
X165223319Y-21108755D01*
X165144500Y-20712506D01*
X165144500Y-20308494D01*
X165223319Y-19912245D01*
X165377927Y-19538987D01*
X165602384Y-19203064D01*
X165602386Y-19203061D01*
X165888061Y-18917386D01*
X166223986Y-18692928D01*
X166223987Y-18692927D01*
X166597245Y-18538319D01*
X166597246Y-18538319D01*
X166597248Y-18538318D01*
X166993493Y-18459500D01*
X167397507Y-18459500D01*
X167793752Y-18538318D01*
X167793752Y-18538318D01*
G37*
G36*
X113120252Y-18474818D02*
X113120254Y-18474819D01*
X113120255Y-18474819D01*
X113493513Y-18629427D01*
X113824905Y-18850857D01*
X113829439Y-18853886D01*
X114115114Y-19139561D01*
X114115116Y-19139564D01*
X114339573Y-19475487D01*
X114494181Y-19848745D01*
X114573000Y-20244994D01*
X114573000Y-20649006D01*
X114494181Y-21045255D01*
X114339573Y-21418513D01*
X114297143Y-21482014D01*
X114115114Y-21754439D01*
X113829439Y-22040114D01*
X113829436Y-22040116D01*
X113493513Y-22264573D01*
X113120255Y-22419181D01*
X113120254Y-22419181D01*
X113120252Y-22419182D01*
X112724007Y-22498000D01*
X112319993Y-22498000D01*
X111923748Y-22419182D01*
X111923746Y-22419181D01*
X111923745Y-22419181D01*
X111550487Y-22264573D01*
X111214564Y-22040116D01*
X111214561Y-22040114D01*
X110928886Y-21754439D01*
X110746857Y-21482014D01*
X110704427Y-21418513D01*
X110549819Y-21045255D01*
X110471000Y-20649006D01*
X110471000Y-20244994D01*
X110549819Y-19848745D01*
X110704427Y-19475487D01*
X110928884Y-19139564D01*
X110928886Y-19139561D01*
X111214561Y-18853886D01*
X111219095Y-18850857D01*
X111550487Y-18629427D01*
X111923745Y-18474819D01*
X111923746Y-18474819D01*
X111923748Y-18474818D01*
X112319993Y-18396000D01*
X112724007Y-18396000D01*
X113120252Y-18474818D01*
X113120252Y-18474818D01*
G37*
G36*
X26315752Y-18474818D02*
X26315754Y-18474819D01*
X26315755Y-18474819D01*
X26689013Y-18629427D01*
X27020405Y-18850857D01*
X27024939Y-18853886D01*
X27310614Y-19139561D01*
X27310616Y-19139564D01*
X27535073Y-19475487D01*
X27689681Y-19848745D01*
X27768500Y-20244994D01*
X27768500Y-20649006D01*
X27689681Y-21045255D01*
X27535073Y-21418513D01*
X27492643Y-21482014D01*
X27310614Y-21754439D01*
X27024939Y-22040114D01*
X27024936Y-22040116D01*
X26689013Y-22264573D01*
X26315755Y-22419181D01*
X26315754Y-22419181D01*
X26315752Y-22419182D01*
X25919507Y-22498000D01*
X25515493Y-22498000D01*
X25119248Y-22419182D01*
X25119246Y-22419181D01*
X25119245Y-22419181D01*
X24745987Y-22264573D01*
X24410064Y-22040116D01*
X24410061Y-22040114D01*
X24124386Y-21754439D01*
X23942357Y-21482014D01*
X23899927Y-21418513D01*
X23745319Y-21045255D01*
X23666500Y-20649006D01*
X23666500Y-20244994D01*
X23745319Y-19848745D01*
X23899927Y-19475487D01*
X24124384Y-19139564D01*
X24124386Y-19139561D01*
X24410061Y-18853886D01*
X24414595Y-18850857D01*
X24745987Y-18629427D01*
X25119245Y-18474819D01*
X25119246Y-18474819D01*
X25119248Y-18474818D01*
X25515493Y-18396000D01*
X25919507Y-18396000D01*
X26315752Y-18474818D01*
X26315752Y-18474818D01*
G37*
M02*
