G04 #@! TF.GenerationSoftware,KiCad,Pcbnew,(5.0.2)-1*
G04 #@! TF.CreationDate,2020-01-03T19:40:23+05:30*
G04 #@! TF.ProjectId,ergocape,6572676f-6361-4706-952e-6b696361645f,rev?*
G04 #@! TF.SameCoordinates,Original*
G04 #@! TF.FileFunction,Legend,Top*
G04 #@! TF.FilePolarity,Positive*
%FSLAX46Y46*%
G04 Gerber Fmt 4.6, Leading zero omitted, Abs format (unit mm)*
G04 Created by KiCad (PCBNEW (5.0.2)-1) date 1/3/2020 7:40:23 PM*
%MOMM*%
%LPD*%
G01*
G04 APERTURE LIST*
%ADD10C,0.150000*%
G04 APERTURE END LIST*
G04 #@! TO.C,H1*
D10*
X166433595Y-23502880D02*
X166433595Y-22502880D01*
X166433595Y-22979071D02*
X167005023Y-22979071D01*
X167005023Y-23502880D02*
X167005023Y-22502880D01*
X168005023Y-23502880D02*
X167433595Y-23502880D01*
X167719309Y-23502880D02*
X167719309Y-22502880D01*
X167624071Y-22645738D01*
X167528833Y-22740976D01*
X167433595Y-22788595D01*
G04 #@! TO.C,H2*
X111823595Y-126817380D02*
X111823595Y-125817380D01*
X111823595Y-126293571D02*
X112395023Y-126293571D01*
X112395023Y-126817380D02*
X112395023Y-125817380D01*
X112823595Y-125912619D02*
X112871214Y-125865000D01*
X112966452Y-125817380D01*
X113204547Y-125817380D01*
X113299785Y-125865000D01*
X113347404Y-125912619D01*
X113395023Y-126007857D01*
X113395023Y-126103095D01*
X113347404Y-126245952D01*
X112775976Y-126817380D01*
X113395023Y-126817380D01*
G04 #@! TO.C,H3*
X39878095Y-118117880D02*
X39878095Y-117117880D01*
X39878095Y-117594071D02*
X40449523Y-117594071D01*
X40449523Y-118117880D02*
X40449523Y-117117880D01*
X40830476Y-117117880D02*
X41449523Y-117117880D01*
X41116190Y-117498833D01*
X41259047Y-117498833D01*
X41354285Y-117546452D01*
X41401904Y-117594071D01*
X41449523Y-117689309D01*
X41449523Y-117927404D01*
X41401904Y-118022642D01*
X41354285Y-118070261D01*
X41259047Y-118117880D01*
X40973333Y-118117880D01*
X40878095Y-118070261D01*
X40830476Y-118022642D01*
G04 #@! TO.C,H5*
X112458595Y-63634880D02*
X112458595Y-62634880D01*
X112458595Y-63111071D02*
X113030023Y-63111071D01*
X113030023Y-63634880D02*
X113030023Y-62634880D01*
X113982404Y-62634880D02*
X113506214Y-62634880D01*
X113458595Y-63111071D01*
X113506214Y-63063452D01*
X113601452Y-63015833D01*
X113839547Y-63015833D01*
X113934785Y-63063452D01*
X113982404Y-63111071D01*
X114030023Y-63206309D01*
X114030023Y-63444404D01*
X113982404Y-63539642D01*
X113934785Y-63587261D01*
X113839547Y-63634880D01*
X113601452Y-63634880D01*
X113506214Y-63587261D01*
X113458595Y-63539642D01*
G04 #@! TO.C,H6*
X166370095Y-71254880D02*
X166370095Y-70254880D01*
X166370095Y-70731071D02*
X166941523Y-70731071D01*
X166941523Y-71254880D02*
X166941523Y-70254880D01*
X167846285Y-70254880D02*
X167655809Y-70254880D01*
X167560571Y-70302500D01*
X167512952Y-70350119D01*
X167417714Y-70492976D01*
X167370095Y-70683452D01*
X167370095Y-71064404D01*
X167417714Y-71159642D01*
X167465333Y-71207261D01*
X167560571Y-71254880D01*
X167751047Y-71254880D01*
X167846285Y-71207261D01*
X167893904Y-71159642D01*
X167941523Y-71064404D01*
X167941523Y-70826309D01*
X167893904Y-70731071D01*
X167846285Y-70683452D01*
X167751047Y-70635833D01*
X167560571Y-70635833D01*
X167465333Y-70683452D01*
X167417714Y-70731071D01*
X167370095Y-70826309D01*
G04 #@! TO.C,H8*
X178689095Y-135707380D02*
X178689095Y-134707380D01*
X178689095Y-135183571D02*
X179260523Y-135183571D01*
X179260523Y-135707380D02*
X179260523Y-134707380D01*
X179879571Y-135135952D02*
X179784333Y-135088333D01*
X179736714Y-135040714D01*
X179689095Y-134945476D01*
X179689095Y-134897857D01*
X179736714Y-134802619D01*
X179784333Y-134755000D01*
X179879571Y-134707380D01*
X180070047Y-134707380D01*
X180165285Y-134755000D01*
X180212904Y-134802619D01*
X180260523Y-134897857D01*
X180260523Y-134945476D01*
X180212904Y-135040714D01*
X180165285Y-135088333D01*
X180070047Y-135135952D01*
X179879571Y-135135952D01*
X179784333Y-135183571D01*
X179736714Y-135231190D01*
X179689095Y-135326428D01*
X179689095Y-135516904D01*
X179736714Y-135612142D01*
X179784333Y-135659761D01*
X179879571Y-135707380D01*
X180070047Y-135707380D01*
X180165285Y-135659761D01*
X180212904Y-135612142D01*
X180260523Y-135516904D01*
X180260523Y-135326428D01*
X180212904Y-135231190D01*
X180165285Y-135183571D01*
X180070047Y-135135952D01*
G04 #@! TO.C,H9*
X111760095Y-23439380D02*
X111760095Y-22439380D01*
X111760095Y-22915571D02*
X112331523Y-22915571D01*
X112331523Y-23439380D02*
X112331523Y-22439380D01*
X112855333Y-23439380D02*
X113045809Y-23439380D01*
X113141047Y-23391761D01*
X113188666Y-23344142D01*
X113283904Y-23201285D01*
X113331523Y-23010809D01*
X113331523Y-22629857D01*
X113283904Y-22534619D01*
X113236285Y-22487000D01*
X113141047Y-22439380D01*
X112950571Y-22439380D01*
X112855333Y-22487000D01*
X112807714Y-22534619D01*
X112760095Y-22629857D01*
X112760095Y-22867952D01*
X112807714Y-22963190D01*
X112855333Y-23010809D01*
X112950571Y-23058428D01*
X113141047Y-23058428D01*
X113236285Y-23010809D01*
X113283904Y-22963190D01*
X113331523Y-22867952D01*
G04 #@! TO.C,H10*
X24415904Y-71508880D02*
X24415904Y-70508880D01*
X24415904Y-70985071D02*
X24987333Y-70985071D01*
X24987333Y-71508880D02*
X24987333Y-70508880D01*
X25987333Y-71508880D02*
X25415904Y-71508880D01*
X25701619Y-71508880D02*
X25701619Y-70508880D01*
X25606380Y-70651738D01*
X25511142Y-70746976D01*
X25415904Y-70794595D01*
X26606380Y-70508880D02*
X26701619Y-70508880D01*
X26796857Y-70556500D01*
X26844476Y-70604119D01*
X26892095Y-70699357D01*
X26939714Y-70889833D01*
X26939714Y-71127928D01*
X26892095Y-71318404D01*
X26844476Y-71413642D01*
X26796857Y-71461261D01*
X26701619Y-71508880D01*
X26606380Y-71508880D01*
X26511142Y-71461261D01*
X26463523Y-71413642D01*
X26415904Y-71318404D01*
X26368285Y-71127928D01*
X26368285Y-70889833D01*
X26415904Y-70699357D01*
X26463523Y-70604119D01*
X26511142Y-70556500D01*
X26606380Y-70508880D01*
G04 #@! TO.C,H11*
X24479404Y-23439380D02*
X24479404Y-22439380D01*
X24479404Y-22915571D02*
X25050833Y-22915571D01*
X25050833Y-23439380D02*
X25050833Y-22439380D01*
X26050833Y-23439380D02*
X25479404Y-23439380D01*
X25765119Y-23439380D02*
X25765119Y-22439380D01*
X25669880Y-22582238D01*
X25574642Y-22677476D01*
X25479404Y-22725095D01*
X27003214Y-23439380D02*
X26431785Y-23439380D01*
X26717500Y-23439380D02*
X26717500Y-22439380D01*
X26622261Y-22582238D01*
X26527023Y-22677476D01*
X26431785Y-22725095D01*
G04 #@! TO.C,H12*
X150082404Y-124658380D02*
X150082404Y-123658380D01*
X150082404Y-124134571D02*
X150653833Y-124134571D01*
X150653833Y-124658380D02*
X150653833Y-123658380D01*
X151653833Y-124658380D02*
X151082404Y-124658380D01*
X151368119Y-124658380D02*
X151368119Y-123658380D01*
X151272880Y-123801238D01*
X151177642Y-123896476D01*
X151082404Y-123944095D01*
X152034785Y-123753619D02*
X152082404Y-123706000D01*
X152177642Y-123658380D01*
X152415738Y-123658380D01*
X152510976Y-123706000D01*
X152558595Y-123753619D01*
X152606214Y-123848857D01*
X152606214Y-123944095D01*
X152558595Y-124086952D01*
X151987166Y-124658380D01*
X152606214Y-124658380D01*
G04 #@! TD*
M02*
