G04 #@! TF.GenerationSoftware,KiCad,Pcbnew,(5.1.5)-3*
G04 #@! TF.CreationDate,2020-01-18T12:47:07+05:30*
G04 #@! TF.ProjectId,ergocape,6572676f-6361-4706-952e-6b696361645f,rev?*
G04 #@! TF.SameCoordinates,Original*
G04 #@! TF.FileFunction,Legend,Top*
G04 #@! TF.FilePolarity,Positive*
%FSLAX46Y46*%
G04 Gerber Fmt 4.6, Leading zero omitted, Abs format (unit mm)*
G04 Created by KiCad (PCBNEW (5.1.5)-3) date 2020-01-18 12:47:07*
%MOMM*%
%LPD*%
G04 APERTURE LIST*
%ADD10C,0.150000*%
%ADD11C,0.010000*%
G04 APERTURE END LIST*
D10*
X58055523Y-20693571D02*
X57722190Y-20693571D01*
X57722190Y-21217380D02*
X57722190Y-20217380D01*
X58198380Y-20217380D01*
X58722190Y-21217380D02*
X58626952Y-21169761D01*
X58579333Y-21122142D01*
X58531714Y-21026904D01*
X58531714Y-20741190D01*
X58579333Y-20645952D01*
X58626952Y-20598333D01*
X58722190Y-20550714D01*
X58865047Y-20550714D01*
X58960285Y-20598333D01*
X59007904Y-20645952D01*
X59055523Y-20741190D01*
X59055523Y-21026904D01*
X59007904Y-21122142D01*
X58960285Y-21169761D01*
X58865047Y-21217380D01*
X58722190Y-21217380D01*
X59484095Y-21217380D02*
X59484095Y-20550714D01*
X59484095Y-20741190D02*
X59531714Y-20645952D01*
X59579333Y-20598333D01*
X59674571Y-20550714D01*
X59769809Y-20550714D01*
X60722190Y-20550714D02*
X61103142Y-20550714D01*
X60865047Y-20217380D02*
X60865047Y-21074523D01*
X60912666Y-21169761D01*
X61007904Y-21217380D01*
X61103142Y-21217380D01*
X61436476Y-21217380D02*
X61436476Y-20217380D01*
X61865047Y-21217380D02*
X61865047Y-20693571D01*
X61817428Y-20598333D01*
X61722190Y-20550714D01*
X61579333Y-20550714D01*
X61484095Y-20598333D01*
X61436476Y-20645952D01*
X62722190Y-21169761D02*
X62626952Y-21217380D01*
X62436476Y-21217380D01*
X62341238Y-21169761D01*
X62293619Y-21074523D01*
X62293619Y-20693571D01*
X62341238Y-20598333D01*
X62436476Y-20550714D01*
X62626952Y-20550714D01*
X62722190Y-20598333D01*
X62769809Y-20693571D01*
X62769809Y-20788809D01*
X62293619Y-20884047D01*
X64103142Y-21217380D02*
X64007904Y-21169761D01*
X63960285Y-21074523D01*
X63960285Y-20217380D01*
X64626952Y-21217380D02*
X64531714Y-21169761D01*
X64484095Y-21122142D01*
X64436476Y-21026904D01*
X64436476Y-20741190D01*
X64484095Y-20645952D01*
X64531714Y-20598333D01*
X64626952Y-20550714D01*
X64769809Y-20550714D01*
X64865047Y-20598333D01*
X64912666Y-20645952D01*
X64960285Y-20741190D01*
X64960285Y-21026904D01*
X64912666Y-21122142D01*
X64865047Y-21169761D01*
X64769809Y-21217380D01*
X64626952Y-21217380D01*
X65293619Y-20550714D02*
X65531714Y-21217380D01*
X65769809Y-20550714D01*
X66531714Y-21169761D02*
X66436476Y-21217380D01*
X66246000Y-21217380D01*
X66150761Y-21169761D01*
X66103142Y-21074523D01*
X66103142Y-20693571D01*
X66150761Y-20598333D01*
X66246000Y-20550714D01*
X66436476Y-20550714D01*
X66531714Y-20598333D01*
X66579333Y-20693571D01*
X66579333Y-20788809D01*
X66103142Y-20884047D01*
X67912666Y-21217380D02*
X67817428Y-21169761D01*
X67769809Y-21122142D01*
X67722190Y-21026904D01*
X67722190Y-20741190D01*
X67769809Y-20645952D01*
X67817428Y-20598333D01*
X67912666Y-20550714D01*
X68055523Y-20550714D01*
X68150761Y-20598333D01*
X68198380Y-20645952D01*
X68246000Y-20741190D01*
X68246000Y-21026904D01*
X68198380Y-21122142D01*
X68150761Y-21169761D01*
X68055523Y-21217380D01*
X67912666Y-21217380D01*
X68531714Y-20550714D02*
X68912666Y-20550714D01*
X68674571Y-21217380D02*
X68674571Y-20360238D01*
X68722190Y-20265000D01*
X68817428Y-20217380D01*
X68912666Y-20217380D01*
X60436476Y-22867380D02*
X60436476Y-21867380D01*
X61007904Y-22867380D02*
X60579333Y-22295952D01*
X61007904Y-21867380D02*
X60436476Y-22438809D01*
X61817428Y-22819761D02*
X61722190Y-22867380D01*
X61531714Y-22867380D01*
X61436476Y-22819761D01*
X61388857Y-22724523D01*
X61388857Y-22343571D01*
X61436476Y-22248333D01*
X61531714Y-22200714D01*
X61722190Y-22200714D01*
X61817428Y-22248333D01*
X61865047Y-22343571D01*
X61865047Y-22438809D01*
X61388857Y-22534047D01*
X62198380Y-22200714D02*
X62436476Y-22867380D01*
X62674571Y-22200714D02*
X62436476Y-22867380D01*
X62341238Y-23105476D01*
X62293619Y-23153095D01*
X62198380Y-23200714D01*
X63484095Y-22819761D02*
X63388857Y-22867380D01*
X63198380Y-22867380D01*
X63103142Y-22819761D01*
X63055523Y-22772142D01*
X63007904Y-22676904D01*
X63007904Y-22391190D01*
X63055523Y-22295952D01*
X63103142Y-22248333D01*
X63198380Y-22200714D01*
X63388857Y-22200714D01*
X63484095Y-22248333D01*
X64341238Y-22867380D02*
X64341238Y-22343571D01*
X64293619Y-22248333D01*
X64198380Y-22200714D01*
X64007904Y-22200714D01*
X63912666Y-22248333D01*
X64341238Y-22819761D02*
X64246000Y-22867380D01*
X64007904Y-22867380D01*
X63912666Y-22819761D01*
X63865047Y-22724523D01*
X63865047Y-22629285D01*
X63912666Y-22534047D01*
X64007904Y-22486428D01*
X64246000Y-22486428D01*
X64341238Y-22438809D01*
X64817428Y-22200714D02*
X64817428Y-23200714D01*
X64817428Y-22248333D02*
X64912666Y-22200714D01*
X65103142Y-22200714D01*
X65198380Y-22248333D01*
X65246000Y-22295952D01*
X65293619Y-22391190D01*
X65293619Y-22676904D01*
X65246000Y-22772142D01*
X65198380Y-22819761D01*
X65103142Y-22867380D01*
X64912666Y-22867380D01*
X64817428Y-22819761D01*
X65674571Y-22819761D02*
X65769809Y-22867380D01*
X65960285Y-22867380D01*
X66055523Y-22819761D01*
X66103142Y-22724523D01*
X66103142Y-22676904D01*
X66055523Y-22581666D01*
X65960285Y-22534047D01*
X65817428Y-22534047D01*
X65722190Y-22486428D01*
X65674571Y-22391190D01*
X65674571Y-22343571D01*
X65722190Y-22248333D01*
X65817428Y-22200714D01*
X65960285Y-22200714D01*
X66055523Y-22248333D01*
D11*
G36*
X52681910Y-19086348D02*
G01*
X52760454Y-19086778D01*
X52817298Y-19087942D01*
X52856105Y-19090207D01*
X52880538Y-19093940D01*
X52894262Y-19099506D01*
X52900940Y-19107273D01*
X52904236Y-19117605D01*
X52904556Y-19118943D01*
X52909562Y-19143079D01*
X52918829Y-19190701D01*
X52931392Y-19256741D01*
X52946287Y-19336128D01*
X52962551Y-19423796D01*
X52963119Y-19426875D01*
X52979410Y-19512789D01*
X52994652Y-19588696D01*
X53007861Y-19650045D01*
X53018054Y-19692282D01*
X53024248Y-19710855D01*
X53024543Y-19711184D01*
X53042788Y-19720253D01*
X53080405Y-19735367D01*
X53129271Y-19753262D01*
X53129543Y-19753358D01*
X53191093Y-19776493D01*
X53263657Y-19805965D01*
X53332057Y-19835597D01*
X53335294Y-19837062D01*
X53446702Y-19887626D01*
X53693399Y-19719160D01*
X53769077Y-19667803D01*
X53837631Y-19621889D01*
X53895088Y-19584030D01*
X53937476Y-19556837D01*
X53960825Y-19542921D01*
X53963042Y-19541889D01*
X53980010Y-19546484D01*
X54011701Y-19568655D01*
X54059352Y-19609447D01*
X54124198Y-19669905D01*
X54190397Y-19734227D01*
X54254214Y-19797612D01*
X54311329Y-19855451D01*
X54358305Y-19904175D01*
X54391703Y-19940210D01*
X54408085Y-19959984D01*
X54408694Y-19961002D01*
X54410505Y-19974572D01*
X54403683Y-19996733D01*
X54386540Y-20030478D01*
X54357393Y-20078800D01*
X54314555Y-20144692D01*
X54257448Y-20229517D01*
X54206766Y-20304177D01*
X54161461Y-20371140D01*
X54124150Y-20426516D01*
X54097452Y-20466420D01*
X54083985Y-20486962D01*
X54083137Y-20488356D01*
X54084781Y-20508038D01*
X54097245Y-20546293D01*
X54118048Y-20595889D01*
X54125462Y-20611728D01*
X54157814Y-20682290D01*
X54192328Y-20762353D01*
X54220365Y-20831629D01*
X54240568Y-20883045D01*
X54256615Y-20922119D01*
X54265888Y-20942541D01*
X54267041Y-20944114D01*
X54284096Y-20946721D01*
X54324298Y-20953863D01*
X54382302Y-20964523D01*
X54452763Y-20977685D01*
X54530335Y-20992333D01*
X54609672Y-21007449D01*
X54685431Y-21022018D01*
X54752264Y-21035022D01*
X54804828Y-21045445D01*
X54837776Y-21052270D01*
X54845857Y-21054199D01*
X54854205Y-21058962D01*
X54860506Y-21069718D01*
X54865045Y-21090098D01*
X54868104Y-21123734D01*
X54869967Y-21174255D01*
X54870918Y-21245292D01*
X54871240Y-21340476D01*
X54871257Y-21379492D01*
X54871257Y-21696799D01*
X54795057Y-21711839D01*
X54752663Y-21719995D01*
X54689400Y-21731899D01*
X54612962Y-21746116D01*
X54531043Y-21761210D01*
X54508400Y-21765355D01*
X54432806Y-21780053D01*
X54366953Y-21794505D01*
X54316366Y-21807375D01*
X54286574Y-21817322D01*
X54281612Y-21820287D01*
X54269426Y-21841283D01*
X54251953Y-21881967D01*
X54232577Y-21934322D01*
X54228734Y-21945600D01*
X54203339Y-22015523D01*
X54171817Y-22094418D01*
X54140969Y-22165266D01*
X54140817Y-22165595D01*
X54089447Y-22276733D01*
X54258399Y-22525253D01*
X54427352Y-22773772D01*
X54210429Y-22991058D01*
X54144819Y-23055726D01*
X54084979Y-23112733D01*
X54034267Y-23159033D01*
X53996046Y-23191584D01*
X53973675Y-23207343D01*
X53970466Y-23208343D01*
X53951626Y-23200469D01*
X53913180Y-23178578D01*
X53859330Y-23145267D01*
X53794276Y-23103131D01*
X53723940Y-23055943D01*
X53652555Y-23007810D01*
X53588908Y-22965928D01*
X53537041Y-22932871D01*
X53500995Y-22911218D01*
X53484867Y-22903543D01*
X53465189Y-22910037D01*
X53427875Y-22927150D01*
X53380621Y-22951326D01*
X53375612Y-22954013D01*
X53311977Y-22985927D01*
X53268341Y-23001579D01*
X53241202Y-23001745D01*
X53227057Y-22987204D01*
X53226975Y-22987000D01*
X53219905Y-22969779D01*
X53203042Y-22928899D01*
X53177695Y-22867525D01*
X53145171Y-22788819D01*
X53106778Y-22695947D01*
X53063822Y-22592072D01*
X53022222Y-22491502D01*
X52976504Y-22380516D01*
X52934526Y-22277703D01*
X52897548Y-22186215D01*
X52866827Y-22109201D01*
X52843622Y-22049815D01*
X52829190Y-22011209D01*
X52824743Y-21996800D01*
X52835896Y-21980272D01*
X52865069Y-21953930D01*
X52903971Y-21924887D01*
X53014757Y-21833039D01*
X53101351Y-21727759D01*
X53162716Y-21611266D01*
X53197815Y-21485776D01*
X53205608Y-21353507D01*
X53199943Y-21292457D01*
X53169078Y-21165795D01*
X53115920Y-21053941D01*
X53043767Y-20958001D01*
X52955917Y-20879076D01*
X52855665Y-20818270D01*
X52746310Y-20776687D01*
X52631147Y-20755428D01*
X52513475Y-20755599D01*
X52396590Y-20778301D01*
X52283789Y-20824638D01*
X52178369Y-20895713D01*
X52134368Y-20935911D01*
X52049979Y-21039129D01*
X51991222Y-21151925D01*
X51957704Y-21271010D01*
X51949035Y-21393095D01*
X51964823Y-21514893D01*
X52004678Y-21633116D01*
X52068207Y-21744475D01*
X52155021Y-21845684D01*
X52252029Y-21924887D01*
X52292437Y-21955162D01*
X52320982Y-21981219D01*
X52331257Y-21996825D01*
X52325877Y-22013843D01*
X52310575Y-22054500D01*
X52286612Y-22115642D01*
X52255244Y-22194119D01*
X52217732Y-22286780D01*
X52175333Y-22390472D01*
X52133663Y-22491526D01*
X52087690Y-22602607D01*
X52045107Y-22705541D01*
X52007221Y-22797165D01*
X51975340Y-22874316D01*
X51950771Y-22933831D01*
X51934820Y-22972544D01*
X51928910Y-22987000D01*
X51914948Y-23001685D01*
X51887940Y-23001642D01*
X51844413Y-22986099D01*
X51780890Y-22954284D01*
X51780388Y-22954013D01*
X51732560Y-22929323D01*
X51693897Y-22911338D01*
X51672095Y-22903614D01*
X51671133Y-22903543D01*
X51654721Y-22911378D01*
X51618487Y-22933165D01*
X51566474Y-22966328D01*
X51502725Y-23008291D01*
X51432060Y-23055943D01*
X51360116Y-23104191D01*
X51295274Y-23146151D01*
X51241735Y-23179227D01*
X51203697Y-23200821D01*
X51185533Y-23208343D01*
X51168808Y-23198457D01*
X51135180Y-23170826D01*
X51088010Y-23128495D01*
X51030658Y-23074505D01*
X50966484Y-23011899D01*
X50945497Y-22990983D01*
X50728499Y-22773623D01*
X50893668Y-22531220D01*
X50943864Y-22456781D01*
X50987919Y-22389972D01*
X51023362Y-22334665D01*
X51047719Y-22294729D01*
X51058522Y-22274036D01*
X51058838Y-22272563D01*
X51053143Y-22253058D01*
X51037826Y-22213822D01*
X51015537Y-22161430D01*
X50999893Y-22126355D01*
X50970641Y-22059201D01*
X50943094Y-21991358D01*
X50921737Y-21934034D01*
X50915935Y-21916572D01*
X50899452Y-21869938D01*
X50883340Y-21833905D01*
X50874490Y-21820287D01*
X50854960Y-21811952D01*
X50812334Y-21800137D01*
X50752145Y-21786181D01*
X50679922Y-21771422D01*
X50647600Y-21765355D01*
X50565522Y-21750273D01*
X50486795Y-21735669D01*
X50419109Y-21722980D01*
X50370160Y-21713642D01*
X50360943Y-21711839D01*
X50284743Y-21696799D01*
X50284743Y-21379492D01*
X50284914Y-21275154D01*
X50285616Y-21196213D01*
X50287134Y-21139038D01*
X50289749Y-21099999D01*
X50293746Y-21075465D01*
X50299409Y-21061805D01*
X50307020Y-21055389D01*
X50310143Y-21054199D01*
X50328978Y-21049980D01*
X50370588Y-21041562D01*
X50429630Y-21029961D01*
X50500757Y-21016195D01*
X50578625Y-21001280D01*
X50657887Y-20986232D01*
X50733198Y-20972069D01*
X50799213Y-20959806D01*
X50850587Y-20950461D01*
X50881975Y-20945050D01*
X50888959Y-20944114D01*
X50895285Y-20931596D01*
X50909290Y-20898246D01*
X50928355Y-20850377D01*
X50935634Y-20831629D01*
X50964996Y-20759195D01*
X50999571Y-20679170D01*
X51030537Y-20611728D01*
X51053323Y-20560159D01*
X51068482Y-20517785D01*
X51073542Y-20491834D01*
X51072736Y-20488356D01*
X51062041Y-20471936D01*
X51037620Y-20435417D01*
X51002095Y-20382687D01*
X50958087Y-20317635D01*
X50908217Y-20244151D01*
X50898356Y-20229645D01*
X50840492Y-20143704D01*
X50797956Y-20078261D01*
X50769054Y-20030304D01*
X50752090Y-19996820D01*
X50745367Y-19974795D01*
X50747190Y-19961217D01*
X50747236Y-19961131D01*
X50761586Y-19943297D01*
X50793323Y-19908817D01*
X50839010Y-19861268D01*
X50895204Y-19804222D01*
X50958468Y-19741255D01*
X50965602Y-19734227D01*
X51045330Y-19657020D01*
X51106857Y-19600330D01*
X51151421Y-19563110D01*
X51180257Y-19544315D01*
X51192958Y-19541889D01*
X51211494Y-19552471D01*
X51249961Y-19576916D01*
X51304386Y-19612612D01*
X51370798Y-19656947D01*
X51445225Y-19707311D01*
X51462601Y-19719160D01*
X51709297Y-19887626D01*
X51820706Y-19837062D01*
X51888457Y-19807595D01*
X51961183Y-19777959D01*
X52023703Y-19754330D01*
X52026457Y-19753358D01*
X52075360Y-19735457D01*
X52113057Y-19720320D01*
X52131425Y-19711210D01*
X52131456Y-19711184D01*
X52137285Y-19694717D01*
X52147192Y-19654219D01*
X52160195Y-19594242D01*
X52175309Y-19519340D01*
X52191552Y-19434064D01*
X52192881Y-19426875D01*
X52209175Y-19339014D01*
X52224133Y-19259260D01*
X52236791Y-19192681D01*
X52246186Y-19144347D01*
X52251354Y-19119325D01*
X52251444Y-19118943D01*
X52254589Y-19108299D01*
X52260704Y-19100262D01*
X52273453Y-19094467D01*
X52296500Y-19090547D01*
X52333509Y-19088135D01*
X52388144Y-19086865D01*
X52464067Y-19086371D01*
X52564944Y-19086286D01*
X52578000Y-19086286D01*
X52681910Y-19086348D01*
G37*
X52681910Y-19086348D02*
X52760454Y-19086778D01*
X52817298Y-19087942D01*
X52856105Y-19090207D01*
X52880538Y-19093940D01*
X52894262Y-19099506D01*
X52900940Y-19107273D01*
X52904236Y-19117605D01*
X52904556Y-19118943D01*
X52909562Y-19143079D01*
X52918829Y-19190701D01*
X52931392Y-19256741D01*
X52946287Y-19336128D01*
X52962551Y-19423796D01*
X52963119Y-19426875D01*
X52979410Y-19512789D01*
X52994652Y-19588696D01*
X53007861Y-19650045D01*
X53018054Y-19692282D01*
X53024248Y-19710855D01*
X53024543Y-19711184D01*
X53042788Y-19720253D01*
X53080405Y-19735367D01*
X53129271Y-19753262D01*
X53129543Y-19753358D01*
X53191093Y-19776493D01*
X53263657Y-19805965D01*
X53332057Y-19835597D01*
X53335294Y-19837062D01*
X53446702Y-19887626D01*
X53693399Y-19719160D01*
X53769077Y-19667803D01*
X53837631Y-19621889D01*
X53895088Y-19584030D01*
X53937476Y-19556837D01*
X53960825Y-19542921D01*
X53963042Y-19541889D01*
X53980010Y-19546484D01*
X54011701Y-19568655D01*
X54059352Y-19609447D01*
X54124198Y-19669905D01*
X54190397Y-19734227D01*
X54254214Y-19797612D01*
X54311329Y-19855451D01*
X54358305Y-19904175D01*
X54391703Y-19940210D01*
X54408085Y-19959984D01*
X54408694Y-19961002D01*
X54410505Y-19974572D01*
X54403683Y-19996733D01*
X54386540Y-20030478D01*
X54357393Y-20078800D01*
X54314555Y-20144692D01*
X54257448Y-20229517D01*
X54206766Y-20304177D01*
X54161461Y-20371140D01*
X54124150Y-20426516D01*
X54097452Y-20466420D01*
X54083985Y-20486962D01*
X54083137Y-20488356D01*
X54084781Y-20508038D01*
X54097245Y-20546293D01*
X54118048Y-20595889D01*
X54125462Y-20611728D01*
X54157814Y-20682290D01*
X54192328Y-20762353D01*
X54220365Y-20831629D01*
X54240568Y-20883045D01*
X54256615Y-20922119D01*
X54265888Y-20942541D01*
X54267041Y-20944114D01*
X54284096Y-20946721D01*
X54324298Y-20953863D01*
X54382302Y-20964523D01*
X54452763Y-20977685D01*
X54530335Y-20992333D01*
X54609672Y-21007449D01*
X54685431Y-21022018D01*
X54752264Y-21035022D01*
X54804828Y-21045445D01*
X54837776Y-21052270D01*
X54845857Y-21054199D01*
X54854205Y-21058962D01*
X54860506Y-21069718D01*
X54865045Y-21090098D01*
X54868104Y-21123734D01*
X54869967Y-21174255D01*
X54870918Y-21245292D01*
X54871240Y-21340476D01*
X54871257Y-21379492D01*
X54871257Y-21696799D01*
X54795057Y-21711839D01*
X54752663Y-21719995D01*
X54689400Y-21731899D01*
X54612962Y-21746116D01*
X54531043Y-21761210D01*
X54508400Y-21765355D01*
X54432806Y-21780053D01*
X54366953Y-21794505D01*
X54316366Y-21807375D01*
X54286574Y-21817322D01*
X54281612Y-21820287D01*
X54269426Y-21841283D01*
X54251953Y-21881967D01*
X54232577Y-21934322D01*
X54228734Y-21945600D01*
X54203339Y-22015523D01*
X54171817Y-22094418D01*
X54140969Y-22165266D01*
X54140817Y-22165595D01*
X54089447Y-22276733D01*
X54258399Y-22525253D01*
X54427352Y-22773772D01*
X54210429Y-22991058D01*
X54144819Y-23055726D01*
X54084979Y-23112733D01*
X54034267Y-23159033D01*
X53996046Y-23191584D01*
X53973675Y-23207343D01*
X53970466Y-23208343D01*
X53951626Y-23200469D01*
X53913180Y-23178578D01*
X53859330Y-23145267D01*
X53794276Y-23103131D01*
X53723940Y-23055943D01*
X53652555Y-23007810D01*
X53588908Y-22965928D01*
X53537041Y-22932871D01*
X53500995Y-22911218D01*
X53484867Y-22903543D01*
X53465189Y-22910037D01*
X53427875Y-22927150D01*
X53380621Y-22951326D01*
X53375612Y-22954013D01*
X53311977Y-22985927D01*
X53268341Y-23001579D01*
X53241202Y-23001745D01*
X53227057Y-22987204D01*
X53226975Y-22987000D01*
X53219905Y-22969779D01*
X53203042Y-22928899D01*
X53177695Y-22867525D01*
X53145171Y-22788819D01*
X53106778Y-22695947D01*
X53063822Y-22592072D01*
X53022222Y-22491502D01*
X52976504Y-22380516D01*
X52934526Y-22277703D01*
X52897548Y-22186215D01*
X52866827Y-22109201D01*
X52843622Y-22049815D01*
X52829190Y-22011209D01*
X52824743Y-21996800D01*
X52835896Y-21980272D01*
X52865069Y-21953930D01*
X52903971Y-21924887D01*
X53014757Y-21833039D01*
X53101351Y-21727759D01*
X53162716Y-21611266D01*
X53197815Y-21485776D01*
X53205608Y-21353507D01*
X53199943Y-21292457D01*
X53169078Y-21165795D01*
X53115920Y-21053941D01*
X53043767Y-20958001D01*
X52955917Y-20879076D01*
X52855665Y-20818270D01*
X52746310Y-20776687D01*
X52631147Y-20755428D01*
X52513475Y-20755599D01*
X52396590Y-20778301D01*
X52283789Y-20824638D01*
X52178369Y-20895713D01*
X52134368Y-20935911D01*
X52049979Y-21039129D01*
X51991222Y-21151925D01*
X51957704Y-21271010D01*
X51949035Y-21393095D01*
X51964823Y-21514893D01*
X52004678Y-21633116D01*
X52068207Y-21744475D01*
X52155021Y-21845684D01*
X52252029Y-21924887D01*
X52292437Y-21955162D01*
X52320982Y-21981219D01*
X52331257Y-21996825D01*
X52325877Y-22013843D01*
X52310575Y-22054500D01*
X52286612Y-22115642D01*
X52255244Y-22194119D01*
X52217732Y-22286780D01*
X52175333Y-22390472D01*
X52133663Y-22491526D01*
X52087690Y-22602607D01*
X52045107Y-22705541D01*
X52007221Y-22797165D01*
X51975340Y-22874316D01*
X51950771Y-22933831D01*
X51934820Y-22972544D01*
X51928910Y-22987000D01*
X51914948Y-23001685D01*
X51887940Y-23001642D01*
X51844413Y-22986099D01*
X51780890Y-22954284D01*
X51780388Y-22954013D01*
X51732560Y-22929323D01*
X51693897Y-22911338D01*
X51672095Y-22903614D01*
X51671133Y-22903543D01*
X51654721Y-22911378D01*
X51618487Y-22933165D01*
X51566474Y-22966328D01*
X51502725Y-23008291D01*
X51432060Y-23055943D01*
X51360116Y-23104191D01*
X51295274Y-23146151D01*
X51241735Y-23179227D01*
X51203697Y-23200821D01*
X51185533Y-23208343D01*
X51168808Y-23198457D01*
X51135180Y-23170826D01*
X51088010Y-23128495D01*
X51030658Y-23074505D01*
X50966484Y-23011899D01*
X50945497Y-22990983D01*
X50728499Y-22773623D01*
X50893668Y-22531220D01*
X50943864Y-22456781D01*
X50987919Y-22389972D01*
X51023362Y-22334665D01*
X51047719Y-22294729D01*
X51058522Y-22274036D01*
X51058838Y-22272563D01*
X51053143Y-22253058D01*
X51037826Y-22213822D01*
X51015537Y-22161430D01*
X50999893Y-22126355D01*
X50970641Y-22059201D01*
X50943094Y-21991358D01*
X50921737Y-21934034D01*
X50915935Y-21916572D01*
X50899452Y-21869938D01*
X50883340Y-21833905D01*
X50874490Y-21820287D01*
X50854960Y-21811952D01*
X50812334Y-21800137D01*
X50752145Y-21786181D01*
X50679922Y-21771422D01*
X50647600Y-21765355D01*
X50565522Y-21750273D01*
X50486795Y-21735669D01*
X50419109Y-21722980D01*
X50370160Y-21713642D01*
X50360943Y-21711839D01*
X50284743Y-21696799D01*
X50284743Y-21379492D01*
X50284914Y-21275154D01*
X50285616Y-21196213D01*
X50287134Y-21139038D01*
X50289749Y-21099999D01*
X50293746Y-21075465D01*
X50299409Y-21061805D01*
X50307020Y-21055389D01*
X50310143Y-21054199D01*
X50328978Y-21049980D01*
X50370588Y-21041562D01*
X50429630Y-21029961D01*
X50500757Y-21016195D01*
X50578625Y-21001280D01*
X50657887Y-20986232D01*
X50733198Y-20972069D01*
X50799213Y-20959806D01*
X50850587Y-20950461D01*
X50881975Y-20945050D01*
X50888959Y-20944114D01*
X50895285Y-20931596D01*
X50909290Y-20898246D01*
X50928355Y-20850377D01*
X50935634Y-20831629D01*
X50964996Y-20759195D01*
X50999571Y-20679170D01*
X51030537Y-20611728D01*
X51053323Y-20560159D01*
X51068482Y-20517785D01*
X51073542Y-20491834D01*
X51072736Y-20488356D01*
X51062041Y-20471936D01*
X51037620Y-20435417D01*
X51002095Y-20382687D01*
X50958087Y-20317635D01*
X50908217Y-20244151D01*
X50898356Y-20229645D01*
X50840492Y-20143704D01*
X50797956Y-20078261D01*
X50769054Y-20030304D01*
X50752090Y-19996820D01*
X50745367Y-19974795D01*
X50747190Y-19961217D01*
X50747236Y-19961131D01*
X50761586Y-19943297D01*
X50793323Y-19908817D01*
X50839010Y-19861268D01*
X50895204Y-19804222D01*
X50958468Y-19741255D01*
X50965602Y-19734227D01*
X51045330Y-19657020D01*
X51106857Y-19600330D01*
X51151421Y-19563110D01*
X51180257Y-19544315D01*
X51192958Y-19541889D01*
X51211494Y-19552471D01*
X51249961Y-19576916D01*
X51304386Y-19612612D01*
X51370798Y-19656947D01*
X51445225Y-19707311D01*
X51462601Y-19719160D01*
X51709297Y-19887626D01*
X51820706Y-19837062D01*
X51888457Y-19807595D01*
X51961183Y-19777959D01*
X52023703Y-19754330D01*
X52026457Y-19753358D01*
X52075360Y-19735457D01*
X52113057Y-19720320D01*
X52131425Y-19711210D01*
X52131456Y-19711184D01*
X52137285Y-19694717D01*
X52147192Y-19654219D01*
X52160195Y-19594242D01*
X52175309Y-19519340D01*
X52191552Y-19434064D01*
X52192881Y-19426875D01*
X52209175Y-19339014D01*
X52224133Y-19259260D01*
X52236791Y-19192681D01*
X52246186Y-19144347D01*
X52251354Y-19119325D01*
X52251444Y-19118943D01*
X52254589Y-19108299D01*
X52260704Y-19100262D01*
X52273453Y-19094467D01*
X52296500Y-19090547D01*
X52333509Y-19088135D01*
X52388144Y-19086865D01*
X52464067Y-19086371D01*
X52564944Y-19086286D01*
X52578000Y-19086286D01*
X52681910Y-19086348D01*
G36*
X55731595Y-23810966D02*
G01*
X55789021Y-23848497D01*
X55816719Y-23882096D01*
X55838662Y-23943064D01*
X55840405Y-23991308D01*
X55836457Y-24055816D01*
X55687686Y-24120934D01*
X55615349Y-24154202D01*
X55568084Y-24180964D01*
X55543507Y-24204144D01*
X55539237Y-24226667D01*
X55552889Y-24251455D01*
X55567943Y-24267886D01*
X55611746Y-24294235D01*
X55659389Y-24296081D01*
X55703145Y-24275546D01*
X55735289Y-24234752D01*
X55741038Y-24220347D01*
X55768576Y-24175356D01*
X55800258Y-24156182D01*
X55843714Y-24139779D01*
X55843714Y-24201966D01*
X55839872Y-24244283D01*
X55824823Y-24279969D01*
X55793280Y-24320943D01*
X55788592Y-24326267D01*
X55753506Y-24362720D01*
X55723347Y-24382283D01*
X55685615Y-24391283D01*
X55654335Y-24394230D01*
X55598385Y-24394965D01*
X55558555Y-24385660D01*
X55533708Y-24371846D01*
X55494656Y-24341467D01*
X55467625Y-24308613D01*
X55450517Y-24267294D01*
X55441238Y-24211521D01*
X55437693Y-24135305D01*
X55437410Y-24096622D01*
X55438372Y-24050247D01*
X55526007Y-24050247D01*
X55527023Y-24075126D01*
X55529556Y-24079200D01*
X55546274Y-24073665D01*
X55582249Y-24059017D01*
X55630331Y-24038190D01*
X55640386Y-24033714D01*
X55701152Y-24002814D01*
X55734632Y-23975657D01*
X55741990Y-23950220D01*
X55724391Y-23924481D01*
X55709856Y-23913109D01*
X55657410Y-23890364D01*
X55608322Y-23894122D01*
X55567227Y-23921884D01*
X55538758Y-23971152D01*
X55529631Y-24010257D01*
X55526007Y-24050247D01*
X55438372Y-24050247D01*
X55439285Y-24006249D01*
X55446196Y-23939384D01*
X55459884Y-23890695D01*
X55482096Y-23854849D01*
X55514574Y-23826513D01*
X55528733Y-23817355D01*
X55593053Y-23793507D01*
X55663473Y-23792006D01*
X55731595Y-23810966D01*
G37*
X55731595Y-23810966D02*
X55789021Y-23848497D01*
X55816719Y-23882096D01*
X55838662Y-23943064D01*
X55840405Y-23991308D01*
X55836457Y-24055816D01*
X55687686Y-24120934D01*
X55615349Y-24154202D01*
X55568084Y-24180964D01*
X55543507Y-24204144D01*
X55539237Y-24226667D01*
X55552889Y-24251455D01*
X55567943Y-24267886D01*
X55611746Y-24294235D01*
X55659389Y-24296081D01*
X55703145Y-24275546D01*
X55735289Y-24234752D01*
X55741038Y-24220347D01*
X55768576Y-24175356D01*
X55800258Y-24156182D01*
X55843714Y-24139779D01*
X55843714Y-24201966D01*
X55839872Y-24244283D01*
X55824823Y-24279969D01*
X55793280Y-24320943D01*
X55788592Y-24326267D01*
X55753506Y-24362720D01*
X55723347Y-24382283D01*
X55685615Y-24391283D01*
X55654335Y-24394230D01*
X55598385Y-24394965D01*
X55558555Y-24385660D01*
X55533708Y-24371846D01*
X55494656Y-24341467D01*
X55467625Y-24308613D01*
X55450517Y-24267294D01*
X55441238Y-24211521D01*
X55437693Y-24135305D01*
X55437410Y-24096622D01*
X55438372Y-24050247D01*
X55526007Y-24050247D01*
X55527023Y-24075126D01*
X55529556Y-24079200D01*
X55546274Y-24073665D01*
X55582249Y-24059017D01*
X55630331Y-24038190D01*
X55640386Y-24033714D01*
X55701152Y-24002814D01*
X55734632Y-23975657D01*
X55741990Y-23950220D01*
X55724391Y-23924481D01*
X55709856Y-23913109D01*
X55657410Y-23890364D01*
X55608322Y-23894122D01*
X55567227Y-23921884D01*
X55538758Y-23971152D01*
X55529631Y-24010257D01*
X55526007Y-24050247D01*
X55438372Y-24050247D01*
X55439285Y-24006249D01*
X55446196Y-23939384D01*
X55459884Y-23890695D01*
X55482096Y-23854849D01*
X55514574Y-23826513D01*
X55528733Y-23817355D01*
X55593053Y-23793507D01*
X55663473Y-23792006D01*
X55731595Y-23810966D01*
G36*
X55230600Y-23802752D02*
G01*
X55247948Y-23810334D01*
X55289356Y-23843128D01*
X55324765Y-23890547D01*
X55346664Y-23941151D01*
X55350229Y-23966098D01*
X55338279Y-24000927D01*
X55312067Y-24019357D01*
X55283964Y-24030516D01*
X55271095Y-24032572D01*
X55264829Y-24017649D01*
X55252456Y-23985175D01*
X55247028Y-23970502D01*
X55216590Y-23919744D01*
X55172520Y-23894427D01*
X55116010Y-23895206D01*
X55111825Y-23896203D01*
X55081655Y-23910507D01*
X55059476Y-23938393D01*
X55044327Y-23983287D01*
X55035250Y-24048615D01*
X55031286Y-24137804D01*
X55030914Y-24185261D01*
X55030730Y-24260071D01*
X55029522Y-24311069D01*
X55026309Y-24343471D01*
X55020109Y-24362495D01*
X55009940Y-24373356D01*
X54994819Y-24381272D01*
X54993946Y-24381670D01*
X54964828Y-24393981D01*
X54950403Y-24398514D01*
X54948186Y-24384809D01*
X54946289Y-24346925D01*
X54944847Y-24289715D01*
X54943998Y-24218027D01*
X54943829Y-24165565D01*
X54944692Y-24064047D01*
X54948070Y-23987032D01*
X54955142Y-23930023D01*
X54967088Y-23888526D01*
X54985090Y-23858043D01*
X55010327Y-23834080D01*
X55035247Y-23817355D01*
X55095171Y-23795097D01*
X55164911Y-23790076D01*
X55230600Y-23802752D01*
G37*
X55230600Y-23802752D02*
X55247948Y-23810334D01*
X55289356Y-23843128D01*
X55324765Y-23890547D01*
X55346664Y-23941151D01*
X55350229Y-23966098D01*
X55338279Y-24000927D01*
X55312067Y-24019357D01*
X55283964Y-24030516D01*
X55271095Y-24032572D01*
X55264829Y-24017649D01*
X55252456Y-23985175D01*
X55247028Y-23970502D01*
X55216590Y-23919744D01*
X55172520Y-23894427D01*
X55116010Y-23895206D01*
X55111825Y-23896203D01*
X55081655Y-23910507D01*
X55059476Y-23938393D01*
X55044327Y-23983287D01*
X55035250Y-24048615D01*
X55031286Y-24137804D01*
X55030914Y-24185261D01*
X55030730Y-24260071D01*
X55029522Y-24311069D01*
X55026309Y-24343471D01*
X55020109Y-24362495D01*
X55009940Y-24373356D01*
X54994819Y-24381272D01*
X54993946Y-24381670D01*
X54964828Y-24393981D01*
X54950403Y-24398514D01*
X54948186Y-24384809D01*
X54946289Y-24346925D01*
X54944847Y-24289715D01*
X54943998Y-24218027D01*
X54943829Y-24165565D01*
X54944692Y-24064047D01*
X54948070Y-23987032D01*
X54955142Y-23930023D01*
X54967088Y-23888526D01*
X54985090Y-23858043D01*
X55010327Y-23834080D01*
X55035247Y-23817355D01*
X55095171Y-23795097D01*
X55164911Y-23790076D01*
X55230600Y-23802752D01*
G36*
X54722876Y-23800335D02*
G01*
X54764667Y-23819344D01*
X54797469Y-23842378D01*
X54821503Y-23868133D01*
X54838097Y-23901358D01*
X54848577Y-23946800D01*
X54854271Y-24009207D01*
X54856507Y-24093327D01*
X54856743Y-24148721D01*
X54856743Y-24364826D01*
X54819774Y-24381670D01*
X54790656Y-24393981D01*
X54776231Y-24398514D01*
X54773472Y-24385025D01*
X54771282Y-24348653D01*
X54769942Y-24295542D01*
X54769657Y-24253372D01*
X54768434Y-24192447D01*
X54765136Y-24144115D01*
X54760321Y-24114518D01*
X54756496Y-24108229D01*
X54730783Y-24114652D01*
X54690418Y-24131125D01*
X54643679Y-24153458D01*
X54598845Y-24177457D01*
X54564193Y-24198930D01*
X54548002Y-24213685D01*
X54547938Y-24213845D01*
X54549330Y-24241152D01*
X54561818Y-24267219D01*
X54583743Y-24288392D01*
X54615743Y-24295474D01*
X54643092Y-24294649D01*
X54681826Y-24294042D01*
X54702158Y-24303116D01*
X54714369Y-24327092D01*
X54715909Y-24331613D01*
X54721203Y-24365806D01*
X54707047Y-24386568D01*
X54670148Y-24396462D01*
X54630289Y-24398292D01*
X54558562Y-24384727D01*
X54521432Y-24365355D01*
X54475576Y-24319845D01*
X54451256Y-24263983D01*
X54449073Y-24204957D01*
X54469629Y-24149953D01*
X54500549Y-24115486D01*
X54531420Y-24096189D01*
X54579942Y-24071759D01*
X54636485Y-24046985D01*
X54645910Y-24043199D01*
X54708019Y-24015791D01*
X54743822Y-23991634D01*
X54755337Y-23967619D01*
X54744580Y-23940635D01*
X54726114Y-23919543D01*
X54682469Y-23893572D01*
X54634446Y-23891624D01*
X54590406Y-23911637D01*
X54558709Y-23951551D01*
X54554549Y-23961848D01*
X54530327Y-23999724D01*
X54494965Y-24027842D01*
X54450343Y-24050917D01*
X54450343Y-23985485D01*
X54452969Y-23945506D01*
X54464230Y-23913997D01*
X54489199Y-23880378D01*
X54513169Y-23854484D01*
X54550441Y-23817817D01*
X54579401Y-23798121D01*
X54610505Y-23790220D01*
X54645713Y-23788914D01*
X54722876Y-23800335D01*
G37*
X54722876Y-23800335D02*
X54764667Y-23819344D01*
X54797469Y-23842378D01*
X54821503Y-23868133D01*
X54838097Y-23901358D01*
X54848577Y-23946800D01*
X54854271Y-24009207D01*
X54856507Y-24093327D01*
X54856743Y-24148721D01*
X54856743Y-24364826D01*
X54819774Y-24381670D01*
X54790656Y-24393981D01*
X54776231Y-24398514D01*
X54773472Y-24385025D01*
X54771282Y-24348653D01*
X54769942Y-24295542D01*
X54769657Y-24253372D01*
X54768434Y-24192447D01*
X54765136Y-24144115D01*
X54760321Y-24114518D01*
X54756496Y-24108229D01*
X54730783Y-24114652D01*
X54690418Y-24131125D01*
X54643679Y-24153458D01*
X54598845Y-24177457D01*
X54564193Y-24198930D01*
X54548002Y-24213685D01*
X54547938Y-24213845D01*
X54549330Y-24241152D01*
X54561818Y-24267219D01*
X54583743Y-24288392D01*
X54615743Y-24295474D01*
X54643092Y-24294649D01*
X54681826Y-24294042D01*
X54702158Y-24303116D01*
X54714369Y-24327092D01*
X54715909Y-24331613D01*
X54721203Y-24365806D01*
X54707047Y-24386568D01*
X54670148Y-24396462D01*
X54630289Y-24398292D01*
X54558562Y-24384727D01*
X54521432Y-24365355D01*
X54475576Y-24319845D01*
X54451256Y-24263983D01*
X54449073Y-24204957D01*
X54469629Y-24149953D01*
X54500549Y-24115486D01*
X54531420Y-24096189D01*
X54579942Y-24071759D01*
X54636485Y-24046985D01*
X54645910Y-24043199D01*
X54708019Y-24015791D01*
X54743822Y-23991634D01*
X54755337Y-23967619D01*
X54744580Y-23940635D01*
X54726114Y-23919543D01*
X54682469Y-23893572D01*
X54634446Y-23891624D01*
X54590406Y-23911637D01*
X54558709Y-23951551D01*
X54554549Y-23961848D01*
X54530327Y-23999724D01*
X54494965Y-24027842D01*
X54450343Y-24050917D01*
X54450343Y-23985485D01*
X54452969Y-23945506D01*
X54464230Y-23913997D01*
X54489199Y-23880378D01*
X54513169Y-23854484D01*
X54550441Y-23817817D01*
X54579401Y-23798121D01*
X54610505Y-23790220D01*
X54645713Y-23788914D01*
X54722876Y-23800335D01*
G36*
X54357833Y-23802663D02*
G01*
X54360048Y-23840850D01*
X54361784Y-23898886D01*
X54362899Y-23972180D01*
X54363257Y-24049055D01*
X54363257Y-24309196D01*
X54317326Y-24355127D01*
X54285675Y-24383429D01*
X54257890Y-24394893D01*
X54219915Y-24394168D01*
X54204840Y-24392321D01*
X54157726Y-24386948D01*
X54118756Y-24383869D01*
X54109257Y-24383585D01*
X54077233Y-24385445D01*
X54031432Y-24390114D01*
X54013674Y-24392321D01*
X53970057Y-24395735D01*
X53940745Y-24388320D01*
X53911680Y-24365427D01*
X53901188Y-24355127D01*
X53855257Y-24309196D01*
X53855257Y-23822602D01*
X53892226Y-23805758D01*
X53924059Y-23793282D01*
X53942683Y-23788914D01*
X53947458Y-23802718D01*
X53951921Y-23841286D01*
X53955775Y-23900356D01*
X53958722Y-23975663D01*
X53960143Y-24039286D01*
X53964114Y-24289657D01*
X53998759Y-24294556D01*
X54030268Y-24291131D01*
X54045708Y-24280041D01*
X54050023Y-24259308D01*
X54053708Y-24215145D01*
X54056469Y-24153146D01*
X54058012Y-24078909D01*
X54058235Y-24040706D01*
X54058457Y-23820783D01*
X54104166Y-23804849D01*
X54136518Y-23794015D01*
X54154115Y-23788962D01*
X54154623Y-23788914D01*
X54156388Y-23802648D01*
X54158329Y-23840730D01*
X54160282Y-23898482D01*
X54162084Y-23971227D01*
X54163343Y-24039286D01*
X54167314Y-24289657D01*
X54254400Y-24289657D01*
X54258396Y-24061240D01*
X54262392Y-23832822D01*
X54304847Y-23810868D01*
X54336192Y-23795793D01*
X54354744Y-23788951D01*
X54355279Y-23788914D01*
X54357833Y-23802663D01*
G37*
X54357833Y-23802663D02*
X54360048Y-23840850D01*
X54361784Y-23898886D01*
X54362899Y-23972180D01*
X54363257Y-24049055D01*
X54363257Y-24309196D01*
X54317326Y-24355127D01*
X54285675Y-24383429D01*
X54257890Y-24394893D01*
X54219915Y-24394168D01*
X54204840Y-24392321D01*
X54157726Y-24386948D01*
X54118756Y-24383869D01*
X54109257Y-24383585D01*
X54077233Y-24385445D01*
X54031432Y-24390114D01*
X54013674Y-24392321D01*
X53970057Y-24395735D01*
X53940745Y-24388320D01*
X53911680Y-24365427D01*
X53901188Y-24355127D01*
X53855257Y-24309196D01*
X53855257Y-23822602D01*
X53892226Y-23805758D01*
X53924059Y-23793282D01*
X53942683Y-23788914D01*
X53947458Y-23802718D01*
X53951921Y-23841286D01*
X53955775Y-23900356D01*
X53958722Y-23975663D01*
X53960143Y-24039286D01*
X53964114Y-24289657D01*
X53998759Y-24294556D01*
X54030268Y-24291131D01*
X54045708Y-24280041D01*
X54050023Y-24259308D01*
X54053708Y-24215145D01*
X54056469Y-24153146D01*
X54058012Y-24078909D01*
X54058235Y-24040706D01*
X54058457Y-23820783D01*
X54104166Y-23804849D01*
X54136518Y-23794015D01*
X54154115Y-23788962D01*
X54154623Y-23788914D01*
X54156388Y-23802648D01*
X54158329Y-23840730D01*
X54160282Y-23898482D01*
X54162084Y-23971227D01*
X54163343Y-24039286D01*
X54167314Y-24289657D01*
X54254400Y-24289657D01*
X54258396Y-24061240D01*
X54262392Y-23832822D01*
X54304847Y-23810868D01*
X54336192Y-23795793D01*
X54354744Y-23788951D01*
X54355279Y-23788914D01*
X54357833Y-23802663D01*
G36*
X53768117Y-23909358D02*
G01*
X53767933Y-24017837D01*
X53767219Y-24101287D01*
X53765675Y-24163704D01*
X53763001Y-24209085D01*
X53758894Y-24241429D01*
X53753055Y-24264733D01*
X53745182Y-24282995D01*
X53739221Y-24293418D01*
X53689855Y-24349945D01*
X53627264Y-24385377D01*
X53558013Y-24398090D01*
X53488668Y-24386463D01*
X53447375Y-24365568D01*
X53404025Y-24329422D01*
X53374481Y-24285276D01*
X53356655Y-24227462D01*
X53348463Y-24150313D01*
X53347302Y-24093714D01*
X53347458Y-24089647D01*
X53448857Y-24089647D01*
X53449476Y-24154550D01*
X53452314Y-24197514D01*
X53458840Y-24225622D01*
X53470523Y-24245953D01*
X53484483Y-24261288D01*
X53531365Y-24290890D01*
X53581701Y-24293419D01*
X53629276Y-24268705D01*
X53632979Y-24265356D01*
X53648783Y-24247935D01*
X53658693Y-24227209D01*
X53664058Y-24196362D01*
X53666228Y-24148577D01*
X53666571Y-24095748D01*
X53665827Y-24029381D01*
X53662748Y-23985106D01*
X53656061Y-23956009D01*
X53644496Y-23935173D01*
X53635013Y-23924107D01*
X53590960Y-23896198D01*
X53540224Y-23892843D01*
X53491796Y-23914159D01*
X53482450Y-23922073D01*
X53466540Y-23939647D01*
X53456610Y-23960587D01*
X53451278Y-23991782D01*
X53449163Y-24040122D01*
X53448857Y-24089647D01*
X53347458Y-24089647D01*
X53350810Y-24002568D01*
X53362726Y-23934086D01*
X53385135Y-23882600D01*
X53420124Y-23842443D01*
X53447375Y-23821861D01*
X53496907Y-23799625D01*
X53554316Y-23789304D01*
X53607682Y-23792067D01*
X53637543Y-23803212D01*
X53649261Y-23806383D01*
X53657037Y-23794557D01*
X53662465Y-23762866D01*
X53666571Y-23714593D01*
X53671067Y-23660829D01*
X53677313Y-23628482D01*
X53688676Y-23609985D01*
X53708528Y-23597770D01*
X53721000Y-23592362D01*
X53768171Y-23572601D01*
X53768117Y-23909358D01*
G37*
X53768117Y-23909358D02*
X53767933Y-24017837D01*
X53767219Y-24101287D01*
X53765675Y-24163704D01*
X53763001Y-24209085D01*
X53758894Y-24241429D01*
X53753055Y-24264733D01*
X53745182Y-24282995D01*
X53739221Y-24293418D01*
X53689855Y-24349945D01*
X53627264Y-24385377D01*
X53558013Y-24398090D01*
X53488668Y-24386463D01*
X53447375Y-24365568D01*
X53404025Y-24329422D01*
X53374481Y-24285276D01*
X53356655Y-24227462D01*
X53348463Y-24150313D01*
X53347302Y-24093714D01*
X53347458Y-24089647D01*
X53448857Y-24089647D01*
X53449476Y-24154550D01*
X53452314Y-24197514D01*
X53458840Y-24225622D01*
X53470523Y-24245953D01*
X53484483Y-24261288D01*
X53531365Y-24290890D01*
X53581701Y-24293419D01*
X53629276Y-24268705D01*
X53632979Y-24265356D01*
X53648783Y-24247935D01*
X53658693Y-24227209D01*
X53664058Y-24196362D01*
X53666228Y-24148577D01*
X53666571Y-24095748D01*
X53665827Y-24029381D01*
X53662748Y-23985106D01*
X53656061Y-23956009D01*
X53644496Y-23935173D01*
X53635013Y-23924107D01*
X53590960Y-23896198D01*
X53540224Y-23892843D01*
X53491796Y-23914159D01*
X53482450Y-23922073D01*
X53466540Y-23939647D01*
X53456610Y-23960587D01*
X53451278Y-23991782D01*
X53449163Y-24040122D01*
X53448857Y-24089647D01*
X53347458Y-24089647D01*
X53350810Y-24002568D01*
X53362726Y-23934086D01*
X53385135Y-23882600D01*
X53420124Y-23842443D01*
X53447375Y-23821861D01*
X53496907Y-23799625D01*
X53554316Y-23789304D01*
X53607682Y-23792067D01*
X53637543Y-23803212D01*
X53649261Y-23806383D01*
X53657037Y-23794557D01*
X53662465Y-23762866D01*
X53666571Y-23714593D01*
X53671067Y-23660829D01*
X53677313Y-23628482D01*
X53688676Y-23609985D01*
X53708528Y-23597770D01*
X53721000Y-23592362D01*
X53768171Y-23572601D01*
X53768117Y-23909358D01*
G36*
X53107926Y-23793755D02*
G01*
X53173858Y-23818084D01*
X53227273Y-23861117D01*
X53248164Y-23891409D01*
X53270939Y-23946994D01*
X53270466Y-23987186D01*
X53246562Y-24014217D01*
X53237717Y-24018813D01*
X53199530Y-24033144D01*
X53180028Y-24029472D01*
X53173422Y-24005407D01*
X53173086Y-23992114D01*
X53160992Y-23943210D01*
X53129471Y-23908999D01*
X53085659Y-23892476D01*
X53036695Y-23896634D01*
X52996894Y-23918227D01*
X52983450Y-23930544D01*
X52973921Y-23945487D01*
X52967485Y-23968075D01*
X52963317Y-24003328D01*
X52960597Y-24056266D01*
X52958502Y-24131907D01*
X52957960Y-24155857D01*
X52955981Y-24237790D01*
X52953731Y-24295455D01*
X52950357Y-24333608D01*
X52945006Y-24357004D01*
X52936824Y-24370398D01*
X52924959Y-24378545D01*
X52917362Y-24382144D01*
X52885102Y-24394452D01*
X52866111Y-24398514D01*
X52859836Y-24384948D01*
X52856006Y-24343934D01*
X52854600Y-24274999D01*
X52855598Y-24177669D01*
X52855908Y-24162657D01*
X52858101Y-24073859D01*
X52860693Y-24009019D01*
X52864382Y-23963067D01*
X52869864Y-23930935D01*
X52877835Y-23907553D01*
X52888993Y-23887852D01*
X52894830Y-23879410D01*
X52928296Y-23842057D01*
X52965727Y-23813003D01*
X52970309Y-23810467D01*
X53037426Y-23790443D01*
X53107926Y-23793755D01*
G37*
X53107926Y-23793755D02*
X53173858Y-23818084D01*
X53227273Y-23861117D01*
X53248164Y-23891409D01*
X53270939Y-23946994D01*
X53270466Y-23987186D01*
X53246562Y-24014217D01*
X53237717Y-24018813D01*
X53199530Y-24033144D01*
X53180028Y-24029472D01*
X53173422Y-24005407D01*
X53173086Y-23992114D01*
X53160992Y-23943210D01*
X53129471Y-23908999D01*
X53085659Y-23892476D01*
X53036695Y-23896634D01*
X52996894Y-23918227D01*
X52983450Y-23930544D01*
X52973921Y-23945487D01*
X52967485Y-23968075D01*
X52963317Y-24003328D01*
X52960597Y-24056266D01*
X52958502Y-24131907D01*
X52957960Y-24155857D01*
X52955981Y-24237790D01*
X52953731Y-24295455D01*
X52950357Y-24333608D01*
X52945006Y-24357004D01*
X52936824Y-24370398D01*
X52924959Y-24378545D01*
X52917362Y-24382144D01*
X52885102Y-24394452D01*
X52866111Y-24398514D01*
X52859836Y-24384948D01*
X52856006Y-24343934D01*
X52854600Y-24274999D01*
X52855598Y-24177669D01*
X52855908Y-24162657D01*
X52858101Y-24073859D01*
X52860693Y-24009019D01*
X52864382Y-23963067D01*
X52869864Y-23930935D01*
X52877835Y-23907553D01*
X52888993Y-23887852D01*
X52894830Y-23879410D01*
X52928296Y-23842057D01*
X52965727Y-23813003D01*
X52970309Y-23810467D01*
X53037426Y-23790443D01*
X53107926Y-23793755D01*
G36*
X52617744Y-23794968D02*
G01*
X52674616Y-23816087D01*
X52675267Y-23816493D01*
X52710440Y-23842380D01*
X52736407Y-23872633D01*
X52754670Y-23912058D01*
X52766732Y-23965462D01*
X52774096Y-24037651D01*
X52778264Y-24133432D01*
X52778629Y-24147078D01*
X52783876Y-24352842D01*
X52739716Y-24375678D01*
X52707763Y-24391110D01*
X52688470Y-24398423D01*
X52687578Y-24398514D01*
X52684239Y-24385022D01*
X52681587Y-24348626D01*
X52679956Y-24295452D01*
X52679600Y-24252393D01*
X52679592Y-24182641D01*
X52676403Y-24138837D01*
X52665288Y-24117944D01*
X52641501Y-24116925D01*
X52600296Y-24132741D01*
X52538086Y-24161815D01*
X52492341Y-24185963D01*
X52468813Y-24206913D01*
X52461896Y-24229747D01*
X52461886Y-24230877D01*
X52473299Y-24270212D01*
X52507092Y-24291462D01*
X52558809Y-24294539D01*
X52596061Y-24294006D01*
X52615703Y-24304735D01*
X52627952Y-24330505D01*
X52635002Y-24363337D01*
X52624842Y-24381966D01*
X52621017Y-24384632D01*
X52585001Y-24395340D01*
X52534566Y-24396856D01*
X52482626Y-24389759D01*
X52445822Y-24376788D01*
X52394938Y-24333585D01*
X52366014Y-24273446D01*
X52360286Y-24226462D01*
X52364657Y-24184082D01*
X52380475Y-24149488D01*
X52411797Y-24118763D01*
X52462678Y-24087990D01*
X52537176Y-24053252D01*
X52541714Y-24051288D01*
X52608821Y-24020287D01*
X52650232Y-23994862D01*
X52667981Y-23972014D01*
X52664107Y-23948745D01*
X52640643Y-23922056D01*
X52633627Y-23915914D01*
X52586630Y-23892100D01*
X52537933Y-23893103D01*
X52495522Y-23916451D01*
X52467384Y-23959675D01*
X52464769Y-23968160D01*
X52439308Y-24009308D01*
X52407001Y-24029128D01*
X52360286Y-24048770D01*
X52360286Y-23997950D01*
X52374496Y-23924082D01*
X52416675Y-23856327D01*
X52438624Y-23833661D01*
X52488517Y-23804569D01*
X52551967Y-23791400D01*
X52617744Y-23794968D01*
G37*
X52617744Y-23794968D02*
X52674616Y-23816087D01*
X52675267Y-23816493D01*
X52710440Y-23842380D01*
X52736407Y-23872633D01*
X52754670Y-23912058D01*
X52766732Y-23965462D01*
X52774096Y-24037651D01*
X52778264Y-24133432D01*
X52778629Y-24147078D01*
X52783876Y-24352842D01*
X52739716Y-24375678D01*
X52707763Y-24391110D01*
X52688470Y-24398423D01*
X52687578Y-24398514D01*
X52684239Y-24385022D01*
X52681587Y-24348626D01*
X52679956Y-24295452D01*
X52679600Y-24252393D01*
X52679592Y-24182641D01*
X52676403Y-24138837D01*
X52665288Y-24117944D01*
X52641501Y-24116925D01*
X52600296Y-24132741D01*
X52538086Y-24161815D01*
X52492341Y-24185963D01*
X52468813Y-24206913D01*
X52461896Y-24229747D01*
X52461886Y-24230877D01*
X52473299Y-24270212D01*
X52507092Y-24291462D01*
X52558809Y-24294539D01*
X52596061Y-24294006D01*
X52615703Y-24304735D01*
X52627952Y-24330505D01*
X52635002Y-24363337D01*
X52624842Y-24381966D01*
X52621017Y-24384632D01*
X52585001Y-24395340D01*
X52534566Y-24396856D01*
X52482626Y-24389759D01*
X52445822Y-24376788D01*
X52394938Y-24333585D01*
X52366014Y-24273446D01*
X52360286Y-24226462D01*
X52364657Y-24184082D01*
X52380475Y-24149488D01*
X52411797Y-24118763D01*
X52462678Y-24087990D01*
X52537176Y-24053252D01*
X52541714Y-24051288D01*
X52608821Y-24020287D01*
X52650232Y-23994862D01*
X52667981Y-23972014D01*
X52664107Y-23948745D01*
X52640643Y-23922056D01*
X52633627Y-23915914D01*
X52586630Y-23892100D01*
X52537933Y-23893103D01*
X52495522Y-23916451D01*
X52467384Y-23959675D01*
X52464769Y-23968160D01*
X52439308Y-24009308D01*
X52407001Y-24029128D01*
X52360286Y-24048770D01*
X52360286Y-23997950D01*
X52374496Y-23924082D01*
X52416675Y-23856327D01*
X52438624Y-23833661D01*
X52488517Y-23804569D01*
X52551967Y-23791400D01*
X52617744Y-23794968D01*
G36*
X51953886Y-23695289D02*
G01*
X51958139Y-23754613D01*
X51963025Y-23789572D01*
X51969795Y-23804820D01*
X51979702Y-23805015D01*
X51982914Y-23803195D01*
X52025644Y-23790015D01*
X52081227Y-23790785D01*
X52137737Y-23804333D01*
X52173082Y-23821861D01*
X52209321Y-23849861D01*
X52235813Y-23881549D01*
X52253999Y-23921813D01*
X52265322Y-23975543D01*
X52271222Y-24047626D01*
X52273143Y-24142951D01*
X52273177Y-24161237D01*
X52273200Y-24366646D01*
X52227491Y-24382580D01*
X52195027Y-24393420D01*
X52177215Y-24398468D01*
X52176691Y-24398514D01*
X52174937Y-24384828D01*
X52173444Y-24347076D01*
X52172326Y-24290224D01*
X52171697Y-24219234D01*
X52171600Y-24176073D01*
X52171398Y-24090973D01*
X52170358Y-24029981D01*
X52167831Y-23988177D01*
X52163164Y-23960642D01*
X52155707Y-23942456D01*
X52144811Y-23928698D01*
X52138007Y-23922073D01*
X52091272Y-23895375D01*
X52040272Y-23893375D01*
X51994001Y-23915955D01*
X51985444Y-23924107D01*
X51972893Y-23939436D01*
X51964188Y-23957618D01*
X51958631Y-23983909D01*
X51955526Y-24023562D01*
X51954176Y-24081832D01*
X51953886Y-24162173D01*
X51953886Y-24366646D01*
X51908177Y-24382580D01*
X51875713Y-24393420D01*
X51857901Y-24398468D01*
X51857377Y-24398514D01*
X51856037Y-24384623D01*
X51854828Y-24345439D01*
X51853801Y-24284700D01*
X51853002Y-24206141D01*
X51852481Y-24113498D01*
X51852286Y-24010509D01*
X51852286Y-23613342D01*
X51899457Y-23593444D01*
X51946629Y-23573547D01*
X51953886Y-23695289D01*
G37*
X51953886Y-23695289D02*
X51958139Y-23754613D01*
X51963025Y-23789572D01*
X51969795Y-23804820D01*
X51979702Y-23805015D01*
X51982914Y-23803195D01*
X52025644Y-23790015D01*
X52081227Y-23790785D01*
X52137737Y-23804333D01*
X52173082Y-23821861D01*
X52209321Y-23849861D01*
X52235813Y-23881549D01*
X52253999Y-23921813D01*
X52265322Y-23975543D01*
X52271222Y-24047626D01*
X52273143Y-24142951D01*
X52273177Y-24161237D01*
X52273200Y-24366646D01*
X52227491Y-24382580D01*
X52195027Y-24393420D01*
X52177215Y-24398468D01*
X52176691Y-24398514D01*
X52174937Y-24384828D01*
X52173444Y-24347076D01*
X52172326Y-24290224D01*
X52171697Y-24219234D01*
X52171600Y-24176073D01*
X52171398Y-24090973D01*
X52170358Y-24029981D01*
X52167831Y-23988177D01*
X52163164Y-23960642D01*
X52155707Y-23942456D01*
X52144811Y-23928698D01*
X52138007Y-23922073D01*
X52091272Y-23895375D01*
X52040272Y-23893375D01*
X51994001Y-23915955D01*
X51985444Y-23924107D01*
X51972893Y-23939436D01*
X51964188Y-23957618D01*
X51958631Y-23983909D01*
X51955526Y-24023562D01*
X51954176Y-24081832D01*
X51953886Y-24162173D01*
X51953886Y-24366646D01*
X51908177Y-24382580D01*
X51875713Y-24393420D01*
X51857901Y-24398468D01*
X51857377Y-24398514D01*
X51856037Y-24384623D01*
X51854828Y-24345439D01*
X51853801Y-24284700D01*
X51853002Y-24206141D01*
X51852481Y-24113498D01*
X51852286Y-24010509D01*
X51852286Y-23613342D01*
X51899457Y-23593444D01*
X51946629Y-23573547D01*
X51953886Y-23695289D01*
G36*
X50746303Y-23775239D02*
G01*
X50803527Y-23813735D01*
X50847749Y-23869335D01*
X50874167Y-23940086D01*
X50879510Y-23992162D01*
X50878903Y-24013893D01*
X50873822Y-24030531D01*
X50859855Y-24045437D01*
X50832589Y-24061973D01*
X50787612Y-24083498D01*
X50720511Y-24113374D01*
X50720171Y-24113524D01*
X50658407Y-24141813D01*
X50607759Y-24166933D01*
X50573404Y-24186179D01*
X50560518Y-24196848D01*
X50560514Y-24196934D01*
X50571872Y-24220166D01*
X50598431Y-24245774D01*
X50628923Y-24264221D01*
X50644370Y-24267886D01*
X50686515Y-24255212D01*
X50722808Y-24223471D01*
X50740517Y-24188572D01*
X50757552Y-24162845D01*
X50790922Y-24133546D01*
X50830149Y-24108235D01*
X50864756Y-24094471D01*
X50871993Y-24093714D01*
X50880139Y-24106160D01*
X50880630Y-24137972D01*
X50874643Y-24180866D01*
X50863357Y-24226558D01*
X50847950Y-24266761D01*
X50847171Y-24268322D01*
X50800804Y-24333062D01*
X50740711Y-24377097D01*
X50672465Y-24398711D01*
X50601638Y-24396185D01*
X50533804Y-24367804D01*
X50530788Y-24365808D01*
X50477427Y-24317448D01*
X50442340Y-24254352D01*
X50422922Y-24171387D01*
X50420316Y-24148078D01*
X50415701Y-24038055D01*
X50421233Y-23986748D01*
X50560514Y-23986748D01*
X50562324Y-24018753D01*
X50572222Y-24028093D01*
X50596898Y-24021105D01*
X50635795Y-24004587D01*
X50679275Y-23983881D01*
X50680356Y-23983333D01*
X50717209Y-23963949D01*
X50732000Y-23951013D01*
X50728353Y-23937451D01*
X50712995Y-23919632D01*
X50673923Y-23893845D01*
X50631846Y-23891950D01*
X50594103Y-23910717D01*
X50568034Y-23946915D01*
X50560514Y-23986748D01*
X50421233Y-23986748D01*
X50425194Y-23950027D01*
X50449550Y-23880212D01*
X50483456Y-23831302D01*
X50544653Y-23781878D01*
X50612063Y-23757359D01*
X50680880Y-23755797D01*
X50746303Y-23775239D01*
G37*
X50746303Y-23775239D02*
X50803527Y-23813735D01*
X50847749Y-23869335D01*
X50874167Y-23940086D01*
X50879510Y-23992162D01*
X50878903Y-24013893D01*
X50873822Y-24030531D01*
X50859855Y-24045437D01*
X50832589Y-24061973D01*
X50787612Y-24083498D01*
X50720511Y-24113374D01*
X50720171Y-24113524D01*
X50658407Y-24141813D01*
X50607759Y-24166933D01*
X50573404Y-24186179D01*
X50560518Y-24196848D01*
X50560514Y-24196934D01*
X50571872Y-24220166D01*
X50598431Y-24245774D01*
X50628923Y-24264221D01*
X50644370Y-24267886D01*
X50686515Y-24255212D01*
X50722808Y-24223471D01*
X50740517Y-24188572D01*
X50757552Y-24162845D01*
X50790922Y-24133546D01*
X50830149Y-24108235D01*
X50864756Y-24094471D01*
X50871993Y-24093714D01*
X50880139Y-24106160D01*
X50880630Y-24137972D01*
X50874643Y-24180866D01*
X50863357Y-24226558D01*
X50847950Y-24266761D01*
X50847171Y-24268322D01*
X50800804Y-24333062D01*
X50740711Y-24377097D01*
X50672465Y-24398711D01*
X50601638Y-24396185D01*
X50533804Y-24367804D01*
X50530788Y-24365808D01*
X50477427Y-24317448D01*
X50442340Y-24254352D01*
X50422922Y-24171387D01*
X50420316Y-24148078D01*
X50415701Y-24038055D01*
X50421233Y-23986748D01*
X50560514Y-23986748D01*
X50562324Y-24018753D01*
X50572222Y-24028093D01*
X50596898Y-24021105D01*
X50635795Y-24004587D01*
X50679275Y-23983881D01*
X50680356Y-23983333D01*
X50717209Y-23963949D01*
X50732000Y-23951013D01*
X50728353Y-23937451D01*
X50712995Y-23919632D01*
X50673923Y-23893845D01*
X50631846Y-23891950D01*
X50594103Y-23910717D01*
X50568034Y-23946915D01*
X50560514Y-23986748D01*
X50421233Y-23986748D01*
X50425194Y-23950027D01*
X50449550Y-23880212D01*
X50483456Y-23831302D01*
X50544653Y-23781878D01*
X50612063Y-23757359D01*
X50680880Y-23755797D01*
X50746303Y-23775239D01*
G36*
X49619115Y-23765962D02*
G01*
X49687145Y-23801733D01*
X49737351Y-23859301D01*
X49755185Y-23896312D01*
X49769063Y-23951882D01*
X49776167Y-24022096D01*
X49776840Y-24098727D01*
X49771427Y-24173552D01*
X49760270Y-24238342D01*
X49743714Y-24284873D01*
X49738626Y-24292887D01*
X49678355Y-24352707D01*
X49606769Y-24388535D01*
X49529092Y-24399020D01*
X49450548Y-24382810D01*
X49428689Y-24373092D01*
X49386122Y-24343143D01*
X49348763Y-24303433D01*
X49345232Y-24298397D01*
X49330881Y-24274124D01*
X49321394Y-24248178D01*
X49315790Y-24214022D01*
X49313086Y-24165119D01*
X49312299Y-24094935D01*
X49312286Y-24079200D01*
X49312322Y-24074192D01*
X49457429Y-24074192D01*
X49458273Y-24140430D01*
X49461596Y-24184386D01*
X49468583Y-24212779D01*
X49480416Y-24232325D01*
X49486457Y-24238857D01*
X49521186Y-24263680D01*
X49554903Y-24262548D01*
X49588995Y-24241016D01*
X49609329Y-24218029D01*
X49621371Y-24184478D01*
X49628134Y-24131569D01*
X49628598Y-24125399D01*
X49629752Y-24029513D01*
X49617688Y-23958299D01*
X49592570Y-23912194D01*
X49554560Y-23891635D01*
X49540992Y-23890514D01*
X49505364Y-23896152D01*
X49480994Y-23915686D01*
X49466093Y-23953042D01*
X49458875Y-24012150D01*
X49457429Y-24074192D01*
X49312322Y-24074192D01*
X49312826Y-24004413D01*
X49315096Y-23952159D01*
X49320068Y-23915949D01*
X49328713Y-23889299D01*
X49342005Y-23865722D01*
X49344943Y-23861338D01*
X49394313Y-23802249D01*
X49448109Y-23767947D01*
X49513602Y-23754331D01*
X49535842Y-23753665D01*
X49619115Y-23765962D01*
G37*
X49619115Y-23765962D02*
X49687145Y-23801733D01*
X49737351Y-23859301D01*
X49755185Y-23896312D01*
X49769063Y-23951882D01*
X49776167Y-24022096D01*
X49776840Y-24098727D01*
X49771427Y-24173552D01*
X49760270Y-24238342D01*
X49743714Y-24284873D01*
X49738626Y-24292887D01*
X49678355Y-24352707D01*
X49606769Y-24388535D01*
X49529092Y-24399020D01*
X49450548Y-24382810D01*
X49428689Y-24373092D01*
X49386122Y-24343143D01*
X49348763Y-24303433D01*
X49345232Y-24298397D01*
X49330881Y-24274124D01*
X49321394Y-24248178D01*
X49315790Y-24214022D01*
X49313086Y-24165119D01*
X49312299Y-24094935D01*
X49312286Y-24079200D01*
X49312322Y-24074192D01*
X49457429Y-24074192D01*
X49458273Y-24140430D01*
X49461596Y-24184386D01*
X49468583Y-24212779D01*
X49480416Y-24232325D01*
X49486457Y-24238857D01*
X49521186Y-24263680D01*
X49554903Y-24262548D01*
X49588995Y-24241016D01*
X49609329Y-24218029D01*
X49621371Y-24184478D01*
X49628134Y-24131569D01*
X49628598Y-24125399D01*
X49629752Y-24029513D01*
X49617688Y-23958299D01*
X49592570Y-23912194D01*
X49554560Y-23891635D01*
X49540992Y-23890514D01*
X49505364Y-23896152D01*
X49480994Y-23915686D01*
X49466093Y-23953042D01*
X49458875Y-24012150D01*
X49457429Y-24074192D01*
X49312322Y-24074192D01*
X49312826Y-24004413D01*
X49315096Y-23952159D01*
X49320068Y-23915949D01*
X49328713Y-23889299D01*
X49342005Y-23865722D01*
X49344943Y-23861338D01*
X49394313Y-23802249D01*
X49448109Y-23767947D01*
X49513602Y-23754331D01*
X49535842Y-23753665D01*
X49619115Y-23765962D01*
G36*
X51294093Y-23771780D02*
G01*
X51340672Y-23798723D01*
X51373057Y-23825466D01*
X51396742Y-23853484D01*
X51413059Y-23887748D01*
X51423339Y-23933227D01*
X51428914Y-23994892D01*
X51431116Y-24077711D01*
X51431371Y-24137246D01*
X51431371Y-24356391D01*
X51369686Y-24384044D01*
X51308000Y-24411697D01*
X51300743Y-24171670D01*
X51297744Y-24082028D01*
X51294598Y-24016962D01*
X51290701Y-23972026D01*
X51285447Y-23942770D01*
X51278231Y-23924748D01*
X51268450Y-23913511D01*
X51265312Y-23911079D01*
X51217761Y-23892083D01*
X51169697Y-23899600D01*
X51141086Y-23919543D01*
X51129447Y-23933675D01*
X51121391Y-23952220D01*
X51116271Y-23980334D01*
X51113441Y-24023173D01*
X51112256Y-24085895D01*
X51112057Y-24151261D01*
X51112018Y-24233268D01*
X51110614Y-24291316D01*
X51105914Y-24330465D01*
X51095987Y-24355780D01*
X51078903Y-24372323D01*
X51052732Y-24385156D01*
X51017775Y-24398491D01*
X50979596Y-24413007D01*
X50984141Y-24155389D01*
X50985971Y-24062519D01*
X50988112Y-23993889D01*
X50991181Y-23944711D01*
X50995794Y-23910198D01*
X51002568Y-23885562D01*
X51012119Y-23866016D01*
X51023634Y-23848770D01*
X51079190Y-23793680D01*
X51146980Y-23761822D01*
X51220713Y-23754191D01*
X51294093Y-23771780D01*
G37*
X51294093Y-23771780D02*
X51340672Y-23798723D01*
X51373057Y-23825466D01*
X51396742Y-23853484D01*
X51413059Y-23887748D01*
X51423339Y-23933227D01*
X51428914Y-23994892D01*
X51431116Y-24077711D01*
X51431371Y-24137246D01*
X51431371Y-24356391D01*
X51369686Y-24384044D01*
X51308000Y-24411697D01*
X51300743Y-24171670D01*
X51297744Y-24082028D01*
X51294598Y-24016962D01*
X51290701Y-23972026D01*
X51285447Y-23942770D01*
X51278231Y-23924748D01*
X51268450Y-23913511D01*
X51265312Y-23911079D01*
X51217761Y-23892083D01*
X51169697Y-23899600D01*
X51141086Y-23919543D01*
X51129447Y-23933675D01*
X51121391Y-23952220D01*
X51116271Y-23980334D01*
X51113441Y-24023173D01*
X51112256Y-24085895D01*
X51112057Y-24151261D01*
X51112018Y-24233268D01*
X51110614Y-24291316D01*
X51105914Y-24330465D01*
X51095987Y-24355780D01*
X51078903Y-24372323D01*
X51052732Y-24385156D01*
X51017775Y-24398491D01*
X50979596Y-24413007D01*
X50984141Y-24155389D01*
X50985971Y-24062519D01*
X50988112Y-23993889D01*
X50991181Y-23944711D01*
X50995794Y-23910198D01*
X51002568Y-23885562D01*
X51012119Y-23866016D01*
X51023634Y-23848770D01*
X51079190Y-23793680D01*
X51146980Y-23761822D01*
X51220713Y-23754191D01*
X51294093Y-23771780D01*
G36*
X50177744Y-23763918D02*
G01*
X50233201Y-23791568D01*
X50282148Y-23842480D01*
X50295629Y-23861338D01*
X50310314Y-23886015D01*
X50319842Y-23912816D01*
X50325293Y-23948587D01*
X50327747Y-24000169D01*
X50328286Y-24068267D01*
X50325852Y-24161588D01*
X50317394Y-24231657D01*
X50301174Y-24283931D01*
X50275454Y-24323869D01*
X50238497Y-24356929D01*
X50235782Y-24358886D01*
X50199360Y-24378908D01*
X50155502Y-24388815D01*
X50099724Y-24391257D01*
X50009048Y-24391257D01*
X50009010Y-24479283D01*
X50008166Y-24528308D01*
X50003024Y-24557065D01*
X49989587Y-24574311D01*
X49963858Y-24588808D01*
X49957679Y-24591769D01*
X49928764Y-24605648D01*
X49906376Y-24614414D01*
X49889729Y-24615171D01*
X49878036Y-24605023D01*
X49870510Y-24581073D01*
X49866366Y-24540426D01*
X49864815Y-24480186D01*
X49865071Y-24397455D01*
X49866349Y-24289339D01*
X49866748Y-24257000D01*
X49868185Y-24145524D01*
X49869472Y-24072603D01*
X50008971Y-24072603D01*
X50009755Y-24134499D01*
X50013240Y-24174997D01*
X50021124Y-24201708D01*
X50035105Y-24222244D01*
X50044597Y-24232260D01*
X50083404Y-24261567D01*
X50117763Y-24263952D01*
X50153216Y-24239750D01*
X50154114Y-24238857D01*
X50168539Y-24220153D01*
X50177313Y-24194732D01*
X50181739Y-24155584D01*
X50183118Y-24095697D01*
X50183143Y-24082430D01*
X50179812Y-23999901D01*
X50168969Y-23942691D01*
X50149340Y-23907766D01*
X50119650Y-23892094D01*
X50102491Y-23890514D01*
X50061766Y-23897926D01*
X50033832Y-23922330D01*
X50017017Y-23966980D01*
X50009650Y-24035130D01*
X50008971Y-24072603D01*
X49869472Y-24072603D01*
X49869708Y-24059245D01*
X49871677Y-23994333D01*
X49874450Y-23946958D01*
X49878388Y-23913290D01*
X49883849Y-23889498D01*
X49891192Y-23871753D01*
X49900777Y-23856224D01*
X49904887Y-23850381D01*
X49959405Y-23795185D01*
X50028336Y-23763890D01*
X50108072Y-23755165D01*
X50177744Y-23763918D01*
G37*
X50177744Y-23763918D02*
X50233201Y-23791568D01*
X50282148Y-23842480D01*
X50295629Y-23861338D01*
X50310314Y-23886015D01*
X50319842Y-23912816D01*
X50325293Y-23948587D01*
X50327747Y-24000169D01*
X50328286Y-24068267D01*
X50325852Y-24161588D01*
X50317394Y-24231657D01*
X50301174Y-24283931D01*
X50275454Y-24323869D01*
X50238497Y-24356929D01*
X50235782Y-24358886D01*
X50199360Y-24378908D01*
X50155502Y-24388815D01*
X50099724Y-24391257D01*
X50009048Y-24391257D01*
X50009010Y-24479283D01*
X50008166Y-24528308D01*
X50003024Y-24557065D01*
X49989587Y-24574311D01*
X49963858Y-24588808D01*
X49957679Y-24591769D01*
X49928764Y-24605648D01*
X49906376Y-24614414D01*
X49889729Y-24615171D01*
X49878036Y-24605023D01*
X49870510Y-24581073D01*
X49866366Y-24540426D01*
X49864815Y-24480186D01*
X49865071Y-24397455D01*
X49866349Y-24289339D01*
X49866748Y-24257000D01*
X49868185Y-24145524D01*
X49869472Y-24072603D01*
X50008971Y-24072603D01*
X50009755Y-24134499D01*
X50013240Y-24174997D01*
X50021124Y-24201708D01*
X50035105Y-24222244D01*
X50044597Y-24232260D01*
X50083404Y-24261567D01*
X50117763Y-24263952D01*
X50153216Y-24239750D01*
X50154114Y-24238857D01*
X50168539Y-24220153D01*
X50177313Y-24194732D01*
X50181739Y-24155584D01*
X50183118Y-24095697D01*
X50183143Y-24082430D01*
X50179812Y-23999901D01*
X50168969Y-23942691D01*
X50149340Y-23907766D01*
X50119650Y-23892094D01*
X50102491Y-23890514D01*
X50061766Y-23897926D01*
X50033832Y-23922330D01*
X50017017Y-23966980D01*
X50009650Y-24035130D01*
X50008971Y-24072603D01*
X49869472Y-24072603D01*
X49869708Y-24059245D01*
X49871677Y-23994333D01*
X49874450Y-23946958D01*
X49878388Y-23913290D01*
X49883849Y-23889498D01*
X49891192Y-23871753D01*
X49900777Y-23856224D01*
X49904887Y-23850381D01*
X49959405Y-23795185D01*
X50028336Y-23763890D01*
X50108072Y-23755165D01*
X50177744Y-23763918D01*
M02*
