G04 #@! TF.GenerationSoftware,KiCad,Pcbnew,(5.0.2)-1*
G04 #@! TF.CreationDate,2020-01-06T18:58:30+05:30*
G04 #@! TF.ProjectId,ergocape,6572676f-6361-4706-952e-6b696361645f,rev?*
G04 #@! TF.SameCoordinates,Original*
G04 #@! TF.FileFunction,Other,ECO2*
%FSLAX46Y46*%
G04 Gerber Fmt 4.6, Leading zero omitted, Abs format (unit mm)*
G04 Created by KiCad (PCBNEW (5.0.2)-1) date 1/6/2020 6:58:30 PM*
%MOMM*%
%LPD*%
G01*
G04 APERTURE LIST*
%ADD10C,0.152400*%
G04 APERTURE END LIST*
D10*
G04 #@! TO.C,K_TAB1*
X67310000Y-51752500D02*
X53340000Y-51752500D01*
X53340000Y-51752500D02*
X53340000Y-65722500D01*
X53340000Y-65722500D02*
X67310000Y-65722500D01*
X67310000Y-65722500D02*
X67310000Y-51752500D01*
G04 #@! TO.C,K_TH_1U_2*
X180369966Y-135725330D02*
X193031085Y-141629307D01*
X193031085Y-141629307D02*
X187127108Y-154290426D01*
X187127108Y-154290426D02*
X174465989Y-148386449D01*
X174465989Y-148386449D02*
X180369966Y-135725330D01*
G04 #@! TO.C,K_2*
X96202500Y-28892500D02*
X110172500Y-28892500D01*
X110172500Y-28892500D02*
X110172500Y-42862500D01*
X110172500Y-42862500D02*
X96202500Y-42862500D01*
X96202500Y-42862500D02*
X96202500Y-28892500D01*
G04 #@! TO.C,K_3*
X115252500Y-39052500D02*
X115252500Y-25082500D01*
X129222500Y-39052500D02*
X115252500Y-39052500D01*
X129222500Y-25082500D02*
X129222500Y-39052500D01*
X115252500Y-25082500D02*
X129222500Y-25082500D01*
G04 #@! TO.C,K_4*
X134302500Y-28892500D02*
X148272500Y-28892500D01*
X148272500Y-28892500D02*
X148272500Y-42862500D01*
X148272500Y-42862500D02*
X134302500Y-42862500D01*
X134302500Y-42862500D02*
X134302500Y-28892500D01*
G04 #@! TO.C,K_5*
X153352500Y-32702500D02*
X167322500Y-32702500D01*
X167322500Y-32702500D02*
X167322500Y-46672500D01*
X167322500Y-46672500D02*
X153352500Y-46672500D01*
X153352500Y-46672500D02*
X153352500Y-32702500D01*
G04 #@! TO.C,K_A1*
X77152500Y-70802500D02*
X91122500Y-70802500D01*
X91122500Y-70802500D02*
X91122500Y-84772500D01*
X91122500Y-84772500D02*
X77152500Y-84772500D01*
X77152500Y-84772500D02*
X77152500Y-70802500D01*
G04 #@! TO.C,K_ALT1*
X77152500Y-122872500D02*
X77152500Y-108902500D01*
X91122500Y-122872500D02*
X77152500Y-122872500D01*
X91122500Y-108902500D02*
X91122500Y-122872500D01*
X77152500Y-108902500D02*
X91122500Y-108902500D01*
G04 #@! TO.C,K_B1*
X153352500Y-103822500D02*
X153352500Y-89852500D01*
X167322500Y-103822500D02*
X153352500Y-103822500D01*
X167322500Y-89852500D02*
X167322500Y-103822500D01*
X153352500Y-89852500D02*
X167322500Y-89852500D01*
G04 #@! TO.C,K_BOT_1U_1*
X115189000Y-115189000D02*
X115189000Y-101219000D01*
X129159000Y-115189000D02*
X115189000Y-115189000D01*
X129159000Y-101219000D02*
X129159000Y-115189000D01*
X115189000Y-101219000D02*
X129159000Y-101219000D01*
G04 #@! TO.C,K_BOT_1U_2*
X134239000Y-118999000D02*
X134239000Y-105029000D01*
X148209000Y-118999000D02*
X134239000Y-118999000D01*
X148209000Y-105029000D02*
X148209000Y-118999000D01*
X134239000Y-105029000D02*
X148209000Y-105029000D01*
G04 #@! TO.C,K_C1*
X115252500Y-82232500D02*
X129222500Y-82232500D01*
X129222500Y-82232500D02*
X129222500Y-96202500D01*
X129222500Y-96202500D02*
X115252500Y-96202500D01*
X115252500Y-96202500D02*
X115252500Y-82232500D01*
G04 #@! TO.C,K_CAPS1*
X50958750Y-70802500D02*
X64928750Y-70802500D01*
X64928750Y-70802500D02*
X64928750Y-84772500D01*
X64928750Y-84772500D02*
X50958750Y-84772500D01*
X50958750Y-84772500D02*
X50958750Y-70802500D01*
G04 #@! TO.C,K_CTRL1*
X58102500Y-122872500D02*
X58102500Y-108902500D01*
X72072500Y-122872500D02*
X58102500Y-122872500D01*
X72072500Y-108902500D02*
X72072500Y-122872500D01*
X58102500Y-108902500D02*
X72072500Y-108902500D01*
G04 #@! TO.C,K_D1*
X115252500Y-63182500D02*
X129222500Y-63182500D01*
X129222500Y-63182500D02*
X129222500Y-77152500D01*
X129222500Y-77152500D02*
X115252500Y-77152500D01*
X115252500Y-77152500D02*
X115252500Y-63182500D01*
G04 #@! TO.C,K_E1*
X115252500Y-44132500D02*
X129222500Y-44132500D01*
X129222500Y-44132500D02*
X129222500Y-58102500D01*
X129222500Y-58102500D02*
X115252500Y-58102500D01*
X115252500Y-58102500D02*
X115252500Y-44132500D01*
G04 #@! TO.C,K_ENTER_rev_2.25u_1*
X60166250Y-72910700D02*
X60166250Y-70802500D01*
X61791850Y-72910700D02*
X60166250Y-72910700D01*
X61791850Y-72097900D02*
X61791850Y-72910700D01*
X68446650Y-72097900D02*
X61791850Y-72097900D01*
X68446650Y-75501500D02*
X68446650Y-72097900D01*
X69310250Y-75501500D02*
X68446650Y-75501500D01*
X69310250Y-78295500D02*
X69310250Y-75501500D01*
X68446650Y-78295500D02*
X69310250Y-78295500D01*
X68446650Y-84391500D02*
X68446650Y-78295500D01*
X67405250Y-84391500D02*
X68446650Y-84391500D01*
X67405250Y-85559900D02*
X67405250Y-84391500D01*
X62833250Y-85559900D02*
X67405250Y-85559900D01*
X62833250Y-84391500D02*
X62833250Y-85559900D01*
X61791850Y-84391500D02*
X62833250Y-84391500D01*
X61791850Y-83604100D02*
X61791850Y-84391500D01*
X60166250Y-83604100D02*
X61791850Y-83604100D01*
X60166250Y-84772500D02*
X60166250Y-83604100D01*
X46196250Y-84772500D02*
X60166250Y-84772500D01*
X46196250Y-83604100D02*
X46196250Y-84772500D01*
X44570650Y-83604100D02*
X46196250Y-83604100D01*
X44570650Y-84391500D02*
X44570650Y-83604100D01*
X43529250Y-84391500D02*
X44570650Y-84391500D01*
X43529250Y-85559900D02*
X43529250Y-84391500D01*
X38957250Y-85559900D02*
X43529250Y-85559900D01*
X38957250Y-84391500D02*
X38957250Y-85559900D01*
X37915850Y-84391500D02*
X38957250Y-84391500D01*
X37915850Y-78295500D02*
X37915850Y-84391500D01*
X37052250Y-78295500D02*
X37915850Y-78295500D01*
X37052250Y-75501500D02*
X37052250Y-78295500D01*
X37915850Y-75501500D02*
X37052250Y-75501500D01*
X37915850Y-72097900D02*
X37915850Y-75501500D01*
X44570650Y-72097900D02*
X37915850Y-72097900D01*
X44570650Y-72910700D02*
X44570650Y-72097900D01*
X46196250Y-72910700D02*
X44570650Y-72910700D01*
X46196250Y-70802500D02*
X46196250Y-72910700D01*
X60166250Y-70802500D02*
X46196250Y-70802500D01*
G04 #@! TO.C,K_ESC1*
X58102500Y-46672500D02*
X58102500Y-32702500D01*
X72072500Y-46672500D02*
X58102500Y-46672500D01*
X72072500Y-32702500D02*
X72072500Y-46672500D01*
X58102500Y-32702500D02*
X72072500Y-32702500D01*
G04 #@! TO.C,K_F1*
X134302500Y-80962500D02*
X134302500Y-66992500D01*
X148272500Y-80962500D02*
X134302500Y-80962500D01*
X148272500Y-66992500D02*
X148272500Y-80962500D01*
X134302500Y-66992500D02*
X148272500Y-66992500D01*
G04 #@! TO.C,K_G1*
X153352500Y-70802500D02*
X167322500Y-70802500D01*
X167322500Y-70802500D02*
X167322500Y-84772500D01*
X167322500Y-84772500D02*
X153352500Y-84772500D01*
X153352500Y-84772500D02*
X153352500Y-70802500D01*
G04 #@! TO.C,K_Q1*
X77152500Y-65722500D02*
X77152500Y-51752500D01*
X91122500Y-65722500D02*
X77152500Y-65722500D01*
X91122500Y-51752500D02*
X91122500Y-65722500D01*
X77152500Y-51752500D02*
X91122500Y-51752500D01*
G04 #@! TO.C,K_R1*
X134302500Y-61912500D02*
X134302500Y-47942500D01*
X148272500Y-61912500D02*
X134302500Y-61912500D01*
X148272500Y-47942500D02*
X148272500Y-61912500D01*
X134302500Y-47942500D02*
X148272500Y-47942500D01*
G04 #@! TO.C,K_S1*
X96202500Y-80962500D02*
X96202500Y-66992500D01*
X110172500Y-80962500D02*
X96202500Y-80962500D01*
X110172500Y-66992500D02*
X110172500Y-80962500D01*
X96202500Y-66992500D02*
X110172500Y-66992500D01*
G04 #@! TO.C,K_SHIFT1*
X46196250Y-89852500D02*
X60166250Y-89852500D01*
X60166250Y-89852500D02*
X60166250Y-91960700D01*
X60166250Y-91960700D02*
X61791850Y-91960700D01*
X61791850Y-91960700D02*
X61791850Y-91147900D01*
X61791850Y-91147900D02*
X68446650Y-91147900D01*
X68446650Y-91147900D02*
X68446650Y-94551500D01*
X68446650Y-94551500D02*
X69310250Y-94551500D01*
X69310250Y-94551500D02*
X69310250Y-97345500D01*
X69310250Y-97345500D02*
X68446650Y-97345500D01*
X68446650Y-97345500D02*
X68446650Y-103441500D01*
X68446650Y-103441500D02*
X67405250Y-103441500D01*
X67405250Y-103441500D02*
X67405250Y-104609900D01*
X67405250Y-104609900D02*
X62833250Y-104609900D01*
X62833250Y-104609900D02*
X62833250Y-103441500D01*
X62833250Y-103441500D02*
X61791850Y-103441500D01*
X61791850Y-103441500D02*
X61791850Y-102654100D01*
X61791850Y-102654100D02*
X60166250Y-102654100D01*
X60166250Y-102654100D02*
X60166250Y-103822500D01*
X60166250Y-103822500D02*
X46196250Y-103822500D01*
X46196250Y-103822500D02*
X46196250Y-102654100D01*
X46196250Y-102654100D02*
X44570650Y-102654100D01*
X44570650Y-102654100D02*
X44570650Y-103441500D01*
X44570650Y-103441500D02*
X43529250Y-103441500D01*
X43529250Y-103441500D02*
X43529250Y-104609900D01*
X43529250Y-104609900D02*
X38957250Y-104609900D01*
X38957250Y-104609900D02*
X38957250Y-103441500D01*
X38957250Y-103441500D02*
X37915850Y-103441500D01*
X37915850Y-103441500D02*
X37915850Y-97345500D01*
X37915850Y-97345500D02*
X37052250Y-97345500D01*
X37052250Y-97345500D02*
X37052250Y-94551500D01*
X37052250Y-94551500D02*
X37915850Y-94551500D01*
X37915850Y-94551500D02*
X37915850Y-91147900D01*
X37915850Y-91147900D02*
X44570650Y-91147900D01*
X44570650Y-91147900D02*
X44570650Y-91960700D01*
X44570650Y-91960700D02*
X46196250Y-91960700D01*
X46196250Y-91960700D02*
X46196250Y-89852500D01*
G04 #@! TO.C,K_SHIFT_REV_2.75_1*
X55403750Y-89852500D02*
X41433750Y-89852500D01*
X41433750Y-89852500D02*
X41433750Y-91960700D01*
X41433750Y-91960700D02*
X39808150Y-91960700D01*
X39808150Y-91960700D02*
X39808150Y-91147900D01*
X39808150Y-91147900D02*
X33153350Y-91147900D01*
X33153350Y-91147900D02*
X33153350Y-94551500D01*
X33153350Y-94551500D02*
X32289750Y-94551500D01*
X32289750Y-94551500D02*
X32289750Y-97345500D01*
X32289750Y-97345500D02*
X33153350Y-97345500D01*
X33153350Y-97345500D02*
X33153350Y-103441500D01*
X33153350Y-103441500D02*
X34194750Y-103441500D01*
X34194750Y-103441500D02*
X34194750Y-104609900D01*
X34194750Y-104609900D02*
X38766750Y-104609900D01*
X38766750Y-104609900D02*
X38766750Y-103441500D01*
X38766750Y-103441500D02*
X39808150Y-103441500D01*
X39808150Y-103441500D02*
X39808150Y-102654100D01*
X39808150Y-102654100D02*
X41433750Y-102654100D01*
X41433750Y-102654100D02*
X41433750Y-103822500D01*
X41433750Y-103822500D02*
X55403750Y-103822500D01*
X55403750Y-103822500D02*
X55403750Y-102654100D01*
X55403750Y-102654100D02*
X57029350Y-102654100D01*
X57029350Y-102654100D02*
X57029350Y-103441500D01*
X57029350Y-103441500D02*
X58070750Y-103441500D01*
X58070750Y-103441500D02*
X58070750Y-104609900D01*
X58070750Y-104609900D02*
X62642750Y-104609900D01*
X62642750Y-104609900D02*
X62642750Y-103441500D01*
X62642750Y-103441500D02*
X63684150Y-103441500D01*
X63684150Y-103441500D02*
X63684150Y-97345500D01*
X63684150Y-97345500D02*
X64547750Y-97345500D01*
X64547750Y-97345500D02*
X64547750Y-94551500D01*
X64547750Y-94551500D02*
X63684150Y-94551500D01*
X63684150Y-94551500D02*
X63684150Y-91147900D01*
X63684150Y-91147900D02*
X57029350Y-91147900D01*
X57029350Y-91147900D02*
X57029350Y-91960700D01*
X57029350Y-91960700D02*
X55403750Y-91960700D01*
X55403750Y-91960700D02*
X55403750Y-89852500D01*
G04 #@! TO.C,K_T1*
X153352500Y-51752500D02*
X167322500Y-51752500D01*
X167322500Y-51752500D02*
X167322500Y-65722500D01*
X167322500Y-65722500D02*
X153352500Y-65722500D01*
X153352500Y-65722500D02*
X153352500Y-51752500D01*
G04 #@! TO.C,K_TH_1U_1*
X188420845Y-118460167D02*
X201081964Y-124364144D01*
X201081964Y-124364144D02*
X195177987Y-137025263D01*
X195177987Y-137025263D02*
X182516868Y-131121286D01*
X182516868Y-131121286D02*
X188420845Y-118460167D01*
G04 #@! TO.C,K_V1*
X134302500Y-86042500D02*
X148272500Y-86042500D01*
X148272500Y-86042500D02*
X148272500Y-100012500D01*
X148272500Y-100012500D02*
X134302500Y-100012500D01*
X134302500Y-100012500D02*
X134302500Y-86042500D01*
G04 #@! TO.C,K_W1*
X96202500Y-47942500D02*
X110172500Y-47942500D01*
X110172500Y-47942500D02*
X110172500Y-61912500D01*
X110172500Y-61912500D02*
X96202500Y-61912500D01*
X96202500Y-61912500D02*
X96202500Y-47942500D01*
G04 #@! TO.C,K_WIN1*
X96202500Y-105092500D02*
X110172500Y-105092500D01*
X110172500Y-105092500D02*
X110172500Y-119062500D01*
X110172500Y-119062500D02*
X96202500Y-119062500D01*
X96202500Y-119062500D02*
X96202500Y-105092500D01*
G04 #@! TO.C,K_X1*
X96202500Y-100012500D02*
X96202500Y-86042500D01*
X110172500Y-100012500D02*
X96202500Y-100012500D01*
X110172500Y-86042500D02*
X110172500Y-100012500D01*
X96202500Y-86042500D02*
X110172500Y-86042500D01*
G04 #@! TO.C,K_Z1*
X77152500Y-103822500D02*
X77152500Y-89852500D01*
X91122500Y-103822500D02*
X77152500Y-103822500D01*
X91122500Y-89852500D02*
X91122500Y-103822500D01*
X77152500Y-89852500D02*
X91122500Y-89852500D01*
G04 #@! TO.C,K_1*
X77152500Y-32702500D02*
X91122500Y-32702500D01*
X91122500Y-32702500D02*
X91122500Y-46672500D01*
X91122500Y-46672500D02*
X77152500Y-46672500D01*
X77152500Y-46672500D02*
X77152500Y-32702500D01*
G04 #@! TO.C,K_THUMB_1U_4*
X171143472Y-110397436D02*
X183804591Y-116301413D01*
X183804591Y-116301413D02*
X177900614Y-128962532D01*
X177900614Y-128962532D02*
X165239495Y-123058555D01*
X165239495Y-123058555D02*
X171143472Y-110397436D01*
G04 #@! TO.C,K_THUMB_1U_3*
X169849736Y-146227695D02*
X157188617Y-140323718D01*
X157188617Y-140323718D02*
X163092594Y-127662599D01*
X163092594Y-127662599D02*
X175753713Y-133566576D01*
X175753713Y-133566576D02*
X169849736Y-146227695D01*
G04 #@! TO.C,K_THUMB_2U1*
X179791361Y-124945849D02*
X173887384Y-137606968D01*
X173887384Y-137606968D02*
X171976706Y-136716005D01*
X171976706Y-136716005D02*
X171289698Y-138189299D01*
X171289698Y-138189299D02*
X172026345Y-138532803D01*
X172026345Y-138532803D02*
X169213905Y-144564100D01*
X169213905Y-144564100D02*
X166129196Y-143125676D01*
X166129196Y-143125676D02*
X165764223Y-143908364D01*
X165764223Y-143908364D02*
X163231999Y-142727568D01*
X163231999Y-142727568D02*
X163596972Y-141944881D01*
X163596972Y-141944881D02*
X158072120Y-139368600D01*
X158072120Y-139368600D02*
X158512234Y-138424771D01*
X158512234Y-138424771D02*
X157453304Y-137930984D01*
X157453304Y-137930984D02*
X159385515Y-133787345D01*
X159385515Y-133787345D02*
X160444445Y-134281132D01*
X160444445Y-134281132D02*
X160884560Y-133337303D01*
X160884560Y-133337303D02*
X161598186Y-133670072D01*
X161598186Y-133670072D02*
X162285195Y-132196779D01*
X162285195Y-132196779D02*
X161226265Y-131702991D01*
X161226265Y-131702991D02*
X167130242Y-119041872D01*
X167130242Y-119041872D02*
X168189172Y-119535659D01*
X168189172Y-119535659D02*
X168876180Y-118062365D01*
X168876180Y-118062365D02*
X168162553Y-117729595D01*
X168162553Y-117729595D02*
X168602668Y-116785766D01*
X168602668Y-116785766D02*
X167543738Y-116291979D01*
X167543738Y-116291979D02*
X169475949Y-112148340D01*
X169475949Y-112148340D02*
X170534879Y-112642127D01*
X170534879Y-112642127D02*
X170974993Y-111698298D01*
X170974993Y-111698298D02*
X176499845Y-114274579D01*
X176499845Y-114274579D02*
X176864819Y-113491892D01*
X176864819Y-113491892D02*
X179397043Y-114672687D01*
X179397043Y-114672687D02*
X179032069Y-115455374D01*
X179032069Y-115455374D02*
X182116779Y-116893798D01*
X182116779Y-116893798D02*
X179304339Y-122925095D01*
X179304339Y-122925095D02*
X178567692Y-122581591D01*
X178567692Y-122581591D02*
X177880683Y-124054885D01*
X177880683Y-124054885D02*
X179791361Y-124945849D01*
G04 #@! TD*
M02*
