M48
;DRILL file {KiCad (5.0.2)-1} date 1/6/2020 6:58:34 PM
;FORMAT={-:-/ absolute / inch / decimal}
FMAT,2
INCH,TZ
T1C0.0118
T2C0.0157
T3C0.0236
T4C0.0300
T5C0.0394
T6C0.0591
T7C0.0600
T8C0.0984
%
G90
G05
T1
X2.3625Y-1.385
X1.875Y-1.495
X5.205Y-0.82
X3.48Y-1.035
X5.13Y-2.89
T2
X1.07Y-1.64
X1.07Y-1.68
X1.785Y-2.575
X1.8086Y-1.9564
X1.815Y-2.525
X1.855Y-1.955
X1.865Y-2.52
X1.905Y-1.955
X2.015Y-0.99
X2.105Y-1.615
X2.205Y-2.475
X2.245Y-2.555
X2.26Y-2.34
X2.305Y-2.525
X2.89Y-2.73
X2.905Y-2.685
X2.965Y-2.22
X3.025Y-3.45
X3.315Y-1.05
X3.3475Y-1.22
X3.4Y-1.035
X3.52Y-1.2425
X3.575Y-1.0475
X3.665Y-1.0475
X3.705Y-2.075
X3.765Y-2.73
X3.7764Y-1.1539
X5.29Y-2.6925
X6.1425Y-1.125
X6.1475Y-0.925
X6.1525Y-0.805
T4
X6.7771Y-5.2191
X6.8419Y-5.2218
X6.8821Y-4.994
X6.9258Y-5.0419
T5
X3.0965Y-3.4062
X3.4035Y-3.4062
X2.875Y-3.6277
X2.875Y-3.9348
X2.9375Y-4.3777
X2.9375Y-4.6848
X5.3777Y-3.2563
X5.6848Y-3.2563
X5.18Y-4.0865
X5.18Y-4.3935
X3.6875Y-4.3777
X3.6875Y-4.6848
X5.3777Y-4.0062
X5.6848Y-4.0062
X4.6277Y-3.1062
X4.9348Y-3.1062
X3.1277Y-2.6562
X3.4348Y-2.6562
X7.2106Y-5.3318
X7.489Y-5.4615
X7.2599Y-5.2334
X7.5382Y-5.3631
X3.8777Y-2.5063
X4.1848Y-2.5063
X7.1728Y-5.011
X7.3026Y-4.7326
X3.0965Y-4.1562
X3.4035Y-4.1562
X6.084Y-2.625
X6.391Y-2.625
X6.1277Y-1.9062
X6.4348Y-1.9062
X4.6415Y-2.355
X4.9485Y-2.355
X2.2215Y-2.6562
X2.5285Y-2.6562
X4.659Y-1.6062
X4.966Y-1.6062
X6.1277Y-3.4062
X6.4348Y-3.4062
X5.95Y-4.2565
X5.95Y-4.5635
X6.1277Y-4.1562
X6.4348Y-4.1562
X2.3777Y-1.9062
X2.6848Y-1.9062
X3.8777Y-1.7562
X4.1848Y-1.7562
X3.8777Y-4.0062
X4.1848Y-4.0062
X3.8777Y-3.2563
X4.1848Y-3.2563
X4.6277Y-3.8562
X4.9348Y-3.8562
X4.4375Y-4.259
X4.4375Y-4.566
X3.1277Y-1.9062
X3.4348Y-1.9062
X5.409Y-2.5063
X5.716Y-2.5063
X2.875Y-2.8777
X2.875Y-3.1848
X6.2541Y-4.9574
X6.3839Y-4.6791
X5.3777Y-1.7562
X5.6848Y-1.7562
T6
X6.1625Y-1.4625
X6.2125Y-1.3625
X6.2141Y-1.3853
X6.2141Y-1.405
X6.4109Y-1.3853
X6.4109Y-1.405
X6.4125Y-1.3625
X6.4625Y-1.4625
X3.1625Y-1.4625
X3.2125Y-1.3625
X3.2141Y-1.3853
X3.2141Y-1.405
X3.4109Y-1.3853
X3.4109Y-1.405
X3.4125Y-1.3625
X3.4625Y-1.4625
X4.6625Y-1.9125
X4.7125Y-1.8125
X4.7141Y-1.8353
X4.7141Y-1.855
X4.9109Y-1.8353
X4.9109Y-1.855
X4.9125Y-1.8125
X4.9625Y-1.9125
X3.9125Y-2.0625
X3.9625Y-1.9625
X3.9641Y-1.9853
X3.9641Y-2.005
X4.1609Y-1.9853
X4.1609Y-2.005
X4.1625Y-1.9625
X4.2125Y-2.0625
X3.9125Y-4.3125
X3.9625Y-4.2125
X3.9641Y-4.2353
X3.9641Y-4.255
X4.1609Y-4.2353
X4.1609Y-4.255
X4.1625Y-4.2125
X4.2125Y-4.3125
X5.4125Y-1.3125
X5.4625Y-1.2125
X5.4641Y-1.2353
X5.4641Y-1.255
X5.6609Y-1.2353
X5.6609Y-1.255
X5.6625Y-1.2125
X5.7125Y-1.3125
X4.6625Y-2.6625
X4.7125Y-2.5625
X4.7141Y-2.5853
X4.7141Y-2.605
X4.9109Y-2.5853
X4.9109Y-2.605
X4.9125Y-2.5625
X4.9625Y-2.6625
X5.41Y-4.31
X5.46Y-4.21
X5.4616Y-4.2328
X5.4616Y-4.2525
X5.6584Y-4.2328
X5.6584Y-4.2525
X5.66Y-4.21
X5.71Y-4.31
X4.6625Y-1.1625
X4.7125Y-1.0625
X4.7141Y-1.0853
X4.7141Y-1.105
X4.9109Y-1.0853
X4.9109Y-1.105
X4.9125Y-1.0625
X4.9625Y-1.1625
X5.4125Y-2.0625
X5.4625Y-1.9625
X5.4641Y-1.9853
X5.4641Y-2.005
X5.6609Y-1.9853
X5.6609Y-2.005
X5.6625Y-1.9625
X5.7125Y-2.0625
X2.4125Y-4.4625
X2.4625Y-4.3625
X2.4641Y-4.3853
X2.4641Y-4.405
X2.6609Y-4.3853
X2.6609Y-4.405
X2.6625Y-4.3625
X2.7125Y-4.4625
X3.1625Y-2.9625
X3.2125Y-2.8625
X3.2141Y-2.8853
X3.2141Y-2.905
X3.4109Y-2.8853
X3.4109Y-2.905
X3.4125Y-2.8625
X3.4625Y-2.9625
X3.1625Y-2.2125
X3.2125Y-2.1125
X3.2141Y-2.1353
X3.2141Y-2.155
X3.4109Y-2.1353
X3.4109Y-2.155
X3.4125Y-2.1125
X3.4625Y-2.2125
X2.225Y-2.2125
X2.275Y-2.1125
X2.2766Y-2.1353
X2.2766Y-2.155
X2.4734Y-2.1353
X2.4734Y-2.155
X2.475Y-2.1125
X2.525Y-2.2125
X7.1405Y-5.5549
X7.2115Y-5.5246
X7.2199Y-5.5068
X7.2281Y-5.4854
X7.39Y-5.6078
X7.3983Y-5.59
X7.4093Y-5.57
X7.4124Y-5.6817
X3.9125Y-3.5625
X3.9625Y-3.4625
X3.9641Y-3.4853
X3.9641Y-3.505
X4.1609Y-3.4853
X4.1609Y-3.505
X4.1625Y-3.4625
X4.2125Y-3.5625
X3.9125Y-1.3125
X3.9625Y-1.2125
X3.9641Y-1.2353
X3.9641Y-1.255
X4.1609Y-1.2353
X4.1609Y-1.255
X4.1625Y-1.2125
X4.2125Y-1.3125
X4.6625Y-3.4125
X4.7125Y-3.3125
X4.7141Y-3.3353
X4.7141Y-3.355
X4.9109Y-3.3353
X4.9109Y-3.355
X4.9125Y-3.3125
X4.9625Y-3.4125
X6.1625Y-2.9625
X6.2125Y-2.8625
X6.2141Y-2.8853
X6.2141Y-2.905
X6.4109Y-2.8853
X6.4109Y-2.905
X6.4125Y-2.8625
X6.4625Y-2.9625
X6.7773Y-4.5578
X6.8483Y-4.5275
X6.8566Y-4.5096
X6.8648Y-4.4883
X7.0267Y-4.6107
X7.035Y-4.5928
X7.0461Y-4.5728
X7.0492Y-4.6846
X3.1625Y-4.4625
X3.2125Y-4.3625
X3.2141Y-4.3853
X3.2141Y-4.405
X3.4109Y-4.3853
X3.4109Y-4.405
X3.4125Y-4.3625
X3.4625Y-4.4625
X3.1625Y-3.7125
X3.2125Y-3.6125
X3.2141Y-3.6353
X3.2141Y-3.655
X3.4109Y-3.6353
X3.4109Y-3.655
X3.4125Y-3.6125
X3.4625Y-3.7125
X4.66Y-4.16
X4.71Y-4.06
X4.7116Y-4.0828
X4.7116Y-4.1025
X4.9084Y-4.0828
X4.9084Y-4.1025
X4.91Y-4.06
X4.96Y-4.16
X3.9125Y-2.8125
X3.9625Y-2.7125
X3.9641Y-2.7353
X3.9641Y-2.755
X4.1609Y-2.7353
X4.1609Y-2.755
X4.1625Y-2.7125
X4.2125Y-2.8125
X6.3758Y-5.4188
X6.3788Y-5.5305
X6.3899Y-5.5105
X6.3982Y-5.4927
X6.5601Y-5.6151
X6.5683Y-5.5937
X6.5766Y-5.5759
X6.6477Y-5.5456
X6.1625Y-2.2125
X6.2125Y-2.1125
X6.2141Y-2.1353
X6.2141Y-2.155
X6.4109Y-2.1353
X6.4109Y-2.155
X6.4125Y-2.1125
X6.4625Y-2.2125
X7.4575Y-4.8752
X7.5285Y-4.8449
X7.5368Y-4.8271
X7.5451Y-4.8057
X7.7069Y-4.9281
X7.7152Y-4.9103
X7.7263Y-4.8902
X7.7294Y-5.002
X5.4125Y-3.5625
X5.4625Y-3.4625
X5.4641Y-3.4853
X5.4641Y-3.505
X5.6609Y-3.4853
X5.6609Y-3.505
X5.6625Y-3.4625
X5.7125Y-3.5625
X6.1625Y-3.7125
X6.2125Y-3.6125
X6.2141Y-3.6353
X6.2141Y-3.655
X6.4109Y-3.6353
X6.4109Y-3.655
X6.4125Y-3.6125
X6.4625Y-3.7125
X5.4125Y-2.8125
X5.4625Y-2.7125
X5.4641Y-2.7353
X5.4641Y-2.755
X5.6609Y-2.7353
X5.6609Y-2.755
X5.6625Y-2.7125
X5.7125Y-2.8125
X2.4125Y-1.4625
X2.4625Y-1.3625
X2.4641Y-1.3853
X2.4641Y-1.405
X2.6609Y-1.3853
X2.6609Y-1.405
X2.6625Y-1.3625
X2.7125Y-1.4625
T7
X6.7402Y-5.2304
X6.8141Y-5.2079
X6.8319Y-5.2162
X6.8519Y-5.2273
X6.867Y-4.9585
X6.8973Y-5.0295
X6.9151Y-5.0378
X6.9365Y-5.046
T8
X6.58Y-2.6875
X7.065Y-5.225
X4.4575Y-2.3875
X1.6Y-4.5325
X4.4325Y-4.875
X6.5825Y-0.8075
X1.01Y-2.6975
X5.9575Y-4.79
X1.0125Y-0.805
X4.43Y-0.805
T3
X3.3149Y-0.7256G85X3.3149Y-0.7492
G05
X3.3149Y-0.8803G85X3.3149Y-0.9236
G05
X3.6551Y-0.7256G85X3.6551Y-0.7492
G05
X3.6551Y-0.8803G85X3.6551Y-0.9236
G05
T6
X2.1632Y-2.905G85X2.1312Y-2.9625
G05
X2.3812Y-2.8625G85X2.3797Y-2.8853
G05
X1.9757Y-3.655G85X1.9437Y-3.7125
G05
X2.1937Y-3.6125G85X2.1922Y-3.6353
G05
X1.8078Y-3.6353G85X1.8063Y-3.6125
G05
X2.0563Y-3.7125G85X2.0243Y-3.655
G05
X1.9953Y-2.8853G85X1.9938Y-2.8625
G05
X2.2438Y-2.9625G85X2.2118Y-2.905
G05
T0
M30
