G04 #@! TF.GenerationSoftware,KiCad,Pcbnew,(5.0.2)-1*
G04 #@! TF.CreationDate,2020-01-06T18:58:30+05:30*
G04 #@! TF.ProjectId,ergocape,6572676f-6361-4706-952e-6b696361645f,rev?*
G04 #@! TF.SameCoordinates,Original*
G04 #@! TF.FileFunction,Other,Comment*
%FSLAX46Y46*%
G04 Gerber Fmt 4.6, Leading zero omitted, Abs format (unit mm)*
G04 Created by KiCad (PCBNEW (5.0.2)-1) date 1/6/2020 6:58:30 PM*
%MOMM*%
%LPD*%
G01*
G04 APERTURE LIST*
%ADD10C,0.152400*%
G04 APERTURE END LIST*
D10*
G04 #@! TO.C,K_TAB1*
X66675000Y-52387500D02*
X53975000Y-52387500D01*
X53975000Y-52387500D02*
X53975000Y-65087500D01*
X53975000Y-65087500D02*
X66675000Y-65087500D01*
X66675000Y-65087500D02*
X66675000Y-52387500D01*
G04 #@! TO.C,K_TH_1U_2*
X180677109Y-136569198D02*
X192187217Y-141936450D01*
X192187217Y-141936450D02*
X186819965Y-153446558D01*
X186819965Y-153446558D02*
X175309857Y-148079306D01*
X175309857Y-148079306D02*
X180677109Y-136569198D01*
G04 #@! TO.C,K_2*
X96837500Y-29527500D02*
X109537500Y-29527500D01*
X109537500Y-29527500D02*
X109537500Y-42227500D01*
X109537500Y-42227500D02*
X96837500Y-42227500D01*
X96837500Y-42227500D02*
X96837500Y-29527500D01*
G04 #@! TO.C,K_3*
X115887500Y-38417500D02*
X115887500Y-25717500D01*
X128587500Y-38417500D02*
X115887500Y-38417500D01*
X128587500Y-25717500D02*
X128587500Y-38417500D01*
X115887500Y-25717500D02*
X128587500Y-25717500D01*
G04 #@! TO.C,K_4*
X134937500Y-29527500D02*
X147637500Y-29527500D01*
X147637500Y-29527500D02*
X147637500Y-42227500D01*
X147637500Y-42227500D02*
X134937500Y-42227500D01*
X134937500Y-42227500D02*
X134937500Y-29527500D01*
G04 #@! TO.C,K_5*
X153987500Y-33337500D02*
X166687500Y-33337500D01*
X166687500Y-33337500D02*
X166687500Y-46037500D01*
X166687500Y-46037500D02*
X153987500Y-46037500D01*
X153987500Y-46037500D02*
X153987500Y-33337500D01*
G04 #@! TO.C,K_A1*
X77787500Y-71437500D02*
X90487500Y-71437500D01*
X90487500Y-71437500D02*
X90487500Y-84137500D01*
X90487500Y-84137500D02*
X77787500Y-84137500D01*
X77787500Y-84137500D02*
X77787500Y-71437500D01*
G04 #@! TO.C,K_ALT1*
X77787500Y-122237500D02*
X77787500Y-109537500D01*
X90487500Y-122237500D02*
X77787500Y-122237500D01*
X90487500Y-109537500D02*
X90487500Y-122237500D01*
X77787500Y-109537500D02*
X90487500Y-109537500D01*
G04 #@! TO.C,K_B1*
X153987500Y-103187500D02*
X153987500Y-90487500D01*
X166687500Y-103187500D02*
X153987500Y-103187500D01*
X166687500Y-90487500D02*
X166687500Y-103187500D01*
X153987500Y-90487500D02*
X166687500Y-90487500D01*
G04 #@! TO.C,K_BOT_1U_1*
X115824000Y-114554000D02*
X115824000Y-101854000D01*
X128524000Y-114554000D02*
X115824000Y-114554000D01*
X128524000Y-101854000D02*
X128524000Y-114554000D01*
X115824000Y-101854000D02*
X128524000Y-101854000D01*
G04 #@! TO.C,K_BOT_1U_2*
X134874000Y-118364000D02*
X134874000Y-105664000D01*
X147574000Y-118364000D02*
X134874000Y-118364000D01*
X147574000Y-105664000D02*
X147574000Y-118364000D01*
X134874000Y-105664000D02*
X147574000Y-105664000D01*
G04 #@! TO.C,K_C1*
X115887500Y-82867500D02*
X128587500Y-82867500D01*
X128587500Y-82867500D02*
X128587500Y-95567500D01*
X128587500Y-95567500D02*
X115887500Y-95567500D01*
X115887500Y-95567500D02*
X115887500Y-82867500D01*
G04 #@! TO.C,K_CAPS1*
X51593750Y-71437500D02*
X64293750Y-71437500D01*
X64293750Y-71437500D02*
X64293750Y-84137500D01*
X64293750Y-84137500D02*
X51593750Y-84137500D01*
X51593750Y-84137500D02*
X51593750Y-71437500D01*
G04 #@! TO.C,K_CTRL1*
X58737500Y-122237500D02*
X58737500Y-109537500D01*
X71437500Y-122237500D02*
X58737500Y-122237500D01*
X71437500Y-109537500D02*
X71437500Y-122237500D01*
X58737500Y-109537500D02*
X71437500Y-109537500D01*
G04 #@! TO.C,K_D1*
X115887500Y-63817500D02*
X128587500Y-63817500D01*
X128587500Y-63817500D02*
X128587500Y-76517500D01*
X128587500Y-76517500D02*
X115887500Y-76517500D01*
X115887500Y-76517500D02*
X115887500Y-63817500D01*
G04 #@! TO.C,K_E1*
X115887500Y-44767500D02*
X128587500Y-44767500D01*
X128587500Y-44767500D02*
X128587500Y-57467500D01*
X128587500Y-57467500D02*
X115887500Y-57467500D01*
X115887500Y-57467500D02*
X115887500Y-44767500D01*
G04 #@! TO.C,K_ENTER_rev_2.25u_1*
X37814250Y-87947500D02*
X37814250Y-70167500D01*
X68548250Y-87947500D02*
X37814250Y-87947500D01*
X68548250Y-70167500D02*
X68548250Y-87947500D01*
X61690250Y-70167500D02*
X68548250Y-70167500D01*
X61690250Y-85407500D02*
X61690250Y-70167500D01*
X44672250Y-85407500D02*
X61690250Y-85407500D01*
X44672250Y-70167500D02*
X44672250Y-85407500D01*
X37814250Y-70167500D02*
X44672250Y-70167500D01*
X59531250Y-84137500D02*
X59531250Y-71437500D01*
X46831250Y-84137500D02*
X59531250Y-84137500D01*
X46831250Y-71437500D02*
X46831250Y-84137500D01*
X59531250Y-71437500D02*
X46831250Y-71437500D01*
G04 #@! TO.C,K_ESC1*
X58737500Y-46037500D02*
X58737500Y-33337500D01*
X71437500Y-46037500D02*
X58737500Y-46037500D01*
X71437500Y-33337500D02*
X71437500Y-46037500D01*
X58737500Y-33337500D02*
X71437500Y-33337500D01*
G04 #@! TO.C,K_F1*
X134937500Y-80327500D02*
X134937500Y-67627500D01*
X147637500Y-80327500D02*
X134937500Y-80327500D01*
X147637500Y-67627500D02*
X147637500Y-80327500D01*
X134937500Y-67627500D02*
X147637500Y-67627500D01*
G04 #@! TO.C,K_G1*
X153987500Y-71437500D02*
X166687500Y-71437500D01*
X166687500Y-71437500D02*
X166687500Y-84137500D01*
X166687500Y-84137500D02*
X153987500Y-84137500D01*
X153987500Y-84137500D02*
X153987500Y-71437500D01*
G04 #@! TO.C,K_Q1*
X77787500Y-65087500D02*
X77787500Y-52387500D01*
X90487500Y-65087500D02*
X77787500Y-65087500D01*
X90487500Y-52387500D02*
X90487500Y-65087500D01*
X77787500Y-52387500D02*
X90487500Y-52387500D01*
G04 #@! TO.C,K_R1*
X134937500Y-61277500D02*
X134937500Y-48577500D01*
X147637500Y-61277500D02*
X134937500Y-61277500D01*
X147637500Y-48577500D02*
X147637500Y-61277500D01*
X134937500Y-48577500D02*
X147637500Y-48577500D01*
G04 #@! TO.C,K_S1*
X96837500Y-80327500D02*
X96837500Y-67627500D01*
X109537500Y-80327500D02*
X96837500Y-80327500D01*
X109537500Y-67627500D02*
X109537500Y-80327500D01*
X96837500Y-67627500D02*
X109537500Y-67627500D01*
G04 #@! TO.C,K_SHIFT1*
X46831250Y-90487500D02*
X59531250Y-90487500D01*
X59531250Y-90487500D02*
X59531250Y-103187500D01*
X59531250Y-103187500D02*
X46831250Y-103187500D01*
X46831250Y-103187500D02*
X46831250Y-90487500D01*
X68548250Y-89217500D02*
X61690250Y-89217500D01*
X61690250Y-89217500D02*
X61690250Y-104457500D01*
X61690250Y-104457500D02*
X44672250Y-104457500D01*
X44672250Y-104457500D02*
X44672250Y-89217500D01*
X44672250Y-89217500D02*
X37814250Y-89217500D01*
X37814250Y-89217500D02*
X37814250Y-106997500D01*
X37814250Y-106997500D02*
X68548250Y-106997500D01*
X68548250Y-106997500D02*
X68548250Y-89217500D01*
G04 #@! TO.C,K_SHIFT_REV_2.75_1*
X54768750Y-90487500D02*
X42068750Y-90487500D01*
X42068750Y-90487500D02*
X42068750Y-103187500D01*
X42068750Y-103187500D02*
X54768750Y-103187500D01*
X54768750Y-103187500D02*
X54768750Y-90487500D01*
X33051750Y-89217500D02*
X39909750Y-89217500D01*
X39909750Y-89217500D02*
X39909750Y-104457500D01*
X39909750Y-104457500D02*
X56927750Y-104457500D01*
X56927750Y-104457500D02*
X56927750Y-89217500D01*
X56927750Y-89217500D02*
X63785750Y-89217500D01*
X63785750Y-89217500D02*
X63785750Y-106997500D01*
X63785750Y-106997500D02*
X33051750Y-106997500D01*
X33051750Y-106997500D02*
X33051750Y-89217500D01*
G04 #@! TO.C,K_T1*
X153987500Y-52387500D02*
X166687500Y-52387500D01*
X166687500Y-52387500D02*
X166687500Y-65087500D01*
X166687500Y-65087500D02*
X153987500Y-65087500D01*
X153987500Y-65087500D02*
X153987500Y-52387500D01*
G04 #@! TO.C,K_TH_1U_1*
X188727988Y-119304035D02*
X200238096Y-124671287D01*
X200238096Y-124671287D02*
X194870844Y-136181395D01*
X194870844Y-136181395D02*
X183360736Y-130814143D01*
X183360736Y-130814143D02*
X188727988Y-119304035D01*
G04 #@! TO.C,K_V1*
X134937500Y-86677500D02*
X147637500Y-86677500D01*
X147637500Y-86677500D02*
X147637500Y-99377500D01*
X147637500Y-99377500D02*
X134937500Y-99377500D01*
X134937500Y-99377500D02*
X134937500Y-86677500D01*
G04 #@! TO.C,K_W1*
X96837500Y-48577500D02*
X109537500Y-48577500D01*
X109537500Y-48577500D02*
X109537500Y-61277500D01*
X109537500Y-61277500D02*
X96837500Y-61277500D01*
X96837500Y-61277500D02*
X96837500Y-48577500D01*
G04 #@! TO.C,K_WIN1*
X96837500Y-105727500D02*
X109537500Y-105727500D01*
X109537500Y-105727500D02*
X109537500Y-118427500D01*
X109537500Y-118427500D02*
X96837500Y-118427500D01*
X96837500Y-118427500D02*
X96837500Y-105727500D01*
G04 #@! TO.C,K_X1*
X96837500Y-99377500D02*
X96837500Y-86677500D01*
X109537500Y-99377500D02*
X96837500Y-99377500D01*
X109537500Y-86677500D02*
X109537500Y-99377500D01*
X96837500Y-86677500D02*
X109537500Y-86677500D01*
G04 #@! TO.C,K_Z1*
X77787500Y-103187500D02*
X77787500Y-90487500D01*
X90487500Y-103187500D02*
X77787500Y-103187500D01*
X90487500Y-90487500D02*
X90487500Y-103187500D01*
X77787500Y-90487500D02*
X90487500Y-90487500D01*
G04 #@! TO.C,K_1*
X77787500Y-33337500D02*
X90487500Y-33337500D01*
X90487500Y-33337500D02*
X90487500Y-46037500D01*
X90487500Y-46037500D02*
X77787500Y-46037500D01*
X77787500Y-46037500D02*
X77787500Y-33337500D01*
G04 #@! TO.C,K_THUMB_1U_4*
X171450615Y-111241304D02*
X182960723Y-116608556D01*
X182960723Y-116608556D02*
X177593471Y-128118664D01*
X177593471Y-128118664D02*
X166083363Y-122751412D01*
X166083363Y-122751412D02*
X171450615Y-111241304D01*
G04 #@! TO.C,K_THUMB_1U_3*
X169542593Y-145383827D02*
X158032485Y-140016575D01*
X158032485Y-140016575D02*
X163399737Y-128506467D01*
X163399737Y-128506467D02*
X174909845Y-133873719D01*
X174909845Y-133873719D02*
X169542593Y-145383827D01*
G04 #@! TO.C,K_THUMB_2U1*
X178947493Y-125252992D02*
X173580241Y-136763100D01*
X173580241Y-136763100D02*
X162070133Y-131395848D01*
X162070133Y-131395848D02*
X167437385Y-119885740D01*
X167437385Y-119885740D02*
X178947493Y-125252992D01*
X170920504Y-145472003D02*
X173818820Y-139256544D01*
X173818820Y-139256544D02*
X160006689Y-132815842D01*
X160006689Y-132815842D02*
X167198806Y-117392296D01*
X167198806Y-117392296D02*
X181010937Y-123832998D01*
X181010937Y-123832998D02*
X183909253Y-117617539D01*
X183909253Y-117617539D02*
X167795101Y-110103387D01*
X167795101Y-110103387D02*
X154806351Y-137957850D01*
X154806351Y-137957850D02*
X170920504Y-145472003D01*
G04 #@! TD*
M02*
