G04 #@! TF.GenerationSoftware,KiCad,Pcbnew,(5.0.2)-1*
G04 #@! TF.CreationDate,2020-01-03T19:42:31+05:30*
G04 #@! TF.ProjectId,ergocape,6572676f-6361-4706-952e-6b696361645f,rev?*
G04 #@! TF.SameCoordinates,Original*
G04 #@! TF.FileFunction,Profile,NP*
%FSLAX46Y46*%
G04 Gerber Fmt 4.6, Leading zero omitted, Abs format (unit mm)*
G04 Created by KiCad (PCBNEW (5.0.2)-1) date 1/3/2020 7:42:31 PM*
%MOMM*%
%LPD*%
G01*
G04 APERTURE LIST*
%ADD10C,0.150000*%
G04 APERTURE END LIST*
D10*
X157988000Y-17272000D02*
X168402000Y-17272000D01*
X147574000Y-17272000D02*
X157988000Y-17272000D01*
X136906000Y-17272000D02*
X147574000Y-17272000D01*
X127000000Y-17272000D02*
X136906000Y-17272000D01*
X204852770Y-121558610D02*
G75*
G02X205467055Y-123246347I-536726J-1151011D01*
G01*
X204392365Y-121343921D02*
X204852769Y-121558611D01*
X170434000Y-19304000D02*
X170434000Y-105410000D01*
X153365200Y-141833600D02*
X143510000Y-127000000D01*
X153585583Y-141929498D02*
X153355381Y-141822153D01*
X205452980Y-123263660D02*
X189565914Y-157333582D01*
X189577980Y-157304740D02*
G75*
G02X187890244Y-157919026I-1151011J536725D01*
G01*
X153585583Y-141929498D02*
X187885708Y-157923909D01*
X170434000Y-105410000D02*
X204385820Y-121337275D01*
X168402000Y-17272000D02*
G75*
G02X170434000Y-19304000I0J-2032000D01*
G01*
X22352000Y-19558000D02*
G75*
G02X24638000Y-17272000I2286000J0D01*
G01*
X39370000Y-17272000D02*
X24638000Y-17272000D01*
X22352000Y-50800000D02*
X22352000Y-19558000D01*
X127000000Y-17272000D02*
X39370000Y-17272000D01*
X137150000Y-127000000D02*
X143510000Y-127000000D01*
X22352000Y-108966000D02*
X22860000Y-109220000D01*
X22352000Y-106426000D02*
X22352000Y-108966000D01*
X22352000Y-98044000D02*
X22352000Y-106426000D01*
X22352000Y-50800000D02*
X22352000Y-98044000D01*
X55118000Y-127000000D02*
X55880000Y-127000000D01*
X53848000Y-126238000D02*
X55118000Y-127000000D01*
X50800000Y-124460000D02*
X53848000Y-126238000D01*
X55880000Y-127000000D02*
X137160000Y-127000000D01*
X22860000Y-109220000D02*
X50800000Y-124460000D01*
M02*
