G04 #@! TF.GenerationSoftware,KiCad,Pcbnew,(5.1.5)-3*
G04 #@! TF.CreationDate,2020-01-18T14:12:39+05:30*
G04 #@! TF.ProjectId,ergocape,6572676f-6361-4706-952e-6b696361645f,rev?*
G04 #@! TF.SameCoordinates,Original*
G04 #@! TF.FileFunction,Other,Comment*
%FSLAX46Y46*%
G04 Gerber Fmt 4.6, Leading zero omitted, Abs format (unit mm)*
G04 Created by KiCad (PCBNEW (5.1.5)-3) date 2020-01-18 14:12:39*
%MOMM*%
%LPD*%
G04 APERTURE LIST*
%ADD10C,0.150000*%
G04 APERTURE END LIST*
D10*
X170086000Y-107823000D02*
G75*
G03X170086000Y-107823000I-2700000J0D01*
G01*
X42832000Y-20574000D02*
G75*
G03X42832000Y-20574000I-2700000J0D01*
G01*
X42832000Y-60452000D02*
G75*
G03X42832000Y-60452000I-2700000J0D01*
G01*
X115222000Y-20574000D02*
G75*
G03X115222000Y-20574000I-2700000J0D01*
G01*
X182151000Y-132715000D02*
G75*
G03X182151000Y-132715000I-2700000J0D01*
G01*
X115920000Y-60642500D02*
G75*
G03X115920000Y-60642500I-2700000J0D01*
G01*
X43594000Y-114808000D02*
G75*
G03X43594000Y-114808000I-2700000J0D01*
G01*
X115286000Y-123444000D02*
G75*
G03X115286000Y-123444000I-2700000J0D01*
G01*
X169324000Y-20574000D02*
G75*
G03X169324000Y-20574000I-2700000J0D01*
G01*
X50742957Y-40178149D02*
X50742957Y-39178149D01*
X51314386Y-40178149D02*
X50885815Y-39606721D01*
X51314386Y-39178149D02*
X50742957Y-39749578D01*
X51504862Y-40273388D02*
X52266767Y-40273388D01*
X52504862Y-39654340D02*
X52838196Y-39654340D01*
X52981053Y-40178149D02*
X52504862Y-40178149D01*
X52504862Y-39178149D01*
X52981053Y-39178149D01*
X53362005Y-40130530D02*
X53504862Y-40178149D01*
X53742957Y-40178149D01*
X53838196Y-40130530D01*
X53885815Y-40082911D01*
X53933434Y-39987673D01*
X53933434Y-39892435D01*
X53885815Y-39797197D01*
X53838196Y-39749578D01*
X53742957Y-39701959D01*
X53552481Y-39654340D01*
X53457243Y-39606721D01*
X53409624Y-39559102D01*
X53362005Y-39463864D01*
X53362005Y-39368626D01*
X53409624Y-39273388D01*
X53457243Y-39225769D01*
X53552481Y-39178149D01*
X53790577Y-39178149D01*
X53933434Y-39225769D01*
X54933434Y-40082911D02*
X54885815Y-40130530D01*
X54742957Y-40178149D01*
X54647719Y-40178149D01*
X54504862Y-40130530D01*
X54409624Y-40035292D01*
X54362005Y-39940054D01*
X54314386Y-39749578D01*
X54314386Y-39606721D01*
X54362005Y-39416245D01*
X54409624Y-39321007D01*
X54504862Y-39225769D01*
X54647719Y-39178149D01*
X54742957Y-39178149D01*
X54885815Y-39225769D01*
X54933434Y-39273388D01*
X55885815Y-40178149D02*
X55314386Y-40178149D01*
X55600100Y-40178149D02*
X55600100Y-39178149D01*
X55504862Y-39321007D01*
X55409624Y-39416245D01*
X55314386Y-39463864D01*
X166147904Y-104575380D02*
X166147904Y-103575380D01*
X166147904Y-104051571D02*
X166719333Y-104051571D01*
X166719333Y-104575380D02*
X166719333Y-103575380D01*
X167719333Y-104575380D02*
X167147904Y-104575380D01*
X167433619Y-104575380D02*
X167433619Y-103575380D01*
X167338380Y-103718238D01*
X167243142Y-103813476D01*
X167147904Y-103861095D01*
X168100285Y-103670619D02*
X168147904Y-103623000D01*
X168243142Y-103575380D01*
X168481238Y-103575380D01*
X168576476Y-103623000D01*
X168624095Y-103670619D01*
X168671714Y-103765857D01*
X168671714Y-103861095D01*
X168624095Y-104003952D01*
X168052666Y-104575380D01*
X168671714Y-104575380D01*
X38893904Y-17326380D02*
X38893904Y-16326380D01*
X38893904Y-16802571D02*
X39465333Y-16802571D01*
X39465333Y-17326380D02*
X39465333Y-16326380D01*
X40465333Y-17326380D02*
X39893904Y-17326380D01*
X40179619Y-17326380D02*
X40179619Y-16326380D01*
X40084380Y-16469238D01*
X39989142Y-16564476D01*
X39893904Y-16612095D01*
X41417714Y-17326380D02*
X40846285Y-17326380D01*
X41132000Y-17326380D02*
X41132000Y-16326380D01*
X41036761Y-16469238D01*
X40941523Y-16564476D01*
X40846285Y-16612095D01*
X38893904Y-57204380D02*
X38893904Y-56204380D01*
X38893904Y-56680571D02*
X39465333Y-56680571D01*
X39465333Y-57204380D02*
X39465333Y-56204380D01*
X40465333Y-57204380D02*
X39893904Y-57204380D01*
X40179619Y-57204380D02*
X40179619Y-56204380D01*
X40084380Y-56347238D01*
X39989142Y-56442476D01*
X39893904Y-56490095D01*
X41084380Y-56204380D02*
X41179619Y-56204380D01*
X41274857Y-56252000D01*
X41322476Y-56299619D01*
X41370095Y-56394857D01*
X41417714Y-56585333D01*
X41417714Y-56823428D01*
X41370095Y-57013904D01*
X41322476Y-57109142D01*
X41274857Y-57156761D01*
X41179619Y-57204380D01*
X41084380Y-57204380D01*
X40989142Y-57156761D01*
X40941523Y-57109142D01*
X40893904Y-57013904D01*
X40846285Y-56823428D01*
X40846285Y-56585333D01*
X40893904Y-56394857D01*
X40941523Y-56299619D01*
X40989142Y-56252000D01*
X41084380Y-56204380D01*
X111760095Y-17326380D02*
X111760095Y-16326380D01*
X111760095Y-16802571D02*
X112331523Y-16802571D01*
X112331523Y-17326380D02*
X112331523Y-16326380D01*
X112855333Y-17326380D02*
X113045809Y-17326380D01*
X113141047Y-17278761D01*
X113188666Y-17231142D01*
X113283904Y-17088285D01*
X113331523Y-16897809D01*
X113331523Y-16516857D01*
X113283904Y-16421619D01*
X113236285Y-16374000D01*
X113141047Y-16326380D01*
X112950571Y-16326380D01*
X112855333Y-16374000D01*
X112807714Y-16421619D01*
X112760095Y-16516857D01*
X112760095Y-16754952D01*
X112807714Y-16850190D01*
X112855333Y-16897809D01*
X112950571Y-16945428D01*
X113141047Y-16945428D01*
X113236285Y-16897809D01*
X113283904Y-16850190D01*
X113331523Y-16754952D01*
X178689095Y-129467380D02*
X178689095Y-128467380D01*
X178689095Y-128943571D02*
X179260523Y-128943571D01*
X179260523Y-129467380D02*
X179260523Y-128467380D01*
X179879571Y-128895952D02*
X179784333Y-128848333D01*
X179736714Y-128800714D01*
X179689095Y-128705476D01*
X179689095Y-128657857D01*
X179736714Y-128562619D01*
X179784333Y-128515000D01*
X179879571Y-128467380D01*
X180070047Y-128467380D01*
X180165285Y-128515000D01*
X180212904Y-128562619D01*
X180260523Y-128657857D01*
X180260523Y-128705476D01*
X180212904Y-128800714D01*
X180165285Y-128848333D01*
X180070047Y-128895952D01*
X179879571Y-128895952D01*
X179784333Y-128943571D01*
X179736714Y-128991190D01*
X179689095Y-129086428D01*
X179689095Y-129276904D01*
X179736714Y-129372142D01*
X179784333Y-129419761D01*
X179879571Y-129467380D01*
X180070047Y-129467380D01*
X180165285Y-129419761D01*
X180212904Y-129372142D01*
X180260523Y-129276904D01*
X180260523Y-129086428D01*
X180212904Y-128991190D01*
X180165285Y-128943571D01*
X180070047Y-128895952D01*
X112458095Y-57394880D02*
X112458095Y-56394880D01*
X112458095Y-56871071D02*
X113029523Y-56871071D01*
X113029523Y-57394880D02*
X113029523Y-56394880D01*
X113981904Y-56394880D02*
X113505714Y-56394880D01*
X113458095Y-56871071D01*
X113505714Y-56823452D01*
X113600952Y-56775833D01*
X113839047Y-56775833D01*
X113934285Y-56823452D01*
X113981904Y-56871071D01*
X114029523Y-56966309D01*
X114029523Y-57204404D01*
X113981904Y-57299642D01*
X113934285Y-57347261D01*
X113839047Y-57394880D01*
X113600952Y-57394880D01*
X113505714Y-57347261D01*
X113458095Y-57299642D01*
X40132095Y-111560380D02*
X40132095Y-110560380D01*
X40132095Y-111036571D02*
X40703523Y-111036571D01*
X40703523Y-111560380D02*
X40703523Y-110560380D01*
X41084476Y-110560380D02*
X41703523Y-110560380D01*
X41370190Y-110941333D01*
X41513047Y-110941333D01*
X41608285Y-110988952D01*
X41655904Y-111036571D01*
X41703523Y-111131809D01*
X41703523Y-111369904D01*
X41655904Y-111465142D01*
X41608285Y-111512761D01*
X41513047Y-111560380D01*
X41227333Y-111560380D01*
X41132095Y-111512761D01*
X41084476Y-111465142D01*
X111824095Y-120196380D02*
X111824095Y-119196380D01*
X111824095Y-119672571D02*
X112395523Y-119672571D01*
X112395523Y-120196380D02*
X112395523Y-119196380D01*
X112824095Y-119291619D02*
X112871714Y-119244000D01*
X112966952Y-119196380D01*
X113205047Y-119196380D01*
X113300285Y-119244000D01*
X113347904Y-119291619D01*
X113395523Y-119386857D01*
X113395523Y-119482095D01*
X113347904Y-119624952D01*
X112776476Y-120196380D01*
X113395523Y-120196380D01*
X165862095Y-17326380D02*
X165862095Y-16326380D01*
X165862095Y-16802571D02*
X166433523Y-16802571D01*
X166433523Y-17326380D02*
X166433523Y-16326380D01*
X167433523Y-17326380D02*
X166862095Y-17326380D01*
X167147809Y-17326380D02*
X167147809Y-16326380D01*
X167052571Y-16469238D01*
X166957333Y-16564476D01*
X166862095Y-16612095D01*
X83518452Y-40639880D02*
X83518452Y-39639880D01*
X84089880Y-40639880D02*
X83661309Y-40068452D01*
X84089880Y-39639880D02*
X83518452Y-40211309D01*
X84280357Y-40735119D02*
X85042261Y-40735119D01*
X85804166Y-40639880D02*
X85232738Y-40639880D01*
X85518452Y-40639880D02*
X85518452Y-39639880D01*
X85423214Y-39782738D01*
X85327976Y-39877976D01*
X85232738Y-39925595D01*
X102568952Y-36829880D02*
X102568952Y-35829880D01*
X103140380Y-36829880D02*
X102711809Y-36258452D01*
X103140380Y-35829880D02*
X102568952Y-36401309D01*
X103330857Y-36925119D02*
X104092761Y-36925119D01*
X104283238Y-35925119D02*
X104330857Y-35877500D01*
X104426095Y-35829880D01*
X104664190Y-35829880D01*
X104759428Y-35877500D01*
X104807047Y-35925119D01*
X104854666Y-36020357D01*
X104854666Y-36115595D01*
X104807047Y-36258452D01*
X104235619Y-36829880D01*
X104854666Y-36829880D01*
X121618952Y-33019880D02*
X121618952Y-32019880D01*
X122190380Y-33019880D02*
X121761809Y-32448452D01*
X122190380Y-32019880D02*
X121618952Y-32591309D01*
X122380857Y-33115119D02*
X123142761Y-33115119D01*
X123285619Y-32019880D02*
X123904666Y-32019880D01*
X123571333Y-32400833D01*
X123714190Y-32400833D01*
X123809428Y-32448452D01*
X123857047Y-32496071D01*
X123904666Y-32591309D01*
X123904666Y-32829404D01*
X123857047Y-32924642D01*
X123809428Y-32972261D01*
X123714190Y-33019880D01*
X123428476Y-33019880D01*
X123333238Y-32972261D01*
X123285619Y-32924642D01*
X140668952Y-36829880D02*
X140668952Y-35829880D01*
X141240380Y-36829880D02*
X140811809Y-36258452D01*
X141240380Y-35829880D02*
X140668952Y-36401309D01*
X141430857Y-36925119D02*
X142192761Y-36925119D01*
X142859428Y-36163214D02*
X142859428Y-36829880D01*
X142621333Y-35782261D02*
X142383238Y-36496547D01*
X143002285Y-36496547D01*
X159718952Y-40639880D02*
X159718952Y-39639880D01*
X160290380Y-40639880D02*
X159861809Y-40068452D01*
X160290380Y-39639880D02*
X159718952Y-40211309D01*
X160480857Y-40735119D02*
X161242761Y-40735119D01*
X161957047Y-39639880D02*
X161480857Y-39639880D01*
X161433238Y-40116071D01*
X161480857Y-40068452D01*
X161576095Y-40020833D01*
X161814190Y-40020833D01*
X161909428Y-40068452D01*
X161957047Y-40116071D01*
X162004666Y-40211309D01*
X162004666Y-40449404D01*
X161957047Y-40544642D01*
X161909428Y-40592261D01*
X161814190Y-40639880D01*
X161576095Y-40639880D01*
X161480857Y-40592261D01*
X161433238Y-40544642D01*
X83089880Y-78739880D02*
X83089880Y-77739880D01*
X83661309Y-78739880D02*
X83232738Y-78168452D01*
X83661309Y-77739880D02*
X83089880Y-78311309D01*
X83851785Y-78835119D02*
X84613690Y-78835119D01*
X84804166Y-78454166D02*
X85280357Y-78454166D01*
X84708928Y-78739880D02*
X85042261Y-77739880D01*
X85375595Y-78739880D01*
X86232738Y-78739880D02*
X85661309Y-78739880D01*
X85947023Y-78739880D02*
X85947023Y-77739880D01*
X85851785Y-77882738D01*
X85756547Y-77977976D01*
X85661309Y-78025595D01*
X82304166Y-116840380D02*
X82304166Y-115840380D01*
X82875595Y-116840380D02*
X82447023Y-116268952D01*
X82875595Y-115840380D02*
X82304166Y-116411809D01*
X83066071Y-116935619D02*
X83827976Y-116935619D01*
X84018452Y-116554666D02*
X84494642Y-116554666D01*
X83923214Y-116840380D02*
X84256547Y-115840380D01*
X84589880Y-116840380D01*
X85399404Y-116840380D02*
X84923214Y-116840380D01*
X84923214Y-115840380D01*
X85589880Y-115840380D02*
X86161309Y-115840380D01*
X85875595Y-116840380D02*
X85875595Y-115840380D01*
X87018452Y-116840380D02*
X86447023Y-116840380D01*
X86732738Y-116840380D02*
X86732738Y-115840380D01*
X86637500Y-115983238D01*
X86542261Y-116078476D01*
X86447023Y-116126095D01*
X159218952Y-97789880D02*
X159218952Y-96789880D01*
X159790380Y-97789880D02*
X159361809Y-97218452D01*
X159790380Y-96789880D02*
X159218952Y-97361309D01*
X159980857Y-97885119D02*
X160742761Y-97885119D01*
X161314190Y-97266071D02*
X161457047Y-97313690D01*
X161504666Y-97361309D01*
X161552285Y-97456547D01*
X161552285Y-97599404D01*
X161504666Y-97694642D01*
X161457047Y-97742261D01*
X161361809Y-97789880D01*
X160980857Y-97789880D01*
X160980857Y-96789880D01*
X161314190Y-96789880D01*
X161409428Y-96837500D01*
X161457047Y-96885119D01*
X161504666Y-96980357D01*
X161504666Y-97075595D01*
X161457047Y-97170833D01*
X161409428Y-97218452D01*
X161314190Y-97266071D01*
X160980857Y-97266071D01*
X162504666Y-97789880D02*
X161933238Y-97789880D01*
X162218952Y-97789880D02*
X162218952Y-96789880D01*
X162123714Y-96932738D01*
X162028476Y-97027976D01*
X161933238Y-97075595D01*
X118388285Y-109156380D02*
X118388285Y-108156380D01*
X118959714Y-109156380D02*
X118531142Y-108584952D01*
X118959714Y-108156380D02*
X118388285Y-108727809D01*
X119150190Y-109251619D02*
X119912095Y-109251619D01*
X120483523Y-108632571D02*
X120626380Y-108680190D01*
X120674000Y-108727809D01*
X120721619Y-108823047D01*
X120721619Y-108965904D01*
X120674000Y-109061142D01*
X120626380Y-109108761D01*
X120531142Y-109156380D01*
X120150190Y-109156380D01*
X120150190Y-108156380D01*
X120483523Y-108156380D01*
X120578761Y-108204000D01*
X120626380Y-108251619D01*
X120674000Y-108346857D01*
X120674000Y-108442095D01*
X120626380Y-108537333D01*
X120578761Y-108584952D01*
X120483523Y-108632571D01*
X120150190Y-108632571D01*
X121340666Y-108156380D02*
X121531142Y-108156380D01*
X121626380Y-108204000D01*
X121721619Y-108299238D01*
X121769238Y-108489714D01*
X121769238Y-108823047D01*
X121721619Y-109013523D01*
X121626380Y-109108761D01*
X121531142Y-109156380D01*
X121340666Y-109156380D01*
X121245428Y-109108761D01*
X121150190Y-109013523D01*
X121102571Y-108823047D01*
X121102571Y-108489714D01*
X121150190Y-108299238D01*
X121245428Y-108204000D01*
X121340666Y-108156380D01*
X122054952Y-108156380D02*
X122626380Y-108156380D01*
X122340666Y-109156380D02*
X122340666Y-108156380D01*
X122721619Y-109251619D02*
X123483523Y-109251619D01*
X124245428Y-109156380D02*
X123674000Y-109156380D01*
X123959714Y-109156380D02*
X123959714Y-108156380D01*
X123864476Y-108299238D01*
X123769238Y-108394476D01*
X123674000Y-108442095D01*
X124674000Y-108156380D02*
X124674000Y-108965904D01*
X124721619Y-109061142D01*
X124769238Y-109108761D01*
X124864476Y-109156380D01*
X125054952Y-109156380D01*
X125150190Y-109108761D01*
X125197809Y-109061142D01*
X125245428Y-108965904D01*
X125245428Y-108156380D01*
X125483523Y-109251619D02*
X126245428Y-109251619D01*
X127007333Y-109156380D02*
X126435904Y-109156380D01*
X126721619Y-109156380D02*
X126721619Y-108156380D01*
X126626380Y-108299238D01*
X126531142Y-108394476D01*
X126435904Y-108442095D01*
X137438285Y-112966380D02*
X137438285Y-111966380D01*
X138009714Y-112966380D02*
X137581142Y-112394952D01*
X138009714Y-111966380D02*
X137438285Y-112537809D01*
X138200190Y-113061619D02*
X138962095Y-113061619D01*
X139533523Y-112442571D02*
X139676380Y-112490190D01*
X139724000Y-112537809D01*
X139771619Y-112633047D01*
X139771619Y-112775904D01*
X139724000Y-112871142D01*
X139676380Y-112918761D01*
X139581142Y-112966380D01*
X139200190Y-112966380D01*
X139200190Y-111966380D01*
X139533523Y-111966380D01*
X139628761Y-112014000D01*
X139676380Y-112061619D01*
X139724000Y-112156857D01*
X139724000Y-112252095D01*
X139676380Y-112347333D01*
X139628761Y-112394952D01*
X139533523Y-112442571D01*
X139200190Y-112442571D01*
X140390666Y-111966380D02*
X140581142Y-111966380D01*
X140676380Y-112014000D01*
X140771619Y-112109238D01*
X140819238Y-112299714D01*
X140819238Y-112633047D01*
X140771619Y-112823523D01*
X140676380Y-112918761D01*
X140581142Y-112966380D01*
X140390666Y-112966380D01*
X140295428Y-112918761D01*
X140200190Y-112823523D01*
X140152571Y-112633047D01*
X140152571Y-112299714D01*
X140200190Y-112109238D01*
X140295428Y-112014000D01*
X140390666Y-111966380D01*
X141104952Y-111966380D02*
X141676380Y-111966380D01*
X141390666Y-112966380D02*
X141390666Y-111966380D01*
X141771619Y-113061619D02*
X142533523Y-113061619D01*
X143295428Y-112966380D02*
X142724000Y-112966380D01*
X143009714Y-112966380D02*
X143009714Y-111966380D01*
X142914476Y-112109238D01*
X142819238Y-112204476D01*
X142724000Y-112252095D01*
X143724000Y-111966380D02*
X143724000Y-112775904D01*
X143771619Y-112871142D01*
X143819238Y-112918761D01*
X143914476Y-112966380D01*
X144104952Y-112966380D01*
X144200190Y-112918761D01*
X144247809Y-112871142D01*
X144295428Y-112775904D01*
X144295428Y-111966380D01*
X144533523Y-113061619D02*
X145295428Y-113061619D01*
X145485904Y-112061619D02*
X145533523Y-112014000D01*
X145628761Y-111966380D01*
X145866857Y-111966380D01*
X145962095Y-112014000D01*
X146009714Y-112061619D01*
X146057333Y-112156857D01*
X146057333Y-112252095D01*
X146009714Y-112394952D01*
X145438285Y-112966380D01*
X146057333Y-112966380D01*
X121118952Y-90169880D02*
X121118952Y-89169880D01*
X121690380Y-90169880D02*
X121261809Y-89598452D01*
X121690380Y-89169880D02*
X121118952Y-89741309D01*
X121880857Y-90265119D02*
X122642761Y-90265119D01*
X123452285Y-90074642D02*
X123404666Y-90122261D01*
X123261809Y-90169880D01*
X123166571Y-90169880D01*
X123023714Y-90122261D01*
X122928476Y-90027023D01*
X122880857Y-89931785D01*
X122833238Y-89741309D01*
X122833238Y-89598452D01*
X122880857Y-89407976D01*
X122928476Y-89312738D01*
X123023714Y-89217500D01*
X123166571Y-89169880D01*
X123261809Y-89169880D01*
X123404666Y-89217500D01*
X123452285Y-89265119D01*
X124404666Y-90169880D02*
X123833238Y-90169880D01*
X124118952Y-90169880D02*
X124118952Y-89169880D01*
X124023714Y-89312738D01*
X123928476Y-89407976D01*
X123833238Y-89455595D01*
X55419990Y-78739880D02*
X55419990Y-77739880D01*
X55991419Y-78739880D02*
X55562847Y-78168452D01*
X55991419Y-77739880D02*
X55419990Y-78311309D01*
X56181895Y-78835119D02*
X56943800Y-78835119D01*
X57753323Y-78644642D02*
X57705704Y-78692261D01*
X57562847Y-78739880D01*
X57467609Y-78739880D01*
X57324752Y-78692261D01*
X57229514Y-78597023D01*
X57181895Y-78501785D01*
X57134276Y-78311309D01*
X57134276Y-78168452D01*
X57181895Y-77977976D01*
X57229514Y-77882738D01*
X57324752Y-77787500D01*
X57467609Y-77739880D01*
X57562847Y-77739880D01*
X57705704Y-77787500D01*
X57753323Y-77835119D01*
X58134276Y-78454166D02*
X58610466Y-78454166D01*
X58039038Y-78739880D02*
X58372371Y-77739880D01*
X58705704Y-78739880D01*
X59039038Y-78739880D02*
X59039038Y-77739880D01*
X59419990Y-77739880D01*
X59515228Y-77787500D01*
X59562847Y-77835119D01*
X59610466Y-77930357D01*
X59610466Y-78073214D01*
X59562847Y-78168452D01*
X59515228Y-78216071D01*
X59419990Y-78263690D01*
X59039038Y-78263690D01*
X59991419Y-78692261D02*
X60134276Y-78739880D01*
X60372371Y-78739880D01*
X60467609Y-78692261D01*
X60515228Y-78644642D01*
X60562847Y-78549404D01*
X60562847Y-78454166D01*
X60515228Y-78358928D01*
X60467609Y-78311309D01*
X60372371Y-78263690D01*
X60181895Y-78216071D01*
X60086657Y-78168452D01*
X60039038Y-78120833D01*
X59991419Y-78025595D01*
X59991419Y-77930357D01*
X60039038Y-77835119D01*
X60086657Y-77787500D01*
X60181895Y-77739880D01*
X60419990Y-77739880D01*
X60562847Y-77787500D01*
X61515228Y-78739880D02*
X60943800Y-78739880D01*
X61229514Y-78739880D02*
X61229514Y-77739880D01*
X61134276Y-77882738D01*
X61039038Y-77977976D01*
X60943800Y-78025595D01*
X62682738Y-116840380D02*
X62682738Y-115840380D01*
X63254166Y-116840380D02*
X62825595Y-116268952D01*
X63254166Y-115840380D02*
X62682738Y-116411809D01*
X63444642Y-116935619D02*
X64206547Y-116935619D01*
X65016071Y-116745142D02*
X64968452Y-116792761D01*
X64825595Y-116840380D01*
X64730357Y-116840380D01*
X64587500Y-116792761D01*
X64492261Y-116697523D01*
X64444642Y-116602285D01*
X64397023Y-116411809D01*
X64397023Y-116268952D01*
X64444642Y-116078476D01*
X64492261Y-115983238D01*
X64587500Y-115888000D01*
X64730357Y-115840380D01*
X64825595Y-115840380D01*
X64968452Y-115888000D01*
X65016071Y-115935619D01*
X65301785Y-115840380D02*
X65873214Y-115840380D01*
X65587500Y-116840380D02*
X65587500Y-115840380D01*
X66777976Y-116840380D02*
X66444642Y-116364190D01*
X66206547Y-116840380D02*
X66206547Y-115840380D01*
X66587500Y-115840380D01*
X66682738Y-115888000D01*
X66730357Y-115935619D01*
X66777976Y-116030857D01*
X66777976Y-116173714D01*
X66730357Y-116268952D01*
X66682738Y-116316571D01*
X66587500Y-116364190D01*
X66206547Y-116364190D01*
X67682738Y-116840380D02*
X67206547Y-116840380D01*
X67206547Y-115840380D01*
X68539880Y-116840380D02*
X67968452Y-116840380D01*
X68254166Y-116840380D02*
X68254166Y-115840380D01*
X68158928Y-115983238D01*
X68063690Y-116078476D01*
X67968452Y-116126095D01*
X121118952Y-71119880D02*
X121118952Y-70119880D01*
X121690380Y-71119880D02*
X121261809Y-70548452D01*
X121690380Y-70119880D02*
X121118952Y-70691309D01*
X121880857Y-71215119D02*
X122642761Y-71215119D01*
X122880857Y-71119880D02*
X122880857Y-70119880D01*
X123118952Y-70119880D01*
X123261809Y-70167500D01*
X123357047Y-70262738D01*
X123404666Y-70357976D01*
X123452285Y-70548452D01*
X123452285Y-70691309D01*
X123404666Y-70881785D01*
X123357047Y-70977023D01*
X123261809Y-71072261D01*
X123118952Y-71119880D01*
X122880857Y-71119880D01*
X124404666Y-71119880D02*
X123833238Y-71119880D01*
X124118952Y-71119880D02*
X124118952Y-70119880D01*
X124023714Y-70262738D01*
X123928476Y-70357976D01*
X123833238Y-70405595D01*
X121166571Y-52069880D02*
X121166571Y-51069880D01*
X121738000Y-52069880D02*
X121309428Y-51498452D01*
X121738000Y-51069880D02*
X121166571Y-51641309D01*
X121928476Y-52165119D02*
X122690380Y-52165119D01*
X122928476Y-51546071D02*
X123261809Y-51546071D01*
X123404666Y-52069880D02*
X122928476Y-52069880D01*
X122928476Y-51069880D01*
X123404666Y-51069880D01*
X124357047Y-52069880D02*
X123785619Y-52069880D01*
X124071333Y-52069880D02*
X124071333Y-51069880D01*
X123976095Y-51212738D01*
X123880857Y-51307976D01*
X123785619Y-51355595D01*
X140240380Y-74929880D02*
X140240380Y-73929880D01*
X140811809Y-74929880D02*
X140383238Y-74358452D01*
X140811809Y-73929880D02*
X140240380Y-74501309D01*
X141002285Y-75025119D02*
X141764190Y-75025119D01*
X142335619Y-74406071D02*
X142002285Y-74406071D01*
X142002285Y-74929880D02*
X142002285Y-73929880D01*
X142478476Y-73929880D01*
X143383238Y-74929880D02*
X142811809Y-74929880D01*
X143097523Y-74929880D02*
X143097523Y-73929880D01*
X143002285Y-74072738D01*
X142907047Y-74167976D01*
X142811809Y-74215595D01*
X159218952Y-78739880D02*
X159218952Y-77739880D01*
X159790380Y-78739880D02*
X159361809Y-78168452D01*
X159790380Y-77739880D02*
X159218952Y-78311309D01*
X159980857Y-78835119D02*
X160742761Y-78835119D01*
X161504666Y-77787500D02*
X161409428Y-77739880D01*
X161266571Y-77739880D01*
X161123714Y-77787500D01*
X161028476Y-77882738D01*
X160980857Y-77977976D01*
X160933238Y-78168452D01*
X160933238Y-78311309D01*
X160980857Y-78501785D01*
X161028476Y-78597023D01*
X161123714Y-78692261D01*
X161266571Y-78739880D01*
X161361809Y-78739880D01*
X161504666Y-78692261D01*
X161552285Y-78644642D01*
X161552285Y-78311309D01*
X161361809Y-78311309D01*
X162504666Y-78739880D02*
X161933238Y-78739880D01*
X162218952Y-78739880D02*
X162218952Y-77739880D01*
X162123714Y-77882738D01*
X162028476Y-77977976D01*
X161933238Y-78025595D01*
X82994642Y-59689880D02*
X82994642Y-58689880D01*
X83566071Y-59689880D02*
X83137500Y-59118452D01*
X83566071Y-58689880D02*
X82994642Y-59261309D01*
X83756547Y-59785119D02*
X84518452Y-59785119D01*
X85423214Y-59785119D02*
X85327976Y-59737500D01*
X85232738Y-59642261D01*
X85089880Y-59499404D01*
X84994642Y-59451785D01*
X84899404Y-59451785D01*
X84947023Y-59689880D02*
X84851785Y-59642261D01*
X84756547Y-59547023D01*
X84708928Y-59356547D01*
X84708928Y-59023214D01*
X84756547Y-58832738D01*
X84851785Y-58737500D01*
X84947023Y-58689880D01*
X85137500Y-58689880D01*
X85232738Y-58737500D01*
X85327976Y-58832738D01*
X85375595Y-59023214D01*
X85375595Y-59356547D01*
X85327976Y-59547023D01*
X85232738Y-59642261D01*
X85137500Y-59689880D01*
X84947023Y-59689880D01*
X86327976Y-59689880D02*
X85756547Y-59689880D01*
X86042261Y-59689880D02*
X86042261Y-58689880D01*
X85947023Y-58832738D01*
X85851785Y-58927976D01*
X85756547Y-58975595D01*
X140168952Y-55879880D02*
X140168952Y-54879880D01*
X140740380Y-55879880D02*
X140311809Y-55308452D01*
X140740380Y-54879880D02*
X140168952Y-55451309D01*
X140930857Y-55975119D02*
X141692761Y-55975119D01*
X142502285Y-55879880D02*
X142168952Y-55403690D01*
X141930857Y-55879880D02*
X141930857Y-54879880D01*
X142311809Y-54879880D01*
X142407047Y-54927500D01*
X142454666Y-54975119D01*
X142502285Y-55070357D01*
X142502285Y-55213214D01*
X142454666Y-55308452D01*
X142407047Y-55356071D01*
X142311809Y-55403690D01*
X141930857Y-55403690D01*
X143454666Y-55879880D02*
X142883238Y-55879880D01*
X143168952Y-55879880D02*
X143168952Y-54879880D01*
X143073714Y-55022738D01*
X142978476Y-55117976D01*
X142883238Y-55165595D01*
X102092761Y-74929880D02*
X102092761Y-73929880D01*
X102664190Y-74929880D02*
X102235619Y-74358452D01*
X102664190Y-73929880D02*
X102092761Y-74501309D01*
X102854666Y-75025119D02*
X103616571Y-75025119D01*
X103807047Y-74882261D02*
X103949904Y-74929880D01*
X104188000Y-74929880D01*
X104283238Y-74882261D01*
X104330857Y-74834642D01*
X104378476Y-74739404D01*
X104378476Y-74644166D01*
X104330857Y-74548928D01*
X104283238Y-74501309D01*
X104188000Y-74453690D01*
X103997523Y-74406071D01*
X103902285Y-74358452D01*
X103854666Y-74310833D01*
X103807047Y-74215595D01*
X103807047Y-74120357D01*
X103854666Y-74025119D01*
X103902285Y-73977500D01*
X103997523Y-73929880D01*
X104235619Y-73929880D01*
X104378476Y-73977500D01*
X105330857Y-74929880D02*
X104759428Y-74929880D01*
X105045142Y-74929880D02*
X105045142Y-73929880D01*
X104949904Y-74072738D01*
X104854666Y-74167976D01*
X104759428Y-74215595D01*
X159338000Y-59689880D02*
X159338000Y-58689880D01*
X159909428Y-59689880D02*
X159480857Y-59118452D01*
X159909428Y-58689880D02*
X159338000Y-59261309D01*
X160099904Y-59785119D02*
X160861809Y-59785119D01*
X160957047Y-58689880D02*
X161528476Y-58689880D01*
X161242761Y-59689880D02*
X161242761Y-58689880D01*
X162385619Y-59689880D02*
X161814190Y-59689880D01*
X162099904Y-59689880D02*
X162099904Y-58689880D01*
X162004666Y-58832738D01*
X161909428Y-58927976D01*
X161814190Y-58975595D01*
X57396428Y-59689880D02*
X57396428Y-58689880D01*
X57967857Y-59689880D02*
X57539285Y-59118452D01*
X57967857Y-58689880D02*
X57396428Y-59261309D01*
X58158333Y-59785119D02*
X58920238Y-59785119D01*
X59015476Y-58689880D02*
X59586904Y-58689880D01*
X59301190Y-59689880D02*
X59301190Y-58689880D01*
X59872619Y-59404166D02*
X60348809Y-59404166D01*
X59777380Y-59689880D02*
X60110714Y-58689880D01*
X60444047Y-59689880D01*
X61110714Y-59166071D02*
X61253571Y-59213690D01*
X61301190Y-59261309D01*
X61348809Y-59356547D01*
X61348809Y-59499404D01*
X61301190Y-59594642D01*
X61253571Y-59642261D01*
X61158333Y-59689880D01*
X60777380Y-59689880D01*
X60777380Y-58689880D01*
X61110714Y-58689880D01*
X61205952Y-58737500D01*
X61253571Y-58785119D01*
X61301190Y-58880357D01*
X61301190Y-58975595D01*
X61253571Y-59070833D01*
X61205952Y-59118452D01*
X61110714Y-59166071D01*
X60777380Y-59166071D01*
X62301190Y-59689880D02*
X61729761Y-59689880D01*
X62015476Y-59689880D02*
X62015476Y-58689880D01*
X61920238Y-58832738D01*
X61825000Y-58927976D01*
X61729761Y-58975595D01*
X188418638Y-127217547D02*
X188841256Y-126311239D01*
X188936528Y-127459043D02*
X188789606Y-126760031D01*
X189359146Y-126552735D02*
X188599760Y-126829129D01*
X189068909Y-127625857D02*
X189759429Y-127947852D01*
X190308611Y-126995478D02*
X190826502Y-127236974D01*
X190144938Y-128022534D02*
X190567557Y-127116226D01*
X190705986Y-128284155D02*
X191128604Y-127377847D01*
X190927357Y-127809422D02*
X191445248Y-128050918D01*
X191223876Y-128525651D02*
X191646494Y-127619343D01*
X191399414Y-128712589D02*
X192089935Y-129034584D01*
X192820704Y-129270264D02*
X192302814Y-129028768D01*
X192561759Y-129149516D02*
X192984377Y-128243208D01*
X192837688Y-128332431D01*
X192711124Y-128378497D01*
X192604684Y-128381405D01*
X193631740Y-128545078D02*
X193289620Y-129278756D01*
X193292529Y-129385196D01*
X193315561Y-129448478D01*
X193381752Y-129531885D01*
X193554382Y-129612384D01*
X193660822Y-129609476D01*
X193724104Y-129586443D01*
X193807511Y-129520252D01*
X194149630Y-128786575D01*
X193902550Y-129879821D02*
X194593070Y-130201816D01*
X195323840Y-130437496D02*
X194805950Y-130195999D01*
X195064895Y-130316747D02*
X195487513Y-129410440D01*
X195340824Y-129499663D01*
X195214260Y-129545729D01*
X195107820Y-129548637D01*
X180368638Y-144482547D02*
X180791256Y-143576239D01*
X180886528Y-144724043D02*
X180739606Y-144025031D01*
X181309146Y-143817735D02*
X180549760Y-144094129D01*
X181018909Y-144890857D02*
X181709429Y-145212852D01*
X182258611Y-144260478D02*
X182776502Y-144501974D01*
X182094938Y-145287534D02*
X182517557Y-144381226D01*
X182655986Y-145549155D02*
X183078604Y-144642847D01*
X182877357Y-145074422D02*
X183395248Y-145315918D01*
X183173876Y-145790651D02*
X183596494Y-144884343D01*
X183349414Y-145977589D02*
X184039935Y-146299584D01*
X184770704Y-146535264D02*
X184252814Y-146293768D01*
X184511759Y-146414516D02*
X184934377Y-145508208D01*
X184787688Y-145597431D01*
X184661124Y-145643497D01*
X184554684Y-145646405D01*
X185581740Y-145810078D02*
X185239620Y-146543756D01*
X185242529Y-146650196D01*
X185265561Y-146713478D01*
X185331752Y-146796885D01*
X185504382Y-146877384D01*
X185610822Y-146874476D01*
X185674104Y-146851443D01*
X185757511Y-146785252D01*
X186099630Y-146051575D01*
X185852550Y-147144821D02*
X186543070Y-147466816D01*
X187138319Y-146641007D02*
X187201601Y-146617974D01*
X187308041Y-146615066D01*
X187523828Y-146715689D01*
X187590018Y-146799096D01*
X187613051Y-146862378D01*
X187615959Y-146968818D01*
X187575710Y-147055133D01*
X187472179Y-147164481D01*
X186712792Y-147440875D01*
X187273840Y-147702496D01*
X140240380Y-93979880D02*
X140240380Y-92979880D01*
X140811809Y-93979880D02*
X140383238Y-93408452D01*
X140811809Y-92979880D02*
X140240380Y-93551309D01*
X141002285Y-94075119D02*
X141764190Y-94075119D01*
X141859428Y-92979880D02*
X142192761Y-93979880D01*
X142526095Y-92979880D01*
X143383238Y-93979880D02*
X142811809Y-93979880D01*
X143097523Y-93979880D02*
X143097523Y-92979880D01*
X143002285Y-93122738D01*
X142907047Y-93217976D01*
X142811809Y-93265595D01*
X101997523Y-55879880D02*
X101997523Y-54879880D01*
X102568952Y-55879880D02*
X102140380Y-55308452D01*
X102568952Y-54879880D02*
X101997523Y-55451309D01*
X102759428Y-55975119D02*
X103521333Y-55975119D01*
X103664190Y-54879880D02*
X103902285Y-55879880D01*
X104092761Y-55165595D01*
X104283238Y-55879880D01*
X104521333Y-54879880D01*
X105426095Y-55879880D02*
X104854666Y-55879880D01*
X105140380Y-55879880D02*
X105140380Y-54879880D01*
X105045142Y-55022738D01*
X104949904Y-55117976D01*
X104854666Y-55165595D01*
X101235619Y-113030380D02*
X101235619Y-112030380D01*
X101807047Y-113030380D02*
X101378476Y-112458952D01*
X101807047Y-112030380D02*
X101235619Y-112601809D01*
X101997523Y-113125619D02*
X102759428Y-113125619D01*
X102902285Y-112030380D02*
X103140380Y-113030380D01*
X103330857Y-112316095D01*
X103521333Y-113030380D01*
X103759428Y-112030380D01*
X104140380Y-113030380D02*
X104140380Y-112030380D01*
X104616571Y-113030380D02*
X104616571Y-112030380D01*
X105188000Y-113030380D01*
X105188000Y-112030380D01*
X106188000Y-113030380D02*
X105616571Y-113030380D01*
X105902285Y-113030380D02*
X105902285Y-112030380D01*
X105807047Y-112173238D01*
X105711809Y-112268476D01*
X105616571Y-112316095D01*
X102092761Y-93979880D02*
X102092761Y-92979880D01*
X102664190Y-93979880D02*
X102235619Y-93408452D01*
X102664190Y-92979880D02*
X102092761Y-93551309D01*
X102854666Y-94075119D02*
X103616571Y-94075119D01*
X103759428Y-92979880D02*
X104426095Y-93979880D01*
X104426095Y-92979880D02*
X103759428Y-93979880D01*
X105330857Y-93979880D02*
X104759428Y-93979880D01*
X105045142Y-93979880D02*
X105045142Y-92979880D01*
X104949904Y-93122738D01*
X104854666Y-93217976D01*
X104759428Y-93265595D01*
X83042261Y-97789880D02*
X83042261Y-96789880D01*
X83613690Y-97789880D02*
X83185119Y-97218452D01*
X83613690Y-96789880D02*
X83042261Y-97361309D01*
X83804166Y-97885119D02*
X84566071Y-97885119D01*
X84708928Y-96789880D02*
X85375595Y-96789880D01*
X84708928Y-97789880D01*
X85375595Y-97789880D01*
X86280357Y-97789880D02*
X85708928Y-97789880D01*
X85994642Y-97789880D02*
X85994642Y-96789880D01*
X85899404Y-96932738D01*
X85804166Y-97027976D01*
X85708928Y-97075595D01*
X158713935Y-128468779D02*
X157807627Y-128046161D01*
X158955431Y-127950889D02*
X158256418Y-128097810D01*
X158049123Y-127528270D02*
X158325517Y-128287657D01*
X159122244Y-127818508D02*
X159444239Y-127127988D01*
X158491866Y-126578805D02*
X158733362Y-126060915D01*
X159518922Y-126742478D02*
X158612614Y-126319860D01*
X159780543Y-126181431D02*
X158874235Y-125758812D01*
X159305810Y-125960059D02*
X159547306Y-125442169D01*
X160022039Y-125663540D02*
X159115731Y-125240922D01*
X159316978Y-124809347D02*
X160050655Y-125151467D01*
X160157095Y-125148558D01*
X160220377Y-125125526D01*
X160303784Y-125059335D01*
X160384283Y-124886705D01*
X160381375Y-124780266D01*
X160358342Y-124716983D01*
X160292152Y-124633576D01*
X159558474Y-124291457D01*
X160666028Y-124282500D02*
X159759721Y-123859882D01*
X160547956Y-123859649D01*
X160041466Y-123255677D01*
X160947774Y-123678295D01*
X160815161Y-122723246D02*
X160918692Y-122613898D01*
X160981975Y-122590865D01*
X161088414Y-122587957D01*
X161217887Y-122648331D01*
X161284077Y-122731738D01*
X161307110Y-122795020D01*
X161310018Y-122901460D01*
X161149021Y-123246720D01*
X160242713Y-122824101D01*
X160383586Y-122521999D01*
X160466993Y-122455809D01*
X160530275Y-122432776D01*
X160636714Y-122429868D01*
X160723030Y-122470117D01*
X160789220Y-122553524D01*
X160812253Y-122616806D01*
X160815161Y-122723246D01*
X160674288Y-123025348D01*
X161557331Y-122596449D02*
X161879326Y-121905929D01*
X161053516Y-121310680D02*
X161030484Y-121247398D01*
X161027575Y-121140958D01*
X161128199Y-120925171D01*
X161211606Y-120858981D01*
X161274888Y-120835948D01*
X161381328Y-120833040D01*
X161467643Y-120873289D01*
X161576991Y-120976820D01*
X161853385Y-121736207D01*
X162115005Y-121175159D01*
X161389820Y-120364123D02*
X162123497Y-120706243D01*
X162229937Y-120703335D01*
X162293219Y-120680302D01*
X162376626Y-120614111D01*
X162457125Y-120441481D01*
X162454217Y-120335042D01*
X162431184Y-120271759D01*
X162364994Y-120188353D01*
X161631316Y-119846233D01*
X162960242Y-119362544D02*
X162718746Y-119880434D01*
X162839494Y-119621489D02*
X161933186Y-119198870D01*
X162022409Y-119345559D01*
X162068475Y-119472124D01*
X162071383Y-119578563D01*
X50173333Y-96972380D02*
X50173333Y-95972380D01*
X50744761Y-96972380D02*
X50316190Y-96400952D01*
X50744761Y-95972380D02*
X50173333Y-96543809D01*
X50935238Y-97067619D02*
X51697142Y-97067619D01*
X51887619Y-96924761D02*
X52030476Y-96972380D01*
X52268571Y-96972380D01*
X52363809Y-96924761D01*
X52411428Y-96877142D01*
X52459047Y-96781904D01*
X52459047Y-96686666D01*
X52411428Y-96591428D01*
X52363809Y-96543809D01*
X52268571Y-96496190D01*
X52078095Y-96448571D01*
X51982857Y-96400952D01*
X51935238Y-96353333D01*
X51887619Y-96258095D01*
X51887619Y-96162857D01*
X51935238Y-96067619D01*
X51982857Y-96020000D01*
X52078095Y-95972380D01*
X52316190Y-95972380D01*
X52459047Y-96020000D01*
X52887619Y-96972380D02*
X52887619Y-95972380D01*
X52887619Y-96448571D02*
X53459047Y-96448571D01*
X53459047Y-96972380D02*
X53459047Y-95972380D01*
X53935238Y-96972380D02*
X53935238Y-95972380D01*
X54744761Y-96448571D02*
X54411428Y-96448571D01*
X54411428Y-96972380D02*
X54411428Y-95972380D01*
X54887619Y-95972380D01*
X55125714Y-95972380D02*
X55697142Y-95972380D01*
X55411428Y-96972380D02*
X55411428Y-95972380D01*
X56554285Y-96972380D02*
X55982857Y-96972380D01*
X56268571Y-96972380D02*
X56268571Y-95972380D01*
X56173333Y-96115238D01*
X56078095Y-96210476D01*
X55982857Y-96258095D01*
M02*
