G04 #@! TF.GenerationSoftware,KiCad,Pcbnew,(5.1.5)-3*
G04 #@! TF.CreationDate,2020-01-18T14:12:39+05:30*
G04 #@! TF.ProjectId,ergocape,6572676f-6361-4706-952e-6b696361645f,rev?*
G04 #@! TF.SameCoordinates,Original*
G04 #@! TF.FileFunction,Soldermask,Bot*
G04 #@! TF.FilePolarity,Negative*
%FSLAX46Y46*%
G04 Gerber Fmt 4.6, Leading zero omitted, Abs format (unit mm)*
G04 Created by KiCad (PCBNEW (5.1.5)-3) date 2020-01-18 14:12:39*
%MOMM*%
%LPD*%
G04 APERTURE LIST*
%ADD10C,0.100000*%
G04 APERTURE END LIST*
D10*
G36*
X179769433Y-131349893D02*
G01*
X179859657Y-131367839D01*
X179965267Y-131411585D01*
X180114621Y-131473449D01*
X180114622Y-131473450D01*
X180344086Y-131626772D01*
X180539228Y-131821914D01*
X180641675Y-131975237D01*
X180692551Y-132051379D01*
X180798161Y-132306344D01*
X180852000Y-132577012D01*
X180852000Y-132852988D01*
X180798161Y-133123656D01*
X180692551Y-133378621D01*
X180692550Y-133378622D01*
X180539228Y-133608086D01*
X180344086Y-133803228D01*
X180190763Y-133905675D01*
X180114621Y-133956551D01*
X179965267Y-134018415D01*
X179859657Y-134062161D01*
X179769433Y-134080107D01*
X179588988Y-134116000D01*
X179313012Y-134116000D01*
X179132567Y-134080107D01*
X179042343Y-134062161D01*
X178936733Y-134018415D01*
X178787379Y-133956551D01*
X178711237Y-133905675D01*
X178557914Y-133803228D01*
X178362772Y-133608086D01*
X178209450Y-133378622D01*
X178209449Y-133378621D01*
X178103839Y-133123656D01*
X178050000Y-132852988D01*
X178050000Y-132577012D01*
X178103839Y-132306344D01*
X178209449Y-132051379D01*
X178260325Y-131975237D01*
X178362772Y-131821914D01*
X178557914Y-131626772D01*
X178787378Y-131473450D01*
X178787379Y-131473449D01*
X178936733Y-131411585D01*
X179042343Y-131367839D01*
X179132567Y-131349893D01*
X179313012Y-131314000D01*
X179588988Y-131314000D01*
X179769433Y-131349893D01*
G37*
G36*
X112904433Y-122078893D02*
G01*
X112994657Y-122096839D01*
X113100267Y-122140585D01*
X113249621Y-122202449D01*
X113249622Y-122202450D01*
X113479086Y-122355772D01*
X113674228Y-122550914D01*
X113776675Y-122704237D01*
X113827551Y-122780379D01*
X113933161Y-123035344D01*
X113987000Y-123306012D01*
X113987000Y-123581988D01*
X113933161Y-123852656D01*
X113827551Y-124107621D01*
X113827550Y-124107622D01*
X113674228Y-124337086D01*
X113479086Y-124532228D01*
X113325763Y-124634675D01*
X113249621Y-124685551D01*
X113100267Y-124747415D01*
X112994657Y-124791161D01*
X112904433Y-124809107D01*
X112723988Y-124845000D01*
X112448012Y-124845000D01*
X112267567Y-124809107D01*
X112177343Y-124791161D01*
X112071733Y-124747415D01*
X111922379Y-124685551D01*
X111846237Y-124634675D01*
X111692914Y-124532228D01*
X111497772Y-124337086D01*
X111344450Y-124107622D01*
X111344449Y-124107621D01*
X111238839Y-123852656D01*
X111185000Y-123581988D01*
X111185000Y-123306012D01*
X111238839Y-123035344D01*
X111344449Y-122780379D01*
X111395325Y-122704237D01*
X111497772Y-122550914D01*
X111692914Y-122355772D01*
X111922378Y-122202450D01*
X111922379Y-122202449D01*
X112071733Y-122140585D01*
X112177343Y-122096839D01*
X112267567Y-122078893D01*
X112448012Y-122043000D01*
X112723988Y-122043000D01*
X112904433Y-122078893D01*
G37*
G36*
X41212433Y-113442893D02*
G01*
X41302657Y-113460839D01*
X41408267Y-113504585D01*
X41557621Y-113566449D01*
X41557622Y-113566450D01*
X41787086Y-113719772D01*
X41982228Y-113914914D01*
X42084675Y-114068237D01*
X42135551Y-114144379D01*
X42241161Y-114399344D01*
X42295000Y-114670012D01*
X42295000Y-114945988D01*
X42241161Y-115216656D01*
X42135551Y-115471621D01*
X42135550Y-115471622D01*
X41982228Y-115701086D01*
X41787086Y-115896228D01*
X41633763Y-115998675D01*
X41557621Y-116049551D01*
X41408267Y-116111415D01*
X41302657Y-116155161D01*
X41212433Y-116173107D01*
X41031988Y-116209000D01*
X40756012Y-116209000D01*
X40575567Y-116173107D01*
X40485343Y-116155161D01*
X40379733Y-116111415D01*
X40230379Y-116049551D01*
X40154237Y-115998675D01*
X40000914Y-115896228D01*
X39805772Y-115701086D01*
X39652450Y-115471622D01*
X39652449Y-115471621D01*
X39546839Y-115216656D01*
X39493000Y-114945988D01*
X39493000Y-114670012D01*
X39546839Y-114399344D01*
X39652449Y-114144379D01*
X39703325Y-114068237D01*
X39805772Y-113914914D01*
X40000914Y-113719772D01*
X40230378Y-113566450D01*
X40230379Y-113566449D01*
X40379733Y-113504585D01*
X40485343Y-113460839D01*
X40575567Y-113442893D01*
X40756012Y-113407000D01*
X41031988Y-113407000D01*
X41212433Y-113442893D01*
G37*
G36*
X167704433Y-106457893D02*
G01*
X167794657Y-106475839D01*
X167900267Y-106519585D01*
X168049621Y-106581449D01*
X168049622Y-106581450D01*
X168279086Y-106734772D01*
X168474228Y-106929914D01*
X168576675Y-107083237D01*
X168627551Y-107159379D01*
X168733161Y-107414344D01*
X168787000Y-107685012D01*
X168787000Y-107960988D01*
X168733161Y-108231656D01*
X168627551Y-108486621D01*
X168627550Y-108486622D01*
X168474228Y-108716086D01*
X168279086Y-108911228D01*
X168125763Y-109013675D01*
X168049621Y-109064551D01*
X167900267Y-109126415D01*
X167794657Y-109170161D01*
X167704433Y-109188107D01*
X167523988Y-109224000D01*
X167248012Y-109224000D01*
X167067567Y-109188107D01*
X166977343Y-109170161D01*
X166871733Y-109126415D01*
X166722379Y-109064551D01*
X166646237Y-109013675D01*
X166492914Y-108911228D01*
X166297772Y-108716086D01*
X166144450Y-108486622D01*
X166144449Y-108486621D01*
X166038839Y-108231656D01*
X165985000Y-107960988D01*
X165985000Y-107685012D01*
X166038839Y-107414344D01*
X166144449Y-107159379D01*
X166195325Y-107083237D01*
X166297772Y-106929914D01*
X166492914Y-106734772D01*
X166722378Y-106581450D01*
X166722379Y-106581449D01*
X166871733Y-106519585D01*
X166977343Y-106475839D01*
X167067567Y-106457893D01*
X167248012Y-106422000D01*
X167523988Y-106422000D01*
X167704433Y-106457893D01*
G37*
G36*
X113538433Y-59277393D02*
G01*
X113628657Y-59295339D01*
X113734267Y-59339085D01*
X113883621Y-59400949D01*
X113883622Y-59400950D01*
X114113086Y-59554272D01*
X114308228Y-59749414D01*
X114334263Y-59788379D01*
X114461551Y-59978879D01*
X114567161Y-60233844D01*
X114621000Y-60504512D01*
X114621000Y-60780488D01*
X114567161Y-61051156D01*
X114461551Y-61306121D01*
X114461550Y-61306122D01*
X114308228Y-61535586D01*
X114113086Y-61730728D01*
X114010668Y-61799161D01*
X113883621Y-61884051D01*
X113734267Y-61945915D01*
X113628657Y-61989661D01*
X113538433Y-62007607D01*
X113357988Y-62043500D01*
X113082012Y-62043500D01*
X112901567Y-62007607D01*
X112811343Y-61989661D01*
X112705733Y-61945915D01*
X112556379Y-61884051D01*
X112429332Y-61799161D01*
X112326914Y-61730728D01*
X112131772Y-61535586D01*
X111978450Y-61306122D01*
X111978449Y-61306121D01*
X111872839Y-61051156D01*
X111819000Y-60780488D01*
X111819000Y-60504512D01*
X111872839Y-60233844D01*
X111978449Y-59978879D01*
X112105737Y-59788379D01*
X112131772Y-59749414D01*
X112326914Y-59554272D01*
X112556378Y-59400950D01*
X112556379Y-59400949D01*
X112705733Y-59339085D01*
X112811343Y-59295339D01*
X112901567Y-59277393D01*
X113082012Y-59241500D01*
X113357988Y-59241500D01*
X113538433Y-59277393D01*
G37*
G36*
X40450433Y-59086893D02*
G01*
X40540657Y-59104839D01*
X40646267Y-59148585D01*
X40795621Y-59210449D01*
X40795622Y-59210450D01*
X41025086Y-59363772D01*
X41220228Y-59558914D01*
X41322675Y-59712237D01*
X41373551Y-59788379D01*
X41479161Y-60043344D01*
X41533000Y-60314012D01*
X41533000Y-60589988D01*
X41479161Y-60860656D01*
X41373551Y-61115621D01*
X41373550Y-61115622D01*
X41220228Y-61345086D01*
X41025086Y-61540228D01*
X40871763Y-61642675D01*
X40795621Y-61693551D01*
X40646267Y-61755415D01*
X40540657Y-61799161D01*
X40450433Y-61817107D01*
X40269988Y-61853000D01*
X39994012Y-61853000D01*
X39813567Y-61817107D01*
X39723343Y-61799161D01*
X39617733Y-61755415D01*
X39468379Y-61693551D01*
X39392237Y-61642675D01*
X39238914Y-61540228D01*
X39043772Y-61345086D01*
X38890450Y-61115622D01*
X38890449Y-61115621D01*
X38784839Y-60860656D01*
X38731000Y-60589988D01*
X38731000Y-60314012D01*
X38784839Y-60043344D01*
X38890449Y-59788379D01*
X38941325Y-59712237D01*
X39043772Y-59558914D01*
X39238914Y-59363772D01*
X39468378Y-59210450D01*
X39468379Y-59210449D01*
X39617733Y-59148585D01*
X39723343Y-59104839D01*
X39813567Y-59086893D01*
X39994012Y-59051000D01*
X40269988Y-59051000D01*
X40450433Y-59086893D01*
G37*
G36*
X112840433Y-19208893D02*
G01*
X112930657Y-19226839D01*
X113036267Y-19270585D01*
X113185621Y-19332449D01*
X113185622Y-19332450D01*
X113415086Y-19485772D01*
X113610228Y-19680914D01*
X113712675Y-19834237D01*
X113763551Y-19910379D01*
X113869161Y-20165344D01*
X113923000Y-20436012D01*
X113923000Y-20711988D01*
X113869161Y-20982656D01*
X113763551Y-21237621D01*
X113763550Y-21237622D01*
X113610228Y-21467086D01*
X113415086Y-21662228D01*
X113261763Y-21764675D01*
X113185621Y-21815551D01*
X113036267Y-21877415D01*
X112930657Y-21921161D01*
X112840433Y-21939107D01*
X112659988Y-21975000D01*
X112384012Y-21975000D01*
X112203567Y-21939107D01*
X112113343Y-21921161D01*
X112007733Y-21877415D01*
X111858379Y-21815551D01*
X111782237Y-21764675D01*
X111628914Y-21662228D01*
X111433772Y-21467086D01*
X111280450Y-21237622D01*
X111280449Y-21237621D01*
X111174839Y-20982656D01*
X111121000Y-20711988D01*
X111121000Y-20436012D01*
X111174839Y-20165344D01*
X111280449Y-19910379D01*
X111331325Y-19834237D01*
X111433772Y-19680914D01*
X111628914Y-19485772D01*
X111858378Y-19332450D01*
X111858379Y-19332449D01*
X112007733Y-19270585D01*
X112113343Y-19226839D01*
X112203567Y-19208893D01*
X112384012Y-19173000D01*
X112659988Y-19173000D01*
X112840433Y-19208893D01*
G37*
G36*
X40450433Y-19208893D02*
G01*
X40540657Y-19226839D01*
X40646267Y-19270585D01*
X40795621Y-19332449D01*
X40795622Y-19332450D01*
X41025086Y-19485772D01*
X41220228Y-19680914D01*
X41322675Y-19834237D01*
X41373551Y-19910379D01*
X41479161Y-20165344D01*
X41533000Y-20436012D01*
X41533000Y-20711988D01*
X41479161Y-20982656D01*
X41373551Y-21237621D01*
X41373550Y-21237622D01*
X41220228Y-21467086D01*
X41025086Y-21662228D01*
X40871763Y-21764675D01*
X40795621Y-21815551D01*
X40646267Y-21877415D01*
X40540657Y-21921161D01*
X40450433Y-21939107D01*
X40269988Y-21975000D01*
X39994012Y-21975000D01*
X39813567Y-21939107D01*
X39723343Y-21921161D01*
X39617733Y-21877415D01*
X39468379Y-21815551D01*
X39392237Y-21764675D01*
X39238914Y-21662228D01*
X39043772Y-21467086D01*
X38890450Y-21237622D01*
X38890449Y-21237621D01*
X38784839Y-20982656D01*
X38731000Y-20711988D01*
X38731000Y-20436012D01*
X38784839Y-20165344D01*
X38890449Y-19910379D01*
X38941325Y-19834237D01*
X39043772Y-19680914D01*
X39238914Y-19485772D01*
X39468378Y-19332450D01*
X39468379Y-19332449D01*
X39617733Y-19270585D01*
X39723343Y-19226839D01*
X39813567Y-19208893D01*
X39994012Y-19173000D01*
X40269988Y-19173000D01*
X40450433Y-19208893D01*
G37*
G36*
X166942433Y-19208893D02*
G01*
X167032657Y-19226839D01*
X167138267Y-19270585D01*
X167287621Y-19332449D01*
X167287622Y-19332450D01*
X167517086Y-19485772D01*
X167712228Y-19680914D01*
X167814675Y-19834237D01*
X167865551Y-19910379D01*
X167971161Y-20165344D01*
X168025000Y-20436012D01*
X168025000Y-20711988D01*
X167971161Y-20982656D01*
X167865551Y-21237621D01*
X167865550Y-21237622D01*
X167712228Y-21467086D01*
X167517086Y-21662228D01*
X167363763Y-21764675D01*
X167287621Y-21815551D01*
X167138267Y-21877415D01*
X167032657Y-21921161D01*
X166942433Y-21939107D01*
X166761988Y-21975000D01*
X166486012Y-21975000D01*
X166305567Y-21939107D01*
X166215343Y-21921161D01*
X166109733Y-21877415D01*
X165960379Y-21815551D01*
X165884237Y-21764675D01*
X165730914Y-21662228D01*
X165535772Y-21467086D01*
X165382450Y-21237622D01*
X165382449Y-21237621D01*
X165276839Y-20982656D01*
X165223000Y-20711988D01*
X165223000Y-20436012D01*
X165276839Y-20165344D01*
X165382449Y-19910379D01*
X165433325Y-19834237D01*
X165535772Y-19680914D01*
X165730914Y-19485772D01*
X165960378Y-19332450D01*
X165960379Y-19332449D01*
X166109733Y-19270585D01*
X166215343Y-19226839D01*
X166305567Y-19208893D01*
X166486012Y-19173000D01*
X166761988Y-19173000D01*
X166942433Y-19208893D01*
G37*
M02*
