G04 #@! TF.GenerationSoftware,KiCad,Pcbnew,(5.1.5)-3*
G04 #@! TF.CreationDate,2020-01-27T18:25:28+05:30*
G04 #@! TF.ProjectId,ergocape,6572676f-6361-4706-952e-6b696361645f,rev?*
G04 #@! TF.SameCoordinates,Original*
G04 #@! TF.FileFunction,Legend,Bot*
G04 #@! TF.FilePolarity,Positive*
%FSLAX46Y46*%
G04 Gerber Fmt 4.6, Leading zero omitted, Abs format (unit mm)*
G04 Created by KiCad (PCBNEW (5.1.5)-3) date 2020-01-27 18:25:28*
%MOMM*%
%LPD*%
G04 APERTURE LIST*
%ADD10C,0.150000*%
%ADD11C,0.010000*%
G04 APERTURE END LIST*
D10*
X68436476Y-20693571D02*
X68769809Y-20693571D01*
X68769809Y-21217380D02*
X68769809Y-20217380D01*
X68293619Y-20217380D01*
X67769809Y-21217380D02*
X67865047Y-21169761D01*
X67912666Y-21122142D01*
X67960285Y-21026904D01*
X67960285Y-20741190D01*
X67912666Y-20645952D01*
X67865047Y-20598333D01*
X67769809Y-20550714D01*
X67626952Y-20550714D01*
X67531714Y-20598333D01*
X67484095Y-20645952D01*
X67436476Y-20741190D01*
X67436476Y-21026904D01*
X67484095Y-21122142D01*
X67531714Y-21169761D01*
X67626952Y-21217380D01*
X67769809Y-21217380D01*
X67007904Y-21217380D02*
X67007904Y-20550714D01*
X67007904Y-20741190D02*
X66960285Y-20645952D01*
X66912666Y-20598333D01*
X66817428Y-20550714D01*
X66722190Y-20550714D01*
X65769809Y-20550714D02*
X65388857Y-20550714D01*
X65626952Y-20217380D02*
X65626952Y-21074523D01*
X65579333Y-21169761D01*
X65484095Y-21217380D01*
X65388857Y-21217380D01*
X65055523Y-21217380D02*
X65055523Y-20217380D01*
X64626952Y-21217380D02*
X64626952Y-20693571D01*
X64674571Y-20598333D01*
X64769809Y-20550714D01*
X64912666Y-20550714D01*
X65007904Y-20598333D01*
X65055523Y-20645952D01*
X63769809Y-21169761D02*
X63865047Y-21217380D01*
X64055523Y-21217380D01*
X64150761Y-21169761D01*
X64198380Y-21074523D01*
X64198380Y-20693571D01*
X64150761Y-20598333D01*
X64055523Y-20550714D01*
X63865047Y-20550714D01*
X63769809Y-20598333D01*
X63722190Y-20693571D01*
X63722190Y-20788809D01*
X64198380Y-20884047D01*
X62388857Y-21217380D02*
X62484095Y-21169761D01*
X62531714Y-21074523D01*
X62531714Y-20217380D01*
X61865047Y-21217380D02*
X61960285Y-21169761D01*
X62007904Y-21122142D01*
X62055523Y-21026904D01*
X62055523Y-20741190D01*
X62007904Y-20645952D01*
X61960285Y-20598333D01*
X61865047Y-20550714D01*
X61722190Y-20550714D01*
X61626952Y-20598333D01*
X61579333Y-20645952D01*
X61531714Y-20741190D01*
X61531714Y-21026904D01*
X61579333Y-21122142D01*
X61626952Y-21169761D01*
X61722190Y-21217380D01*
X61865047Y-21217380D01*
X61198380Y-20550714D02*
X60960285Y-21217380D01*
X60722190Y-20550714D01*
X59960285Y-21169761D02*
X60055523Y-21217380D01*
X60246000Y-21217380D01*
X60341238Y-21169761D01*
X60388857Y-21074523D01*
X60388857Y-20693571D01*
X60341238Y-20598333D01*
X60246000Y-20550714D01*
X60055523Y-20550714D01*
X59960285Y-20598333D01*
X59912666Y-20693571D01*
X59912666Y-20788809D01*
X60388857Y-20884047D01*
X58579333Y-21217380D02*
X58674571Y-21169761D01*
X58722190Y-21122142D01*
X58769809Y-21026904D01*
X58769809Y-20741190D01*
X58722190Y-20645952D01*
X58674571Y-20598333D01*
X58579333Y-20550714D01*
X58436476Y-20550714D01*
X58341238Y-20598333D01*
X58293619Y-20645952D01*
X58246000Y-20741190D01*
X58246000Y-21026904D01*
X58293619Y-21122142D01*
X58341238Y-21169761D01*
X58436476Y-21217380D01*
X58579333Y-21217380D01*
X57960285Y-20550714D02*
X57579333Y-20550714D01*
X57817428Y-21217380D02*
X57817428Y-20360238D01*
X57769809Y-20265000D01*
X57674571Y-20217380D01*
X57579333Y-20217380D01*
X66055523Y-22867380D02*
X66055523Y-21867380D01*
X65484095Y-22867380D02*
X65912666Y-22295952D01*
X65484095Y-21867380D02*
X66055523Y-22438809D01*
X64674571Y-22819761D02*
X64769809Y-22867380D01*
X64960285Y-22867380D01*
X65055523Y-22819761D01*
X65103142Y-22724523D01*
X65103142Y-22343571D01*
X65055523Y-22248333D01*
X64960285Y-22200714D01*
X64769809Y-22200714D01*
X64674571Y-22248333D01*
X64626952Y-22343571D01*
X64626952Y-22438809D01*
X65103142Y-22534047D01*
X64293619Y-22200714D02*
X64055523Y-22867380D01*
X63817428Y-22200714D02*
X64055523Y-22867380D01*
X64150761Y-23105476D01*
X64198380Y-23153095D01*
X64293619Y-23200714D01*
X63007904Y-22819761D02*
X63103142Y-22867380D01*
X63293619Y-22867380D01*
X63388857Y-22819761D01*
X63436476Y-22772142D01*
X63484095Y-22676904D01*
X63484095Y-22391190D01*
X63436476Y-22295952D01*
X63388857Y-22248333D01*
X63293619Y-22200714D01*
X63103142Y-22200714D01*
X63007904Y-22248333D01*
X62150761Y-22867380D02*
X62150761Y-22343571D01*
X62198380Y-22248333D01*
X62293619Y-22200714D01*
X62484095Y-22200714D01*
X62579333Y-22248333D01*
X62150761Y-22819761D02*
X62246000Y-22867380D01*
X62484095Y-22867380D01*
X62579333Y-22819761D01*
X62626952Y-22724523D01*
X62626952Y-22629285D01*
X62579333Y-22534047D01*
X62484095Y-22486428D01*
X62246000Y-22486428D01*
X62150761Y-22438809D01*
X61674571Y-22200714D02*
X61674571Y-23200714D01*
X61674571Y-22248333D02*
X61579333Y-22200714D01*
X61388857Y-22200714D01*
X61293619Y-22248333D01*
X61246000Y-22295952D01*
X61198380Y-22391190D01*
X61198380Y-22676904D01*
X61246000Y-22772142D01*
X61293619Y-22819761D01*
X61388857Y-22867380D01*
X61579333Y-22867380D01*
X61674571Y-22819761D01*
X60817428Y-22819761D02*
X60722190Y-22867380D01*
X60531714Y-22867380D01*
X60436476Y-22819761D01*
X60388857Y-22724523D01*
X60388857Y-22676904D01*
X60436476Y-22581666D01*
X60531714Y-22534047D01*
X60674571Y-22534047D01*
X60769809Y-22486428D01*
X60817428Y-22391190D01*
X60817428Y-22343571D01*
X60769809Y-22248333D01*
X60674571Y-22200714D01*
X60531714Y-22200714D01*
X60436476Y-22248333D01*
D11*
G36*
X54978256Y-23763918D02*
G01*
X54922799Y-23791568D01*
X54873852Y-23842480D01*
X54860371Y-23861338D01*
X54845686Y-23886015D01*
X54836158Y-23912816D01*
X54830707Y-23948587D01*
X54828253Y-24000169D01*
X54827714Y-24068267D01*
X54830148Y-24161588D01*
X54838606Y-24231657D01*
X54854826Y-24283931D01*
X54880546Y-24323869D01*
X54917503Y-24356929D01*
X54920218Y-24358886D01*
X54956640Y-24378908D01*
X55000498Y-24388815D01*
X55056276Y-24391257D01*
X55146952Y-24391257D01*
X55146990Y-24479283D01*
X55147834Y-24528308D01*
X55152976Y-24557065D01*
X55166413Y-24574311D01*
X55192142Y-24588808D01*
X55198321Y-24591769D01*
X55227236Y-24605648D01*
X55249624Y-24614414D01*
X55266271Y-24615171D01*
X55277964Y-24605023D01*
X55285490Y-24581073D01*
X55289634Y-24540426D01*
X55291185Y-24480186D01*
X55290929Y-24397455D01*
X55289651Y-24289339D01*
X55289252Y-24257000D01*
X55287815Y-24145524D01*
X55286528Y-24072603D01*
X55147029Y-24072603D01*
X55146245Y-24134499D01*
X55142760Y-24174997D01*
X55134876Y-24201708D01*
X55120895Y-24222244D01*
X55111403Y-24232260D01*
X55072596Y-24261567D01*
X55038237Y-24263952D01*
X55002784Y-24239750D01*
X55001886Y-24238857D01*
X54987461Y-24220153D01*
X54978687Y-24194732D01*
X54974261Y-24155584D01*
X54972882Y-24095697D01*
X54972857Y-24082430D01*
X54976188Y-23999901D01*
X54987031Y-23942691D01*
X55006660Y-23907766D01*
X55036350Y-23892094D01*
X55053509Y-23890514D01*
X55094234Y-23897926D01*
X55122168Y-23922330D01*
X55138983Y-23966980D01*
X55146350Y-24035130D01*
X55147029Y-24072603D01*
X55286528Y-24072603D01*
X55286292Y-24059245D01*
X55284323Y-23994333D01*
X55281550Y-23946958D01*
X55277612Y-23913290D01*
X55272151Y-23889498D01*
X55264808Y-23871753D01*
X55255223Y-23856224D01*
X55251113Y-23850381D01*
X55196595Y-23795185D01*
X55127664Y-23763890D01*
X55047928Y-23755165D01*
X54978256Y-23763918D01*
G37*
X54978256Y-23763918D02*
X54922799Y-23791568D01*
X54873852Y-23842480D01*
X54860371Y-23861338D01*
X54845686Y-23886015D01*
X54836158Y-23912816D01*
X54830707Y-23948587D01*
X54828253Y-24000169D01*
X54827714Y-24068267D01*
X54830148Y-24161588D01*
X54838606Y-24231657D01*
X54854826Y-24283931D01*
X54880546Y-24323869D01*
X54917503Y-24356929D01*
X54920218Y-24358886D01*
X54956640Y-24378908D01*
X55000498Y-24388815D01*
X55056276Y-24391257D01*
X55146952Y-24391257D01*
X55146990Y-24479283D01*
X55147834Y-24528308D01*
X55152976Y-24557065D01*
X55166413Y-24574311D01*
X55192142Y-24588808D01*
X55198321Y-24591769D01*
X55227236Y-24605648D01*
X55249624Y-24614414D01*
X55266271Y-24615171D01*
X55277964Y-24605023D01*
X55285490Y-24581073D01*
X55289634Y-24540426D01*
X55291185Y-24480186D01*
X55290929Y-24397455D01*
X55289651Y-24289339D01*
X55289252Y-24257000D01*
X55287815Y-24145524D01*
X55286528Y-24072603D01*
X55147029Y-24072603D01*
X55146245Y-24134499D01*
X55142760Y-24174997D01*
X55134876Y-24201708D01*
X55120895Y-24222244D01*
X55111403Y-24232260D01*
X55072596Y-24261567D01*
X55038237Y-24263952D01*
X55002784Y-24239750D01*
X55001886Y-24238857D01*
X54987461Y-24220153D01*
X54978687Y-24194732D01*
X54974261Y-24155584D01*
X54972882Y-24095697D01*
X54972857Y-24082430D01*
X54976188Y-23999901D01*
X54987031Y-23942691D01*
X55006660Y-23907766D01*
X55036350Y-23892094D01*
X55053509Y-23890514D01*
X55094234Y-23897926D01*
X55122168Y-23922330D01*
X55138983Y-23966980D01*
X55146350Y-24035130D01*
X55147029Y-24072603D01*
X55286528Y-24072603D01*
X55286292Y-24059245D01*
X55284323Y-23994333D01*
X55281550Y-23946958D01*
X55277612Y-23913290D01*
X55272151Y-23889498D01*
X55264808Y-23871753D01*
X55255223Y-23856224D01*
X55251113Y-23850381D01*
X55196595Y-23795185D01*
X55127664Y-23763890D01*
X55047928Y-23755165D01*
X54978256Y-23763918D01*
G36*
X53861907Y-23771780D02*
G01*
X53815328Y-23798723D01*
X53782943Y-23825466D01*
X53759258Y-23853484D01*
X53742941Y-23887748D01*
X53732661Y-23933227D01*
X53727086Y-23994892D01*
X53724884Y-24077711D01*
X53724629Y-24137246D01*
X53724629Y-24356391D01*
X53786314Y-24384044D01*
X53848000Y-24411697D01*
X53855257Y-24171670D01*
X53858256Y-24082028D01*
X53861402Y-24016962D01*
X53865299Y-23972026D01*
X53870553Y-23942770D01*
X53877769Y-23924748D01*
X53887550Y-23913511D01*
X53890688Y-23911079D01*
X53938239Y-23892083D01*
X53986303Y-23899600D01*
X54014914Y-23919543D01*
X54026553Y-23933675D01*
X54034609Y-23952220D01*
X54039729Y-23980334D01*
X54042559Y-24023173D01*
X54043744Y-24085895D01*
X54043943Y-24151261D01*
X54043982Y-24233268D01*
X54045386Y-24291316D01*
X54050086Y-24330465D01*
X54060013Y-24355780D01*
X54077097Y-24372323D01*
X54103268Y-24385156D01*
X54138225Y-24398491D01*
X54176404Y-24413007D01*
X54171859Y-24155389D01*
X54170029Y-24062519D01*
X54167888Y-23993889D01*
X54164819Y-23944711D01*
X54160206Y-23910198D01*
X54153432Y-23885562D01*
X54143881Y-23866016D01*
X54132366Y-23848770D01*
X54076810Y-23793680D01*
X54009020Y-23761822D01*
X53935287Y-23754191D01*
X53861907Y-23771780D01*
G37*
X53861907Y-23771780D02*
X53815328Y-23798723D01*
X53782943Y-23825466D01*
X53759258Y-23853484D01*
X53742941Y-23887748D01*
X53732661Y-23933227D01*
X53727086Y-23994892D01*
X53724884Y-24077711D01*
X53724629Y-24137246D01*
X53724629Y-24356391D01*
X53786314Y-24384044D01*
X53848000Y-24411697D01*
X53855257Y-24171670D01*
X53858256Y-24082028D01*
X53861402Y-24016962D01*
X53865299Y-23972026D01*
X53870553Y-23942770D01*
X53877769Y-23924748D01*
X53887550Y-23913511D01*
X53890688Y-23911079D01*
X53938239Y-23892083D01*
X53986303Y-23899600D01*
X54014914Y-23919543D01*
X54026553Y-23933675D01*
X54034609Y-23952220D01*
X54039729Y-23980334D01*
X54042559Y-24023173D01*
X54043744Y-24085895D01*
X54043943Y-24151261D01*
X54043982Y-24233268D01*
X54045386Y-24291316D01*
X54050086Y-24330465D01*
X54060013Y-24355780D01*
X54077097Y-24372323D01*
X54103268Y-24385156D01*
X54138225Y-24398491D01*
X54176404Y-24413007D01*
X54171859Y-24155389D01*
X54170029Y-24062519D01*
X54167888Y-23993889D01*
X54164819Y-23944711D01*
X54160206Y-23910198D01*
X54153432Y-23885562D01*
X54143881Y-23866016D01*
X54132366Y-23848770D01*
X54076810Y-23793680D01*
X54009020Y-23761822D01*
X53935287Y-23754191D01*
X53861907Y-23771780D01*
G36*
X55536885Y-23765962D02*
G01*
X55468855Y-23801733D01*
X55418649Y-23859301D01*
X55400815Y-23896312D01*
X55386937Y-23951882D01*
X55379833Y-24022096D01*
X55379160Y-24098727D01*
X55384573Y-24173552D01*
X55395730Y-24238342D01*
X55412286Y-24284873D01*
X55417374Y-24292887D01*
X55477645Y-24352707D01*
X55549231Y-24388535D01*
X55626908Y-24399020D01*
X55705452Y-24382810D01*
X55727311Y-24373092D01*
X55769878Y-24343143D01*
X55807237Y-24303433D01*
X55810768Y-24298397D01*
X55825119Y-24274124D01*
X55834606Y-24248178D01*
X55840210Y-24214022D01*
X55842914Y-24165119D01*
X55843701Y-24094935D01*
X55843714Y-24079200D01*
X55843678Y-24074192D01*
X55698571Y-24074192D01*
X55697727Y-24140430D01*
X55694404Y-24184386D01*
X55687417Y-24212779D01*
X55675584Y-24232325D01*
X55669543Y-24238857D01*
X55634814Y-24263680D01*
X55601097Y-24262548D01*
X55567005Y-24241016D01*
X55546671Y-24218029D01*
X55534629Y-24184478D01*
X55527866Y-24131569D01*
X55527402Y-24125399D01*
X55526248Y-24029513D01*
X55538312Y-23958299D01*
X55563430Y-23912194D01*
X55601440Y-23891635D01*
X55615008Y-23890514D01*
X55650636Y-23896152D01*
X55675006Y-23915686D01*
X55689907Y-23953042D01*
X55697125Y-24012150D01*
X55698571Y-24074192D01*
X55843678Y-24074192D01*
X55843174Y-24004413D01*
X55840904Y-23952159D01*
X55835932Y-23915949D01*
X55827287Y-23889299D01*
X55813995Y-23865722D01*
X55811057Y-23861338D01*
X55761687Y-23802249D01*
X55707891Y-23767947D01*
X55642398Y-23754331D01*
X55620158Y-23753665D01*
X55536885Y-23765962D01*
G37*
X55536885Y-23765962D02*
X55468855Y-23801733D01*
X55418649Y-23859301D01*
X55400815Y-23896312D01*
X55386937Y-23951882D01*
X55379833Y-24022096D01*
X55379160Y-24098727D01*
X55384573Y-24173552D01*
X55395730Y-24238342D01*
X55412286Y-24284873D01*
X55417374Y-24292887D01*
X55477645Y-24352707D01*
X55549231Y-24388535D01*
X55626908Y-24399020D01*
X55705452Y-24382810D01*
X55727311Y-24373092D01*
X55769878Y-24343143D01*
X55807237Y-24303433D01*
X55810768Y-24298397D01*
X55825119Y-24274124D01*
X55834606Y-24248178D01*
X55840210Y-24214022D01*
X55842914Y-24165119D01*
X55843701Y-24094935D01*
X55843714Y-24079200D01*
X55843678Y-24074192D01*
X55698571Y-24074192D01*
X55697727Y-24140430D01*
X55694404Y-24184386D01*
X55687417Y-24212779D01*
X55675584Y-24232325D01*
X55669543Y-24238857D01*
X55634814Y-24263680D01*
X55601097Y-24262548D01*
X55567005Y-24241016D01*
X55546671Y-24218029D01*
X55534629Y-24184478D01*
X55527866Y-24131569D01*
X55527402Y-24125399D01*
X55526248Y-24029513D01*
X55538312Y-23958299D01*
X55563430Y-23912194D01*
X55601440Y-23891635D01*
X55615008Y-23890514D01*
X55650636Y-23896152D01*
X55675006Y-23915686D01*
X55689907Y-23953042D01*
X55697125Y-24012150D01*
X55698571Y-24074192D01*
X55843678Y-24074192D01*
X55843174Y-24004413D01*
X55840904Y-23952159D01*
X55835932Y-23915949D01*
X55827287Y-23889299D01*
X55813995Y-23865722D01*
X55811057Y-23861338D01*
X55761687Y-23802249D01*
X55707891Y-23767947D01*
X55642398Y-23754331D01*
X55620158Y-23753665D01*
X55536885Y-23765962D01*
G36*
X54409697Y-23775239D02*
G01*
X54352473Y-23813735D01*
X54308251Y-23869335D01*
X54281833Y-23940086D01*
X54276490Y-23992162D01*
X54277097Y-24013893D01*
X54282178Y-24030531D01*
X54296145Y-24045437D01*
X54323411Y-24061973D01*
X54368388Y-24083498D01*
X54435489Y-24113374D01*
X54435829Y-24113524D01*
X54497593Y-24141813D01*
X54548241Y-24166933D01*
X54582596Y-24186179D01*
X54595482Y-24196848D01*
X54595486Y-24196934D01*
X54584128Y-24220166D01*
X54557569Y-24245774D01*
X54527077Y-24264221D01*
X54511630Y-24267886D01*
X54469485Y-24255212D01*
X54433192Y-24223471D01*
X54415483Y-24188572D01*
X54398448Y-24162845D01*
X54365078Y-24133546D01*
X54325851Y-24108235D01*
X54291244Y-24094471D01*
X54284007Y-24093714D01*
X54275861Y-24106160D01*
X54275370Y-24137972D01*
X54281357Y-24180866D01*
X54292643Y-24226558D01*
X54308050Y-24266761D01*
X54308829Y-24268322D01*
X54355196Y-24333062D01*
X54415289Y-24377097D01*
X54483535Y-24398711D01*
X54554362Y-24396185D01*
X54622196Y-24367804D01*
X54625212Y-24365808D01*
X54678573Y-24317448D01*
X54713660Y-24254352D01*
X54733078Y-24171387D01*
X54735684Y-24148078D01*
X54740299Y-24038055D01*
X54734767Y-23986748D01*
X54595486Y-23986748D01*
X54593676Y-24018753D01*
X54583778Y-24028093D01*
X54559102Y-24021105D01*
X54520205Y-24004587D01*
X54476725Y-23983881D01*
X54475644Y-23983333D01*
X54438791Y-23963949D01*
X54424000Y-23951013D01*
X54427647Y-23937451D01*
X54443005Y-23919632D01*
X54482077Y-23893845D01*
X54524154Y-23891950D01*
X54561897Y-23910717D01*
X54587966Y-23946915D01*
X54595486Y-23986748D01*
X54734767Y-23986748D01*
X54730806Y-23950027D01*
X54706450Y-23880212D01*
X54672544Y-23831302D01*
X54611347Y-23781878D01*
X54543937Y-23757359D01*
X54475120Y-23755797D01*
X54409697Y-23775239D01*
G37*
X54409697Y-23775239D02*
X54352473Y-23813735D01*
X54308251Y-23869335D01*
X54281833Y-23940086D01*
X54276490Y-23992162D01*
X54277097Y-24013893D01*
X54282178Y-24030531D01*
X54296145Y-24045437D01*
X54323411Y-24061973D01*
X54368388Y-24083498D01*
X54435489Y-24113374D01*
X54435829Y-24113524D01*
X54497593Y-24141813D01*
X54548241Y-24166933D01*
X54582596Y-24186179D01*
X54595482Y-24196848D01*
X54595486Y-24196934D01*
X54584128Y-24220166D01*
X54557569Y-24245774D01*
X54527077Y-24264221D01*
X54511630Y-24267886D01*
X54469485Y-24255212D01*
X54433192Y-24223471D01*
X54415483Y-24188572D01*
X54398448Y-24162845D01*
X54365078Y-24133546D01*
X54325851Y-24108235D01*
X54291244Y-24094471D01*
X54284007Y-24093714D01*
X54275861Y-24106160D01*
X54275370Y-24137972D01*
X54281357Y-24180866D01*
X54292643Y-24226558D01*
X54308050Y-24266761D01*
X54308829Y-24268322D01*
X54355196Y-24333062D01*
X54415289Y-24377097D01*
X54483535Y-24398711D01*
X54554362Y-24396185D01*
X54622196Y-24367804D01*
X54625212Y-24365808D01*
X54678573Y-24317448D01*
X54713660Y-24254352D01*
X54733078Y-24171387D01*
X54735684Y-24148078D01*
X54740299Y-24038055D01*
X54734767Y-23986748D01*
X54595486Y-23986748D01*
X54593676Y-24018753D01*
X54583778Y-24028093D01*
X54559102Y-24021105D01*
X54520205Y-24004587D01*
X54476725Y-23983881D01*
X54475644Y-23983333D01*
X54438791Y-23963949D01*
X54424000Y-23951013D01*
X54427647Y-23937451D01*
X54443005Y-23919632D01*
X54482077Y-23893845D01*
X54524154Y-23891950D01*
X54561897Y-23910717D01*
X54587966Y-23946915D01*
X54595486Y-23986748D01*
X54734767Y-23986748D01*
X54730806Y-23950027D01*
X54706450Y-23880212D01*
X54672544Y-23831302D01*
X54611347Y-23781878D01*
X54543937Y-23757359D01*
X54475120Y-23755797D01*
X54409697Y-23775239D01*
G36*
X53202114Y-23695289D02*
G01*
X53197861Y-23754613D01*
X53192975Y-23789572D01*
X53186205Y-23804820D01*
X53176298Y-23805015D01*
X53173086Y-23803195D01*
X53130356Y-23790015D01*
X53074773Y-23790785D01*
X53018263Y-23804333D01*
X52982918Y-23821861D01*
X52946679Y-23849861D01*
X52920187Y-23881549D01*
X52902001Y-23921813D01*
X52890678Y-23975543D01*
X52884778Y-24047626D01*
X52882857Y-24142951D01*
X52882823Y-24161237D01*
X52882800Y-24366646D01*
X52928509Y-24382580D01*
X52960973Y-24393420D01*
X52978785Y-24398468D01*
X52979309Y-24398514D01*
X52981063Y-24384828D01*
X52982556Y-24347076D01*
X52983674Y-24290224D01*
X52984303Y-24219234D01*
X52984400Y-24176073D01*
X52984602Y-24090973D01*
X52985642Y-24029981D01*
X52988169Y-23988177D01*
X52992836Y-23960642D01*
X53000293Y-23942456D01*
X53011189Y-23928698D01*
X53017993Y-23922073D01*
X53064728Y-23895375D01*
X53115728Y-23893375D01*
X53161999Y-23915955D01*
X53170556Y-23924107D01*
X53183107Y-23939436D01*
X53191812Y-23957618D01*
X53197369Y-23983909D01*
X53200474Y-24023562D01*
X53201824Y-24081832D01*
X53202114Y-24162173D01*
X53202114Y-24366646D01*
X53247823Y-24382580D01*
X53280287Y-24393420D01*
X53298099Y-24398468D01*
X53298623Y-24398514D01*
X53299963Y-24384623D01*
X53301172Y-24345439D01*
X53302199Y-24284700D01*
X53302998Y-24206141D01*
X53303519Y-24113498D01*
X53303714Y-24010509D01*
X53303714Y-23613342D01*
X53256543Y-23593444D01*
X53209371Y-23573547D01*
X53202114Y-23695289D01*
G37*
X53202114Y-23695289D02*
X53197861Y-23754613D01*
X53192975Y-23789572D01*
X53186205Y-23804820D01*
X53176298Y-23805015D01*
X53173086Y-23803195D01*
X53130356Y-23790015D01*
X53074773Y-23790785D01*
X53018263Y-23804333D01*
X52982918Y-23821861D01*
X52946679Y-23849861D01*
X52920187Y-23881549D01*
X52902001Y-23921813D01*
X52890678Y-23975543D01*
X52884778Y-24047626D01*
X52882857Y-24142951D01*
X52882823Y-24161237D01*
X52882800Y-24366646D01*
X52928509Y-24382580D01*
X52960973Y-24393420D01*
X52978785Y-24398468D01*
X52979309Y-24398514D01*
X52981063Y-24384828D01*
X52982556Y-24347076D01*
X52983674Y-24290224D01*
X52984303Y-24219234D01*
X52984400Y-24176073D01*
X52984602Y-24090973D01*
X52985642Y-24029981D01*
X52988169Y-23988177D01*
X52992836Y-23960642D01*
X53000293Y-23942456D01*
X53011189Y-23928698D01*
X53017993Y-23922073D01*
X53064728Y-23895375D01*
X53115728Y-23893375D01*
X53161999Y-23915955D01*
X53170556Y-23924107D01*
X53183107Y-23939436D01*
X53191812Y-23957618D01*
X53197369Y-23983909D01*
X53200474Y-24023562D01*
X53201824Y-24081832D01*
X53202114Y-24162173D01*
X53202114Y-24366646D01*
X53247823Y-24382580D01*
X53280287Y-24393420D01*
X53298099Y-24398468D01*
X53298623Y-24398514D01*
X53299963Y-24384623D01*
X53301172Y-24345439D01*
X53302199Y-24284700D01*
X53302998Y-24206141D01*
X53303519Y-24113498D01*
X53303714Y-24010509D01*
X53303714Y-23613342D01*
X53256543Y-23593444D01*
X53209371Y-23573547D01*
X53202114Y-23695289D01*
G36*
X52538256Y-23794968D02*
G01*
X52481384Y-23816087D01*
X52480733Y-23816493D01*
X52445560Y-23842380D01*
X52419593Y-23872633D01*
X52401330Y-23912058D01*
X52389268Y-23965462D01*
X52381904Y-24037651D01*
X52377736Y-24133432D01*
X52377371Y-24147078D01*
X52372124Y-24352842D01*
X52416284Y-24375678D01*
X52448237Y-24391110D01*
X52467530Y-24398423D01*
X52468422Y-24398514D01*
X52471761Y-24385022D01*
X52474413Y-24348626D01*
X52476044Y-24295452D01*
X52476400Y-24252393D01*
X52476408Y-24182641D01*
X52479597Y-24138837D01*
X52490712Y-24117944D01*
X52514499Y-24116925D01*
X52555704Y-24132741D01*
X52617914Y-24161815D01*
X52663659Y-24185963D01*
X52687187Y-24206913D01*
X52694104Y-24229747D01*
X52694114Y-24230877D01*
X52682701Y-24270212D01*
X52648908Y-24291462D01*
X52597191Y-24294539D01*
X52559939Y-24294006D01*
X52540297Y-24304735D01*
X52528048Y-24330505D01*
X52520998Y-24363337D01*
X52531158Y-24381966D01*
X52534983Y-24384632D01*
X52570999Y-24395340D01*
X52621434Y-24396856D01*
X52673374Y-24389759D01*
X52710178Y-24376788D01*
X52761062Y-24333585D01*
X52789986Y-24273446D01*
X52795714Y-24226462D01*
X52791343Y-24184082D01*
X52775525Y-24149488D01*
X52744203Y-24118763D01*
X52693322Y-24087990D01*
X52618824Y-24053252D01*
X52614286Y-24051288D01*
X52547179Y-24020287D01*
X52505768Y-23994862D01*
X52488019Y-23972014D01*
X52491893Y-23948745D01*
X52515357Y-23922056D01*
X52522373Y-23915914D01*
X52569370Y-23892100D01*
X52618067Y-23893103D01*
X52660478Y-23916451D01*
X52688616Y-23959675D01*
X52691231Y-23968160D01*
X52716692Y-24009308D01*
X52748999Y-24029128D01*
X52795714Y-24048770D01*
X52795714Y-23997950D01*
X52781504Y-23924082D01*
X52739325Y-23856327D01*
X52717376Y-23833661D01*
X52667483Y-23804569D01*
X52604033Y-23791400D01*
X52538256Y-23794968D01*
G37*
X52538256Y-23794968D02*
X52481384Y-23816087D01*
X52480733Y-23816493D01*
X52445560Y-23842380D01*
X52419593Y-23872633D01*
X52401330Y-23912058D01*
X52389268Y-23965462D01*
X52381904Y-24037651D01*
X52377736Y-24133432D01*
X52377371Y-24147078D01*
X52372124Y-24352842D01*
X52416284Y-24375678D01*
X52448237Y-24391110D01*
X52467530Y-24398423D01*
X52468422Y-24398514D01*
X52471761Y-24385022D01*
X52474413Y-24348626D01*
X52476044Y-24295452D01*
X52476400Y-24252393D01*
X52476408Y-24182641D01*
X52479597Y-24138837D01*
X52490712Y-24117944D01*
X52514499Y-24116925D01*
X52555704Y-24132741D01*
X52617914Y-24161815D01*
X52663659Y-24185963D01*
X52687187Y-24206913D01*
X52694104Y-24229747D01*
X52694114Y-24230877D01*
X52682701Y-24270212D01*
X52648908Y-24291462D01*
X52597191Y-24294539D01*
X52559939Y-24294006D01*
X52540297Y-24304735D01*
X52528048Y-24330505D01*
X52520998Y-24363337D01*
X52531158Y-24381966D01*
X52534983Y-24384632D01*
X52570999Y-24395340D01*
X52621434Y-24396856D01*
X52673374Y-24389759D01*
X52710178Y-24376788D01*
X52761062Y-24333585D01*
X52789986Y-24273446D01*
X52795714Y-24226462D01*
X52791343Y-24184082D01*
X52775525Y-24149488D01*
X52744203Y-24118763D01*
X52693322Y-24087990D01*
X52618824Y-24053252D01*
X52614286Y-24051288D01*
X52547179Y-24020287D01*
X52505768Y-23994862D01*
X52488019Y-23972014D01*
X52491893Y-23948745D01*
X52515357Y-23922056D01*
X52522373Y-23915914D01*
X52569370Y-23892100D01*
X52618067Y-23893103D01*
X52660478Y-23916451D01*
X52688616Y-23959675D01*
X52691231Y-23968160D01*
X52716692Y-24009308D01*
X52748999Y-24029128D01*
X52795714Y-24048770D01*
X52795714Y-23997950D01*
X52781504Y-23924082D01*
X52739325Y-23856327D01*
X52717376Y-23833661D01*
X52667483Y-23804569D01*
X52604033Y-23791400D01*
X52538256Y-23794968D01*
G36*
X52048074Y-23793755D02*
G01*
X51982142Y-23818084D01*
X51928727Y-23861117D01*
X51907836Y-23891409D01*
X51885061Y-23946994D01*
X51885534Y-23987186D01*
X51909438Y-24014217D01*
X51918283Y-24018813D01*
X51956470Y-24033144D01*
X51975972Y-24029472D01*
X51982578Y-24005407D01*
X51982914Y-23992114D01*
X51995008Y-23943210D01*
X52026529Y-23908999D01*
X52070341Y-23892476D01*
X52119305Y-23896634D01*
X52159106Y-23918227D01*
X52172550Y-23930544D01*
X52182079Y-23945487D01*
X52188515Y-23968075D01*
X52192683Y-24003328D01*
X52195403Y-24056266D01*
X52197498Y-24131907D01*
X52198040Y-24155857D01*
X52200019Y-24237790D01*
X52202269Y-24295455D01*
X52205643Y-24333608D01*
X52210994Y-24357004D01*
X52219176Y-24370398D01*
X52231041Y-24378545D01*
X52238638Y-24382144D01*
X52270898Y-24394452D01*
X52289889Y-24398514D01*
X52296164Y-24384948D01*
X52299994Y-24343934D01*
X52301400Y-24274999D01*
X52300402Y-24177669D01*
X52300092Y-24162657D01*
X52297899Y-24073859D01*
X52295307Y-24009019D01*
X52291618Y-23963067D01*
X52286136Y-23930935D01*
X52278165Y-23907553D01*
X52267007Y-23887852D01*
X52261170Y-23879410D01*
X52227704Y-23842057D01*
X52190273Y-23813003D01*
X52185691Y-23810467D01*
X52118574Y-23790443D01*
X52048074Y-23793755D01*
G37*
X52048074Y-23793755D02*
X51982142Y-23818084D01*
X51928727Y-23861117D01*
X51907836Y-23891409D01*
X51885061Y-23946994D01*
X51885534Y-23987186D01*
X51909438Y-24014217D01*
X51918283Y-24018813D01*
X51956470Y-24033144D01*
X51975972Y-24029472D01*
X51982578Y-24005407D01*
X51982914Y-23992114D01*
X51995008Y-23943210D01*
X52026529Y-23908999D01*
X52070341Y-23892476D01*
X52119305Y-23896634D01*
X52159106Y-23918227D01*
X52172550Y-23930544D01*
X52182079Y-23945487D01*
X52188515Y-23968075D01*
X52192683Y-24003328D01*
X52195403Y-24056266D01*
X52197498Y-24131907D01*
X52198040Y-24155857D01*
X52200019Y-24237790D01*
X52202269Y-24295455D01*
X52205643Y-24333608D01*
X52210994Y-24357004D01*
X52219176Y-24370398D01*
X52231041Y-24378545D01*
X52238638Y-24382144D01*
X52270898Y-24394452D01*
X52289889Y-24398514D01*
X52296164Y-24384948D01*
X52299994Y-24343934D01*
X52301400Y-24274999D01*
X52300402Y-24177669D01*
X52300092Y-24162657D01*
X52297899Y-24073859D01*
X52295307Y-24009019D01*
X52291618Y-23963067D01*
X52286136Y-23930935D01*
X52278165Y-23907553D01*
X52267007Y-23887852D01*
X52261170Y-23879410D01*
X52227704Y-23842057D01*
X52190273Y-23813003D01*
X52185691Y-23810467D01*
X52118574Y-23790443D01*
X52048074Y-23793755D01*
G36*
X51387883Y-23909358D02*
G01*
X51388067Y-24017837D01*
X51388781Y-24101287D01*
X51390325Y-24163704D01*
X51392999Y-24209085D01*
X51397106Y-24241429D01*
X51402945Y-24264733D01*
X51410818Y-24282995D01*
X51416779Y-24293418D01*
X51466145Y-24349945D01*
X51528736Y-24385377D01*
X51597987Y-24398090D01*
X51667332Y-24386463D01*
X51708625Y-24365568D01*
X51751975Y-24329422D01*
X51781519Y-24285276D01*
X51799345Y-24227462D01*
X51807537Y-24150313D01*
X51808698Y-24093714D01*
X51808542Y-24089647D01*
X51707143Y-24089647D01*
X51706524Y-24154550D01*
X51703686Y-24197514D01*
X51697160Y-24225622D01*
X51685477Y-24245953D01*
X51671517Y-24261288D01*
X51624635Y-24290890D01*
X51574299Y-24293419D01*
X51526724Y-24268705D01*
X51523021Y-24265356D01*
X51507217Y-24247935D01*
X51497307Y-24227209D01*
X51491942Y-24196362D01*
X51489772Y-24148577D01*
X51489429Y-24095748D01*
X51490173Y-24029381D01*
X51493252Y-23985106D01*
X51499939Y-23956009D01*
X51511504Y-23935173D01*
X51520987Y-23924107D01*
X51565040Y-23896198D01*
X51615776Y-23892843D01*
X51664204Y-23914159D01*
X51673550Y-23922073D01*
X51689460Y-23939647D01*
X51699390Y-23960587D01*
X51704722Y-23991782D01*
X51706837Y-24040122D01*
X51707143Y-24089647D01*
X51808542Y-24089647D01*
X51805190Y-24002568D01*
X51793274Y-23934086D01*
X51770865Y-23882600D01*
X51735876Y-23842443D01*
X51708625Y-23821861D01*
X51659093Y-23799625D01*
X51601684Y-23789304D01*
X51548318Y-23792067D01*
X51518457Y-23803212D01*
X51506739Y-23806383D01*
X51498963Y-23794557D01*
X51493535Y-23762866D01*
X51489429Y-23714593D01*
X51484933Y-23660829D01*
X51478687Y-23628482D01*
X51467324Y-23609985D01*
X51447472Y-23597770D01*
X51435000Y-23592362D01*
X51387829Y-23572601D01*
X51387883Y-23909358D01*
G37*
X51387883Y-23909358D02*
X51388067Y-24017837D01*
X51388781Y-24101287D01*
X51390325Y-24163704D01*
X51392999Y-24209085D01*
X51397106Y-24241429D01*
X51402945Y-24264733D01*
X51410818Y-24282995D01*
X51416779Y-24293418D01*
X51466145Y-24349945D01*
X51528736Y-24385377D01*
X51597987Y-24398090D01*
X51667332Y-24386463D01*
X51708625Y-24365568D01*
X51751975Y-24329422D01*
X51781519Y-24285276D01*
X51799345Y-24227462D01*
X51807537Y-24150313D01*
X51808698Y-24093714D01*
X51808542Y-24089647D01*
X51707143Y-24089647D01*
X51706524Y-24154550D01*
X51703686Y-24197514D01*
X51697160Y-24225622D01*
X51685477Y-24245953D01*
X51671517Y-24261288D01*
X51624635Y-24290890D01*
X51574299Y-24293419D01*
X51526724Y-24268705D01*
X51523021Y-24265356D01*
X51507217Y-24247935D01*
X51497307Y-24227209D01*
X51491942Y-24196362D01*
X51489772Y-24148577D01*
X51489429Y-24095748D01*
X51490173Y-24029381D01*
X51493252Y-23985106D01*
X51499939Y-23956009D01*
X51511504Y-23935173D01*
X51520987Y-23924107D01*
X51565040Y-23896198D01*
X51615776Y-23892843D01*
X51664204Y-23914159D01*
X51673550Y-23922073D01*
X51689460Y-23939647D01*
X51699390Y-23960587D01*
X51704722Y-23991782D01*
X51706837Y-24040122D01*
X51707143Y-24089647D01*
X51808542Y-24089647D01*
X51805190Y-24002568D01*
X51793274Y-23934086D01*
X51770865Y-23882600D01*
X51735876Y-23842443D01*
X51708625Y-23821861D01*
X51659093Y-23799625D01*
X51601684Y-23789304D01*
X51548318Y-23792067D01*
X51518457Y-23803212D01*
X51506739Y-23806383D01*
X51498963Y-23794557D01*
X51493535Y-23762866D01*
X51489429Y-23714593D01*
X51484933Y-23660829D01*
X51478687Y-23628482D01*
X51467324Y-23609985D01*
X51447472Y-23597770D01*
X51435000Y-23592362D01*
X51387829Y-23572601D01*
X51387883Y-23909358D01*
G36*
X50798167Y-23802663D02*
G01*
X50795952Y-23840850D01*
X50794216Y-23898886D01*
X50793101Y-23972180D01*
X50792743Y-24049055D01*
X50792743Y-24309196D01*
X50838674Y-24355127D01*
X50870325Y-24383429D01*
X50898110Y-24394893D01*
X50936085Y-24394168D01*
X50951160Y-24392321D01*
X50998274Y-24386948D01*
X51037244Y-24383869D01*
X51046743Y-24383585D01*
X51078767Y-24385445D01*
X51124568Y-24390114D01*
X51142326Y-24392321D01*
X51185943Y-24395735D01*
X51215255Y-24388320D01*
X51244320Y-24365427D01*
X51254812Y-24355127D01*
X51300743Y-24309196D01*
X51300743Y-23822602D01*
X51263774Y-23805758D01*
X51231941Y-23793282D01*
X51213317Y-23788914D01*
X51208542Y-23802718D01*
X51204079Y-23841286D01*
X51200225Y-23900356D01*
X51197278Y-23975663D01*
X51195857Y-24039286D01*
X51191886Y-24289657D01*
X51157241Y-24294556D01*
X51125732Y-24291131D01*
X51110292Y-24280041D01*
X51105977Y-24259308D01*
X51102292Y-24215145D01*
X51099531Y-24153146D01*
X51097988Y-24078909D01*
X51097765Y-24040706D01*
X51097543Y-23820783D01*
X51051834Y-23804849D01*
X51019482Y-23794015D01*
X51001885Y-23788962D01*
X51001377Y-23788914D01*
X50999612Y-23802648D01*
X50997671Y-23840730D01*
X50995718Y-23898482D01*
X50993916Y-23971227D01*
X50992657Y-24039286D01*
X50988686Y-24289657D01*
X50901600Y-24289657D01*
X50897604Y-24061240D01*
X50893608Y-23832822D01*
X50851153Y-23810868D01*
X50819808Y-23795793D01*
X50801256Y-23788951D01*
X50800721Y-23788914D01*
X50798167Y-23802663D01*
G37*
X50798167Y-23802663D02*
X50795952Y-23840850D01*
X50794216Y-23898886D01*
X50793101Y-23972180D01*
X50792743Y-24049055D01*
X50792743Y-24309196D01*
X50838674Y-24355127D01*
X50870325Y-24383429D01*
X50898110Y-24394893D01*
X50936085Y-24394168D01*
X50951160Y-24392321D01*
X50998274Y-24386948D01*
X51037244Y-24383869D01*
X51046743Y-24383585D01*
X51078767Y-24385445D01*
X51124568Y-24390114D01*
X51142326Y-24392321D01*
X51185943Y-24395735D01*
X51215255Y-24388320D01*
X51244320Y-24365427D01*
X51254812Y-24355127D01*
X51300743Y-24309196D01*
X51300743Y-23822602D01*
X51263774Y-23805758D01*
X51231941Y-23793282D01*
X51213317Y-23788914D01*
X51208542Y-23802718D01*
X51204079Y-23841286D01*
X51200225Y-23900356D01*
X51197278Y-23975663D01*
X51195857Y-24039286D01*
X51191886Y-24289657D01*
X51157241Y-24294556D01*
X51125732Y-24291131D01*
X51110292Y-24280041D01*
X51105977Y-24259308D01*
X51102292Y-24215145D01*
X51099531Y-24153146D01*
X51097988Y-24078909D01*
X51097765Y-24040706D01*
X51097543Y-23820783D01*
X51051834Y-23804849D01*
X51019482Y-23794015D01*
X51001885Y-23788962D01*
X51001377Y-23788914D01*
X50999612Y-23802648D01*
X50997671Y-23840730D01*
X50995718Y-23898482D01*
X50993916Y-23971227D01*
X50992657Y-24039286D01*
X50988686Y-24289657D01*
X50901600Y-24289657D01*
X50897604Y-24061240D01*
X50893608Y-23832822D01*
X50851153Y-23810868D01*
X50819808Y-23795793D01*
X50801256Y-23788951D01*
X50800721Y-23788914D01*
X50798167Y-23802663D01*
G36*
X50433124Y-23800335D02*
G01*
X50391333Y-23819344D01*
X50358531Y-23842378D01*
X50334497Y-23868133D01*
X50317903Y-23901358D01*
X50307423Y-23946800D01*
X50301729Y-24009207D01*
X50299493Y-24093327D01*
X50299257Y-24148721D01*
X50299257Y-24364826D01*
X50336226Y-24381670D01*
X50365344Y-24393981D01*
X50379769Y-24398514D01*
X50382528Y-24385025D01*
X50384718Y-24348653D01*
X50386058Y-24295542D01*
X50386343Y-24253372D01*
X50387566Y-24192447D01*
X50390864Y-24144115D01*
X50395679Y-24114518D01*
X50399504Y-24108229D01*
X50425217Y-24114652D01*
X50465582Y-24131125D01*
X50512321Y-24153458D01*
X50557155Y-24177457D01*
X50591807Y-24198930D01*
X50607998Y-24213685D01*
X50608062Y-24213845D01*
X50606670Y-24241152D01*
X50594182Y-24267219D01*
X50572257Y-24288392D01*
X50540257Y-24295474D01*
X50512908Y-24294649D01*
X50474174Y-24294042D01*
X50453842Y-24303116D01*
X50441631Y-24327092D01*
X50440091Y-24331613D01*
X50434797Y-24365806D01*
X50448953Y-24386568D01*
X50485852Y-24396462D01*
X50525711Y-24398292D01*
X50597438Y-24384727D01*
X50634568Y-24365355D01*
X50680424Y-24319845D01*
X50704744Y-24263983D01*
X50706927Y-24204957D01*
X50686371Y-24149953D01*
X50655451Y-24115486D01*
X50624580Y-24096189D01*
X50576058Y-24071759D01*
X50519515Y-24046985D01*
X50510090Y-24043199D01*
X50447981Y-24015791D01*
X50412178Y-23991634D01*
X50400663Y-23967619D01*
X50411420Y-23940635D01*
X50429886Y-23919543D01*
X50473531Y-23893572D01*
X50521554Y-23891624D01*
X50565594Y-23911637D01*
X50597291Y-23951551D01*
X50601451Y-23961848D01*
X50625673Y-23999724D01*
X50661035Y-24027842D01*
X50705657Y-24050917D01*
X50705657Y-23985485D01*
X50703031Y-23945506D01*
X50691770Y-23913997D01*
X50666801Y-23880378D01*
X50642831Y-23854484D01*
X50605559Y-23817817D01*
X50576599Y-23798121D01*
X50545495Y-23790220D01*
X50510287Y-23788914D01*
X50433124Y-23800335D01*
G37*
X50433124Y-23800335D02*
X50391333Y-23819344D01*
X50358531Y-23842378D01*
X50334497Y-23868133D01*
X50317903Y-23901358D01*
X50307423Y-23946800D01*
X50301729Y-24009207D01*
X50299493Y-24093327D01*
X50299257Y-24148721D01*
X50299257Y-24364826D01*
X50336226Y-24381670D01*
X50365344Y-24393981D01*
X50379769Y-24398514D01*
X50382528Y-24385025D01*
X50384718Y-24348653D01*
X50386058Y-24295542D01*
X50386343Y-24253372D01*
X50387566Y-24192447D01*
X50390864Y-24144115D01*
X50395679Y-24114518D01*
X50399504Y-24108229D01*
X50425217Y-24114652D01*
X50465582Y-24131125D01*
X50512321Y-24153458D01*
X50557155Y-24177457D01*
X50591807Y-24198930D01*
X50607998Y-24213685D01*
X50608062Y-24213845D01*
X50606670Y-24241152D01*
X50594182Y-24267219D01*
X50572257Y-24288392D01*
X50540257Y-24295474D01*
X50512908Y-24294649D01*
X50474174Y-24294042D01*
X50453842Y-24303116D01*
X50441631Y-24327092D01*
X50440091Y-24331613D01*
X50434797Y-24365806D01*
X50448953Y-24386568D01*
X50485852Y-24396462D01*
X50525711Y-24398292D01*
X50597438Y-24384727D01*
X50634568Y-24365355D01*
X50680424Y-24319845D01*
X50704744Y-24263983D01*
X50706927Y-24204957D01*
X50686371Y-24149953D01*
X50655451Y-24115486D01*
X50624580Y-24096189D01*
X50576058Y-24071759D01*
X50519515Y-24046985D01*
X50510090Y-24043199D01*
X50447981Y-24015791D01*
X50412178Y-23991634D01*
X50400663Y-23967619D01*
X50411420Y-23940635D01*
X50429886Y-23919543D01*
X50473531Y-23893572D01*
X50521554Y-23891624D01*
X50565594Y-23911637D01*
X50597291Y-23951551D01*
X50601451Y-23961848D01*
X50625673Y-23999724D01*
X50661035Y-24027842D01*
X50705657Y-24050917D01*
X50705657Y-23985485D01*
X50703031Y-23945506D01*
X50691770Y-23913997D01*
X50666801Y-23880378D01*
X50642831Y-23854484D01*
X50605559Y-23817817D01*
X50576599Y-23798121D01*
X50545495Y-23790220D01*
X50510287Y-23788914D01*
X50433124Y-23800335D01*
G36*
X49925400Y-23802752D02*
G01*
X49908052Y-23810334D01*
X49866644Y-23843128D01*
X49831235Y-23890547D01*
X49809336Y-23941151D01*
X49805771Y-23966098D01*
X49817721Y-24000927D01*
X49843933Y-24019357D01*
X49872036Y-24030516D01*
X49884905Y-24032572D01*
X49891171Y-24017649D01*
X49903544Y-23985175D01*
X49908972Y-23970502D01*
X49939410Y-23919744D01*
X49983480Y-23894427D01*
X50039990Y-23895206D01*
X50044175Y-23896203D01*
X50074345Y-23910507D01*
X50096524Y-23938393D01*
X50111673Y-23983287D01*
X50120750Y-24048615D01*
X50124714Y-24137804D01*
X50125086Y-24185261D01*
X50125270Y-24260071D01*
X50126478Y-24311069D01*
X50129691Y-24343471D01*
X50135891Y-24362495D01*
X50146060Y-24373356D01*
X50161181Y-24381272D01*
X50162054Y-24381670D01*
X50191172Y-24393981D01*
X50205597Y-24398514D01*
X50207814Y-24384809D01*
X50209711Y-24346925D01*
X50211153Y-24289715D01*
X50212002Y-24218027D01*
X50212171Y-24165565D01*
X50211308Y-24064047D01*
X50207930Y-23987032D01*
X50200858Y-23930023D01*
X50188912Y-23888526D01*
X50170910Y-23858043D01*
X50145673Y-23834080D01*
X50120753Y-23817355D01*
X50060829Y-23795097D01*
X49991089Y-23790076D01*
X49925400Y-23802752D01*
G37*
X49925400Y-23802752D02*
X49908052Y-23810334D01*
X49866644Y-23843128D01*
X49831235Y-23890547D01*
X49809336Y-23941151D01*
X49805771Y-23966098D01*
X49817721Y-24000927D01*
X49843933Y-24019357D01*
X49872036Y-24030516D01*
X49884905Y-24032572D01*
X49891171Y-24017649D01*
X49903544Y-23985175D01*
X49908972Y-23970502D01*
X49939410Y-23919744D01*
X49983480Y-23894427D01*
X50039990Y-23895206D01*
X50044175Y-23896203D01*
X50074345Y-23910507D01*
X50096524Y-23938393D01*
X50111673Y-23983287D01*
X50120750Y-24048615D01*
X50124714Y-24137804D01*
X50125086Y-24185261D01*
X50125270Y-24260071D01*
X50126478Y-24311069D01*
X50129691Y-24343471D01*
X50135891Y-24362495D01*
X50146060Y-24373356D01*
X50161181Y-24381272D01*
X50162054Y-24381670D01*
X50191172Y-24393981D01*
X50205597Y-24398514D01*
X50207814Y-24384809D01*
X50209711Y-24346925D01*
X50211153Y-24289715D01*
X50212002Y-24218027D01*
X50212171Y-24165565D01*
X50211308Y-24064047D01*
X50207930Y-23987032D01*
X50200858Y-23930023D01*
X50188912Y-23888526D01*
X50170910Y-23858043D01*
X50145673Y-23834080D01*
X50120753Y-23817355D01*
X50060829Y-23795097D01*
X49991089Y-23790076D01*
X49925400Y-23802752D01*
G36*
X49424405Y-23810966D02*
G01*
X49366979Y-23848497D01*
X49339281Y-23882096D01*
X49317338Y-23943064D01*
X49315595Y-23991308D01*
X49319543Y-24055816D01*
X49468314Y-24120934D01*
X49540651Y-24154202D01*
X49587916Y-24180964D01*
X49612493Y-24204144D01*
X49616763Y-24226667D01*
X49603111Y-24251455D01*
X49588057Y-24267886D01*
X49544254Y-24294235D01*
X49496611Y-24296081D01*
X49452855Y-24275546D01*
X49420711Y-24234752D01*
X49414962Y-24220347D01*
X49387424Y-24175356D01*
X49355742Y-24156182D01*
X49312286Y-24139779D01*
X49312286Y-24201966D01*
X49316128Y-24244283D01*
X49331177Y-24279969D01*
X49362720Y-24320943D01*
X49367408Y-24326267D01*
X49402494Y-24362720D01*
X49432653Y-24382283D01*
X49470385Y-24391283D01*
X49501665Y-24394230D01*
X49557615Y-24394965D01*
X49597445Y-24385660D01*
X49622292Y-24371846D01*
X49661344Y-24341467D01*
X49688375Y-24308613D01*
X49705483Y-24267294D01*
X49714762Y-24211521D01*
X49718307Y-24135305D01*
X49718590Y-24096622D01*
X49717628Y-24050247D01*
X49629993Y-24050247D01*
X49628977Y-24075126D01*
X49626444Y-24079200D01*
X49609726Y-24073665D01*
X49573751Y-24059017D01*
X49525669Y-24038190D01*
X49515614Y-24033714D01*
X49454848Y-24002814D01*
X49421368Y-23975657D01*
X49414010Y-23950220D01*
X49431609Y-23924481D01*
X49446144Y-23913109D01*
X49498590Y-23890364D01*
X49547678Y-23894122D01*
X49588773Y-23921884D01*
X49617242Y-23971152D01*
X49626369Y-24010257D01*
X49629993Y-24050247D01*
X49717628Y-24050247D01*
X49716715Y-24006249D01*
X49709804Y-23939384D01*
X49696116Y-23890695D01*
X49673904Y-23854849D01*
X49641426Y-23826513D01*
X49627267Y-23817355D01*
X49562947Y-23793507D01*
X49492527Y-23792006D01*
X49424405Y-23810966D01*
G37*
X49424405Y-23810966D02*
X49366979Y-23848497D01*
X49339281Y-23882096D01*
X49317338Y-23943064D01*
X49315595Y-23991308D01*
X49319543Y-24055816D01*
X49468314Y-24120934D01*
X49540651Y-24154202D01*
X49587916Y-24180964D01*
X49612493Y-24204144D01*
X49616763Y-24226667D01*
X49603111Y-24251455D01*
X49588057Y-24267886D01*
X49544254Y-24294235D01*
X49496611Y-24296081D01*
X49452855Y-24275546D01*
X49420711Y-24234752D01*
X49414962Y-24220347D01*
X49387424Y-24175356D01*
X49355742Y-24156182D01*
X49312286Y-24139779D01*
X49312286Y-24201966D01*
X49316128Y-24244283D01*
X49331177Y-24279969D01*
X49362720Y-24320943D01*
X49367408Y-24326267D01*
X49402494Y-24362720D01*
X49432653Y-24382283D01*
X49470385Y-24391283D01*
X49501665Y-24394230D01*
X49557615Y-24394965D01*
X49597445Y-24385660D01*
X49622292Y-24371846D01*
X49661344Y-24341467D01*
X49688375Y-24308613D01*
X49705483Y-24267294D01*
X49714762Y-24211521D01*
X49718307Y-24135305D01*
X49718590Y-24096622D01*
X49717628Y-24050247D01*
X49629993Y-24050247D01*
X49628977Y-24075126D01*
X49626444Y-24079200D01*
X49609726Y-24073665D01*
X49573751Y-24059017D01*
X49525669Y-24038190D01*
X49515614Y-24033714D01*
X49454848Y-24002814D01*
X49421368Y-23975657D01*
X49414010Y-23950220D01*
X49431609Y-23924481D01*
X49446144Y-23913109D01*
X49498590Y-23890364D01*
X49547678Y-23894122D01*
X49588773Y-23921884D01*
X49617242Y-23971152D01*
X49626369Y-24010257D01*
X49629993Y-24050247D01*
X49717628Y-24050247D01*
X49716715Y-24006249D01*
X49709804Y-23939384D01*
X49696116Y-23890695D01*
X49673904Y-23854849D01*
X49641426Y-23826513D01*
X49627267Y-23817355D01*
X49562947Y-23793507D01*
X49492527Y-23792006D01*
X49424405Y-23810966D01*
G36*
X52474090Y-19086348D02*
G01*
X52395546Y-19086778D01*
X52338702Y-19087942D01*
X52299895Y-19090207D01*
X52275462Y-19093940D01*
X52261738Y-19099506D01*
X52255060Y-19107273D01*
X52251764Y-19117605D01*
X52251444Y-19118943D01*
X52246438Y-19143079D01*
X52237171Y-19190701D01*
X52224608Y-19256741D01*
X52209713Y-19336128D01*
X52193449Y-19423796D01*
X52192881Y-19426875D01*
X52176590Y-19512789D01*
X52161348Y-19588696D01*
X52148139Y-19650045D01*
X52137946Y-19692282D01*
X52131752Y-19710855D01*
X52131457Y-19711184D01*
X52113212Y-19720253D01*
X52075595Y-19735367D01*
X52026729Y-19753262D01*
X52026457Y-19753358D01*
X51964907Y-19776493D01*
X51892343Y-19805965D01*
X51823943Y-19835597D01*
X51820706Y-19837062D01*
X51709298Y-19887626D01*
X51462601Y-19719160D01*
X51386923Y-19667803D01*
X51318369Y-19621889D01*
X51260912Y-19584030D01*
X51218524Y-19556837D01*
X51195175Y-19542921D01*
X51192958Y-19541889D01*
X51175990Y-19546484D01*
X51144299Y-19568655D01*
X51096648Y-19609447D01*
X51031802Y-19669905D01*
X50965603Y-19734227D01*
X50901786Y-19797612D01*
X50844671Y-19855451D01*
X50797695Y-19904175D01*
X50764297Y-19940210D01*
X50747915Y-19959984D01*
X50747306Y-19961002D01*
X50745495Y-19974572D01*
X50752317Y-19996733D01*
X50769460Y-20030478D01*
X50798607Y-20078800D01*
X50841445Y-20144692D01*
X50898552Y-20229517D01*
X50949234Y-20304177D01*
X50994539Y-20371140D01*
X51031850Y-20426516D01*
X51058548Y-20466420D01*
X51072015Y-20486962D01*
X51072863Y-20488356D01*
X51071219Y-20508038D01*
X51058755Y-20546293D01*
X51037952Y-20595889D01*
X51030538Y-20611728D01*
X50998186Y-20682290D01*
X50963672Y-20762353D01*
X50935635Y-20831629D01*
X50915432Y-20883045D01*
X50899385Y-20922119D01*
X50890112Y-20942541D01*
X50888959Y-20944114D01*
X50871904Y-20946721D01*
X50831702Y-20953863D01*
X50773698Y-20964523D01*
X50703237Y-20977685D01*
X50625665Y-20992333D01*
X50546328Y-21007449D01*
X50470569Y-21022018D01*
X50403736Y-21035022D01*
X50351172Y-21045445D01*
X50318224Y-21052270D01*
X50310143Y-21054199D01*
X50301795Y-21058962D01*
X50295494Y-21069718D01*
X50290955Y-21090098D01*
X50287896Y-21123734D01*
X50286033Y-21174255D01*
X50285082Y-21245292D01*
X50284760Y-21340476D01*
X50284743Y-21379492D01*
X50284743Y-21696799D01*
X50360943Y-21711839D01*
X50403337Y-21719995D01*
X50466600Y-21731899D01*
X50543038Y-21746116D01*
X50624957Y-21761210D01*
X50647600Y-21765355D01*
X50723194Y-21780053D01*
X50789047Y-21794505D01*
X50839634Y-21807375D01*
X50869426Y-21817322D01*
X50874388Y-21820287D01*
X50886574Y-21841283D01*
X50904047Y-21881967D01*
X50923423Y-21934322D01*
X50927266Y-21945600D01*
X50952661Y-22015523D01*
X50984183Y-22094418D01*
X51015031Y-22165266D01*
X51015183Y-22165595D01*
X51066553Y-22276733D01*
X50897601Y-22525253D01*
X50728648Y-22773772D01*
X50945571Y-22991058D01*
X51011181Y-23055726D01*
X51071021Y-23112733D01*
X51121733Y-23159033D01*
X51159954Y-23191584D01*
X51182325Y-23207343D01*
X51185534Y-23208343D01*
X51204374Y-23200469D01*
X51242820Y-23178578D01*
X51296670Y-23145267D01*
X51361724Y-23103131D01*
X51432060Y-23055943D01*
X51503445Y-23007810D01*
X51567092Y-22965928D01*
X51618959Y-22932871D01*
X51655005Y-22911218D01*
X51671133Y-22903543D01*
X51690811Y-22910037D01*
X51728125Y-22927150D01*
X51775379Y-22951326D01*
X51780388Y-22954013D01*
X51844023Y-22985927D01*
X51887659Y-23001579D01*
X51914798Y-23001745D01*
X51928943Y-22987204D01*
X51929025Y-22987000D01*
X51936095Y-22969779D01*
X51952958Y-22928899D01*
X51978305Y-22867525D01*
X52010829Y-22788819D01*
X52049222Y-22695947D01*
X52092178Y-22592072D01*
X52133778Y-22491502D01*
X52179496Y-22380516D01*
X52221474Y-22277703D01*
X52258452Y-22186215D01*
X52289173Y-22109201D01*
X52312378Y-22049815D01*
X52326810Y-22011209D01*
X52331257Y-21996800D01*
X52320104Y-21980272D01*
X52290931Y-21953930D01*
X52252029Y-21924887D01*
X52141243Y-21833039D01*
X52054649Y-21727759D01*
X51993284Y-21611266D01*
X51958185Y-21485776D01*
X51950392Y-21353507D01*
X51956057Y-21292457D01*
X51986922Y-21165795D01*
X52040080Y-21053941D01*
X52112233Y-20958001D01*
X52200083Y-20879076D01*
X52300335Y-20818270D01*
X52409690Y-20776687D01*
X52524853Y-20755428D01*
X52642525Y-20755599D01*
X52759410Y-20778301D01*
X52872211Y-20824638D01*
X52977631Y-20895713D01*
X53021632Y-20935911D01*
X53106021Y-21039129D01*
X53164778Y-21151925D01*
X53198296Y-21271010D01*
X53206965Y-21393095D01*
X53191177Y-21514893D01*
X53151322Y-21633116D01*
X53087793Y-21744475D01*
X53000979Y-21845684D01*
X52903971Y-21924887D01*
X52863563Y-21955162D01*
X52835018Y-21981219D01*
X52824743Y-21996825D01*
X52830123Y-22013843D01*
X52845425Y-22054500D01*
X52869388Y-22115642D01*
X52900756Y-22194119D01*
X52938268Y-22286780D01*
X52980667Y-22390472D01*
X53022337Y-22491526D01*
X53068310Y-22602607D01*
X53110893Y-22705541D01*
X53148779Y-22797165D01*
X53180660Y-22874316D01*
X53205229Y-22933831D01*
X53221180Y-22972544D01*
X53227090Y-22987000D01*
X53241052Y-23001685D01*
X53268060Y-23001642D01*
X53311587Y-22986099D01*
X53375110Y-22954284D01*
X53375612Y-22954013D01*
X53423440Y-22929323D01*
X53462103Y-22911338D01*
X53483905Y-22903614D01*
X53484867Y-22903543D01*
X53501279Y-22911378D01*
X53537513Y-22933165D01*
X53589526Y-22966328D01*
X53653275Y-23008291D01*
X53723940Y-23055943D01*
X53795884Y-23104191D01*
X53860726Y-23146151D01*
X53914265Y-23179227D01*
X53952303Y-23200821D01*
X53970467Y-23208343D01*
X53987192Y-23198457D01*
X54020820Y-23170826D01*
X54067990Y-23128495D01*
X54125342Y-23074505D01*
X54189516Y-23011899D01*
X54210503Y-22990983D01*
X54427501Y-22773623D01*
X54262332Y-22531220D01*
X54212136Y-22456781D01*
X54168081Y-22389972D01*
X54132638Y-22334665D01*
X54108281Y-22294729D01*
X54097478Y-22274036D01*
X54097162Y-22272563D01*
X54102857Y-22253058D01*
X54118174Y-22213822D01*
X54140463Y-22161430D01*
X54156107Y-22126355D01*
X54185359Y-22059201D01*
X54212906Y-21991358D01*
X54234263Y-21934034D01*
X54240065Y-21916572D01*
X54256548Y-21869938D01*
X54272660Y-21833905D01*
X54281510Y-21820287D01*
X54301040Y-21811952D01*
X54343666Y-21800137D01*
X54403855Y-21786181D01*
X54476078Y-21771422D01*
X54508400Y-21765355D01*
X54590478Y-21750273D01*
X54669205Y-21735669D01*
X54736891Y-21722980D01*
X54785840Y-21713642D01*
X54795057Y-21711839D01*
X54871257Y-21696799D01*
X54871257Y-21379492D01*
X54871086Y-21275154D01*
X54870384Y-21196213D01*
X54868866Y-21139038D01*
X54866251Y-21099999D01*
X54862254Y-21075465D01*
X54856591Y-21061805D01*
X54848980Y-21055389D01*
X54845857Y-21054199D01*
X54827022Y-21049980D01*
X54785412Y-21041562D01*
X54726370Y-21029961D01*
X54655243Y-21016195D01*
X54577375Y-21001280D01*
X54498113Y-20986232D01*
X54422802Y-20972069D01*
X54356787Y-20959806D01*
X54305413Y-20950461D01*
X54274025Y-20945050D01*
X54267041Y-20944114D01*
X54260715Y-20931596D01*
X54246710Y-20898246D01*
X54227645Y-20850377D01*
X54220366Y-20831629D01*
X54191004Y-20759195D01*
X54156429Y-20679170D01*
X54125463Y-20611728D01*
X54102677Y-20560159D01*
X54087518Y-20517785D01*
X54082458Y-20491834D01*
X54083264Y-20488356D01*
X54093959Y-20471936D01*
X54118380Y-20435417D01*
X54153905Y-20382687D01*
X54197913Y-20317635D01*
X54247783Y-20244151D01*
X54257644Y-20229645D01*
X54315508Y-20143704D01*
X54358044Y-20078261D01*
X54386946Y-20030304D01*
X54403910Y-19996820D01*
X54410633Y-19974795D01*
X54408810Y-19961217D01*
X54408764Y-19961131D01*
X54394414Y-19943297D01*
X54362677Y-19908817D01*
X54316990Y-19861268D01*
X54260796Y-19804222D01*
X54197532Y-19741255D01*
X54190398Y-19734227D01*
X54110670Y-19657020D01*
X54049143Y-19600330D01*
X54004579Y-19563110D01*
X53975743Y-19544315D01*
X53963042Y-19541889D01*
X53944506Y-19552471D01*
X53906039Y-19576916D01*
X53851614Y-19612612D01*
X53785202Y-19656947D01*
X53710775Y-19707311D01*
X53693399Y-19719160D01*
X53446703Y-19887626D01*
X53335294Y-19837062D01*
X53267543Y-19807595D01*
X53194817Y-19777959D01*
X53132297Y-19754330D01*
X53129543Y-19753358D01*
X53080640Y-19735457D01*
X53042943Y-19720320D01*
X53024575Y-19711210D01*
X53024544Y-19711184D01*
X53018715Y-19694717D01*
X53008808Y-19654219D01*
X52995805Y-19594242D01*
X52980691Y-19519340D01*
X52964448Y-19434064D01*
X52963119Y-19426875D01*
X52946825Y-19339014D01*
X52931867Y-19259260D01*
X52919209Y-19192681D01*
X52909814Y-19144347D01*
X52904646Y-19119325D01*
X52904556Y-19118943D01*
X52901411Y-19108299D01*
X52895296Y-19100262D01*
X52882547Y-19094467D01*
X52859500Y-19090547D01*
X52822491Y-19088135D01*
X52767856Y-19086865D01*
X52691933Y-19086371D01*
X52591056Y-19086286D01*
X52578000Y-19086286D01*
X52474090Y-19086348D01*
G37*
X52474090Y-19086348D02*
X52395546Y-19086778D01*
X52338702Y-19087942D01*
X52299895Y-19090207D01*
X52275462Y-19093940D01*
X52261738Y-19099506D01*
X52255060Y-19107273D01*
X52251764Y-19117605D01*
X52251444Y-19118943D01*
X52246438Y-19143079D01*
X52237171Y-19190701D01*
X52224608Y-19256741D01*
X52209713Y-19336128D01*
X52193449Y-19423796D01*
X52192881Y-19426875D01*
X52176590Y-19512789D01*
X52161348Y-19588696D01*
X52148139Y-19650045D01*
X52137946Y-19692282D01*
X52131752Y-19710855D01*
X52131457Y-19711184D01*
X52113212Y-19720253D01*
X52075595Y-19735367D01*
X52026729Y-19753262D01*
X52026457Y-19753358D01*
X51964907Y-19776493D01*
X51892343Y-19805965D01*
X51823943Y-19835597D01*
X51820706Y-19837062D01*
X51709298Y-19887626D01*
X51462601Y-19719160D01*
X51386923Y-19667803D01*
X51318369Y-19621889D01*
X51260912Y-19584030D01*
X51218524Y-19556837D01*
X51195175Y-19542921D01*
X51192958Y-19541889D01*
X51175990Y-19546484D01*
X51144299Y-19568655D01*
X51096648Y-19609447D01*
X51031802Y-19669905D01*
X50965603Y-19734227D01*
X50901786Y-19797612D01*
X50844671Y-19855451D01*
X50797695Y-19904175D01*
X50764297Y-19940210D01*
X50747915Y-19959984D01*
X50747306Y-19961002D01*
X50745495Y-19974572D01*
X50752317Y-19996733D01*
X50769460Y-20030478D01*
X50798607Y-20078800D01*
X50841445Y-20144692D01*
X50898552Y-20229517D01*
X50949234Y-20304177D01*
X50994539Y-20371140D01*
X51031850Y-20426516D01*
X51058548Y-20466420D01*
X51072015Y-20486962D01*
X51072863Y-20488356D01*
X51071219Y-20508038D01*
X51058755Y-20546293D01*
X51037952Y-20595889D01*
X51030538Y-20611728D01*
X50998186Y-20682290D01*
X50963672Y-20762353D01*
X50935635Y-20831629D01*
X50915432Y-20883045D01*
X50899385Y-20922119D01*
X50890112Y-20942541D01*
X50888959Y-20944114D01*
X50871904Y-20946721D01*
X50831702Y-20953863D01*
X50773698Y-20964523D01*
X50703237Y-20977685D01*
X50625665Y-20992333D01*
X50546328Y-21007449D01*
X50470569Y-21022018D01*
X50403736Y-21035022D01*
X50351172Y-21045445D01*
X50318224Y-21052270D01*
X50310143Y-21054199D01*
X50301795Y-21058962D01*
X50295494Y-21069718D01*
X50290955Y-21090098D01*
X50287896Y-21123734D01*
X50286033Y-21174255D01*
X50285082Y-21245292D01*
X50284760Y-21340476D01*
X50284743Y-21379492D01*
X50284743Y-21696799D01*
X50360943Y-21711839D01*
X50403337Y-21719995D01*
X50466600Y-21731899D01*
X50543038Y-21746116D01*
X50624957Y-21761210D01*
X50647600Y-21765355D01*
X50723194Y-21780053D01*
X50789047Y-21794505D01*
X50839634Y-21807375D01*
X50869426Y-21817322D01*
X50874388Y-21820287D01*
X50886574Y-21841283D01*
X50904047Y-21881967D01*
X50923423Y-21934322D01*
X50927266Y-21945600D01*
X50952661Y-22015523D01*
X50984183Y-22094418D01*
X51015031Y-22165266D01*
X51015183Y-22165595D01*
X51066553Y-22276733D01*
X50897601Y-22525253D01*
X50728648Y-22773772D01*
X50945571Y-22991058D01*
X51011181Y-23055726D01*
X51071021Y-23112733D01*
X51121733Y-23159033D01*
X51159954Y-23191584D01*
X51182325Y-23207343D01*
X51185534Y-23208343D01*
X51204374Y-23200469D01*
X51242820Y-23178578D01*
X51296670Y-23145267D01*
X51361724Y-23103131D01*
X51432060Y-23055943D01*
X51503445Y-23007810D01*
X51567092Y-22965928D01*
X51618959Y-22932871D01*
X51655005Y-22911218D01*
X51671133Y-22903543D01*
X51690811Y-22910037D01*
X51728125Y-22927150D01*
X51775379Y-22951326D01*
X51780388Y-22954013D01*
X51844023Y-22985927D01*
X51887659Y-23001579D01*
X51914798Y-23001745D01*
X51928943Y-22987204D01*
X51929025Y-22987000D01*
X51936095Y-22969779D01*
X51952958Y-22928899D01*
X51978305Y-22867525D01*
X52010829Y-22788819D01*
X52049222Y-22695947D01*
X52092178Y-22592072D01*
X52133778Y-22491502D01*
X52179496Y-22380516D01*
X52221474Y-22277703D01*
X52258452Y-22186215D01*
X52289173Y-22109201D01*
X52312378Y-22049815D01*
X52326810Y-22011209D01*
X52331257Y-21996800D01*
X52320104Y-21980272D01*
X52290931Y-21953930D01*
X52252029Y-21924887D01*
X52141243Y-21833039D01*
X52054649Y-21727759D01*
X51993284Y-21611266D01*
X51958185Y-21485776D01*
X51950392Y-21353507D01*
X51956057Y-21292457D01*
X51986922Y-21165795D01*
X52040080Y-21053941D01*
X52112233Y-20958001D01*
X52200083Y-20879076D01*
X52300335Y-20818270D01*
X52409690Y-20776687D01*
X52524853Y-20755428D01*
X52642525Y-20755599D01*
X52759410Y-20778301D01*
X52872211Y-20824638D01*
X52977631Y-20895713D01*
X53021632Y-20935911D01*
X53106021Y-21039129D01*
X53164778Y-21151925D01*
X53198296Y-21271010D01*
X53206965Y-21393095D01*
X53191177Y-21514893D01*
X53151322Y-21633116D01*
X53087793Y-21744475D01*
X53000979Y-21845684D01*
X52903971Y-21924887D01*
X52863563Y-21955162D01*
X52835018Y-21981219D01*
X52824743Y-21996825D01*
X52830123Y-22013843D01*
X52845425Y-22054500D01*
X52869388Y-22115642D01*
X52900756Y-22194119D01*
X52938268Y-22286780D01*
X52980667Y-22390472D01*
X53022337Y-22491526D01*
X53068310Y-22602607D01*
X53110893Y-22705541D01*
X53148779Y-22797165D01*
X53180660Y-22874316D01*
X53205229Y-22933831D01*
X53221180Y-22972544D01*
X53227090Y-22987000D01*
X53241052Y-23001685D01*
X53268060Y-23001642D01*
X53311587Y-22986099D01*
X53375110Y-22954284D01*
X53375612Y-22954013D01*
X53423440Y-22929323D01*
X53462103Y-22911338D01*
X53483905Y-22903614D01*
X53484867Y-22903543D01*
X53501279Y-22911378D01*
X53537513Y-22933165D01*
X53589526Y-22966328D01*
X53653275Y-23008291D01*
X53723940Y-23055943D01*
X53795884Y-23104191D01*
X53860726Y-23146151D01*
X53914265Y-23179227D01*
X53952303Y-23200821D01*
X53970467Y-23208343D01*
X53987192Y-23198457D01*
X54020820Y-23170826D01*
X54067990Y-23128495D01*
X54125342Y-23074505D01*
X54189516Y-23011899D01*
X54210503Y-22990983D01*
X54427501Y-22773623D01*
X54262332Y-22531220D01*
X54212136Y-22456781D01*
X54168081Y-22389972D01*
X54132638Y-22334665D01*
X54108281Y-22294729D01*
X54097478Y-22274036D01*
X54097162Y-22272563D01*
X54102857Y-22253058D01*
X54118174Y-22213822D01*
X54140463Y-22161430D01*
X54156107Y-22126355D01*
X54185359Y-22059201D01*
X54212906Y-21991358D01*
X54234263Y-21934034D01*
X54240065Y-21916572D01*
X54256548Y-21869938D01*
X54272660Y-21833905D01*
X54281510Y-21820287D01*
X54301040Y-21811952D01*
X54343666Y-21800137D01*
X54403855Y-21786181D01*
X54476078Y-21771422D01*
X54508400Y-21765355D01*
X54590478Y-21750273D01*
X54669205Y-21735669D01*
X54736891Y-21722980D01*
X54785840Y-21713642D01*
X54795057Y-21711839D01*
X54871257Y-21696799D01*
X54871257Y-21379492D01*
X54871086Y-21275154D01*
X54870384Y-21196213D01*
X54868866Y-21139038D01*
X54866251Y-21099999D01*
X54862254Y-21075465D01*
X54856591Y-21061805D01*
X54848980Y-21055389D01*
X54845857Y-21054199D01*
X54827022Y-21049980D01*
X54785412Y-21041562D01*
X54726370Y-21029961D01*
X54655243Y-21016195D01*
X54577375Y-21001280D01*
X54498113Y-20986232D01*
X54422802Y-20972069D01*
X54356787Y-20959806D01*
X54305413Y-20950461D01*
X54274025Y-20945050D01*
X54267041Y-20944114D01*
X54260715Y-20931596D01*
X54246710Y-20898246D01*
X54227645Y-20850377D01*
X54220366Y-20831629D01*
X54191004Y-20759195D01*
X54156429Y-20679170D01*
X54125463Y-20611728D01*
X54102677Y-20560159D01*
X54087518Y-20517785D01*
X54082458Y-20491834D01*
X54083264Y-20488356D01*
X54093959Y-20471936D01*
X54118380Y-20435417D01*
X54153905Y-20382687D01*
X54197913Y-20317635D01*
X54247783Y-20244151D01*
X54257644Y-20229645D01*
X54315508Y-20143704D01*
X54358044Y-20078261D01*
X54386946Y-20030304D01*
X54403910Y-19996820D01*
X54410633Y-19974795D01*
X54408810Y-19961217D01*
X54408764Y-19961131D01*
X54394414Y-19943297D01*
X54362677Y-19908817D01*
X54316990Y-19861268D01*
X54260796Y-19804222D01*
X54197532Y-19741255D01*
X54190398Y-19734227D01*
X54110670Y-19657020D01*
X54049143Y-19600330D01*
X54004579Y-19563110D01*
X53975743Y-19544315D01*
X53963042Y-19541889D01*
X53944506Y-19552471D01*
X53906039Y-19576916D01*
X53851614Y-19612612D01*
X53785202Y-19656947D01*
X53710775Y-19707311D01*
X53693399Y-19719160D01*
X53446703Y-19887626D01*
X53335294Y-19837062D01*
X53267543Y-19807595D01*
X53194817Y-19777959D01*
X53132297Y-19754330D01*
X53129543Y-19753358D01*
X53080640Y-19735457D01*
X53042943Y-19720320D01*
X53024575Y-19711210D01*
X53024544Y-19711184D01*
X53018715Y-19694717D01*
X53008808Y-19654219D01*
X52995805Y-19594242D01*
X52980691Y-19519340D01*
X52964448Y-19434064D01*
X52963119Y-19426875D01*
X52946825Y-19339014D01*
X52931867Y-19259260D01*
X52919209Y-19192681D01*
X52909814Y-19144347D01*
X52904646Y-19119325D01*
X52904556Y-19118943D01*
X52901411Y-19108299D01*
X52895296Y-19100262D01*
X52882547Y-19094467D01*
X52859500Y-19090547D01*
X52822491Y-19088135D01*
X52767856Y-19086865D01*
X52691933Y-19086371D01*
X52591056Y-19086286D01*
X52578000Y-19086286D01*
X52474090Y-19086348D01*
M02*
