G04 #@! TF.GenerationSoftware,KiCad,Pcbnew,(5.0.2)-1*
G04 #@! TF.CreationDate,2020-01-16T19:10:28+05:30*
G04 #@! TF.ProjectId,ergocape,6572676f-6361-4706-952e-6b696361645f,rev?*
G04 #@! TF.SameCoordinates,Original*
G04 #@! TF.FileFunction,Other,ECO2*
%FSLAX46Y46*%
G04 Gerber Fmt 4.6, Leading zero omitted, Abs format (unit mm)*
G04 Created by KiCad (PCBNEW (5.0.2)-1) date 1/16/2020 7:10:28 PM*
%MOMM*%
%LPD*%
G01*
G04 APERTURE LIST*
%ADD10C,0.152400*%
G04 APERTURE END LIST*
D10*
G04 #@! TO.C,K_1*
X77152500Y-46672500D02*
X77152500Y-32702500D01*
X91122500Y-46672500D02*
X77152500Y-46672500D01*
X91122500Y-32702500D02*
X91122500Y-46672500D01*
X77152500Y-32702500D02*
X91122500Y-32702500D01*
G04 #@! TO.C,K_TAB1*
X67310000Y-65722500D02*
X67310000Y-51752500D01*
X53340000Y-65722500D02*
X67310000Y-65722500D01*
X53340000Y-51752500D02*
X53340000Y-65722500D01*
X67310000Y-51752500D02*
X53340000Y-51752500D01*
G04 #@! TO.C,K_TH_1U_2*
X174466452Y-148386571D02*
X180370429Y-135725452D01*
X187127571Y-154290548D02*
X174466452Y-148386571D01*
X193031548Y-141629429D02*
X187127571Y-154290548D01*
X180370429Y-135725452D02*
X193031548Y-141629429D01*
G04 #@! TO.C,K_2*
X96203000Y-42862500D02*
X96203000Y-28892500D01*
X110173000Y-42862500D02*
X96203000Y-42862500D01*
X110173000Y-28892500D02*
X110173000Y-42862500D01*
X96203000Y-28892500D02*
X110173000Y-28892500D01*
G04 #@! TO.C,K_3*
X115253000Y-39052500D02*
X115253000Y-25082500D01*
X129223000Y-39052500D02*
X115253000Y-39052500D01*
X129223000Y-25082500D02*
X129223000Y-39052500D01*
X115253000Y-25082500D02*
X129223000Y-25082500D01*
G04 #@! TO.C,K_4*
X134303000Y-42862500D02*
X134303000Y-28892500D01*
X148273000Y-42862500D02*
X134303000Y-42862500D01*
X148273000Y-28892500D02*
X148273000Y-42862500D01*
X134303000Y-28892500D02*
X148273000Y-28892500D01*
G04 #@! TO.C,K_5*
X153353000Y-46672500D02*
X153353000Y-32702500D01*
X167323000Y-46672500D02*
X153353000Y-46672500D01*
X167323000Y-32702500D02*
X167323000Y-46672500D01*
X153353000Y-32702500D02*
X167323000Y-32702500D01*
G04 #@! TO.C,K_A1*
X77152500Y-84772500D02*
X77152500Y-70802500D01*
X91122500Y-84772500D02*
X77152500Y-84772500D01*
X91122500Y-70802500D02*
X91122500Y-84772500D01*
X77152500Y-70802500D02*
X91122500Y-70802500D01*
G04 #@! TO.C,K_ALT1*
X77152500Y-122873000D02*
X77152500Y-108903000D01*
X91122500Y-122873000D02*
X77152500Y-122873000D01*
X91122500Y-108903000D02*
X91122500Y-122873000D01*
X77152500Y-108903000D02*
X91122500Y-108903000D01*
G04 #@! TO.C,K_B1*
X153353000Y-103822500D02*
X153353000Y-89852500D01*
X167323000Y-103822500D02*
X153353000Y-103822500D01*
X167323000Y-89852500D02*
X167323000Y-103822500D01*
X153353000Y-89852500D02*
X167323000Y-89852500D01*
G04 #@! TO.C,K_BOT_1U_1*
X115189000Y-115189000D02*
X115189000Y-101219000D01*
X129159000Y-115189000D02*
X115189000Y-115189000D01*
X129159000Y-101219000D02*
X129159000Y-115189000D01*
X115189000Y-101219000D02*
X129159000Y-101219000D01*
G04 #@! TO.C,K_BOT_1U_2*
X134239000Y-118999000D02*
X134239000Y-105029000D01*
X148209000Y-118999000D02*
X134239000Y-118999000D01*
X148209000Y-105029000D02*
X148209000Y-118999000D01*
X134239000Y-105029000D02*
X148209000Y-105029000D01*
G04 #@! TO.C,K_C1*
X115253000Y-96202500D02*
X115253000Y-82232500D01*
X129223000Y-96202500D02*
X115253000Y-96202500D01*
X129223000Y-82232500D02*
X129223000Y-96202500D01*
X115253000Y-82232500D02*
X129223000Y-82232500D01*
G04 #@! TO.C,K_CAPS1*
X50958800Y-84772500D02*
X50958800Y-70802500D01*
X64928800Y-84772500D02*
X50958800Y-84772500D01*
X64928800Y-70802500D02*
X64928800Y-84772500D01*
X50958800Y-70802500D02*
X64928800Y-70802500D01*
G04 #@! TO.C,K_CTRL1*
X58102500Y-122873000D02*
X58102500Y-108903000D01*
X72072500Y-122873000D02*
X58102500Y-122873000D01*
X72072500Y-108903000D02*
X72072500Y-122873000D01*
X58102500Y-108903000D02*
X72072500Y-108903000D01*
G04 #@! TO.C,K_D1*
X115253000Y-77152500D02*
X115253000Y-63182500D01*
X129223000Y-77152500D02*
X115253000Y-77152500D01*
X129223000Y-63182500D02*
X129223000Y-77152500D01*
X115253000Y-63182500D02*
X129223000Y-63182500D01*
G04 #@! TO.C,K_E1*
X115253000Y-58102500D02*
X115253000Y-44132500D01*
X129223000Y-58102500D02*
X115253000Y-58102500D01*
X129223000Y-44132500D02*
X129223000Y-58102500D01*
X115253000Y-44132500D02*
X129223000Y-44132500D01*
G04 #@! TO.C,K_ENTER_rev_2.25u_1*
X60166200Y-72910700D02*
X60166200Y-70802500D01*
X61791800Y-72910700D02*
X60166200Y-72910700D01*
X61791800Y-72097900D02*
X61791800Y-72910700D01*
X68446600Y-72097900D02*
X61791800Y-72097900D01*
X68446600Y-75501500D02*
X68446600Y-72097900D01*
X69310200Y-75501500D02*
X68446600Y-75501500D01*
X69310200Y-78295500D02*
X69310200Y-75501500D01*
X68446600Y-78295500D02*
X69310200Y-78295500D01*
X68446600Y-84391500D02*
X68446600Y-78295500D01*
X67405200Y-84391500D02*
X68446600Y-84391500D01*
X67405200Y-85559900D02*
X67405200Y-84391500D01*
X62833200Y-85559900D02*
X67405200Y-85559900D01*
X62833200Y-84391500D02*
X62833200Y-85559900D01*
X61791800Y-84391500D02*
X62833200Y-84391500D01*
X61791800Y-83604100D02*
X61791800Y-84391500D01*
X60166200Y-83604100D02*
X61791800Y-83604100D01*
X60166200Y-84772500D02*
X60166200Y-83604100D01*
X46196200Y-84772500D02*
X60166200Y-84772500D01*
X46196200Y-83604100D02*
X46196200Y-84772500D01*
X44570600Y-83604100D02*
X46196200Y-83604100D01*
X44570600Y-84391500D02*
X44570600Y-83604100D01*
X43529200Y-84391500D02*
X44570600Y-84391500D01*
X43529200Y-85559900D02*
X43529200Y-84391500D01*
X38957200Y-85559900D02*
X43529200Y-85559900D01*
X38957200Y-84391500D02*
X38957200Y-85559900D01*
X37915800Y-84391500D02*
X38957200Y-84391500D01*
X37915800Y-78295500D02*
X37915800Y-84391500D01*
X37052200Y-78295500D02*
X37915800Y-78295500D01*
X37052200Y-75501500D02*
X37052200Y-78295500D01*
X37915800Y-75501500D02*
X37052200Y-75501500D01*
X37915800Y-72097900D02*
X37915800Y-75501500D01*
X44570600Y-72097900D02*
X37915800Y-72097900D01*
X44570600Y-72910700D02*
X44570600Y-72097900D01*
X46196200Y-72910700D02*
X44570600Y-72910700D01*
X46196200Y-70802500D02*
X46196200Y-72910700D01*
X60166200Y-70802500D02*
X46196200Y-70802500D01*
G04 #@! TO.C,K_ESC1*
X58102500Y-46672500D02*
X58102500Y-32702500D01*
X72072500Y-46672500D02*
X58102500Y-46672500D01*
X72072500Y-32702500D02*
X72072500Y-46672500D01*
X58102500Y-32702500D02*
X72072500Y-32702500D01*
G04 #@! TO.C,K_F1*
X134303000Y-80962500D02*
X134303000Y-66992500D01*
X148273000Y-80962500D02*
X134303000Y-80962500D01*
X148273000Y-66992500D02*
X148273000Y-80962500D01*
X134303000Y-66992500D02*
X148273000Y-66992500D01*
G04 #@! TO.C,K_G1*
X153353000Y-84772500D02*
X153353000Y-70802500D01*
X167323000Y-84772500D02*
X153353000Y-84772500D01*
X167323000Y-70802500D02*
X167323000Y-84772500D01*
X153353000Y-70802500D02*
X167323000Y-70802500D01*
G04 #@! TO.C,K_Q1*
X77152500Y-65722500D02*
X77152500Y-51752500D01*
X91122500Y-65722500D02*
X77152500Y-65722500D01*
X91122500Y-51752500D02*
X91122500Y-65722500D01*
X77152500Y-51752500D02*
X91122500Y-51752500D01*
G04 #@! TO.C,K_R1*
X134303000Y-61912500D02*
X134303000Y-47942500D01*
X148273000Y-61912500D02*
X134303000Y-61912500D01*
X148273000Y-47942500D02*
X148273000Y-61912500D01*
X134303000Y-47942500D02*
X148273000Y-47942500D01*
G04 #@! TO.C,K_S1*
X96203000Y-80962500D02*
X96203000Y-66992500D01*
X110173000Y-80962500D02*
X96203000Y-80962500D01*
X110173000Y-66992500D02*
X110173000Y-80962500D01*
X96203000Y-66992500D02*
X110173000Y-66992500D01*
G04 #@! TO.C,K_SHIFT1*
X46196200Y-91960700D02*
X46196200Y-89852500D01*
X44570600Y-91960700D02*
X46196200Y-91960700D01*
X44570600Y-91147900D02*
X44570600Y-91960700D01*
X37915800Y-91147900D02*
X44570600Y-91147900D01*
X37915800Y-94551500D02*
X37915800Y-91147900D01*
X37052200Y-94551500D02*
X37915800Y-94551500D01*
X37052200Y-97345500D02*
X37052200Y-94551500D01*
X37915800Y-97345500D02*
X37052200Y-97345500D01*
X37915800Y-103441500D02*
X37915800Y-97345500D01*
X38957200Y-103441500D02*
X37915800Y-103441500D01*
X38957200Y-104609900D02*
X38957200Y-103441500D01*
X43529200Y-104609900D02*
X38957200Y-104609900D01*
X43529200Y-103441500D02*
X43529200Y-104609900D01*
X44570600Y-103441500D02*
X43529200Y-103441500D01*
X44570600Y-102654100D02*
X44570600Y-103441500D01*
X46196200Y-102654100D02*
X44570600Y-102654100D01*
X46196200Y-103822500D02*
X46196200Y-102654100D01*
X60166200Y-103822500D02*
X46196200Y-103822500D01*
X60166200Y-102654100D02*
X60166200Y-103822500D01*
X61791800Y-102654100D02*
X60166200Y-102654100D01*
X61791800Y-103441500D02*
X61791800Y-102654100D01*
X62833200Y-103441500D02*
X61791800Y-103441500D01*
X62833200Y-104609900D02*
X62833200Y-103441500D01*
X67405200Y-104609900D02*
X62833200Y-104609900D01*
X67405200Y-103441500D02*
X67405200Y-104609900D01*
X68446600Y-103441500D02*
X67405200Y-103441500D01*
X68446600Y-97345500D02*
X68446600Y-103441500D01*
X69310200Y-97345500D02*
X68446600Y-97345500D01*
X69310200Y-94551500D02*
X69310200Y-97345500D01*
X68446600Y-94551500D02*
X69310200Y-94551500D01*
X68446600Y-91147900D02*
X68446600Y-94551500D01*
X61791800Y-91147900D02*
X68446600Y-91147900D01*
X61791800Y-91960700D02*
X61791800Y-91147900D01*
X60166200Y-91960700D02*
X61791800Y-91960700D01*
X60166200Y-89852500D02*
X60166200Y-91960700D01*
X46196200Y-89852500D02*
X60166200Y-89852500D01*
G04 #@! TO.C,K_SHIFT_REV_2.75_1*
X55403800Y-91960700D02*
X55403800Y-89852500D01*
X57029400Y-91960700D02*
X55403800Y-91960700D01*
X57029400Y-91147900D02*
X57029400Y-91960700D01*
X63684200Y-91147900D02*
X57029400Y-91147900D01*
X63684200Y-94551500D02*
X63684200Y-91147900D01*
X64547800Y-94551500D02*
X63684200Y-94551500D01*
X64547800Y-97345500D02*
X64547800Y-94551500D01*
X63684200Y-97345500D02*
X64547800Y-97345500D01*
X63684200Y-103441500D02*
X63684200Y-97345500D01*
X62642800Y-103441500D02*
X63684200Y-103441500D01*
X62642800Y-104609900D02*
X62642800Y-103441500D01*
X58070800Y-104609900D02*
X62642800Y-104609900D01*
X58070800Y-103441500D02*
X58070800Y-104609900D01*
X57029400Y-103441500D02*
X58070800Y-103441500D01*
X57029400Y-102654100D02*
X57029400Y-103441500D01*
X55403800Y-102654100D02*
X57029400Y-102654100D01*
X55403800Y-103822500D02*
X55403800Y-102654100D01*
X41433800Y-103822500D02*
X55403800Y-103822500D01*
X41433800Y-102654100D02*
X41433800Y-103822500D01*
X39808200Y-102654100D02*
X41433800Y-102654100D01*
X39808200Y-103441500D02*
X39808200Y-102654100D01*
X38766800Y-103441500D02*
X39808200Y-103441500D01*
X38766800Y-104609900D02*
X38766800Y-103441500D01*
X34194800Y-104609900D02*
X38766800Y-104609900D01*
X34194800Y-103441500D02*
X34194800Y-104609900D01*
X33153400Y-103441500D02*
X34194800Y-103441500D01*
X33153400Y-97345500D02*
X33153400Y-103441500D01*
X32289800Y-97345500D02*
X33153400Y-97345500D01*
X32289800Y-94551500D02*
X32289800Y-97345500D01*
X33153400Y-94551500D02*
X32289800Y-94551500D01*
X33153400Y-91147900D02*
X33153400Y-94551500D01*
X39808200Y-91147900D02*
X33153400Y-91147900D01*
X39808200Y-91960700D02*
X39808200Y-91147900D01*
X41433800Y-91960700D02*
X39808200Y-91960700D01*
X41433800Y-89852500D02*
X41433800Y-91960700D01*
X55403800Y-89852500D02*
X41433800Y-89852500D01*
G04 #@! TO.C,K_T1*
X153353000Y-65722500D02*
X153353000Y-51752500D01*
X167323000Y-65722500D02*
X153353000Y-65722500D01*
X167323000Y-51752500D02*
X167323000Y-65722500D01*
X153353000Y-51752500D02*
X167323000Y-51752500D01*
G04 #@! TO.C,K_TH_1U_1*
X182516452Y-131121571D02*
X188420429Y-118460452D01*
X195177571Y-137025548D02*
X182516452Y-131121571D01*
X201081548Y-124364429D02*
X195177571Y-137025548D01*
X188420429Y-118460452D02*
X201081548Y-124364429D01*
G04 #@! TO.C,K_V1*
X134303000Y-100012500D02*
X134303000Y-86042500D01*
X148273000Y-100012500D02*
X134303000Y-100012500D01*
X148273000Y-86042500D02*
X148273000Y-100012500D01*
X134303000Y-86042500D02*
X148273000Y-86042500D01*
G04 #@! TO.C,K_W1*
X96203000Y-61912500D02*
X96203000Y-47942500D01*
X110173000Y-61912500D02*
X96203000Y-61912500D01*
X110173000Y-47942500D02*
X110173000Y-61912500D01*
X96203000Y-47942500D02*
X110173000Y-47942500D01*
G04 #@! TO.C,K_WIN1*
X96203000Y-119063000D02*
X96203000Y-105093000D01*
X110173000Y-119063000D02*
X96203000Y-119063000D01*
X110173000Y-105093000D02*
X110173000Y-119063000D01*
X96203000Y-105093000D02*
X110173000Y-105093000D01*
G04 #@! TO.C,K_X1*
X96203000Y-100012500D02*
X96203000Y-86042500D01*
X110173000Y-100012500D02*
X96203000Y-100012500D01*
X110173000Y-86042500D02*
X110173000Y-100012500D01*
X96203000Y-86042500D02*
X110173000Y-86042500D01*
G04 #@! TO.C,K_Z1*
X77152500Y-103822500D02*
X77152500Y-89852500D01*
X91122500Y-103822500D02*
X77152500Y-103822500D01*
X91122500Y-89852500D02*
X91122500Y-103822500D01*
X77152500Y-89852500D02*
X91122500Y-89852500D01*
G04 #@! TO.C,K_THUMB_1U_4*
X165239452Y-123058571D02*
X171143429Y-110397452D01*
X177900571Y-128962548D02*
X165239452Y-123058571D01*
X183804548Y-116301429D02*
X177900571Y-128962548D01*
X171143429Y-110397452D02*
X183804548Y-116301429D01*
G04 #@! TO.C,K_THUMB_1U_3*
X175753548Y-133566429D02*
X169849571Y-146227548D01*
X163092429Y-127662452D02*
X175753548Y-133566429D01*
X157188452Y-140323571D02*
X163092429Y-127662452D01*
X169849571Y-146227548D02*
X157188452Y-140323571D01*
G04 #@! TO.C,K_THUMB_2U1*
X177880870Y-124054465D02*
X179791548Y-124945429D01*
X178567879Y-122581171D02*
X177880870Y-124054465D01*
X179304526Y-122924675D02*
X178567879Y-122581171D01*
X182116966Y-116893378D02*
X179304526Y-122924675D01*
X179032256Y-115454954D02*
X182116966Y-116893378D01*
X179397230Y-114672267D02*
X179032256Y-115454954D01*
X176865006Y-113491472D02*
X179397230Y-114672267D01*
X176500032Y-114274159D02*
X176865006Y-113491472D01*
X170975180Y-111697878D02*
X176500032Y-114274159D01*
X170535066Y-112641707D02*
X170975180Y-111697878D01*
X169476136Y-112147920D02*
X170535066Y-112641707D01*
X167543925Y-116291559D02*
X169476136Y-112147920D01*
X168602855Y-116785346D02*
X167543925Y-116291559D01*
X168162740Y-117729175D02*
X168602855Y-116785346D01*
X168876367Y-118061945D02*
X168162740Y-117729175D01*
X168189359Y-119535239D02*
X168876367Y-118061945D01*
X167130429Y-119041452D02*
X168189359Y-119535239D01*
X161226452Y-131702571D02*
X167130429Y-119041452D01*
X162285382Y-132196359D02*
X161226452Y-131702571D01*
X161598373Y-133669652D02*
X162285382Y-132196359D01*
X160884747Y-133336883D02*
X161598373Y-133669652D01*
X160444632Y-134280712D02*
X160884747Y-133336883D01*
X159385702Y-133786925D02*
X160444632Y-134280712D01*
X157453491Y-137930564D02*
X159385702Y-133786925D01*
X158512421Y-138424351D02*
X157453491Y-137930564D01*
X158072307Y-139368180D02*
X158512421Y-138424351D01*
X163597159Y-141944461D02*
X158072307Y-139368180D01*
X163232186Y-142727148D02*
X163597159Y-141944461D01*
X165764410Y-143907944D02*
X163232186Y-142727148D01*
X166129383Y-143125256D02*
X165764410Y-143907944D01*
X169214092Y-144563680D02*
X166129383Y-143125256D01*
X172026532Y-138532383D02*
X169214092Y-144563680D01*
X171289885Y-138188879D02*
X172026532Y-138532383D01*
X171976893Y-136715585D02*
X171289885Y-138188879D01*
X173887571Y-137606548D02*
X171976893Y-136715585D01*
X179791548Y-124945429D02*
X173887571Y-137606548D01*
G04 #@! TO.C,K_BKSP_1*
X48641000Y-34810700D02*
X48641000Y-32702500D01*
X47015400Y-34810700D02*
X48641000Y-34810700D01*
X47015400Y-33997900D02*
X47015400Y-34810700D01*
X40360600Y-33997900D02*
X47015400Y-33997900D01*
X40360600Y-37401500D02*
X40360600Y-33997900D01*
X39497000Y-37401500D02*
X40360600Y-37401500D01*
X39497000Y-40195500D02*
X39497000Y-37401500D01*
X40360600Y-40195500D02*
X39497000Y-40195500D01*
X40360600Y-46291500D02*
X40360600Y-40195500D01*
X41402000Y-46291500D02*
X40360600Y-46291500D01*
X41402000Y-47459900D02*
X41402000Y-46291500D01*
X45974000Y-47459900D02*
X41402000Y-47459900D01*
X45974000Y-46291500D02*
X45974000Y-47459900D01*
X47015400Y-46291500D02*
X45974000Y-46291500D01*
X47015400Y-45504100D02*
X47015400Y-46291500D01*
X48641000Y-45504100D02*
X47015400Y-45504100D01*
X48641000Y-46672500D02*
X48641000Y-45504100D01*
X62611000Y-46672500D02*
X48641000Y-46672500D01*
X62611000Y-45504100D02*
X62611000Y-46672500D01*
X64236600Y-45504100D02*
X62611000Y-45504100D01*
X64236600Y-46291500D02*
X64236600Y-45504100D01*
X65278000Y-46291500D02*
X64236600Y-46291500D01*
X65278000Y-47459900D02*
X65278000Y-46291500D01*
X69850000Y-47459900D02*
X65278000Y-47459900D01*
X69850000Y-46291500D02*
X69850000Y-47459900D01*
X70891400Y-46291500D02*
X69850000Y-46291500D01*
X70891400Y-40195500D02*
X70891400Y-46291500D01*
X71755000Y-40195500D02*
X70891400Y-40195500D01*
X71755000Y-37401500D02*
X71755000Y-40195500D01*
X70891400Y-37401500D02*
X71755000Y-37401500D01*
X70891400Y-33997900D02*
X70891400Y-37401500D01*
X64236600Y-33997900D02*
X70891400Y-33997900D01*
X64236600Y-34810700D02*
X64236600Y-33997900D01*
X62611000Y-34810700D02*
X64236600Y-34810700D01*
X62611000Y-32702500D02*
X62611000Y-34810700D01*
X48641000Y-32702500D02*
X62611000Y-32702500D01*
G04 #@! TO.C,K_XTRA1*
X39065200Y-46685200D02*
X39065200Y-32715200D01*
X53035200Y-46685200D02*
X39065200Y-46685200D01*
X53035200Y-32715200D02*
X53035200Y-46685200D01*
X39065200Y-32715200D02*
X53035200Y-32715200D01*
G04 #@! TD*
M02*
