G04 #@! TF.GenerationSoftware,KiCad,Pcbnew,(5.0.2)-1*
G04 #@! TF.CreationDate,2020-01-16T19:10:28+05:30*
G04 #@! TF.ProjectId,ergocape,6572676f-6361-4706-952e-6b696361645f,rev?*
G04 #@! TF.SameCoordinates,Original*
G04 #@! TF.FileFunction,Drawing*
%FSLAX46Y46*%
G04 Gerber Fmt 4.6, Leading zero omitted, Abs format (unit mm)*
G04 Created by KiCad (PCBNEW (5.0.2)-1) date 1/16/2020 7:10:28 PM*
%MOMM*%
%LPD*%
G01*
G04 APERTURE LIST*
%ADD10C,0.152400*%
%ADD11C,0.304800*%
%ADD12C,0.150000*%
G04 APERTURE END LIST*
D10*
G04 #@! TO.C,K_1*
X74739500Y-49085500D02*
X74739500Y-30289500D01*
X93535500Y-49085500D02*
X74739500Y-49085500D01*
X93535500Y-30289500D02*
X93535500Y-49085500D01*
X74739500Y-30289500D02*
X93535500Y-30289500D01*
G04 #@! TO.C,K_TAB1*
X74485500Y-68135500D02*
X74485500Y-49339500D01*
X46164500Y-68135500D02*
X74485500Y-68135500D01*
X46164500Y-49339500D02*
X46164500Y-68135500D01*
X74485500Y-49339500D02*
X46164500Y-49339500D01*
G04 #@! TO.C,K_TH_1U_2*
X171259753Y-149553714D02*
X179203286Y-132518753D01*
X188294714Y-157497247D02*
X171259753Y-149553714D01*
X196238247Y-140462286D02*
X188294714Y-157497247D01*
X179203286Y-132518753D02*
X196238247Y-140462286D01*
G04 #@! TO.C,K_2*
X93790000Y-45275500D02*
X93790000Y-26479500D01*
X112586000Y-45275500D02*
X93790000Y-45275500D01*
X112586000Y-26479500D02*
X112586000Y-45275500D01*
X93790000Y-26479500D02*
X112586000Y-26479500D01*
G04 #@! TO.C,K_3*
X112840000Y-41465500D02*
X112840000Y-22669500D01*
X131636000Y-41465500D02*
X112840000Y-41465500D01*
X131636000Y-22669500D02*
X131636000Y-41465500D01*
X112840000Y-22669500D02*
X131636000Y-22669500D01*
G04 #@! TO.C,K_4*
X131890000Y-45275500D02*
X131890000Y-26479500D01*
X150686000Y-45275500D02*
X131890000Y-45275500D01*
X150686000Y-26479500D02*
X150686000Y-45275500D01*
X131890000Y-26479500D02*
X150686000Y-26479500D01*
G04 #@! TO.C,K_5*
X150940000Y-49085500D02*
X150940000Y-30289500D01*
X169736000Y-49085500D02*
X150940000Y-49085500D01*
X169736000Y-30289500D02*
X169736000Y-49085500D01*
X150940000Y-30289500D02*
X169736000Y-30289500D01*
G04 #@! TO.C,K_A1*
X74739500Y-87185500D02*
X74739500Y-68389500D01*
X93535500Y-87185500D02*
X74739500Y-87185500D01*
X93535500Y-68389500D02*
X93535500Y-87185500D01*
X74739500Y-68389500D02*
X93535500Y-68389500D01*
G04 #@! TO.C,K_ALT1*
X74739500Y-125286000D02*
X74739500Y-106490000D01*
X93535500Y-125286000D02*
X74739500Y-125286000D01*
X93535500Y-106490000D02*
X93535500Y-125286000D01*
X74739500Y-106490000D02*
X93535500Y-106490000D01*
G04 #@! TO.C,K_B1*
X150940000Y-106235500D02*
X150940000Y-87439500D01*
X169736000Y-106235500D02*
X150940000Y-106235500D01*
X169736000Y-87439500D02*
X169736000Y-106235500D01*
X150940000Y-87439500D02*
X169736000Y-87439500D01*
G04 #@! TO.C,K_BOT_1U_1*
X112776000Y-117602000D02*
X112776000Y-98806000D01*
X131572000Y-117602000D02*
X112776000Y-117602000D01*
X131572000Y-98806000D02*
X131572000Y-117602000D01*
X112776000Y-98806000D02*
X131572000Y-98806000D01*
G04 #@! TO.C,K_BOT_1U_2*
X131826000Y-121412000D02*
X131826000Y-102616000D01*
X150622000Y-121412000D02*
X131826000Y-121412000D01*
X150622000Y-102616000D02*
X150622000Y-121412000D01*
X131826000Y-102616000D02*
X150622000Y-102616000D01*
G04 #@! TO.C,K_C1*
X112840000Y-98615500D02*
X112840000Y-79819500D01*
X131636000Y-98615500D02*
X112840000Y-98615500D01*
X131636000Y-79819500D02*
X131636000Y-98615500D01*
X112840000Y-79819500D02*
X131636000Y-79819500D01*
G04 #@! TO.C,K_CAPS1*
X41400780Y-87185500D02*
X41400780Y-68389500D01*
X74486820Y-87185500D02*
X41400780Y-87185500D01*
X74486820Y-68389500D02*
X74486820Y-87185500D01*
X41400780Y-68389500D02*
X74486820Y-68389500D01*
G04 #@! TO.C,K_CTRL1*
X55689500Y-125286000D02*
X55689500Y-106490000D01*
X74485500Y-125286000D02*
X55689500Y-125286000D01*
X74485500Y-106490000D02*
X74485500Y-125286000D01*
X55689500Y-106490000D02*
X74485500Y-106490000D01*
G04 #@! TO.C,K_D1*
X112840000Y-79565500D02*
X112840000Y-60769500D01*
X131636000Y-79565500D02*
X112840000Y-79565500D01*
X131636000Y-60769500D02*
X131636000Y-79565500D01*
X112840000Y-60769500D02*
X131636000Y-60769500D01*
G04 #@! TO.C,K_E1*
X112840000Y-60515500D02*
X112840000Y-41719500D01*
X131636000Y-60515500D02*
X112840000Y-60515500D01*
X131636000Y-41719500D02*
X131636000Y-60515500D01*
X112840000Y-41719500D02*
X131636000Y-41719500D01*
G04 #@! TO.C,K_ENTER_rev_2.25u_1*
X74486720Y-87185500D02*
X74486720Y-68389500D01*
X31875680Y-87185500D02*
X74486720Y-87185500D01*
X31875680Y-68389500D02*
X31875680Y-87185500D01*
X74486720Y-68389500D02*
X31875680Y-68389500D01*
G04 #@! TO.C,K_ESC1*
X55689500Y-49085500D02*
X55689500Y-30289500D01*
X74485500Y-49085500D02*
X55689500Y-49085500D01*
X74485500Y-30289500D02*
X74485500Y-49085500D01*
X55689500Y-30289500D02*
X74485500Y-30289500D01*
G04 #@! TO.C,K_F1*
X131890000Y-83375500D02*
X131890000Y-64579500D01*
X150686000Y-83375500D02*
X131890000Y-83375500D01*
X150686000Y-64579500D02*
X150686000Y-83375500D01*
X131890000Y-64579500D02*
X150686000Y-64579500D01*
G04 #@! TO.C,K_G1*
X150940000Y-87185500D02*
X150940000Y-68389500D01*
X169736000Y-87185500D02*
X150940000Y-87185500D01*
X169736000Y-68389500D02*
X169736000Y-87185500D01*
X150940000Y-68389500D02*
X169736000Y-68389500D01*
G04 #@! TO.C,K_Q1*
X74739500Y-68135500D02*
X74739500Y-49339500D01*
X93535500Y-68135500D02*
X74739500Y-68135500D01*
X93535500Y-49339500D02*
X93535500Y-68135500D01*
X74739500Y-49339500D02*
X93535500Y-49339500D01*
G04 #@! TO.C,K_R1*
X131890000Y-64325500D02*
X131890000Y-45529500D01*
X150686000Y-64325500D02*
X131890000Y-64325500D01*
X150686000Y-45529500D02*
X150686000Y-64325500D01*
X131890000Y-45529500D02*
X150686000Y-45529500D01*
G04 #@! TO.C,K_S1*
X93790000Y-83375500D02*
X93790000Y-64579500D01*
X112586000Y-83375500D02*
X93790000Y-83375500D01*
X112586000Y-64579500D02*
X112586000Y-83375500D01*
X93790000Y-64579500D02*
X112586000Y-64579500D01*
G04 #@! TO.C,K_SHIFT1*
X31875680Y-106235500D02*
X31875680Y-87439500D01*
X74486720Y-106235500D02*
X31875680Y-106235500D01*
X74486720Y-87439500D02*
X74486720Y-106235500D01*
X31875680Y-87439500D02*
X74486720Y-87439500D01*
G04 #@! TO.C,K_SHIFT_REV_2.75_1*
X74486820Y-106235500D02*
X74486820Y-87439500D01*
X22350780Y-106235500D02*
X74486820Y-106235500D01*
X22350780Y-87439500D02*
X22350780Y-106235500D01*
X74486820Y-87439500D02*
X22350780Y-87439500D01*
G04 #@! TO.C,K_T1*
X150940000Y-68135500D02*
X150940000Y-49339500D01*
X169736000Y-68135500D02*
X150940000Y-68135500D01*
X169736000Y-49339500D02*
X169736000Y-68135500D01*
X150940000Y-49339500D02*
X169736000Y-49339500D01*
G04 #@! TO.C,K_TH_1U_1*
X179309753Y-132288714D02*
X187253286Y-115253753D01*
X196344714Y-140232247D02*
X179309753Y-132288714D01*
X204288247Y-123197286D02*
X196344714Y-140232247D01*
X187253286Y-115253753D02*
X204288247Y-123197286D01*
G04 #@! TO.C,K_V1*
X131890000Y-102425500D02*
X131890000Y-83629500D01*
X150686000Y-102425500D02*
X131890000Y-102425500D01*
X150686000Y-83629500D02*
X150686000Y-102425500D01*
X131890000Y-83629500D02*
X150686000Y-83629500D01*
G04 #@! TO.C,K_W1*
X93790000Y-64325500D02*
X93790000Y-45529500D01*
X112586000Y-64325500D02*
X93790000Y-64325500D01*
X112586000Y-45529500D02*
X112586000Y-64325500D01*
X93790000Y-45529500D02*
X112586000Y-45529500D01*
G04 #@! TO.C,K_WIN1*
X93790000Y-121476000D02*
X93790000Y-102680000D01*
X112586000Y-121476000D02*
X93790000Y-121476000D01*
X112586000Y-102680000D02*
X112586000Y-121476000D01*
X93790000Y-102680000D02*
X112586000Y-102680000D01*
G04 #@! TO.C,K_X1*
X93790000Y-102425500D02*
X93790000Y-83629500D01*
X112586000Y-102425500D02*
X93790000Y-102425500D01*
X112586000Y-83629500D02*
X112586000Y-102425500D01*
X93790000Y-83629500D02*
X112586000Y-83629500D01*
G04 #@! TO.C,K_Z1*
X74739500Y-106235500D02*
X74739500Y-87439500D01*
X93535500Y-106235500D02*
X74739500Y-106235500D01*
X93535500Y-87439500D02*
X93535500Y-106235500D01*
X74739500Y-87439500D02*
X93535500Y-87439500D01*
G04 #@! TO.C,K_THUMB_1U_4*
X162032753Y-124225714D02*
X169976286Y-107190753D01*
X179067714Y-132169247D02*
X162032753Y-124225714D01*
X187011247Y-115134286D02*
X179067714Y-132169247D01*
X169976286Y-107190753D02*
X187011247Y-115134286D01*
G04 #@! TO.C,K_THUMB_1U_3*
X178960247Y-132399286D02*
X171016714Y-149434247D01*
X161925286Y-124455753D02*
X178960247Y-132399286D01*
X153981753Y-141490714D02*
X161925286Y-124455753D01*
X171016714Y-149434247D02*
X153981753Y-141490714D01*
G04 #@! TO.C,K_THUMB_2U1*
X169988725Y-107202171D02*
X187023686Y-115145704D01*
X153994314Y-141502296D02*
X169988725Y-107202171D01*
X171029275Y-149445829D02*
X153994314Y-141502296D01*
X187023686Y-115145704D02*
X171029275Y-149445829D01*
G04 #@! TO.C,K_BKSP_1*
X36703000Y-49085500D02*
X36703000Y-30289500D01*
X74549000Y-49085500D02*
X36703000Y-49085500D01*
X74549000Y-30289500D02*
X74549000Y-49085500D01*
X36703000Y-30289500D02*
X74549000Y-30289500D01*
G04 #@! TO.C,K_XTRA1*
X36652200Y-49098200D02*
X36652200Y-30302200D01*
X55448200Y-49098200D02*
X36652200Y-49098200D01*
X55448200Y-30302200D02*
X55448200Y-49098200D01*
X36652200Y-30302200D02*
X55448200Y-30302200D01*
G04 #@! TD*
G04 #@! TO.C,K_CAPS1*
D11*
X43015494Y-86731928D02*
X42144637Y-86731928D01*
X42580065Y-86731928D02*
X42580065Y-85207928D01*
X42434922Y-85425642D01*
X42289780Y-85570785D01*
X42144637Y-85643357D01*
X43668637Y-86586785D02*
X43741208Y-86659357D01*
X43668637Y-86731928D01*
X43596065Y-86659357D01*
X43668637Y-86586785D01*
X43668637Y-86731928D01*
X44249208Y-85207928D02*
X45265208Y-85207928D01*
X44612065Y-86731928D01*
X46571494Y-85207928D02*
X45845780Y-85207928D01*
X45773208Y-85933642D01*
X45845780Y-85861071D01*
X45990922Y-85788500D01*
X46353780Y-85788500D01*
X46498922Y-85861071D01*
X46571494Y-85933642D01*
X46644065Y-86078785D01*
X46644065Y-86441642D01*
X46571494Y-86586785D01*
X46498922Y-86659357D01*
X46353780Y-86731928D01*
X45990922Y-86731928D01*
X45845780Y-86659357D01*
X45773208Y-86586785D01*
X47950351Y-85715928D02*
X47950351Y-86731928D01*
X47297208Y-85715928D02*
X47297208Y-86514214D01*
X47369780Y-86659357D01*
X47514922Y-86731928D01*
X47732637Y-86731928D01*
X47877780Y-86659357D01*
X47950351Y-86586785D01*
G04 #@! TO.C,K_ENTER_rev_2.25u_1*
X67864577Y-85353071D02*
X67937148Y-85280500D01*
X68082291Y-85207928D01*
X68445148Y-85207928D01*
X68590291Y-85280500D01*
X68662862Y-85353071D01*
X68735434Y-85498214D01*
X68735434Y-85643357D01*
X68662862Y-85861071D01*
X67792005Y-86731928D01*
X68735434Y-86731928D01*
X69388577Y-86586785D02*
X69461148Y-86659357D01*
X69388577Y-86731928D01*
X69316005Y-86659357D01*
X69388577Y-86586785D01*
X69388577Y-86731928D01*
X70041720Y-85353071D02*
X70114291Y-85280500D01*
X70259434Y-85207928D01*
X70622291Y-85207928D01*
X70767434Y-85280500D01*
X70840005Y-85353071D01*
X70912577Y-85498214D01*
X70912577Y-85643357D01*
X70840005Y-85861071D01*
X69969148Y-86731928D01*
X70912577Y-86731928D01*
X72291434Y-85207928D02*
X71565720Y-85207928D01*
X71493148Y-85933642D01*
X71565720Y-85861071D01*
X71710862Y-85788500D01*
X72073720Y-85788500D01*
X72218862Y-85861071D01*
X72291434Y-85933642D01*
X72364005Y-86078785D01*
X72364005Y-86441642D01*
X72291434Y-86586785D01*
X72218862Y-86659357D01*
X72073720Y-86731928D01*
X71710862Y-86731928D01*
X71565720Y-86659357D01*
X71493148Y-86586785D01*
X73670291Y-85715928D02*
X73670291Y-86731928D01*
X73017148Y-85715928D02*
X73017148Y-86514214D01*
X73089720Y-86659357D01*
X73234862Y-86731928D01*
X73452577Y-86731928D01*
X73597720Y-86659357D01*
X73670291Y-86586785D01*
G04 #@! TO.C,K_SHIFT1*
X32619537Y-104403071D02*
X32692108Y-104330500D01*
X32837251Y-104257928D01*
X33200108Y-104257928D01*
X33345251Y-104330500D01*
X33417822Y-104403071D01*
X33490394Y-104548214D01*
X33490394Y-104693357D01*
X33417822Y-104911071D01*
X32546965Y-105781928D01*
X33490394Y-105781928D01*
X34143537Y-105636785D02*
X34216108Y-105709357D01*
X34143537Y-105781928D01*
X34070965Y-105709357D01*
X34143537Y-105636785D01*
X34143537Y-105781928D01*
X34796680Y-104403071D02*
X34869251Y-104330500D01*
X35014394Y-104257928D01*
X35377251Y-104257928D01*
X35522394Y-104330500D01*
X35594965Y-104403071D01*
X35667537Y-104548214D01*
X35667537Y-104693357D01*
X35594965Y-104911071D01*
X34724108Y-105781928D01*
X35667537Y-105781928D01*
X37046394Y-104257928D02*
X36320680Y-104257928D01*
X36248108Y-104983642D01*
X36320680Y-104911071D01*
X36465822Y-104838500D01*
X36828680Y-104838500D01*
X36973822Y-104911071D01*
X37046394Y-104983642D01*
X37118965Y-105128785D01*
X37118965Y-105491642D01*
X37046394Y-105636785D01*
X36973822Y-105709357D01*
X36828680Y-105781928D01*
X36465822Y-105781928D01*
X36320680Y-105709357D01*
X36248108Y-105636785D01*
X38425251Y-104765928D02*
X38425251Y-105781928D01*
X37772108Y-104765928D02*
X37772108Y-105564214D01*
X37844680Y-105709357D01*
X37989822Y-105781928D01*
X38207537Y-105781928D01*
X38352680Y-105709357D01*
X38425251Y-105636785D01*
G04 #@! TO.C,K_SHIFT_REV_2.75_1*
X67864677Y-104403071D02*
X67937248Y-104330500D01*
X68082391Y-104257928D01*
X68445248Y-104257928D01*
X68590391Y-104330500D01*
X68662962Y-104403071D01*
X68735534Y-104548214D01*
X68735534Y-104693357D01*
X68662962Y-104911071D01*
X67792105Y-105781928D01*
X68735534Y-105781928D01*
X69388677Y-105636785D02*
X69461248Y-105709357D01*
X69388677Y-105781928D01*
X69316105Y-105709357D01*
X69388677Y-105636785D01*
X69388677Y-105781928D01*
X69969248Y-104257928D02*
X70985248Y-104257928D01*
X70332105Y-105781928D01*
X72291534Y-104257928D02*
X71565820Y-104257928D01*
X71493248Y-104983642D01*
X71565820Y-104911071D01*
X71710962Y-104838500D01*
X72073820Y-104838500D01*
X72218962Y-104911071D01*
X72291534Y-104983642D01*
X72364105Y-105128785D01*
X72364105Y-105491642D01*
X72291534Y-105636785D01*
X72218962Y-105709357D01*
X72073820Y-105781928D01*
X71710962Y-105781928D01*
X71565820Y-105709357D01*
X71493248Y-105636785D01*
X73670391Y-104765928D02*
X73670391Y-105781928D01*
X73017248Y-104765928D02*
X73017248Y-105564214D01*
X73089820Y-105709357D01*
X73234962Y-105781928D01*
X73452677Y-105781928D01*
X73597820Y-105709357D01*
X73670391Y-105636785D01*
G04 #@! TO.C,K_THUMB_2U1*
X167601162Y-113395558D02*
X167566060Y-113299116D01*
X167561628Y-113136902D01*
X167714978Y-112808042D01*
X167842090Y-112707168D01*
X167938532Y-112672066D01*
X168100746Y-112667634D01*
X168232290Y-112728974D01*
X168398936Y-112886756D01*
X168820161Y-114044061D01*
X169218871Y-113189024D01*
X169363357Y-112535736D02*
X169459799Y-112500634D01*
X169494901Y-112597076D01*
X169398459Y-112632178D01*
X169363357Y-112535736D01*
X169494901Y-112597076D01*
X168543068Y-111032197D02*
X168604408Y-110900653D01*
X168731520Y-110799778D01*
X168827962Y-110764676D01*
X168990176Y-110760244D01*
X169283934Y-110817152D01*
X169612795Y-110970502D01*
X169845213Y-111158955D01*
X169946087Y-111286067D01*
X169981189Y-111382509D01*
X169985621Y-111544723D01*
X169924281Y-111676267D01*
X169797169Y-111777141D01*
X169700727Y-111812243D01*
X169538513Y-111816675D01*
X169244754Y-111759767D01*
X168915894Y-111606417D01*
X168683476Y-111417965D01*
X168582602Y-111290853D01*
X168547500Y-111194411D01*
X168543068Y-111032197D01*
X169156468Y-109716756D02*
X169217808Y-109585212D01*
X169344920Y-109484337D01*
X169441362Y-109449235D01*
X169603576Y-109444803D01*
X169897335Y-109501711D01*
X170226195Y-109655061D01*
X170458613Y-109843514D01*
X170559487Y-109970626D01*
X170594589Y-110067068D01*
X170599021Y-110229282D01*
X170537681Y-110360826D01*
X170410569Y-110461700D01*
X170314127Y-110496802D01*
X170151913Y-110501234D01*
X169858155Y-110444326D01*
X169529294Y-110290976D01*
X169296876Y-110102524D01*
X169196002Y-109975412D01*
X169160900Y-109878970D01*
X169156468Y-109716756D01*
X170383623Y-108287144D02*
X171304431Y-108716525D01*
X170107593Y-108879093D02*
X170831085Y-109216463D01*
X170993299Y-109212031D01*
X171120411Y-109111157D01*
X171212421Y-108913841D01*
X171207989Y-108751627D01*
X171172887Y-108655185D01*
G04 #@! TO.C,J1*
D12*
X155828666Y-30881080D02*
X155828666Y-31595366D01*
X155781047Y-31738223D01*
X155685809Y-31833461D01*
X155542952Y-31881080D01*
X155447714Y-31881080D01*
X156828666Y-31881080D02*
X156257238Y-31881080D01*
X156542952Y-31881080D02*
X156542952Y-30881080D01*
X156447714Y-31023938D01*
X156352476Y-31119176D01*
X156257238Y-31166795D01*
G04 #@! TO.C,J2*
X155828666Y-30881080D02*
X155828666Y-31595366D01*
X155781047Y-31738223D01*
X155685809Y-31833461D01*
X155542952Y-31881080D01*
X155447714Y-31881080D01*
X156257238Y-30976319D02*
X156304857Y-30928700D01*
X156400095Y-30881080D01*
X156638190Y-30881080D01*
X156733428Y-30928700D01*
X156781047Y-30976319D01*
X156828666Y-31071557D01*
X156828666Y-31166795D01*
X156781047Y-31309652D01*
X156209619Y-31881080D01*
X156828666Y-31881080D01*
G04 #@! TO.C,K_BKSP_1*
D11*
X37446857Y-47253071D02*
X37519428Y-47180500D01*
X37664571Y-47107928D01*
X38027428Y-47107928D01*
X38172571Y-47180500D01*
X38245142Y-47253071D01*
X38317714Y-47398214D01*
X38317714Y-47543357D01*
X38245142Y-47761071D01*
X37374285Y-48631928D01*
X38317714Y-48631928D01*
X38970857Y-48486785D02*
X39043428Y-48559357D01*
X38970857Y-48631928D01*
X38898285Y-48559357D01*
X38970857Y-48486785D01*
X38970857Y-48631928D01*
X39986857Y-47107928D02*
X40132000Y-47107928D01*
X40277142Y-47180500D01*
X40349714Y-47253071D01*
X40422285Y-47398214D01*
X40494857Y-47688500D01*
X40494857Y-48051357D01*
X40422285Y-48341642D01*
X40349714Y-48486785D01*
X40277142Y-48559357D01*
X40132000Y-48631928D01*
X39986857Y-48631928D01*
X39841714Y-48559357D01*
X39769142Y-48486785D01*
X39696571Y-48341642D01*
X39624000Y-48051357D01*
X39624000Y-47688500D01*
X39696571Y-47398214D01*
X39769142Y-47253071D01*
X39841714Y-47180500D01*
X39986857Y-47107928D01*
X41438285Y-47107928D02*
X41583428Y-47107928D01*
X41728571Y-47180500D01*
X41801142Y-47253071D01*
X41873714Y-47398214D01*
X41946285Y-47688500D01*
X41946285Y-48051357D01*
X41873714Y-48341642D01*
X41801142Y-48486785D01*
X41728571Y-48559357D01*
X41583428Y-48631928D01*
X41438285Y-48631928D01*
X41293142Y-48559357D01*
X41220571Y-48486785D01*
X41148000Y-48341642D01*
X41075428Y-48051357D01*
X41075428Y-47688500D01*
X41148000Y-47398214D01*
X41220571Y-47253071D01*
X41293142Y-47180500D01*
X41438285Y-47107928D01*
X43252571Y-47615928D02*
X43252571Y-48631928D01*
X42599428Y-47615928D02*
X42599428Y-48414214D01*
X42672000Y-48559357D01*
X42817142Y-48631928D01*
X43034857Y-48631928D01*
X43180000Y-48559357D01*
X43252571Y-48486785D01*
G04 #@! TD*
M02*
